<?xml version="1.0" encoding="UTF-8" standalone="no"?>
<!DOCTYPE svg PUBLIC "-//W3C//DTD SVG 1.0//EN" "http://www.w3.org/TR/2001/PR-SVG-20010719/DTD/svg10.dtd">
<svg width="31cm" height="16cm" viewBox="19 58 602 304" xmlns="http://www.w3.org/2000/svg" xmlns:xlink="http://www.w3.org/1999/xlink">
  <g>
    <path style="fill: #ffffff" d="M 40 60 L 120,60 C 131.046,60 140,68.9543 140,80 C 140,91.0457 131.046,100 120,100 L 40,100 C 28.9543,100 20,91.0457 20,80 C 20,68.9543 28.9543,60 40,60z"/>
    <path style="fill: none; fill-opacity:0; stroke-width: 2; stroke: #000000" d="M 40 60 L 120,60 C 131.046,60 140,68.9543 140,80 C 140,91.0457 131.046,100 120,100 L 40,100 C 28.9543,100 20,91.0457 20,80 C 20,68.9543 28.9543,60 40,60"/>
    <text font-size="12.7998" style="fill: #000000;text-anchor:middle;font-family:sans-serif;font-style:normal;font-weight:normal" x="80" y="85">
      <tspan x="80" y="85">Device</tspan>
    </text>
  </g>
  <g>
    <path style="fill: #ffffff" d="M 200 60 L 280,60 C 291.046,60 300,68.9543 300,80 C 300,91.0457 291.046,100 280,100 L 200,100 C 188.954,100 180,91.0457 180,80 C 180,68.9543 188.954,60 200,60z"/>
    <path style="fill: none; fill-opacity:0; stroke-width: 2; stroke: #000000" d="M 200 60 L 280,60 C 291.046,60 300,68.9543 300,80 C 300,91.0457 291.046,100 280,100 L 200,100 C 188.954,100 180,91.0457 180,80 C 180,68.9543 188.954,60 200,60"/>
    <text font-size="12.7998" style="fill: #000000;text-anchor:middle;font-family:sans-serif;font-style:normal;font-weight:normal" x="240" y="85">
      <tspan x="240" y="85">PCS</tspan>
    </text>
  </g>
  <g>
    <path style="fill: #ffffff" d="M 520 60 L 600,60 C 611.046,60 620,68.9543 620,80 C 620,91.0457 611.046,100 600,100 L 520,100 C 508.954,100 500,91.0457 500,80 C 500,68.9543 508.954,60 520,60z"/>
    <path style="fill: none; fill-opacity:0; stroke-width: 2; stroke: #000000" d="M 520 60 L 600,60 C 611.046,60 620,68.9543 620,80 C 620,91.0457 611.046,100 600,100 L 520,100 C 508.954,100 500,91.0457 500,80 C 500,68.9543 508.954,60 520,60"/>
    <text font-size="12.7998" style="fill: #000000;text-anchor:middle;font-family:sans-serif;font-style:normal;font-weight:normal" x="560" y="85">
      <tspan x="560" y="85">OCS</tspan>
    </text>
  </g>
  <text font-size="12.7998" style="fill: #000000;text-anchor:start;font-family:sans-serif;font-style:normal;font-weight:normal" x="40" y="140">
    <tspan x="40" y="140">Out of the box</tspan>
  </text>
  <g>
    <path style="fill: #ffffff" d="M 360 60 L 440,60 C 451.046,60 460,68.9543 460,80 C 460,91.0457 451.046,100 440,100 L 360,100 C 348.954,100 340,91.0457 340,80 C 340,68.9543 348.954,60 360,60z"/>
    <path style="fill: none; fill-opacity:0; stroke-width: 2; stroke: #000000" d="M 360 60 L 440,60 C 451.046,60 460,68.9543 460,80 C 460,91.0457 451.046,100 440,100 L 360,100 C 348.954,100 340,91.0457 340,80 C 340,68.9543 348.954,60 360,60"/>
    <text font-size="12.7998" style="fill: #000000;text-anchor:middle;font-family:sans-serif;font-style:normal;font-weight:normal" x="400" y="85">
      <tspan x="400" y="85">User</tspan>
    </text>
  </g>
  <line style="fill: none; fill-opacity:0; stroke-width: 2; stroke: #000000" x1="80" y1="100" x2="80" y2="120"/>
  <g>
    <line style="fill: none; fill-opacity:0; stroke-width: 2; stroke: #000000" x1="80" y1="140" x2="80" y2="350.264"/>
    <polygon style="fill: #000000" points="80,357.764 75,347.764 80,350.264 85,347.764 "/>
    <polygon style="fill: none; fill-opacity:0; stroke-width: 2; stroke: #000000" points="80,357.764 75,347.764 80,350.264 85,347.764 "/>
  </g>
  <g>
    <line style="fill: none; fill-opacity:0; stroke-width: 2; stroke: #000000" x1="80" y1="160" x2="230.264" y2="160"/>
    <polygon style="fill: #000000" points="237.764,160 227.764,165 230.264,160 227.764,155 "/>
    <polygon style="fill: none; fill-opacity:0; stroke-width: 2; stroke: #000000" points="237.764,160 227.764,165 230.264,160 227.764,155 "/>
  </g>
  <text font-size="12.7998" style="fill: #000000;text-anchor:start;font-family:sans-serif;font-style:normal;font-weight:normal" x="100" y="180">
    <tspan x="100" y="180">Initial connection to PCS</tspan>
    <tspan x="100" y="196">with predefined settings</tspan>
  </text>
  <g>
    <line style="fill: none; fill-opacity:0; stroke-width: 2; stroke: #000000" x1="240" y1="100" x2="240" y2="350.264"/>
    <polygon style="fill: #000000" points="240,357.764 235,347.764 240,350.264 245,347.764 "/>
    <polygon style="fill: none; fill-opacity:0; stroke-width: 2; stroke: #000000" points="240,357.764 235,347.764 240,350.264 245,347.764 "/>
  </g>
  <line style="fill: none; fill-opacity:0; stroke-width: 2; stroke: #000000" x1="240" y1="220" x2="400" y2="220"/>
  <g>
    <line style="fill: none; fill-opacity:0; stroke-width: 2; stroke: #000000" x1="400" y1="280" x2="249.736" y2="280"/>
    <polygon style="fill: #000000" points="242.236,280 252.236,275 249.736,280 252.236,285 "/>
    <polygon style="fill: none; fill-opacity:0; stroke-width: 2; stroke: #000000" points="242.236,280 252.236,275 249.736,280 252.236,285 "/>
  </g>
  <line style="fill: none; fill-opacity:0; stroke-width: 2; stroke: #000000" x1="400" y1="220" x2="400" y2="280"/>
  <text font-size="12.7998" style="fill: #000000;text-anchor:start;font-family:sans-serif;font-style:normal;font-weight:normal" x="280" y="260">
    <tspan x="280" y="260">Ownership claim</tspan>
  </text>
  <g>
    <line style="fill: none; fill-opacity:0; stroke-width: 2; stroke: #000000" x1="400" y1="100" x2="400" y2="350.264"/>
    <polygon style="fill: #000000" points="400,357.764 395,347.764 400,350.264 405,347.764 "/>
    <polygon style="fill: none; fill-opacity:0; stroke-width: 2; stroke: #000000" points="400,357.764 395,347.764 400,350.264 405,347.764 "/>
  </g>
  <g>
    <line style="fill: none; fill-opacity:0; stroke-width: 2; stroke: #000000" x1="560" y1="100" x2="560" y2="350.264"/>
    <polygon style="fill: #000000" points="560,357.764 555,347.764 560,350.264 565,347.764 "/>
    <polygon style="fill: none; fill-opacity:0; stroke-width: 2; stroke: #000000" points="560,357.764 555,347.764 560,350.264 565,347.764 "/>
  </g>
  <path style="fill: none; fill-opacity:0; stroke-width: 2; stroke: #000000" d="M 420,320 A 20,20 0 1 0 380,320"/>
  <line style="fill: none; fill-opacity:0; stroke-width: 2; stroke: #000000" x1="240" y1="320" x2="380" y2="320"/>
  <g>
    <line style="fill: none; fill-opacity:0; stroke-width: 2; stroke: #000000" x1="420" y1="320" x2="550.264" y2="320"/>
    <polygon style="fill: #000000" points="557.764,320 547.764,325 550.264,320 547.764,315 "/>
    <polygon style="fill: none; fill-opacity:0; stroke-width: 2; stroke: #000000" points="557.764,320 547.764,325 550.264,320 547.764,315 "/>
  </g>
  <text font-size="12.7998" style="fill: #000000;text-anchor:start;font-family:sans-serif;font-style:normal;font-weight:normal" x="280" y="340">
    <tspan x="280" y="340">Device transfer</tspan>
  </text>
</svg>
