<svg xmlns="http://www.w3.org/2000/svg" xml:space="preserve" width="297mm" height="210mm" fill-rule="evenodd" stroke-linejoin="round" stroke-width="28.222" preserveAspectRatio="xMidYMid" version="1.2" viewBox="0 0 29700 21000">
  <defs class="ClipPathGroup">
    <clipPath id="b" clipPathUnits="userSpaceOnUse">
      <path d="M0 0h29700v21000H0z"/>
    </clipPath>
    <clipPath id="a" clipPathUnits="userSpaceOnUse">
      <path d="M3533.413 4811.456H23330.55v11276.85H3533.413z" style="fill:#000000;fill-opacity:1;stroke-width:746.70709229"/>
    </clipPath>
  </defs>
  <g class="SlideGroup" clip-path="url(#a)" transform="matrix(1.5364 0 0 1.89314 -5984.573 -8810.141)">
    <g class="Slide" clip-path="url(#b)">
      <g class="Page">
        <g class="com.sun.star.drawing.CustomShape">
          <path d="M5570 11667h4448v2543H5570Z" class="BoundingBox" style="fill:none;stroke:none"/>
          <path d="M7794 14208H5571v-2540h4445v2540z" style="fill:none;stroke:#000000"/>
          <text class="TextShape"><tspan class="TextParagraph" font-size="635" font-weight="400" style="font-weight:400;font-size:635px;font-family:'Liberation Sans', sans-serif"><tspan x="7055" y="13159" class="TextPosition"><tspan style="fill:#000000;stroke:none">client</tspan></tspan></tspan></text>
        </g>
        <g class="com.sun.star.drawing.CustomShape">
          <path d="M17381 11667h4448v2543h-4448z" class="BoundingBox" style="fill:none;stroke:none"/>
          <path d="M19605 14208h-2223v-2540h4445v2540z" style="fill:none;stroke:#000000"/>
          <text class="TextShape"><tspan class="TextParagraph" font-size="635" font-weight="400" style="font-weight:400;font-size:635px;font-family:'Liberation Sans', sans-serif"><tspan x="18690" y="13159" class="TextPosition"><tspan style="fill:#000000;stroke:none">device</tspan></tspan></tspan></text>
        </g>
        <g class="Group">
          <g class="com.sun.star.drawing.CustomShape">
            <path d="M9761 5190h7497v3814H9761Z" class="BoundingBox" style="fill:none;stroke:none"/>
            <path d="M10431 6454c-139-471 510-916 1159-916 205-3 416 42 590 111 166-213 475-344 822-344 230 7 475 71 649 185 125-188 388-299 673-299 239 0 458 81 597 204 159-127 399-204 648-204 406 0 750 199 823 478 392 77 676 330 676 619 0 88-21 173-80 254 167 141 268 316 268 494 0 404-448 745-1024 803 0 386-444 690-999 690-191 0-371-37-531-108-146 341-607 581-1124 581-385 0-750-143-968-369-205 86-97 137-684 137-482 0-926-178-1158-467-555-7-840-237-840-526 0-134 73-256 205-356-240-85-371-253-371-445 0-270 291-492 669-522z" style="fill:none;stroke:#000000"/>
            <path d="M10431 6454c7 44 38 93 56 134m1693-939c80 34 177 80 243 126m1228-285c-28 37-45 82-63 124m1333-219c-52 43-80 99-115 150m1586 124c7 31 41 102 27 118m569 755c-59 90-138 169-249 235m-504 1062c28-143-131-496-575-628m-958 1210c28-58 38-111 45-168m-2134 380c-55-46-90-99-125-154m-1720-176c66-7 131-18 194-34m-829-848c114 46 246 86 437 70" style="fill:none;stroke:#000000"/>
          </g>
          <g class="com.sun.star.drawing.LineShape">
            <path d="M9762 7095h7496v3H9762Z" class="BoundingBox" style="fill:none;stroke:none"/>
            <path d="M9763 7096h162m81 0h161m81 0h162m81 0h161m81 0h162m81 0h161m81 0h162m81 0h162m80 0h162m81 0h162m81 0h161m81 0h162m81 0h161m81 0h162m81 0h161m81 0h162m81 0h161m81 0h162m81 0h162m80 0h162m81 0h162m81 0h161m81 0h162m81 0h161m81 0h162m81 0h161m81 0h162m81 0h162m80 0h162m81 0h162m81 0h161" style="fill:none;stroke:#000000"/>
          </g>
          <g class="com.sun.star.drawing.TextShape">
            <path d="M10906 5953h5462v1017h-5462z" class="BoundingBox" style="fill:none;stroke:none"/>
            <text class="TextShape"><tspan class="TextParagraph" font-size="635" font-weight="400" style="font-weight:400;font-size:635px;font-family:'Liberation Sans', sans-serif"><tspan x="11156" y="6654" class="TextPosition"><tspan style="fill:#000000;stroke:none">signaling server</tspan></tspan></tspan></text>
          </g>
        </g>
        <g class="Group">
          <g class="com.sun.star.drawing.ConnectorShape">
            <path d="M7793 7095h1972v4575H7793Z" class="BoundingBox" style="fill:none;stroke:none"/>
            <path d="m7794 11668 64-149m32-74 64-148m32-75 64-148m32-74 64-149m32-74 64-149m32-74 64-148m32-75 64-148m32-74 64-149m32-74 63-149m32-74 64-148m32-75 64-148m32-74 64-149m32-74 64-149m32-74 64-149m32-74 64-148m32-75 64-148m32-74 64-149m32-74 64-149m32-74 64-148m32-75 64-148m32-74 50-117" style="fill:none;stroke:#000000"/>
          </g>
          <g class="com.sun.star.drawing.TextShape">
            <path d="M5572 8395h3049v2385H5572Z" class="BoundingBox" style="fill:none;stroke:none"/>
            <text class="TextShape"><tspan class="TextParagraph" font-size="635" font-weight="400" style="font-weight:400;font-size:635px;font-family:'Liberation Sans', sans-serif"><tspan x="5822" y="9096" class="TextPosition"><tspan style="fill:#000000;stroke:none">ONVIF </tspan></tspan><tspan x="5822" y="9807" class="TextPosition"><tspan style="fill:#000000;stroke:none">signaling </tspan></tspan><tspan x="5822" y="10518" class="TextPosition"><tspan style="fill:#000000;stroke:none">protocol</tspan></tspan></tspan></text>
          </g>
        </g>
        <g class="Group">
          <g class="com.sun.star.drawing.ConnectorShape">
            <path d="M17255 7095h2352v4575h-2352z" class="BoundingBox" style="fill:none;stroke:none"/>
            <path d="m17256 7096 74 144m37 72 74 144m37 71 74 144m37 72 73 144m37 72 74 144m37 72 74 144m37 71 74 144m37 72 74 144m37 72 74 144m37 72 73 143m37 72 74 144m37 72 74 144m37 72 74 144m37 72 74 143m37 72 74 144m37 72 74 144m36 72 74 144m37 72 74 143m37 72 74 144m37 72 74 144m37 72 74 144m37 72 21 41" style="fill:none;stroke:#000000"/>
          </g>
          <g class="com.sun.star.drawing.TextShape">
            <path d="M19034 8522h3049v2385h-3049z" class="BoundingBox" style="fill:none;stroke:none"/>
            <text class="TextShape"><tspan class="TextParagraph" font-size="635" font-weight="400" style="font-weight:400;font-size:635px;font-family:'Liberation Sans', sans-serif"><tspan x="19284" y="9223" class="TextPosition"><tspan style="fill:#000000;stroke:none">ONVIF </tspan></tspan><tspan x="19284" y="9934" class="TextPosition"><tspan style="fill:#000000;stroke:none">signaling </tspan></tspan><tspan x="19284" y="10645" class="TextPosition"><tspan style="fill:#000000;stroke:none">protocol</tspan></tspan></tspan></text>
          </g>
        </g>
        <g class="Group">
          <g class="com.sun.star.drawing.ConnectorShape">
            <path d="M10016 12937h7369v3h-7369z" class="BoundingBox" style="fill:none;stroke:none"/>
            <path d="M10017 12938h162m81 0h161m81 0h162m81 0h161m81 0h162m81 0h161m81 0h162m81 0h162m80 0h162m81 0h162m81 0h161m81 0h162m81 0h161m81 0h162m81 0h161m81 0h162m81 0h161m81 0h162m81 0h162m80 0h162m81 0h162m81 0h161m81 0h162m81 0h161m81 0h162m81 0h161m81 0h162m81 0h162m80 0h162m81 0h162m81 0h89" style="fill:none;stroke:#000000"/>
          </g>
          <g class="com.sun.star.drawing.TextShape">
            <path d="M10144 13551h7367v1674h-7367z" class="BoundingBox" style="fill:none;stroke:none"/>
            <text class="TextShape"><tspan class="TextParagraph" font-size="635" font-weight="400" style="font-weight:400;font-size:635px;font-family:'Liberation Sans', sans-serif"><tspan x="10394" y="14252" class="TextPosition"><tspan style="fill:#000000;stroke:none">standard WebRTC</tspan></tspan></tspan><tspan class="TextParagraph" font-size="635" font-weight="400" style="font-weight:400;font-size:635px;font-family:'Liberation Sans', sans-serif"><tspan x="10394" y="14963" class="TextPosition"><tspan style="fill:#000000;stroke:none">peer-to-peer connection</tspan></tspan></tspan></text>
          </g>
        </g>
        <g class="com.sun.star.drawing.CustomShape">
          <path d="M21807 11947h781v1909h-781z" class="BoundingBox" style="fill:none;stroke:none"/>
          <path d="m22566 11948 20 1906-768-469-10-953z" style="fill:none;stroke:#000000"/>
        </g>
        <g class="Group">
          <g class="com.sun.star.drawing.LineShape">
            <path d="M4870 13264h3v873h-3z" class="BoundingBox" style="fill:none;stroke:none"/>
            <path d="M4871 13265v870" style="fill:none;stroke:#000000"/>
          </g>
          <g class="com.sun.star.drawing.LineShape">
            <path d="M4301 14134h572v584h-572z" class="BoundingBox" style="fill:none;stroke:none"/>
            <path d="m4871 14135-569 581" style="fill:none;stroke:#000000"/>
          </g>
          <g class="com.sun.star.drawing.LineShape">
            <path d="M4301 13646h572v346h-572z" class="BoundingBox" style="fill:none;stroke:none"/>
            <path d="m4302 13990 569-343" style="fill:none;stroke:#000000"/>
          </g>
          <g class="com.sun.star.drawing.CustomShape">
            <path d="M4490 12682h761v585h-761z" class="BoundingBox" style="fill:none;stroke:none"/>
            <path d="M5249 12974c0 51-18 101-51 146-33 44-81 80-138 106-58 26-123 39-190 39s-132-13-189-39c-58-26-106-62-139-106-33-45-51-95-51-146s18-101 51-145c33-45 81-81 139-107 57-26 122-39 189-39s132 13 190 39c57 26 105 62 138 107 33 44 51 94 51 145z" style="fill:none;stroke:#000000"/>
          </g>
          <g class="com.sun.star.drawing.LineShape">
            <path d="M4875 13640h572v345h-572z" class="BoundingBox" style="fill:none;stroke:none"/>
            <path d="m4876 13641 569 342" style="fill:none;stroke:#000000"/>
          </g>
          <g class="com.sun.star.drawing.LineShape">
            <path d="M4870 14151h571v557h-571z" class="BoundingBox" style="fill:none;stroke:none"/>
            <path d="m5439 14706-568-554" style="fill:none;stroke:#000000"/>
          </g>
        </g>
      </g>
    </g>
  </g>
</svg>
