<svg xmlns:inkscape="http://www.inkscape.org/namespaces/inkscape" xmlns:sodipodi="http://sodipodi.sourceforge.net/DTD/sodipodi-0.dtd" xmlns="http://www.w3.org/2000/svg" xmlns:svg="http://www.w3.org/2000/svg" xmlns:rdf="http://www.w3.org/1999/02/22-rdf-syntax-ns#" xmlns:cc="http://creativecommons.org/ns#" xmlns:dc="http://purl.org/dc/elements/1.1/" inkscape:version="1.0 (4035a4fb49, 2020-05-01)" id="svg8" version="1.1" viewBox="0 0 78.451129 52.714823" height="199.23712" width="296.50821">
  <defs id="defs2">
    <clipPath id="clipEmfPath1">
      <path d="M -7.9951545,-5.2768019 H 283.98789 V 200.67838 H -7.9951545 Z" id="path10" />
    </clipPath>
    <pattern id="EMFhbasepattern" patternUnits="userSpaceOnUse" width="6" height="6" x="0" y="0" />
    <clipPath id="clipEmfPath1-1">
      <path d="M 0,-0.31980618 H 604.43368 V 214.6699 H 0 Z" id="path184" />
    </clipPath>
    <clipPath id="clipEmfPath2">
      <path d="M 184.52816,52.208359 H 431.09873 V 209.23319 H 184.52816 Z" id="path187" />
    </clipPath>
    <clipPath id="clipEmfPath3">
      <path d="m 239.85463,85.708056 h 55.96608 v 26.384014 h -55.96608 z" id="path190" />
    </clipPath>
    <clipPath id="clipEmfPath4">
      <path d="m 255.84494,155.74561 h 79.95155 v 26.38401 h -79.95155 z" id="path193" />
    </clipPath>
    <pattern id="EMFhbasepattern-8" patternUnits="userSpaceOnUse" width="6" height="6" x="0" y="0" />
  </defs>
  <!-- sodipodi ignored -->
  <!-- metadata ignored -->
    <!-- rdf ignored -->
      <!-- cc ignored -->
        <!-- dc ignored -->image/svg+xml
        <!-- dc ignored -->
        <!-- dc ignored -->
      
    
  
  <g transform="translate(-54.920213,-114.14504)" id="layer1">
    <path style="fill: none; stroke: #000000; stroke-width: 0.354327px; stroke-linecap: round; stroke-linejoin: miter; stroke-miterlimit: 8; stroke-dasharray: none; stroke-opacity: 1" d="M 67.617251,122.25962 V 166.6827 H 133.19418 V 122.25962 Z" id="path253" />
    <g transform="matrix(0.26458333,0,0,0.26458333,18.973981,109.88991)" clip-path="url(#clipEmfPath2)" id="g261">
      <text style="font-style: normal; font-variant: normal; font-weight: 400; font-size: 13.375px; line-height: 125%; font-family: Arial; text-align: start; letter-spacing: 0px; word-spacing: 0px; text-anchor: start; fill: #000000; fill-opacity: 1; stroke: none" transform="translate(194.12235,135.35796)" x="0" y="0" id="text259"><tspan x="0" y="0" id="tspan257"><tspan dx="0" dy="0" style="font-style: normal; font-variant: normal; font-weight: 400; font-size: 13.375px; font-family: Arial; fill: #000000" id="tspan255"> </tspan></tspan></text>
    </g>
    <path style="fill: #000000; fill-opacity: 1; fill-rule: nonzero; stroke: #000000; stroke-width: 0.0211538px; stroke-linecap: butt; stroke-linejoin: bevel; stroke-miterlimit: 4; stroke-dasharray: none; stroke-opacity: 1" d="M 118.74081,138.29952 H 56.691288 v -0.34903 h 62.049522 z m -0.35432,-1.23221 2.11538,1.0577 -2.11538,1.05769 z m -61.346164,2.11539 -2.115383,-1.05769 2.115383,-1.0577 z" id="path263" />
    <path style="fill: #000000; fill-opacity: 1; fill-rule: nonzero; stroke: #000000; stroke-width: 0.0211538px; stroke-linecap: butt; stroke-linejoin: bevel; stroke-miterlimit: 4; stroke-dasharray: none; stroke-opacity: 1" d="m 84.365805,163.15529 v -47.24182 h 0.35169 v 47.24182 z m 1.23221,-0.35168 -1.05769,2.11539 -1.05769,-2.11539 z m -2.11538,-46.53846 1.05769,-2.11538 1.05769,2.11538 z" id="path265" />
    <path style="fill: #000000; fill-opacity: 1; fill-rule: nonzero; stroke: #000000; stroke-width: 0.0211538px; stroke-linecap: butt; stroke-linejoin: bevel; stroke-miterlimit: 4; stroke-dasharray: none; stroke-opacity: 1" d="m 95.117245,131.95337 h -1.40937 v -0.35168 h 1.40937 z m -2.46706,0 h -1.40938 v -0.35168 h 1.40938 z m -2.46707,0 h -1.41202 v -0.35168 h 1.41202 z m -2.46971,0 h -1.40938 v -0.35168 h 1.40938 z m -2.46707,0 h -1.40937 v -0.35168 h 1.40937 z m -2.46706,0 h -1.41202 v -0.35168 h 1.41202 z m -2.46972,0 h -1.40937 v -0.35168 h 1.40937 z m -2.46707,0 h -1.40937 v -0.35168 h 1.40937 z m -2.46706,0 h -1.41202 v -0.35168 h 1.41202 z m -1.23486,0.88317 v 1.40938 h -0.35168 v -1.40938 z m 0,2.46707 v 1.40938 h -0.35168 v -1.40938 z m 0,2.46707 v 1.41202 h -0.35168 v -1.41202 z m 0,2.46971 v 1.40938 h -0.35168 v -1.40938 z m 0,2.46707 v 1.40937 h -0.35168 v -1.40937 z m 0.52885,1.58654 h 1.40937 v 0.35168 h -1.40937 z m 2.46707,0 h 1.41202 v 0.35168 h -1.41202 z m 2.46971,0 h 1.40937 v 0.35168 h -1.40937 z m 2.46706,0 h 1.40938 v 0.35168 h -1.40938 z m 2.46707,0 h 1.41202 v 0.35168 h -1.41202 z m 2.46971,0 h 1.40938 v 0.35168 h -1.40938 z m 2.46707,0 h 1.40938 v 0.35168 h -1.40938 z m 2.46707,0 h 1.41202 v 0.35168 h -1.41202 z m 2.46971,0 h 0.70336 l -0.17452,0.17716 v -0.70601 h 0.35169 v 0.88053 h -0.88053 z m 0.52884,-1.58654 v -1.40938 h 0.35169 v 1.40938 z m 0,-2.46707 v -1.41202 h 0.35169 v 1.41202 z m 0,-2.46971 v -1.40938 h 0.35169 v 1.40938 z m 0,-2.46707 v -1.40937 h 0.35169 v 1.40937 z m 0,-2.46707 v -1.05769 h 0.35169 v 1.05769 z" id="path267" />
    <path style="fill: #000000; fill-opacity: 1; fill-rule: evenodd; stroke: none; stroke-width: 0.264583" d="m 84.347295,137.01443 c -0.58437,0 -1.05769,0.47596 -1.05769,1.06563 0,0.58966 0.47332,1.06562 1.05769,1.06562 0.58438,0 1.0577,-0.47596 1.0577,-1.06562 0,-0.58967 -0.47332,-1.06563 -1.0577,-1.06563 z" id="path269" />
    <path style="fill: none; stroke: #000000; stroke-width: 0.351683px; stroke-linecap: round; stroke-linejoin: round; stroke-miterlimit: 4; stroke-dasharray: none; stroke-opacity: 1" d="m 84.347295,137.01443 c -0.58437,0 -1.05769,0.47596 -1.05769,1.06563 0,0.58966 0.47332,1.06562 1.05769,1.06562 0.58438,0 1.0577,-0.47596 1.0577,-1.06562 0,-0.58967 -0.47332,-1.06563 -1.0577,-1.06563" id="path271" />
    <path style="fill: #000000; fill-opacity: 1; fill-rule: nonzero; stroke: #000000; stroke-width: 0.0211538px; stroke-linecap: butt; stroke-linejoin: bevel; stroke-miterlimit: 4; stroke-dasharray: none; stroke-opacity: 1" d="m 84.677825,138.0113 9.44784,11.33847 -0.27236,0.22476 -9.44783,-11.33847 z m 9.9,10.50289 0.53942,2.30312 -2.16562,-0.94927 z" id="path273" />
    <g transform="matrix(0.26458333,0,0,0.26458333,18.973981,109.88991)" clip-path="url(#clipEmfPath3)" id="g287">
      <text style="font-style: normal; font-variant: normal; font-weight: 400; font-size: 13.375px; line-height: 125%; font-family: Arial; text-align: start; letter-spacing: 0px; word-spacing: 0px; text-anchor: start; fill: #000000; fill-opacity: 1; stroke: none" transform="translate(249.44882,98.100545)" x="0" y="0" id="text285"><tspan x="0" y="0" id="tspan283"><tspan dx="0" dy="0" style="font-style: normal; font-variant: normal; font-weight: 400; font-size: 13.375px; font-family: Arial; fill: #000000" id="tspan275">(</tspan><tspan dx="0" dy="0" style="font-style: normal; font-variant: normal; font-weight: 400; font-size: 13.375px; font-family: Arial; fill: #000000" id="tspan277">0,</tspan><tspan dx="0" dy="0" style="font-style: normal; font-variant: normal; font-weight: 400; font-size: 13.375px; font-family: Arial; fill: #000000" id="tspan279">0)</tspan><tspan dx="0" dy="0" style="font-style: normal; font-variant: normal; font-weight: 400; font-size: 13.375px; font-family: Arial; fill: #000000" id="tspan281"> </tspan></tspan></text>
    </g>
    <path style="fill: #000000; fill-opacity: 1; fill-rule: nonzero; stroke: #000000; stroke-width: 0.0211538px; stroke-linecap: butt; stroke-linejoin: bevel; stroke-miterlimit: 4; stroke-dasharray: none; stroke-opacity: 1" d="m 105.69418,144.64568 h -1.40673 v -0.34904 h 1.40673 z m -2.46443,0 h -1.41201 v -0.34904 h 1.41201 z m -2.46971,0 h -1.412025 v -0.34904 h 1.412025 z m -2.469715,0 h -1.40673 v -0.34904 h 1.40673 z m -2.46442,0 h -1.41202 v -0.34904 h 1.41202 z m -2.46971,0 h -1.41202 v -0.34904 h 1.41202 z m -2.46971,0 h -1.40673 v -0.34904 h 1.40673 z m -2.46443,0 h -1.41202 v -0.34904 h 1.41202 z m -2.46971,0 h -1.41202 l 0.17981,-0.17452 v 0 h -0.35433 v -0.17452 h 1.58654 z m -1.23221,0.88317 v 1.41202 h -0.35433 v -1.41202 z m 0,2.46971 v 1.40674 h -0.35433 v -1.40674 z m 0,2.46443 v 1.41202 h -0.35433 v -1.41202 z m 0,2.46971 v 1.41202 h -0.35433 v -1.41202 z m 0,2.46971 v 1.40673 h -0.35433 v -1.40673 z m 0.52885,1.58654 h 1.40673 v 0.34904 h -1.40673 z m 2.46442,0 h 1.41202 v 0.34904 h -1.41202 z m 2.46971,0 h 1.41202 v 0.34904 h -1.41202 z m 2.46971,0 h 1.40673 v 0.34904 h -1.40673 z m 2.46442,0 h 1.41202 v 0.34904 h -1.41202 z m 2.46972,0 h 1.41202 v 0.34904 h -1.41202 z m 2.469715,0 h 1.40673 v 0.34904 h -1.40673 z m 2.46442,0 h 1.41202 v 0.34904 h -1.41202 z m 2.46971,0 h 0.70337 l -0.17452,0.17452 v -0.70337 h 0.35432 v 0.87789 h -0.88317 z m 0.52885,-1.58654 v -1.41202 h 0.35432 v 1.41202 z m 0,-2.46971 v -1.41202 h 0.35432 v 1.41202 z m 0,-2.46971 v -1.40674 h 0.35432 v 1.40674 z m 0,-2.46443 v -1.41202 h 0.35432 v 1.41202 z m 0,-2.46971 v -1.05769 h 0.35432 v 1.05769 z" id="path289" />
    <g transform="matrix(0.26458333,0,0,0.26458333,18.973981,109.88991)" clip-path="url(#clipEmfPath4)" id="g307">
      <text style="font-style: normal; font-variant: normal; font-weight: 400; font-size: 13.375px; line-height: 125%; font-family: Arial; text-align: start; letter-spacing: 0px; word-spacing: 0px; text-anchor: start; fill: #000000; fill-opacity: 1; stroke: none" transform="translate(265.43913,168.1381)" x="0" y="0" id="text305"><tspan x="0" y="0" id="tspan303"><tspan dx="0" dy="0" style="font-style: normal; font-variant: normal; font-weight: 400; font-size: 13.375px; font-family: Arial; fill: #000000" id="tspan291">(</tspan><tspan dx="0" dy="0" style="font-style: normal; font-variant: normal; font-weight: 400; font-size: 13.375px; font-family: Arial; fill: #000000" id="tspan293">0.1,</tspan><tspan dx="0" dy="0" style="font-style: normal; font-variant: normal; font-weight: 400; font-size: 13.375px; font-family: Arial; fill: #000000" id="tspan295">-</tspan><tspan dx="0" dy="0" style="font-style: normal; font-variant: normal; font-weight: 400; font-size: 13.375px; font-family: Arial; fill: #000000" id="tspan297">0.2</tspan><tspan dx="0" dy="0" style="font-style: normal; font-variant: normal; font-weight: 400; font-size: 13.375px; font-family: Arial; fill: #000000" id="tspan299">)</tspan><tspan dx="0" dy="0" style="font-style: normal; font-variant: normal; font-weight: 400; font-size: 13.375px; font-family: Arial; fill: #000000" id="tspan301"> </tspan></tspan></text>
    </g>
  </g>
</svg>