<?xml version="1.0" encoding="UTF-8" standalone="no"?>
<svg
   xmlns:dc="http://purl.org/dc/elements/1.1/"
   xmlns:cc="http://creativecommons.org/ns#"
   xmlns:rdf="http://www.w3.org/1999/02/22-rdf-syntax-ns#"
   xmlns:svg="http://www.w3.org/2000/svg"
   xmlns="http://www.w3.org/2000/svg"
   xmlns:sodipodi="http://sodipodi.sourceforge.net/DTD/sodipodi-0.dtd"
   xmlns:inkscape="http://www.inkscape.org/namespaces/inkscape"
   version="1.0"
   width="648.22089"
   height="270.1218"
   id="svg159"
   sodipodi:docname="image5.svg"
   inkscape:version="0.92.4 (5da689c313, 2019-01-14)">
  <metadata
     id="metadata163">
    <rdf:RDF>
      <cc:Work
         rdf:about="">
        <dc:format>image/svg+xml</dc:format>
        <dc:type
           rdf:resource="http://purl.org/dc/dcmitype/StillImage" />
        <dc:title></dc:title>
      </cc:Work>
    </rdf:RDF>
  </metadata>
  <sodipodi:namedview
     pagecolor="#ffffff"
     bordercolor="#666666"
     borderopacity="1"
     objecttolerance="10"
     gridtolerance="10"
     guidetolerance="10"
     inkscape:pageopacity="0"
     inkscape:pageshadow="2"
     inkscape:window-width="640"
     inkscape:window-height="480"
     id="namedview161"
     showgrid="false"
     units="px"
     fit-margin-top="0"
     fit-margin-left="0"
     fit-margin-right="0"
     fit-margin-bottom="0"
     inkscape:zoom="0.68448393"
     inkscape:cx="379.67947"
     inkscape:cy="93.533939"
     inkscape:window-x="0"
     inkscape:window-y="0"
     inkscape:window-maximized="0"
     inkscape:current-layer="svg159" />
  <defs
     id="defs3">
    <pattern
       id="EMFhbasepattern"
       patternUnits="userSpaceOnUse"
       width="6"
       height="6"
       x="0"
       y="0" />
  </defs>
  <path
     style="fill:#ffffff;fill-opacity:1;fill-rule:evenodd;stroke:none"
     d="M 0,0 V 270.1218 H 648.22086 V 0 Z"
     id="path5"
     inkscape:connector-curvature="0" />
  <path
     style="fill:#ffffff;fill-opacity:1;fill-rule:evenodd;stroke:none"
     d="m 128.48651,119.41099 v 43.16232 h 64.81494 v -43.16232 z"
     id="path7"
     inkscape:connector-curvature="0" />
  <path
     style="fill:none;stroke:#000000;stroke-width:1.07191193px;stroke-linecap:butt;stroke-linejoin:miter;stroke-miterlimit:2;stroke-dasharray:none;stroke-opacity:1"
     d="m 128.48651,162.57331 h 64.81494 v -43.16232 h -64.81494 z"
     id="path9"
     inkscape:connector-curvature="0" />
  <path
     style="fill:#bfbfbf;fill-opacity:1;fill-rule:evenodd;stroke:none"
     d="m 193.30145,130.20157 v 21.58116 h 10.79058 v -21.58116 z"
     id="path11"
     inkscape:connector-curvature="0" />
  <path
     style="fill:none;stroke:#000000;stroke-width:1.07191193px;stroke-linecap:butt;stroke-linejoin:miter;stroke-miterlimit:2;stroke-dasharray:none;stroke-opacity:1"
     d="m 193.30145,151.78273 h 10.79058 v -21.58116 h -10.79058 z"
     id="path13"
     inkscape:connector-curvature="0" />
  <path
     style="fill:#d9d9d9;fill-opacity:1;fill-rule:evenodd;stroke:none"
     d="m 102.54624,76.177206 v 21.58116 h 118.8393 v -21.58116 z"
     id="path15"
     inkscape:connector-curvature="0" />
  <path
     style="fill:none;stroke:#000000;stroke-width:1.07191193px;stroke-linecap:butt;stroke-linejoin:miter;stroke-miterlimit:2;stroke-dasharray:none;stroke-opacity:1"
     d="m 102.54624,97.758366 h 118.8393 v -21.58116 h -118.8393 z"
     id="path17"
     inkscape:connector-curvature="0" />
  <path
     style="fill:#ffffff;fill-opacity:1;fill-rule:evenodd;stroke:none"
     d="m 151.13958,97.758366 v 54.024364 h 21.58116 V 97.758366 Z"
     id="path19"
     inkscape:connector-curvature="0" />
  <path
     style="fill:none;stroke:#000000;stroke-width:1.07191193px;stroke-linecap:butt;stroke-linejoin:miter;stroke-miterlimit:2;stroke-dasharray:none;stroke-opacity:1"
     d="m 151.13958,151.78273 h 21.58116 V 97.758366 h -21.58116 z"
     id="path21"
     inkscape:connector-curvature="0" />
  <path
     style="fill:#ffffff;fill-opacity:1;fill-rule:evenodd;stroke:none"
     d="m 168.43309,140.99215 c 0,-3.57304 -2.92989,-6.50293 -6.50293,-6.50293 -3.57304,0 -6.43147,2.92989 -6.43147,6.50293 0,3.57304 2.85843,6.50293 6.43147,6.50293 3.57304,0 6.50293,-2.92989 6.50293,-6.50293 z"
     id="path23"
     inkscape:connector-curvature="0" />
  <path
     style="fill:none;stroke:#000000;stroke-width:1.07191193px;stroke-linecap:butt;stroke-linejoin:miter;stroke-miterlimit:2;stroke-dasharray:none;stroke-opacity:1"
     d="m 168.43309,140.99215 c 0,-3.57304 -2.92989,-6.50293 -6.50293,-6.50293 -3.57304,0 -6.43147,2.92989 -6.43147,6.50293 0,3.57304 2.85843,6.50293 6.43147,6.50293 3.57304,0 6.50293,-2.92989 6.50293,-6.50293"
     id="path25"
     inkscape:connector-curvature="0" />
  <path
     style="fill:#000000;fill-opacity:1;fill-rule:nonzero;stroke:#000000;stroke-width:1.14337265px;stroke-linecap:butt;stroke-linejoin:bevel;stroke-miterlimit:10;stroke-dasharray:none;stroke-opacity:1"
     d="m 67.959215,140.42046 h 9.146981 v 1.14337 h -9.146981 z m 13.720472,0 h 9.146982 v 1.14337 h -9.146982 z m 13.720473,0 h 9.14698 v 1.14337 h -9.14698 z m 13.72047,0 h 9.14699 v 1.14337 h -9.14699 z m 13.72048,0 h 9.14698 v 1.14337 h -9.14698 z m 13.72047,0 h 9.14698 v 1.14337 h -9.14698 z m 13.72047,0 h 9.14698 v 1.14337 h -9.14698 z m 13.72047,0 h 9.14699 v 1.14337 h -9.14699 z m 13.72048,0 h 9.14698 v 1.14337 H 177.723 Z m 13.72047,0 h 9.14698 v 1.14337 h -9.14698 z m 13.72047,0 h 9.14698 v 1.14337 h -9.14698 z m 13.72047,0 h 9.14699 v 1.14337 h -9.14699 z m 13.72048,0 h 9.14698 v 1.14337 h -9.14698 z m 13.72047,0 h 9.14698 v 1.14337 h -9.14698 z m 13.72047,0 h 0.21438 v 1.14337 h -0.21438 z"
     id="path27"
     inkscape:connector-curvature="0" />
  <path
     style="fill:#000000;fill-opacity:1;fill-rule:nonzero;stroke:#000000;stroke-width:1.14337265px;stroke-linecap:butt;stroke-linejoin:bevel;stroke-miterlimit:10;stroke-dasharray:none;stroke-opacity:1"
     d="m 162.50185,140.99215 v 9.14698 h -1.14338 v -9.14698 z m 0,13.72047 v 9.14698 h -1.14338 v -9.14698 z m 0,13.72047 v 9.14698 h -1.14338 v -9.14698 z m 0,13.72048 v 9.14698 h -1.14338 v -9.14698 z m 0,13.72047 v 9.14698 h -1.14338 v -9.14698 z m 0,13.72047 v 9.14698 h -1.14338 v -9.14698 z m 0,13.72047 v 4.07327 h -1.14338 v -4.07327 z"
     id="path29"
     inkscape:connector-curvature="0" />
  <text
     xml:space="preserve"
     style="font-style:normal;font-variant:normal;font-weight:400;font-size:18.3125px;line-height:125%;font-family:Arial;text-align:start;letter-spacing:0px;word-spacing:0px;text-anchor:start;fill:#000000;fill-opacity:1;stroke:none"
     x="269.69302"
     y="146.20879"
     id="text35"><tspan
       sodipodi:role="line"
       x="269.69302"
       y="146.20879"
       id="tspan33"><tspan
         dx="0"
         dy="0"
         style="font-style:normal;font-variant:normal;font-weight:400;font-size:18.3125px;font-family:Arial;fill:#000000"
         id="tspan31">0</tspan></tspan></text>
  <path
     style="fill:#ffffff;fill-opacity:1;fill-rule:evenodd;stroke:none"
     d="m 286.20048,131.27348 c 0,-1.21483 -1.00045,-2.14382 -2.14382,-2.14382 -1.21484,0 -2.21529,0.92899 -2.21529,2.14382 0,1.21483 1.00045,2.14382 2.21529,2.14382 1.14337,0 2.14382,-0.92899 2.14382,-2.14382 z"
     id="path37"
     inkscape:connector-curvature="0" />
  <path
     style="fill:none;stroke:#000000;stroke-width:1.07191193px;stroke-linecap:butt;stroke-linejoin:miter;stroke-miterlimit:2;stroke-dasharray:none;stroke-opacity:1"
     d="m 286.20048,131.27348 c 0,-1.21483 -1.00045,-2.14382 -2.14382,-2.14382 -1.21484,0 -2.21529,0.92899 -2.21529,2.14382 0,1.21483 1.00045,2.14382 2.21529,2.14382 1.14337,0 2.14382,-0.92899 2.14382,-2.14382"
     id="path39"
     inkscape:connector-curvature="0" />
  <path
     style="fill:#ffffff;fill-opacity:1;fill-rule:evenodd;stroke:none"
     d="m 67.959215,131.27348 c 0,-1.21483 -1.000451,-2.14382 -2.143824,-2.14382 -1.214834,0 -2.143824,0.92899 -2.143824,2.14382 0,1.21483 0.92899,2.14382 2.143824,2.14382 1.143373,0 2.143824,-0.92899 2.143824,-2.14382 z"
     id="path41"
     inkscape:connector-curvature="0" />
  <path
     style="fill:none;stroke:#000000;stroke-width:1.07191193px;stroke-linecap:butt;stroke-linejoin:miter;stroke-miterlimit:2;stroke-dasharray:none;stroke-opacity:1"
     d="m 67.959215,131.27348 c 0,-1.21483 -1.000451,-2.14382 -2.143824,-2.14382 -1.214834,0 -2.143824,0.92899 -2.143824,2.14382 0,1.21483 0.92899,2.14382 2.143824,2.14382 1.143373,0 2.143824,-0.92899 2.143824,-2.14382"
     id="path43"
     inkscape:connector-curvature="0" />
  <text
     xml:space="preserve"
     style="font-style:normal;font-variant:normal;font-weight:400;font-size:18.3125px;line-height:125%;font-family:Arial;text-align:start;letter-spacing:0px;word-spacing:0px;text-anchor:start;fill:#000000;fill-opacity:1;stroke:none"
     x="25.011278"
     y="146.20879"
     id="text51"><tspan
       sodipodi:role="line"
       x="25.011278"
       y="146.20879"
       id="tspan49"><tspan
         dx="0"
         dy="0"
         style="font-style:normal;font-variant:normal;font-weight:400;font-size:18.3125px;font-family:Arial;fill:#000000"
         id="tspan45">-</tspan><tspan
         dx="0"
         dy="0"
         style="font-style:normal;font-variant:normal;font-weight:400;font-size:18.3125px;font-family:Arial;fill:#000000"
         id="tspan47">180</tspan></tspan></text>
  <path
     style="fill:#ffffff;fill-opacity:1;fill-rule:evenodd;stroke:none"
     d="m 184.65469,233.89118 c 0,-1.21483 -1.00045,-2.14382 -2.14382,-2.14382 -1.21483,0 -2.21529,0.92899 -2.21529,2.14382 0,1.21483 1.00046,2.14382 2.21529,2.14382 1.14337,0 2.14382,-0.92899 2.14382,-2.14382 z"
     id="path53"
     inkscape:connector-curvature="0" />
  <path
     style="fill:none;stroke:#000000;stroke-width:1.07191193px;stroke-linecap:butt;stroke-linejoin:miter;stroke-miterlimit:2;stroke-dasharray:none;stroke-opacity:1"
     d="m 184.65469,233.89118 c 0,-1.21483 -1.00045,-2.14382 -2.14382,-2.14382 -1.21483,0 -2.21529,0.92899 -2.21529,2.14382 0,1.21483 1.00046,2.14382 2.21529,2.14382 1.14337,0 2.14382,-0.92899 2.14382,-2.14382"
     id="path55"
     inkscape:connector-curvature="0" />
  <text
     xml:space="preserve"
     style="font-style:normal;font-variant:normal;font-weight:400;font-size:18.3125px;line-height:125%;font-family:Arial;text-align:start;letter-spacing:0px;word-spacing:0px;text-anchor:start;fill:#000000;fill-opacity:1;stroke:none"
     x="151.92564"
     y="249.11234"
     id="text63"><tspan
       sodipodi:role="line"
       x="151.92564"
       y="249.11234"
       id="tspan61"><tspan
         dx="0"
         dy="0"
         style="font-style:normal;font-variant:normal;font-weight:400;font-size:18.3125px;font-family:Arial;fill:#000000"
         id="tspan57">-</tspan><tspan
         dx="0"
         dy="0"
         style="font-style:normal;font-variant:normal;font-weight:400;font-size:18.3125px;font-family:Arial;fill:#000000"
         id="tspan59">90</tspan></tspan></text>
  <path
     style="fill:#d9d9d9;fill-opacity:1;fill-rule:evenodd;stroke:none"
     d="m 545.46024,140.42046 c 0,-32.8005 -26.58341,-59.38392 -59.38392,-59.38392 -32.87196,0 -59.45538,26.58342 -59.45538,59.38392 0,32.87197 26.58342,59.45538 59.45538,59.45538 32.80051,0 59.38392,-26.58341 59.38392,-59.45538 z"
     id="path65"
     inkscape:connector-curvature="0" />
  <path
     style="fill:none;stroke:#000000;stroke-width:1.07191193px;stroke-linecap:butt;stroke-linejoin:miter;stroke-miterlimit:2;stroke-dasharray:none;stroke-opacity:1"
     d="m 545.46024,140.42046 c 0,-32.8005 -26.58341,-59.38392 -59.38392,-59.38392 -32.87196,0 -59.45538,26.58342 -59.45538,59.38392 0,32.87197 26.58342,59.45538 59.45538,59.45538 32.80051,0 59.38392,-26.58341 59.38392,-59.45538"
     id="path67"
     inkscape:connector-curvature="0" />
  <path
     style="fill:#d9d9d9;fill-opacity:1;fill-rule:evenodd;stroke:none"
     d="m 490.36397,140.42046 c 0,-2.3582 -1.92944,-4.28765 -4.28765,-4.28765 -2.42966,0 -4.35911,1.92945 -4.35911,4.28765 0,2.42967 1.92945,4.35911 4.35911,4.35911 2.35821,0 4.28765,-1.92944 4.28765,-4.35911 z"
     id="path69"
     inkscape:connector-curvature="0" />
  <path
     style="fill:none;stroke:#000000;stroke-width:1.07191193px;stroke-linecap:butt;stroke-linejoin:miter;stroke-miterlimit:2;stroke-dasharray:none;stroke-opacity:1"
     d="m 490.36397,140.42046 c 0,-2.3582 -1.92944,-4.28765 -4.28765,-4.28765 -2.42966,0 -4.35911,1.92945 -4.35911,4.28765 0,2.42967 1.92945,4.35911 4.35911,4.35911 2.35821,0 4.28765,-1.92944 4.28765,-4.35911"
     id="path71"
     inkscape:connector-curvature="0" />
  <path
     style="fill:#000000;fill-opacity:1;fill-rule:nonzero;stroke:#000000;stroke-width:1.14337265px;stroke-linecap:butt;stroke-linejoin:bevel;stroke-miterlimit:10;stroke-dasharray:none;stroke-opacity:1"
     d="m 453.1329,118.8393 v 2.28675 h -1.14338 v -2.28675 z m 0,3.43012 v 2.28675 h -1.14338 v -2.28675 z m 0,3.43012 v 2.28674 h -1.14338 v -2.28674 z m 0,3.43012 v 2.28674 h -1.14338 v -2.28674 z m 0,3.43011 v 2.28675 h -1.14338 v -2.28675 z m 0,3.43012 v 2.28675 h -1.14338 v -2.28675 z m 0,3.43012 v 2.28675 h -1.14338 v -2.28675 z m 0,3.43012 v 2.28674 h -1.14338 v -2.28674 z m 0,3.43012 v 2.28674 h -1.14338 v -2.28674 z m 0,3.43011 v 2.28675 h -1.14338 v -2.28675 z m 0,3.43012 v 2.28675 h -1.14338 v -2.28675 z m 0,3.43012 v 2.28675 h -1.14338 v -2.28675 z m 0,3.43012 v 2.07236 l -0.57169,-0.57168 h 0.21438 v 1.14337 h -0.78607 v -2.64405 z m 0.78606,1.50068 h 2.28675 v 1.14337 h -2.28675 z m 3.43012,0 h 2.28675 v 1.14337 h -2.28675 z m 3.43012,0 h 2.28675 v 1.14337 h -2.28675 z m 3.43012,0 h 2.28674 v 1.14337 h -2.28674 z m 3.43012,0 h 2.28674 v 1.14337 h -2.28674 z m 3.43012,0 h 2.28674 v 1.14337 h -2.28674 z m 3.43011,0 h 2.28675 v 1.14337 h -2.28675 z m 3.43012,0 h 2.28675 v 1.14337 h -2.28675 z m 3.43012,0 h 2.28675 v 1.14337 h -2.28675 z m 3.43012,0 h 2.28674 v 1.14337 h -2.28674 z m 3.43012,0 h 2.28674 v 1.14337 h -2.28674 z m 3.43011,0 h 2.28675 v 1.14337 h -2.28675 z m 3.43012,0 h 2.28675 v 1.14337 h -2.28675 z m 3.43012,0 h 2.28675 v 1.14337 h -2.28675 z m 3.43012,0 h 2.28674 v 1.14337 h -2.28674 z m 3.43012,0 h 2.28674 v 1.14337 h -2.28674 z m 3.43011,0 h 2.28675 v 1.14337 h -2.28675 z m 3.43012,0 h 2.28675 v 1.14337 h -2.28675 z m 3.43012,0 h 1.71506 l -0.57169,0.57168 v -0.57168 h 1.14338 v 1.14337 h -2.28675 z m 1.14337,-1.14338 v -2.28674 h 1.14338 v 2.28674 z m 0,-3.43011 v -2.28675 h 1.14338 v 2.28675 z m 0,-3.43012 v -2.28675 h 1.14338 v 2.28675 z m 0,-3.43012 v -2.28675 h 1.14338 v 2.28675 z m 0,-3.43012 v -2.28674 h 1.14338 v 2.28674 z m 0,-3.43012 v -2.28674 h 1.14338 v 2.28674 z m 0,-3.43012 v -2.28674 h 1.14338 v 2.28674 z m 0,-3.43011 v -2.28675 h 1.14338 v 2.28675 z m 0,-3.43012 v -2.28675 h 1.14338 v 2.28675 z m 0,-3.43012 v -2.28675 h 1.14338 v 2.28675 z m 0,-3.43012 v -2.28674 h 1.14338 v 2.28674 z m 0,-3.43012 v -2.28674 h 1.14338 v 2.28674 z m 0,-3.43011 v -0.35731 l 0.57169,0.57169 h -1.92944 v -1.14337 h 2.50113 v 0.92899 z m -2.50112,0.21438 h -2.28675 v -1.14337 h 2.28675 z m -3.43012,0 h -2.28675 v -1.14337 h 2.28675 z m -3.43012,0 h -2.28675 v -1.14337 h 2.28675 z m -3.43012,0 h -2.28674 v -1.14337 h 2.28674 z m -3.43012,0 h -2.28674 v -1.14337 h 2.28674 z m -3.43011,0 H 494.866 v -1.14337 h 2.28675 z m -3.43012,0 h -2.28675 v -1.14337 h 2.28675 z m -3.43012,0 h -2.28675 v -1.14337 h 2.28675 z m -3.43012,0 h -2.28674 v -1.14337 h 2.28674 z m -3.43012,0 h -2.28674 v -1.14337 h 2.28674 z m -3.43012,0 h -2.28674 v -1.14337 h 2.28674 z m -3.43011,0 h -2.28675 v -1.14337 h 2.28675 z m -3.43012,0 h -2.28675 v -1.14337 h 2.28675 z m -3.43012,0 h -2.28675 v -1.14337 h 2.28675 z m -3.43012,0 h -2.28674 v -1.14337 h 2.28674 z m -3.43012,0 h -2.28674 v -1.14337 h 2.28674 z m -3.43011,0 h -2.28675 v -1.14337 h 2.28675 z m -3.43012,0 h -2.28675 v -1.14337 h 2.28675 z"
     id="path73"
     inkscape:connector-curvature="0" />
  <path
     style="fill:#000000;fill-opacity:1;fill-rule:nonzero;stroke:#000000;stroke-width:1.14337265px;stroke-linecap:butt;stroke-linejoin:bevel;stroke-miterlimit:10;stroke-dasharray:none;stroke-opacity:1"
     d="m 517.94784,129.62988 v 2.28675 h -1.14338 v -2.28675 z m 0,3.43012 v 2.28675 h -1.14338 V 133.06 Z m 0,3.43012 v 2.28674 h -1.14338 v -2.28674 z m 0,3.43012 v 2.28674 h -1.14338 v -2.28674 z m 0,3.43011 v 2.28675 h -1.14338 v -2.28675 z m 0,3.43012 v 2.28675 h -1.14338 v -2.28675 z m 0,3.43012 v 1.07191 l -0.57169,-0.57168 h 1.28629 v 1.14337 h -1.85798 v -1.6436 z m 1.85798,0.50023 h 2.28674 v 1.14337 h -2.28674 z m 3.43011,0 h 2.28675 v 1.14337 h -2.28675 z m 3.43012,0 h 1.50068 l -0.57169,0.57168 v -0.78607 h 1.14338 v 1.35776 h -2.07237 z m 0.92899,-1.35776 v -2.28674 h 1.14338 v 2.28674 z m 0,-3.43012 v -2.28674 h 1.14338 v 2.28674 z m 0,-3.43012 v -2.28674 h 1.14338 v 2.28674 z m 0,-3.43011 v -2.28675 h 1.14338 v 2.28675 z m 0,-3.43012 v -2.28675 h 1.14338 v 2.28675 z m 0,-3.43012 v -2.28674 h 1.14338 v 2.28674 z m -0.28584,-2.0009 h -2.28675 v -1.14337 h 2.28675 z m -3.43012,0 h -2.28674 v -1.14337 h 2.28674 z m -3.43012,0 h -2.28674 v -1.14337 h 2.28674 z"
     id="path75"
     inkscape:connector-curvature="0" />
  <path
     style="fill:#000000;fill-opacity:1;fill-rule:nonzero;stroke:#000000;stroke-width:1.14337265px;stroke-linecap:butt;stroke-linejoin:bevel;stroke-miterlimit:10;stroke-dasharray:none;stroke-opacity:1"
     d="m 394.2492,139.84878 h 9.14698 v 1.14337 h -9.14698 z m 13.72047,0 h 9.14699 v 1.14337 h -9.14699 z m 13.72048,0 h 9.14698 v 1.14337 h -9.14698 z m 13.72047,0 h 9.14698 v 1.14337 h -9.14698 z m 13.72047,0 h 9.14698 v 1.14337 h -9.14698 z m 13.72047,0 h 9.14699 v 1.14337 h -9.14699 z m 13.72048,0 h 9.14698 v 1.14337 h -9.14698 z m 13.72047,0 h 9.14698 v 1.14337 h -9.14698 z m 13.72047,0 h 9.14698 v 1.14337 h -9.14698 z m 13.72047,0 h 9.14699 v 1.14337 h -9.14699 z m 13.72048,0 h 9.14698 v 1.14337 h -9.14698 z m 13.72047,0 h 9.14698 v 1.14337 h -9.14698 z m 13.72047,0 h 9.14698 v 1.14337 h -9.14698 z m 13.72047,0 h 5.2881 v 1.14337 h -5.2881 z"
     id="path77"
     inkscape:connector-curvature="0" />
  <text
     xml:space="preserve"
     style="font-style:normal;font-variant:normal;font-weight:400;font-size:18.3125px;line-height:125%;font-family:Arial;text-align:start;letter-spacing:0px;word-spacing:0px;text-anchor:start;fill:#000000;fill-opacity:1;stroke:none"
     x="581.8338"
     y="146.20879"
     id="text83"><tspan
       sodipodi:role="line"
       x="581.8338"
       y="146.20879"
       id="tspan81"><tspan
         dx="0"
         dy="0"
         style="font-style:normal;font-variant:normal;font-weight:400;font-size:18.3125px;font-family:Arial;fill:#000000"
         id="tspan79">0</tspan></tspan></text>
  <path
     style="fill:#ffffff;fill-opacity:1;fill-rule:evenodd;stroke:none"
     d="m 597.26932,130.70179 c 0,-1.14337 -1.00045,-2.14382 -2.21529,-2.14382 -1.14337,0 -2.14382,1.00045 -2.14382,2.14382 0,1.21484 1.00045,2.21529 2.14382,2.21529 1.21484,0 2.21529,-1.00045 2.21529,-2.21529 z"
     id="path85"
     inkscape:connector-curvature="0" />
  <path
     style="fill:none;stroke:#000000;stroke-width:1.07191193px;stroke-linecap:butt;stroke-linejoin:miter;stroke-miterlimit:2;stroke-dasharray:none;stroke-opacity:1"
     d="m 597.26932,130.70179 c 0,-1.14337 -1.00045,-2.14382 -2.21529,-2.14382 -1.14337,0 -2.14382,1.00045 -2.14382,2.14382 0,1.21484 1.00045,2.21529 2.14382,2.21529 1.21484,0 2.21529,-1.00045 2.21529,-2.21529"
     id="path87"
     inkscape:connector-curvature="0" />
  <path
     style="fill:#000000;fill-opacity:1;fill-rule:nonzero;stroke:#000000;stroke-width:1.14337265px;stroke-linecap:butt;stroke-linejoin:bevel;stroke-miterlimit:10;stroke-dasharray:none;stroke-opacity:1"
     d="m 487.00531,54.02436 v 9.146981 h -1.14337 V 54.02436 Z m 0,13.720472 v 9.146982 h -1.14337 v -9.146982 z m 0,13.720473 v 9.146981 h -1.14337 v -9.146981 z m 0,13.720472 v 9.146983 h -1.14337 v -9.146983 z m 0,13.720473 v 9.14698 h -1.14337 v -9.14698 z m 0,13.72047 v 9.14699 h -1.14337 v -9.14699 z m 0,13.72048 v 9.14698 h -1.14337 v -9.14698 z m 0,13.72047 v 9.14698 h -1.14337 v -9.14698 z m 0,13.72047 v 9.14698 h -1.14337 v -9.14698 z m 0,13.72047 v 9.14699 h -1.14337 v -9.14699 z m 0,13.72048 v 9.14698 h -1.14337 v -9.14698 z m 0,13.72047 v 9.14698 h -1.14337 v -9.14698 z m 0,13.72047 v 8.21799 h -1.14337 v -8.21799 z"
     id="path89"
     inkscape:connector-curvature="0" />
  <text
     xml:space="preserve"
     style="font-style:normal;font-variant:normal;font-weight:400;font-size:18.3125px;line-height:125%;font-family:Arial;text-align:start;letter-spacing:0px;word-spacing:0px;text-anchor:start;fill:#000000;fill-opacity:1;stroke:none"
     x="467.49652"
     y="245.68221"
     id="text97"><tspan
       sodipodi:role="line"
       x="467.49652"
       y="245.68221"
       id="tspan95"><tspan
         dx="0"
         dy="0"
         style="font-style:normal;font-variant:normal;font-weight:400;font-size:18.3125px;font-family:Arial;fill:#000000"
         id="tspan91">+</tspan><tspan
         dx="0"
         dy="0"
         style="font-style:normal;font-variant:normal;font-weight:400;font-size:18.3125px;font-family:Arial;fill:#000000"
         id="tspan93">90</tspan></tspan></text>
  <path
     style="fill:#ffffff;fill-opacity:1;fill-rule:evenodd;stroke:none"
     d="m 503.36983,230.10376 c 0,-1.14337 -1.00045,-2.14383 -2.21528,-2.14383 -1.14337,0 -2.14382,1.00046 -2.14382,2.14383 0,1.21483 1.00045,2.14382 2.14382,2.14382 1.21483,0 2.21528,-0.92899 2.21528,-2.14382 z"
     id="path99"
     inkscape:connector-curvature="0" />
  <path
     style="fill:none;stroke:#000000;stroke-width:1.07191193px;stroke-linecap:butt;stroke-linejoin:miter;stroke-miterlimit:2;stroke-dasharray:none;stroke-opacity:1"
     d="m 503.36983,230.10376 c 0,-1.14337 -1.00045,-2.14383 -2.21528,-2.14383 -1.14337,0 -2.14382,1.00046 -2.14382,2.14383 0,1.21483 1.00045,2.14382 2.14382,2.14382 1.21483,0 2.21528,-0.92899 2.21528,-2.14382"
     id="path101"
     inkscape:connector-curvature="0" />
  <text
     xml:space="preserve"
     style="font-style:normal;font-variant:normal;font-weight:400;font-size:18.3125px;line-height:125%;font-family:Arial;text-align:start;letter-spacing:0px;word-spacing:0px;text-anchor:start;fill:#000000;fill-opacity:1;stroke:none"
     x="333.72189"
     y="146.20879"
     id="text111"><tspan
       sodipodi:role="line"
       x="333.72189"
       y="146.20879"
       id="tspan109"><tspan
         dx="0"
         dy="0"
         style="font-style:normal;font-variant:normal;font-weight:400;font-size:18.3125px;font-family:Arial;fill:#000000"
         id="tspan103">+/</tspan><tspan
         dx="0"
         dy="0"
         style="font-style:normal;font-variant:normal;font-weight:400;font-size:18.3125px;font-family:Arial;fill:#000000"
         id="tspan105">-</tspan><tspan
         dx="0"
         dy="0"
         style="font-style:normal;font-variant:normal;font-weight:400;font-size:18.3125px;font-family:Arial;fill:#000000"
         id="tspan107">180</tspan></tspan></text>
  <path
     style="fill:#ffffff;fill-opacity:1;fill-rule:evenodd;stroke:none"
     d="m 390.96201,130.70179 c 0,-1.14337 -0.92899,-2.14382 -2.14383,-2.14382 -1.21483,0 -2.14382,1.00045 -2.14382,2.14382 0,1.21484 0.92899,2.21529 2.14382,2.21529 1.21484,0 2.14383,-1.00045 2.14383,-2.21529 z"
     id="path113"
     inkscape:connector-curvature="0" />
  <path
     style="fill:none;stroke:#000000;stroke-width:1.07191193px;stroke-linecap:butt;stroke-linejoin:miter;stroke-miterlimit:2;stroke-dasharray:none;stroke-opacity:1"
     d="m 390.96201,130.70179 c 0,-1.14337 -0.92899,-2.14382 -2.14383,-2.14382 -1.21483,0 -2.14382,1.00045 -2.14382,2.14382 0,1.21484 0.92899,2.21529 2.14382,2.21529 1.21484,0 2.14383,-1.00045 2.14383,-2.21529"
     id="path115"
     inkscape:connector-curvature="0" />
  <text
     xml:space="preserve"
     style="font-style:normal;font-variant:normal;font-weight:400;font-size:18.3125px;line-height:125%;font-family:Arial;text-align:start;letter-spacing:0px;word-spacing:0px;text-anchor:start;fill:#000000;fill-opacity:1;stroke:none"
     x="472.07001"
     y="51.308849"
     id="text123"><tspan
       sodipodi:role="line"
       x="472.07001"
       y="51.308849"
       id="tspan121"><tspan
         dx="0"
         dy="0"
         style="font-style:normal;font-variant:normal;font-weight:400;font-size:18.3125px;font-family:Arial;fill:#000000"
         id="tspan117">-</tspan><tspan
         dx="0"
         dy="0"
         style="font-style:normal;font-variant:normal;font-weight:400;font-size:18.3125px;font-family:Arial;fill:#000000"
         id="tspan119">90</tspan></tspan></text>
  <path
     style="fill:#ffffff;fill-opacity:1;fill-rule:evenodd;stroke:none"
     d="m 503.36983,35.658936 c 0,-1.214834 -1.00045,-2.143824 -2.21528,-2.143824 -1.14337,0 -2.14382,0.92899 -2.14382,2.143824 0,1.214833 1.00045,2.143824 2.14382,2.143824 1.21483,0 2.21528,-0.928991 2.21528,-2.143824 z"
     id="path125"
     inkscape:connector-curvature="0" />
  <path
     style="fill:none;stroke:#000000;stroke-width:1.07191193px;stroke-linecap:butt;stroke-linejoin:miter;stroke-miterlimit:2;stroke-dasharray:none;stroke-opacity:1"
     d="m 503.36983,35.658936 c 0,-1.214834 -1.00045,-2.143824 -2.21528,-2.143824 -1.14337,0 -2.14382,0.92899 -2.14382,2.143824 0,1.214833 1.00045,2.143824 2.14382,2.143824 1.21483,0 2.21528,-0.928991 2.21528,-2.143824"
     id="path127"
     inkscape:connector-curvature="0" />
  <text
     xml:space="preserve"
     style="font-style:normal;font-variant:normal;font-weight:400;font-size:18.3125px;line-height:125%;font-family:Arial;text-align:start;letter-spacing:0px;word-spacing:0px;text-anchor:start;fill:#000000;fill-opacity:1;stroke:none"
     x="145.06541"
     y="268.54965"
     id="text133"><tspan
       sodipodi:role="line"
       x="145.06541"
       y="268.54965"
       id="tspan131"><tspan
         dx="0"
         dy="0"
         style="font-style:normal;font-variant:normal;font-weight:400;font-size:18.3125px;font-family:Arial;fill:#000000"
         id="tspan129">nadir</tspan></tspan></text>
  <path
     style="fill:#000000;fill-opacity:1;fill-rule:nonzero;stroke:#000000;stroke-width:1.14337265px;stroke-linecap:butt;stroke-linejoin:bevel;stroke-miterlimit:10;stroke-dasharray:none;stroke-opacity:1"
     d="m 479.07316,110.19255 v 2.28674 h -1.14337 v -2.28674 z m 0,3.43011 v 2.28675 h -1.14337 v -2.28675 z m 0,3.43012 v 1.78652 l -0.57168,-0.57168 h 0.50022 v 1.14337 h -1.07191 v -2.35821 z m 1.07192,1.21484 h 2.28674 v 1.14337 h -2.28674 z m 3.43011,0 h 2.28675 v 1.14337 h -2.28675 z m 3.43012,0 h 2.28675 v 1.14337 h -2.28675 z m 3.43012,0 h 2.28675 v 1.14337 h -2.28675 z m 3.43012,0 h 1.92944 l -0.57169,0.57168 v -0.3573 h 1.14338 v 0.92899 h -2.50113 z m 1.35775,-0.92899 v -2.28675 h 1.14338 v 2.28675 z m 0,-3.43012 v -2.28675 h 1.14338 v 2.28675 z m 0,-3.43012 v -0.28584 l 0.57169,0.57168 h -2.0009 v -1.14337 h 2.57259 v 0.85753 z m -2.57258,0.28584 h -2.28675 v -1.14337 h 2.28675 z m -3.43012,0 h -2.28675 v -1.14337 h 2.28675 z m -3.43012,0 h -2.28675 v -1.14337 h 2.28675 z m -3.43012,0 h -2.28674 v -1.14337 h 2.28674 z m -3.43012,0 h -0.42876 v -1.14337 h 0.42876 z"
     id="path135"
     inkscape:connector-curvature="0" />
  <path
     style="fill:#000000;fill-opacity:1;fill-rule:nonzero;stroke:#000000;stroke-width:1.14337265px;stroke-linecap:butt;stroke-linejoin:bevel;stroke-miterlimit:10;stroke-dasharray:none;stroke-opacity:1"
     d="m 479.07316,162.07308 v 2.28675 h -1.14337 v -2.28675 z m 0,3.43012 v 2.28675 h -1.14337 v -2.28675 z m 0,3.43012 v 1.78652 l -0.57168,-0.57169 h 0.50022 v 1.14337 h -1.07191 v -2.3582 z m 1.07192,1.21483 h 2.28674 v 1.14337 h -2.28674 z m 3.43011,0 h 2.28675 v 1.14337 h -2.28675 z m 3.43012,0 h 2.28675 v 1.14337 h -2.28675 z m 3.43012,0 h 2.28675 v 1.14337 h -2.28675 z m 3.43012,0 h 1.92944 l -0.57169,0.57169 v -0.35731 h 1.14338 v 0.92899 h -2.50113 z m 1.35775,-0.92899 v -2.28674 h 1.14338 v 2.28674 z m 0,-3.43012 v -2.28674 h 1.14338 v 2.28674 z m 0,-3.43011 v -0.28585 l 0.57169,0.57169 h -2.0009 v -1.14337 h 2.57259 v 0.85753 z m -2.57258,0.28584 h -2.28675 v -1.14337 h 2.28675 z m -3.43012,0 h -2.28675 v -1.14337 h 2.28675 z m -3.43012,0 h -2.28675 v -1.14337 h 2.28675 z m -3.43012,0 h -2.28674 v -1.14337 h 2.28674 z m -3.43012,0 h -0.42876 v -1.14337 h 0.42876 z"
     id="path137"
     inkscape:connector-curvature="0" />
  <text
     xml:space="preserve"
     style="font-style:normal;font-variant:normal;font-weight:400;font-size:18.3125px;line-height:125%;font-family:Arial;text-align:start;letter-spacing:0px;word-spacing:0px;text-anchor:start;fill:#000000;fill-opacity:1;stroke:none"
     x="420.61823"
     y="21.58116"
     id="text147"><tspan
       sodipodi:role="line"
       x="420.61823"
       y="21.58116"
       id="tspan145"><tspan
         dx="0"
         dy="0"
         style="font-style:normal;font-variant:normal;font-weight:400;font-size:18.3125px;font-family:Arial;fill:#000000"
         id="tspan139">[</tspan><tspan
         dx="0"
         dy="0"
         style="font-style:normal;font-variant:normal;font-weight:400;font-size:18.3125px;font-family:Arial;fill:#000000"
         id="tspan141">Topdown view</tspan><tspan
         dx="0"
         dy="0"
         style="font-style:normal;font-variant:normal;font-weight:400;font-size:18.3125px;font-family:Arial;fill:#000000"
         id="tspan143">]</tspan></tspan></text>
  <text
     xml:space="preserve"
     style="font-style:normal;font-variant:normal;font-weight:400;font-size:18.3125px;line-height:125%;font-family:Arial;text-align:start;letter-spacing:0px;word-spacing:0px;text-anchor:start;fill:#000000;fill-opacity:1;stroke:none"
     x="116.48108"
     y="21.58116"
     id="text157"><tspan
       sodipodi:role="line"
       x="116.48108"
       y="21.58116"
       id="tspan155"><tspan
         dx="0"
         dy="0"
         style="font-style:normal;font-variant:normal;font-weight:400;font-size:18.3125px;font-family:Arial;fill:#000000"
         id="tspan149">[</tspan><tspan
         dx="0"
         dy="0"
         style="font-style:normal;font-variant:normal;font-weight:400;font-size:18.3125px;font-family:Arial;fill:#000000"
         id="tspan151">Side view</tspan><tspan
         dx="0"
         dy="0"
         style="font-style:normal;font-variant:normal;font-weight:400;font-size:18.3125px;font-family:Arial;fill:#000000"
         id="tspan153">]</tspan></tspan></text>
</svg>
