<?xml version="1.0" encoding="UTF-8" standalone="no"?>
<svg
   xmlns:dc="http://purl.org/dc/elements/1.1/"
   xmlns:cc="http://creativecommons.org/ns#"
   xmlns:rdf="http://www.w3.org/1999/02/22-rdf-syntax-ns#"
   xmlns:svg="http://www.w3.org/2000/svg"
   xmlns="http://www.w3.org/2000/svg"
   xmlns:sodipodi="http://sodipodi.sourceforge.net/DTD/sodipodi-0.dtd"
   xmlns:inkscape="http://www.inkscape.org/namespaces/inkscape"
   version="1.0"
   width="648.22089"
   height="237.6786"
   id="svg145"
   sodipodi:docname="image8.svg"
   inkscape:version="0.92.4 (5da689c313, 2019-01-14)">
  <metadata
     id="metadata149">
    <rdf:RDF>
      <cc:Work
         rdf:about="">
        <dc:format>image/svg+xml</dc:format>
        <dc:type
           rdf:resource="http://purl.org/dc/dcmitype/StillImage" />
        <dc:title></dc:title>
      </cc:Work>
    </rdf:RDF>
  </metadata>
  <sodipodi:namedview
     pagecolor="#ffffff"
     bordercolor="#666666"
     borderopacity="1"
     objecttolerance="10"
     gridtolerance="10"
     guidetolerance="10"
     inkscape:pageopacity="0"
     inkscape:pageshadow="2"
     inkscape:window-width="640"
     inkscape:window-height="480"
     id="namedview147"
     showgrid="false"
     units="px"
     fit-margin-top="0"
     fit-margin-left="0"
     fit-margin-right="0"
     fit-margin-bottom="0"
     inkscape:zoom="0.48400323"
     inkscape:cx="327.33423"
     inkscape:cy="115.32704"
     inkscape:window-x="0"
     inkscape:window-y="0"
     inkscape:window-maximized="0"
     inkscape:current-layer="svg145" />
  <defs
     id="defs3">
    <pattern
       id="EMFhbasepattern"
       patternUnits="userSpaceOnUse"
       width="6"
       height="6"
       x="0"
       y="0" />
  </defs>
  <path
     style="fill:#ffffff;fill-opacity:1;fill-rule:evenodd;stroke:none"
     d="M 0,0 V 237.6786 H 648.22086 V 0 Z"
     id="path5"
     inkscape:connector-curvature="0" />
  <path
     style="fill:#ffffff;fill-opacity:1;fill-rule:evenodd;stroke:none"
     d="m 142.42136,152.71172 -3.85888,-64.743483 43.16232,-2.572589 3.85888,64.743482 z"
     id="path7"
     inkscape:connector-curvature="0" />
  <path
     style="fill:none;stroke:#000000;stroke-width:1.07191193px;stroke-linecap:butt;stroke-linejoin:miter;stroke-miterlimit:2;stroke-dasharray:none;stroke-opacity:1"
     d="m 142.42136,152.71172 -3.85888,-64.743483 43.16232,-2.572589 3.85888,64.743482 z"
     id="path9"
     inkscape:connector-curvature="0" />
  <path
     style="fill:#bfbfbf;fill-opacity:1;fill-rule:evenodd;stroke:none"
     d="m 149.35306,87.32509 -0.64315,-10.79058 21.58116,-1.286294 0.64315,10.79058 z"
     id="path11"
     inkscape:connector-curvature="0" />
  <path
     style="fill:none;stroke:#000000;stroke-width:1.07191193px;stroke-linecap:butt;stroke-linejoin:miter;stroke-miterlimit:2;stroke-dasharray:none;stroke-opacity:1"
     d="m 149.35306,87.32509 -0.64315,-10.79058 21.58116,-1.286294 0.64315,10.79058 z"
     id="path13"
     inkscape:connector-curvature="0" />
  <path
     style="fill:#d9d9d9;fill-opacity:1;fill-rule:evenodd;stroke:none"
     d="m 102.6177,162.07308 v 21.58116 H 221.457 v -21.58116 z"
     id="path15"
     inkscape:connector-curvature="0" />
  <path
     style="fill:none;stroke:#000000;stroke-width:1.07191193px;stroke-linecap:butt;stroke-linejoin:miter;stroke-miterlimit:2;stroke-dasharray:none;stroke-opacity:1"
     d="M 102.6177,162.07308 H 221.457 v 21.58116 H 102.6177 Z"
     id="path17"
     inkscape:connector-curvature="0" />
  <path
     style="fill:#ffffff;fill-opacity:1;fill-rule:evenodd;stroke:none"
     d="m 151.2825,108.04872 v 54.02436 h 21.58116 v -54.02436 z"
     id="path19"
     inkscape:connector-curvature="0" />
  <path
     style="fill:none;stroke:#000000;stroke-width:1.07191193px;stroke-linecap:butt;stroke-linejoin:miter;stroke-miterlimit:2;stroke-dasharray:none;stroke-opacity:1"
     d="m 151.2825,108.04872 h 21.58116 v 54.02436 H 151.2825 Z"
     id="path21"
     inkscape:connector-curvature="0" />
  <path
     style="fill:#ffffff;fill-opacity:1;fill-rule:evenodd;stroke:none"
     d="m 168.50455,118.8393 c 0,3.57304 -2.85843,6.50293 -6.43147,6.50293 -3.57304,0 -6.50293,-2.92989 -6.50293,-6.50293 0,-3.57304 2.92989,-6.50293 6.50293,-6.50293 3.57304,0 6.43147,2.92989 6.43147,6.50293 z"
     id="path23"
     inkscape:connector-curvature="0" />
  <path
     style="fill:none;stroke:#000000;stroke-width:1.07191193px;stroke-linecap:butt;stroke-linejoin:miter;stroke-miterlimit:2;stroke-dasharray:none;stroke-opacity:1"
     d="m 168.50455,118.8393 c 0,3.57304 -2.85843,6.50293 -6.43147,6.50293 -3.57304,0 -6.50293,-2.92989 -6.50293,-6.50293 0,-3.57304 2.92989,-6.50293 6.50293,-6.50293 3.57304,0 6.43147,2.92989 6.43147,6.50293"
     id="path25"
     inkscape:connector-curvature="0" />
  <path
     style="fill:#000000;fill-opacity:1;fill-rule:nonzero;stroke:#000000;stroke-width:1.14337265px;stroke-linecap:butt;stroke-linejoin:bevel;stroke-miterlimit:10;stroke-dasharray:none;stroke-opacity:1"
     d="m 68.102136,118.8393 h 9.146982 v 1.14337 h -9.146982 z m 13.720473,0 h 9.146981 v 1.14337 h -9.146981 z m 13.720472,0 h 9.146979 v 1.14337 h -9.146979 z m 13.720479,0 h 9.14698 v 1.14337 h -9.14698 z m 13.72047,0 h 9.14698 v 1.14337 h -9.14698 z m 13.72047,0 h 9.14698 v 1.14337 h -9.14698 z m 13.72047,0 h 9.14698 v 1.14337 h -9.14698 z m 13.72048,0 h 9.14698 v 1.14337 h -9.14698 z m 13.72047,0 h 9.14698 v 1.14337 h -9.14698 z m 13.72047,0 h 9.14698 v 1.14337 h -9.14698 z m 13.72047,0 h 9.14698 v 1.14337 h -9.14698 z m 13.72048,0 h 9.14698 v 1.14337 h -9.14698 z m 13.72047,0 h 9.14698 v 1.14337 h -9.14698 z m 13.72047,0 h 9.14698 v 1.14337 h -9.14698 z m 13.72047,0 h 0.21438 v 1.14337 h -0.21438 z"
     id="path27"
     inkscape:connector-curvature="0" />
  <path
     style="fill:#000000;fill-opacity:1;fill-rule:nonzero;stroke:#000000;stroke-width:1.14337265px;stroke-linecap:butt;stroke-linejoin:bevel;stroke-miterlimit:10;stroke-dasharray:none;stroke-opacity:1"
     d="m 161.5014,118.8393 v -9.14698 h 1.14337 v 9.14698 z m 0,-13.72047 v -9.146984 h 1.14337 v 9.146984 z m 0,-13.720475 v -9.146982 h 1.14337 v 9.146982 z m 0,-13.720472 v -9.146982 h 1.14337 v 9.146982 z m 0,-13.720473 v -9.146981 h 1.14337 v 9.146981 z m 0,-13.720472 v -9.146982 h 1.14337 v 9.146982 z m 0,-13.720473 V 32.4432 h 1.14337 v 4.073265 z"
     id="path29"
     inkscape:connector-curvature="0" />
  <text
     xml:space="preserve"
     style="font-style:normal;font-variant:normal;font-weight:400;font-size:18.3125px;line-height:125%;font-family:Arial;text-align:start;letter-spacing:0px;word-spacing:0px;text-anchor:start;fill:#000000;fill-opacity:1;stroke:none"
     x="47.878731"
     y="124.4847"
     id="text35"><tspan
       sodipodi:role="line"
       x="47.878731"
       y="124.4847"
       id="tspan33"><tspan
         dx="0"
         dy="0"
         style="font-style:normal;font-variant:normal;font-weight:400;font-size:18.3125px;font-family:Arial;fill:#000000"
         id="tspan31">0</tspan></tspan></text>
  <path
     style="fill:#ffffff;fill-opacity:1;fill-rule:evenodd;stroke:none"
     d="m 63.743028,109.12063 c 0,-1.21483 -0.928991,-2.14382 -2.143824,-2.14382 -1.214834,0 -2.143824,0.92899 -2.143824,2.14382 0,1.21484 0.92899,2.14383 2.143824,2.14383 1.214833,0 2.143824,-0.92899 2.143824,-2.14383 z"
     id="path37"
     inkscape:connector-curvature="0" />
  <path
     style="fill:none;stroke:#000000;stroke-width:1.07191193px;stroke-linecap:butt;stroke-linejoin:miter;stroke-miterlimit:2;stroke-dasharray:none;stroke-opacity:1"
     d="m 63.743028,109.12063 c 0,-1.21483 -0.928991,-2.14382 -2.143824,-2.14382 -1.214834,0 -2.143824,0.92899 -2.143824,2.14382 0,1.21484 0.92899,2.14383 2.143824,2.14383 1.214833,0 2.143824,-0.92899 2.143824,-2.14383"
     id="path39"
     inkscape:connector-curvature="0" />
  <path
     style="fill:#ffffff;fill-opacity:1;fill-rule:evenodd;stroke:none"
     d="m 313.85581,109.12063 c 0,-1.21483 -1.00045,-2.14382 -2.14383,-2.14382 -1.21483,0 -2.21528,0.92899 -2.21528,2.14382 0,1.21484 1.00045,2.14383 2.21528,2.14383 1.14338,0 2.14383,-0.92899 2.14383,-2.14383 z"
     id="path41"
     inkscape:connector-curvature="0" />
  <path
     style="fill:none;stroke:#000000;stroke-width:1.07191193px;stroke-linecap:butt;stroke-linejoin:miter;stroke-miterlimit:2;stroke-dasharray:none;stroke-opacity:1"
     d="m 313.85581,109.12063 c 0,-1.21483 -1.00045,-2.14382 -2.14383,-2.14382 -1.21483,0 -2.21528,0.92899 -2.21528,2.14382 0,1.21484 1.00045,2.14383 2.21528,2.14383 1.14338,0 2.14383,-0.92899 2.14383,-2.14383"
     id="path43"
     inkscape:connector-curvature="0" />
  <text
     xml:space="preserve"
     style="font-style:normal;font-variant:normal;font-weight:400;font-size:18.3125px;line-height:125%;font-family:Arial;text-align:start;letter-spacing:0px;word-spacing:0px;text-anchor:start;fill:#000000;fill-opacity:1;stroke:none"
     x="266.26291"
     y="124.4847"
     id="text51"><tspan
       sodipodi:role="line"
       x="266.26291"
       y="124.4847"
       id="tspan49"><tspan
         dx="0"
         dy="0"
         style="font-style:normal;font-variant:normal;font-weight:400;font-size:18.3125px;font-family:Arial;fill:#000000"
         id="tspan45">+</tspan><tspan
         dx="0"
         dy="0"
         style="font-style:normal;font-variant:normal;font-weight:400;font-size:18.3125px;font-family:Arial;fill:#000000"
         id="tspan47">180</tspan></tspan></text>
  <path
     style="fill:#ffffff;fill-opacity:1;fill-rule:evenodd;stroke:none"
     d="m 182.58233,4.3591084 c 1.21483,0 2.14382,0.9289903 2.14382,2.1438238 0,1.1433727 -0.92899,2.1438239 -2.14382,2.1438239 -1.21483,0 -2.14382,-1.0004512 -2.14382,-2.1438239 0,-1.2148335 0.92899,-2.1438238 2.14382,-2.1438238 z"
     id="path53"
     inkscape:connector-curvature="0" />
  <path
     style="fill:none;stroke:#000000;stroke-width:1.07191193px;stroke-linecap:butt;stroke-linejoin:miter;stroke-miterlimit:2;stroke-dasharray:none;stroke-opacity:1"
     d="m 182.58233,4.3591084 c 1.21483,0 2.14382,0.9289903 2.14382,2.1438238 0,1.1433727 -0.92899,2.1438239 -2.14382,2.1438239 -1.21483,0 -2.14382,-1.0004512 -2.14382,-2.1438239 0,-1.2148335 0.92899,-2.1438238 2.14382,-2.1438238"
     id="path55"
     inkscape:connector-curvature="0" />
  <text
     xml:space="preserve"
     style="font-style:normal;font-variant:normal;font-weight:400;font-size:18.3125px;line-height:125%;font-family:Arial;text-align:start;letter-spacing:0px;word-spacing:0px;text-anchor:start;fill:#000000;fill-opacity:1;stroke:none"
     x="147.35216"
     y="21.58116"
     id="text63"><tspan
       sodipodi:role="line"
       x="147.35216"
       y="21.58116"
       id="tspan61"><tspan
         dx="0"
         dy="0"
         style="font-style:normal;font-variant:normal;font-weight:400;font-size:18.3125px;font-family:Arial;fill:#000000"
         id="tspan57">+</tspan><tspan
         dx="0"
         dy="0"
         style="font-style:normal;font-variant:normal;font-weight:400;font-size:18.3125px;font-family:Arial;fill:#000000"
         id="tspan59">90</tspan></tspan></text>
  <path
     style="fill:#d9d9d9;fill-opacity:1;fill-rule:evenodd;stroke:none"
     d="m 545.60316,119.41099 c 0,-32.871969 -26.65487,-59.455384 -59.45538,-59.455384 -32.8005,0 -59.38392,26.583415 -59.38392,59.455384 0,32.8005 26.58342,59.38392 59.38392,59.38392 32.80051,0 59.45538,-26.58342 59.45538,-59.38392 z"
     id="path65"
     inkscape:connector-curvature="0" />
  <path
     style="fill:none;stroke:#000000;stroke-width:1.07191193px;stroke-linecap:butt;stroke-linejoin:miter;stroke-miterlimit:2;stroke-dasharray:none;stroke-opacity:1"
     d="m 545.60316,119.41099 c 0,-32.871969 -26.65487,-59.455384 -59.45538,-59.455384 -32.8005,0 -59.38392,26.583415 -59.38392,59.455384 0,32.8005 26.58342,59.38392 59.38392,59.38392 32.80051,0 59.45538,-26.58342 59.45538,-59.38392"
     id="path67"
     inkscape:connector-curvature="0" />
  <path
     style="fill:#d9d9d9;fill-opacity:1;fill-rule:evenodd;stroke:none"
     d="m 490.50689,119.41099 c 0,-2.42967 -1.92944,-4.35911 -4.35911,-4.35911 -2.3582,0 -4.28764,1.92944 -4.28764,4.35911 0,2.3582 1.92944,4.28765 4.28764,4.28765 2.42967,0 4.35911,-1.92945 4.35911,-4.28765 z"
     id="path69"
     inkscape:connector-curvature="0" />
  <path
     style="fill:none;stroke:#000000;stroke-width:1.07191193px;stroke-linecap:butt;stroke-linejoin:miter;stroke-miterlimit:2;stroke-dasharray:none;stroke-opacity:1"
     d="m 490.50689,119.41099 c 0,-2.42967 -1.92944,-4.35911 -4.35911,-4.35911 -2.3582,0 -4.28764,1.92944 -4.28764,4.35911 0,2.3582 1.92944,4.28765 4.28764,4.28765 2.42967,0 4.35911,-1.92945 4.35911,-4.28765"
     id="path71"
     inkscape:connector-curvature="0" />
  <path
     style="fill:#ffffff;fill-opacity:1;fill-rule:evenodd;stroke:none"
     d="m 461.06504,97.758366 v 43.233784 h 43.23378 V 97.758366 Z"
     id="path73"
     inkscape:connector-curvature="0" />
  <path
     style="fill:none;stroke:#000000;stroke-width:1.07191193px;stroke-linecap:butt;stroke-linejoin:miter;stroke-miterlimit:2;stroke-dasharray:none;stroke-opacity:1"
     d="m 461.06504,140.99215 h 43.23378 V 97.758366 h -43.23378 z"
     id="path75"
     inkscape:connector-curvature="0" />
  <text
     xml:space="preserve"
     style="font-style:normal;font-variant:normal;font-weight:400;font-size:18.3125px;line-height:125%;font-family:Arial;text-align:start;letter-spacing:0px;word-spacing:0px;text-anchor:start;fill:#000000;fill-opacity:1;stroke:none"
     x="378.31345"
     y="124.4847"
     id="text81"><tspan
       sodipodi:role="line"
       x="378.31345"
       y="124.4847"
       id="tspan79"><tspan
         dx="0"
         dy="0"
         style="font-style:normal;font-variant:normal;font-weight:400;font-size:18.3125px;font-family:Arial;fill:#000000"
         id="tspan77">0</tspan></tspan></text>
  <path
     style="fill:#ffffff;fill-opacity:1;fill-rule:evenodd;stroke:none"
     d="m 393.24875,109.12063 c 0,-1.21483 -0.92899,-2.14382 -2.14382,-2.14382 -1.21484,0 -2.14383,0.92899 -2.14383,2.14382 0,1.21484 0.92899,2.14383 2.14383,2.14383 1.21483,0 2.14382,-0.92899 2.14382,-2.14383 z"
     id="path83"
     inkscape:connector-curvature="0" />
  <path
     style="fill:none;stroke:#000000;stroke-width:1.07191193px;stroke-linecap:butt;stroke-linejoin:miter;stroke-miterlimit:2;stroke-dasharray:none;stroke-opacity:1"
     d="m 393.24875,109.12063 c 0,-1.21483 -0.92899,-2.14382 -2.14382,-2.14382 -1.21484,0 -2.14383,0.92899 -2.14383,2.14382 0,1.21484 0.92899,2.14383 2.14383,2.14383 1.21483,0 2.14382,-0.92899 2.14382,-2.14383"
     id="path85"
     inkscape:connector-curvature="0" />
  <text
     xml:space="preserve"
     style="font-style:normal;font-variant:normal;font-weight:400;font-size:18.3125px;line-height:125%;font-family:Arial;text-align:start;letter-spacing:0px;word-spacing:0px;text-anchor:start;fill:#000000;fill-opacity:1;stroke:none"
     x="472.07001"
     y="227.38824"
     id="text93"><tspan
       sodipodi:role="line"
       x="472.07001"
       y="227.38824"
       id="tspan91"><tspan
         dx="0"
         dy="0"
         style="font-style:normal;font-variant:normal;font-weight:400;font-size:18.3125px;font-family:Arial;fill:#000000"
         id="tspan87">-</tspan><tspan
         dx="0"
         dy="0"
         style="font-style:normal;font-variant:normal;font-weight:400;font-size:18.3125px;font-family:Arial;fill:#000000"
         id="tspan89">90</tspan></tspan></text>
  <path
     style="fill:#ffffff;fill-opacity:1;fill-rule:evenodd;stroke:none"
     d="m 503.4413,211.73833 c 0,-1.14337 -0.929,-2.14382 -2.14383,-2.14382 -1.21483,0 -2.14382,1.00045 -2.14382,2.14382 0,1.21484 0.92899,2.14383 2.14382,2.14383 1.21483,0 2.14383,-0.92899 2.14383,-2.14383 z"
     id="path95"
     inkscape:connector-curvature="0" />
  <path
     style="fill:none;stroke:#000000;stroke-width:1.07191193px;stroke-linecap:butt;stroke-linejoin:miter;stroke-miterlimit:2;stroke-dasharray:none;stroke-opacity:1"
     d="m 503.4413,211.73833 c 0,-1.14337 -0.929,-2.14382 -2.14383,-2.14382 -1.21483,0 -2.14382,1.00045 -2.14382,2.14382 0,1.21484 0.92899,2.14383 2.14382,2.14383 1.21483,0 2.14383,-0.92899 2.14383,-2.14383"
     id="path97"
     inkscape:connector-curvature="0" />
  <text
     xml:space="preserve"
     style="font-style:normal;font-variant:normal;font-weight:400;font-size:18.3125px;line-height:125%;font-family:Arial;text-align:start;letter-spacing:0px;word-spacing:0px;text-anchor:start;fill:#000000;fill-opacity:1;stroke:none"
     x="465.20978"
     y="27.298023"
     id="text105"><tspan
       sodipodi:role="line"
       x="465.20978"
       y="27.298023"
       id="tspan103"><tspan
         dx="0"
         dy="0"
         style="font-style:normal;font-variant:normal;font-weight:400;font-size:18.3125px;font-family:Arial;fill:#000000"
         id="tspan99">+</tspan><tspan
         dx="0"
         dy="0"
         style="font-style:normal;font-variant:normal;font-weight:400;font-size:18.3125px;font-family:Arial;fill:#000000"
         id="tspan101">90</tspan></tspan></text>
  <path
     style="fill:#ffffff;fill-opacity:1;fill-rule:evenodd;stroke:none"
     d="m 501.29747,11.862491 c 0,-1.143372 -1.00045,-2.143823 -2.14382,-2.143823 -1.21484,0 -2.21529,1.000451 -2.21529,2.143823 0,1.214834 1.00045,2.215285 2.21529,2.215285 1.14337,0 2.14382,-1.000451 2.14382,-2.215285 z"
     id="path107"
     inkscape:connector-curvature="0" />
  <path
     style="fill:none;stroke:#000000;stroke-width:1.07191193px;stroke-linecap:butt;stroke-linejoin:miter;stroke-miterlimit:2;stroke-dasharray:none;stroke-opacity:1"
     d="m 501.29747,11.862491 c 0,-1.143372 -1.00045,-2.143823 -2.14382,-2.143823 -1.21484,0 -2.21529,1.000451 -2.21529,2.143823 0,1.214834 1.00045,2.215285 2.21529,2.215285 1.14337,0 2.14382,-1.000451 2.14382,-2.215285"
     id="path109"
     inkscape:connector-curvature="0" />
  <text
     xml:space="preserve"
     style="font-style:normal;font-variant:normal;font-weight:400;font-size:18.3125px;line-height:125%;font-family:Arial;text-align:start;letter-spacing:0px;word-spacing:0px;text-anchor:start;fill:#000000;fill-opacity:1;stroke:none"
     x="580.69043"
     y="124.4847"
     id="text119"><tspan
       sodipodi:role="line"
       x="580.69043"
       y="124.4847"
       id="tspan117"><tspan
         dx="0"
         dy="0"
         style="font-style:normal;font-variant:normal;font-weight:400;font-size:18.3125px;font-family:Arial;fill:#000000"
         id="tspan111">+/</tspan><tspan
         dx="0"
         dy="0"
         style="font-style:normal;font-variant:normal;font-weight:400;font-size:18.3125px;font-family:Arial;fill:#000000"
         id="tspan113">-</tspan><tspan
         dx="0"
         dy="0"
         style="font-style:normal;font-variant:normal;font-weight:400;font-size:18.3125px;font-family:Arial;fill:#000000"
         id="tspan115">180</tspan></tspan></text>
  <path
     style="fill:#ffffff;fill-opacity:1;fill-rule:evenodd;stroke:none"
     d="m 638.5022,109.12063 c 0,-1.21483 -1.00046,-2.14382 -2.14383,-2.14382 -1.21483,0 -2.21528,0.92899 -2.21528,2.14382 0,1.21484 1.00045,2.14383 2.21528,2.14383 1.14337,0 2.14383,-0.92899 2.14383,-2.14383 z"
     id="path121"
     inkscape:connector-curvature="0" />
  <path
     style="fill:none;stroke:#000000;stroke-width:1.07191193px;stroke-linecap:butt;stroke-linejoin:miter;stroke-miterlimit:2;stroke-dasharray:none;stroke-opacity:1"
     d="m 638.5022,109.12063 c 0,-1.21483 -1.00046,-2.14382 -2.14383,-2.14382 -1.21483,0 -2.21528,0.92899 -2.21528,2.14382 0,1.21484 1.00045,2.14383 2.21528,2.14383 1.14337,0 2.14383,-0.92899 2.14383,-2.14383"
     id="path123"
     inkscape:connector-curvature="0" />
  <path
     style="fill:#d9d9d9;fill-opacity:1;fill-rule:evenodd;stroke:none"
     d="m 494.79454,118.8393 c 0,-6.57439 -5.2881,-11.86249 -11.86249,-11.86249 -6.5744,0 -11.86249,5.2881 -11.86249,11.86249 0,6.57439 5.28809,11.86249 11.86249,11.86249 6.57439,0 11.86249,-5.2881 11.86249,-11.86249 z"
     id="path125"
     inkscape:connector-curvature="0" />
  <path
     style="fill:none;stroke:#000000;stroke-width:1.07191193px;stroke-linecap:butt;stroke-linejoin:miter;stroke-miterlimit:2;stroke-dasharray:none;stroke-opacity:1"
     d="m 494.79454,118.8393 c 0,-6.57439 -5.2881,-11.86249 -11.86249,-11.86249 -6.5744,0 -11.86249,5.2881 -11.86249,11.86249 0,6.57439 5.28809,11.86249 11.86249,11.86249 6.57439,0 11.86249,-5.2881 11.86249,-11.86249"
     id="path127"
     inkscape:connector-curvature="0" />
  <path
     style="fill:#000000;fill-opacity:1;fill-rule:nonzero;stroke:#000000;stroke-width:1.14337265px;stroke-linecap:butt;stroke-linejoin:bevel;stroke-miterlimit:10;stroke-dasharray:none;stroke-opacity:1"
     d="m 394.32066,118.8393 h 9.14698 v 1.14337 h -9.14698 z m 13.72048,0 h 9.14698 v 1.14337 h -9.14698 z m 13.72047,0 h 9.14698 v 1.14337 h -9.14698 z m 13.72047,0 h 9.14698 v 1.14337 h -9.14698 z m 13.72047,0 h 9.14698 v 1.14337 h -9.14698 z m 13.72047,0 h 9.14699 v 1.14337 h -9.14699 z m 13.72048,0 h 9.14698 v 1.14337 h -9.14698 z m 13.72047,0 h 9.14698 v 1.14337 h -9.14698 z m 13.72047,0 h 9.14698 v 1.14337 h -9.14698 z m 13.72047,0 h 9.14699 v 1.14337 h -9.14699 z m 13.72048,0 h 9.14698 v 1.14337 h -9.14698 z m 13.72047,0 h 9.14698 v 1.14337 h -9.14698 z m 13.72047,0 h 9.14698 v 1.14337 h -9.14698 z m 13.72047,0 h 5.2881 v 1.14337 h -5.2881 z"
     id="path129"
     inkscape:connector-curvature="0" />
  <path
     style="fill:#ffffff;fill-opacity:1;fill-rule:evenodd;stroke:none"
     d="m 477.85833,89.11161 v 8.646756 h 17.29351 V 89.11161 Z"
     id="path131"
     inkscape:connector-curvature="0" />
  <path
     style="fill:none;stroke:#000000;stroke-width:1.07191193px;stroke-linecap:butt;stroke-linejoin:miter;stroke-miterlimit:2;stroke-dasharray:none;stroke-opacity:1"
     d="m 477.85833,97.758366 h 17.29351 V 89.11161 h -17.29351 z"
     id="path133"
     inkscape:connector-curvature="0" />
  <path
     style="fill:#ffffff;fill-opacity:1;fill-rule:evenodd;stroke:none"
     d="m 477.85833,140.99215 v 8.64675 h 17.29351 v -8.64675 z"
     id="path135"
     inkscape:connector-curvature="0" />
  <path
     style="fill:none;stroke:#000000;stroke-width:1.07191193px;stroke-linecap:butt;stroke-linejoin:miter;stroke-miterlimit:2;stroke-dasharray:none;stroke-opacity:1"
     d="m 477.85833,149.6389 h 17.29351 v -8.64675 h -17.29351 z"
     id="path137"
     inkscape:connector-curvature="0" />
  <path
     style="fill:#000000;fill-opacity:1;fill-rule:nonzero;stroke:#000000;stroke-width:1.14337265px;stroke-linecap:butt;stroke-linejoin:bevel;stroke-miterlimit:10;stroke-dasharray:none;stroke-opacity:1"
     d="m 487.07677,32.943426 v 9.146981 h -1.14337 v -9.146981 z m 0,13.720472 v 9.146982 h -1.14337 v -9.146982 z m 0,13.720472 v 9.146982 H 485.9334 V 60.38437 Z m 0,13.720473 v 9.146982 h -1.14337 v -9.146982 z m 0,13.720472 v 9.146982 h -1.14337 v -9.146982 z m 0,13.720475 v 9.14698 h -1.14337 v -9.14698 z m 0,13.72047 v 9.14698 h -1.14337 v -9.14698 z m 0,13.72047 v 9.14699 h -1.14337 v -9.14699 z m 0,13.72048 v 9.14698 h -1.14337 v -9.14698 z m 0,13.72047 v 9.14698 h -1.14337 v -9.14698 z m 0,13.72047 v 9.14698 h -1.14337 v -9.14698 z m 0,13.72047 v 9.14699 h -1.14337 v -9.14699 z m 0,13.72048 v 8.21799 h -1.14337 v -8.21799 z"
     id="path139"
     inkscape:connector-curvature="0" />
  <path
     style="fill:none;stroke:#000000;stroke-width:1.85798061px;stroke-linecap:round;stroke-linejoin:round;stroke-miterlimit:10;stroke-dasharray:none;stroke-opacity:1"
     d="M 183.65424,64.81494 C 176.57962,55.382115 164.14545,51.594693 152.99756,55.596497"
     id="path141"
     inkscape:connector-curvature="0" />
  <path
     style="fill:#000000;fill-opacity:1;fill-rule:evenodd;stroke:none"
     d="M 150.78228,50.165477 140.42046,64.81494 157.49959,59.312459 Z"
     id="path143"
     inkscape:connector-curvature="0" />
</svg>
