<?xml version="1.0" encoding="UTF-8" standalone="no"?>
<svg
   xmlns:dc="http://purl.org/dc/elements/1.1/"
   xmlns:cc="http://creativecommons.org/ns#"
   xmlns:rdf="http://www.w3.org/1999/02/22-rdf-syntax-ns#"
   xmlns:svg="http://www.w3.org/2000/svg"
   xmlns="http://www.w3.org/2000/svg"
   xmlns:sodipodi="http://sodipodi.sourceforge.net/DTD/sodipodi-0.dtd"
   xmlns:inkscape="http://www.inkscape.org/namespaces/inkscape"
   version="1.0"
   width="648.22089"
   height="237.6786"
   id="svg133"
   sodipodi:docname="image6.svg"
   inkscape:version="0.92.4 (5da689c313, 2019-01-14)">
  <metadata
     id="metadata137">
    <rdf:RDF>
      <cc:Work
         rdf:about="">
        <dc:format>image/svg+xml</dc:format>
        <dc:type
           rdf:resource="http://purl.org/dc/dcmitype/StillImage" />
        <dc:title></dc:title>
      </cc:Work>
    </rdf:RDF>
  </metadata>
  <sodipodi:namedview
     pagecolor="#ffffff"
     bordercolor="#666666"
     borderopacity="1"
     objecttolerance="10"
     gridtolerance="10"
     guidetolerance="10"
     inkscape:pageopacity="0"
     inkscape:pageshadow="2"
     inkscape:window-width="640"
     inkscape:window-height="480"
     id="namedview135"
     showgrid="false"
     units="px"
     fit-margin-top="0"
     fit-margin-left="0"
     fit-margin-right="0"
     fit-margin-bottom="0"
     inkscape:zoom="0.48400323"
     inkscape:cx="327.33423"
     inkscape:cy="115.32704"
     inkscape:window-x="0"
     inkscape:window-y="0"
     inkscape:window-maximized="0"
     inkscape:current-layer="svg133" />
  <defs
     id="defs3">
    <pattern
       id="EMFhbasepattern"
       patternUnits="userSpaceOnUse"
       width="6"
       height="6"
       x="0"
       y="0" />
  </defs>
  <path
     style="fill:#ffffff;fill-opacity:1;fill-rule:evenodd;stroke:none"
     d="M 0,0 V 237.6786 H 648.22086 V 0 Z"
     id="path5"
     inkscape:connector-curvature="0" />
  <path
     style="fill:#ffffff;fill-opacity:1;fill-rule:evenodd;stroke:none"
     d="m 142.42136,85.53857 -3.85888,64.67202 43.16232,2.57259 3.85888,-64.672021 z"
     id="path7"
     inkscape:connector-curvature="0" />
  <path
     style="fill:none;stroke:#000000;stroke-width:1.07191193px;stroke-linecap:butt;stroke-linejoin:miter;stroke-miterlimit:2;stroke-dasharray:none;stroke-opacity:1"
     d="m 142.42136,85.53857 -3.85888,64.67202 43.16232,2.57259 3.85888,-64.672021 z"
     id="path9"
     inkscape:connector-curvature="0" />
  <path
     style="fill:#bfbfbf;fill-opacity:1;fill-rule:evenodd;stroke:none"
     d="m 149.35306,150.85374 -0.64315,10.79058 21.58116,1.28629 0.64315,-10.79058 z"
     id="path11"
     inkscape:connector-curvature="0" />
  <path
     style="fill:none;stroke:#000000;stroke-width:1.07191193px;stroke-linecap:butt;stroke-linejoin:miter;stroke-miterlimit:2;stroke-dasharray:none;stroke-opacity:1"
     d="m 149.35306,150.85374 -0.64315,10.79058 21.58116,1.28629 0.64315,-10.79058 z"
     id="path13"
     inkscape:connector-curvature="0" />
  <path
     style="fill:#d9d9d9;fill-opacity:1;fill-rule:evenodd;stroke:none"
     d="m 102.6177,54.596046 v 21.58116 H 221.457 v -21.58116 z"
     id="path15"
     inkscape:connector-curvature="0" />
  <path
     style="fill:none;stroke:#000000;stroke-width:1.07191193px;stroke-linecap:butt;stroke-linejoin:miter;stroke-miterlimit:2;stroke-dasharray:none;stroke-opacity:1"
     d="M 102.6177,76.177206 H 221.457 V 54.596046 H 102.6177 Z"
     id="path17"
     inkscape:connector-curvature="0" />
  <path
     style="fill:#ffffff;fill-opacity:1;fill-rule:evenodd;stroke:none"
     d="m 151.2825,76.177206 v 54.024364 h 21.58116 V 76.177206 Z"
     id="path19"
     inkscape:connector-curvature="0" />
  <path
     style="fill:none;stroke:#000000;stroke-width:1.07191193px;stroke-linecap:butt;stroke-linejoin:miter;stroke-miterlimit:2;stroke-dasharray:none;stroke-opacity:1"
     d="m 151.2825,130.20157 h 21.58116 V 76.177206 H 151.2825 Z"
     id="path21"
     inkscape:connector-curvature="0" />
  <path
     style="fill:#ffffff;fill-opacity:1;fill-rule:evenodd;stroke:none"
     d="m 168.50455,119.41099 c 0,-3.57304 -2.85843,-6.50293 -6.43147,-6.50293 -3.57304,0 -6.50293,2.92989 -6.50293,6.50293 0,3.57304 2.92989,6.43147 6.50293,6.43147 3.57304,0 6.43147,-2.85843 6.43147,-6.43147 z"
     id="path23"
     inkscape:connector-curvature="0" />
  <path
     style="fill:none;stroke:#000000;stroke-width:1.07191193px;stroke-linecap:butt;stroke-linejoin:miter;stroke-miterlimit:2;stroke-dasharray:none;stroke-opacity:1"
     d="m 168.50455,119.41099 c 0,-3.57304 -2.85843,-6.50293 -6.43147,-6.50293 -3.57304,0 -6.50293,2.92989 -6.50293,6.50293 0,3.57304 2.92989,6.43147 6.50293,6.43147 3.57304,0 6.43147,-2.85843 6.43147,-6.43147"
     id="path25"
     inkscape:connector-curvature="0" />
  <path
     style="fill:#000000;fill-opacity:1;fill-rule:nonzero;stroke:#000000;stroke-width:1.14337265px;stroke-linecap:butt;stroke-linejoin:bevel;stroke-miterlimit:10;stroke-dasharray:none;stroke-opacity:1"
     d="m 68.102136,118.8393 h 9.146982 v 1.14337 h -9.146982 z m 13.720473,0 h 9.146981 v 1.14337 h -9.146981 z m 13.720472,0 h 9.146979 v 1.14337 h -9.146979 z m 13.720479,0 h 9.14698 v 1.14337 h -9.14698 z m 13.72047,0 h 9.14698 v 1.14337 h -9.14698 z m 13.72047,0 h 9.14698 v 1.14337 h -9.14698 z m 13.72047,0 h 9.14698 v 1.14337 h -9.14698 z m 13.72048,0 h 9.14698 v 1.14337 h -9.14698 z m 13.72047,0 h 9.14698 v 1.14337 h -9.14698 z m 13.72047,0 h 9.14698 v 1.14337 h -9.14698 z m 13.72047,0 h 9.14698 v 1.14337 h -9.14698 z m 13.72048,0 h 9.14698 v 1.14337 h -9.14698 z m 13.72047,0 h 9.14698 v 1.14337 h -9.14698 z m 13.72047,0 h 9.14698 v 1.14337 h -9.14698 z m 13.72047,0 h 0.21438 v 1.14337 h -0.21438 z"
     id="path27"
     inkscape:connector-curvature="0" />
  <path
     style="fill:#000000;fill-opacity:1;fill-rule:nonzero;stroke:#000000;stroke-width:1.14337265px;stroke-linecap:butt;stroke-linejoin:bevel;stroke-miterlimit:10;stroke-dasharray:none;stroke-opacity:1"
     d="m 162.64477,119.41099 v 9.14698 h -1.14337 v -9.14698 z m 0,13.72047 v 9.14698 h -1.14337 v -9.14698 z m 0,13.72047 v 9.14698 h -1.14337 v -9.14698 z m 0,13.72048 v 9.14698 h -1.14337 v -9.14698 z m 0,13.72047 v 9.14698 h -1.14337 v -9.14698 z m 0,13.72047 v 9.14698 h -1.14337 v -9.14698 z m 0,13.72047 v 4.07327 h -1.14337 v -4.07327 z"
     id="path29"
     inkscape:connector-curvature="0" />
  <text
     xml:space="preserve"
     style="font-style:normal;font-variant:normal;font-weight:400;font-size:18.3125px;line-height:125%;font-family:Arial;text-align:start;letter-spacing:0px;word-spacing:0px;text-anchor:start;fill:#000000;fill-opacity:1;stroke:none"
     x="47.878731"
     y="124.4847"
     id="text35"><tspan
       sodipodi:role="line"
       x="47.878731"
       y="124.4847"
       id="tspan33"><tspan
         dx="0"
         dy="0"
         style="font-style:normal;font-variant:normal;font-weight:400;font-size:18.3125px;font-family:Arial;fill:#000000"
         id="tspan31">0</tspan></tspan></text>
  <path
     style="fill:#ffffff;fill-opacity:1;fill-rule:evenodd;stroke:none"
     d="m 63.743028,109.12063 c 0,-1.21483 -0.928991,-2.14382 -2.143824,-2.14382 -1.214834,0 -2.143824,0.92899 -2.143824,2.14382 0,1.21484 0.92899,2.14383 2.143824,2.14383 1.214833,0 2.143824,-0.92899 2.143824,-2.14383 z"
     id="path37"
     inkscape:connector-curvature="0" />
  <path
     style="fill:none;stroke:#000000;stroke-width:1.07191193px;stroke-linecap:butt;stroke-linejoin:miter;stroke-miterlimit:2;stroke-dasharray:none;stroke-opacity:1"
     d="m 63.743028,109.12063 c 0,-1.21483 -0.928991,-2.14382 -2.143824,-2.14382 -1.214834,0 -2.143824,0.92899 -2.143824,2.14382 0,1.21484 0.92899,2.14383 2.143824,2.14383 1.214833,0 2.143824,-0.92899 2.143824,-2.14383"
     id="path39"
     inkscape:connector-curvature="0" />
  <path
     style="fill:#ffffff;fill-opacity:1;fill-rule:evenodd;stroke:none"
     d="m 308.99647,109.12063 c 0,-1.21483 -1.00045,-2.14382 -2.14382,-2.14382 -1.21483,0 -2.21528,0.92899 -2.21528,2.14382 0,1.21484 1.00045,2.14383 2.21528,2.14383 1.14337,0 2.14382,-0.92899 2.14382,-2.14383 z"
     id="path41"
     inkscape:connector-curvature="0" />
  <path
     style="fill:none;stroke:#000000;stroke-width:1.07191193px;stroke-linecap:butt;stroke-linejoin:miter;stroke-miterlimit:2;stroke-dasharray:none;stroke-opacity:1"
     d="m 308.99647,109.12063 c 0,-1.21483 -1.00045,-2.14382 -2.14382,-2.14382 -1.21483,0 -2.21528,0.92899 -2.21528,2.14382 0,1.21484 1.00045,2.14383 2.21528,2.14383 1.14337,0 2.14382,-0.92899 2.14382,-2.14383"
     id="path43"
     inkscape:connector-curvature="0" />
  <text
     xml:space="preserve"
     style="font-style:normal;font-variant:normal;font-weight:400;font-size:18.3125px;line-height:125%;font-family:Arial;text-align:start;letter-spacing:0px;word-spacing:0px;text-anchor:start;fill:#000000;fill-opacity:1;stroke:none"
     x="266.26291"
     y="124.4847"
     id="text51"><tspan
       sodipodi:role="line"
       x="266.26291"
       y="124.4847"
       id="tspan49"><tspan
         dx="0"
         dy="0"
         style="font-style:normal;font-variant:normal;font-weight:400;font-size:18.3125px;font-family:Arial;fill:#000000"
         id="tspan45">-</tspan><tspan
         dx="0"
         dy="0"
         style="font-style:normal;font-variant:normal;font-weight:400;font-size:18.3125px;font-family:Arial;fill:#000000"
         id="tspan47">180</tspan></tspan></text>
  <path
     style="fill:#ffffff;fill-opacity:1;fill-rule:evenodd;stroke:none"
     d="m 184.72615,212.31002 c 0,-1.21483 -0.92899,-2.14382 -2.14382,-2.14382 -1.21483,0 -2.14382,0.92899 -2.14382,2.14382 0,1.14337 0.92899,2.14382 2.14382,2.14382 1.21483,0 2.14382,-1.00045 2.14382,-2.14382 z"
     id="path53"
     inkscape:connector-curvature="0" />
  <path
     style="fill:none;stroke:#000000;stroke-width:1.07191193px;stroke-linecap:butt;stroke-linejoin:miter;stroke-miterlimit:2;stroke-dasharray:none;stroke-opacity:1"
     d="m 184.72615,212.31002 c 0,-1.21483 -0.92899,-2.14382 -2.14382,-2.14382 -1.21483,0 -2.14382,0.92899 -2.14382,2.14382 0,1.14337 0.92899,2.14382 2.14382,2.14382 1.21483,0 2.14382,-1.00045 2.14382,-2.14382"
     id="path55"
     inkscape:connector-curvature="0" />
  <text
     xml:space="preserve"
     style="font-style:normal;font-variant:normal;font-weight:400;font-size:18.3125px;line-height:125%;font-family:Arial;text-align:start;letter-spacing:0px;word-spacing:0px;text-anchor:start;fill:#000000;fill-opacity:1;stroke:none"
     x="151.92564"
     y="227.38824"
     id="text63"><tspan
       sodipodi:role="line"
       x="151.92564"
       y="227.38824"
       id="tspan61"><tspan
         dx="0"
         dy="0"
         style="font-style:normal;font-variant:normal;font-weight:400;font-size:18.3125px;font-family:Arial;fill:#000000"
         id="tspan57">-</tspan><tspan
         dx="0"
         dy="0"
         style="font-style:normal;font-variant:normal;font-weight:400;font-size:18.3125px;font-family:Arial;fill:#000000"
         id="tspan59">90</tspan></tspan></text>
  <path
     style="fill:#d9d9d9;fill-opacity:1;fill-rule:evenodd;stroke:none"
     d="m 545.60316,119.41099 c 0,-32.871969 -26.65487,-59.455384 -59.45538,-59.455384 -32.8005,0 -59.38392,26.583415 -59.38392,59.455384 0,32.8005 26.58342,59.38392 59.38392,59.38392 32.80051,0 59.45538,-26.58342 59.45538,-59.38392 z"
     id="path65"
     inkscape:connector-curvature="0" />
  <path
     style="fill:none;stroke:#000000;stroke-width:1.07191193px;stroke-linecap:butt;stroke-linejoin:miter;stroke-miterlimit:2;stroke-dasharray:none;stroke-opacity:1"
     d="m 545.60316,119.41099 c 0,-32.871969 -26.65487,-59.455384 -59.45538,-59.455384 -32.8005,0 -59.38392,26.583415 -59.38392,59.455384 0,32.8005 26.58342,59.38392 59.38392,59.38392 32.80051,0 59.45538,-26.58342 59.45538,-59.38392"
     id="path67"
     inkscape:connector-curvature="0" />
  <path
     style="fill:#d9d9d9;fill-opacity:1;fill-rule:evenodd;stroke:none"
     d="m 490.50689,119.41099 c 0,-2.42967 -1.92944,-4.35911 -4.35911,-4.35911 -2.3582,0 -4.28764,1.92944 -4.28764,4.35911 0,2.3582 1.92944,4.28765 4.28764,4.28765 2.42967,0 4.35911,-1.92945 4.35911,-4.28765 z"
     id="path69"
     inkscape:connector-curvature="0" />
  <path
     style="fill:none;stroke:#000000;stroke-width:1.07191193px;stroke-linecap:butt;stroke-linejoin:miter;stroke-miterlimit:2;stroke-dasharray:none;stroke-opacity:1"
     d="m 490.50689,119.41099 c 0,-2.42967 -1.92944,-4.35911 -4.35911,-4.35911 -2.3582,0 -4.28764,1.92944 -4.28764,4.35911 0,2.3582 1.92944,4.28765 4.28764,4.28765 2.42967,0 4.35911,-1.92945 4.35911,-4.28765"
     id="path71"
     inkscape:connector-curvature="0" />
  <path
     style="fill:#000000;fill-opacity:1;fill-rule:nonzero;stroke:#000000;stroke-width:1.14337265px;stroke-linecap:butt;stroke-linejoin:bevel;stroke-miterlimit:10;stroke-dasharray:none;stroke-opacity:1"
     d="m 464.0664,97.758366 v 2.286744 h -1.14338 v -2.286744 z m 0,3.430124 v 2.28674 h -1.14338 v -2.28674 z m 0,3.43011 v 2.28675 h -1.14338 v -2.28675 z m 0,3.43012 v 2.28675 h -1.14338 v -2.28675 z m 0,3.43012 v 2.28675 h -1.14338 v -2.28675 z m 0,3.43012 v 2.28674 h -1.14338 v -2.28674 z m 0,3.43012 v 2.28674 h -1.14338 v -2.28674 z m 0,3.43011 v 2.28675 h -1.14338 v -2.28675 z m 0,3.43012 v 2.28675 h -1.14338 v -2.28675 z m 0,3.43012 v 2.28675 h -1.14338 v -2.28675 z m 0,3.43012 v 2.28674 h -1.14338 v -2.28674 z m 0,3.43012 v 2.28674 h -1.14338 v -2.28674 z m 0,3.43012 v 2.07236 l -0.57169,-0.57169 h 0.21438 v 1.14337 h -0.78607 v -2.64404 z m 0.78607,1.50067 h 2.28674 v 1.14337 h -2.28674 z m 3.43011,0 h 2.28675 v 1.14337 h -2.28675 z m 3.43012,0 h 2.28675 v 1.14337 h -2.28675 z m 3.43012,0 h 2.28675 v 1.14337 h -2.28675 z m 3.43012,0 h 2.28674 v 1.14337 h -2.28674 z m 3.43012,0 h 2.28674 v 1.14337 h -2.28674 z m 3.43011,0 h 2.28675 v 1.14337 h -2.28675 z m 3.43012,0 h 2.28675 v 1.14337 h -2.28675 z m 3.43012,0 h 2.28675 v 1.14337 h -2.28675 z m 3.43012,0 h 2.28674 v 1.14337 h -2.28674 z m 3.43012,0 h 2.28674 v 1.14337 h -2.28674 z m 3.43012,0 h 2.28674 v 1.14337 h -2.28674 z m 3.43011,0 h 0.64315 l -0.57169,0.57169 v -1.6436 h 1.14338 v 2.21528 h -1.21484 z m 0.0715,-2.21528 v -2.28675 h 1.14338 v 2.28675 z m 0,-3.43012 v -2.28675 h 1.14338 v 2.28675 z m 0,-3.43012 v -2.28674 h 1.14338 v 2.28674 z m 0,-3.43012 v -2.28674 h 1.14338 v 2.28674 z m 0,-3.43012 v -2.28674 h 1.14338 v 2.28674 z m 0,-3.43011 v -2.28675 h 1.14338 v 2.28675 z m 0,-3.43012 v -2.28675 h 1.14338 v 2.28675 z m 0,-3.43012 v -2.28675 h 1.14338 v 2.28675 z m 0,-3.43012 v -2.28674 h 1.14338 v 2.28674 z m 0,-3.43012 v -2.28674 h 1.14338 v 2.28674 z m 0,-3.43011 v -2.28675 h 1.14338 v 2.28675 z m 0,-3.43012 v -2.28675 h 1.14338 v 2.28675 z m -0.0715,-2.143828 h -2.28674 v -1.143373 h 2.28674 z m -3.43011,0 h -2.28675 v -1.143373 h 2.28675 z m -3.43012,0 h -2.28675 v -1.143373 h 2.28675 z m -3.43012,0 h -2.28675 v -1.143373 h 2.28675 z m -3.43012,0 h -2.28674 v -1.143373 h 2.28674 z m -3.43012,0 h -2.28674 v -1.143373 h 2.28674 z m -3.43012,0 h -2.28674 v -1.143373 h 2.28674 z m -3.43011,0 h -2.28675 v -1.143373 h 2.28675 z m -3.43012,0 h -2.28675 v -1.143373 h 2.28675 z m -3.43012,0 h -2.28674 v -1.143373 h 2.28674 z m -3.43012,0 h -2.28674 v -1.143373 h 2.28674 z m -3.43012,0 h -2.28674 v -1.143373 h 2.28674 z m -3.43011,0 h -1.35776 v -1.143373 h 1.35776 z"
     id="path73"
     inkscape:connector-curvature="0" />
  <path
     style="fill:#000000;fill-opacity:1;fill-rule:nonzero;stroke:#000000;stroke-width:1.14337265px;stroke-linecap:butt;stroke-linejoin:bevel;stroke-miterlimit:10;stroke-dasharray:none;stroke-opacity:1"
     d="m 394.32066,118.8393 h 9.14698 v 1.14337 h -9.14698 z m 13.72048,0 h 9.14698 v 1.14337 h -9.14698 z m 13.72047,0 h 9.14698 v 1.14337 h -9.14698 z m 13.72047,0 h 9.14698 v 1.14337 h -9.14698 z m 13.72047,0 h 9.14698 v 1.14337 h -9.14698 z m 13.72047,0 h 9.14699 v 1.14337 h -9.14699 z m 13.72048,0 h 9.14698 v 1.14337 h -9.14698 z m 13.72047,0 h 9.14698 v 1.14337 h -9.14698 z m 13.72047,0 h 9.14698 v 1.14337 h -9.14698 z m 13.72047,0 h 9.14699 v 1.14337 h -9.14699 z m 13.72048,0 h 9.14698 v 1.14337 h -9.14698 z m 13.72047,0 h 9.14698 v 1.14337 h -9.14698 z m 13.72047,0 h 9.14698 v 1.14337 h -9.14698 z m 13.72047,0 h 5.2881 v 1.14337 h -5.2881 z"
     id="path75"
     inkscape:connector-curvature="0" />
  <text
     xml:space="preserve"
     style="font-style:normal;font-variant:normal;font-weight:400;font-size:18.3125px;line-height:125%;font-family:Arial;text-align:start;letter-spacing:0px;word-spacing:0px;text-anchor:start;fill:#000000;fill-opacity:1;stroke:none"
     x="378.31345"
     y="124.4847"
     id="text81"><tspan
       sodipodi:role="line"
       x="378.31345"
       y="124.4847"
       id="tspan79"><tspan
         dx="0"
         dy="0"
         style="font-style:normal;font-variant:normal;font-weight:400;font-size:18.3125px;font-family:Arial;fill:#000000"
         id="tspan77">0</tspan></tspan></text>
  <path
     style="fill:#ffffff;fill-opacity:1;fill-rule:evenodd;stroke:none"
     d="m 393.24875,109.12063 c 0,-1.21483 -0.92899,-2.14382 -2.14382,-2.14382 -1.21484,0 -2.14383,0.92899 -2.14383,2.14382 0,1.21484 0.92899,2.14383 2.14383,2.14383 1.21483,0 2.14382,-0.92899 2.14382,-2.14383 z"
     id="path83"
     inkscape:connector-curvature="0" />
  <path
     style="fill:none;stroke:#000000;stroke-width:1.07191193px;stroke-linecap:butt;stroke-linejoin:miter;stroke-miterlimit:2;stroke-dasharray:none;stroke-opacity:1"
     d="m 393.24875,109.12063 c 0,-1.21483 -0.92899,-2.14382 -2.14382,-2.14382 -1.21484,0 -2.14383,0.92899 -2.14383,2.14382 0,1.21484 0.92899,2.14383 2.14383,2.14383 1.21483,0 2.14382,-0.92899 2.14382,-2.14383"
     id="path85"
     inkscape:connector-curvature="0" />
  <path
     style="fill:#000000;fill-opacity:1;fill-rule:nonzero;stroke:#000000;stroke-width:1.14337265px;stroke-linecap:butt;stroke-linejoin:bevel;stroke-miterlimit:10;stroke-dasharray:none;stroke-opacity:1"
     d="m 487.07677,32.943426 v 9.146981 h -1.14337 v -9.146981 z m 0,13.720472 v 9.146982 h -1.14337 v -9.146982 z m 0,13.720472 v 9.146982 H 485.9334 V 60.38437 Z m 0,13.720473 v 9.146982 h -1.14337 v -9.146982 z m 0,13.720472 v 9.146982 h -1.14337 v -9.146982 z m 0,13.720475 v 9.14698 h -1.14337 v -9.14698 z m 0,13.72047 v 9.14698 h -1.14337 v -9.14698 z m 0,13.72047 v 9.14699 h -1.14337 v -9.14699 z m 0,13.72048 v 9.14698 h -1.14337 v -9.14698 z m 0,13.72047 v 9.14698 h -1.14337 v -9.14698 z m 0,13.72047 v 9.14698 h -1.14337 v -9.14698 z m 0,13.72047 v 9.14699 h -1.14337 v -9.14699 z m 0,13.72048 v 8.21799 h -1.14337 v -8.21799 z"
     id="path87"
     inkscape:connector-curvature="0" />
  <text
     xml:space="preserve"
     style="font-style:normal;font-variant:normal;font-weight:400;font-size:18.3125px;line-height:125%;font-family:Arial;text-align:start;letter-spacing:0px;word-spacing:0px;text-anchor:start;fill:#000000;fill-opacity:1;stroke:none"
     x="472.07001"
     y="227.38824"
     id="text95"><tspan
       sodipodi:role="line"
       x="472.07001"
       y="227.38824"
       id="tspan93"><tspan
         dx="0"
         dy="0"
         style="font-style:normal;font-variant:normal;font-weight:400;font-size:18.3125px;font-family:Arial;fill:#000000"
         id="tspan89">-</tspan><tspan
         dx="0"
         dy="0"
         style="font-style:normal;font-variant:normal;font-weight:400;font-size:18.3125px;font-family:Arial;fill:#000000"
         id="tspan91">90</tspan></tspan></text>
  <path
     style="fill:#ffffff;fill-opacity:1;fill-rule:evenodd;stroke:none"
     d="m 503.4413,211.73833 c 0,-1.14337 -0.929,-2.14382 -2.14383,-2.14382 -1.21483,0 -2.14382,1.00045 -2.14382,2.14382 0,1.21484 0.92899,2.14383 2.14382,2.14383 1.21483,0 2.14383,-0.92899 2.14383,-2.14383 z"
     id="path97"
     inkscape:connector-curvature="0" />
  <path
     style="fill:none;stroke:#000000;stroke-width:1.07191193px;stroke-linecap:butt;stroke-linejoin:miter;stroke-miterlimit:2;stroke-dasharray:none;stroke-opacity:1"
     d="m 503.4413,211.73833 c 0,-1.14337 -0.929,-2.14382 -2.14383,-2.14382 -1.21483,0 -2.14382,1.00045 -2.14382,2.14382 0,1.21484 0.92899,2.14383 2.14382,2.14383 1.21483,0 2.14383,-0.92899 2.14383,-2.14383"
     id="path99"
     inkscape:connector-curvature="0" />
  <text
     xml:space="preserve"
     style="font-style:normal;font-variant:normal;font-weight:400;font-size:18.3125px;line-height:125%;font-family:Arial;text-align:start;letter-spacing:0px;word-spacing:0px;text-anchor:start;fill:#000000;fill-opacity:1;stroke:none"
     x="475.50012"
     y="27.298023"
     id="text105"><tspan
       sodipodi:role="line"
       x="475.50012"
       y="27.298023"
       id="tspan103"><tspan
         dx="0"
         dy="0"
         style="font-style:normal;font-variant:normal;font-weight:400;font-size:18.3125px;font-family:Arial;fill:#000000"
         id="tspan101">90</tspan></tspan></text>
  <path
     style="fill:#ffffff;fill-opacity:1;fill-rule:evenodd;stroke:none"
     d="m 501.29747,11.862491 c 0,-1.143372 -1.00045,-2.143823 -2.14382,-2.143823 -1.21484,0 -2.21529,1.000451 -2.21529,2.143823 0,1.214834 1.00045,2.215285 2.21529,2.215285 1.14337,0 2.14382,-1.000451 2.14382,-2.215285 z"
     id="path107"
     inkscape:connector-curvature="0" />
  <path
     style="fill:none;stroke:#000000;stroke-width:1.07191193px;stroke-linecap:butt;stroke-linejoin:miter;stroke-miterlimit:2;stroke-dasharray:none;stroke-opacity:1"
     d="m 501.29747,11.862491 c 0,-1.143372 -1.00045,-2.143823 -2.14382,-2.143823 -1.21484,0 -2.21529,1.000451 -2.21529,2.143823 0,1.214834 1.00045,2.215285 2.21529,2.215285 1.14337,0 2.14382,-1.000451 2.14382,-2.215285"
     id="path109"
     inkscape:connector-curvature="0" />
  <text
     xml:space="preserve"
     style="font-style:normal;font-variant:normal;font-weight:400;font-size:18.3125px;line-height:125%;font-family:Arial;text-align:start;letter-spacing:0px;word-spacing:0px;text-anchor:start;fill:#000000;fill-opacity:1;stroke:none"
     x="580.69043"
     y="124.4847"
     id="text119"><tspan
       sodipodi:role="line"
       x="580.69043"
       y="124.4847"
       id="tspan117"><tspan
         dx="0"
         dy="0"
         style="font-style:normal;font-variant:normal;font-weight:400;font-size:18.3125px;font-family:Arial;fill:#000000"
         id="tspan111">+/</tspan><tspan
         dx="0"
         dy="0"
         style="font-style:normal;font-variant:normal;font-weight:400;font-size:18.3125px;font-family:Arial;fill:#000000"
         id="tspan113">-</tspan><tspan
         dx="0"
         dy="0"
         style="font-style:normal;font-variant:normal;font-weight:400;font-size:18.3125px;font-family:Arial;fill:#000000"
         id="tspan115">180</tspan></tspan></text>
  <path
     style="fill:#ffffff;fill-opacity:1;fill-rule:evenodd;stroke:none"
     d="m 638.5022,109.12063 c 0,-1.21483 -1.00046,-2.14382 -2.14383,-2.14382 -1.21483,0 -2.21528,0.92899 -2.21528,2.14382 0,1.21484 1.00045,2.14383 2.21528,2.14383 1.14337,0 2.14383,-0.92899 2.14383,-2.14383 z"
     id="path121"
     inkscape:connector-curvature="0" />
  <path
     style="fill:none;stroke:#000000;stroke-width:1.07191193px;stroke-linecap:butt;stroke-linejoin:miter;stroke-miterlimit:2;stroke-dasharray:none;stroke-opacity:1"
     d="m 638.5022,109.12063 c 0,-1.21483 -1.00046,-2.14382 -2.14383,-2.14382 -1.21483,0 -2.21528,0.92899 -2.21528,2.14382 0,1.21484 1.00045,2.14383 2.21528,2.14383 1.14337,0 2.14383,-0.92899 2.14383,-2.14383"
     id="path123"
     inkscape:connector-curvature="0" />
  <path
     style="fill:#000000;fill-opacity:1;fill-rule:nonzero;stroke:#000000;stroke-width:1.14337265px;stroke-linecap:butt;stroke-linejoin:bevel;stroke-miterlimit:10;stroke-dasharray:none;stroke-opacity:1"
     d="m 478.50148,141.06361 v 2.28674 h -1.14337 v -2.28674 z m 0,3.43012 v 2.28674 h -1.14337 v -2.28674 z m 0,3.43012 v 1.78651 l -0.57169,-0.57168 h 0.50023 v 1.14337 h -1.07191 v -2.3582 z m 1.07191,1.21483 h 2.28675 v 1.14337 h -2.28675 z m 3.43012,0 h 2.28674 v 1.14337 h -2.28674 z m 3.43012,0 h 2.28674 v 1.14337 h -2.28674 z m 3.43011,0 h 2.28675 v 1.14337 h -2.28675 z m 3.43012,0 h 1.92944 l -0.57168,0.57168 v -0.3573 h 1.14337 v 0.92899 h -2.50113 z m 1.35776,-0.92899 v -2.28675 h 1.14337 v 2.28675 z m 0,-3.43012 v -2.28675 h 1.14337 v 2.28675 z m 0,-3.43012 v -0.28584 l 0.57168,0.57169 h -2.0009 v -1.14338 h 2.57259 v 0.85753 z m -2.57259,0.28585 h -2.28675 v -1.14338 h 2.28675 z m -3.43012,0 h -2.28674 v -1.14338 h 2.28674 z m -3.43012,0 h -2.28674 v -1.14338 h 2.28674 z m -3.43012,0 h -2.28674 v -1.14338 h 2.28674 z m -3.43011,0 h -0.42877 v -1.14338 h 0.42877 z"
     id="path125"
     inkscape:connector-curvature="0" />
  <path
     style="fill:#000000;fill-opacity:1;fill-rule:nonzero;stroke:#000000;stroke-width:1.14337265px;stroke-linecap:butt;stroke-linejoin:bevel;stroke-miterlimit:10;stroke-dasharray:none;stroke-opacity:1"
     d="m 478.2871,89.254531 v 2.286746 h -1.14338 v -2.286746 z m 0,3.430118 v 2.286746 h -1.14338 v -2.286746 z m 0,3.430118 v 1.78652 l -0.57169,-0.571686 h 0.50022 v 1.143373 h -1.07191 v -2.358207 z m 1.07191,1.214834 h 2.28674 v 1.143373 h -2.28674 z m 3.43012,0 h 2.28674 v 1.143373 h -2.28674 z m 3.43011,0 h 2.28675 v 1.143373 h -2.28675 z m 3.43012,0 h 2.28675 v 1.143373 h -2.28675 z m 3.43012,0 h 1.92944 l -0.57168,0.571686 v -0.357304 h 1.14337 v 0.928991 h -2.50113 z m 1.35776,-0.92899 v -2.286746 h 1.14337 v 2.286746 z m 0,-3.430118 v -2.286746 h 1.14337 v 2.286746 z m 0,-3.430119 v -0.285843 l 0.57168,0.571687 h -2.0009 v -1.143373 h 2.57259 v 0.857529 z m -2.57259,0.285844 h -2.28675 v -1.143373 h 2.28675 z m -3.43012,0 h -2.28675 v -1.143373 h 2.28675 z m -3.43012,0 h -2.28675 v -1.143373 h 2.28675 z m -3.43012,0 h -2.28674 v -1.143373 h 2.28674 z m -3.43012,0 h -0.42876 v -1.143373 h 0.42876 z"
     id="path127"
     inkscape:connector-curvature="0" />
  <path
     style="fill:none;stroke:#000000;stroke-width:1.85798061px;stroke-linecap:round;stroke-linejoin:round;stroke-miterlimit:10;stroke-dasharray:none;stroke-opacity:1"
     d="m 183.65424,172.86366 c -7.07462,9.43283 -19.50879,13.22025 -30.65668,9.21844"
     id="path129"
     inkscape:connector-curvature="0" />
  <path
     style="fill:#000000;fill-opacity:1;fill-rule:evenodd;stroke:none"
     d="m 150.78228,187.51312 -10.36182,-14.64946 17.07913,5.50248 z"
     id="path131"
     inkscape:connector-curvature="0" />
</svg>
