<?xml version="1.0" encoding="UTF-8" standalone="no"?>
<svg
   xmlns:dc="http://purl.org/dc/elements/1.1/"
   xmlns:cc="http://creativecommons.org/ns#"
   xmlns:rdf="http://www.w3.org/1999/02/22-rdf-syntax-ns#"
   xmlns:svg="http://www.w3.org/2000/svg"
   xmlns="http://www.w3.org/2000/svg"
   xmlns:sodipodi="http://sodipodi.sourceforge.net/DTD/sodipodi-0.dtd"
   xmlns:inkscape="http://www.inkscape.org/namespaces/inkscape"
   version="1.0"
   width="648.22089"
   height="248.46919"
   id="svg145"
   sodipodi:docname="image7.svg"
   inkscape:version="0.92.4 (5da689c313, 2019-01-14)">
  <metadata
     id="metadata149">
    <rdf:RDF>
      <cc:Work
         rdf:about="">
        <dc:format>image/svg+xml</dc:format>
        <dc:type
           rdf:resource="http://purl.org/dc/dcmitype/StillImage" />
        <dc:title></dc:title>
      </cc:Work>
    </rdf:RDF>
  </metadata>
  <sodipodi:namedview
     pagecolor="#ffffff"
     bordercolor="#666666"
     borderopacity="1"
     objecttolerance="10"
     gridtolerance="10"
     guidetolerance="10"
     inkscape:pageopacity="0"
     inkscape:pageshadow="2"
     inkscape:window-width="640"
     inkscape:window-height="480"
     id="namedview147"
     showgrid="false"
     units="px"
     fit-margin-top="0"
     fit-margin-left="0"
     fit-margin-right="0"
     fit-margin-bottom="0"
     inkscape:zoom="0.48400323"
     inkscape:cx="327.33423"
     inkscape:cy="123.77807"
     inkscape:window-x="0"
     inkscape:window-y="0"
     inkscape:window-maximized="0"
     inkscape:current-layer="svg145" />
  <defs
     id="defs3">
    <pattern
       id="EMFhbasepattern"
       patternUnits="userSpaceOnUse"
       width="6"
       height="6"
       x="0"
       y="0" />
  </defs>
  <path
     style="fill:#ffffff;fill-opacity:1;fill-rule:evenodd;stroke:none"
     d="M 0,0 V 248.46919 H 648.22086 V 0 Z"
     id="path5"
     inkscape:connector-curvature="0" />
  <path
     style="fill:#d9d9d9;fill-opacity:1;fill-rule:evenodd;stroke:none"
     d="m 545.88901,129.12966 c 0,-32.800514 -26.65488,-59.455385 -59.45538,-59.455385 -32.80051,0 -59.38392,26.654871 -59.38392,59.455385 0,32.8005 26.58341,59.38392 59.38392,59.38392 32.8005,0 59.45538,-26.58342 59.45538,-59.38392 z"
     id="path7"
     inkscape:connector-curvature="0" />
  <path
     style="fill:none;stroke:#000000;stroke-width:1.07191193px;stroke-linecap:butt;stroke-linejoin:miter;stroke-miterlimit:2;stroke-dasharray:none;stroke-opacity:1"
     d="m 545.88901,129.12966 c 0,-32.800514 -26.65488,-59.455385 -59.45538,-59.455385 -32.80051,0 -59.38392,26.654871 -59.38392,59.455385 0,32.8005 26.58341,59.38392 59.38392,59.38392 32.8005,0 59.45538,-26.58342 59.45538,-59.38392"
     id="path9"
     inkscape:connector-curvature="0" />
  <path
     style="fill:#d9d9d9;fill-opacity:1;fill-rule:evenodd;stroke:none"
     d="m 490.79273,129.12966 c 0,-2.42967 -1.92944,-4.35911 -4.3591,-4.35911 -2.35821,0 -4.28765,1.92944 -4.28765,4.35911 0,2.35821 1.92944,4.28765 4.28765,4.28765 2.42966,0 4.3591,-1.92944 4.3591,-4.28765 z"
     id="path11"
     inkscape:connector-curvature="0" />
  <path
     style="fill:none;stroke:#000000;stroke-width:1.07191193px;stroke-linecap:butt;stroke-linejoin:miter;stroke-miterlimit:2;stroke-dasharray:none;stroke-opacity:1"
     d="m 490.79273,129.12966 c 0,-2.42967 -1.92944,-4.35911 -4.3591,-4.35911 -2.35821,0 -4.28765,1.92944 -4.28765,4.35911 0,2.35821 1.92944,4.28765 4.28765,4.28765 2.42966,0 4.3591,-1.92944 4.3591,-4.28765"
     id="path13"
     inkscape:connector-curvature="0" />
  <path
     style="fill:#ffffff;fill-opacity:1;fill-rule:evenodd;stroke:none"
     d="m 452.98997,107.47704 v 43.23378 h 64.81494 v -43.23378 z"
     id="path15"
     inkscape:connector-curvature="0" />
  <path
     style="fill:none;stroke:#000000;stroke-width:1.07191193px;stroke-linecap:butt;stroke-linejoin:miter;stroke-miterlimit:2;stroke-dasharray:none;stroke-opacity:1"
     d="m 452.98997,150.71082 h 64.81494 v -43.23378 h -64.81494 z"
     id="path17"
     inkscape:connector-curvature="0" />
  <path
     style="fill:none;stroke:#000000;stroke-width:1.07191193px;stroke-linecap:butt;stroke-linejoin:miter;stroke-miterlimit:2;stroke-dasharray:none;stroke-opacity:1"
     d="m 517.80491,139.92024 h 10.79058 v -21.58116 h -10.79058 z"
     id="path19"
     inkscape:connector-curvature="0" />
  <path
     style="fill:#000000;fill-opacity:1;fill-rule:nonzero;stroke:#000000;stroke-width:1.14337265px;stroke-linecap:butt;stroke-linejoin:bevel;stroke-miterlimit:10;stroke-dasharray:none;stroke-opacity:1"
     d="m 394.60651,128.55797 h 9.14698 v 1.14338 h -9.14698 z m 13.72047,0 h 9.14698 v 1.14338 h -9.14698 z m 13.72047,0 h 9.14698 v 1.14338 h -9.14698 z m 13.72047,0 h 9.14698 v 1.14338 h -9.14698 z m 13.72048,0 h 9.14698 v 1.14338 h -9.14698 z m 13.72047,0 h 9.14698 v 1.14338 h -9.14698 z m 13.72047,0 h 9.14698 v 1.14338 h -9.14698 z m 13.72047,0 h 9.14698 v 1.14338 h -9.14698 z m 13.72048,0 h 9.14698 v 1.14338 h -9.14698 z m 13.72047,0 h 9.14698 v 1.14338 h -9.14698 z m 13.72047,0 h 9.14698 v 1.14338 h -9.14698 z m 13.72047,0 h 9.14698 v 1.14338 h -9.14698 z m 13.72048,0 h 9.14698 v 1.14338 h -9.14698 z m 13.72047,0 h 5.2881 v 1.14338 h -5.2881 z"
     id="path21"
     inkscape:connector-curvature="0" />
  <text
     xml:space="preserve"
     style="font-style:normal;font-variant:normal;font-weight:400;font-size:18.3125px;line-height:125%;font-family:Arial;text-align:start;letter-spacing:0px;word-spacing:0px;text-anchor:start;fill:#000000;fill-opacity:1;stroke:none"
     x="582.97717"
     y="134.3463"
     id="text27"><tspan
       sodipodi:role="line"
       x="582.97717"
       y="134.3463"
       id="tspan25"><tspan
         dx="0"
         dy="0"
         style="font-style:normal;font-variant:normal;font-weight:400;font-size:18.3125px;font-family:Arial;fill:#000000"
         id="tspan23">0</tspan></tspan></text>
  <path
     style="fill:#ffffff;fill-opacity:1;fill-rule:evenodd;stroke:none"
     d="m 597.62662,119.41099 c 0,-1.21483 -0.92899,-2.14382 -2.14382,-2.14382 -1.21484,0 -2.14383,0.92899 -2.14383,2.14382 0,1.14337 0.92899,2.14382 2.14383,2.14382 1.21483,0 2.14382,-1.00045 2.14382,-2.14382 z"
     id="path29"
     inkscape:connector-curvature="0" />
  <path
     style="fill:none;stroke:#000000;stroke-width:1.07191193px;stroke-linecap:butt;stroke-linejoin:miter;stroke-miterlimit:2;stroke-dasharray:none;stroke-opacity:1"
     d="m 597.62662,119.41099 c 0,-1.21483 -0.92899,-2.14382 -2.14382,-2.14382 -1.21484,0 -2.14383,0.92899 -2.14383,2.14382 0,1.14337 0.92899,2.14382 2.14383,2.14382 1.21483,0 2.14382,-1.00045 2.14382,-2.14382"
     id="path31"
     inkscape:connector-curvature="0" />
  <text
     xml:space="preserve"
     style="font-style:normal;font-variant:normal;font-weight:400;font-size:18.3125px;line-height:125%;font-family:Arial;text-align:start;letter-spacing:0px;word-spacing:0px;text-anchor:start;fill:#000000;fill-opacity:1;stroke:none"
     x="467.49652"
     y="233.81972"
     id="text39"><tspan
       sodipodi:role="line"
       x="467.49652"
       y="233.81972"
       id="tspan37"><tspan
         dx="0"
         dy="0"
         style="font-style:normal;font-variant:normal;font-weight:400;font-size:18.3125px;font-family:Arial;fill:#000000"
         id="tspan33">+</tspan><tspan
         dx="0"
         dy="0"
         style="font-style:normal;font-variant:normal;font-weight:400;font-size:18.3125px;font-family:Arial;fill:#000000"
         id="tspan35">90</tspan></tspan></text>
  <path
     style="fill:#ffffff;fill-opacity:1;fill-rule:evenodd;stroke:none"
     d="m 503.72714,218.81296 c 0,-1.21484 -0.92899,-2.21529 -2.14383,-2.21529 -1.21483,0 -2.14382,1.00045 -2.14382,2.21529 0,1.14337 0.92899,2.14382 2.14382,2.14382 1.21484,0 2.14383,-1.00045 2.14383,-2.14382 z"
     id="path41"
     inkscape:connector-curvature="0" />
  <path
     style="fill:none;stroke:#000000;stroke-width:1.07191193px;stroke-linecap:butt;stroke-linejoin:miter;stroke-miterlimit:2;stroke-dasharray:none;stroke-opacity:1"
     d="m 503.72714,218.81296 c 0,-1.21484 -0.92899,-2.21529 -2.14383,-2.21529 -1.21483,0 -2.14382,1.00045 -2.14382,2.21529 0,1.14337 0.92899,2.14382 2.14382,2.14382 1.21484,0 2.14383,-1.00045 2.14383,-2.14382"
     id="path43"
     inkscape:connector-curvature="0" />
  <text
     xml:space="preserve"
     style="font-style:normal;font-variant:normal;font-weight:400;font-size:18.3125px;line-height:125%;font-family:Arial;text-align:start;letter-spacing:0px;word-spacing:0px;text-anchor:start;fill:#000000;fill-opacity:1;stroke:none"
     x="333.72189"
     y="134.3463"
     id="text53"><tspan
       sodipodi:role="line"
       x="333.72189"
       y="134.3463"
       id="tspan51"><tspan
         dx="0"
         dy="0"
         style="font-style:normal;font-variant:normal;font-weight:400;font-size:18.3125px;font-family:Arial;fill:#000000"
         id="tspan45">+/</tspan><tspan
         dx="0"
         dy="0"
         style="font-style:normal;font-variant:normal;font-weight:400;font-size:18.3125px;font-family:Arial;fill:#000000"
         id="tspan47">-</tspan><tspan
         dx="0"
         dy="0"
         style="font-style:normal;font-variant:normal;font-weight:400;font-size:18.3125px;font-family:Arial;fill:#000000"
         id="tspan49">180</tspan></tspan></text>
  <path
     style="fill:#ffffff;fill-opacity:1;fill-rule:evenodd;stroke:none"
     d="m 391.39077,119.41099 c 0,-1.21483 -1.00045,-2.14382 -2.14382,-2.14382 -1.21484,0 -2.21529,0.92899 -2.21529,2.14382 0,1.14337 1.00045,2.14382 2.21529,2.14382 1.14337,0 2.14382,-1.00045 2.14382,-2.14382 z"
     id="path55"
     inkscape:connector-curvature="0" />
  <path
     style="fill:none;stroke:#000000;stroke-width:1.07191193px;stroke-linecap:butt;stroke-linejoin:miter;stroke-miterlimit:2;stroke-dasharray:none;stroke-opacity:1"
     d="m 391.39077,119.41099 c 0,-1.21483 -1.00045,-2.14382 -2.14382,-2.14382 -1.21484,0 -2.21529,0.92899 -2.21529,2.14382 0,1.14337 1.00045,2.14382 2.21529,2.14382 1.14337,0 2.14382,-1.00045 2.14382,-2.14382"
     id="path57"
     inkscape:connector-curvature="0" />
  <text
     xml:space="preserve"
     style="font-style:normal;font-variant:normal;font-weight:400;font-size:18.3125px;line-height:125%;font-family:Arial;text-align:start;letter-spacing:0px;word-spacing:0px;text-anchor:start;fill:#000000;fill-opacity:1;stroke:none"
     x="472.07001"
     y="39.446358"
     id="text65"><tspan
       sodipodi:role="line"
       x="472.07001"
       y="39.446358"
       id="tspan63"><tspan
         dx="0"
         dy="0"
         style="font-style:normal;font-variant:normal;font-weight:400;font-size:18.3125px;font-family:Arial;fill:#000000"
         id="tspan59">-</tspan><tspan
         dx="0"
         dy="0"
         style="font-style:normal;font-variant:normal;font-weight:400;font-size:18.3125px;font-family:Arial;fill:#000000"
         id="tspan61">90</tspan></tspan></text>
  <path
     style="fill:#ffffff;fill-opacity:1;fill-rule:evenodd;stroke:none"
     d="m 503.72714,24.29667 c 0,-1.143372 -0.92899,-2.143823 -2.14383,-2.143823 -1.21483,0 -2.14382,1.000451 -2.14382,2.143823 0,1.214834 0.92899,2.215285 2.14382,2.215285 1.21484,0 2.14383,-1.000451 2.14383,-2.215285 z"
     id="path67"
     inkscape:connector-curvature="0" />
  <path
     style="fill:none;stroke:#000000;stroke-width:1.07191193px;stroke-linecap:butt;stroke-linejoin:miter;stroke-miterlimit:2;stroke-dasharray:none;stroke-opacity:1"
     d="m 503.72714,24.29667 c 0,-1.143372 -0.92899,-2.143823 -2.14383,-2.143823 -1.21483,0 -2.14382,1.000451 -2.14382,2.143823 0,1.214834 0.92899,2.215285 2.14382,2.215285 1.21484,0 2.14383,-1.000451 2.14383,-2.215285"
     id="path69"
     inkscape:connector-curvature="0" />
  <path
     style="fill:#ffffff;fill-opacity:1;fill-rule:evenodd;stroke:none"
     d="m 128.84381,108.62041 v 43.16232 h 64.81494 v -43.16232 z"
     id="path71"
     inkscape:connector-curvature="0" />
  <path
     style="fill:none;stroke:#000000;stroke-width:1.07191193px;stroke-linecap:butt;stroke-linejoin:miter;stroke-miterlimit:2;stroke-dasharray:none;stroke-opacity:1"
     d="m 128.84381,108.62041 h 64.81494 v 43.16232 h -64.81494 z"
     id="path73"
     inkscape:connector-curvature="0" />
  <path
     style="fill:#bfbfbf;fill-opacity:1;fill-rule:evenodd;stroke:none"
     d="m 193.65875,119.41099 v 21.58116 h 10.79058 v -21.58116 z"
     id="path75"
     inkscape:connector-curvature="0" />
  <path
     style="fill:none;stroke:#000000;stroke-width:1.07191193px;stroke-linecap:butt;stroke-linejoin:miter;stroke-miterlimit:2;stroke-dasharray:none;stroke-opacity:1"
     d="m 193.65875,119.41099 h 10.79058 v 21.58116 h -10.79058 z"
     id="path77"
     inkscape:connector-curvature="0" />
  <path
     style="fill:#d9d9d9;fill-opacity:1;fill-rule:evenodd;stroke:none"
     d="m 102.90354,173.43535 v 21.58116 h 118.83931 v -21.58116 z"
     id="path79"
     inkscape:connector-curvature="0" />
  <path
     style="fill:none;stroke:#000000;stroke-width:1.07191193px;stroke-linecap:butt;stroke-linejoin:miter;stroke-miterlimit:2;stroke-dasharray:none;stroke-opacity:1"
     d="m 102.90354,173.43535 h 118.83931 v 21.58116 H 102.90354 Z"
     id="path81"
     inkscape:connector-curvature="0" />
  <path
     style="fill:#ffffff;fill-opacity:1;fill-rule:evenodd;stroke:none"
     d="m 151.56835,119.41099 v 54.02436 h 21.58116 v -54.02436 z"
     id="path83"
     inkscape:connector-curvature="0" />
  <path
     style="fill:none;stroke:#000000;stroke-width:1.07191193px;stroke-linecap:butt;stroke-linejoin:miter;stroke-miterlimit:2;stroke-dasharray:none;stroke-opacity:1"
     d="m 151.56835,119.41099 h 21.58116 v 54.02436 h -21.58116 z"
     id="path85"
     inkscape:connector-curvature="0" />
  <path
     style="fill:#ffffff;fill-opacity:1;fill-rule:evenodd;stroke:none"
     d="m 168.86186,130.20157 c 0,3.57304 -2.92989,6.50293 -6.50293,6.50293 -3.57304,0 -6.50294,-2.92989 -6.50294,-6.50293 0,-3.57304 2.9299,-6.50293 6.50294,-6.50293 3.57304,0 6.50293,2.92989 6.50293,6.50293 z"
     id="path87"
     inkscape:connector-curvature="0" />
  <path
     style="fill:none;stroke:#000000;stroke-width:1.07191193px;stroke-linecap:butt;stroke-linejoin:miter;stroke-miterlimit:2;stroke-dasharray:none;stroke-opacity:1"
     d="m 168.86186,130.20157 c 0,3.57304 -2.92989,6.50293 -6.50293,6.50293 -3.57304,0 -6.50294,-2.92989 -6.50294,-6.50293 0,-3.57304 2.9299,-6.50293 6.50294,-6.50293 3.57304,0 6.50293,2.92989 6.50293,6.50293"
     id="path89"
     inkscape:connector-curvature="0" />
  <path
     style="fill:#000000;fill-opacity:1;fill-rule:nonzero;stroke:#000000;stroke-width:1.14337265px;stroke-linecap:butt;stroke-linejoin:bevel;stroke-miterlimit:10;stroke-dasharray:none;stroke-opacity:1"
     d="m 68.387979,129.62988 h 9.146982 v 1.14338 h -9.146982 z m 13.720473,0 h 9.146981 v 1.14338 h -9.146981 z m 13.720472,0 h 9.146986 v 1.14338 h -9.146986 z m 13.720476,0 h 9.14698 v 1.14338 h -9.14698 z m 13.72047,0 h 9.14698 v 1.14338 h -9.14698 z m 13.72047,0 h 9.14699 v 1.14338 h -9.14699 z m 13.72048,0 h 9.14698 v 1.14338 h -9.14698 z m 13.72047,0 h 9.14698 v 1.14338 h -9.14698 z m 13.72047,0 h 9.14698 v 1.14338 h -9.14698 z m 13.72047,0 h 9.14699 v 1.14338 h -9.14699 z m 13.72048,0 h 9.14698 v 1.14338 h -9.14698 z m 13.72047,0 h 9.14698 v 1.14338 h -9.14698 z m 13.72047,0 h 9.14698 v 1.14338 h -9.14698 z m 13.72047,0 h 9.14698 v 1.14338 h -9.14698 z m 13.72048,0 h 0.21438 v 1.14338 h -0.21438 z"
     id="path91"
     inkscape:connector-curvature="0" />
  <path
     style="fill:#000000;fill-opacity:1;fill-rule:nonzero;stroke:#000000;stroke-width:1.14337265px;stroke-linecap:butt;stroke-linejoin:bevel;stroke-miterlimit:10;stroke-dasharray:none;stroke-opacity:1"
     d="m 161.78724,130.20157 v -9.14698 h 1.14337 v 9.14698 z m 0,-13.72047 v -9.14698 h 1.14337 v 9.14698 z m 0,-13.72047 v -9.146989 h 1.14337 v 9.146989 z m 0,-13.720481 v -9.146981 h 1.14337 v 9.146981 z m 0,-13.720473 v -9.14698 h 1.14337 v 9.14698 z m 0,-13.720472 v -9.146982 h 1.14337 v 9.146982 z m 0,-13.720473 v -4.073264 h 1.14337 v 4.073264 z"
     id="path93"
     inkscape:connector-curvature="0" />
  <text
     xml:space="preserve"
     style="font-style:normal;font-variant:normal;font-weight:400;font-size:18.3125px;line-height:125%;font-family:Arial;text-align:start;letter-spacing:0px;word-spacing:0px;text-anchor:start;fill:#000000;fill-opacity:1;stroke:none"
     x="270.8364"
     y="135.48967"
     id="text99"><tspan
       sodipodi:role="line"
       x="270.8364"
       y="135.48967"
       id="tspan97"><tspan
         dx="0"
         dy="0"
         style="font-style:normal;font-variant:normal;font-weight:400;font-size:18.3125px;font-family:Arial;fill:#000000"
         id="tspan95">0</tspan></tspan></text>
  <path
     style="fill:#ffffff;fill-opacity:1;fill-rule:evenodd;stroke:none"
     d="m 286.55779,120.4829 c 0,-1.21483 -0.92899,-2.14382 -2.14383,-2.14382 -1.21483,0 -2.14382,0.92899 -2.14382,2.14382 0,1.21484 0.92899,2.14383 2.14382,2.14383 1.21484,0 2.14383,-0.92899 2.14383,-2.14383 z"
     id="path101"
     inkscape:connector-curvature="0" />
  <path
     style="fill:none;stroke:#000000;stroke-width:1.07191193px;stroke-linecap:butt;stroke-linejoin:miter;stroke-miterlimit:2;stroke-dasharray:none;stroke-opacity:1"
     d="m 286.55779,120.4829 c 0,-1.21483 -0.92899,-2.14382 -2.14383,-2.14382 -1.21483,0 -2.14382,0.92899 -2.14382,2.14382 0,1.21484 0.92899,2.14383 2.14382,2.14383 1.21484,0 2.14383,-0.92899 2.14383,-2.14383"
     id="path103"
     inkscape:connector-curvature="0" />
  <path
     style="fill:#ffffff;fill-opacity:1;fill-rule:evenodd;stroke:none"
     d="m 68.387979,120.4829 c 0,-1.21483 -1.000451,-2.14382 -2.215284,-2.14382 -1.143373,0 -2.143824,0.92899 -2.143824,2.14382 0,1.21484 1.000451,2.14383 2.143824,2.14383 1.214833,0 2.215284,-0.92899 2.215284,-2.14383 z"
     id="path105"
     inkscape:connector-curvature="0" />
  <path
     style="fill:none;stroke:#000000;stroke-width:1.07191193px;stroke-linecap:butt;stroke-linejoin:miter;stroke-miterlimit:2;stroke-dasharray:none;stroke-opacity:1"
     d="m 68.387979,120.4829 c 0,-1.21483 -1.000451,-2.14382 -2.215284,-2.14382 -1.143373,0 -2.143824,0.92899 -2.143824,2.14382 0,1.21484 1.000451,2.14383 2.143824,2.14383 1.214833,0 2.215284,-0.92899 2.215284,-2.14383"
     id="path107"
     inkscape:connector-curvature="0" />
  <text
     xml:space="preserve"
     style="font-style:normal;font-variant:normal;font-weight:400;font-size:18.3125px;line-height:125%;font-family:Arial;text-align:start;letter-spacing:0px;word-spacing:0px;text-anchor:start;fill:#000000;fill-opacity:1;stroke:none"
     x="21.58116"
     y="135.48967"
     id="text115"><tspan
       sodipodi:role="line"
       x="21.58116"
       y="135.48967"
       id="tspan113"><tspan
         dx="0"
         dy="0"
         style="font-style:normal;font-variant:normal;font-weight:400;font-size:18.3125px;font-family:Arial;fill:#000000"
         id="tspan109">+</tspan><tspan
         dx="0"
         dy="0"
         style="font-style:normal;font-variant:normal;font-weight:400;font-size:18.3125px;font-family:Arial;fill:#000000"
         id="tspan111">180</tspan></tspan></text>
  <text
     xml:space="preserve"
     style="font-style:normal;font-variant:normal;font-weight:400;font-size:18.3125px;line-height:125%;font-family:Arial;text-align:start;letter-spacing:0px;word-spacing:0px;text-anchor:start;fill:#000000;fill-opacity:1;stroke:none"
     x="139.34854"
     y="13.148784"
     id="text121"><tspan
       sodipodi:role="line"
       x="139.34854"
       y="13.148784"
       id="tspan119"><tspan
         dx="0"
         dy="0"
         style="font-style:normal;font-variant:normal;font-weight:400;font-size:18.3125px;font-family:Arial;fill:#000000"
         id="tspan117">zenith</tspan></tspan></text>
  <path
     style="fill:#ffffff;fill-opacity:1;fill-rule:evenodd;stroke:none"
     d="m 180.72435,25.440043 c 0,-1.214833 -1.00045,-2.215284 -2.14382,-2.215284 -1.21484,0 -2.21529,1.000451 -2.21529,2.215284 0,1.143373 1.00045,2.143824 2.21529,2.143824 1.14337,0 2.14382,-1.000451 2.14382,-2.143824 z"
     id="path123"
     inkscape:connector-curvature="0" />
  <path
     style="fill:none;stroke:#000000;stroke-width:1.07191193px;stroke-linecap:butt;stroke-linejoin:miter;stroke-miterlimit:2;stroke-dasharray:none;stroke-opacity:1"
     d="m 180.72435,25.440043 c 0,-1.214833 -1.00045,-2.215284 -2.14382,-2.215284 -1.21484,0 -2.21529,1.000451 -2.21529,2.215284 0,1.143373 1.00045,2.143824 2.21529,2.143824 1.14337,0 2.14382,-1.000451 2.14382,-2.143824"
     id="path125"
     inkscape:connector-curvature="0" />
  <text
     xml:space="preserve"
     style="font-style:normal;font-variant:normal;font-weight:400;font-size:18.3125px;line-height:125%;font-family:Arial;text-align:start;letter-spacing:0px;word-spacing:0px;text-anchor:start;fill:#000000;fill-opacity:1;stroke:none"
     x="143.92204"
     y="40.589729"
     id="text133"><tspan
       sodipodi:role="line"
       x="143.92204"
       y="40.589729"
       id="tspan131"><tspan
         dx="0"
         dy="0"
         style="font-style:normal;font-variant:normal;font-weight:400;font-size:18.3125px;font-family:Arial;fill:#000000"
         id="tspan127">+</tspan><tspan
         dx="0"
         dy="0"
         style="font-style:normal;font-variant:normal;font-weight:400;font-size:18.3125px;font-family:Arial;fill:#000000"
         id="tspan129">90</tspan></tspan></text>
  <path
     style="fill:#ffffff;fill-opacity:1;fill-rule:evenodd;stroke:none"
     d="m 478.00125,150.71082 v 8.64676 h 17.29351 v -8.64676 z"
     id="path135"
     inkscape:connector-curvature="0" />
  <path
     style="fill:none;stroke:#000000;stroke-width:1.07191193px;stroke-linecap:butt;stroke-linejoin:miter;stroke-miterlimit:2;stroke-dasharray:none;stroke-opacity:1"
     d="m 478.00125,159.35758 h 17.29351 v -8.64676 h -17.29351 z"
     id="path137"
     inkscape:connector-curvature="0" />
  <path
     style="fill:#ffffff;fill-opacity:1;fill-rule:evenodd;stroke:none"
     d="m 478.00125,98.901736 v 8.575304 h 17.29351 v -8.575304 z"
     id="path139"
     inkscape:connector-curvature="0" />
  <path
     style="fill:none;stroke:#000000;stroke-width:1.07191193px;stroke-linecap:butt;stroke-linejoin:miter;stroke-miterlimit:2;stroke-dasharray:none;stroke-opacity:1"
     d="m 478.00125,107.47704 h 17.29351 v -8.575304 h -17.29351 z"
     id="path141"
     inkscape:connector-curvature="0" />
  <path
     style="fill:#000000;fill-opacity:1;fill-rule:nonzero;stroke:#000000;stroke-width:1.14337265px;stroke-linecap:butt;stroke-linejoin:bevel;stroke-miterlimit:10;stroke-dasharray:none;stroke-opacity:1"
     d="m 487.36262,42.662094 v 9.146982 h -1.14338 v -9.146982 z m 0,13.720473 v 9.146982 h -1.14338 v -9.146982 z m 0,13.720472 v 9.146982 h -1.14338 v -9.146982 z m 0,13.720473 v 9.146981 h -1.14338 v -9.146981 z m 0,13.720474 v 9.146984 h -1.14338 v -9.146984 z m 0,13.720474 v 9.14698 h -1.14338 v -9.14698 z m 0,13.72047 v 9.14698 h -1.14338 v -9.14698 z m 0,13.72048 v 9.14698 h -1.14338 v -9.14698 z m 0,13.72047 v 9.14698 h -1.14338 v -9.14698 z m 0,13.72047 v 9.14698 h -1.14338 v -9.14698 z m 0,13.72047 v 9.14698 h -1.14338 v -9.14698 z m 0,13.72048 v 9.14698 h -1.14338 v -9.14698 z m 0,13.72047 v 8.21799 h -1.14338 v -8.21799 z"
     id="path143"
     inkscape:connector-curvature="0" />
</svg>
