<svg xmlns:inkscape="http://www.inkscape.org/namespaces/inkscape" xmlns:sodipodi="http://sodipodi.sourceforge.net/DTD/sodipodi-0.dtd" xmlns="http://www.w3.org/2000/svg" xmlns:svg="http://www.w3.org/2000/svg" xmlns:rdf="http://www.w3.org/1999/02/22-rdf-syntax-ns#" xmlns:cc="http://creativecommons.org/ns#" xmlns:dc="http://purl.org/dc/elements/1.1/" inkscape:version="1.0 (4035a4fb49, 2020-05-01)" id="svg8" version="1.1" viewBox="0 0 74.885915 52.497039" height="198.414" width="283.03339">
  <defs id="defs2">
    <clipPath id="clipEmfPath1">
      <path d="M -7.9951545,-5.2768019 H 283.98789 V 200.67838 H -7.9951545 Z" id="path10" />
    </clipPath>
    <pattern id="EMFhbasepattern" patternUnits="userSpaceOnUse" width="6" height="6" x="0" y="0" />
  </defs>
  <!-- sodipodi ignored -->
  <!-- metadata ignored -->
    <!-- rdf ignored -->
      <!-- cc ignored -->
        <!-- dc ignored -->image/svg+xml
        <!-- dc ignored -->
        <!-- dc ignored -->
      
    
  
  <g transform="translate(-50.247516,-146.10862)" id="layer1">
    <path style="fill: #000000; fill-opacity: 1; fill-rule: evenodd; stroke: none; stroke-width: 0.264583" d="m 92.708734,171.46119 -0.404567,0.75625 2.36923,0.13221 -0.446876,-0.66635 h -1.115864 z" id="path16" />
    <path style="fill: #000000; fill-opacity: 1; fill-rule: evenodd; stroke: none; stroke-width: 0.264583" d="m 92.896474,171.16504 -0.16923,0.32259 0.38077,0.22741 0.08461,-0.045 0.04231,-0.0925 0.08461,-0.0899 -0.04231,-0.0925 z" id="path18" />
    <path style="fill: #000000; fill-opacity: 1; fill-rule: evenodd; stroke: none; stroke-width: 0.264583" d="m 93.335418,170.36119 -0.438944,0.81442 0.393991,0.22476 0.04495,0.0899 -0.08726,0.0899 -0.04495,0.0899 -0.08726,0.045 h 1.092068 z" id="path20" />
    <path style="fill: #000000; fill-opacity: 1; fill-rule: evenodd; stroke: none; stroke-width: 0.264583" d="m 83.04936,165.74965 -0.132213,0.045 -0.04495,0.0873 -0.04495,0.0899 0.04495,0.0873 0.0899,0.0423 9.759855,5.35986 0.174519,-0.30673 z" id="path22" />
    <path style="fill: none; stroke: #000000; stroke-width: 0.253846px; stroke-linecap: round; stroke-linejoin: round; stroke-miterlimit: 4; stroke-dasharray: none; stroke-opacity: 1" d="m 58.119551,149.84196 h 48.061539 v 33.84615 H 58.119551 Z" id="path24" />
    <path style="fill: #ffffff; fill-opacity: 1; fill-rule: evenodd; stroke: none; stroke-width: 0.264583" d="m 82.406811,163.8458 -1.023318,0.35433 -0.666346,0.97043 -0.0899,0.43895 0.04495,0.48653 0.401923,1.18991 1.155528,0.74832 0.39928,-0.0423 0.978366,-0.52885 0.489183,-1.05769 0.04231,-0.39928 -0.04231,-0.4839 -0.489183,-1.10264 -0.888463,-0.5738 z" id="path26" />
    <path style="fill: none; stroke: #000000; stroke-width: 0.253846px; stroke-linecap: round; stroke-linejoin: round; stroke-miterlimit: 4; stroke-dasharray: none; stroke-opacity: 1" d="m 82.406811,163.8458 -1.023318,0.35433 -0.666346,0.97043 -0.0899,0.43895 0.04495,0.48653 0.401923,1.18991 1.155528,0.74832 0.39928,-0.0423 0.978366,-0.52885 0.489183,-1.05769 0.04231,-0.39928 -0.04231,-0.4839 -0.489183,-1.10264 -0.888463,-0.5738 z" id="path28" />
    <path style="fill: #000000; fill-opacity: 1; fill-rule: evenodd; stroke: none; stroke-width: 0.264583" d="m 96.016666,170.89268 -0.330529,-0.0317 0.05553,-0.0106 -0.647835,0.25649 -0.08991,-0.24591 0.650481,-0.25649 c 0.01587,-0.005 0.03702,-0.0106 0.05817,-0.005 l 0.327885,0.0344 z m -1.422596,0.6399 -0.393991,0.63197 0.01587,-0.037 -0.07668,0.28823 -0.248558,-0.0661 0.07404,-0.28558 c 0.0053,-0.0159 0.01058,-0.0264 0.01587,-0.037 l 0.399278,-0.63462 z m -0.407213,1.57861 0.327885,0.98894 -0.240622,0.0846 -0.330531,-0.98894 z m 0.88582,1.38293 0.523558,0.3464 -0.08462,-0.0212 0.404567,-0.037 -0.05288,0.0159 v 0 l 0.132212,0.2274 h -0.0053 c -0.01586,0.0106 -0.03702,0.0159 -0.05288,0.0159 l -0.404569,0.037 c -0.02644,0 -0.05817,-0.005 -0.07933,-0.0212 l -0.523557,-0.34375 z m 1.467546,-0.0793 0.282935,-0.16394 -0.05288,0.0529 0.314664,-0.63991 0.230047,0.11899 -0.314664,0.63726 c -0.01058,0.0264 -0.03173,0.0423 -0.05024,0.0582 l -0.285578,0.15866 z m 0.769472,-1.44111 0.0053,-0.0793 v 0.0264 l -0.03173,-0.44158 0.01058,0.0423 -0.208893,-0.47861 0.235336,-0.10841 0.211537,0.48125 c 0.0053,0.0106 0.0053,0.0264 0.01058,0.0423 l 0.02909,0.44159 c 0,0.0106 0,0.0212 0,0.0264 l -0.0079,0.0793 z m -0.523558,-1.56009 -0.827643,-0.54207 0.140145,-0.21683 0.825,0.54207 z" id="path30" />
    <path style="fill: none; stroke: #000000; stroke-width: 0.0423077px; stroke-linecap: butt; stroke-linejoin: bevel; stroke-miterlimit: 4; stroke-dasharray: none; stroke-opacity: 1" d="m 96.016666,170.89268 -0.330529,-0.0317 0.05553,-0.0106 -0.647835,0.25649 -0.08991,-0.24591 0.650481,-0.25649 c 0.01587,-0.005 0.03702,-0.0106 0.05817,-0.005 l 0.327885,0.0344 z m -1.422596,0.6399 -0.393991,0.63197 0.01587,-0.037 -0.07668,0.28823 -0.248558,-0.0661 0.07404,-0.28558 c 0.0053,-0.0159 0.01058,-0.0264 0.01587,-0.037 l 0.399278,-0.63462 z m -0.407213,1.57861 0.327885,0.98894 -0.240622,0.0846 -0.330531,-0.98894 z m 0.88582,1.38293 0.523558,0.3464 -0.08462,-0.0212 0.404567,-0.037 -0.05288,0.0159 v 0 l 0.132212,0.2274 h -0.0053 c -0.01586,0.0106 -0.03702,0.0159 -0.05288,0.0159 l -0.404569,0.037 c -0.02644,0 -0.05817,-0.005 -0.07933,-0.0212 l -0.523557,-0.34375 z m 1.467546,-0.0793 0.282935,-0.16394 -0.05288,0.0529 0.314664,-0.63991 0.230047,0.11899 -0.314664,0.63726 c -0.01058,0.0264 -0.03173,0.0423 -0.05024,0.0582 l -0.285578,0.15866 z m 0.769472,-1.44111 0.0053,-0.0793 v 0.0264 l -0.03173,-0.44158 0.01058,0.0423 -0.208893,-0.47861 0.235336,-0.10841 0.211537,0.48125 c 0.0053,0.0106 0.0053,0.0264 0.01058,0.0423 l 0.02909,0.44159 c 0,0.0106 0,0.0212 0,0.0264 l -0.0079,0.0793 z m -0.523558,-1.56009 -0.827643,-0.54207 0.140145,-0.21683 0.825,0.54207 z" id="path32" />
    <path style="fill: #000000; fill-opacity: 1; fill-rule: evenodd; stroke: none; stroke-width: 0.264583" d="m 124.94455,168.35422 -0.9625,-0.38606 0.0952,-0.24591 0.96779,0.39399 z m -1.68702,-0.68486 -0.9625,-0.38606 0.10048,-0.24326 0.9625,0.39134 z m -1.68702,-0.67692 -0.9625,-0.39135 0.10048,-0.24327 0.9625,0.39135 z m -1.68173,-0.68221 -0.96779,-0.39135 0.10048,-0.23798 0.9625,0.38606 z m -1.68702,-0.68221 -0.96779,-0.39135 0.10048,-0.23798 0.9625,0.38606 z m -1.68702,-0.68222 -0.96514,-0.3887 0.0978,-0.24327 0.9625,0.39135 z m -1.68966,-0.68485 -0.9625,-0.38606 0.0952,-0.24327 0.9625,0.39135 z m -1.68702,-0.67692 -0.9625,-0.39135 0.0952,-0.24327 0.9625,0.39135 z m -1.68702,-0.68222 -0.9625,-0.39134 0.0952,-0.23798 0.9625,0.38605 z m -1.68702,-0.68221 -0.9625,-0.39134 0.0952,-0.24063 0.96779,0.3887 z m -1.68702,-0.68485 -0.9625,-0.38606 0.0952,-0.24327 0.96779,0.39135 z m -1.68702,-0.68221 -0.96514,-0.38606 0.0952,-0.24327 0.97043,0.39134 z m -1.68966,-0.67693 -0.9625,-0.39134 0.10048,-0.24327 0.9625,0.39134 z m -1.68702,-0.68221 -0.9625,-0.39135 0.10048,-0.23798 0.9625,0.38606 z m -1.68173,-0.68221 -0.96779,-0.39399 0.10048,-0.23798 0.9625,0.38606 z m -1.68702,-0.68486 -0.967787,-0.39134 0.10048,-0.23798 0.962502,0.39134 z m -1.687018,-0.68221 -0.962501,-0.38606 0.09519,-0.24327 0.962501,0.39135 z m -1.68702,-0.68221 -0.965144,-0.38606 0.09519,-0.24327 0.965145,0.39135 z m -1.689664,-0.67692 -0.962498,-0.39135 0.09519,-0.24591 0.962498,0.39399 z m -1.687017,-0.68486 -0.962501,-0.39135 0.09519,-0.23798 0.962502,0.38606 z m -1.687021,-0.68221 -0.962498,-0.39135 0.09519,-0.23798 0.967787,0.38606 z m -1.687017,-0.68221 -0.962502,-0.38606 0.09519,-0.24327 0.96779,0.39135 z m -1.687021,-0.68221 -0.962501,-0.38606 0.100481,-0.24327 0.962501,0.39135 z m -1.68702,-0.67693 -0.965145,-0.39399 0.100481,-0.24327 0.965145,0.39135 z m -1.684375,-0.68485 -0.967787,-0.39135 0.100481,-0.23798 0.962498,0.38606 z m -1.687017,-0.68221 -0.967791,-0.39135 0.100481,-0.23798 0.962501,0.38606 z m -1.687021,-0.68222 -0.967787,-0.38605 0.10048,-0.24327 0.962499,0.39134 z m -1.687017,-0.68221 -0.962502,-0.38605 0.09519,-0.24592 0.962501,0.39399 z m -1.258655,-0.1375 -0.386059,0.9625 -0.243268,-0.0952 0.391345,-0.9625 z m -0.682212,1.68702 -0.386057,0.9625 -0.243271,-0.0952 0.391348,-0.9625 z m -0.676924,1.68967 -0.391345,0.9625 -0.24327,-0.0952 0.391347,-0.96778 z m -0.684855,1.68701 -0.391346,0.96515 -0.237981,-0.0952 0.386058,-0.97043 z m -0.682211,1.68967 -0.391347,0.9625 -0.23798,-0.10048 0.386057,-0.9625 z m -0.682212,1.68702 -0.391346,0.96514 -0.237981,-0.10048 0.386058,-0.96514 z m -0.682211,1.68437 -0.386058,0.96779 -0.243269,-0.10048 0.391346,-0.9625 z m -0.682212,1.68702 -0.386058,0.97043 -0.243269,-0.10048 0.391346,-0.96514 z m -0.676923,1.68967 -0.391346,0.9625 -0.24327,-0.0952 0.391347,-0.9625 z m -0.682212,1.68966 -0.391346,0.9625 -0.237981,-0.0952 0.386058,-0.9625 z m -0.682211,1.68702 -0.391346,0.9625 -0.237981,-0.0952 0.386057,-0.9625 z m -0.682212,1.68966 -0.391346,0.9625 -0.237981,-0.0952 0.391346,-0.9625 z m -0.682211,1.68702 -0.386058,0.96515 -0.243269,-0.0978 0.391346,-0.96779 z m -0.682212,1.68966 -0.386057,0.9625 -0.24327,-0.0952 0.391346,-0.96778 z m -0.676923,1.68702 -0.391346,0.96515 -0.243269,-0.10048 0.391346,-0.96515 z m -0.682212,1.68967 -0.391346,0.9625 -0.23798,-0.10048 0.386057,-0.9625 z m -0.682211,1.68173 -0.391346,0.97043 -0.237981,-0.10048 0.386058,-0.96514 z m -0.682212,1.68966 -0.388702,0.96779 -0.243269,-0.10048 0.393991,-0.9625 z m 0.08462,1.16346 0.9625,0.39135 -0.09519,0.24063 -0.962499,-0.38871 z m 1.687019,0.68486 0.9625,0.38606 -0.09519,0.24326 -0.9625,-0.39134 z m 1.687019,0.68221 0.9625,0.38606 -0.09519,0.24327 -0.9625,-0.39135 z m 1.68702,0.67692 0.962499,0.39135 -0.09519,0.24327 -0.9625,-0.39135 z m 1.687019,0.68222 0.9625,0.39134 -0.09519,0.23798 -0.967788,-0.38606 z m 1.687019,0.68221 0.9625,0.39399 -0.09519,0.23798 -0.967789,-0.38606 z m 1.689664,0.68485 0.962499,0.38606 -0.100481,0.24327 -0.962499,-0.39135 z m 1.687018,0.68221 0.962501,0.38606 -0.100481,0.24327 -0.962501,-0.39135 z m 1.681731,0.67693 0.967788,0.39134 -0.100481,0.24327 -0.962499,-0.39134 z m 1.68702,0.68221 0.967788,0.39134 -0.100481,0.24063 -0.962498,-0.3887 z m 1.687018,0.68485 0.962501,0.39135 -0.09519,0.23798 -0.962502,-0.38606 z m 1.687021,0.68222 0.965144,0.38605 -0.09519,0.24327 -0.965144,-0.39134 z m 1.689663,0.68221 0.962499,0.38605 -0.09519,0.24328 -0.962499,-0.39135 z m 1.687018,0.67692 0.962501,0.39135 -0.09519,0.24326 -0.962501,-0.39134 z m 1.68702,0.68221 0.962499,0.39399 -0.09519,0.23798 -0.967788,-0.3887 z m 1.687021,0.68486 0.962498,0.39134 -0.09519,0.23798 -0.967787,-0.38605 z m 1.687017,0.68221 0.962502,0.39135 -0.09519,0.23798 -0.967788,-0.39135 z m 1.687021,0.68221 0.965144,0.38606 -0.100481,0.24327 -0.965144,-0.39135 z m 1.684374,0.68221 0.967788,0.38606 -0.100481,0.24591 -0.962499,-0.39399 z m 1.687018,0.67957 0.96779,0.39134 -0.100481,0.24328 -0.962501,-0.39135 z m 1.687019,0.68221 0.96779,0.39135 -0.10048,0.23798 -0.9625,-0.38606 z m 1.68702,0.68221 0.9625,0.39135 -0.0952,0.23798 -0.9625,-0.38606 z m 1.68702,0.68221 0.9625,0.38606 -0.0952,0.24327 -0.9625,-0.39134 z m 1.68702,0.68222 0.96514,0.3887 -0.0952,0.24327 -0.96514,-0.39399 z m 1.68966,0.67956 0.9625,0.39135 -0.0952,0.24327 -0.9625,-0.39135 z m 1.68702,0.68221 0.9625,0.39135 -0.0952,0.23798 -0.96779,-0.38606 z m 1.68702,0.68222 0.9625,0.39134 -0.0952,0.23798 -0.96779,-0.38605 z m 1.68702,0.68221 0.65048,0.26442 -0.16923,0.0687 0.12692,-0.31202 0.23798,0.10048 -0.12163,0.31202 c -0.0317,0.0635 -0.10577,0.0952 -0.16923,0.0687 l -0.65577,-0.26442 z m 0.89904,-0.69808 0.39134,-0.96779 0.23798,0.10048 -0.38605,0.9625 z m 0.68221,-1.68702 0.38606,-0.96514 0.24327,0.0952 -0.39135,0.96514 z m 0.68221,-1.68966 0.38606,-0.9625 0.24327,0.0952 -0.39135,0.96249 z m 0.67692,-1.68967 0.39135,-0.9625 0.24591,0.0952 -0.39399,0.9625 z m 0.68486,-1.68702 0.39135,-0.96249 0.23798,0.0952 -0.38606,0.96778 z m 0.68221,-1.68966 0.39135,-0.9625 0.23798,0.0952 -0.38606,0.96779 z m 0.68221,-1.68702 0.39135,-0.96514 0.23798,0.0978 -0.38606,0.96779 z m 0.68221,-1.68966 0.38606,-0.9625 0.24327,0.10048 -0.39134,0.9625 z m 0.68222,-1.68173 0.38605,-0.97044 0.24327,0.10049 -0.39134,0.96514 z m 0.67692,-1.68967 0.39134,-0.96778 0.24327,0.10048 -0.39134,0.9625 z m 0.68221,-1.68701 0.39135,-0.97044 0.23798,0.10048 -0.38606,0.96515 z m 0.68221,-1.68967 0.39135,-0.9625 0.23798,0.0952 -0.38606,0.9625 z m 0.68221,-1.68966 0.39135,-0.9625 0.23798,0.0952 -0.39135,0.96514 z m 0.68222,-1.68702 0.38605,-0.9625 0.24327,0.0952 -0.39134,0.9625 z m 0.68221,-1.68966 0.38605,-0.9625 0.24327,0.0952 -0.39134,0.96779 z m 0.67692,-1.68702 0.39135,-0.9625 0.24327,0.0952 -0.39135,0.96779 z m 0.68221,-1.68967 0.39135,-0.9625 0.23798,0.10048 -0.38606,0.9625 z m 0.68221,-1.68702 0.20097,-0.49182 0.23797,0.10048 -0.19567,0.49182 z" id="path34" />
    <path transform="matrix(0.26458333,0,0,0.26458333,50.017628,145.54773)" style="fill: none; stroke: #000000; stroke-width: 0.159903px; stroke-linecap: butt; stroke-linejoin: bevel; stroke-miterlimit: 4; stroke-dasharray: none; stroke-opacity: 1" clip-path="url(#clipEmfPath1)" d="m 283.18837,86.197759 -3.63779,-1.459116 0.35978,-0.929436 3.65778,1.489097 z m -6.37613,-2.588431 -3.6378,-1.459116 0.37977,-0.919443 3.63779,1.479104 z m -6.37614,-2.55845 -3.6378,-1.479103 0.37977,-0.919443 3.6378,1.479103 z m -6.35615,-2.578437 -3.65778,-1.479104 0.37977,-0.899455 3.63779,1.459116 z m -6.37613,-2.578437 -3.65779,-1.479104 0.37977,-0.899455 3.6378,1.459116 z m -6.37614,-2.578438 -3.64779,-1.469109 0.36978,-0.919443 3.63779,1.479104 z m -6.38613,-2.588431 -3.63779,-1.459116 0.35978,-0.919442 3.63779,1.479103 z m -6.37614,-2.558449 -3.63779,-1.479104 0.35978,-0.919443 3.6378,1.479104 z m -6.37613,-2.578438 -3.6378,-1.479103 0.35979,-0.899455 3.63779,1.459116 z m -6.37614,-2.578437 -3.63779,-1.479104 0.35978,-0.909448 3.65778,1.469109 z m -6.37613,-2.588431 -3.6378,-1.459116 0.35978,-0.919443 3.65779,1.479104 z m -6.37614,-2.578438 -3.64779,-1.459115 0.35978,-0.919443 3.66778,1.479104 z m -6.38613,-2.558449 -3.63779,-1.479104 0.37977,-0.919442 3.63779,1.479103 z m -6.37613,-2.578437 -3.6378,-1.479104 0.37977,-0.899455 3.6378,1.459116 z m -6.35615,-2.578438 -3.65778,-1.489097 0.37977,-0.899455 3.63779,1.459116 z m -6.37614,-2.588431 -3.65778,-1.479103 0.37977,-0.899455 3.6378,1.479103 z m -6.37613,-2.578437 -3.6378,-1.459116 0.35978,-0.919443 3.6378,1.479104 z m -6.37614,-2.578437 -3.64779,-1.459116 0.35978,-0.919443 3.64779,1.479104 z m -6.38613,-2.55845 -3.63779,-1.479103 0.35978,-0.929437 3.63779,1.489097 z m -6.37613,-2.588431 -3.6378,-1.479104 0.35978,-0.899455 3.6378,1.459116 z m -6.37614,-2.578437 -3.63779,-1.479104 0.35978,-0.899455 3.65778,1.459116 z m -6.37613,-2.578438 -3.6378,-1.459115 0.35978,-0.919443 3.65779,1.479103 z m -6.37614,-2.578437 -3.6378,-1.459116 0.37977,-0.919443 3.6378,1.479104 z m -6.37614,-2.558449 -3.64779,-1.489098 0.37977,-0.919443 3.64779,1.479104 z m -6.36614,-2.588432 -3.65778,-1.479103 0.37977,-0.899455 3.63779,1.459115 z m -6.37613,-2.578437 -3.65779,-1.479104 0.37977,-0.899455 3.6378,1.459116 z m -6.37614,-2.578437 -3.65778,-1.459116 0.37977,-0.919443 3.63779,1.479104 z m -6.37613,-2.578438 -3.6378,-1.459115 0.35978,-0.929437 3.6378,1.489097 z m -4.75712,-0.519685 -1.45912,3.637796 -0.91944,-0.359782 1.4791,-3.637796 z m -2.57844,6.376136 -1.45911,3.637795 -0.91945,-0.359782 1.47911,-3.637795 z m -2.55845,6.38613 -1.479102,3.637795 -0.919443,-0.359782 1.479105,-3.657783 z m -2.58843,6.376135 -1.479103,3.647789 -0.899455,-0.359781 1.459116,-3.667778 z m -2.578437,6.38613 -1.479103,3.637795 -0.899455,-0.37977 1.459115,-3.637795 z m -2.578437,6.376136 -1.479104,3.647789 -0.899455,-0.37977 1.459116,-3.647789 z m -2.578437,6.366141 -1.459116,3.657783 -0.919443,-0.379769 1.479104,-3.637796 z m -2.578438,6.376136 -1.459115,3.667777 -0.919443,-0.37977 1.479103,-3.647789 z m -2.558449,6.38613 -1.479104,3.637795 -0.919443,-0.359782 1.479104,-3.637795 z m -2.578438,6.386129 -1.479103,3.637795 -0.899455,-0.359781 1.459116,-3.637796 z m -2.578437,6.376136 -1.479103,3.637795 -0.899455,-0.359782 1.459115,-3.637795 z m -2.578437,6.386129 -1.479104,3.637796 -0.899455,-0.359782 1.479104,-3.637795 z m -2.578437,6.376136 -1.459116,3.647789 -0.919443,-0.369776 1.479104,-3.657783 z m -2.578438,6.38613 -1.459115,3.637794 -0.919443,-0.35978 1.479103,-3.657784 z m -2.558449,6.376134 -1.479104,3.64779 -0.919443,-0.37977 1.479104,-3.64779 z m -2.578438,6.38613 -1.479103,3.6378 -0.899455,-0.37977 1.459116,-3.6378 z m -2.578437,6.35615 -1.479103,3.66778 -0.899455,-0.37977 1.459115,-3.64779 z m -2.578437,6.38613 -1.46911,3.65778 -0.919443,-0.37977 1.489098,-3.63779 z m 0.319806,4.39733 3.637795,1.47911 -0.359782,0.90945 -3.637795,-1.46911 z m 6.376136,2.58843 3.637795,1.45912 -0.359782,0.91944 -3.637795,-1.4791 z m 6.376135,2.57844 3.637796,1.45912 -0.359782,0.91944 -3.637796,-1.4791 z m 6.376136,2.55845 3.637795,1.4791 -0.359782,0.91945 -3.637795,-1.47911 z m 6.376136,2.57844 3.637795,1.4791 -0.359782,0.89946 -3.657783,-1.45912 z m 6.376135,2.57844 3.637796,1.48909 -0.359782,0.89946 -3.657783,-1.45912 z m 6.386132,2.58843 3.63779,1.45911 -0.37977,0.91945 -3.63779,-1.47911 z m 6.37613,2.57843 3.6378,1.45912 -0.37977,0.91944 -3.6378,-1.4791 z m 6.35615,2.55845 3.65778,1.47911 -0.37977,0.91944 -3.63779,-1.4791 z m 6.37614,2.57844 3.65778,1.4791 -0.37977,0.90945 -3.63779,-1.46911 z m 6.37613,2.58843 3.6378,1.47911 -0.35978,0.89945 -3.6378,-1.45911 z m 6.37614,2.57844 3.64779,1.45912 -0.35978,0.91944 -3.64779,-1.47911 z m 6.38613,2.57844 3.63779,1.45911 -0.35978,0.91945 -3.63779,-1.47911 z m 6.37613,2.55845 3.6378,1.4791 -0.35978,0.91944 -3.6378,-1.4791 z m 6.37614,2.57843 3.63779,1.4891 -0.35978,0.89946 -3.65778,-1.46911 z m 6.37614,2.58844 3.63779,1.4791 -0.35978,0.89945 -3.65778,-1.45911 z m 6.37613,2.57843 3.6378,1.47911 -0.35979,0.89945 -3.65778,-1.4791 z m 6.37614,2.57844 3.64779,1.45912 -0.37977,0.91944 -3.64779,-1.47911 z m 6.36614,2.57844 3.65778,1.45911 -0.37977,0.92944 -3.63779,-1.4891 z m 6.37613,2.56844 3.65779,1.4791 -0.37977,0.91945 -3.6378,-1.47911 z m 6.37614,2.57844 3.65778,1.4791 -0.37977,0.89946 -3.63779,-1.45912 z m 6.37614,2.57844 3.63779,1.4791 -0.35978,0.89945 -3.6378,-1.45911 z m 6.37613,2.57843 3.6378,1.45912 -0.35979,0.91944 -3.63779,-1.4791 z m 6.37614,2.57844 3.64779,1.46911 -0.35979,0.91944 -3.64779,-1.4891 z m 6.38613,2.56844 3.63779,1.47911 -0.35978,0.91944 -3.6378,-1.4791 z m 6.37613,2.57844 3.6378,1.4791 -0.35978,0.89946 -3.65779,-1.45912 z m 6.37614,2.57844 3.63779,1.4791 -0.35978,0.89946 -3.65778,-1.45912 z m 6.37613,2.57844 2.45851,0.99939 -0.63961,0.25984 0.47971,-1.17928 0.89946,0.37977 -0.45973,1.17928 c -0.11992,0.23986 -0.39975,0.35978 -0.63961,0.25984 l -2.4785,-0.99939 z m 3.39794,-2.63841 1.47911,-3.65778 0.89945,0.37977 -1.45911,3.6378 z m 2.57844,-6.37613 1.45912,-3.64779 0.91944,0.35978 -1.4791,3.64779 z m 2.57844,-6.38613 1.45911,-3.6378 0.91945,0.35979 -1.47911,3.63779 z m 2.55845,-6.38613 1.4791,-3.6378 0.92944,0.35979 -1.4891,3.63779 z m 2.58843,-6.37614 1.4791,-3.63779 0.89946,0.35978 -1.45912,3.65778 z m 2.57844,-6.38613 1.4791,-3.63779 0.89945,0.35978 -1.45911,3.65778 z m 2.57843,-6.37613 1.47911,-3.64779 0.89945,0.36977 -1.45911,3.65779 z m 2.57844,-6.38613 1.45912,-3.6378 0.91944,0.37977 -1.4791,3.6378 z m 2.57844,-6.35615 1.45911,-3.66778 0.91945,0.37977 -1.47911,3.64779 z m 2.55845,-6.38613 1.4791,-3.65778 0.91944,0.37977 -1.4791,3.63779 z m 2.57844,-6.37613 1.4791,-3.66778 0.89945,0.37977 -1.45911,3.64779 z m 2.57843,-6.38613 1.47911,-3.6378 0.89945,0.35978 -1.45911,3.6378 z m 2.57844,-6.38613 1.4791,-3.6378 0.89946,0.35978 -1.47911,3.64779 z m 2.57844,-6.37614 1.45911,-3.63779 0.91945,0.35978 -1.47911,3.63779 z m 2.57843,-6.38613 1.45912,-3.63779 0.91944,0.35978 -1.4791,3.65778 z m 2.55845,-6.37613 1.47911,-3.6378 0.91944,0.359782 -1.4791,3.657788 z m 2.57844,-6.386134 1.4791,-3.637796 0.89946,0.37977 -1.45912,3.637795 z m 2.57844,-6.376136 0.75954,-1.858873 0.89945,0.379769 -0.73955,1.858874 z" id="path36" />
    <text style="font-style: normal; font-variant: normal; font-weight: 400; font-size: 3.50573px; line-height: 125%; font-family: Arial; text-align: start; letter-spacing: 0px; word-spacing: 0px; text-anchor: start; fill: #000000; fill-opacity: 1; stroke: none; stroke-width: 0.264583" x="50.608185" y="148.96938" id="text42"><tspan style="stroke-width: 0.264583" x="50.608185" y="148.96938" id="tspan40"><tspan dx="0" dy="0" style="font-style: normal; font-variant: normal; font-weight: 400; font-size: 3.50573px; font-family: Arial; fill: #000000; stroke-width: 0.264583" id="tspan38">(</tspan></tspan></text>
    <text style="font-style: normal; font-variant: normal; font-weight: 400; font-size: 3.50573px; line-height: 125%; font-family: Arial; text-align: start; letter-spacing: 0px; word-spacing: 0px; text-anchor: start; fill: #000000; fill-opacity: 1; stroke: none; stroke-width: 0.264583" x="51.798077" y="148.96938" id="text48"><tspan style="stroke-width: 0.264583" x="51.798077" y="148.96938" id="tspan46"><tspan dx="0" dy="0" style="font-style: normal; font-variant: normal; font-weight: 400; font-size: 3.50573px; font-family: Arial; fill: #000000; stroke-width: 0.264583" id="tspan44">-</tspan></tspan></text>
    <text style="font-style: normal; font-variant: normal; font-weight: 400; font-size: 3.50573px; line-height: 125%; font-family: Arial; text-align: start; letter-spacing: 0px; word-spacing: 0px; text-anchor: start; fill: #000000; fill-opacity: 1; stroke: none; stroke-width: 0.264583" x="52.943909" y="148.96938" id="text54"><tspan style="stroke-width: 0.264583" x="52.943909" y="148.96938" id="tspan52"><tspan dx="0" dy="0" style="font-style: normal; font-variant: normal; font-weight: 400; font-size: 3.50573px; font-family: Arial; fill: #000000; stroke-width: 0.264583" id="tspan50">1,1)                                          </tspan></tspan></text>
    <text style="font-style: normal; font-variant: normal; font-weight: 400; font-size: 3.50573px; line-height: 125%; font-family: Arial; text-align: start; letter-spacing: 0px; word-spacing: 0px; text-anchor: start; fill: #000000; fill-opacity: 1; stroke: none; stroke-width: 0.264583" x="100.14345" y="148.66089" id="text60"><tspan style="stroke-width: 0.264583" x="100.14345" y="148.66089" id="tspan58"><tspan dx="0" dy="0" style="font-style: normal; font-variant: normal; font-weight: 400; font-size: 3.50573px; font-family: Arial; fill: #000000; stroke-width: 0.264583" id="tspan56">(1,1)</tspan></tspan></text>
    <text style="font-style: normal; font-variant: normal; font-weight: 400; font-size: 3.50573px; line-height: 125%; font-family: Arial; text-align: start; letter-spacing: 0px; word-spacing: 0px; text-anchor: start; fill: #000000; fill-opacity: 1; stroke: none; stroke-width: 0.264583" x="81.369408" y="171.84198" id="text66"><tspan style="stroke-width: 0.264583" x="81.369408" y="171.84198" id="tspan64"><tspan dx="0" dy="0" style="font-style: normal; font-variant: normal; font-weight: 400; font-size: 3.50573px; font-family: Arial; fill: #000000; stroke-width: 0.264583" id="tspan62">(0,0)</tspan></tspan></text>
    <text style="font-style: normal; font-variant: normal; font-weight: 400; font-size: 3.50573px; line-height: 125%; font-family: Arial; text-align: start; letter-spacing: 0px; word-spacing: 0px; text-anchor: start; fill: #000000; fill-opacity: 1; stroke: none; stroke-width: 0.264583" x="50.035255" y="188.23622" id="text72"><tspan style="stroke-width: 0.264583" x="50.035255" y="188.23622" id="tspan70"><tspan dx="0" dy="0" style="font-style: normal; font-variant: normal; font-weight: 400; font-size: 3.50573px; font-family: Arial; fill: #000000; stroke-width: 0.264583" id="tspan68">(</tspan></tspan></text>
    <text style="font-style: normal; font-variant: normal; font-weight: 400; font-size: 3.50573px; line-height: 125%; font-family: Arial; text-align: start; letter-spacing: 0px; word-spacing: 0px; text-anchor: start; fill: #000000; fill-opacity: 1; stroke: none; stroke-width: 0.264583" x="51.225174" y="188.23622" id="text78"><tspan style="stroke-width: 0.264583" x="51.225174" y="188.23622" id="tspan76"><tspan dx="0" dy="0" style="font-style: normal; font-variant: normal; font-weight: 400; font-size: 3.50573px; font-family: Arial; fill: #000000; stroke-width: 0.264583" id="tspan74">-</tspan></tspan></text>
    <text style="font-style: normal; font-variant: normal; font-weight: 400; font-size: 3.50573px; line-height: 125%; font-family: Arial; text-align: start; letter-spacing: 0px; word-spacing: 0px; text-anchor: start; fill: #000000; fill-opacity: 1; stroke: none; stroke-width: 0.264583" x="52.371006" y="188.23622" id="text84"><tspan style="stroke-width: 0.264583" x="52.371006" y="188.23622" id="tspan82"><tspan dx="0" dy="0" style="font-style: normal; font-variant: normal; font-weight: 400; font-size: 3.50573px; font-family: Arial; fill: #000000; stroke-width: 0.264583" id="tspan80">1,</tspan></tspan></text>
    <text style="font-style: normal; font-variant: normal; font-weight: 400; font-size: 3.50573px; line-height: 125%; font-family: Arial; text-align: start; letter-spacing: 0px; word-spacing: 0px; text-anchor: start; fill: #000000; fill-opacity: 1; stroke: none; stroke-width: 0.264583" x="55.323719" y="188.23622" id="text90"><tspan style="stroke-width: 0.264583" x="55.323719" y="188.23622" id="tspan88"><tspan dx="0" dy="0" style="font-style: normal; font-variant: normal; font-weight: 400; font-size: 3.50573px; font-family: Arial; fill: #000000; stroke-width: 0.264583" id="tspan86">-</tspan></tspan></text>
    <text style="font-style: normal; font-variant: normal; font-weight: 400; font-size: 3.50573px; line-height: 125%; font-family: Arial; text-align: start; letter-spacing: 0px; word-spacing: 0px; text-anchor: start; fill: #000000; fill-opacity: 1; stroke: none; stroke-width: 0.264583" x="56.469551" y="188.23622" id="text96"><tspan style="stroke-width: 0.264583" x="56.469551" y="188.23622" id="tspan94"><tspan dx="0" dy="0" style="font-style: normal; font-variant: normal; font-weight: 400; font-size: 3.50573px; font-family: Arial; fill: #000000; stroke-width: 0.264583" id="tspan92">1) </tspan></tspan></text>
    <text style="font-style: normal; font-variant: normal; font-weight: 400; font-size: 3.50573px; line-height: 125%; font-family: Arial; text-align: start; letter-spacing: 0px; word-spacing: 0px; text-anchor: start; fill: #000000; fill-opacity: 1; stroke: none; stroke-width: 0.264583" x="104.24199" y="188.05994" id="text102"><tspan style="stroke-width: 0.264583" x="104.24199" y="188.05994" id="tspan100"><tspan dx="0" dy="0" style="font-style: normal; font-variant: normal; font-weight: 400; font-size: 3.50573px; font-family: Arial; fill: #000000; stroke-width: 0.264583" id="tspan98">(1</tspan></tspan></text>
    <text style="font-style: normal; font-variant: normal; font-weight: 400; font-size: 3.50573px; line-height: 125%; font-family: Arial; text-align: start; letter-spacing: 0px; word-spacing: 0px; text-anchor: start; fill: #000000; fill-opacity: 1; stroke: none; stroke-width: 0.264583" x="107.41506" y="188.05994" id="text108"><tspan style="stroke-width: 0.264583" x="107.41506" y="188.05994" id="tspan106"><tspan dx="0" dy="0" style="font-style: normal; font-variant: normal; font-weight: 400; font-size: 3.50573px; font-family: Arial; fill: #000000; stroke-width: 0.264583" id="tspan104">,</tspan></tspan></text>
    <text style="font-style: normal; font-variant: normal; font-weight: 400; font-size: 3.50573px; line-height: 125%; font-family: Arial; text-align: start; letter-spacing: 0px; word-spacing: 0px; text-anchor: start; fill: #000000; fill-opacity: 1; stroke: none; stroke-width: 0.264583" x="108.34056" y="188.05994" id="text114"><tspan style="stroke-width: 0.264583" x="108.34056" y="188.05994" id="tspan112"><tspan dx="0" dy="0" style="font-style: normal; font-variant: normal; font-weight: 400; font-size: 3.50573px; font-family: Arial; fill: #000000; stroke-width: 0.264583" id="tspan110">-</tspan></tspan></text>
    <text style="font-style: normal; font-variant: normal; font-weight: 400; font-size: 3.50573px; line-height: 125%; font-family: Arial; text-align: start; letter-spacing: 0px; word-spacing: 0px; text-anchor: start; fill: #000000; fill-opacity: 1; stroke: none; stroke-width: 0.264583" x="109.53045" y="188.05994" id="text120"><tspan style="stroke-width: 0.264583" x="109.53045" y="188.05994" id="tspan118"><tspan dx="0" dy="0" style="font-style: normal; font-variant: normal; font-weight: 400; font-size: 3.50573px; font-family: Arial; fill: #000000; stroke-width: 0.264583" id="tspan116">1)</tspan></tspan></text>
  </g>
</svg>