<?xml version="1.0" encoding="UTF-8" standalone="no"?>
<svg
   xmlns:dc="http://purl.org/dc/elements/1.1/"
   xmlns:cc="http://creativecommons.org/ns#"
   xmlns:rdf="http://www.w3.org/1999/02/22-rdf-syntax-ns#"
   xmlns:svg="http://www.w3.org/2000/svg"
   xmlns="http://www.w3.org/2000/svg"
   xmlns:sodipodi="http://sodipodi.sourceforge.net/DTD/sodipodi-0.dtd"
   xmlns:inkscape="http://www.inkscape.org/namespaces/inkscape"
   version="1.0"
   width="625.78284"
   height="359.09476"
   id="svg165"
   sodipodi:docname="image4.svg"
   inkscape:version="0.92.4 (5da689c313, 2019-01-14)">
  <metadata
     id="metadata169">
    <rdf:RDF>
      <cc:Work
         rdf:about="">
        <dc:format>image/svg+xml</dc:format>
        <dc:type
           rdf:resource="http://purl.org/dc/dcmitype/StillImage" />
        <dc:title></dc:title>
      </cc:Work>
    </rdf:RDF>
  </metadata>
  <sodipodi:namedview
     pagecolor="#ffffff"
     bordercolor="#666666"
     borderopacity="1"
     objecttolerance="10"
     gridtolerance="10"
     guidetolerance="10"
     inkscape:pageopacity="0"
     inkscape:pageshadow="2"
     inkscape:window-width="1920"
     inkscape:window-height="1017"
     id="namedview167"
     showgrid="false"
     fit-margin-top="0"
     fit-margin-left="0"
     fit-margin-right="0"
     fit-margin-bottom="0"
     inkscape:zoom="0.89672439"
     inkscape:cx="746.35504"
     inkscape:cy="304.03992"
     inkscape:window-x="-8"
     inkscape:window-y="-8"
     inkscape:window-maximized="1"
     inkscape:current-layer="svg165"
     units="px" />
  <defs
     id="defs3">
    <pattern
       id="EMFhbasepattern"
       patternUnits="userSpaceOnUse"
       width="6"
       height="6"
       x="0"
       y="0" />
  </defs>
  <g
     id="g161"
     transform="matrix(0.63178286,0,0,0.63174452,0.00736049,0.17664105)"
     style="stroke-width:1.58287036">
    <path
       inkscape:connector-curvature="0"
       id="path5"
       d="m 125.94367,54.36705 2.41854,513.76862"
       style="fill:none;stroke:#5b9bd5;stroke-width:1.01242352px;stroke-linecap:butt;stroke-linejoin:miter;stroke-miterlimit:8;stroke-dasharray:none;stroke-opacity:1" />
    <path
       inkscape:connector-curvature="0"
       id="path7"
       d="M 881.32586,54.36705 V 568.13567"
       style="fill:none;stroke:#5b9bd5;stroke-width:1.01242352px;stroke-linecap:butt;stroke-linejoin:miter;stroke-miterlimit:8;stroke-dasharray:none;stroke-opacity:1" />
    <path
       inkscape:connector-curvature="0"
       id="path9"
       d="m 126.02362,64.440945 h 751.46457 v 3.997577 H 126.02362 Z m 734.39492,-9.714113 21.14718,11.712901 -21.14718,11.752877 c -0.95942,0.559661 -2.1587,0.199879 -2.71836,-0.759539 -0.51968,-0.959419 -0.1599,-2.198668 0.79952,-2.718353 l 17.9891,-9.993943 v 3.477892 l -17.9891,-9.993943 c -0.95942,-0.519685 -1.3192,-1.758934 -0.79952,-2.718352 0.55966,-0.959419 1.75894,-1.319201 2.71836,-0.75954 z"
       style="fill:#5b9bd5;fill-opacity:1;fill-rule:nonzero;stroke:#5b9bd5;stroke-width:0.06327646px;stroke-linecap:butt;stroke-linejoin:round;stroke-miterlimit:10;stroke-dasharray:none;stroke-opacity:1" />
    <path
       inkscape:connector-curvature="0"
       id="path11"
       d="M 426.40158,47.011508 V 82.509994 H 536.15159 V 47.011508 Z"
       style="fill:#e7e6e6;fill-opacity:1;fill-rule:evenodd;stroke:none;stroke-width:1.58287024" />
    <text
       id="text17"
       y="71.833313"
       x="436.41226"
       style="font-style:normal;font-variant:normal;font-weight:400;font-size:21.25px;line-height:125%;font-family:Arial;text-align:start;letter-spacing:0px;word-spacing:0px;text-anchor:start;fill:#000000;fill-opacity:1;stroke:none;stroke-width:1.58287036"
       xml:space="preserve"><tspan
         id="tspan15"
         y="71.833313"
         x="436.41226"
         sodipodi:role="line"
         style="stroke-width:1.58287036"><tspan
           id="tspan13"
           style="font-style:normal;font-variant:normal;font-weight:400;font-size:21.25px;font-family:Arial;fill:#000000;stroke-width:1.58287036"
           dy="0"
           dx="0">TCP SYN</tspan></tspan></text>
    <path
       inkscape:connector-curvature="0"
       id="path19"
       d="m 126.02362,148.23016 h 751.46457 v 3.99758 H 126.02362 Z m 734.39492,-9.71411 21.14718,11.7129 -21.14718,11.75288 c -0.95942,0.55966 -2.1587,0.19988 -2.71836,-0.75954 -0.51968,-0.95942 -0.1599,-2.19867 0.79952,-2.71836 l 17.9891,-9.99394 v 3.47789 l -17.9891,-9.99394 c -0.95942,-0.51968 -1.3192,-1.75893 -0.79952,-2.71835 0.55966,-0.95942 1.75894,-1.3192 2.71836,-0.75954 z"
       style="fill:#5b9bd5;fill-opacity:1;fill-rule:nonzero;stroke:#5b9bd5;stroke-width:0.06327646px;stroke-linecap:butt;stroke-linejoin:round;stroke-miterlimit:4;stroke-dasharray:none;stroke-opacity:1" />
    <path
       inkscape:connector-curvature="0"
       id="path21"
       d="m 394.74075,130.64082 v 35.65839 h 173.07163 v -35.65839 z"
       style="fill:#e7e6e6;fill-opacity:1;fill-rule:evenodd;stroke:none;stroke-width:1.58287024" />
    <text
       id="text27"
       y="155.57217"
       x="405.08789"
       style="font-style:normal;font-variant:normal;font-weight:400;font-size:21.25px;line-height:125%;font-family:Arial;text-align:start;letter-spacing:0px;word-spacing:0px;text-anchor:start;fill:#000000;fill-opacity:1;stroke:none;stroke-width:1.58287036"
       xml:space="preserve"><tspan
         id="tspan25"
         y="155.57217"
         x="405.08789"
         sodipodi:role="line"
         style="stroke-width:1.58287036"><tspan
           id="tspan23"
           style="font-style:normal;font-variant:normal;font-weight:400;font-size:21.25px;font-family:Arial;fill:#000000;stroke-width:1.58287036"
           dy="0"
           dx="0">TLS Client Hello</tspan></tspan></text>
    <path
       inkscape:connector-curvature="0"
       id="path29"
       d="M 881.56572,189.96487 H 130.14113 v 3.99757 h 751.42459 z m -734.39491,-9.71412 -21.10721,11.71291 21.10721,11.75287 c 0.95941,0.55966 2.19866,0.19988 2.71835,-0.75954 0.55966,-0.95942 0.19988,-2.19866 -0.75954,-2.71835 l -17.9891,-9.99394 v 3.47789 l 17.9891,-9.99394 c 0.95942,-0.51969 1.3192,-1.75894 0.75954,-2.71836 -0.51969,-0.95941 -1.75894,-1.3192 -2.71835,-0.75954 z"
       style="fill:#5b9bd5;fill-opacity:1;fill-rule:nonzero;stroke:#5b9bd5;stroke-width:0.06327646px;stroke-linecap:butt;stroke-linejoin:round;stroke-miterlimit:4;stroke-dasharray:none;stroke-opacity:1" />
    <path
       inkscape:connector-curvature="0"
       id="path31"
       d="m 391.70259,172.53543 v 35.49849 H 575.5818 v -35.49849 z"
       style="fill:#e7e6e6;fill-opacity:1;fill-rule:evenodd;stroke:none;stroke-width:1.58287036" />
    <text
       id="text37"
       y="197.44162"
       x="402.00308"
       style="font-style:normal;font-variant:normal;font-weight:400;font-size:21.25px;line-height:125%;font-family:Arial;text-align:start;letter-spacing:0px;word-spacing:0px;text-anchor:start;fill:#000000;fill-opacity:1;stroke:none;stroke-width:1.58287036"
       xml:space="preserve"><tspan
         id="tspan35"
         y="197.44162"
         x="402.00308"
         sodipodi:role="line"
         style="stroke-width:1.58287036"><tspan
           id="tspan33"
           style="font-style:normal;font-variant:normal;font-weight:400;font-size:21.25px;font-family:Arial;fill:#000000;stroke-width:1.58287036"
           dy="0"
           dx="0">TLS Server Hello</tspan></tspan></text>
    <path
       inkscape:connector-curvature="0"
       id="path39"
       d="m 127.94246,441.17262 h 751.46457 v 3.99758 H 127.94246 Z m 734.39491,-9.71411 21.14719,11.7129 -21.14719,11.75288 c -0.95942,0.55966 -2.15869,0.19987 -2.71835,-0.75954 -0.51969,-0.95942 -0.1599,-2.19867 0.79952,-2.71836 l 17.98909,-9.99394 v 3.47789 l -17.98909,-9.99394 c -0.95942,-0.51969 -1.31921,-1.75893 -0.79952,-2.71835 0.55966,-0.95942 1.75893,-1.3192 2.71835,-0.75954 z"
       style="fill:#5b9bd5;fill-opacity:1;fill-rule:nonzero;stroke:#5b9bd5;stroke-width:0.06327646px;stroke-linecap:butt;stroke-linejoin:round;stroke-miterlimit:4;stroke-dasharray:none;stroke-opacity:1" />
    <path
       inkscape:connector-curvature="0"
       id="path41"
       d="m 398.73833,423.74318 v 35.49849 h 168.28552 v -35.49849 z"
       style="fill:#e7e6e6;fill-opacity:1;fill-rule:evenodd;stroke:none;stroke-width:1.58287036" />
    <text
       id="text47"
       y="448.65817"
       x="408.99362"
       style="font-style:normal;font-variant:normal;font-weight:400;font-size:21.25px;line-height:125%;font-family:Arial;text-align:start;letter-spacing:0px;word-spacing:0px;text-anchor:start;fill:#000000;fill-opacity:1;stroke:none;stroke-width:1.58287036"
       xml:space="preserve"><tspan
         id="tspan45"
         y="448.65817"
         x="408.99362"
         sodipodi:role="line"
         style="stroke-width:1.58287036"><tspan
           id="tspan43"
           style="font-style:normal;font-variant:normal;font-weight:400;font-size:21.25px;font-family:Arial;fill:#000000;stroke-width:1.58287036"
           dy="0"
           dx="0">HTTP2 Settings</tspan></tspan></text>
    <path
       inkscape:connector-curvature="0"
       id="path49"
       d="m 883.48456,399.43791 h -751.4246 v 3.99758 h 751.4246 z m -734.39492,-9.71411 -21.1072,11.7129 21.1072,11.75288 c 0.95942,0.55966 2.19867,0.19988 2.71836,-0.75954 0.55966,-0.95942 0.19987,-2.19867 -0.75954,-2.71835 l -17.9891,-9.99395 v 3.4779 l 17.9891,-9.99395 c 0.95941,-0.51968 1.3192,-1.75893 0.75954,-2.71835 -0.51969,-0.95942 -1.75894,-1.3192 -2.71836,-0.75954 z"
       style="fill:#5b9bd5;fill-opacity:1;fill-rule:nonzero;stroke:#5b9bd5;stroke-width:0.06327646px;stroke-linecap:butt;stroke-linejoin:round;stroke-miterlimit:4;stroke-dasharray:none;stroke-opacity:1" />
    <path
       inkscape:connector-curvature="0"
       id="path51"
       d="m 398.73832,381.84857 v 35.65839 h 170.65114 v -35.65839 z"
       style="fill:#e7e6e6;fill-opacity:1;fill-rule:evenodd;stroke:none;stroke-width:1.58287024" />
    <text
       id="text57"
       y="406.78873"
       x="408.99362"
       style="font-style:normal;font-variant:normal;font-weight:400;font-size:21.25px;line-height:125%;font-family:Arial;text-align:start;letter-spacing:0px;word-spacing:0px;text-anchor:start;fill:#000000;fill-opacity:1;stroke:none;stroke-width:1.58287036"
       xml:space="preserve"><tspan
         id="tspan55"
         y="406.78873"
         x="408.99362"
         sodipodi:role="line"
         style="stroke-width:1.58287036"><tspan
           id="tspan53"
           style="font-style:normal;font-variant:normal;font-weight:400;font-size:21.25px;font-family:Arial;fill:#000000;stroke-width:1.58287036"
           dy="0"
           dx="0">HTTP2 Settings</tspan></tspan></text>
    <path
       inkscape:connector-curvature="0"
       id="path59"
       d="M 883.96426,483.06723 H 132.53967 v 3.99758 h 751.42459 z m -734.39491,-9.71411 -21.10721,11.7129 21.10721,11.75288 c 0.95942,0.55966 2.19867,0.19987 2.71836,-0.75954 0.55966,-0.95942 0.19987,-2.19867 -0.75954,-2.71836 l -17.9891,-9.99394 v 3.47789 l 17.9891,-9.99394 c 0.95941,-0.51969 1.3192,-1.75893 0.75954,-2.71835 -0.51969,-0.95942 -1.75894,-1.3192 -2.71836,-0.75954 z"
       style="fill:#5b9bd5;fill-opacity:1;fill-rule:nonzero;stroke:#5b9bd5;stroke-width:0.06327646px;stroke-linecap:butt;stroke-linejoin:round;stroke-miterlimit:4;stroke-dasharray:none;stroke-opacity:1" />
    <path
       inkscape:connector-curvature="0"
       id="path61"
       d="m 412.64992,465.63779 v 35.49849 h 134.88772 v -35.49849 z"
       style="fill:#e7e6e6;fill-opacity:1;fill-rule:evenodd;stroke:none;stroke-width:1.58287036" />
    <text
       id="text67"
       y="490.52759"
       x="422.83051"
       style="font-style:normal;font-variant:normal;font-weight:400;font-size:21.25px;line-height:125%;font-family:Arial;text-align:start;letter-spacing:0px;word-spacing:0px;text-anchor:start;fill:#000000;fill-opacity:1;stroke:none;stroke-width:1.58287036"
       xml:space="preserve"><tspan
         id="tspan65"
         y="490.52759"
         x="422.83051"
         sodipodi:role="line"
         style="stroke-width:1.58287036"><tspan
           id="tspan63"
           style="font-style:normal;font-variant:normal;font-weight:400;font-size:21.25px;font-family:Arial;fill:#000000;stroke-width:1.58287036"
           dy="0"
           dx="0">HTTP2 Post</tspan></tspan></text>
    <path
       inkscape:connector-curvature="0"
       id="path69"
       d="m 127.94246,522.24349 h 751.46457 v 3.99757 H 127.94246 Z m 734.39491,-9.71412 21.14719,11.71291 -21.14719,11.75287 c -0.95942,0.55966 -2.15869,0.19988 -2.71835,-0.75954 -0.51969,-0.95942 -0.1599,-2.19866 0.79952,-2.71835 l 17.98909,-9.99394 v 3.47789 l -17.98909,-9.99394 c -0.95942,-0.51969 -1.31921,-1.75894 -0.79952,-2.71836 0.55966,-0.95942 1.75893,-1.3192 2.71835,-0.75954 z"
       style="fill:#5b9bd5;fill-opacity:1;fill-rule:nonzero;stroke:#5b9bd5;stroke-width:0.06327646px;stroke-linecap:butt;stroke-linejoin:round;stroke-miterlimit:4;stroke-dasharray:none;stroke-opacity:1" />
    <path
       inkscape:connector-curvature="0"
       id="path71"
       d="m 389.46395,507.5324 v 35.49849 H 579.39754 V 507.5324 Z"
       style="fill:#e7e6e6;fill-opacity:1;fill-rule:evenodd;stroke:none;stroke-width:1.58287024" />
    <text
       id="text77"
       y="532.39734"
       x="400.16095"
       style="font-style:normal;font-variant:normal;font-weight:400;font-size:21.25px;line-height:125%;font-family:Arial;text-align:start;letter-spacing:0px;word-spacing:0px;text-anchor:start;fill:#000000;fill-opacity:1;stroke:none;stroke-width:1.58287036"
       xml:space="preserve"><tspan
         id="tspan75"
         y="532.39734"
         x="400.16095"
         sodipodi:role="line"
         style="stroke-width:1.58287036"><tspan
           id="tspan73"
           style="font-style:normal;font-variant:normal;font-weight:400;font-size:21.25px;font-family:Arial;fill:#000000;stroke-width:1.58287036"
           dy="0"
           dx="0">HTTP2 Response</tspan></tspan></text>
    <path
       inkscape:connector-curvature="0"
       id="path79"
       d="M 881.56572,106.33555 H 130.14113 v 3.99758 h 751.42459 z m -734.39491,-9.714109 -21.10721,11.712899 21.10721,11.75288 c 0.95941,0.55966 2.19866,0.19988 2.71835,-0.75954 0.55966,-0.95942 0.19988,-2.19867 -0.75954,-2.71835 l -17.9891,-9.99395 v 3.47789 l 17.9891,-9.99394 c 0.95942,-0.519682 1.3192,-1.758931 0.75954,-2.718349 -0.51969,-0.959419 -1.75894,-1.319201 -2.71835,-0.75954 z"
       style="fill:#5b9bd5;fill-opacity:1;fill-rule:nonzero;stroke:#5b9bd5;stroke-width:0.06327646px;stroke-linecap:butt;stroke-linejoin:round;stroke-miterlimit:4;stroke-dasharray:none;stroke-opacity:1" />
    <path
       inkscape:connector-curvature="0"
       id="path81"
       d="M 405.13446,88.906117 V 124.4046 H 563.72705 V 88.906117 Z"
       style="fill:#e7e6e6;fill-opacity:1;fill-rule:evenodd;stroke:none;stroke-width:1.58287036" />
    <text
       id="text87"
       y="113.70274"
       x="415.49829"
       style="font-style:normal;font-variant:normal;font-weight:400;font-size:21.25px;line-height:125%;font-family:Arial;text-align:start;letter-spacing:0px;word-spacing:0px;text-anchor:start;fill:#000000;fill-opacity:1;stroke:none;stroke-width:1.58287036"
       xml:space="preserve"><tspan
         id="tspan85"
         y="113.70274"
         x="415.49829"
         sodipodi:role="line"
         style="stroke-width:1.58287036"><tspan
           id="tspan83"
           style="font-style:normal;font-variant:normal;font-weight:400;font-size:21.25px;font-family:Arial;fill:#000000;stroke-width:1.58287036"
           dy="0"
           dx="0">TCP SYN/ACK</tspan></tspan></text>
    <path
       inkscape:connector-curvature="0"
       id="path89"
       d="M 80.531195,0.47970927 H 174.43353 V 39.33616 H 80.531195 Z"
       style="fill:none;stroke:#2e75b6;stroke-width:1.51863527px;stroke-linecap:butt;stroke-linejoin:round;stroke-miterlimit:4;stroke-dasharray:none;stroke-opacity:1" />
    <text
       id="text95"
       y="27.770885"
       x="90.211205"
       style="font-style:normal;font-variant:normal;font-weight:400;font-size:24px;line-height:125%;font-family:Arial;text-align:start;letter-spacing:0px;word-spacing:0px;text-anchor:start;fill:#000000;fill-opacity:1;stroke:none;stroke-width:1.58287036"
       xml:space="preserve"><tspan
         id="tspan93"
         y="27.770885"
         x="90.211205"
         sodipodi:role="line"
         style="stroke-width:1.58287036"><tspan
           id="tspan91"
           style="font-style:normal;font-variant:normal;font-weight:400;font-size:24px;font-family:Arial;fill:#000000;stroke-width:1.58287036"
           dy="0"
           dx="0">Device</tspan></tspan></text>
    <path
       inkscape:connector-curvature="0"
       id="path97"
       d="M 805.21197,0.47970927 H 978.89031 V 39.33616 H 805.21197 Z"
       style="fill:none;stroke:#2e75b6;stroke-width:1.51863515px;stroke-linecap:butt;stroke-linejoin:round;stroke-miterlimit:4;stroke-dasharray:none;stroke-opacity:1" />
    <text
       id="text103"
       y="27.770885"
       x="814.83972"
       style="font-style:normal;font-variant:normal;font-weight:400;font-size:24px;line-height:125%;font-family:Arial;text-align:start;letter-spacing:0px;word-spacing:0px;text-anchor:start;fill:#000000;fill-opacity:1;stroke:none;stroke-width:1.58287036"
       xml:space="preserve"><tspan
         id="tspan101"
         y="27.770885"
         x="814.83972"
         sodipodi:role="line"
         style="stroke-width:1.58287036"><tspan
           id="tspan99"
           style="font-style:normal;font-variant:normal;font-weight:400;font-size:24px;font-family:Arial;fill:#000000;stroke-width:1.58287036"
           dy="0"
           dx="0">Cloud Service</tspan></tspan></text>
    <path
       inkscape:connector-curvature="0"
       id="path105"
       d="m 449.10781,214.43004 v 35.49849 h 45.41248 v -35.49849 z"
       style="fill:#e7e6e6;fill-opacity:1;fill-rule:evenodd;stroke:none;stroke-width:1.58287036" />
    <text
       id="text111"
       y="239.31102"
       x="459.07181"
       style="font-style:normal;font-variant:normal;font-weight:400;font-size:21.25px;line-height:125%;font-family:Arial;text-align:start;letter-spacing:0px;word-spacing:0px;text-anchor:start;fill:#000000;fill-opacity:1;stroke:none;stroke-width:1.58287036"
       xml:space="preserve"><tspan
         id="tspan109"
         y="239.31102"
         x="459.07181"
         sodipodi:role="line"
         style="stroke-width:1.58287036"><tspan
           id="tspan107"
           style="font-style:normal;font-variant:normal;font-weight:400;font-size:21.25px;font-family:Arial;fill:#000000;stroke-width:1.58287036"
           dy="0"
           dx="0">. . .</tspan></tspan></text>
    <path
       inkscape:connector-curvature="0"
       id="path113"
       d="m 122.66566,271.99515 h 751.46456 v 3.99758 H 122.66566 Z m 734.39491,-9.71411 21.14718,11.7129 -21.14718,11.75288 c -0.95942,0.55966 -2.15869,0.19988 -2.71835,-0.75954 -0.51969,-0.95942 -0.15991,-2.19867 0.79951,-2.71835 l 17.9891,-9.99395 v 3.47789 l -17.9891,-9.99394 c -0.95942,-0.51968 -1.3192,-1.75893 -0.79951,-2.71835 0.55966,-0.95942 1.75893,-1.3192 2.71835,-0.75954 z"
       style="fill:#5b9bd5;fill-opacity:1;fill-rule:nonzero;stroke:#5b9bd5;stroke-width:0.06327646px;stroke-linecap:butt;stroke-linejoin:round;stroke-miterlimit:4;stroke-dasharray:none;stroke-opacity:1" />
    <path
       inkscape:connector-curvature="0"
       id="path115"
       d="m 188.14598,256.32465 v 35.49849 h 604.39778 v -35.49849 z"
       style="fill:#e7e6e6;fill-opacity:1;fill-rule:evenodd;stroke:none;stroke-width:1.58287036" />
    <text
       id="text121"
       y="281.18045"
       x="200.94179"
       style="font-style:normal;font-variant:normal;font-weight:400;font-size:21.25px;line-height:125%;font-family:Arial;text-align:start;letter-spacing:0px;word-spacing:0px;text-anchor:start;fill:#000000;fill-opacity:1;stroke:none;stroke-width:1.58287036"
       xml:space="preserve"><tspan
         id="tspan119"
         y="281.18045"
         x="200.94179"
         sodipodi:role="line"
         style="stroke-width:1.58287036"><tspan
           id="tspan117"
           style="font-style:normal;font-variant:normal;font-weight:400;font-size:21.25px;font-family:Arial;fill:#000000;stroke-width:1.58287036"
           dy="0"
           dx="0">Get /xxx http/1.1 [Connection: upgrade, Upgrade:h2c-reverse]</tspan></tspan></text>
    <text
       id="text127"
       y="281.18045"
       x="635.55835"
       style="font-style:normal;font-variant:normal;font-weight:400;font-size:21.25px;line-height:125%;font-family:Arial;text-align:start;letter-spacing:0px;word-spacing:0px;text-anchor:start;fill:#000000;fill-opacity:1;stroke:none;stroke-width:1.58287036"
       xml:space="preserve"><tspan
         id="tspan125"
         y="0"
         x="0"
         sodipodi:role="line"
         style="stroke-width:1.58287036"><tspan
           id="tspan123"
           style="font-style:normal;font-variant:normal;font-weight:400;font-size:21.25px;font-family:Arial;fill:#000000;stroke-width:1.58287036" /></tspan></text>
    <text
       id="text139"
       y="281.18045"
       x="672.97571"
       style="font-style:normal;font-variant:normal;font-weight:400;font-size:21.25px;line-height:125%;font-family:Arial;text-align:start;letter-spacing:0px;word-spacing:0px;text-anchor:start;fill:#000000;fill-opacity:1;stroke:none;stroke-width:1.58287036"
       xml:space="preserve"><tspan
         id="tspan137"
         y="0"
         x="0"
         sodipodi:role="line"
         style="stroke-width:1.58287036"><tspan
           id="tspan135"
           style="font-style:normal;font-variant:normal;font-weight:400;font-size:21.25px;font-family:Arial;fill:#000000;stroke-width:1.58287036" /></tspan></text>
    <path
       inkscape:connector-curvature="0"
       id="path141"
       d="M 878.20775,314.04966 H 126.78316 v 3.99758 h 751.42459 z m -734.39491,-9.71411 -21.10721,11.7129 21.10721,11.75288 c 0.95942,0.55966 2.19867,0.19988 2.71835,-0.75954 0.55966,-0.95942 0.19988,-2.19867 -0.75954,-2.71835 l -17.98909,-9.99395 v 3.4779 l 17.98909,-9.99395 c 0.95942,-0.51968 1.3192,-1.75893 0.75954,-2.71835 -0.51968,-0.95942 -1.75893,-1.3192 -2.71835,-0.75954 z"
       style="fill:#5b9bd5;fill-opacity:1;fill-rule:nonzero;stroke:#5b9bd5;stroke-width:0.06327646px;stroke-linecap:butt;stroke-linejoin:round;stroke-miterlimit:4;stroke-dasharray:none;stroke-opacity:1" />
    <path
       inkscape:connector-curvature="0"
       id="path143"
       d="m 445.74985,298.21926 v 35.49848 h 52.12841 v -35.49848 z"
       style="fill:#e7e6e6;fill-opacity:1;fill-rule:evenodd;stroke:none;stroke-width:1.58287036" />
    <text
       id="text149"
       y="323.04987"
       x="455.73724"
       style="font-style:normal;font-variant:normal;font-weight:400;font-size:21.25px;line-height:125%;font-family:Arial;text-align:start;letter-spacing:0px;word-spacing:0px;text-anchor:start;fill:#000000;fill-opacity:1;stroke:none;stroke-width:1.58287036"
       xml:space="preserve"><tspan
         id="tspan147"
         y="323.04987"
         x="455.73724"
         sodipodi:role="line"
         style="stroke-width:1.58287036"><tspan
           id="tspan145"
           style="font-style:normal;font-variant:normal;font-weight:400;font-size:21.25px;font-family:Arial;fill:#000000;stroke-width:1.58287036"
           dy="0"
           dx="0">101</tspan></tspan></text>
    <path
       inkscape:connector-curvature="0"
       id="path151"
       d="M 0.01998789,335.8294 H 12.172622 v 3.03816 H 0.01998789 Z m 21.26711111,0 h 12.152634 v 3.03816 H 21.287099 Z m 21.26711,0 h 12.152635 v 3.03816 H 42.554209 Z m 21.267111,0 h 12.152635 v 3.03816 H 63.82132 Z m 21.267111,0 h 12.152638 v 3.03816 H 85.088431 Z m 21.267109,0 h 12.15264 v 3.03816 h -12.15264 z m 21.26711,0 h 12.15264 v 3.03816 h -12.15264 z m 21.26711,0 h 12.15264 v 3.03816 h -12.15264 z m 21.26712,0 h 12.15263 v 3.03816 h -12.15263 z m 21.26711,0 h 12.15263 v 3.03816 h -12.15263 z m 21.26711,0 h 12.15263 v 3.03816 H 212.6911 Z m 21.26711,0 h 12.15263 v 3.03816 h -12.15263 z m 21.26711,0 h 12.15263 v 3.03816 h -12.15263 z m 21.26711,0 h 12.15263 v 3.03816 h -12.15263 z m 21.26711,0 h 12.15264 v 3.03816 h -12.15264 z m 21.26711,0 h 12.15264 v 3.03816 h -12.15264 z m 21.26711,0 h 12.15264 v 3.03816 h -12.15264 z m 21.26711,0 h 12.15264 v 3.03816 h -12.15264 z m 21.26711,0 h 12.15264 v 3.03816 h -12.15264 z m 21.26711,0 h 12.15264 v 3.03816 h -12.15264 z m 21.26712,0 h 12.15263 v 3.03816 h -12.15263 z m 21.26711,0 h 12.15263 v 3.03816 h -12.15263 z m 21.26711,0 h 12.15263 v 3.03816 h -12.15263 z m 21.26711,0 h 12.15263 v 3.03816 h -12.15263 z m 21.26711,0 h 12.15263 v 3.03816 h -12.15263 z m 21.26711,0 h 12.15263 v 3.03816 h -12.15263 z m 21.26711,0 h 12.15264 v 3.03816 h -12.15264 z m 21.26711,0 h 12.15264 v 3.03816 h -12.15264 z m 21.26711,0 h 12.15264 v 3.03816 h -12.15264 z m 21.26711,0 h 12.15264 v 3.03816 H 616.7662 Z m 21.26711,0 h 12.15264 v 3.03816 h -12.15264 z m 21.26711,0 h 12.15264 v 3.03816 h -12.15264 z m 21.26712,0 h 12.15263 v 3.03816 h -12.15263 z m 21.26711,0 h 12.15263 v 3.03816 h -12.15263 z m 21.26711,0 h 12.15263 v 3.03816 h -12.15263 z m 21.26711,0 h 12.15263 v 3.03816 h -12.15263 z m 21.26711,0 h 12.15263 v 3.03816 h -12.15263 z m 21.26711,0 h 12.15263 v 3.03816 h -12.15263 z m 21.26711,0 h 12.15264 v 3.03816 H 808.1702 Z m 21.26711,0 h 12.15264 v 3.03816 h -12.15264 z m 21.26711,0 h 12.15264 v 3.03816 h -12.15264 z m 21.26711,0 h 12.15264 v 3.03816 h -12.15264 z m 21.26711,0 h 12.15264 v 3.03816 h -12.15264 z m 21.26711,0 h 12.15264 v 3.03816 h -12.15264 z m 21.26712,0 h 12.15263 v 3.03816 h -12.15263 z m 21.26711,0 h 12.15263 v 3.03816 h -12.15263 z m 21.26711,0 h 12.15263 v 3.03816 h -12.15263 z"
       style="fill:#ff0000;fill-opacity:1;fill-rule:nonzero;stroke:#ff0000;stroke-width:0.06327646px;stroke-linecap:butt;stroke-linejoin:round;stroke-miterlimit:4;stroke-dasharray:none;stroke-opacity:1" />
    <path
       inkscape:connector-curvature="0"
       id="path153"
       d="m 883.48456,357.5433 h -751.4246 v 3.99758 h 751.4246 z m -734.39492,-9.71411 -21.1072,11.7129 21.1072,11.75288 c 0.95942,0.55966 2.19867,0.19988 2.71836,-0.75954 0.55966,-0.95942 0.19987,-2.19867 -0.75954,-2.71835 l -17.9891,-9.99394 v 3.47789 l 17.9891,-9.99395 c 0.95941,-0.51968 1.3192,-1.75893 0.75954,-2.71835 -0.51969,-0.95942 -1.75894,-1.3192 -2.71836,-0.75954 z"
       style="fill:#5b9bd5;fill-opacity:1;fill-rule:nonzero;stroke:#5b9bd5;stroke-width:0.06327646px;stroke-linecap:butt;stroke-linejoin:round;stroke-miterlimit:4;stroke-dasharray:none;stroke-opacity:1" />
    <path
       inkscape:connector-curvature="0"
       id="path155"
       d="m 419.20593,340.11387 v 35.49848 h 122.5642 v -35.49848 z"
       style="fill:#e7e6e6;fill-opacity:1;fill-rule:evenodd;stroke:none;stroke-width:1.58287036" />
    <text
       id="text161"
       y="364.91931"
       x="429.24994"
       style="font-style:normal;font-variant:normal;font-weight:400;font-size:21.25px;line-height:125%;font-family:Arial;text-align:start;letter-spacing:0px;word-spacing:0px;text-anchor:start;fill:#000000;fill-opacity:1;stroke:none;stroke-width:1.58287036"
       xml:space="preserve"><tspan
         id="tspan159"
         y="364.91931"
         x="429.24994"
         sodipodi:role="line"
         style="stroke-width:1.58287036"><tspan
           id="tspan157"
           style="font-style:normal;font-variant:normal;font-weight:400;font-size:21.25px;font-family:Arial;fill:#000000;stroke-width:1.58287036"
           dy="0"
           dx="0">PRI Magic</tspan></tspan></text>
    <path
       inkscape:connector-curvature="0"
       id="path163"
       d="M 0.01998789,250.24833 H 12.172622 v 3.03816 H 0.01998789 Z m 21.26711111,0 h 12.152634 v 3.03816 H 21.287099 Z m 21.26711,0 h 12.152635 v 3.03816 H 42.554209 Z m 21.267111,0 h 12.152635 v 3.03816 H 63.82132 Z m 21.267111,0 h 12.152638 v 3.03816 H 85.088431 Z m 21.267109,0 h 12.15264 v 3.03816 h -12.15264 z m 21.26711,0 h 12.15264 v 3.03816 h -12.15264 z m 21.26711,0 h 12.15264 v 3.03816 h -12.15264 z m 21.26712,0 h 12.15263 v 3.03816 h -12.15263 z m 21.26711,0 h 12.15263 v 3.03816 h -12.15263 z m 21.26711,0 h 12.15263 v 3.03816 H 212.6911 Z m 21.26711,0 h 12.15263 v 3.03816 h -12.15263 z m 21.26711,0 h 12.15263 v 3.03816 h -12.15263 z m 21.26711,0 h 12.15263 v 3.03816 h -12.15263 z m 21.26711,0 h 12.15264 v 3.03816 h -12.15264 z m 21.26711,0 h 12.15264 v 3.03816 h -12.15264 z m 21.26711,0 h 12.15264 v 3.03816 h -12.15264 z m 21.26711,0 h 12.15264 v 3.03816 h -12.15264 z m 21.26711,0 h 12.15264 v 3.03816 h -12.15264 z m 21.26711,0 h 12.15264 v 3.03816 h -12.15264 z m 21.26712,0 h 12.15263 v 3.03816 h -12.15263 z m 21.26711,0 h 12.15263 v 3.03816 h -12.15263 z m 21.26711,0 h 12.15263 v 3.03816 h -12.15263 z m 21.26711,0 h 12.15263 v 3.03816 h -12.15263 z m 21.26711,0 h 12.15263 v 3.03816 h -12.15263 z m 21.26711,0 h 12.15263 v 3.03816 h -12.15263 z m 21.26711,0 h 12.15264 v 3.03816 h -12.15264 z m 21.26711,0 h 12.15264 v 3.03816 h -12.15264 z m 21.26711,0 h 12.15264 v 3.03816 h -12.15264 z m 21.26711,0 h 12.15264 v 3.03816 H 616.7662 Z m 21.26711,0 h 12.15264 v 3.03816 h -12.15264 z m 21.26711,0 h 12.15264 v 3.03816 h -12.15264 z m 21.26712,0 h 12.15263 v 3.03816 h -12.15263 z m 21.26711,0 h 12.15263 v 3.03816 h -12.15263 z m 21.26711,0 h 12.15263 v 3.03816 h -12.15263 z m 21.26711,0 h 12.15263 v 3.03816 h -12.15263 z m 21.26711,0 h 12.15263 v 3.03816 h -12.15263 z m 21.26711,0 h 12.15263 v 3.03816 h -12.15263 z m 21.26711,0 h 12.15264 v 3.03816 H 808.1702 Z m 21.26711,0 h 12.15264 v 3.03816 h -12.15264 z m 21.26711,0 h 12.15264 v 3.03816 h -12.15264 z m 21.26711,0 h 12.15264 v 3.03816 h -12.15264 z m 21.26711,0 h 12.15264 v 3.03816 h -12.15264 z m 21.26711,0 h 12.15264 v 3.03816 h -12.15264 z m 21.26712,0 h 12.15263 v 3.03816 h -12.15263 z m 21.26711,0 h 12.15263 v 3.03816 h -12.15263 z m 21.26711,0 h 12.15263 v 3.03816 h -12.15263 z"
       style="fill:#ff0000;fill-opacity:1;fill-rule:nonzero;stroke:#ff0000;stroke-width:0.06327646px;stroke-linecap:butt;stroke-linejoin:round;stroke-miterlimit:4;stroke-dasharray:none;stroke-opacity:1" />
  </g>
</svg>
