<?xml version="1.0" encoding="UTF-8" standalone="no"?>
<!-- Created with Inkscape (http://www.inkscape.org/) -->

<svg
   xmlns:dc="http://purl.org/dc/elements/1.1/"
   xmlns:cc="http://creativecommons.org/ns#"
   xmlns:rdf="http://www.w3.org/1999/02/22-rdf-syntax-ns#"
   xmlns:svg="http://www.w3.org/2000/svg"
   xmlns="http://www.w3.org/2000/svg"
   xmlns:sodipodi="http://sodipodi.sourceforge.net/DTD/sodipodi-0.dtd"
   xmlns:inkscape="http://www.inkscape.org/namespaces/inkscape"
   width="446.55936"
   height="345.85553"
   viewBox="0 0 118.15216 91.507607"
   version="1.1"
   id="svg8"
   inkscape:version="0.92.4 (5da689c313, 2019-01-14)"
   sodipodi:docname="states.svg">
  <defs
     id="defs2">
    <clipPath
       id="clipEmfPath1"
       clipPathUnits="userSpaceOnUse">
      <path
         id="path815"
         d="m 122.72562,78.592368 h 97.78074 v 32.300422 h -97.78074 z"
         inkscape:connector-curvature="0" />
    </clipPath>
    <clipPath
       id="clipEmfPath2"
       clipPathUnits="userSpaceOnUse">
      <path
         id="path818"
         d="m 122.72562,154.30648 h 97.78074 v 32.22047 h -97.78074 z"
         inkscape:connector-curvature="0" />
    </clipPath>
    <clipPath
       id="clipEmfPath3"
       clipPathUnits="userSpaceOnUse">
      <path
         id="path821"
         d="m 122.72562,230.02059 h 97.78074 v 32.22048 h -97.78074 z"
         inkscape:connector-curvature="0" />
    </clipPath>
    <clipPath
       id="clipEmfPath4"
       clipPathUnits="userSpaceOnUse">
      <path
         id="path824"
         d="m 122.72562,305.65475 h 97.78074 v 32.30043 h -97.78074 z"
         inkscape:connector-curvature="0" />
    </clipPath>
    <clipPath
       id="clipEmfPath5"
       clipPathUnits="userSpaceOnUse">
      <path
         id="path827"
         d="m 311.89098,305.73471 h 97.86069 v 32.22047 h -97.86069 z"
         inkscape:connector-curvature="0" />
    </clipPath>
    <clipPath
       id="clipEmfPath6"
       clipPathUnits="userSpaceOnUse">
      <path
         id="path830"
         d="M 296.94004,78.592368 H 442.21199 V 110.89279 H 296.94004 Z"
         inkscape:connector-curvature="0" />
    </clipPath>
    <clipPath
       id="clipEmfPath7"
       clipPathUnits="userSpaceOnUse">
      <path
         id="path833"
         d="m 274.5536,199.23925 h 125.36403 v 25.66444 H 274.5536 Z"
         inkscape:connector-curvature="0" />
    </clipPath>
    <clipPath
       id="clipEmfPath8"
       clipPathUnits="userSpaceOnUse">
      <path
         id="path836"
         d="m 104.33677,198.75954 h 66.59963 v 25.7444 h -66.59963 z"
         inkscape:connector-curvature="0" />
    </clipPath>
    <clipPath
       id="clipEmfPath9"
       clipPathUnits="userSpaceOnUse">
      <path
         id="path839"
         d="m 100.65899,274.87341 h 70.27741 v 25.7444 h -70.27741 z"
         inkscape:connector-curvature="0" />
    </clipPath>
    <clipPath
       id="clipEmfPath10"
       clipPathUnits="userSpaceOnUse">
      <path
         id="path842"
         d="m 15.670503,125.44397 h 62.202301 v 25.7444 H 15.670503 Z"
         inkscape:connector-curvature="0" />
    </clipPath>
    <clipPath
       id="clipEmfPath11"
       clipPathUnits="userSpaceOnUse">
      <path
         id="path845"
         d="m 116.3295,37.417323 h 54.04724 V 63.081769 H 116.3295 Z"
         inkscape:connector-curvature="0" />
    </clipPath>
    <clipPath
       id="clipEmfPath12"
       clipPathUnits="userSpaceOnUse">
      <path
         id="path848"
         d="m 100.65899,124.4046 h 69.55785 v 25.7444 h -69.55785 z"
         inkscape:connector-curvature="0" />
    </clipPath>
    <clipPath
       id="clipEmfPath13"
       clipPathUnits="userSpaceOnUse">
      <path
         id="path851"
         d="m 245.05148,47.970927 h 59.96366 v 41.4149 h -59.96366 z"
         inkscape:connector-curvature="0" />
    </clipPath>
    <clipPath
       id="clipEmfPath14"
       clipPathUnits="userSpaceOnUse">
      <path
         id="path854"
         d="m 263.20048,256.80436 h 86.58753 v 68.03877 h -86.58753 z"
         inkscape:connector-curvature="0" />
    </clipPath>
    <pattern
       y="0"
       x="0"
       height="6"
       width="6"
       patternUnits="userSpaceOnUse"
       id="EMFhbasepattern" />
  </defs>
  <sodipodi:namedview
     id="base"
     pagecolor="#ffffff"
     bordercolor="#666666"
     borderopacity="1.0"
     inkscape:pageopacity="0.0"
     inkscape:pageshadow="2"
     inkscape:zoom="0.35"
     inkscape:cx="-559.57746"
     inkscape:cy="-198.50082"
     inkscape:document-units="mm"
     inkscape:current-layer="layer1"
     showgrid="false"
     inkscape:window-width="1920"
     inkscape:window-height="1017"
     inkscape:window-x="-8"
     inkscape:window-y="-8"
     inkscape:window-maximized="1"
     fit-margin-top="0"
     fit-margin-left="0"
     fit-margin-right="0"
     fit-margin-bottom="0"
     units="px" />
  <metadata
     id="metadata5">
    <rdf:RDF>
      <cc:Work
         rdf:about="">
        <dc:format>image/svg+xml</dc:format>
        <dc:type
           rdf:resource="http://purl.org/dc/dcmitype/StillImage" />
        <dc:title></dc:title>
      </cc:Work>
    </rdf:RDF>
  </metadata>
  <g
     inkscape:label="Layer 1"
     inkscape:groupmode="layer"
     id="layer1"
     transform="translate(-8.2036795,-4.8057204)">
    <g
       id="g1183"
       transform="matrix(0.26458333,0,0,0.26458333,8.2036795,4.4712605)">
      <text
         id="text864"
         y="0"
         x="0"
         transform="translate(0,14.631133)"
         style="font-style:normal;font-variant:normal;font-weight:400;font-size:14.625px;line-height:125%;font-family:Calibri;text-align:start;letter-spacing:0px;word-spacing:0px;text-anchor:start;fill:#000000;fill-opacity:1;stroke:none"
         xml:space="preserve"><tspan
           id="tspan862"
           y="0"
           x="0"
           sodipodi:role="line"><tspan
             id="tspan860"
             style="font-style:normal;font-variant:normal;font-weight:400;font-size:14.625px;font-family:Calibri;fill:#000000"
             dy="0"
             dx="0"> </tspan></tspan></text>
      <path
         id="path866"
         d="m 170.99637,2.5984252 c -6.62599,0 -11.99274,5.4666869 -11.99274,12.1926108 0,6.735917 5.36675,12.19261 11.99274,12.19261 6.62598,0 11.99273,-5.456693 11.99273,-12.19261 0,-6.7259239 -5.36675,-12.1926108 -11.99273,-12.1926108 z"
         style="fill:#f2f2f2;fill-opacity:1;fill-rule:evenodd;stroke:none"
         inkscape:connector-curvature="0" />
      <path
         id="path868"
         d="m 170.99637,2.5984252 c -6.62599,0 -11.99274,5.4666869 -11.99274,12.1926108 0,6.735917 5.36675,12.19261 11.99274,12.19261 6.62598,0 11.99273,-5.456693 11.99273,-12.19261 0,-6.7259239 -5.36675,-12.1926108 -11.99273,-12.1926108"
         style="fill:none;stroke:#243f60;stroke-width:2.66838288px;stroke-linecap:round;stroke-linejoin:round;stroke-miterlimit:4;stroke-dasharray:none;stroke-opacity:1"
         inkscape:connector-curvature="0" />
      <path
         id="path870"
         d="m 127.5527,70.697153 c -4.41733,0 -7.99516,3.577832 -7.99516,7.995155 v 31.980622 c 0,4.41732 3.57783,7.99515 7.99516,7.99515 h 87.94669 c 4.41733,0 7.99516,-3.57783 7.99516,-7.99515 V 78.692308 c 0,-4.417323 -3.57783,-7.995155 -7.99516,-7.995155 z"
         style="fill:#f2f2f2;fill-opacity:1;fill-rule:evenodd;stroke:none"
         inkscape:connector-curvature="0" />
      <path
         id="path872"
         d="m 127.5527,70.697153 c -4.41733,0 -7.99516,3.577832 -7.99516,7.995155 v 31.980622 c 0,4.41732 3.57783,7.99515 7.99516,7.99515 h 87.94669 c 4.41733,0 7.99516,-3.57783 7.99516,-7.99515 V 78.692308 c 0,-4.417323 -3.57783,-7.995155 -7.99516,-7.995155 z"
         style="fill:none;stroke:#243f60;stroke-width:2.66838288px;stroke-linecap:round;stroke-linejoin:round;stroke-miterlimit:4;stroke-dasharray:none;stroke-opacity:1"
         inkscape:connector-curvature="0" />
      <g
         id="g882"
         clip-path="url(#clipEmfPath1)">
        <text
           id="text880"
           y="0"
           x="0"
           transform="translate(145.27196,99.37977)"
           style="font-style:normal;font-variant:normal;font-weight:400;font-size:13.375px;line-height:125%;font-family:Arial;text-align:start;letter-spacing:0px;word-spacing:0px;text-anchor:start;fill:#000000;fill-opacity:1;stroke:none"
           xml:space="preserve"><tspan
             id="tspan878"
             y="0"
             x="0"
             sodipodi:role="line"><tspan
               id="tspan874"
               style="font-style:normal;font-variant:normal;font-weight:400;font-size:13.375px;font-family:Arial;fill:#000000"
               dy="0"
               dx="0">Installing</tspan><tspan
               id="tspan876"
               style="font-style:normal;font-variant:normal;font-weight:400;font-size:16px;font-family:Arial;fill:#000000"
               dy="0"
               dx="0"> </tspan></tspan></text>
      </g>
      <path
         id="path884"
         d="m 172.49546,26.973652 0.43973,36.208056 -2.99818,0.03998 -0.43974,-36.21805 z m 3.41793,34.668989 -4.38735,9.054512 -4.6072,-8.944579 z"
         style="fill:#4579b8;fill-opacity:1;fill-rule:nonzero;stroke:#4579b8;stroke-width:0.07995155px;stroke-linecap:butt;stroke-linejoin:bevel;stroke-miterlimit:4;stroke-dasharray:none;stroke-opacity:1"
         inkscape:connector-curvature="0" />
      <path
         id="path886"
         d="m 127.5527,146.38128 c -4.41733,0 -7.99516,3.57784 -7.99516,7.99516 v 31.98062 c 0,4.41732 3.57783,7.99515 7.99516,7.99515 h 87.94669 c 4.41733,0 7.99516,-3.57783 7.99516,-7.99515 v -31.98062 c 0,-4.41732 -3.57783,-7.99516 -7.99516,-7.99516 z"
         style="fill:#f2f2f2;fill-opacity:1;fill-rule:evenodd;stroke:none"
         inkscape:connector-curvature="0" />
      <path
         id="path888"
         d="m 127.5527,146.38128 c -4.41733,0 -7.99516,3.57784 -7.99516,7.99516 v 31.98062 c 0,4.41732 3.57783,7.99515 7.99516,7.99515 h 87.94669 c 4.41733,0 7.99516,-3.57783 7.99516,-7.99515 v -31.98062 c 0,-4.41732 -3.57783,-7.99516 -7.99516,-7.99516 z"
         style="fill:none;stroke:#243f60;stroke-width:2.66838288px;stroke-linecap:round;stroke-linejoin:round;stroke-miterlimit:4;stroke-dasharray:none;stroke-opacity:1"
         inkscape:connector-curvature="0" />
      <g
         id="g898"
         clip-path="url(#clipEmfPath2)">
        <text
           id="text896"
           y="0"
           x="0"
           transform="translate(148.62992,175.17383)"
           style="font-style:normal;font-variant:normal;font-weight:400;font-size:13.375px;line-height:125%;font-family:Arial;text-align:start;letter-spacing:0px;word-spacing:0px;text-anchor:start;fill:#000000;fill-opacity:1;stroke:none"
           xml:space="preserve"><tspan
             id="tspan894"
             y="0"
             x="0"
             sodipodi:role="line"><tspan
               id="tspan890"
               style="font-style:normal;font-variant:normal;font-weight:400;font-size:13.375px;font-family:Arial;fill:#000000"
               dy="0"
               dx="0">Inactive</tspan><tspan
               id="tspan892"
               style="font-style:normal;font-variant:normal;font-weight:400;font-size:16px;font-family:Arial;fill:#000000"
               dy="0"
               dx="-0.20193"> </tspan></tspan></text>
      </g>
      <path
         id="path900"
         d="m 127.5527,222.06541 c -4.41733,0 -7.99516,3.58783 -7.99516,7.99516 v 31.98062 c 0,4.41732 3.57783,7.99515 7.99516,7.99515 h 87.94669 c 4.41733,0 7.99516,-3.57783 7.99516,-7.99515 v -31.98062 c 0,-4.40733 -3.57783,-7.99516 -7.99516,-7.99516 z"
         style="fill:#f2f2f2;fill-opacity:1;fill-rule:evenodd;stroke:none"
         inkscape:connector-curvature="0" />
      <path
         id="path902"
         d="m 127.5527,222.06541 c -4.41733,0 -7.99516,3.58783 -7.99516,7.99516 v 31.98062 c 0,4.41732 3.57783,7.99515 7.99516,7.99515 h 87.94669 c 4.41733,0 7.99516,-3.57783 7.99516,-7.99515 v -31.98062 c 0,-4.40733 -3.57783,-7.99516 -7.99516,-7.99516 z"
         style="fill:none;stroke:#243f60;stroke-width:2.66838288px;stroke-linecap:round;stroke-linejoin:round;stroke-miterlimit:4;stroke-dasharray:none;stroke-opacity:1"
         inkscape:connector-curvature="0" />
      <g
         id="g912"
         clip-path="url(#clipEmfPath3)">
        <text
           id="text910"
           y="0"
           x="0"
           transform="translate(153.42701,250.88795)"
           style="font-style:normal;font-variant:normal;font-weight:400;font-size:13.375px;line-height:125%;font-family:Arial;text-align:start;letter-spacing:0px;word-spacing:0px;text-anchor:start;fill:#000000;fill-opacity:1;stroke:none"
           xml:space="preserve"><tspan
             id="tspan908"
             y="0"
             x="0"
             sodipodi:role="line"><tspan
               id="tspan904"
               style="font-style:normal;font-variant:normal;font-weight:400;font-size:13.375px;font-family:Arial;fill:#000000"
               dy="0"
               dx="0">Active</tspan><tspan
               id="tspan906"
               style="font-style:normal;font-variant:normal;font-weight:400;font-size:16px;font-family:Arial;fill:#000000"
               dy="0"
               dx="0"> </tspan></tspan></text>
      </g>
      <path
         id="path914"
         d="m 127.56269,297.75954 c -4.41732,0 -7.99516,3.57783 -7.99516,7.99515 v 31.98062 c 0,4.41732 3.57784,7.99516 7.99516,7.99516 h 87.9467 c 4.41732,0 7.99515,-3.57784 7.99515,-7.99516 v -31.98062 c 0,-4.41732 -3.57783,-7.99515 -7.99515,-7.99515 z"
         style="fill:#f2f2f2;fill-opacity:1;fill-rule:evenodd;stroke:none"
         inkscape:connector-curvature="0" />
      <path
         id="path916"
         d="m 127.56269,297.75954 c -4.41732,0 -7.99516,3.57783 -7.99516,7.99515 v 31.98062 c 0,4.41732 3.57784,7.99516 7.99516,7.99516 h 87.9467 c 4.41732,0 7.99515,-3.57784 7.99515,-7.99516 v -31.98062 c 0,-4.41732 -3.57783,-7.99515 -7.99515,-7.99515 z"
         style="fill:none;stroke:#243f60;stroke-width:2.65838885px;stroke-linecap:round;stroke-linejoin:round;stroke-miterlimit:4;stroke-dasharray:none;stroke-opacity:1"
         inkscape:connector-curvature="0" />
      <g
         id="g926"
         clip-path="url(#clipEmfPath4)">
        <text
           id="text924"
           y="0"
           x="0"
           transform="translate(137.1169,326.44216)"
           style="font-style:normal;font-variant:normal;font-weight:400;font-size:13.375px;line-height:125%;font-family:Arial;text-align:start;letter-spacing:0px;word-spacing:0px;text-anchor:start;fill:#000000;fill-opacity:1;stroke:none"
           xml:space="preserve"><tspan
             id="tspan922"
             y="0"
             x="0"
             sodipodi:role="line"><tspan
               id="tspan918"
               style="font-style:normal;font-variant:normal;font-weight:400;font-size:13.375px;font-family:Arial;fill:#000000"
               dy="0"
               dx="0">Uninstalling</tspan><tspan
               id="tspan920"
               style="font-style:normal;font-variant:normal;font-weight:400;font-size:16px;font-family:Arial;fill:#000000"
               dy="0"
               dx="-0.22294299"> </tspan></tspan></text>
      </g>
      <path
         id="path928"
         d="m 316.76802,297.8195 c -4.39734,0 -7.99516,3.59782 -7.99516,7.99516 v 31.98062 c 0,4.41732 3.59782,7.99515 7.99516,7.99515 h 87.9467 c 4.41732,0 7.99515,-3.57783 7.99515,-7.99515 v -31.98062 c 0,-4.39734 -3.57783,-7.99516 -7.99515,-7.99516 z"
         style="fill:#f2f2f2;fill-opacity:1;fill-rule:evenodd;stroke:none"
         inkscape:connector-curvature="0" />
      <path
         id="path930"
         d="m 316.76802,297.8195 c -4.39734,0 -7.99516,3.59782 -7.99516,7.99516 v 31.98062 c 0,4.41732 3.59782,7.99515 7.99516,7.99515 h 87.9467 c 4.41732,0 7.99515,-3.57783 7.99515,-7.99515 v -31.98062 c 0,-4.39734 -3.57783,-7.99516 -7.99515,-7.99516 z"
         style="fill:none;stroke:#243f60;stroke-width:2.65838885px;stroke-linecap:round;stroke-linejoin:round;stroke-miterlimit:4;stroke-dasharray:none;stroke-opacity:1"
         inkscape:connector-curvature="0" />
      <g
         id="g940"
         clip-path="url(#clipEmfPath5)">
        <text
           id="text938"
           y="0"
           x="0"
           transform="translate(332.27862,326.60206)"
           style="font-style:normal;font-variant:normal;font-weight:400;font-size:13.375px;line-height:125%;font-family:Arial;text-align:start;letter-spacing:0px;word-spacing:0px;text-anchor:start;fill:#000000;fill-opacity:1;stroke:none"
           xml:space="preserve"><tspan
             id="tspan936"
             y="0"
             x="0"
             sodipodi:role="line"><tspan
               id="tspan932"
               style="font-style:normal;font-variant:normal;font-weight:400;font-size:13.375px;font-family:Arial;fill:#000000"
               dy="0"
               dx="0">Removed</tspan><tspan
               id="tspan934"
               style="font-style:normal;font-variant:normal;font-weight:400;font-size:16px;font-family:Arial;fill:#000000"
               dy="0"
               dx="-0.23667499"> </tspan></tspan></text>
      </g>
      <path
         id="path942"
         d="m 173.02514,118.66808 v 8.99455 h -2.99819 v -8.99455 z m 0,11.99273 v 8.22502 h -2.99819 v -8.22502 z m 2.99818,6.72593 -4.49728,8.99454 -4.49727,-8.99454 z"
         style="fill:#4579b8;fill-opacity:1;fill-rule:nonzero;stroke:#4579b8;stroke-width:0.07995155px;stroke-linecap:butt;stroke-linejoin:bevel;stroke-miterlimit:4;stroke-dasharray:none;stroke-opacity:1"
         inkscape:connector-curvature="0" />
      <path
         id="path944"
         d="m 173.02514,194.35221 v 20.21775 h -2.99819 v -20.21775 z m 2.99818,18.71866 -4.49728,8.99454 -4.49727,-8.99454 z"
         style="fill:#4579b8;fill-opacity:1;fill-rule:nonzero;stroke:#4579b8;stroke-width:0.07995155px;stroke-linecap:butt;stroke-linejoin:bevel;stroke-miterlimit:4;stroke-dasharray:none;stroke-opacity:1"
         inkscape:connector-curvature="0" />
      <path
         id="path946"
         d="m 173.02514,270.03634 v 20.22774 h -2.99819 v -20.22774 z m 2.99818,18.72865 -4.49728,8.99455 -4.49727,-8.99455 z"
         style="fill:#4579b8;fill-opacity:1;fill-rule:nonzero;stroke:#4579b8;stroke-width:0.07995155px;stroke-linecap:butt;stroke-linejoin:bevel;stroke-miterlimit:4;stroke-dasharray:none;stroke-opacity:1"
         inkscape:connector-curvature="0" />
      <path
         id="path948"
         d="m 223.50454,320.24591 h 8.99455 v 2.99818 h -8.99455 z m 11.99273,0.02 h 8.99455 v 2.99818 h -8.99455 z m 11.99274,0 h 8.99454 v 2.99818 h -8.99454 z m 11.99273,0.02 h 8.99455 v 2.99818 h -8.99455 z m 11.99273,0 h 8.99455 v 2.99818 h -8.99455 z m 11.99273,0 8.99455,0.02 v 2.99818 l -8.99455,-0.02 z m 11.99273,0.02 h 5.83647 l -0.02,2.99818 h -5.81648 z m 4.33737,-2.99819 8.97456,4.49728 -8.99454,4.49727 z"
         style="fill:#4579b8;fill-opacity:1;fill-rule:nonzero;stroke:#4579b8;stroke-width:0.07995155px;stroke-linecap:butt;stroke-linejoin:bevel;stroke-miterlimit:4;stroke-dasharray:none;stroke-opacity:1"
         inkscape:connector-curvature="0" />
      <path
         id="path950"
         d="m 301.7771,70.697153 c -4.39733,0 -7.99515,3.577832 -7.99515,7.995155 v 31.980622 c 0,4.41732 3.59782,7.99515 7.99515,7.99515 h 135.45791 c 4.41732,0 7.99515,-3.57783 7.99515,-7.99515 V 78.692308 c 0,-4.417323 -3.57783,-7.995155 -7.99515,-7.995155 z"
         style="fill:#f2f2f2;fill-opacity:1;fill-rule:evenodd;stroke:none"
         inkscape:connector-curvature="0" />
      <path
         id="path952"
         d="m 301.7771,70.697153 c -4.39733,0 -7.99515,3.577832 -7.99515,7.995155 v 31.980622 c 0,4.41732 3.59782,7.99515 7.99515,7.99515 h 135.45791 c 4.41732,0 7.99515,-3.57783 7.99515,-7.99515 V 78.692308 c 0,-4.417323 -3.57783,-7.995155 -7.99515,-7.995155 z"
         style="fill:none;stroke:#243f60;stroke-width:2.65838885px;stroke-linecap:round;stroke-linejoin:round;stroke-miterlimit:4;stroke-dasharray:none;stroke-opacity:1"
         inkscape:connector-curvature="0" />
      <g
         id="g962"
         clip-path="url(#clipEmfPath6)">
        <text
           id="text960"
           y="0"
           x="0"
           transform="translate(319.56632,99.37977)"
           style="font-style:normal;font-variant:normal;font-weight:400;font-size:13.375px;line-height:125%;font-family:Arial;text-align:start;letter-spacing:0px;word-spacing:0px;text-anchor:start;fill:#000000;fill-opacity:1;stroke:none"
           xml:space="preserve"><tspan
             id="tspan958"
             y="0"
             x="0"
             sodipodi:role="line"><tspan
               id="tspan954"
               style="font-style:normal;font-variant:normal;font-weight:400;font-size:13.375px;font-family:Arial;fill:#000000"
               dy="0"
               dx="0">InstallationFailed</tspan><tspan
               id="tspan956"
               style="font-style:normal;font-variant:normal;font-weight:400;font-size:16px;font-family:Arial;fill:#000000"
               dy="0"
               dx="-0.43184599"> </tspan></tspan></text>
      </g>
      <path
         id="path964"
         d="m 223.49455,93.183525 h 8.99455 v 2.998183 h -8.99455 z m 11.99273,0 h 8.99455 v 2.998183 h -8.99455 z m 11.99273,0 h 8.99455 v 2.998183 h -8.99455 z m 11.99273,0 h 8.99455 v 2.998183 h -8.99455 z m 11.99274,0 h 8.99454 v 2.998183 h -8.99454 z m 11.99273,0 h 2.82828 v 2.998183 h -2.82828 z m 1.32919,-2.998183 8.99455,4.497275 -8.99455,4.497274 z"
         style="fill:#4579b8;fill-opacity:1;fill-rule:nonzero;stroke:#4579b8;stroke-width:0.07995155px;stroke-linecap:butt;stroke-linejoin:bevel;stroke-miterlimit:4;stroke-dasharray:none;stroke-opacity:1"
         inkscape:connector-curvature="0" />
      <path
         id="path966"
         d="m 231.19988,169.69715 3.07813,0.50969 2.19867,0.58965 2.10872,0.66959 2.05876,0.74955 2.03876,0.83949 1.98879,0.91944 1.94882,0.9994 1.90885,1.07934 1.84888,1.13931 1.78891,1.21926 1.73895,1.27923 1.67898,1.32919 1.60902,1.39915 1.52908,1.45912 1.45911,1.49909 1.37917,1.54906 1.29921,1.59903 1.19927,1.62901 1.11933,1.68898 1.01938,1.70897 0.91944,1.73894 0.80951,1.77892 0.69958,1.79891 0.57964,1.82889 0.25985,0.93944 0.21986,0.92943 0.17989,0.92944 0.14991,0.92944 0.11993,0.93943 0.0899,0.92943 0.05,0.94943 0.02,0.93943 -0.01,0.93943 -0.05,0.94942 -0.0899,0.92944 -0.10993,0.92944 -0.13991,0.93943 -0.17989,0.92943 -0.44973,1.8289 -0.55966,1.82889 -0.67959,1.79891 -0.77953,1.77892 -0.88946,1.74894 -0.9894,1.71896 -1.07935,1.67898 -1.16929,1.649 -1.25923,1.59903 -1.33919,1.55906 -1.40915,1.49909 -1.4891,1.45911 -1.56904,1.39916 -1.61902,1.33918 -1.67899,1.27923 -1.74894,1.21926 -1.79891,1.1493 -1.84888,1.07935 -1.88885,0.99939 -1.93883,0.91945 -1.9688,0.84948 -2.00878,0.74955 -2.03877,0.66959 -2.05875,0.57965 -2.08874,0.47971 -2.10872,0.37977 -2.11871,0.27983 -2.13871,0.1699 -2.1387,0.05 -0.07,-2.98819 1.96881,-0.05 1.98879,-0.15991 1.9788,-0.24984 1.95882,-0.34979 1.95881,-0.44973 1.93882,-0.53967 1.90885,-0.62962 1.88885,-0.69958 1.85888,-0.78952 1.82889,-0.86947 1.78891,-0.94943 1.73895,-1.00938 1.68898,-1.07935 1.649,-1.13931 1.58903,-1.20927 1.52908,-1.26923 1.46911,-1.3092 1.39915,-1.35918 1.32919,-1.41914 1.25924,-1.44912 1.16929,-1.4891 1.08934,-1.52907 0.9994,-1.53907 0.91944,-1.57904 0.80951,-1.60903 0.72955,-1.62901 0.61963,-1.62901 0.50969,-1.649 0.40975,-1.67899 0.15991,-0.82949 0.13991,-0.8295 0.0999,-0.84949 0.07,-0.82949 0.05,-0.8295 0.02,-0.8295 -0.02,-0.83949 -0.04,-0.8195 -0.08,-0.84949 -0.10993,-0.8195 -0.12992,-0.83949 -0.1699,-0.8295 -0.18989,-0.8295 -0.20987,-0.80951 -0.52968,-1.649 -0.62962,-1.639 -0.73955,-1.62902 -0.83949,-1.60902 -0.93943,-1.58904 -1.02938,-1.55905 -1.12931,-1.51908 -1.19928,-1.4891 -1.29921,-1.45912 -1.35917,-1.41914 -1.44913,-1.35917 -1.50908,-1.3192 -1.56905,-1.26923 -1.649,-1.20927 -1.68898,-1.1493 -1.74894,-1.07935 -1.78891,-1.01938 -1.84888,-0.94943 -1.87886,-0.86947 -1.91884,-0.78952 -1.94882,-0.71957 -1.96881,-0.62961 -1.90884,-0.51969 -3.08813,-0.51968 z m 0.75954,6.1063 -8.46487,-5.4367 9.42429,-3.50788 z"
         style="fill:#4579b8;fill-opacity:1;fill-rule:nonzero;stroke:#4579b8;stroke-width:0.07995155px;stroke-linecap:butt;stroke-linejoin:bevel;stroke-miterlimit:4;stroke-dasharray:none;stroke-opacity:1"
         inkscape:connector-curvature="0" />
      <path
         id="path968"
         d="m 120.84676,171.86584 -1.89885,-0.05 -1.98879,-0.1699 -1.97881,-0.27983 -1.95881,-0.36977 -1.93882,-0.47971 -1.91884,-0.57965 -1.89885,-0.6696 -1.85887,-0.75954 -1.82889,-0.83949 -1.79891,-0.92943 -1.75894,-1.00939 -1.708962,-1.07935 -1.668989,-1.1493 -1.619018,-1.20927 -1.559055,-1.28922 -1.509086,-1.33919 -1.449122,-1.39915 -1.36917,-1.45911 -1.3192,-1.50909 -1.239249,-1.53907 -1.159298,-1.60902 -1.089339,-1.62901 -0.999395,-1.68898 -0.909449,-1.69897 -0.819503,-1.74894 -0.729558,-1.76893 -0.629618,-1.79891 -0.519685,-1.82889 -0.409752,-1.82889 -0.309812,-1.84888 -0.179891,-1.85887 -0.06996,-1.86887 0.05996,-1.87886 0.169897,-1.85888 0.289824,-1.85887 0.399758,-1.83888 0.499697,-1.80891 0.599637,-1.8089 0.699576,-1.76893 0.789521,-1.74894 0.889461,-1.70896 0.959419,-1.67899 1.049364,-1.649 1.119321,-1.59903 1.199274,-1.55905 1.26923,-1.4991 1.329195,-1.45911 1.399152,-1.39915 1.449122,-1.34919 1.509085,-1.28921 1.569049,-1.21926 1.609025,-1.14931 1.658994,-1.079344 1.69897,-1.009388 1.73894,-0.929437 1.77892,-0.849485 1.79891,-0.75954 1.8289,-0.679588 1.86886,-0.579649 c 0.06,-0.01999 0.13992,-0.03998 0.20988,-0.04997 l 1.71895,-0.269837 0.45973,2.968201 -1.71896,0.269837 0.20987,-0.04997 -1.70896,0.529679 -1.69897,0.619624 -1.68898,0.70957 -1.649,0.779527 -1.61902,0.86947 -1.58904,0.93944 -1.549054,1.00938 -1.519079,1.07935 -1.459116,1.13931 -1.41914,1.19927 -1.36917,1.25924 -1.299213,1.30921 -1.259237,1.36917 -1.179285,1.40914 -1.119322,1.44912 -1.049364,1.4891 -0.979406,1.51908 -0.899455,1.55906 -0.819503,1.57904 -0.729558,1.60902 -0.639612,1.62902 -0.559661,1.639 -0.459722,1.66899 -0.369775,1.659 -0.259843,1.66898 -0.169897,1.67899 -0.04997,1.66899 0.04997,1.67898 0.169897,1.67898 0.259843,1.66899 0.379769,1.67898 0.469716,1.659 0.569654,1.639 0.659601,1.62902 0.759539,1.60902 0.849486,1.58904 0.919442,1.55905 0.999395,1.52908 1.089339,1.48909 1.159298,1.45912 1.219261,1.40914 1.289218,1.35918 1.359177,1.3192 1.409146,1.26923 1.459115,1.19928 1.51908,1.1493 1.559055,1.07934 1.609021,1.00939 1.63901,0.93943 1.67898,0.86948 1.70896,0.78952 1.73895,0.70957 1.75893,0.62962 1.77893,0.52968 1.77892,0.44972 1.81889,0.34979 1.80891,0.25984 1.8089,0.15991 1.90885,0.06 z m -10.81345,-80.381285 9.52423,3.198062 -8.27498,5.706543 z"
         style="fill:#4579b8;fill-opacity:1;fill-rule:nonzero;stroke:#4579b8;stroke-width:0.07995155px;stroke-linecap:butt;stroke-linejoin:bevel;stroke-miterlimit:4;stroke-dasharray:none;stroke-opacity:1"
         inkscape:connector-curvature="0" />
      <g
         id="g978"
         clip-path="url(#clipEmfPath7)">
        <text
           id="text976"
           y="0"
           x="0"
           transform="translate(284.14779,213.23077)"
           style="font-style:normal;font-variant:normal;font-weight:400;font-size:14.625px;line-height:125%;font-family:Calibri;text-align:start;letter-spacing:0px;word-spacing:0px;text-anchor:start;fill:#000000;fill-opacity:1;stroke:none"
           xml:space="preserve"><tspan
             id="tspan974"
             y="0"
             x="0"
             sodipodi:role="line"><tspan
               id="tspan970"
               style="font-style:normal;font-variant:normal;font-weight:400;font-size:14.625px;font-family:Calibri;fill:#000000"
               dy="0"
               dx="0">Deactivate / Error</tspan><tspan
               id="tspan972"
               style="font-style:normal;font-variant:normal;font-weight:400;font-size:14.625px;font-family:Calibri;fill:#000000"
               dy="0"
               dx="0.25865901"> </tspan></tspan></text>
      </g>
      <g
         id="g988"
         clip-path="url(#clipEmfPath8)">
        <text
           id="text986"
           y="0"
           x="0"
           transform="translate(113.93095,211.15203)"
           style="font-style:normal;font-variant:normal;font-weight:400;font-size:13.375px;line-height:125%;font-family:Arial;text-align:start;letter-spacing:0px;word-spacing:0px;text-anchor:start;fill:#000000;fill-opacity:1;stroke:none"
           xml:space="preserve"><tspan
             id="tspan984"
             y="0"
             x="0"
             sodipodi:role="line"><tspan
               id="tspan980"
               style="font-style:normal;font-variant:normal;font-weight:400;font-size:13.375px;font-family:Arial;fill:#000000"
               dy="0"
               dx="0">Activate</tspan><tspan
               id="tspan982"
               style="font-style:normal;font-variant:normal;font-weight:400;font-size:16px;font-family:Arial;fill:#000000"
               dy="0"
               dx="0"> </tspan></tspan></text>
      </g>
      <g
         id="g1000"
         clip-path="url(#clipEmfPath9)">
        <text
           id="text998"
           y="0"
           x="0"
           transform="translate(110.25318,287.2659)"
           style="font-style:normal;font-variant:normal;font-weight:400;font-size:13.375px;line-height:125%;font-family:Arial;text-align:start;letter-spacing:0px;word-spacing:0px;text-anchor:start;fill:#000000;fill-opacity:1;stroke:none"
           xml:space="preserve"><tspan
             id="tspan996"
             y="0"
             x="0"
             sodipodi:role="line"><tspan
               id="tspan990"
               style="font-style:normal;font-variant:normal;font-weight:400;font-size:13.375px;font-family:Arial;fill:#000000"
               dy="0"
               dx="0">Un</tspan><tspan
               id="tspan992"
               style="font-style:normal;font-variant:normal;font-weight:400;font-size:13.375px;font-family:Arial;fill:#000000"
               dy="0"
               dx="0">install</tspan><tspan
               id="tspan994"
               style="font-style:normal;font-variant:normal;font-weight:400;font-size:16px;font-family:Arial;fill:#000000"
               dy="0"
               dx="-0.215662"> </tspan></tspan></text>
      </g>
      <g
         id="g1010"
         clip-path="url(#clipEmfPath10)">
        <text
           id="text1008"
           y="0"
           x="0"
           transform="translate(25.34464,137.83646)"
           style="font-style:normal;font-variant:normal;font-weight:400;font-size:13.375px;line-height:125%;font-family:Arial;text-align:start;letter-spacing:0px;word-spacing:0px;text-anchor:start;fill:#000000;fill-opacity:1;stroke:none"
           xml:space="preserve"><tspan
             id="tspan1006"
             y="0"
             x="0"
             sodipodi:role="line"><tspan
               id="tspan1002"
               style="font-style:normal;font-variant:normal;font-weight:400;font-size:13.375px;font-family:Arial;fill:#000000"
               dy="0"
               dx="0">Update</tspan><tspan
               id="tspan1004"
               style="font-style:normal;font-variant:normal;font-weight:400;font-size:16px;font-family:Arial;fill:#000000"
               dy="0"
               dx="0"> </tspan></tspan></text>
      </g>
      <g
         id="g1020"
         clip-path="url(#clipEmfPath11)">
        <text
           id="text1018"
           y="0"
           x="0"
           transform="translate(126.00363,49.889764)"
           style="font-style:normal;font-variant:normal;font-weight:400;font-size:13.375px;line-height:125%;font-family:Arial;text-align:start;letter-spacing:0px;word-spacing:0px;text-anchor:start;fill:#000000;fill-opacity:1;stroke:none"
           xml:space="preserve"><tspan
             id="tspan1016"
             y="0"
             x="0"
             sodipodi:role="line"><tspan
               id="tspan1012"
               style="font-style:normal;font-variant:normal;font-weight:400;font-size:13.375px;font-family:Arial;fill:#000000"
               dy="0"
               dx="0">Install</tspan><tspan
               id="tspan1014"
               style="font-style:normal;font-variant:normal;font-weight:400;font-size:16px;font-family:Arial;fill:#000000"
               dy="0"
               dx="0"> </tspan></tspan></text>
      </g>
      <g
         id="g1030"
         clip-path="url(#clipEmfPath12)">
        <text
           id="text1028"
           y="0"
           x="0"
           transform="translate(110.25318,136.87704)"
           style="font-style:normal;font-variant:normal;font-weight:400;font-size:13.375px;line-height:125%;font-family:Arial;text-align:start;letter-spacing:0px;word-spacing:0px;text-anchor:start;fill:#000000;fill-opacity:1;stroke:none"
           xml:space="preserve"><tspan
             id="tspan1026"
             y="0"
             x="0"
             sodipodi:role="line"><tspan
               id="tspan1022"
               style="font-style:normal;font-variant:normal;font-weight:400;font-size:13.375px;font-family:Arial;fill:#000000"
               dy="0"
               dx="0">Success</tspan><tspan
               id="tspan1024"
               style="font-style:normal;font-variant:normal;font-weight:400;font-size:16px;font-family:Arial;fill:#000000"
               dy="0"
               dx="0"> </tspan></tspan></text>
      </g>
      <g
         id="g1040"
         clip-path="url(#clipEmfPath13)">
        <text
           id="text1038"
           y="0"
           x="0"
           transform="translate(254.64567,60.363416)"
           style="font-style:normal;font-variant:normal;font-weight:400;font-size:13.375px;line-height:125%;font-family:Arial;text-align:start;letter-spacing:0px;word-spacing:0px;text-anchor:start;fill:#000000;fill-opacity:1;stroke:none"
           xml:space="preserve"><tspan
             id="tspan1036"
             y="0"
             x="0"
             sodipodi:role="line"><tspan
               id="tspan1032"
               style="font-style:normal;font-variant:normal;font-weight:400;font-size:13.375px;font-family:Arial;fill:#000000"
               dy="0"
               dx="0">Failure</tspan><tspan
               id="tspan1034"
               style="font-style:normal;font-variant:normal;font-weight:400;font-size:16px;font-family:Arial;fill:#000000"
               dy="0"
               dx="0"> </tspan></tspan></text>
      </g>
      <g
         id="g1050"
         clip-path="url(#clipEmfPath14)">
        <text
           id="text1048"
           y="0"
           x="0"
           transform="translate(272.79467,269.19685)"
           style="font-style:normal;font-variant:normal;font-weight:400;font-size:13.375px;line-height:125%;font-family:Arial;text-align:start;letter-spacing:0px;word-spacing:0px;text-anchor:start;fill:#000000;fill-opacity:1;stroke:none"
           xml:space="preserve"><tspan
             id="tspan1046"
             y="0"
             x="0"
             sodipodi:role="line"><tspan
               id="tspan1042"
               style="font-style:normal;font-variant:normal;font-weight:400;font-size:13.375px;font-family:Arial;fill:#000000"
               dy="0"
               dx="0">Completion</tspan><tspan
               id="tspan1044"
               style="font-style:normal;font-variant:normal;font-weight:400;font-size:16px;font-family:Arial;fill:#000000"
               dy="0"
               dx="-0.25300899"> </tspan></tspan></text>
      </g>
    </g>
  </g>
</svg>
