<?xml version="1.0" encoding="UTF-8" standalone="no"?>
<!-- Created with Inkscape (http://www.inkscape.org/) -->

<svg
   xmlns:dc="http://purl.org/dc/elements/1.1/"
   xmlns:cc="http://creativecommons.org/ns#"
   xmlns:rdf="http://www.w3.org/1999/02/22-rdf-syntax-ns#"
   xmlns:svg="http://www.w3.org/2000/svg"
   xmlns="http://www.w3.org/2000/svg"
   xmlns:sodipodi="http://sodipodi.sourceforge.net/DTD/sodipodi-0.dtd"
   xmlns:inkscape="http://www.inkscape.org/namespaces/inkscape"
   width="111.1682mm"
   height="91.507607mm"
   viewBox="0 0 111.1682 91.507607"
   version="1.1"
   id="svg8"
   inkscape:version="0.92.4 (5da689c313, 2019-01-14)"
   sodipodi:docname="states.svg">
  <defs
     id="defs2">
    <clipPath
       id="clipEmfPath1"
       clipPathUnits="userSpaceOnUse">
      <path
         id="path815"
         d="m 122.72562,78.592368 h 97.78074 v 32.300422 h -97.78074 z"
         inkscape:connector-curvature="0" />
    </clipPath>
    <clipPath
       id="clipEmfPath2"
       clipPathUnits="userSpaceOnUse">
      <path
         id="path818"
         d="m 122.72562,154.30648 h 97.78074 v 32.22047 h -97.78074 z"
         inkscape:connector-curvature="0" />
    </clipPath>
    <clipPath
       id="clipEmfPath3"
       clipPathUnits="userSpaceOnUse">
      <path
         id="path821"
         d="m 122.72562,230.02059 h 97.78074 v 32.22048 h -97.78074 z"
         inkscape:connector-curvature="0" />
    </clipPath>
    <clipPath
       id="clipEmfPath4"
       clipPathUnits="userSpaceOnUse">
      <path
         id="path824"
         d="m 122.72562,305.65475 h 97.78074 v 32.30043 h -97.78074 z"
         inkscape:connector-curvature="0" />
    </clipPath>
    <clipPath
       id="clipEmfPath5"
       clipPathUnits="userSpaceOnUse">
      <path
         id="path827"
         d="m 311.89098,305.73471 h 97.86069 v 32.22047 h -97.86069 z"
         inkscape:connector-curvature="0" />
    </clipPath>
    <clipPath
       id="clipEmfPath6"
       clipPathUnits="userSpaceOnUse">
      <path
         id="path830"
         d="M 296.94004,78.592368 H 442.21199 V 110.89279 H 296.94004 Z"
         inkscape:connector-curvature="0" />
    </clipPath>
    <clipPath
       id="clipEmfPath7"
       clipPathUnits="userSpaceOnUse">
      <path
         id="path833"
         d="m 274.5536,199.23925 h 125.36403 v 25.66444 H 274.5536 Z"
         inkscape:connector-curvature="0" />
    </clipPath>
    <clipPath
       id="clipEmfPath8"
       clipPathUnits="userSpaceOnUse">
      <path
         id="path836"
         d="m 104.33677,198.75954 h 66.59963 v 25.7444 h -66.59963 z"
         inkscape:connector-curvature="0" />
    </clipPath>
    <clipPath
       id="clipEmfPath9"
       clipPathUnits="userSpaceOnUse">
      <path
         id="path839"
         d="m 100.65899,274.87341 h 70.27741 v 25.7444 h -70.27741 z"
         inkscape:connector-curvature="0" />
    </clipPath>
    <clipPath
       id="clipEmfPath10"
       clipPathUnits="userSpaceOnUse">
      <path
         id="path842"
         d="m 15.670503,125.44397 h 62.202301 v 25.7444 H 15.670503 Z"
         inkscape:connector-curvature="0" />
    </clipPath>
    <clipPath
       id="clipEmfPath11"
       clipPathUnits="userSpaceOnUse">
      <path
         id="path845"
         d="m 116.3295,37.417323 h 54.04724 V 63.081769 H 116.3295 Z"
         inkscape:connector-curvature="0" />
    </clipPath>
    <clipPath
       id="clipEmfPath12"
       clipPathUnits="userSpaceOnUse">
      <path
         id="path848"
         d="m 100.65899,124.4046 h 69.55785 v 25.7444 h -69.55785 z"
         inkscape:connector-curvature="0" />
    </clipPath>
    <clipPath
       id="clipEmfPath13"
       clipPathUnits="userSpaceOnUse">
      <path
         id="path851"
         d="m 245.05148,47.970927 h 59.96366 v 41.4149 h -59.96366 z"
         inkscape:connector-curvature="0" />
    </clipPath>
    <clipPath
       id="clipEmfPath14"
       clipPathUnits="userSpaceOnUse">
      <path
         id="path854"
         d="m 263.20048,256.80436 h 86.58753 v 68.03877 h -86.58753 z"
         inkscape:connector-curvature="0" />
    </clipPath>
    <pattern
       y="0"
       x="0"
       height="6"
       width="6"
       patternUnits="userSpaceOnUse"
       id="EMFhbasepattern" />
  </defs>
  <sodipodi:namedview
     id="base"
     pagecolor="#ffffff"
     bordercolor="#666666"
     borderopacity="1.0"
     inkscape:pageopacity="0.0"
     inkscape:pageshadow="2"
     inkscape:zoom="0.7"
     inkscape:cx="-358.51016"
     inkscape:cy="7.0461765"
     inkscape:document-units="mm"
     inkscape:current-layer="layer1"
     showgrid="false"
     inkscape:window-width="1920"
     inkscape:window-height="1017"
     inkscape:window-x="-8"
     inkscape:window-y="-8"
     inkscape:window-maximized="1"
     fit-margin-top="0"
     fit-margin-left="0"
     fit-margin-right="0"
     fit-margin-bottom="0"
     units="mm" />
  <metadata
     id="metadata5">
    <rdf:RDF>
      <cc:Work
         rdf:about="">
        <dc:format>image/svg+xml</dc:format>
        <dc:type
           rdf:resource="http://purl.org/dc/dcmitype/StillImage" />
        <dc:title></dc:title>
      </cc:Work>
    </rdf:RDF>
  </metadata>
  <g
     inkscape:label="Layer 1"
     inkscape:groupmode="layer"
     id="layer1"
     transform="translate(-15.187646,-4.8057204)">
    <path
       inkscape:connector-curvature="0"
       style="fill:#f2f2f2;fill-opacity:1;fill-rule:evenodd;stroke:none;stroke-width:0.26458332"
       d="m 53.446468,5.1587605 c -1.753126,0 -3.173079,1.4463942 -3.173079,3.2259616 0,1.7822109 1.419953,3.2259609 3.173079,3.2259609 1.753124,0 3.173077,-1.44375 3.173077,-3.2259609 0,-1.7795674 -1.419953,-3.2259616 -3.173077,-3.2259616 z"
       id="path866" />
    <path
       inkscape:connector-curvature="0"
       style="fill:none;stroke:#243f60;stroke-width:0.70600963px;stroke-linecap:round;stroke-linejoin:round;stroke-miterlimit:4;stroke-dasharray:none;stroke-opacity:1"
       d="m 53.446468,5.1587605 c -1.753126,0 -3.173079,1.4463942 -3.173079,3.2259616 0,1.7822109 1.419953,3.2259609 3.173079,3.2259609 1.753124,0 3.173077,-1.44375 3.173077,-3.2259609 0,-1.7795674 -1.419953,-3.2259616 -3.173077,-3.2259616"
       id="path868" />
    <path
       inkscape:connector-curvature="0"
       style="fill:#f2f2f2;fill-opacity:1;fill-rule:evenodd;stroke:none;stroke-width:0.26458332"
       d="m 41.951998,23.176549 c -1.168752,0 -2.115386,0.946634 -2.115386,2.115384 v 8.46154 c 0,1.168749 0.946634,2.115383 2.115386,2.115383 h 23.269228 c 1.168752,0 2.115386,-0.946634 2.115386,-2.115383 v -8.46154 c 0,-1.16875 -0.946634,-2.115384 -2.115386,-2.115384 z"
       id="path870" />
    <path
       inkscape:connector-curvature="0"
       style="fill:none;stroke:#243f60;stroke-width:0.70600963px;stroke-linecap:round;stroke-linejoin:round;stroke-miterlimit:4;stroke-dasharray:none;stroke-opacity:1"
       d="m 41.951998,23.176549 c -1.168752,0 -2.115386,0.946634 -2.115386,2.115384 v 8.46154 c 0,1.168749 0.946634,2.115383 2.115386,2.115383 h 23.269228 c 1.168752,0 2.115386,-0.946634 2.115386,-2.115383 v -8.46154 c 0,-1.16875 -0.946634,-2.115384 -2.115386,-2.115384 z"
       id="path872" />
    <g
       clip-path="url(#clipEmfPath1)"
       id="g882"
       transform="matrix(0.26458333,0,0,0.26458333,8.2036795,4.4712605)">
      <text
         xml:space="preserve"
         style="font-style:normal;font-variant:normal;font-weight:400;font-size:13.375px;line-height:125%;font-family:Arial;text-align:start;letter-spacing:0px;word-spacing:0px;text-anchor:start;fill:#000000;fill-opacity:1;stroke:none"
         transform="translate(145.27196,99.37977)"
         x="0"
         y="0"
         id="text880"><tspan
           sodipodi:role="line"
           x="0"
           y="0"
           id="tspan878"><tspan
             dx="0"
             dy="0"
             style="font-style:normal;font-variant:normal;font-weight:400;font-size:13.375px;font-family:Arial;fill:#000000"
             id="tspan874">Installing</tspan><tspan
             dx="0"
             dy="0"
             style="font-style:normal;font-variant:normal;font-weight:400;font-size:16px;font-family:Arial;fill:#000000"
             id="tspan876"> </tspan></tspan></text>
    </g>
    <path
       inkscape:connector-curvature="0"
       style="fill:#4579b8;fill-opacity:1;fill-rule:nonzero;stroke:#4579b8;stroke-width:0.02115385px;stroke-linecap:butt;stroke-linejoin:bevel;stroke-miterlimit:4;stroke-dasharray:none;stroke-opacity:1"
       d="m 53.843103,11.608039 0.116345,9.580048 -0.793269,0.01058 -0.116347,-9.582692 z m 0.904327,9.172837 -1.16082,2.395673 -1.218988,-2.366587 z"
       id="path884" />
    <path
       inkscape:connector-curvature="0"
       style="fill:#f2f2f2;fill-opacity:1;fill-rule:evenodd;stroke:none;stroke-width:0.26458332"
       d="m 41.951998,43.201307 c -1.168752,0 -2.115386,0.946637 -2.115386,2.115386 v 8.461539 c 0,1.168749 0.946634,2.115383 2.115386,2.115383 h 23.269228 c 1.168752,0 2.115386,-0.946634 2.115386,-2.115383 v -8.461539 c 0,-1.168749 -0.946634,-2.115386 -2.115386,-2.115386 z"
       id="path886" />
    <path
       inkscape:connector-curvature="0"
       style="fill:none;stroke:#243f60;stroke-width:0.70600963px;stroke-linecap:round;stroke-linejoin:round;stroke-miterlimit:4;stroke-dasharray:none;stroke-opacity:1"
       d="m 41.951998,43.201307 c -1.168752,0 -2.115386,0.946637 -2.115386,2.115386 v 8.461539 c 0,1.168749 0.946634,2.115383 2.115386,2.115383 h 23.269228 c 1.168752,0 2.115386,-0.946634 2.115386,-2.115383 v -8.461539 c 0,-1.168749 -0.946634,-2.115386 -2.115386,-2.115386 z"
       id="path888" />
    <g
       clip-path="url(#clipEmfPath2)"
       id="g898"
       transform="matrix(0.26458333,0,0,0.26458333,8.2036795,4.4712605)">
      <text
         xml:space="preserve"
         style="font-style:normal;font-variant:normal;font-weight:400;font-size:13.375px;line-height:125%;font-family:Arial;text-align:start;letter-spacing:0px;word-spacing:0px;text-anchor:start;fill:#000000;fill-opacity:1;stroke:none"
         transform="translate(148.62992,175.17383)"
         x="0"
         y="0"
         id="text896"><tspan
           sodipodi:role="line"
           x="0"
           y="0"
           id="tspan894"><tspan
             dx="0"
             dy="0"
             style="font-style:normal;font-variant:normal;font-weight:400;font-size:13.375px;font-family:Arial;fill:#000000"
             id="tspan890">Inactive</tspan><tspan
             dx="-0.20193"
             dy="0"
             style="font-style:normal;font-variant:normal;font-weight:400;font-size:16px;font-family:Arial;fill:#000000"
             id="tspan892"> </tspan></tspan></text>
    </g>
    <path
       inkscape:connector-curvature="0"
       style="fill:#f2f2f2;fill-opacity:1;fill-rule:evenodd;stroke:none;stroke-width:0.26458332"
       d="m 41.951998,63.226066 c -1.168752,0 -2.115386,0.94928 -2.115386,2.115386 v 8.461539 c 0,1.168749 0.946634,2.115384 2.115386,2.115384 h 23.269228 c 1.168752,0 2.115386,-0.946635 2.115386,-2.115384 v -8.461539 c 0,-1.166106 -0.946634,-2.115386 -2.115386,-2.115386 z"
       id="path900" />
    <path
       inkscape:connector-curvature="0"
       style="fill:none;stroke:#243f60;stroke-width:0.70600963px;stroke-linecap:round;stroke-linejoin:round;stroke-miterlimit:4;stroke-dasharray:none;stroke-opacity:1"
       d="m 41.951998,63.226066 c -1.168752,0 -2.115386,0.94928 -2.115386,2.115386 v 8.461539 c 0,1.168749 0.946634,2.115384 2.115386,2.115384 h 23.269228 c 1.168752,0 2.115386,-0.946635 2.115386,-2.115384 v -8.461539 c 0,-1.166106 -0.946634,-2.115386 -2.115386,-2.115386 z"
       id="path902" />
    <g
       clip-path="url(#clipEmfPath3)"
       id="g912"
       transform="matrix(0.26458333,0,0,0.26458333,8.2036795,4.4712605)">
      <text
         xml:space="preserve"
         style="font-style:normal;font-variant:normal;font-weight:400;font-size:13.375px;line-height:125%;font-family:Arial;text-align:start;letter-spacing:0px;word-spacing:0px;text-anchor:start;fill:#000000;fill-opacity:1;stroke:none"
         transform="translate(153.42701,250.88795)"
         x="0"
         y="0"
         id="text910"><tspan
           sodipodi:role="line"
           x="0"
           y="0"
           id="tspan908"><tspan
             dx="0"
             dy="0"
             style="font-style:normal;font-variant:normal;font-weight:400;font-size:13.375px;font-family:Arial;fill:#000000"
             id="tspan904">Active</tspan><tspan
             dx="0"
             dy="0"
             style="font-style:normal;font-variant:normal;font-weight:400;font-size:16px;font-family:Arial;fill:#000000"
             id="tspan906"> </tspan></tspan></text>
    </g>
    <path
       inkscape:connector-curvature="0"
       style="fill:#f2f2f2;fill-opacity:1;fill-rule:evenodd;stroke:none;stroke-width:0.26458332"
       d="m 41.954641,83.253471 c -1.168749,0 -2.115386,0.946634 -2.115386,2.115384 v 8.461538 c 0,1.16875 0.946637,2.115387 2.115386,2.115387 h 23.269231 c 1.168749,0 2.115383,-0.946637 2.115383,-2.115387 v -8.461538 c 0,-1.16875 -0.946634,-2.115384 -2.115383,-2.115384 z"
       id="path914" />
    <path
       inkscape:connector-curvature="0"
       style="fill:none;stroke:#243f60;stroke-width:0.70336539px;stroke-linecap:round;stroke-linejoin:round;stroke-miterlimit:4;stroke-dasharray:none;stroke-opacity:1"
       d="m 41.954641,83.253471 c -1.168749,0 -2.115386,0.946634 -2.115386,2.115384 v 8.461538 c 0,1.16875 0.946637,2.115387 2.115386,2.115387 h 23.269231 c 1.168749,0 2.115383,-0.946637 2.115383,-2.115387 v -8.461538 c 0,-1.16875 -0.946634,-2.115384 -2.115383,-2.115384 z"
       id="path916" />
    <g
       clip-path="url(#clipEmfPath4)"
       id="g926"
       transform="matrix(0.26458333,0,0,0.26458333,8.2036795,4.4712605)">
      <text
         xml:space="preserve"
         style="font-style:normal;font-variant:normal;font-weight:400;font-size:13.375px;line-height:125%;font-family:Arial;text-align:start;letter-spacing:0px;word-spacing:0px;text-anchor:start;fill:#000000;fill-opacity:1;stroke:none"
         transform="translate(137.1169,326.44216)"
         x="0"
         y="0"
         id="text924"><tspan
           sodipodi:role="line"
           x="0"
           y="0"
           id="tspan922"><tspan
             dx="0"
             dy="0"
             style="font-style:normal;font-variant:normal;font-weight:400;font-size:13.375px;font-family:Arial;fill:#000000"
             id="tspan918">Uninstalling</tspan><tspan
             dx="-0.22294299"
             dy="0"
             style="font-style:normal;font-variant:normal;font-weight:400;font-size:16px;font-family:Arial;fill:#000000"
             id="tspan920"> </tspan></tspan></text>
    </g>
    <path
       inkscape:connector-curvature="0"
       style="fill:#f2f2f2;fill-opacity:1;fill-rule:evenodd;stroke:none;stroke-width:0.26458332"
       d="m 92.015217,83.269336 c -1.163463,0 -2.115386,0.951923 -2.115386,2.115386 v 8.461539 c 0,1.168749 0.951923,2.115383 2.115386,2.115383 h 23.269233 c 1.16875,0 2.11538,-0.946634 2.11538,-2.115383 v -8.461539 c 0,-1.163463 -0.94663,-2.115386 -2.11538,-2.115386 z"
       id="path928" />
    <path
       inkscape:connector-curvature="0"
       style="fill:none;stroke:#243f60;stroke-width:0.70336539px;stroke-linecap:round;stroke-linejoin:round;stroke-miterlimit:4;stroke-dasharray:none;stroke-opacity:1"
       d="m 92.015217,83.269336 c -1.163463,0 -2.115386,0.951923 -2.115386,2.115386 v 8.461539 c 0,1.168749 0.951923,2.115383 2.115386,2.115383 h 23.269233 c 1.16875,0 2.11538,-0.946634 2.11538,-2.115383 v -8.461539 c 0,-1.163463 -0.94663,-2.115386 -2.11538,-2.115386 z"
       id="path930" />
    <g
       clip-path="url(#clipEmfPath5)"
       id="g940"
       transform="matrix(0.26458333,0,0,0.26458333,8.2036795,4.4712605)">
      <text
         xml:space="preserve"
         style="font-style:normal;font-variant:normal;font-weight:400;font-size:13.375px;line-height:125%;font-family:Arial;text-align:start;letter-spacing:0px;word-spacing:0px;text-anchor:start;fill:#000000;fill-opacity:1;stroke:none"
         transform="translate(332.27862,326.60206)"
         x="0"
         y="0"
         id="text938"><tspan
           sodipodi:role="line"
           x="0"
           y="0"
           id="tspan936"><tspan
             dx="0"
             dy="0"
             style="font-style:normal;font-variant:normal;font-weight:400;font-size:13.375px;font-family:Arial;fill:#000000"
             id="tspan932">Removed</tspan><tspan
             dx="-0.23667499"
             dy="0"
             style="font-style:normal;font-variant:normal;font-weight:400;font-size:16px;font-family:Arial;fill:#000000"
             id="tspan934"> </tspan></tspan></text>
    </g>
    <path
       inkscape:connector-curvature="0"
       style="fill:#4579b8;fill-opacity:1;fill-rule:nonzero;stroke:#4579b8;stroke-width:0.02115385px;stroke-linecap:butt;stroke-linejoin:bevel;stroke-miterlimit:4;stroke-dasharray:none;stroke-opacity:1"
       d="m 53.983247,35.868856 v 2.379808 h -0.793271 v -2.379808 z m 0,3.173077 v 2.176203 h -0.793271 v -2.176203 z m 0.793269,1.779569 -1.189906,2.379805 -1.189902,-2.379805 z"
       id="path942" />
    <path
       inkscape:connector-curvature="0"
       style="fill:#4579b8;fill-opacity:1;fill-rule:nonzero;stroke:#4579b8;stroke-width:0.02115385px;stroke-linecap:butt;stroke-linejoin:bevel;stroke-miterlimit:4;stroke-dasharray:none;stroke-opacity:1"
       d="m 53.983247,55.893615 v 5.34928 h -0.793271 v -5.34928 z m 0.793269,4.952646 -1.189906,2.379805 -1.189902,-2.379805 z"
       id="path944" />
    <path
       inkscape:connector-curvature="0"
       style="fill:#4579b8;fill-opacity:1;fill-rule:nonzero;stroke:#4579b8;stroke-width:0.02115385px;stroke-linecap:butt;stroke-linejoin:bevel;stroke-miterlimit:4;stroke-dasharray:none;stroke-opacity:1"
       d="m 53.983247,75.918375 v 5.351922 h -0.793271 v -5.351922 z m 0.793269,4.955288 -1.189906,2.379808 -1.189902,-2.379808 z"
       id="path946" />
    <path
       inkscape:connector-curvature="0"
       style="fill:#4579b8;fill-opacity:1;fill-rule:nonzero;stroke:#4579b8;stroke-width:0.02115385px;stroke-linecap:butt;stroke-linejoin:bevel;stroke-miterlimit:4;stroke-dasharray:none;stroke-opacity:1"
       d="m 67.339255,89.20299 h 2.379808 v 0.793268 h -2.379808 z m 3.173076,0.0053 h 2.379808 v 0.793269 h -2.379808 z m 3.173079,0 h 2.379806 v 0.79326 H 73.68541 Z m 3.173077,0.0053 h 2.379808 v 0.793269 h -2.379808 z m 3.173076,0 h 2.379808 v 0.793269 h -2.379808 z m 3.173077,0 2.379808,0.0053 v 0.793268 l -2.379808,-0.0053 z m 3.173076,0.0053 h 1.544233 l -0.0053,0.793268 h -1.538943 z m 1.147596,-0.793271 2.374519,1.189905 -2.379805,1.189903 z"
       id="path948" />
    <path
       inkscape:connector-curvature="0"
       style="fill:#f2f2f2;fill-opacity:1;fill-rule:evenodd;stroke:none;stroke-width:0.26458332"
       d="m 88.04887,23.176549 c -1.163461,0 -2.115384,0.946634 -2.115384,2.115384 v 8.46154 c 0,1.168749 0.951923,2.115383 2.115384,2.115383 h 35.8399 c 1.16875,0 2.11539,-0.946634 2.11539,-2.115383 v -8.46154 c 0,-1.16875 -0.94664,-2.115384 -2.11539,-2.115384 z"
       id="path950" />
    <path
       inkscape:connector-curvature="0"
       style="fill:none;stroke:#243f60;stroke-width:0.70336539px;stroke-linecap:round;stroke-linejoin:round;stroke-miterlimit:4;stroke-dasharray:none;stroke-opacity:1"
       d="m 88.04887,23.176549 c -1.163461,0 -2.115384,0.946634 -2.115384,2.115384 v 8.46154 c 0,1.168749 0.951923,2.115383 2.115384,2.115383 h 35.8399 c 1.16875,0 2.11539,-0.946634 2.11539,-2.115383 v -8.46154 c 0,-1.16875 -0.94664,-2.115384 -2.11539,-2.115384 z"
       id="path952" />
    <g
       clip-path="url(#clipEmfPath6)"
       id="g962"
       transform="matrix(0.26458333,0,0,0.26458333,8.2036795,4.4712605)">
      <text
         xml:space="preserve"
         style="font-style:normal;font-variant:normal;font-weight:400;font-size:13.375px;line-height:125%;font-family:Arial;text-align:start;letter-spacing:0px;word-spacing:0px;text-anchor:start;fill:#000000;fill-opacity:1;stroke:none"
         transform="translate(319.56632,99.37977)"
         x="0"
         y="0"
         id="text960"><tspan
           sodipodi:role="line"
           x="0"
           y="0"
           id="tspan958"><tspan
             dx="0"
             dy="0"
             style="font-style:normal;font-variant:normal;font-weight:400;font-size:13.375px;font-family:Arial;fill:#000000"
             id="tspan954">InstallationFailed</tspan><tspan
             dx="-0.43184599"
             dy="0"
             style="font-style:normal;font-variant:normal;font-weight:400;font-size:16px;font-family:Arial;fill:#000000"
             id="tspan956"> </tspan></tspan></text>
    </g>
    <path
       inkscape:connector-curvature="0"
       style="fill:#4579b8;fill-opacity:1;fill-rule:nonzero;stroke:#4579b8;stroke-width:0.02115385px;stroke-linecap:butt;stroke-linejoin:bevel;stroke-miterlimit:4;stroke-dasharray:none;stroke-opacity:1"
       d="m 67.336612,29.126068 h 2.379808 v 0.793269 h -2.379808 z m 3.173076,0 h 2.379808 v 0.793269 h -2.379808 z m 3.173077,0 h 2.379808 v 0.793269 h -2.379808 z m 3.173076,0 h 2.379808 v 0.793269 h -2.379808 z m 3.173079,0 h 2.379806 v 0.793269 H 80.02892 Z m 3.173077,0 h 0.748315 v 0.793269 h -0.748315 z m 0.351681,-0.793269 2.379808,1.189904 -2.379808,1.189903 z"
       id="path964" />
    <path
       inkscape:connector-curvature="0"
       style="fill:#4579b8;fill-opacity:1;fill-rule:nonzero;stroke:#4579b8;stroke-width:0.02115385px;stroke-linecap:butt;stroke-linejoin:bevel;stroke-miterlimit:4;stroke-dasharray:none;stroke-opacity:1"
       d="m 69.375314,49.370298 0.814422,0.134855 0.581731,0.156012 0.557932,0.177162 0.544714,0.198318 0.539422,0.222115 0.5262,0.243269 0.515626,0.264425 0.505049,0.285575 0.489183,0.301442 0.473316,0.322596 0.460097,0.338463 0.44423,0.351682 0.42572,0.370191 0.404569,0.386059 0.386056,0.396634 0.364906,0.409856 0.343749,0.423077 0.317307,0.431008 0.296156,0.446876 0.269711,0.452165 0.243269,0.460095 0.214182,0.470673 0.185098,0.475961 0.153363,0.483894 0.06875,0.24856 0.05817,0.245912 0.0476,0.245914 0.03966,0.245914 0.03173,0.248558 0.02379,0.245912 0.01323,0.251203 0.0053,0.248557 -0.0026,0.248558 -0.01323,0.251201 -0.02379,0.245914 -0.02909,0.245914 -0.03702,0.248558 -0.0476,0.245912 -0.118991,0.483896 -0.148076,0.483894 -0.179808,0.475961 -0.206251,0.470673 -0.235336,0.46274 -0.261779,0.454809 -0.285578,0.44423 -0.309375,0.436298 -0.333171,0.423076 -0.354327,0.412502 -0.372838,0.396634 -0.393991,0.386056 -0.415142,0.370194 -0.428366,0.354325 -0.444232,0.338463 -0.462741,0.322596 -0.475961,0.304085 -0.489183,0.285579 -0.499758,0.264421 -0.512982,0.243272 -0.520912,0.224758 -0.53149,0.198318 -0.539424,0.177163 -0.544711,0.153365 -0.552646,0.126924 -0.557932,0.10048 -0.560576,0.07404 -0.565867,0.04495 -0.565864,0.01323 -0.01852,-0.790626 0.520914,-0.01323 0.526201,-0.04231 0.523558,-0.0661 0.518271,-0.09255 0.518268,-0.118991 0.51298,-0.142788 0.50505,-0.166587 0.499758,-0.185097 0.491828,-0.208894 0.483894,-0.230047 0.473316,-0.251204 0.460097,-0.267065 0.446876,-0.285578 0.436298,-0.301442 0.420431,-0.319953 0.404569,-0.335817 0.388702,-0.346393 0.370192,-0.359616 0.351681,-0.375481 0.333174,-0.383413 0.309375,-0.393991 0.288221,-0.404566 0.264425,-0.407212 0.243268,-0.417788 0.214183,-0.425723 0.193027,-0.431009 0.163944,-0.431008 0.134855,-0.436298 0.108413,-0.444233 0.04231,-0.219469 0.03702,-0.219472 0.02643,-0.224761 0.01852,-0.219469 0.01323,-0.219472 0.0053,-0.219472 -0.0053,-0.222115 -0.01058,-0.216826 -0.02117,-0.224761 -0.02908,-0.216826 -0.03437,-0.222115 -0.04495,-0.219472 -0.05024,-0.219472 -0.05553,-0.214183 -0.140144,-0.436298 -0.166587,-0.433652 -0.195673,-0.431011 -0.222115,-0.42572 L 77.704622,55.666211 77.432265,55.253713 77.133468,54.851789 76.816159,54.457798 76.47241,54.07174 76.112796,53.696259 75.72938,53.336645 75.330103,52.987607 74.914958,52.65179 74.47866,52.331837 74.031784,52.027751 73.569044,51.742173 73.095728,51.472462 72.606546,51.221259 72.10943,50.991212 71.601737,50.782318 71.086112,50.591932 70.565198,50.425347 70.060151,50.287846 69.243083,50.150347 Z m 0.200961,1.615625 -2.239663,-1.43846 2.49351,-0.928127 z"
       id="path966" />
    <path
       inkscape:connector-curvature="0"
       style="fill:#4579b8;fill-opacity:1;fill-rule:nonzero;stroke:#4579b8;stroke-width:0.02115385px;stroke-linecap:butt;stroke-linejoin:bevel;stroke-miterlimit:4;stroke-dasharray:none;stroke-opacity:1"
       d="m 40.177718,49.944097 -0.502404,-0.01323 -0.526201,-0.04495 -0.52356,-0.07404 -0.518269,-0.09784 -0.512979,-0.126924 -0.507693,-0.153365 -0.502404,-0.177165 -0.491826,-0.200962 -0.483894,-0.222115 -0.475962,-0.245912 -0.465386,-0.267068 -0.452163,-0.285578 -0.441586,-0.304085 -0.428366,-0.319953 -0.4125,-0.341106 -0.399279,-0.354327 -0.383413,-0.370192 -0.36226,-0.386056 -0.349038,-0.39928 -0.327885,-0.407213 -0.30673,-0.42572 -0.288221,-0.431008 -0.264424,-0.446876 -0.240625,-0.449519 -0.216827,-0.462741 -0.193028,-0.468029 -0.166587,-0.475962 -0.1375,-0.483894 -0.108413,-0.483893 -0.08197,-0.489183 -0.0476,-0.491826 -0.01851,-0.494472 0.01586,-0.497115 0.04495,-0.491829 0.07668,-0.491826 0.105769,-0.486537 0.132212,-0.478607 0.158654,-0.478605 0.185096,-0.468029 0.208894,-0.462741 0.235337,-0.452162 0.253846,-0.444233 0.277644,-0.436298 0.296154,-0.423077 0.317308,-0.412498 0.335817,-0.396637 0.351683,-0.386056 0.370192,-0.370192 0.383413,-0.356973 0.399279,-0.341104 0.415144,-0.322596 0.425722,-0.304088 0.438942,-0.285576 0.449519,-0.267067 0.460094,-0.245914 0.470673,-0.22476 0.475962,-0.200961 0.483896,-0.179808 0.494469,-0.153365 c 0.01588,-0.0053 0.03702,-0.01058 0.05553,-0.01322 l 0.454805,-0.07139 0.121637,0.785337 -0.454808,0.07139 0.05553,-0.01322 -0.452162,0.140144 -0.449519,0.163942 -0.446876,0.187741 -0.436298,0.206249 -0.428366,0.230048 -0.420433,0.24856 -0.409854,0.267065 -0.401923,0.285578 -0.386058,0.301442 -0.375481,0.317307 -0.362259,0.333174 -0.34375,0.346395 -0.333173,0.36226 -0.31202,0.372835 -0.296154,0.383413 -0.277644,0.393991 -0.259134,0.401923 -0.237981,0.412501 -0.216827,0.417788 -0.193029,0.42572 -0.16923,0.431011 -0.148077,0.433653 -0.121635,0.441586 -0.09784,0.438944 -0.06875,0.441585 -0.04495,0.444232 -0.01322,0.441587 0.01322,0.44423 0.04495,0.44423 0.06875,0.441587 0.10048,0.44423 0.124279,0.438944 0.150721,0.433652 0.174519,0.431012 0.200962,0.42572 0.22476,0.420433 0.243269,0.412499 0.264423,0.404569 0.288221,0.393988 0.306731,0.386059 0.322596,0.372835 0.341106,0.359616 0.359615,0.349039 0.372837,0.335817 0.386057,0.317309 0.401923,0.304086 0.4125,0.285575 0.425721,0.267068 0.433654,0.248558 0.44423,0.23005 0.452163,0.208893 0.460097,0.187741 0.465383,0.166587 0.470676,0.140144 0.470672,0.118989 0.481248,0.09255 0.478608,0.06875 0.478604,0.04231 0.50505,0.01588 z m -2.861059,-21.267548 2.519953,0.846154 -2.189422,1.509856 z"
       id="path968" />
    <g
       clip-path="url(#clipEmfPath7)"
       id="g978"
       transform="matrix(0.26458333,0,0,0.26458333,8.2036795,4.4712605)">
      <text
         xml:space="preserve"
         style="font-style:normal;font-variant:normal;font-weight:400;font-size:14.625px;line-height:125%;font-family:Calibri;text-align:start;letter-spacing:0px;word-spacing:0px;text-anchor:start;fill:#000000;fill-opacity:1;stroke:none"
         transform="translate(284.14779,213.23077)"
         x="0"
         y="0"
         id="text976"><tspan
           sodipodi:role="line"
           x="0"
           y="0"
           id="tspan974"><tspan
             dx="0"
             dy="0"
             style="font-style:normal;font-variant:normal;font-weight:400;font-size:14.625px;font-family:Calibri;fill:#000000"
             id="tspan970">Deactivate / Error</tspan><tspan
             dx="0.25865901"
             dy="0"
             style="font-style:normal;font-variant:normal;font-weight:400;font-size:14.625px;font-family:Calibri;fill:#000000"
             id="tspan972"> </tspan></tspan></text>
    </g>
    <g
       clip-path="url(#clipEmfPath8)"
       id="g988"
       transform="matrix(0.26458333,0,0,0.26458333,8.2036795,4.4712605)">
      <text
         xml:space="preserve"
         style="font-style:normal;font-variant:normal;font-weight:400;font-size:13.375px;line-height:125%;font-family:Arial;text-align:start;letter-spacing:0px;word-spacing:0px;text-anchor:start;fill:#000000;fill-opacity:1;stroke:none"
         transform="translate(113.93095,211.15203)"
         x="0"
         y="0"
         id="text986"><tspan
           sodipodi:role="line"
           x="0"
           y="0"
           id="tspan984"><tspan
             dx="0"
             dy="0"
             style="font-style:normal;font-variant:normal;font-weight:400;font-size:13.375px;font-family:Arial;fill:#000000"
             id="tspan980">Activate</tspan><tspan
             dx="0"
             dy="0"
             style="font-style:normal;font-variant:normal;font-weight:400;font-size:16px;font-family:Arial;fill:#000000"
             id="tspan982"> </tspan></tspan></text>
    </g>
    <g
       clip-path="url(#clipEmfPath9)"
       id="g1000"
       transform="matrix(0.26458333,0,0,0.26458333,8.2036795,4.4712605)">
      <text
         xml:space="preserve"
         style="font-style:normal;font-variant:normal;font-weight:400;font-size:13.375px;line-height:125%;font-family:Arial;text-align:start;letter-spacing:0px;word-spacing:0px;text-anchor:start;fill:#000000;fill-opacity:1;stroke:none"
         transform="translate(110.25318,287.2659)"
         x="0"
         y="0"
         id="text998"><tspan
           sodipodi:role="line"
           x="0"
           y="0"
           id="tspan996"><tspan
             dx="0"
             dy="0"
             style="font-style:normal;font-variant:normal;font-weight:400;font-size:13.375px;font-family:Arial;fill:#000000"
             id="tspan990">Un</tspan><tspan
             dx="0"
             dy="0"
             style="font-style:normal;font-variant:normal;font-weight:400;font-size:13.375px;font-family:Arial;fill:#000000"
             id="tspan992">install</tspan><tspan
             dx="-0.215662"
             dy="0"
             style="font-style:normal;font-variant:normal;font-weight:400;font-size:16px;font-family:Arial;fill:#000000"
             id="tspan994"> </tspan></tspan></text>
    </g>
    <g
       clip-path="url(#clipEmfPath10)"
       id="g1010"
       transform="matrix(0.26458333,0,0,0.26458333,8.2036795,4.4712605)">
      <text
         xml:space="preserve"
         style="font-style:normal;font-variant:normal;font-weight:400;font-size:13.375px;line-height:125%;font-family:Arial;text-align:start;letter-spacing:0px;word-spacing:0px;text-anchor:start;fill:#000000;fill-opacity:1;stroke:none"
         transform="translate(25.34464,137.83646)"
         x="0"
         y="0"
         id="text1008"><tspan
           sodipodi:role="line"
           x="0"
           y="0"
           id="tspan1006"><tspan
             dx="0"
             dy="0"
             style="font-style:normal;font-variant:normal;font-weight:400;font-size:13.375px;font-family:Arial;fill:#000000"
             id="tspan1002">Update</tspan><tspan
             dx="0"
             dy="0"
             style="font-style:normal;font-variant:normal;font-weight:400;font-size:16px;font-family:Arial;fill:#000000"
             id="tspan1004"> </tspan></tspan></text>
    </g>
    <g
       clip-path="url(#clipEmfPath11)"
       id="g1020"
       transform="matrix(0.26458333,0,0,0.26458333,8.2036795,4.4712605)">
      <text
         xml:space="preserve"
         style="font-style:normal;font-variant:normal;font-weight:400;font-size:13.375px;line-height:125%;font-family:Arial;text-align:start;letter-spacing:0px;word-spacing:0px;text-anchor:start;fill:#000000;fill-opacity:1;stroke:none"
         transform="translate(126.00363,49.889764)"
         x="0"
         y="0"
         id="text1018"><tspan
           sodipodi:role="line"
           x="0"
           y="0"
           id="tspan1016"><tspan
             dx="0"
             dy="0"
             style="font-style:normal;font-variant:normal;font-weight:400;font-size:13.375px;font-family:Arial;fill:#000000"
             id="tspan1012">Install</tspan><tspan
             dx="0"
             dy="0"
             style="font-style:normal;font-variant:normal;font-weight:400;font-size:16px;font-family:Arial;fill:#000000"
             id="tspan1014"> </tspan></tspan></text>
    </g>
    <g
       clip-path="url(#clipEmfPath12)"
       id="g1030"
       transform="matrix(0.26458333,0,0,0.26458333,8.2036795,4.4712605)">
      <text
         xml:space="preserve"
         style="font-style:normal;font-variant:normal;font-weight:400;font-size:13.375px;line-height:125%;font-family:Arial;text-align:start;letter-spacing:0px;word-spacing:0px;text-anchor:start;fill:#000000;fill-opacity:1;stroke:none"
         transform="translate(110.25318,136.87704)"
         x="0"
         y="0"
         id="text1028"><tspan
           sodipodi:role="line"
           x="0"
           y="0"
           id="tspan1026"><tspan
             dx="0"
             dy="0"
             style="font-style:normal;font-variant:normal;font-weight:400;font-size:13.375px;font-family:Arial;fill:#000000"
             id="tspan1022">Success</tspan><tspan
             dx="0"
             dy="0"
             style="font-style:normal;font-variant:normal;font-weight:400;font-size:16px;font-family:Arial;fill:#000000"
             id="tspan1024"> </tspan></tspan></text>
    </g>
    <g
       clip-path="url(#clipEmfPath13)"
       id="g1040"
       transform="matrix(0.26458333,0,0,0.26458333,8.2036795,4.4712605)">
      <text
         xml:space="preserve"
         style="font-style:normal;font-variant:normal;font-weight:400;font-size:13.375px;line-height:125%;font-family:Arial;text-align:start;letter-spacing:0px;word-spacing:0px;text-anchor:start;fill:#000000;fill-opacity:1;stroke:none"
         transform="translate(254.64567,60.363416)"
         x="0"
         y="0"
         id="text1038"><tspan
           sodipodi:role="line"
           x="0"
           y="0"
           id="tspan1036"><tspan
             dx="0"
             dy="0"
             style="font-style:normal;font-variant:normal;font-weight:400;font-size:13.375px;font-family:Arial;fill:#000000"
             id="tspan1032">Failure</tspan><tspan
             dx="0"
             dy="0"
             style="font-style:normal;font-variant:normal;font-weight:400;font-size:16px;font-family:Arial;fill:#000000"
             id="tspan1034"> </tspan></tspan></text>
    </g>
    <g
       clip-path="url(#clipEmfPath14)"
       id="g1050"
       transform="matrix(0.26458333,0,0,0.26458333,8.2036795,4.4712605)">
      <text
         xml:space="preserve"
         style="font-style:normal;font-variant:normal;font-weight:400;font-size:13.375px;line-height:125%;font-family:Arial;text-align:start;letter-spacing:0px;word-spacing:0px;text-anchor:start;fill:#000000;fill-opacity:1;stroke:none"
         transform="translate(272.79467,269.19685)"
         x="0"
         y="0"
         id="text1048"><tspan
           sodipodi:role="line"
           x="0"
           y="0"
           id="tspan1046"><tspan
             dx="0"
             dy="0"
             style="font-style:normal;font-variant:normal;font-weight:400;font-size:13.375px;font-family:Arial;fill:#000000"
             id="tspan1042">Completion</tspan><tspan
             dx="-0.25300899"
             dy="0"
             style="font-style:normal;font-variant:normal;font-weight:400;font-size:16px;font-family:Arial;fill:#000000"
             id="tspan1044"> </tspan></tspan></text>
    </g>
  </g>
</svg>
