<?xml version="1.0" encoding="UTF-8" standalone="no"?>
<!-- Created with Inkscape (http://www.inkscape.org/) -->

<svg
   xmlns:dc="http://purl.org/dc/elements/1.1/"
   xmlns:cc="http://creativecommons.org/ns#"
   xmlns:rdf="http://www.w3.org/1999/02/22-rdf-syntax-ns#"
   xmlns:svg="http://www.w3.org/2000/svg"
   xmlns="http://www.w3.org/2000/svg"
   xmlns:sodipodi="http://sodipodi.sourceforge.net/DTD/sodipodi-0.dtd"
   xmlns:inkscape="http://www.inkscape.org/namespaces/inkscape"
   width="471.01929"
   height="186.28581"
   viewBox="0 0 124.62385 49.288123"
   version="1.1"
   id="svg918"
   inkscape:version="0.92.4 (5da689c313, 2019-01-14)"
   sodipodi:docname="image3.svg">
  <defs
     id="defs912">
    <pattern
       y="0"
       x="0"
       height="6"
       width="6"
       patternUnits="userSpaceOnUse"
       id="EMFhbasepattern" />
  </defs>
  <sodipodi:namedview
     id="base"
     pagecolor="#ffffff"
     bordercolor="#666666"
     borderopacity="1.0"
     inkscape:pageopacity="0.0"
     inkscape:pageshadow="2"
     inkscape:zoom="1.979899"
     inkscape:cx="176.7003"
     inkscape:cy="104.16769"
     inkscape:document-units="mm"
     inkscape:current-layer="layer1"
     showgrid="false"
     units="px"
     fit-margin-top="0"
     fit-margin-left="0"
     fit-margin-right="0"
     fit-margin-bottom="0"
     inkscape:window-width="1920"
     inkscape:window-height="1017"
     inkscape:window-x="-8"
     inkscape:window-y="-8"
     inkscape:window-maximized="1" />
  <metadata
     id="metadata915">
    <rdf:RDF>
      <cc:Work
         rdf:about="">
        <dc:format>image/svg+xml</dc:format>
        <dc:type
           rdf:resource="http://purl.org/dc/dcmitype/StillImage" />
        <dc:title></dc:title>
      </cc:Work>
    </rdf:RDF>
  </metadata>
  <g
     inkscape:label="Layer 1"
     inkscape:groupmode="layer"
     id="layer1"
     transform="translate(-56.372595,-130.23689)">
    <path
       id="path1466"
       d="m 159.87863,178.81083 v 0.34717 0.36701 h -6.89379 v -0.36701 -0.34717 z"
       style="fill:#c0504d;fill-opacity:1;fill-rule:evenodd;stroke:none;stroke-width:0.26458332"
       inkscape:connector-curvature="0" />
    <path
       id="path1468"
       d="m 152.98484,179.52501 c -0.0694,0 -0.11903,-0.0198 -0.16862,-0.0496 -0.0496,-0.0397 -0.10911,-0.0893 -0.13887,-0.13887 -0.0397,-0.0595 -0.0397,-0.10911 -0.0397,-0.17854 h 0.34717 z"
       style="fill:#c0504d;fill-opacity:1;fill-rule:evenodd;stroke:none;stroke-width:0.26458332"
       inkscape:connector-curvature="0" />
    <path
       id="path1470"
       d="m 153.35185,179.158 h -0.36701 -0.34717 v -11.96246 h 0.34717 0.36701 z"
       style="fill:#c0504d;fill-opacity:1;fill-rule:evenodd;stroke:none;stroke-width:0.26458332"
       inkscape:connector-curvature="0" />
    <path
       id="path1472"
       d="m 152.63767,167.19554 c 0,-0.0694 0,-0.12895 0.0397,-0.17854 0.0298,-0.0496 0.0893,-0.10911 0.13887,-0.13887 0.0496,-0.0397 0.0992,-0.0397 0.16863,-0.0397 v 0.35709 z"
       style="fill:#c0504d;fill-opacity:1;fill-rule:evenodd;stroke:none;stroke-width:0.26458332"
       inkscape:connector-curvature="0" />
    <path
       id="path1474"
       d="m 152.98484,167.56255 v -0.36701 -0.35709 h 13.77766 v 0.35709 0.36701 z"
       style="fill:#c0504d;fill-opacity:1;fill-rule:evenodd;stroke:none;stroke-width:0.26458332"
       inkscape:connector-curvature="0" />
    <path
       id="path1476"
       d="m 166.7625,166.83845 c 0.0694,0 0.11903,0 0.16863,0.0397 0.0595,0.0298 0.10911,0.0893 0.13886,0.13887 0.0397,0.0496 0.0595,0.10911 0.0595,0.17854 v 0 h -0.36701 z"
       style="fill:#c0504d;fill-opacity:1;fill-rule:evenodd;stroke:none;stroke-width:0.26458332"
       inkscape:connector-curvature="0" />
    <path
       id="path1478"
       d="m 166.40541,167.19554 h 0.35709 0.36701 V 179.158 h -0.36701 -0.35709 z"
       style="fill:#c0504d;fill-opacity:1;fill-rule:evenodd;stroke:none;stroke-width:0.26458332"
       inkscape:connector-curvature="0" />
    <path
       id="path1480"
       d="m 167.12951,179.158 c 0,0.0694 -0.0198,0.11903 -0.0595,0.17855 -0.0297,0.0496 -0.0794,0.0992 -0.13886,0.13886 -0.0496,0.0298 -0.0992,0.0496 -0.16863,0.0496 v -0.367 z"
       style="fill:#c0504d;fill-opacity:1;fill-rule:evenodd;stroke:none;stroke-width:0.26458332"
       inkscape:connector-curvature="0" />
    <path
       id="path1482"
       d="m 166.7625,178.81083 v 0.34717 0.36701 h -6.88387 v -0.36701 -0.34717 z"
       style="fill:#c0504d;fill-opacity:1;fill-rule:evenodd;stroke:none;stroke-width:0.26458332"
       inkscape:connector-curvature="0" />
    <path
       id="path1484"
       d="m 118.6746,178.76124 v 0.34717 0.367 H 56.739602 v -0.367 -0.34717 z"
       style="fill:#243f60;fill-opacity:1;fill-rule:evenodd;stroke:none;stroke-width:0.26458332"
       inkscape:connector-curvature="0" />
    <path
       id="path1486"
       d="m 56.739602,179.47541 c -0.06943,0 -0.119029,-0.0198 -0.168625,-0.0496 -0.05951,-0.0397 -0.10911,-0.0893 -0.138868,-0.14878 -0.03968,-0.0496 -0.05951,-0.0992 -0.05951,-0.16862 h 0.367007 z"
       style="fill:#243f60;fill-opacity:1;fill-rule:evenodd;stroke:none;stroke-width:0.26458332"
       inkscape:connector-curvature="0" />
    <path
       id="path1488"
       d="M 57.10661,179.10841 H 56.739602 56.372595 V 130.6039 h 0.367007 0.367008 z"
       style="fill:#243f60;fill-opacity:1;fill-rule:evenodd;stroke:none;stroke-width:0.26458332"
       inkscape:connector-curvature="0" />
    <path
       id="path1490"
       d="m 56.372595,130.6039 c 0,-0.0694 0.01984,-0.11903 0.05951,-0.16863 0.02976,-0.0595 0.07935,-0.10911 0.138868,-0.13886 0.0496,-0.0397 0.09919,-0.0595 0.168625,-0.0595 v 0.36701 z"
       style="fill:#243f60;fill-opacity:1;fill-rule:evenodd;stroke:none;stroke-width:0.26458332"
       inkscape:connector-curvature="0" />
    <path
       id="path1492"
       d="m 56.739602,130.97091 v -0.36701 -0.36701 H 180.61951 v 0.36701 0.36701 z"
       style="fill:#243f60;fill-opacity:1;fill-rule:evenodd;stroke:none;stroke-width:0.26458332"
       inkscape:connector-curvature="0" />
    <path
       id="path1494"
       d="m 180.61951,130.23689 c 0.0694,0 0.11904,0.0198 0.16863,0.0595 0.0595,0.0297 0.10911,0.0794 0.13887,0.13886 0.0397,0.0496 0.0595,0.0992 0.0595,0.16863 v 0 h -0.36701 z"
       style="fill:#243f60;fill-opacity:1;fill-rule:evenodd;stroke:none;stroke-width:0.26458332"
       inkscape:connector-curvature="0" />
    <path
       id="path1496"
       d="m 180.26243,130.6039 h 0.35708 0.36701 v 48.50451 h -0.36701 -0.35708 z"
       style="fill:#243f60;fill-opacity:1;fill-rule:evenodd;stroke:none;stroke-width:0.26458332"
       inkscape:connector-curvature="0" />
    <path
       id="path1498"
       d="m 180.98652,179.10841 c 0,0.0694 -0.0198,0.11903 -0.0595,0.16862 -0.0298,0.0595 -0.0794,0.10911 -0.13887,0.14879 -0.0496,0.0298 -0.0992,0.0496 -0.16863,0.0496 v -0.36701 z"
       style="fill:#243f60;fill-opacity:1;fill-rule:evenodd;stroke:none;stroke-width:0.26458332"
       inkscape:connector-curvature="0" />
    <path
       id="path1500"
       d="m 180.61951,178.76124 v 0.34717 0.367 H 118.6746 v -0.367 -0.34717 z"
       style="fill:#243f60;fill-opacity:1;fill-rule:evenodd;stroke:none;stroke-width:0.26458332"
       inkscape:connector-curvature="0" />
    <text
       id="text1506"
       y="137.72583"
       x="57.997688"
       style="font-style:normal;font-variant:normal;font-weight:normal;font-stretch:normal;font-size:5.64444447px;line-height:125%;font-family:Arial;-inkscape-font-specification:'Arial, Normal';font-variant-ligatures:normal;font-variant-caps:normal;font-variant-numeric:normal;font-feature-settings:normal;text-align:start;letter-spacing:0px;word-spacing:0px;writing-mode:lr-tb;text-anchor:start;fill:#000000;fill-opacity:1;stroke:none;stroke-width:0.26458332"
       xml:space="preserve"><tspan
         id="tspan1504"
         y="137.72583"
         x="57.997688"
         sodipodi:role="line"
         style="font-style:normal;font-variant:normal;font-weight:normal;font-stretch:normal;font-size:5.64444447px;font-family:Arial;-inkscape-font-specification:'Arial, Normal';font-variant-ligatures:normal;font-variant-caps:normal;font-variant-numeric:normal;font-feature-settings:normal;text-align:start;writing-mode:lr-tb;text-anchor:start;stroke-width:0.26458332"><tspan
           id="tspan1502"
           style="font-style:normal;font-variant:normal;font-weight:normal;font-stretch:normal;font-size:5.64444447px;font-family:Arial;-inkscape-font-specification:'Arial, Normal';font-variant-ligatures:normal;font-variant-caps:normal;font-variant-numeric:normal;font-feature-settings:normal;text-align:start;writing-mode:lr-tb;text-anchor:start;fill:#000000;stroke-width:0.26458332"
           dy="0"
           dx="0">meta</tspan></tspan></text>
    <path
       id="path1508"
       d="m 160.96973,178.77116 v 0.35709 0.367 h -19.64977 v -0.367 -0.35709 z"
       style="fill:#c00000;fill-opacity:1;fill-rule:evenodd;stroke:none;stroke-width:0.26458332"
       inkscape:connector-curvature="0" />
    <path
       id="path1510"
       d="m 141.31996,179.49525 c -0.0694,0 -0.11903,-0.0198 -0.17855,-0.0595 -0.0496,-0.0298 -0.0992,-0.0893 -0.13887,-0.13886 -0.0298,-0.0496 -0.0298,-0.0992 -0.0298,-0.16863 h 0.34718 z"
       style="fill:#c00000;fill-opacity:1;fill-rule:evenodd;stroke:none;stroke-width:0.26458332"
       inkscape:connector-curvature="0" />
    <path
       id="path1512"
       d="m 141.68696,179.12825 h -0.367 -0.34717 v -18.6182 h 0.34717 0.367 z"
       style="fill:#c00000;fill-opacity:1;fill-rule:evenodd;stroke:none;stroke-width:0.26458332"
       inkscape:connector-curvature="0" />
    <path
       id="path1514"
       d="m 140.97279,160.51005 c 0,-0.0694 0,-0.12895 0.0298,-0.17854 0.0397,-0.0496 0.0893,-0.0992 0.13886,-0.13887 0.0595,-0.0397 0.10911,-0.0397 0.17855,-0.0397 v 0.35709 z"
       style="fill:#c00000;fill-opacity:1;fill-rule:evenodd;stroke:none;stroke-width:0.26458332"
       inkscape:connector-curvature="0" />
    <path
       id="path1516"
       d="m 141.31996,160.87706 v -0.36701 -0.35709 h 39.29955 v 0.35709 0.36701 z"
       style="fill:#c00000;fill-opacity:1;fill-rule:evenodd;stroke:none;stroke-width:0.26458332"
       inkscape:connector-curvature="0" />
    <path
       id="path1518"
       d="m 180.61951,160.15296 c 0.0694,0 0.11904,0 0.16863,0.0397 0.0595,0.0397 0.10911,0.0893 0.13887,0.13887 0.0397,0.0496 0.0595,0.10911 0.0595,0.17855 v 0 h -0.36701 z"
       style="fill:#c00000;fill-opacity:1;fill-rule:evenodd;stroke:none;stroke-width:0.26458332"
       inkscape:connector-curvature="0" />
    <path
       id="path1520"
       d="m 180.26243,160.51005 h 0.35708 0.36701 v 18.6182 h -0.36701 -0.35708 z"
       style="fill:#c00000;fill-opacity:1;fill-rule:evenodd;stroke:none;stroke-width:0.26458332"
       inkscape:connector-curvature="0" />
    <path
       id="path1522"
       d="m 180.98652,179.12825 c 0,0.0694 -0.0198,0.11902 -0.0595,0.16862 -0.0298,0.0496 -0.0794,0.10911 -0.13887,0.13887 -0.0496,0.0397 -0.0992,0.0595 -0.16863,0.0595 v -0.36701 z"
       style="fill:#c00000;fill-opacity:1;fill-rule:evenodd;stroke:none;stroke-width:0.26458332"
       inkscape:connector-curvature="0" />
    <path
       id="path1524"
       d="m 180.61951,178.77116 v 0.35709 0.367 h -19.64978 v -0.367 -0.35709 z"
       style="fill:#c00000;fill-opacity:1;fill-rule:evenodd;stroke:none;stroke-width:0.26458332"
       inkscape:connector-curvature="0" />
    <text
       id="text1530"
       y="174.25795"
       x="168.42094"
       style="font-style:normal;font-variant:normal;font-weight:normal;font-stretch:normal;font-size:5.64444447px;line-height:125%;font-family:Arial;-inkscape-font-specification:'Arial, Normal';font-variant-ligatures:normal;font-variant-caps:normal;font-variant-numeric:normal;font-feature-settings:normal;text-align:start;letter-spacing:0px;word-spacing:0px;writing-mode:lr-tb;text-anchor:start;fill:#000000;fill-opacity:1;stroke:none;stroke-width:0.26458332"
       xml:space="preserve"><tspan
         id="tspan1528"
         y="174.25795"
         x="168.42094"
         sodipodi:role="line"
         style="font-style:normal;font-variant:normal;font-weight:normal;font-stretch:normal;font-size:5.64444447px;font-family:Arial;-inkscape-font-specification:'Arial, Normal';font-variant-ligatures:normal;font-variant-caps:normal;font-variant-numeric:normal;font-feature-settings:normal;text-align:start;writing-mode:lr-tb;text-anchor:start;stroke-width:0.26458332"><tspan
           id="tspan1526"
           style="font-style:normal;font-variant:normal;font-weight:normal;font-stretch:normal;font-size:5.64444447px;font-family:Arial;-inkscape-font-specification:'Arial, Normal';font-variant-ligatures:normal;font-variant-caps:normal;font-variant-numeric:normal;font-feature-settings:normal;text-align:start;writing-mode:lr-tb;text-anchor:start;fill:#c00000;stroke-width:0.26458332"
           dy="0"
           dx="0">sibo</tspan></tspan></text>
    <text
       id="text1536"
       y="167.61215"
       x="142.25017"
       style="font-style:normal;font-variant:normal;font-weight:normal;font-stretch:normal;font-size:5.64444447px;line-height:125%;font-family:Arial;-inkscape-font-specification:'Arial, Normal';font-variant-ligatures:normal;font-variant-caps:normal;font-variant-numeric:normal;font-feature-settings:normal;text-align:start;letter-spacing:0px;word-spacing:0px;writing-mode:lr-tb;text-anchor:start;fill:#000000;fill-opacity:1;stroke:none;stroke-width:0.26458332"
       xml:space="preserve"><tspan
         id="tspan1534"
         y="167.61215"
         x="142.25017"
         sodipodi:role="line"
         style="font-style:normal;font-variant:normal;font-weight:normal;font-stretch:normal;font-size:5.64444447px;font-family:Arial;-inkscape-font-specification:'Arial, Normal';font-variant-ligatures:normal;font-variant-caps:normal;font-variant-numeric:normal;font-feature-settings:normal;text-align:start;writing-mode:lr-tb;text-anchor:start;stroke-width:0.26458332"><tspan
           id="tspan1532"
           style="font-style:normal;font-variant:normal;font-weight:normal;font-stretch:normal;font-size:5.64444447px;font-family:Arial;-inkscape-font-specification:'Arial, Normal';font-variant-ligatures:normal;font-variant-caps:normal;font-variant-numeric:normal;font-feature-settings:normal;text-align:start;writing-mode:lr-tb;text-anchor:start;fill:#c00000;stroke-width:0.26458332"
           dy="0"
           dx="0">schi</tspan></tspan></text>
    <path
       id="path1538"
       d="m 147.37062,178.77116 v 0.35709 0.367 h -33.25881 v -0.367 -0.35709 z"
       style="fill:#c00000;fill-opacity:1;fill-rule:evenodd;stroke:none;stroke-width:0.26458332"
       inkscape:connector-curvature="0" />
    <path
       id="path1540"
       d="m 114.11181,179.49525 c -0.0694,0 -0.11904,-0.0198 -0.17855,-0.0595 -0.0496,-0.0298 -0.0992,-0.0893 -0.13887,-0.13886 -0.0298,-0.0496 -0.0298,-0.0992 -0.0298,-0.16863 h 0.34717 z"
       style="fill:#c00000;fill-opacity:1;fill-rule:evenodd;stroke:none;stroke-width:0.26458332"
       inkscape:connector-curvature="0" />
    <path
       id="path1542"
       d="m 114.47881,179.12825 h -0.367 -0.34718 v -18.6182 h 0.34718 0.367 z"
       style="fill:#c00000;fill-opacity:1;fill-rule:evenodd;stroke:none;stroke-width:0.26458332"
       inkscape:connector-curvature="0" />
    <path
       id="path1544"
       d="m 113.76463,160.51005 c 0,-0.0694 0,-0.12895 0.0298,-0.17854 0.0397,-0.0496 0.0893,-0.0992 0.13887,-0.13887 0.0595,-0.0397 0.10911,-0.0397 0.17855,-0.0397 v 0.35709 z"
       style="fill:#c00000;fill-opacity:1;fill-rule:evenodd;stroke:none;stroke-width:0.26458332"
       inkscape:connector-curvature="0" />
    <path
       id="path1546"
       d="m 114.11181,160.87706 v -0.36701 -0.35709 h 66.5077 v 0.35709 0.36701 z"
       style="fill:#c00000;fill-opacity:1;fill-rule:evenodd;stroke:none;stroke-width:0.26458332"
       inkscape:connector-curvature="0" />
    <path
       id="path1548"
       d="m 180.61951,160.15296 c 0.0694,0 0.11904,0 0.16863,0.0397 0.0595,0.0397 0.10911,0.0893 0.13887,0.13887 0.0397,0.0496 0.0595,0.10911 0.0595,0.17855 v 0 h -0.36701 z"
       style="fill:#c00000;fill-opacity:1;fill-rule:evenodd;stroke:none;stroke-width:0.26458332"
       inkscape:connector-curvature="0" />
    <path
       id="path1550"
       d="m 180.26243,160.51005 h 0.35708 0.36701 v 18.6182 h -0.36701 -0.35708 z"
       style="fill:#c00000;fill-opacity:1;fill-rule:evenodd;stroke:none;stroke-width:0.26458332"
       inkscape:connector-curvature="0" />
    <path
       id="path1552"
       d="m 180.98652,179.12825 c 0,0.0694 -0.0198,0.11902 -0.0595,0.16862 -0.0298,0.0496 -0.0794,0.10911 -0.13887,0.13887 -0.0496,0.0397 -0.0992,0.0595 -0.16863,0.0595 v -0.36701 z"
       style="fill:#c00000;fill-opacity:1;fill-rule:evenodd;stroke:none;stroke-width:0.26458332"
       inkscape:connector-curvature="0" />
    <path
       id="path1554"
       d="m 180.61951,178.77116 v 0.35709 0.367 h -33.24889 v -0.367 -0.35709 z"
       style="fill:#c00000;fill-opacity:1;fill-rule:evenodd;stroke:none;stroke-width:0.26458332"
       inkscape:connector-curvature="0" />
    <text
       id="text1560"
       y="167.61215"
       x="115.93832"
       style="font-style:normal;font-variant:normal;font-weight:normal;font-stretch:normal;font-size:5.64444447px;line-height:125%;font-family:Arial;-inkscape-font-specification:'Arial, Normal';font-variant-ligatures:normal;font-variant-caps:normal;font-variant-numeric:normal;font-feature-settings:normal;text-align:start;letter-spacing:0px;word-spacing:0px;writing-mode:lr-tb;text-anchor:start;fill:#000000;fill-opacity:1;stroke:none;stroke-width:0.26458332"
       xml:space="preserve"><tspan
         id="tspan1558"
         y="167.61215"
         x="115.93832"
         sodipodi:role="line"
         style="font-style:normal;font-variant:normal;font-weight:normal;font-stretch:normal;font-size:5.64444447px;font-family:Arial;-inkscape-font-specification:'Arial, Normal';font-variant-ligatures:normal;font-variant-caps:normal;font-variant-numeric:normal;font-feature-settings:normal;text-align:start;writing-mode:lr-tb;text-anchor:start;stroke-width:0.26458332"><tspan
           id="tspan1556"
           style="font-style:normal;font-variant:normal;font-weight:normal;font-stretch:normal;font-size:5.64444447px;font-family:Arial;-inkscape-font-specification:'Arial, Normal';font-variant-ligatures:normal;font-variant-caps:normal;font-variant-numeric:normal;font-feature-settings:normal;text-align:start;writing-mode:lr-tb;text-anchor:start;fill:#c00000;stroke-width:0.26458332"
           dy="0"
           dx="0">schm</tspan></tspan></text>
    <path
       id="path1562"
       d="m 140.58594,178.76124 v 0.34717 0.367 h -40.06333 v -0.367 -0.34717 z"
       style="fill:#c00000;fill-opacity:1;fill-rule:evenodd;stroke:none;stroke-width:0.26458332"
       inkscape:connector-curvature="0" />
    <path
       id="path1564"
       d="m 100.52261,179.47541 c -0.0794,0 -0.12895,-0.0198 -0.17855,-0.0496 -0.0496,-0.0397 -0.10911,-0.0893 -0.13887,-0.14878 -0.0397,-0.0496 -0.0397,-0.0992 -0.0397,-0.16863 h 0.35709 z"
       style="fill:#c00000;fill-opacity:1;fill-rule:evenodd;stroke:none;stroke-width:0.26458332"
       inkscape:connector-curvature="0" />
    <path
       id="path1566"
       d="m 100.88961,179.10841 h -0.367 -0.35709 v -29.25149 h 0.35709 0.367 z"
       style="fill:#c00000;fill-opacity:1;fill-rule:evenodd;stroke:none;stroke-width:0.26458332"
       inkscape:connector-curvature="0" />
    <path
       id="path1568"
       d="m 100.16552,149.85692 c 0,-0.0694 0,-0.12895 0.0397,-0.17855 0.0298,-0.0496 0.0893,-0.10911 0.13887,-0.13887 0.0496,-0.0397 0.0992,-0.0397 0.17854,-0.0397 v 0.35709 z"
       style="fill:#c00000;fill-opacity:1;fill-rule:evenodd;stroke:none;stroke-width:0.26458332"
       inkscape:connector-curvature="0" />
    <path
       id="path1570"
       d="m 100.52261,150.22392 v -0.367 -0.35709 h 80.10682 v 0.35709 0.367 z"
       style="fill:#c00000;fill-opacity:1;fill-rule:evenodd;stroke:none;stroke-width:0.26458332"
       inkscape:connector-curvature="0" />
    <path
       id="path1572"
       d="m 180.62943,149.49983 c 0.0694,0 0.12895,0 0.17855,0.0397 0.0496,0.0298 0.10911,0.0893 0.13887,0.13887 0.0397,0.0496 0.0496,0.10911 0.0496,0.17854 v 0 h -0.36702 z"
       style="fill:#c00000;fill-opacity:1;fill-rule:evenodd;stroke:none;stroke-width:0.26458332"
       inkscape:connector-curvature="0" />
    <path
       id="path1574"
       d="m 180.28227,149.85692 h 0.34716 0.36701 v 29.25149 h -0.36701 -0.34716 z"
       style="fill:#c00000;fill-opacity:1;fill-rule:evenodd;stroke:none;stroke-width:0.26458332"
       inkscape:connector-curvature="0" />
    <path
       id="path1576"
       d="m 180.99644,179.10841 c 0,0.0694 -0.01,0.11903 -0.0496,0.16862 -0.0298,0.0595 -0.0893,0.10911 -0.13887,0.14879 -0.0496,0.0298 -0.10911,0.0496 -0.17855,0.0496 v -0.36701 z"
       style="fill:#c00000;fill-opacity:1;fill-rule:evenodd;stroke:none;stroke-width:0.26458332"
       inkscape:connector-curvature="0" />
    <path
       id="path1578"
       d="m 180.62943,178.76124 v 0.34717 0.367 h -40.04349 v -0.367 -0.34717 z"
       style="fill:#c00000;fill-opacity:1;fill-rule:evenodd;stroke:none;stroke-width:0.26458332"
       inkscape:connector-curvature="0" />
    <path
       id="path1580"
       d="m 132.25388,178.77116 v 0.35709 0.367 H 83.878321 v -0.367 -0.35709 z"
       style="fill:#243f60;fill-opacity:1;fill-rule:evenodd;stroke:none;stroke-width:0.26458332"
       inkscape:connector-curvature="0" />
    <path
       id="path1582"
       d="m 83.878321,179.49525 c -0.06943,0 -0.119031,-0.0198 -0.178544,-0.0595 -0.0496,-0.0298 -0.09919,-0.0893 -0.138869,-0.13886 -0.02976,-0.0496 -0.02976,-0.0992 -0.02976,-0.16863 h 0.347171 z"
       style="fill:#243f60;fill-opacity:1;fill-rule:evenodd;stroke:none;stroke-width:0.26458332"
       inkscape:connector-curvature="0" />
    <path
       id="path1584"
       d="M 84.245327,179.12825 H 83.878321 83.53115 v -39.89471 h 0.347171 0.367006 z"
       style="fill:#243f60;fill-opacity:1;fill-rule:evenodd;stroke:none;stroke-width:0.26458332"
       inkscape:connector-curvature="0" />
    <path
       id="path1586"
       d="m 83.53115,139.23354 c 0,-0.0694 0,-0.11903 0.02976,-0.17855 0.03968,-0.0496 0.08927,-0.0992 0.138869,-0.13887 0.05951,-0.0298 0.109109,-0.0298 0.178544,-0.0298 v 0.34717 z"
       style="fill:#243f60;fill-opacity:1;fill-rule:evenodd;stroke:none;stroke-width:0.26458332"
       inkscape:connector-curvature="0" />
    <path
       id="path1588"
       d="m 83.878321,139.60054 v -0.367 -0.34717 h 96.741189 v 0.34717 0.367 z"
       style="fill:#243f60;fill-opacity:1;fill-rule:evenodd;stroke:none;stroke-width:0.26458332"
       inkscape:connector-curvature="0" />
    <path
       id="path1590"
       d="m 180.61951,138.88637 c 0.0694,0 0.11904,0 0.16863,0.0298 0.0595,0.0397 0.10911,0.0893 0.13887,0.13887 0.0397,0.0595 0.0595,0.10911 0.0595,0.17855 v 0 h -0.36701 z"
       style="fill:#243f60;fill-opacity:1;fill-rule:evenodd;stroke:none;stroke-width:0.26458332"
       inkscape:connector-curvature="0" />
    <path
       id="path1592"
       d="m 180.26243,139.23354 h 0.35708 0.36701 v 39.89471 h -0.36701 -0.35708 z"
       style="fill:#243f60;fill-opacity:1;fill-rule:evenodd;stroke:none;stroke-width:0.26458332"
       inkscape:connector-curvature="0" />
    <path
       id="path1594"
       d="m 180.98652,179.12825 c 0,0.0694 -0.0198,0.11902 -0.0595,0.16862 -0.0298,0.0496 -0.0794,0.10911 -0.13887,0.13887 -0.0496,0.0397 -0.0992,0.0595 -0.16863,0.0595 v -0.36701 z"
       style="fill:#243f60;fill-opacity:1;fill-rule:evenodd;stroke:none;stroke-width:0.26458332"
       inkscape:connector-curvature="0" />
    <path
       id="path1596"
       d="m 180.61951,178.77116 v 0.35709 0.367 h -48.36563 v -0.367 -0.35709 z"
       style="fill:#243f60;fill-opacity:1;fill-rule:evenodd;stroke:none;stroke-width:0.26458332"
       inkscape:connector-curvature="0" />
    <text
       id="text1602"
       y="146.35547"
       x="85.902679"
       style="font-style:normal;font-variant:normal;font-weight:normal;font-stretch:normal;font-size:5.64444447px;line-height:125%;font-family:Arial;-inkscape-font-specification:'Arial, Normal';font-variant-ligatures:normal;font-variant-caps:normal;font-variant-numeric:normal;font-feature-settings:normal;text-align:start;letter-spacing:0px;word-spacing:0px;writing-mode:lr-tb;text-anchor:start;fill:#000000;fill-opacity:1;stroke:none;stroke-width:0.26458332"
       xml:space="preserve"><tspan
         id="tspan1600"
         y="146.35547"
         x="85.902679"
         sodipodi:role="line"
         style="font-style:normal;font-variant:normal;font-weight:normal;font-stretch:normal;font-size:5.64444447px;font-family:Arial;-inkscape-font-specification:'Arial, Normal';font-variant-ligatures:normal;font-variant-caps:normal;font-variant-numeric:normal;font-feature-settings:normal;text-align:start;writing-mode:lr-tb;text-anchor:start;stroke-width:0.26458332"><tspan
           id="tspan1598"
           style="font-style:normal;font-variant:normal;font-weight:normal;font-stretch:normal;font-size:5.64444447px;font-family:Arial;-inkscape-font-specification:'Arial, Normal';font-variant-ligatures:normal;font-variant-caps:normal;font-variant-numeric:normal;font-feature-settings:normal;text-align:start;writing-mode:lr-tb;text-anchor:start;fill:#000000;stroke-width:0.26458332"
           dy="0"
           dx="0">ipro</tspan></tspan></text>
    <text
       id="text1608"
       y="156.98877"
       x="102.57617"
       style="font-style:normal;font-variant:normal;font-weight:normal;font-stretch:normal;font-size:5.64444447px;line-height:125%;font-family:Arial;-inkscape-font-specification:'Arial, Normal';font-variant-ligatures:normal;font-variant-caps:normal;font-variant-numeric:normal;font-feature-settings:normal;text-align:start;letter-spacing:0px;word-spacing:0px;writing-mode:lr-tb;text-anchor:start;fill:#000000;fill-opacity:1;stroke:none;stroke-width:0.26458332"
       xml:space="preserve"><tspan
         id="tspan1606"
         y="156.98877"
         x="102.57617"
         sodipodi:role="line"
         style="font-style:normal;font-variant:normal;font-weight:normal;font-stretch:normal;font-size:5.64444447px;font-family:Arial;-inkscape-font-specification:'Arial, Normal';font-variant-ligatures:normal;font-variant-caps:normal;font-variant-numeric:normal;font-feature-settings:normal;text-align:start;writing-mode:lr-tb;text-anchor:start;stroke-width:0.26458332"><tspan
           id="tspan1604"
           style="font-style:normal;font-variant:normal;font-weight:normal;font-stretch:normal;font-size:5.64444447px;font-family:Arial;-inkscape-font-specification:'Arial, Normal';font-variant-ligatures:normal;font-variant-caps:normal;font-variant-numeric:normal;font-feature-settings:normal;text-align:start;writing-mode:lr-tb;text-anchor:start;fill:#c00000;stroke-width:0.26458332"
           dy="0"
           dx="0">sinf</tspan></tspan></text>
    <path
       id="path1610"
       d="m 173.73564,178.77116 v 0.35709 0.367 h -6.89379 v -0.367 -0.35709 z"
       style="fill:#c0504d;fill-opacity:1;fill-rule:evenodd;stroke:none;stroke-width:0.26458332"
       inkscape:connector-curvature="0" />
    <path
       id="path1612"
       d="m 166.84185,179.49525 c -0.0694,0 -0.11902,-0.0198 -0.16862,-0.0595 -0.0496,-0.0298 -0.10911,-0.0893 -0.13887,-0.13886 -0.0397,-0.0496 -0.0397,-0.0992 -0.0397,-0.16863 h 0.34716 z"
       style="fill:#c0504d;fill-opacity:1;fill-rule:evenodd;stroke:none;stroke-width:0.26458332"
       inkscape:connector-curvature="0" />
    <path
       id="path1614"
       d="m 167.20886,179.12825 h -0.36701 -0.34716 v -11.97239 h 0.34716 0.36701 z"
       style="fill:#c0504d;fill-opacity:1;fill-rule:evenodd;stroke:none;stroke-width:0.26458332"
       inkscape:connector-curvature="0" />
    <path
       id="path1616"
       d="m 166.49469,167.15586 c 0,-0.0694 0,-0.11902 0.0397,-0.17854 0.0298,-0.0496 0.0893,-0.0992 0.13887,-0.13887 0.0496,-0.0298 0.0992,-0.0298 0.16862,-0.0298 v 0.34717 z"
       style="fill:#c0504d;fill-opacity:1;fill-rule:evenodd;stroke:none;stroke-width:0.26458332"
       inkscape:connector-curvature="0" />
    <path
       id="path1618"
       d="m 166.84185,167.52287 v -0.36701 -0.34716 h 13.77766 v 0.34716 0.36701 z"
       style="fill:#c0504d;fill-opacity:1;fill-rule:evenodd;stroke:none;stroke-width:0.26458332"
       inkscape:connector-curvature="0" />
    <path
       id="path1620"
       d="m 180.61951,166.8087 c 0.0694,0 0.11904,0 0.16863,0.0298 0.0595,0.0397 0.10911,0.0893 0.13887,0.13886 0.0397,0.0595 0.0595,0.10911 0.0595,0.17855 v 0 h -0.36701 z"
       style="fill:#c0504d;fill-opacity:1;fill-rule:evenodd;stroke:none;stroke-width:0.26458332"
       inkscape:connector-curvature="0" />
    <path
       id="path1622"
       d="m 180.26243,167.15586 h 0.35708 0.36701 v 11.97239 h -0.36701 -0.35708 z"
       style="fill:#c0504d;fill-opacity:1;fill-rule:evenodd;stroke:none;stroke-width:0.26458332"
       inkscape:connector-curvature="0" />
    <path
       id="path1624"
       d="m 180.98652,179.12825 c 0,0.0694 -0.0198,0.11902 -0.0595,0.16862 -0.0298,0.0496 -0.0794,0.10911 -0.13887,0.13887 -0.0496,0.0397 -0.0992,0.0595 -0.16863,0.0595 v -0.36701 z"
       style="fill:#c0504d;fill-opacity:1;fill-rule:evenodd;stroke:none;stroke-width:0.26458332"
       inkscape:connector-curvature="0" />
    <path
       id="path1626"
       d="m 180.61951,178.77116 v 0.35709 0.367 h -6.88387 v -0.367 -0.35709 z"
       style="fill:#c0504d;fill-opacity:1;fill-rule:evenodd;stroke:none;stroke-width:0.26458332"
       inkscape:connector-curvature="0" />
    <path
       id="path1628"
       d="m 124.20947,178.77116 v 0.35709 0.367 H 67.769666 v -0.367 -0.35709 z"
       style="fill:#243f60;fill-opacity:1;fill-rule:evenodd;stroke:none;stroke-width:0.26458332"
       inkscape:connector-curvature="0" />
    <path
       id="path1630"
       d="m 67.769666,179.49525 c -0.07935,0 -0.128949,-0.0198 -0.178544,-0.0595 -0.0496,-0.0298 -0.10911,-0.0893 -0.138868,-0.13886 -0.03968,-0.0496 -0.03968,-0.0992 -0.03968,-0.16863 h 0.357088 z"
       style="fill:#243f60;fill-opacity:1;fill-rule:evenodd;stroke:none;stroke-width:0.26458332"
       inkscape:connector-curvature="0" />
    <path
       id="path1632"
       d="m 68.136674,179.12825 h -0.367008 -0.357088 v -39.89471 h 0.357088 0.367008 z"
       style="fill:#243f60;fill-opacity:1;fill-rule:evenodd;stroke:none;stroke-width:0.26458332"
       inkscape:connector-curvature="0" />
    <path
       id="path1634"
       d="m 67.412578,139.23354 c 0,-0.0694 0,-0.11903 0.03968,-0.17855 0.02976,-0.0496 0.08927,-0.0992 0.138868,-0.13887 0.0496,-0.0298 0.09919,-0.0298 0.178544,-0.0298 v 0.34717 z"
       style="fill:#243f60;fill-opacity:1;fill-rule:evenodd;stroke:none;stroke-width:0.26458332"
       inkscape:connector-curvature="0" />
    <path
       id="path1636"
       d="m 67.769666,139.60054 v -0.367 -0.34717 H 180.62943 v 0.34717 0.367 z"
       style="fill:#243f60;fill-opacity:1;fill-rule:evenodd;stroke:none;stroke-width:0.26458332"
       inkscape:connector-curvature="0" />
    <path
       id="path1638"
       d="m 180.62943,138.88637 c 0.0694,0 0.12895,0 0.17855,0.0298 0.0496,0.0397 0.10911,0.0893 0.13887,0.13887 0.0397,0.0595 0.0496,0.10911 0.0496,0.17855 v 0 h -0.36702 z"
       style="fill:#243f60;fill-opacity:1;fill-rule:evenodd;stroke:none;stroke-width:0.26458332"
       inkscape:connector-curvature="0" />
    <path
       id="path1640"
       d="m 180.28227,139.23354 h 0.34716 0.36701 v 39.89471 h -0.36701 -0.34716 z"
       style="fill:#243f60;fill-opacity:1;fill-rule:evenodd;stroke:none;stroke-width:0.26458332"
       inkscape:connector-curvature="0" />
    <path
       id="path1642"
       d="m 180.99644,179.12825 c 0,0.0694 -0.01,0.11902 -0.0496,0.16862 -0.0298,0.0496 -0.0893,0.10911 -0.13887,0.13887 -0.0496,0.0397 -0.10911,0.0595 -0.17855,0.0595 v -0.36701 z"
       style="fill:#243f60;fill-opacity:1;fill-rule:evenodd;stroke:none;stroke-width:0.26458332"
       inkscape:connector-curvature="0" />
    <path
       id="path1644"
       d="m 180.62943,178.77116 v 0.35709 0.367 h -56.41996 v -0.367 -0.35709 z"
       style="fill:#243f60;fill-opacity:1;fill-rule:evenodd;stroke:none;stroke-width:0.26458332"
       inkscape:connector-curvature="0" />
    <text
       id="text1650"
       y="146.35547"
       x="69.567528"
       style="font-style:normal;font-variant:normal;font-weight:normal;font-stretch:normal;font-size:5.64444447px;line-height:125%;font-family:Arial;-inkscape-font-specification:'Arial, Normal';font-variant-ligatures:normal;font-variant-caps:normal;font-variant-numeric:normal;font-feature-settings:normal;text-align:start;letter-spacing:0px;word-spacing:0px;writing-mode:lr-tb;text-anchor:start;fill:#000000;fill-opacity:1;stroke:none;stroke-width:0.26458332"
       xml:space="preserve"><tspan
         id="tspan1648"
         y="146.35547"
         x="69.567528"
         sodipodi:role="line"
         style="font-style:normal;font-variant:normal;font-weight:normal;font-stretch:normal;font-size:5.64444447px;font-family:Arial;-inkscape-font-specification:'Arial, Normal';font-variant-ligatures:normal;font-variant-caps:normal;font-variant-numeric:normal;font-feature-settings:normal;text-align:start;writing-mode:lr-tb;text-anchor:start;stroke-width:0.26458332"><tspan
           id="tspan1646"
           style="font-style:normal;font-variant:normal;font-weight:normal;font-stretch:normal;font-size:5.64444447px;font-family:Arial;-inkscape-font-specification:'Arial, Normal';font-variant-ligatures:normal;font-variant-caps:normal;font-variant-numeric:normal;font-feature-settings:normal;text-align:start;writing-mode:lr-tb;text-anchor:start;fill:#000000;stroke-width:0.26458332"
           dy="0"
           dx="0">suep</tspan></tspan></text>
    <text
       id="text1656"
       y="174.30756"
       x="154.90118"
       style="font-style:normal;font-variant:normal;font-weight:normal;font-stretch:normal;font-size:5.64444447px;line-height:125%;font-family:Arial;-inkscape-font-specification:'Arial, Normal';font-variant-ligatures:normal;font-variant-caps:normal;font-variant-numeric:normal;font-feature-settings:normal;text-align:start;letter-spacing:0px;word-spacing:0px;writing-mode:lr-tb;text-anchor:start;fill:#000000;fill-opacity:1;stroke:none;stroke-width:0.26458332"
       xml:space="preserve"><tspan
         id="tspan1654"
         y="174.30756"
         x="154.90118"
         sodipodi:role="line"
         style="font-style:normal;font-variant:normal;font-weight:normal;font-stretch:normal;font-size:5.64444447px;font-family:Arial;-inkscape-font-specification:'Arial, Normal';font-variant-ligatures:normal;font-variant-caps:normal;font-variant-numeric:normal;font-feature-settings:normal;text-align:start;writing-mode:lr-tb;text-anchor:start;stroke-width:0.26458332"><tspan
           id="tspan1652"
           style="font-style:normal;font-variant:normal;font-weight:normal;font-stretch:normal;font-size:5.64444447px;font-family:Arial;-inkscape-font-specification:'Arial, Normal';font-variant-ligatures:normal;font-variant-caps:normal;font-variant-numeric:normal;font-feature-settings:normal;text-align:start;writing-mode:lr-tb;text-anchor:start;fill:#c00000;stroke-width:0.26458332"
           dy="0"
           dx="0">cert</tspan></tspan></text>
  </g>
</svg>
