<svg xmlns="http://www.w3.org/2000/svg" xmlns:xlink="http://www.w3.org/1999/xlink" stroke-dasharray="none" shape-rendering="auto" font-family="'Dialog'" width="145" text-rendering="auto" fill-opacity="1" contentScriptType="text/ecmascript" color-interpolation="auto" color-rendering="auto" preserveAspectRatio="xMidYMid meet" font-size="12px" fill="black" stroke="black" image-rendering="auto" stroke-miterlimit="10" zoomAndPan="magnify" version="1.0" stroke-linecap="square" stroke-linejoin="miter" contentStyleType="text/css" font-style="normal" height="16" stroke-width="1" stroke-dashoffset="0" font-weight="normal" stroke-opacity="1"><!--Converted from MathML using JEuclid--><defs id="genericDefs"/><g><g text-rendering="optimizeLegibility" transform="translate(0,10)" color-rendering="optimizeQuality" color-interpolation="linearRGB" image-rendering="optimizeQuality"><path d="M1.2969 -5.6094 L0.3438 -5.6094 L0.3438 -6.2344 L1.2969 -6.2344 L1.2969 -8.1562 L2.375 -8.1562 L2.375 -6.2344 L4.4062 -6.2344 L4.4062 -5.6094 L2.375 -5.6094 L2.375 -1.6406 Q2.375 -0.8594 2.5312 -0.625 Q2.6875 -0.4062 3.0938 -0.4062 Q3.5156 -0.4062 3.7031 -0.6562 Q3.9062 -0.9062 3.9219 -1.4688 L4.7344 -1.4688 Q4.6875 -0.6094 4.2656 -0.2188 Q3.8438 0.1719 3 0.1719 Q2.0625 0.1719 1.6719 -0.2344 Q1.2969 -0.6562 1.2969 -1.6406 L1.2969 -5.6094 ZM6.1719 -8.1562 Q6.1719 -8.4375 6.3594 -8.625 Q6.5625 -8.8281 6.8281 -8.8281 Q7.1094 -8.8281 7.2969 -8.625 Q7.5 -8.4375 7.5 -8.1562 Q7.5 -7.8906 7.2969 -7.6875 Q7.1094 -7.5 6.8281 -7.5 Q6.5625 -7.5 6.3594 -7.6875 Q6.1719 -7.8906 6.1719 -8.1562 ZM7.5469 -0.625 L8.5625 -0.625 L8.5625 0 L5.4375 0 L5.4375 -0.625 L6.4688 -0.625 L6.4688 -5.6094 L5.4375 -5.6094 L5.4375 -6.2344 L7.5469 -6.2344 L7.5469 -0.625 ZM11.4688 -0.625 L12.4844 -0.625 L12.4844 0 L9.3438 0 L9.3438 -0.625 L10.3906 -0.625 L10.3906 -8.5 L9.3438 -8.5 L9.3438 -9.125 L11.4688 -9.125 L11.4688 -0.625 ZM14.2969 -5.6094 L13.3438 -5.6094 L13.3438 -6.2344 L14.2969 -6.2344 L14.2969 -8.1562 L15.375 -8.1562 L15.375 -6.2344 L17.4062 -6.2344 L17.4062 -5.6094 L15.375 -5.6094 L15.375 -1.6406 Q15.375 -0.8594 15.5312 -0.625 Q15.6875 -0.4062 16.0938 -0.4062 Q16.5156 -0.4062 16.7031 -0.6562 Q16.9062 -0.9062 16.9219 -1.4688 L17.7344 -1.4688 Q17.6875 -0.6094 17.2656 -0.2188 Q16.8438 0.1719 16 0.1719 Q15.0625 0.1719 14.6719 -0.2344 Q14.2969 -0.6562 14.2969 -1.6406 L14.2969 -5.6094 Z" stroke="none"/></g><g text-rendering="optimizeLegibility" transform="translate(17.7344,13.3047)" color-rendering="optimizeQuality" color-interpolation="linearRGB" image-rendering="optimizeQuality"><path d="M4.4062 -3.5625 Q4.625 -4.0469 4.9688 -4.2969 Q5.3125 -4.5469 5.7812 -4.5469 Q6.4688 -4.5469 6.8125 -4.1094 Q7.1562 -3.6875 7.1562 -2.8125 L7.1562 -0.4375 L7.8438 -0.4375 L7.8438 0 L5.7188 0 L5.7188 -0.4375 L6.3906 -0.4375 L6.3906 -2.7188 Q6.3906 -3.4062 6.1875 -3.6875 Q5.9844 -3.9688 5.5312 -3.9688 Q5.0156 -3.9688 4.75 -3.5781 Q4.4844 -3.2031 4.4844 -2.4688 L4.4844 -0.4375 L5.1406 -0.4375 L5.1406 0 L3.0469 0 L3.0469 -0.4375 L3.7188 -0.4375 L3.7188 -2.75 Q3.7188 -3.4062 3.5156 -3.6875 Q3.3125 -3.9688 2.8594 -3.9688 Q2.3438 -3.9688 2.0625 -3.5781 Q1.7969 -3.2031 1.7969 -2.4688 L1.7969 -0.4375 L2.4688 -0.4375 L2.4688 0 L0.3438 0 L0.3438 -0.4375 L1.0469 -0.4375 L1.0469 -3.9844 L0.3125 -3.9844 L0.3125 -4.4219 L1.7969 -4.4219 L1.7969 -3.6406 Q2.0156 -4.0781 2.3438 -4.3125 Q2.6719 -4.5469 3.0938 -4.5469 Q3.6094 -4.5469 3.9531 -4.2812 Q4.2969 -4.0312 4.4062 -3.5625 ZM9.8281 -5.7969 Q9.8281 -5.9844 9.9688 -6.125 Q10.1094 -6.2656 10.2969 -6.2656 Q10.5 -6.2656 10.625 -6.125 Q10.7656 -5.9844 10.7656 -5.7969 Q10.7656 -5.5938 10.625 -5.4531 Q10.5 -5.3281 10.2969 -5.3281 Q10.1094 -5.3281 9.9688 -5.4531 Q9.8281 -5.5938 9.8281 -5.7969 ZM10.7969 -0.4375 L11.5312 -0.4375 L11.5312 0 L9.3125 0 L9.3125 -0.4375 L10.0469 -0.4375 L10.0469 -3.9688 L9.3125 -3.9688 L9.3125 -4.4219 L10.7969 -4.4219 L10.7969 -0.4375 ZM12.3438 0 L12.3438 -0.4375 L13.0469 -0.4375 L13.0469 -3.9688 L12.3125 -3.9688 L12.3125 -4.4219 L13.7969 -4.4219 L13.7969 -3.6406 Q14.0156 -4.0781 14.3438 -4.3125 Q14.6875 -4.5469 15.1406 -4.5469 Q15.875 -4.5469 16.2188 -4.125 Q16.5625 -3.7031 16.5625 -2.8125 L16.5625 -0.4375 L17.25 -0.4375 L17.25 0 L15.1406 0 L15.1406 -0.4375 L15.7969 -0.4375 L15.7969 -2.5625 Q15.7969 -3.375 15.5938 -3.6719 Q15.3906 -3.9844 14.8906 -3.9844 Q14.3594 -3.9844 14.0781 -3.5938 Q13.7969 -3.2031 13.7969 -2.4688 L13.7969 -0.4375 L14.4688 -0.4375 L14.4688 0 L12.3438 0 Z" stroke="none"/></g><g text-rendering="optimizeLegibility" transform="translate(36.515,10)" color-rendering="optimizeQuality" color-interpolation="linearRGB" image-rendering="optimizeQuality"><path d="M8.7812 -6.0156 L2.6094 -4.3281 L8.7812 -2.6562 L8.7812 -1.6875 L1.2656 -3.8438 L1.2656 -4.8281 L8.7812 -6.9844 L8.7812 -6.0156 ZM1.2656 -0.9219 L8.7812 -0.9219 L8.7812 0 L1.2656 0 L1.2656 -0.9219 Z" stroke="none"/></g><g text-rendering="optimizeLegibility" transform="translate(48.0926,10)" color-rendering="optimizeQuality" color-interpolation="linearRGB" image-rendering="optimizeQuality"><path d="M4.7812 -1.9531 L4.7812 -3.2812 L3.3906 -3.2812 Q2.5781 -3.2812 2.1875 -2.9219 Q1.7969 -2.5781 1.7969 -1.875 Q1.7969 -1.2188 2.1875 -0.8281 Q2.5938 -0.4531 3.2812 -0.4531 Q3.9531 -0.4531 4.3594 -0.875 Q4.7812 -1.2969 4.7812 -1.9531 ZM5.8594 -3.8906 L5.8594 -0.625 L6.8125 -0.625 L6.8125 0 L4.7812 0 L4.7812 -0.6719 Q4.4219 -0.2344 3.9531 -0.0312 Q3.4844 0.1719 2.8594 0.1719 Q1.8125 0.1719 1.2031 -0.375 Q0.5938 -0.9375 0.5938 -1.875 Q0.5938 -2.8438 1.2969 -3.375 Q2 -3.9062 3.2656 -3.9062 L4.7812 -3.9062 L4.7812 -4.3281 Q4.7812 -5.0469 4.3438 -5.4219 Q3.9219 -5.8125 3.1406 -5.8125 Q2.4844 -5.8125 2.1094 -5.5156 Q1.7344 -5.2344 1.6406 -4.6562 L1.0781 -4.6562 L1.0781 -5.9219 Q1.6406 -6.1562 2.1719 -6.2812 Q2.7031 -6.4062 3.2031 -6.4062 Q4.5 -6.4062 5.1719 -5.75 Q5.8594 -5.1094 5.8594 -3.8906 ZM7.5 0 L7.5 -0.625 L8.4688 -0.625 L8.4688 -5.6094 L7.4375 -5.6094 L7.4375 -6.2344 L9.5469 -6.2344 L9.5469 -5.125 Q9.8438 -5.75 10.3125 -6.0781 Q10.7969 -6.4062 11.4375 -6.4062 Q12.4688 -6.4062 12.9531 -5.8125 Q13.4375 -5.2188 13.4375 -3.9688 L13.4375 -0.625 L14.3906 -0.625 L14.3906 0 L11.4219 0 L11.4219 -0.625 L12.3438 -0.625 L12.3438 -3.625 Q12.3438 -4.7656 12.0625 -5.1875 Q11.7812 -5.6094 11.0781 -5.6094 Q10.3281 -5.6094 9.9375 -5.0625 Q9.5469 -4.5156 9.5469 -3.4688 L9.5469 -0.625 L10.4844 -0.625 L10.4844 0 L7.5 0 ZM21.2969 -5.6094 L21.2969 -0.1406 Q21.2969 1.2031 20.5625 1.9375 Q19.8281 2.6719 18.4531 2.6719 Q17.8438 2.6719 17.2812 2.5469 Q16.7188 2.4375 16.2031 2.2188 L16.2031 0.9219 L16.7656 0.9219 Q16.875 1.5312 17.2656 1.8125 Q17.6562 2.0938 18.3906 2.0938 Q19.3438 2.0938 19.7812 1.5469 Q20.2188 1.0156 20.2188 -0.1406 L20.2188 -0.9688 Q19.9062 -0.3906 19.4062 -0.1094 Q18.9219 0.1719 18.2031 0.1719 Q17.0625 0.1719 16.3281 -0.7344 Q15.5938 -1.6562 15.5938 -3.125 Q15.5938 -4.5781 16.3125 -5.4844 Q17.0469 -6.4062 18.2031 -6.4062 Q18.9219 -6.4062 19.4062 -6.125 Q19.9062 -5.8438 20.2188 -5.25 L20.2188 -6.2344 L22.3281 -6.2344 L22.3281 -5.6094 L21.2969 -5.6094 ZM20.2188 -3.4219 Q20.2188 -4.5469 19.7812 -5.125 Q19.3594 -5.7188 18.5469 -5.7188 Q17.7031 -5.7188 17.2812 -5.0625 Q16.8594 -4.4062 16.8594 -3.125 Q16.8594 -1.8281 17.2812 -1.1562 Q17.7031 -0.5 18.5469 -0.5 Q19.3594 -0.5 19.7812 -1.0938 Q20.2188 -1.6875 20.2188 -2.8125 L20.2188 -3.4219 ZM25.4688 -0.625 L26.4844 -0.625 L26.4844 0 L23.3438 0 L23.3438 -0.625 L24.3906 -0.625 L24.3906 -8.5 L23.3438 -8.5 L23.3438 -9.125 L25.4688 -9.125 L25.4688 -0.625 ZM33.5 -3 L28.8594 -3 L28.8594 -2.9531 Q28.8594 -1.6875 29.3281 -1.0469 Q29.8125 -0.4062 30.7344 -0.4062 Q31.4375 -0.4062 31.8906 -0.7812 Q32.3438 -1.1562 32.5312 -1.8906 L33.4062 -1.8906 Q33.1406 -0.8594 32.4375 -0.3438 Q31.75 0.1719 30.625 0.1719 Q29.25 0.1719 28.4219 -0.7188 Q27.5938 -1.625 27.5938 -3.125 Q27.5938 -4.5938 28.4062 -5.5 Q29.2344 -6.4062 30.5469 -6.4062 Q31.9688 -6.4062 32.7188 -5.5312 Q33.4688 -4.6562 33.5 -3 ZM32.2344 -3.625 Q32.2031 -4.7188 31.7656 -5.2656 Q31.3438 -5.8125 30.5469 -5.8125 Q29.8125 -5.8125 29.375 -5.25 Q28.9531 -4.7031 28.8594 -3.625 L32.2344 -3.625 Z" stroke="none"/></g><g text-rendering="optimizeLegibility" transform="translate(81.5926,15.8438)" color-rendering="optimizeQuality" color-interpolation="linearRGB" image-rendering="optimizeQuality"><path d="M0.9219 -3.9688 L0.25 -3.9688 L0.25 -4.4219 L0.9219 -4.4219 L0.9219 -5.7969 L1.6875 -5.7969 L1.6875 -4.4219 L3.125 -4.4219 L3.125 -3.9688 L1.6875 -3.9688 L1.6875 -1.1719 Q1.6875 -0.6094 1.7969 -0.4531 Q1.9062 -0.2969 2.2031 -0.2969 Q2.5 -0.2969 2.625 -0.4688 Q2.7656 -0.6406 2.7812 -1.0469 L3.3594 -1.0469 Q3.3281 -0.4375 3.0312 -0.1562 Q2.7344 0.125 2.125 0.125 Q1.4688 0.125 1.1875 -0.1719 Q0.9219 -0.4688 0.9219 -1.1719 L0.9219 -3.9688 ZM4.8281 -5.7969 Q4.8281 -5.9844 4.9688 -6.125 Q5.1094 -6.2656 5.2969 -6.2656 Q5.5 -6.2656 5.625 -6.125 Q5.7656 -5.9844 5.7656 -5.7969 Q5.7656 -5.5938 5.625 -5.4531 Q5.5 -5.3281 5.2969 -5.3281 Q5.1094 -5.3281 4.9688 -5.4531 Q4.8281 -5.5938 4.8281 -5.7969 ZM5.7969 -0.4375 L6.5312 -0.4375 L6.5312 0 L4.3125 0 L4.3125 -0.4375 L5.0469 -0.4375 L5.0469 -3.9688 L4.3125 -3.9688 L4.3125 -4.4219 L5.7969 -4.4219 L5.7969 -0.4375 ZM8.75 -0.4375 L9.4688 -0.4375 L9.4688 0 L7.25 0 L7.25 -0.4375 L7.9844 -0.4375 L7.9844 -6.0312 L7.25 -6.0312 L7.25 -6.4688 L8.75 -6.4688 L8.75 -0.4375 ZM10.9219 -3.9688 L10.25 -3.9688 L10.25 -4.4219 L10.9219 -4.4219 L10.9219 -5.7969 L11.6875 -5.7969 L11.6875 -4.4219 L13.125 -4.4219 L13.125 -3.9688 L11.6875 -3.9688 L11.6875 -1.1719 Q11.6875 -0.6094 11.7969 -0.4531 Q11.9062 -0.2969 12.2031 -0.2969 Q12.5 -0.2969 12.625 -0.4688 Q12.7656 -0.6406 12.7812 -1.0469 L13.3594 -1.0469 Q13.3281 -0.4375 13.0312 -0.1562 Q12.7344 0.125 12.125 0.125 Q11.4688 0.125 11.1875 -0.1719 Q10.9219 -0.4688 10.9219 -1.1719 L10.9219 -3.9688 Z" stroke="none"/></g><g text-rendering="optimizeLegibility" transform="translate(96.4826,10)" color-rendering="optimizeQuality" color-interpolation="linearRGB" image-rendering="optimizeQuality"><path d="M8.7812 -6.0156 L2.6094 -4.3281 L8.7812 -2.6562 L8.7812 -1.6875 L1.2656 -3.8438 L1.2656 -4.8281 L8.7812 -6.9844 L8.7812 -6.0156 ZM1.2656 -0.9219 L8.7812 -0.9219 L8.7812 0 L1.2656 0 L1.2656 -0.9219 Z" stroke="none"/></g><g text-rendering="optimizeLegibility" transform="translate(108.0602,10)" color-rendering="optimizeQuality" color-interpolation="linearRGB" image-rendering="optimizeQuality"><path d="M1.2969 -5.6094 L0.3438 -5.6094 L0.3438 -6.2344 L1.2969 -6.2344 L1.2969 -8.1562 L2.375 -8.1562 L2.375 -6.2344 L4.4062 -6.2344 L4.4062 -5.6094 L2.375 -5.6094 L2.375 -1.6406 Q2.375 -0.8594 2.5312 -0.625 Q2.6875 -0.4062 3.0938 -0.4062 Q3.5156 -0.4062 3.7031 -0.6562 Q3.9062 -0.9062 3.9219 -1.4688 L4.7344 -1.4688 Q4.6875 -0.6094 4.2656 -0.2188 Q3.8438 0.1719 3 0.1719 Q2.0625 0.1719 1.6719 -0.2344 Q1.2969 -0.6562 1.2969 -1.6406 L1.2969 -5.6094 ZM6.1719 -8.1562 Q6.1719 -8.4375 6.3594 -8.625 Q6.5625 -8.8281 6.8281 -8.8281 Q7.1094 -8.8281 7.2969 -8.625 Q7.5 -8.4375 7.5 -8.1562 Q7.5 -7.8906 7.2969 -7.6875 Q7.1094 -7.5 6.8281 -7.5 Q6.5625 -7.5 6.3594 -7.6875 Q6.1719 -7.8906 6.1719 -8.1562 ZM7.5469 -0.625 L8.5625 -0.625 L8.5625 0 L5.4375 0 L5.4375 -0.625 L6.4688 -0.625 L6.4688 -5.6094 L5.4375 -5.6094 L5.4375 -6.2344 L7.5469 -6.2344 L7.5469 -0.625 ZM11.4688 -0.625 L12.4844 -0.625 L12.4844 0 L9.3438 0 L9.3438 -0.625 L10.3906 -0.625 L10.3906 -8.5 L9.3438 -8.5 L9.3438 -9.125 L11.4688 -9.125 L11.4688 -0.625 ZM14.2969 -5.6094 L13.3438 -5.6094 L13.3438 -6.2344 L14.2969 -6.2344 L14.2969 -8.1562 L15.375 -8.1562 L15.375 -6.2344 L17.4062 -6.2344 L17.4062 -5.6094 L15.375 -5.6094 L15.375 -1.6406 Q15.375 -0.8594 15.5312 -0.625 Q15.6875 -0.4062 16.0938 -0.4062 Q16.5156 -0.4062 16.7031 -0.6562 Q16.9062 -0.9062 16.9219 -1.4688 L17.7344 -1.4688 Q17.6875 -0.6094 17.2656 -0.2188 Q16.8438 0.1719 16 0.1719 Q15.0625 0.1719 14.6719 -0.2344 Q14.2969 -0.6562 14.2969 -1.6406 L14.2969 -5.6094 Z" stroke="none"/></g><g text-rendering="optimizeLegibility" transform="translate(125.7946,12.3828)" color-rendering="optimizeQuality" color-interpolation="linearRGB" image-rendering="optimizeQuality"><path d="M4.4062 -3.5625 Q4.625 -4.0469 4.9688 -4.2969 Q5.3125 -4.5469 5.7812 -4.5469 Q6.4688 -4.5469 6.8125 -4.1094 Q7.1562 -3.6875 7.1562 -2.8125 L7.1562 -0.4375 L7.8438 -0.4375 L7.8438 0 L5.7188 0 L5.7188 -0.4375 L6.3906 -0.4375 L6.3906 -2.7188 Q6.3906 -3.4062 6.1875 -3.6875 Q5.9844 -3.9688 5.5312 -3.9688 Q5.0156 -3.9688 4.75 -3.5781 Q4.4844 -3.2031 4.4844 -2.4688 L4.4844 -0.4375 L5.1406 -0.4375 L5.1406 0 L3.0469 0 L3.0469 -0.4375 L3.7188 -0.4375 L3.7188 -2.75 Q3.7188 -3.4062 3.5156 -3.6875 Q3.3125 -3.9688 2.8594 -3.9688 Q2.3438 -3.9688 2.0625 -3.5781 Q1.7969 -3.2031 1.7969 -2.4688 L1.7969 -0.4375 L2.4688 -0.4375 L2.4688 0 L0.3438 0 L0.3438 -0.4375 L1.0469 -0.4375 L1.0469 -3.9844 L0.3125 -3.9844 L0.3125 -4.4219 L1.7969 -4.4219 L1.7969 -3.6406 Q2.0156 -4.0781 2.3438 -4.3125 Q2.6719 -4.5469 3.0938 -4.5469 Q3.6094 -4.5469 3.9531 -4.2812 Q4.2969 -4.0312 4.4062 -3.5625 ZM12.3906 -1.3906 L12.3906 -2.3281 L11.4062 -2.3281 Q10.8281 -2.3281 10.5469 -2.0781 Q10.2812 -1.8281 10.2812 -1.3281 Q10.2812 -0.8594 10.5625 -0.5938 Q10.8438 -0.3281 11.3281 -0.3281 Q11.7969 -0.3281 12.0938 -0.625 Q12.3906 -0.9219 12.3906 -1.3906 ZM13.1562 -2.7656 L13.1562 -0.4375 L13.8281 -0.4375 L13.8281 0 L12.3906 0 L12.3906 -0.4844 Q12.1406 -0.1719 11.7969 -0.0156 Q11.4688 0.125 11.0312 0.125 Q10.2812 0.125 9.8438 -0.2656 Q9.4219 -0.6562 9.4219 -1.3281 Q9.4219 -2.0156 9.9062 -2.3906 Q10.4062 -2.7656 11.3125 -2.7656 L12.3906 -2.7656 L12.3906 -3.0781 Q12.3906 -3.5781 12.0781 -3.8438 Q11.7812 -4.125 11.2188 -4.125 Q10.7656 -4.125 10.5 -3.9219 Q10.2344 -3.7188 10.1562 -3.3125 L9.7656 -3.3125 L9.7656 -4.2031 Q10.1719 -4.375 10.5469 -4.4531 Q10.9219 -4.5469 11.2812 -4.5469 Q12.1875 -4.5469 12.6719 -4.0781 Q13.1562 -3.625 13.1562 -2.7656 ZM16.4844 -2.7031 L17.4062 -3.9688 L16.8125 -3.9688 L16.8125 -4.4219 L18.5156 -4.4219 L18.5156 -3.9688 L17.9219 -3.9688 L16.7344 -2.3438 L18.125 -0.4375 L18.7031 -0.4375 L18.7031 0 L16.6562 0 L16.6562 -0.4375 L17.2188 -0.4375 L16.25 -1.7656 L15.2969 -0.4375 L15.8594 -0.4375 L15.8594 0 L14.1875 0 L14.1875 -0.4375 L14.7656 -0.4375 L15.9844 -2.125 L14.6562 -3.9688 L14.1094 -3.9688 L14.1094 -4.4219 L16.0781 -4.4219 L16.0781 -3.9688 L15.5469 -3.9688 L16.4844 -2.7031 Z" stroke="none"/></g></g></svg>