<svg xmlns="http://www.w3.org/2000/svg" xmlns:xlink="http://www.w3.org/1999/xlink" stroke-dasharray="none" shape-rendering="auto" font-family="'Dialog'" width="156" text-rendering="auto" fill-opacity="1" contentScriptType="text/ecmascript" color-interpolation="auto" color-rendering="auto" preserveAspectRatio="xMidYMid meet" font-size="12px" fill="black" stroke="black" image-rendering="auto" stroke-miterlimit="10" zoomAndPan="magnify" version="1.0" stroke-linecap="square" stroke-linejoin="miter" contentStyleType="text/css" font-style="normal" height="44" stroke-width="1" stroke-dashoffset="0" font-weight="normal" stroke-opacity="1"><!--Converted from MathML using JEuclid--><defs id="genericDefs"/><g><g text-rendering="optimizeLegibility" transform="translate(0,25)" color-rendering="optimizeQuality" color-interpolation="linearRGB" image-rendering="optimizeQuality"><path d="M4.7812 -1.9531 L4.7812 -3.2812 L3.3906 -3.2812 Q2.5781 -3.2812 2.1875 -2.9219 Q1.7969 -2.5781 1.7969 -1.875 Q1.7969 -1.2188 2.1875 -0.8281 Q2.5938 -0.4531 3.2812 -0.4531 Q3.9531 -0.4531 4.3594 -0.875 Q4.7812 -1.2969 4.7812 -1.9531 ZM5.8594 -3.8906 L5.8594 -0.625 L6.8125 -0.625 L6.8125 0 L4.7812 0 L4.7812 -0.6719 Q4.4219 -0.2344 3.9531 -0.0312 Q3.4844 0.1719 2.8594 0.1719 Q1.8125 0.1719 1.2031 -0.375 Q0.5938 -0.9375 0.5938 -1.875 Q0.5938 -2.8438 1.2969 -3.375 Q2 -3.9062 3.2656 -3.9062 L4.7812 -3.9062 L4.7812 -4.3281 Q4.7812 -5.0469 4.3438 -5.4219 Q3.9219 -5.8125 3.1406 -5.8125 Q2.4844 -5.8125 2.1094 -5.5156 Q1.7344 -5.2344 1.6406 -4.6562 L1.0781 -4.6562 L1.0781 -5.9219 Q1.6406 -6.1562 2.1719 -6.2812 Q2.7031 -6.4062 3.2031 -6.4062 Q4.5 -6.4062 5.1719 -5.75 Q5.8594 -5.1094 5.8594 -3.8906 ZM7.5 0 L7.5 -0.625 L8.4688 -0.625 L8.4688 -5.6094 L7.4375 -5.6094 L7.4375 -6.2344 L9.5469 -6.2344 L9.5469 -5.125 Q9.8438 -5.75 10.3125 -6.0781 Q10.7969 -6.4062 11.4375 -6.4062 Q12.4688 -6.4062 12.9531 -5.8125 Q13.4375 -5.2188 13.4375 -3.9688 L13.4375 -0.625 L14.3906 -0.625 L14.3906 0 L11.4219 0 L11.4219 -0.625 L12.3438 -0.625 L12.3438 -3.625 Q12.3438 -4.7656 12.0625 -5.1875 Q11.7812 -5.6094 11.0781 -5.6094 Q10.3281 -5.6094 9.9375 -5.0625 Q9.5469 -4.5156 9.5469 -3.4688 L9.5469 -0.625 L10.4844 -0.625 L10.4844 0 L7.5 0 ZM21.2969 -5.6094 L21.2969 -0.1406 Q21.2969 1.2031 20.5625 1.9375 Q19.8281 2.6719 18.4531 2.6719 Q17.8438 2.6719 17.2812 2.5469 Q16.7188 2.4375 16.2031 2.2188 L16.2031 0.9219 L16.7656 0.9219 Q16.875 1.5312 17.2656 1.8125 Q17.6562 2.0938 18.3906 2.0938 Q19.3438 2.0938 19.7812 1.5469 Q20.2188 1.0156 20.2188 -0.1406 L20.2188 -0.9688 Q19.9062 -0.3906 19.4062 -0.1094 Q18.9219 0.1719 18.2031 0.1719 Q17.0625 0.1719 16.3281 -0.7344 Q15.5938 -1.6562 15.5938 -3.125 Q15.5938 -4.5781 16.3125 -5.4844 Q17.0469 -6.4062 18.2031 -6.4062 Q18.9219 -6.4062 19.4062 -6.125 Q19.9062 -5.8438 20.2188 -5.25 L20.2188 -6.2344 L22.3281 -6.2344 L22.3281 -5.6094 L21.2969 -5.6094 ZM20.2188 -3.4219 Q20.2188 -4.5469 19.7812 -5.125 Q19.3594 -5.7188 18.5469 -5.7188 Q17.7031 -5.7188 17.2812 -5.0625 Q16.8594 -4.4062 16.8594 -3.125 Q16.8594 -1.8281 17.2812 -1.1562 Q17.7031 -0.5 18.5469 -0.5 Q19.3594 -0.5 19.7812 -1.0938 Q20.2188 -1.6875 20.2188 -2.8125 L20.2188 -3.4219 ZM25.4688 -0.625 L26.4844 -0.625 L26.4844 0 L23.3438 0 L23.3438 -0.625 L24.3906 -0.625 L24.3906 -8.5 L23.3438 -8.5 L23.3438 -9.125 L25.4688 -9.125 L25.4688 -0.625 ZM33.5 -3 L28.8594 -3 L28.8594 -2.9531 Q28.8594 -1.6875 29.3281 -1.0469 Q29.8125 -0.4062 30.7344 -0.4062 Q31.4375 -0.4062 31.8906 -0.7812 Q32.3438 -1.1562 32.5312 -1.8906 L33.4062 -1.8906 Q33.1406 -0.8594 32.4375 -0.3438 Q31.75 0.1719 30.625 0.1719 Q29.25 0.1719 28.4219 -0.7188 Q27.5938 -1.625 27.5938 -3.125 Q27.5938 -4.5938 28.4062 -5.5 Q29.2344 -6.4062 30.5469 -6.4062 Q31.9688 -6.4062 32.7188 -5.5312 Q33.4688 -4.6562 33.5 -3 ZM32.2344 -3.625 Q32.2031 -4.7188 31.7656 -5.2656 Q31.3438 -5.8125 30.5469 -5.8125 Q29.8125 -5.8125 29.375 -5.25 Q28.9531 -4.7031 28.8594 -3.625 L32.2344 -3.625 Z" stroke="none"/></g><g text-rendering="optimizeLegibility" transform="translate(33.5,30.8438)" color-rendering="optimizeQuality" color-interpolation="linearRGB" image-rendering="optimizeQuality"><path d="M0.9219 -3.9688 L0.25 -3.9688 L0.25 -4.4219 L0.9219 -4.4219 L0.9219 -5.7969 L1.6875 -5.7969 L1.6875 -4.4219 L3.125 -4.4219 L3.125 -3.9688 L1.6875 -3.9688 L1.6875 -1.1719 Q1.6875 -0.6094 1.7969 -0.4531 Q1.9062 -0.2969 2.2031 -0.2969 Q2.5 -0.2969 2.625 -0.4688 Q2.7656 -0.6406 2.7812 -1.0469 L3.3594 -1.0469 Q3.3281 -0.4375 3.0312 -0.1562 Q2.7344 0.125 2.125 0.125 Q1.4688 0.125 1.1875 -0.1719 Q0.9219 -0.4688 0.9219 -1.1719 L0.9219 -3.9688 ZM4.8281 -5.7969 Q4.8281 -5.9844 4.9688 -6.125 Q5.1094 -6.2656 5.2969 -6.2656 Q5.5 -6.2656 5.625 -6.125 Q5.7656 -5.9844 5.7656 -5.7969 Q5.7656 -5.5938 5.625 -5.4531 Q5.5 -5.3281 5.2969 -5.3281 Q5.1094 -5.3281 4.9688 -5.4531 Q4.8281 -5.5938 4.8281 -5.7969 ZM5.7969 -0.4375 L6.5312 -0.4375 L6.5312 0 L4.3125 0 L4.3125 -0.4375 L5.0469 -0.4375 L5.0469 -3.9688 L4.3125 -3.9688 L4.3125 -4.4219 L5.7969 -4.4219 L5.7969 -0.4375 ZM8.75 -0.4375 L9.4688 -0.4375 L9.4688 0 L7.25 0 L7.25 -0.4375 L7.9844 -0.4375 L7.9844 -6.0312 L7.25 -6.0312 L7.25 -6.4688 L8.75 -6.4688 L8.75 -0.4375 ZM10.9219 -3.9688 L10.25 -3.9688 L10.25 -4.4219 L10.9219 -4.4219 L10.9219 -5.7969 L11.6875 -5.7969 L11.6875 -4.4219 L13.125 -4.4219 L13.125 -3.9688 L11.6875 -3.9688 L11.6875 -1.1719 Q11.6875 -0.6094 11.7969 -0.4531 Q11.9062 -0.2969 12.2031 -0.2969 Q12.5 -0.2969 12.625 -0.4688 Q12.7656 -0.6406 12.7812 -1.0469 L13.3594 -1.0469 Q13.3281 -0.4375 13.0312 -0.1562 Q12.7344 0.125 12.125 0.125 Q11.4688 0.125 11.1875 -0.1719 Q10.9219 -0.4688 10.9219 -1.1719 L10.9219 -3.9688 Z" stroke="none"/></g><g text-rendering="optimizeLegibility" transform="translate(48.39,25)" color-rendering="optimizeQuality" color-interpolation="linearRGB" image-rendering="optimizeQuality"><path d="M1.2656 -5.4219 L8.7812 -5.4219 L8.7812 -4.4844 L1.2656 -4.4844 L1.2656 -5.4219 ZM1.2656 -3.0312 L8.7812 -3.0312 L8.7812 -2.0938 L1.2656 -2.0938 L1.2656 -3.0312 Z" stroke="none"/></g><g text-rendering="optimizeLegibility" transform="translate(59.9676,25)" color-rendering="optimizeQuality" color-interpolation="linearRGB" image-rendering="optimizeQuality"><path d="M4.7812 -1.9531 L4.7812 -3.2812 L3.3906 -3.2812 Q2.5781 -3.2812 2.1875 -2.9219 Q1.7969 -2.5781 1.7969 -1.875 Q1.7969 -1.2188 2.1875 -0.8281 Q2.5938 -0.4531 3.2812 -0.4531 Q3.9531 -0.4531 4.3594 -0.875 Q4.7812 -1.2969 4.7812 -1.9531 ZM5.8594 -3.8906 L5.8594 -0.625 L6.8125 -0.625 L6.8125 0 L4.7812 0 L4.7812 -0.6719 Q4.4219 -0.2344 3.9531 -0.0312 Q3.4844 0.1719 2.8594 0.1719 Q1.8125 0.1719 1.2031 -0.375 Q0.5938 -0.9375 0.5938 -1.875 Q0.5938 -2.8438 1.2969 -3.375 Q2 -3.9062 3.2656 -3.9062 L4.7812 -3.9062 L4.7812 -4.3281 Q4.7812 -5.0469 4.3438 -5.4219 Q3.9219 -5.8125 3.1406 -5.8125 Q2.4844 -5.8125 2.1094 -5.5156 Q1.7344 -5.2344 1.6406 -4.6562 L1.0781 -4.6562 L1.0781 -5.9219 Q1.6406 -6.1562 2.1719 -6.2812 Q2.7031 -6.4062 3.2031 -6.4062 Q4.5 -6.4062 5.1719 -5.75 Q5.8594 -5.1094 5.8594 -3.8906 ZM8.2969 -5.6094 L7.3438 -5.6094 L7.3438 -6.2344 L8.2969 -6.2344 L8.2969 -8.1562 L9.375 -8.1562 L9.375 -6.2344 L11.4062 -6.2344 L11.4062 -5.6094 L9.375 -5.6094 L9.375 -1.6406 Q9.375 -0.8594 9.5312 -0.625 Q9.6875 -0.4062 10.0938 -0.4062 Q10.5156 -0.4062 10.7031 -0.6562 Q10.9062 -0.9062 10.9219 -1.4688 L11.7344 -1.4688 Q11.6875 -0.6094 11.2656 -0.2188 Q10.8438 0.1719 10 0.1719 Q9.0625 0.1719 8.6719 -0.2344 Q8.2969 -0.6562 8.2969 -1.6406 L8.2969 -5.6094 ZM16.7812 -1.9531 L16.7812 -3.2812 L15.3906 -3.2812 Q14.5781 -3.2812 14.1875 -2.9219 Q13.7969 -2.5781 13.7969 -1.875 Q13.7969 -1.2188 14.1875 -0.8281 Q14.5938 -0.4531 15.2812 -0.4531 Q15.9531 -0.4531 16.3594 -0.875 Q16.7812 -1.2969 16.7812 -1.9531 ZM17.8594 -3.8906 L17.8594 -0.625 L18.8125 -0.625 L18.8125 0 L16.7812 0 L16.7812 -0.6719 Q16.4219 -0.2344 15.9531 -0.0312 Q15.4844 0.1719 14.8594 0.1719 Q13.8125 0.1719 13.2031 -0.375 Q12.5938 -0.9375 12.5938 -1.875 Q12.5938 -2.8438 13.2969 -3.375 Q14 -3.9062 15.2656 -3.9062 L16.7812 -3.9062 L16.7812 -4.3281 Q16.7812 -5.0469 16.3438 -5.4219 Q15.9219 -5.8125 15.1406 -5.8125 Q14.4844 -5.8125 14.1094 -5.5156 Q13.7344 -5.2344 13.6406 -4.6562 L13.0781 -4.6562 L13.0781 -5.9219 Q13.6406 -6.1562 14.1719 -6.2812 Q14.7031 -6.4062 15.2031 -6.4062 Q16.5 -6.4062 17.1719 -5.75 Q17.8594 -5.1094 17.8594 -3.8906 ZM19.5 0 L19.5 -0.625 L20.4688 -0.625 L20.4688 -5.6094 L19.4375 -5.6094 L19.4375 -6.2344 L21.5469 -6.2344 L21.5469 -5.125 Q21.8438 -5.75 22.3125 -6.0781 Q22.7969 -6.4062 23.4375 -6.4062 Q24.4688 -6.4062 24.9531 -5.8125 Q25.4375 -5.2188 25.4375 -3.9688 L25.4375 -0.625 L26.3906 -0.625 L26.3906 0 L23.4219 0 L23.4219 -0.625 L24.3438 -0.625 L24.3438 -3.625 Q24.3438 -4.7656 24.0625 -5.1875 Q23.7812 -5.6094 23.0781 -5.6094 Q22.3281 -5.6094 21.9375 -5.0625 Q21.5469 -4.5156 21.5469 -3.4688 L21.5469 -0.625 L22.4844 -0.625 L22.4844 0 L19.5 0 ZM28.5312 -6.6562 L27.875 -6.6562 L27.875 -8.2188 Q28.5 -8.5625 29.1406 -8.7344 Q29.7812 -8.9062 30.3906 -8.9062 Q31.75 -8.9062 32.5312 -8.2344 Q33.3281 -7.5781 33.3281 -6.4531 Q33.3281 -5.1562 31.5469 -3.375 Q31.4062 -3.2344 31.3281 -3.1719 L29.125 -0.9688 L32.7656 -0.9688 L32.7656 -2.0469 L33.4531 -2.0469 L33.4531 0 L27.8125 0 L27.8125 -0.6406 L30.4688 -3.2812 Q31.3438 -4.1719 31.7188 -4.9062 Q32.0938 -5.6406 32.0938 -6.4531 Q32.0938 -7.3281 31.625 -7.8281 Q31.1719 -8.3281 30.375 -8.3281 Q29.5312 -8.3281 29.0781 -7.9062 Q28.625 -7.5 28.5312 -6.6562 Z" stroke="none"/></g><g text-rendering="optimizeLegibility" transform="translate(92.4676,33.3873) matrix(1,0,0,3.5717,0,0)" color-rendering="optimizeQuality" color-interpolation="linearRGB" image-rendering="optimizeQuality"><path d="M3.8281 1.875 Q2.4062 1.2344 1.6719 -0.1562 Q0.9531 -1.5469 0.9531 -3.625 Q0.9531 -5.7031 1.6719 -7.0938 Q2.4062 -8.4844 3.8281 -9.125 L3.8281 -8.5469 Q2.9219 -7.9219 2.5312 -6.7969 Q2.1406 -5.6719 2.1406 -3.625 Q2.1406 -1.5781 2.5312 -0.4531 Q2.9219 0.6719 3.8281 1.2969 L3.8281 1.875 Z" stroke="none"/></g><g text-rendering="optimizeLegibility" color-rendering="optimizeQuality" color-interpolation="linearRGB" image-rendering="optimizeQuality"><line y2="20.44" fill="none" x1="97.3024" x2="150.3379" y1="20.44"/><path d="M-0.1875 0 L-0.0781 -0.625 L1.0469 -0.625 L2.5 -8.125 L1.3906 -8.125 L1.5156 -8.75 L4.9219 -8.75 L4.8125 -8.125 L3.6875 -8.125 L3.1094 -5.0938 L7.6406 -5.0938 L8.2344 -8.125 L7.1094 -8.125 L7.2344 -8.75 L10.6562 -8.75 L10.5312 -8.125 L9.4219 -8.125 L7.9531 -0.625 L9.0781 -0.625 L8.9531 0 L5.5312 0 L5.6562 -0.625 L6.7812 -0.625 L7.5 -4.3906 L2.9688 -4.3906 L2.2344 -0.625 L3.3438 -0.625 L3.2344 0 L-0.1875 0 Z" transform="translate(105.0362,15.7771)" stroke="none"/></g><g text-rendering="optimizeLegibility" transform="translate(115.6925,18.9333)" color-rendering="optimizeQuality" color-interpolation="linearRGB" image-rendering="optimizeQuality"><path d="M1.0938 -4.7344 L0.625 -4.7344 L0.625 -5.8281 Q1.0625 -6.0781 1.5156 -6.1875 Q1.9688 -6.3125 2.4062 -6.3125 Q3.375 -6.3125 3.9375 -5.8438 Q4.5 -5.375 4.5 -4.5781 Q4.5 -3.6562 3.2188 -2.3906 Q3.125 -2.2969 3.0781 -2.25 L1.5 -0.6875 L4.0938 -0.6875 L4.0938 -1.4531 L4.5781 -1.4531 L4.5781 0 L0.5781 0 L0.5781 -0.4531 L2.4688 -2.3281 Q3.0781 -2.9531 3.3438 -3.4688 Q3.625 -4 3.625 -4.5781 Q3.625 -5.2031 3.2969 -5.5469 Q2.9688 -5.9062 2.3906 -5.9062 Q1.7969 -5.9062 1.4688 -5.6094 Q1.1406 -5.3125 1.0938 -4.7344 Z" stroke="none"/></g><g text-rendering="optimizeLegibility" transform="translate(121.9764,15.7771)" color-rendering="optimizeQuality" color-interpolation="linearRGB" image-rendering="optimizeQuality"><path d="M0.5312 -3.6719 L3.5312 -3.6719 L3.5312 -2.7656 L0.5312 -2.7656 L0.5312 -3.6719 Z" stroke="none"/></g><g text-rendering="optimizeLegibility" transform="translate(127.9322,15.7771)" color-rendering="optimizeQuality" color-interpolation="linearRGB" image-rendering="optimizeQuality"><path d="M-0.1875 0 L-0.0781 -0.625 L1.0469 -0.625 L2.5 -8.125 L1.3906 -8.125 L1.5156 -8.75 L4.9219 -8.75 L4.8125 -8.125 L3.6875 -8.125 L3.1094 -5.0938 L7.6406 -5.0938 L8.2344 -8.125 L7.1094 -8.125 L7.2344 -8.75 L10.6562 -8.75 L10.5312 -8.125 L9.4219 -8.125 L7.9531 -0.625 L9.0781 -0.625 L8.9531 0 L5.5312 0 L5.6562 -0.625 L6.7812 -0.625 L7.5 -4.3906 L2.9688 -4.3906 L2.2344 -0.625 L3.3438 -0.625 L3.2344 0 L-0.1875 0 Z" stroke="none"/></g><g text-rendering="optimizeLegibility" transform="translate(138.5884,18.9333)" color-rendering="optimizeQuality" color-interpolation="linearRGB" image-rendering="optimizeQuality"><path d="M1.2031 0 L1.2031 -0.4375 L2.2969 -0.4375 L2.2969 -5.6094 L1.0469 -4.7969 L1.0469 -5.3438 L2.5469 -6.3125 L3.125 -6.3125 L3.125 -0.4375 L4.2031 -0.4375 L4.2031 0 L1.2031 0 Z" stroke="none"/></g><g text-rendering="optimizeLegibility" color-rendering="optimizeQuality" color-interpolation="linearRGB" image-rendering="optimizeQuality"><line y2="35.0192" fill="none" x1="98.3024" x2="103.318" y1="35.0192"/><line y2="42.7354" fill="none" x1="103.318" x2="105.8347" y1="35.0192"/><line y2="22.4467" fill="none" x1="105.8347" x2="108.3513" y1="42.7354"/><line y2="22.4467" fill="none" x1="108.3513" x2="149.3379" y1="22.4467"/><path d="M3.8281 1.875 Q2.4062 1.2344 1.6719 -0.1562 Q0.9531 -1.5469 0.9531 -3.625 Q0.9531 -5.7031 1.6719 -7.0938 Q2.4062 -8.4844 3.8281 -9.125 L3.8281 -8.5469 Q2.9219 -7.9219 2.5312 -6.7969 Q2.1406 -5.6719 2.1406 -3.625 Q2.1406 -1.5781 2.5312 -0.4531 Q2.9219 0.6719 3.8281 1.2969 L3.8281 1.875 Z" transform="translate(107.3982,40.1049) matrix(1,0,0,1.403,0,0)" stroke="none"/></g><g text-rendering="optimizeLegibility" transform="translate(111.2263,39.5792)" color-rendering="optimizeQuality" color-interpolation="linearRGB" image-rendering="optimizeQuality"><path d="M0.7656 0 L0.0312 0 L2.7812 -2.9844 L1.4062 -5.6094 L0.6406 -5.6094 L0.75 -6.2344 L2.3281 -6.2344 L3.625 -3.7969 L5.8594 -6.2344 L6.5938 -6.2344 L3.8906 -3.2969 L5.3281 -0.625 L6.1406 -0.625 L6.0156 0 L4.3906 0 L3.0625 -2.4844 L0.7656 0 Z" stroke="none"/></g><g text-rendering="optimizeLegibility" transform="translate(117.8201,42.7354)" color-rendering="optimizeQuality" color-interpolation="linearRGB" image-rendering="optimizeQuality"><path d="M1.0938 -4.7344 L0.625 -4.7344 L0.625 -5.8281 Q1.0625 -6.0781 1.5156 -6.1875 Q1.9688 -6.3125 2.4062 -6.3125 Q3.375 -6.3125 3.9375 -5.8438 Q4.5 -5.375 4.5 -4.5781 Q4.5 -3.6562 3.2188 -2.3906 Q3.125 -2.2969 3.0781 -2.25 L1.5 -0.6875 L4.0938 -0.6875 L4.0938 -1.4531 L4.5781 -1.4531 L4.5781 0 L0.5781 0 L0.5781 -0.4531 L2.4688 -2.3281 Q3.0781 -2.9531 3.3438 -3.4688 Q3.625 -4 3.625 -4.5781 Q3.625 -5.2031 3.2969 -5.5469 Q2.9688 -5.9062 2.3906 -5.9062 Q1.7969 -5.9062 1.4688 -5.6094 Q1.1406 -5.3125 1.0938 -4.7344 Z" stroke="none"/></g><g text-rendering="optimizeLegibility" transform="translate(124.104,39.5792)" color-rendering="optimizeQuality" color-interpolation="linearRGB" image-rendering="optimizeQuality"><path d="M0.5312 -3.6719 L3.5312 -3.6719 L3.5312 -2.7656 L0.5312 -2.7656 L0.5312 -3.6719 Z" stroke="none"/></g><g text-rendering="optimizeLegibility" transform="translate(129.8723,39.5792)" color-rendering="optimizeQuality" color-interpolation="linearRGB" image-rendering="optimizeQuality"><path d="M0.7656 0 L0.0312 0 L2.7812 -2.9844 L1.4062 -5.6094 L0.6406 -5.6094 L0.75 -6.2344 L2.3281 -6.2344 L3.625 -3.7969 L5.8594 -6.2344 L6.5938 -6.2344 L3.8906 -3.2969 L5.3281 -0.625 L6.1406 -0.625 L6.0156 0 L4.3906 0 L3.0625 -2.4844 L0.7656 0 Z" stroke="none"/></g><g text-rendering="optimizeLegibility" transform="translate(136.466,42.7354)" color-rendering="optimizeQuality" color-interpolation="linearRGB" image-rendering="optimizeQuality"><path d="M1.2031 0 L1.2031 -0.4375 L2.2969 -0.4375 L2.2969 -5.6094 L1.0469 -4.7969 L1.0469 -5.3438 L2.5469 -6.3125 L3.125 -6.3125 L3.125 -0.4375 L4.2031 -0.4375 L4.2031 0 L1.2031 0 Z" stroke="none"/></g><g text-rendering="optimizeLegibility" transform="translate(139.8254,40.1049) matrix(1,0,0,1.403,0,0)" color-rendering="optimizeQuality" color-interpolation="linearRGB" image-rendering="optimizeQuality"><path d="M0.8438 1.875 L0.8438 1.2969 Q1.75 0.6719 2.1406 -0.4531 Q2.5469 -1.5781 2.5469 -3.625 Q2.5469 -5.6719 2.1406 -6.7969 Q1.75 -7.9219 0.8438 -8.5469 L0.8438 -9.125 Q2.2812 -8.4844 3 -7.0938 Q3.7344 -5.7031 3.7344 -3.625 Q3.7344 -1.5469 3 -0.1562 Q2.2812 1.2344 0.8438 1.875 Z" stroke="none"/></g><g text-rendering="optimizeLegibility" transform="translate(143.5598,30.4592)" color-rendering="optimizeQuality" color-interpolation="linearRGB" image-rendering="optimizeQuality"><path d="M1.0938 -4.7344 L0.625 -4.7344 L0.625 -5.8281 Q1.0625 -6.0781 1.5156 -6.1875 Q1.9688 -6.3125 2.4062 -6.3125 Q3.375 -6.3125 3.9375 -5.8438 Q4.5 -5.375 4.5 -4.5781 Q4.5 -3.6562 3.2188 -2.3906 Q3.125 -2.2969 3.0781 -2.25 L1.5 -0.6875 L4.0938 -0.6875 L4.0938 -1.4531 L4.5781 -1.4531 L4.5781 0 L0.5781 0 L0.5781 -0.4531 L2.4688 -2.3281 Q3.0781 -2.9531 3.3438 -3.4688 Q3.625 -4 3.625 -4.5781 Q3.625 -5.2031 3.2969 -5.5469 Q2.9688 -5.9062 2.3906 -5.9062 Q1.7969 -5.9062 1.4688 -5.6094 Q1.1406 -5.3125 1.0938 -4.7344 Z" stroke="none"/></g><g text-rendering="optimizeLegibility" transform="translate(97.4586,33.9192)" color-rendering="optimizeQuality" color-interpolation="linearRGB" image-rendering="optimizeQuality"><path d="M3.6719 -5.0156 L3.6719 -2.8281 L5.8594 -2.8281 L5.8594 -2.1875 L3.6719 -2.1875 L3.6719 0 L3.0469 0 L3.0469 -2.1875 L0.8438 -2.1875 L0.8438 -2.8281 L3.0469 -2.8281 L3.0469 -5.0156 L3.6719 -5.0156 Z" stroke="none"/></g><g text-rendering="optimizeLegibility" transform="translate(96.6618,41.6716) matrix(1,0,0,2.1261,0,0)" color-rendering="optimizeQuality" color-interpolation="linearRGB" image-rendering="optimizeQuality"><path d="M2.5469 1.25 Q1.6094 0.8281 1.125 -0.0938 Q0.6406 -1.0312 0.6406 -2.4219 Q0.6406 -3.8125 1.125 -4.7344 Q1.6094 -5.6562 2.5469 -6.0781 L2.5469 -5.7031 Q1.9531 -5.2812 1.6875 -4.5312 Q1.4219 -3.7812 1.4219 -2.4219 Q1.4219 -1.0625 1.6875 -0.2969 Q1.9531 0.4531 2.5469 0.8594 L2.5469 1.25 Z" stroke="none"/></g><g text-rendering="optimizeLegibility" transform="translate(99.5055,39.5792)" color-rendering="optimizeQuality" color-interpolation="linearRGB" image-rendering="optimizeQuality"><path d="M4.6094 -4.125 Q4.2188 -1.8906 3.5312 -0.7031 Q2.5469 1.0312 1.7344 1.5469 Q1.3906 1.7812 0.4531 1.7812 Q0.2656 1.7812 0.0781 1.75 Q-0.1094 1.7188 -0.2969 1.6562 L-0.1406 0.8594 L0.2344 0.8594 Q0.2188 0.9219 0.2188 0.9844 Q0.2188 1.1562 0.2969 1.25 Q0.3906 1.375 0.6406 1.375 Q1.3281 1.375 1.9219 0.7812 L0.9531 -3.7344 L0.4688 -3.7344 L0.5625 -4.1562 L1.625 -4.1562 L2.5469 -0.0312 Q3.1875 -0.9688 3.3281 -1.3594 Q3.8281 -2.5781 3.9219 -3.7031 L3.4531 -3.7031 L3.5312 -4.125 L4.6094 -4.125 Z" stroke="none"/></g><g text-rendering="optimizeLegibility" transform="translate(104.1149,44.3292)" color-rendering="optimizeQuality" color-interpolation="linearRGB" image-rendering="optimizeQuality"><path d="M1.0312 -4.4375 L0.5938 -4.4375 L0.5938 -5.4844 Q1 -5.7031 1.4219 -5.8125 Q1.8594 -5.9375 2.2656 -5.9375 Q3.1719 -5.9375 3.6875 -5.5 Q4.2188 -5.0625 4.2188 -4.2969 Q4.2188 -3.4375 3.0312 -2.25 Q2.9375 -2.1562 2.8906 -2.1094 L1.4219 -0.6406 L3.8438 -0.6406 L3.8438 -1.3594 L4.3125 -1.3594 L4.3125 0 L0.5469 0 L0.5469 -0.4219 L2.3125 -2.1875 Q2.9062 -2.7812 3.1562 -3.2656 Q3.4062 -3.7656 3.4062 -4.2969 Q3.4062 -4.8906 3.0938 -5.2188 Q2.7812 -5.5469 2.25 -5.5469 Q1.6875 -5.5469 1.375 -5.2656 Q1.0781 -5 1.0312 -4.4375 Z" stroke="none"/></g><g text-rendering="optimizeLegibility" transform="translate(108.068,39.5792)" color-rendering="optimizeQuality" color-interpolation="linearRGB" image-rendering="optimizeQuality"><path d="M0.3594 -2.4531 L2.3594 -2.4531 L2.3594 -1.8438 L0.3594 -1.8438 L0.3594 -2.4531 Z" stroke="none"/></g><g text-rendering="optimizeLegibility" transform="translate(110.7243,39.5792)" color-rendering="optimizeQuality" color-interpolation="linearRGB" image-rendering="optimizeQuality"><path d="M4.6094 -4.125 Q4.2188 -1.8906 3.5312 -0.7031 Q2.5469 1.0312 1.7344 1.5469 Q1.3906 1.7812 0.4531 1.7812 Q0.2656 1.7812 0.0781 1.75 Q-0.1094 1.7188 -0.2969 1.6562 L-0.1406 0.8594 L0.2344 0.8594 Q0.2188 0.9219 0.2188 0.9844 Q0.2188 1.1562 0.2969 1.25 Q0.3906 1.375 0.6406 1.375 Q1.3281 1.375 1.9219 0.7812 L0.9531 -3.7344 L0.4688 -3.7344 L0.5625 -4.1562 L1.625 -4.1562 L2.5469 -0.0312 Q3.1875 -0.9688 3.3281 -1.3594 Q3.8281 -2.5781 3.9219 -3.7031 L3.4531 -3.7031 L3.5312 -4.125 L4.6094 -4.125 Z" stroke="none"/></g><g text-rendering="optimizeLegibility" transform="translate(115.3336,44.3292)" color-rendering="optimizeQuality" color-interpolation="linearRGB" image-rendering="optimizeQuality"><path d="M1.1406 0 L1.1406 -0.4219 L2.1562 -0.4219 L2.1562 -5.2656 L0.9844 -4.5 L0.9844 -5.0156 L2.4062 -5.9375 L2.9375 -5.9375 L2.9375 -0.4219 L3.9531 -0.4219 L3.9531 0 L1.1406 0 Z" stroke="none"/></g><g text-rendering="optimizeLegibility" transform="translate(118.7243,41.6716) matrix(1,0,0,2.1261,0,0)" color-rendering="optimizeQuality" color-interpolation="linearRGB" image-rendering="optimizeQuality"><path d="M0.5625 1.25 L0.5625 0.8594 Q1.1719 0.4531 1.4375 -0.2969 Q1.7031 -1.0625 1.7031 -2.4219 Q1.7031 -3.7812 1.4375 -4.5312 Q1.1719 -5.2812 0.5625 -5.7031 L0.5625 -6.0781 Q1.5156 -5.6562 2 -4.7344 Q2.4844 -3.8125 2.4844 -2.4219 Q2.4844 -1.0312 2 -0.0938 Q1.5156 0.8281 0.5625 1.25 Z" stroke="none"/></g><g text-rendering="optimizeLegibility" transform="translate(121.2086,31.7179)" color-rendering="optimizeQuality" color-interpolation="linearRGB" image-rendering="optimizeQuality"><path d="M1.0312 -4.4375 L0.5938 -4.4375 L0.5938 -5.4844 Q1 -5.7031 1.4219 -5.8125 Q1.8594 -5.9375 2.2656 -5.9375 Q3.1719 -5.9375 3.6875 -5.5 Q4.2188 -5.0625 4.2188 -4.2969 Q4.2188 -3.4375 3.0312 -2.25 Q2.9375 -2.1562 2.8906 -2.1094 L1.4219 -0.6406 L3.8438 -0.6406 L3.8438 -1.3594 L4.3125 -1.3594 L4.3125 0 L0.5469 0 L0.5469 -0.4219 L2.3125 -2.1875 Q2.9062 -2.7812 3.1562 -3.2656 Q3.4062 -3.7656 3.4062 -4.2969 Q3.4062 -4.8906 3.0938 -5.2188 Q2.7812 -5.5469 2.25 -5.5469 Q1.6875 -5.5469 1.375 -5.2656 Q1.0781 -5 1.0312 -4.4375 Z" stroke="none"/></g><g text-rendering="optimizeLegibility" transform="translate(151.5008,33.3873) matrix(1,0,0,3.5717,0,0)" color-rendering="optimizeQuality" color-interpolation="linearRGB" image-rendering="optimizeQuality"><path d="M0.8438 1.875 L0.8438 1.2969 Q1.75 0.6719 2.1406 -0.4531 Q2.5469 -1.5781 2.5469 -3.625 Q2.5469 -5.6719 2.1406 -6.7969 Q1.75 -7.9219 0.8438 -8.5469 L0.8438 -9.125 Q2.2812 -8.4844 3 -7.0938 Q3.7344 -5.7031 3.7344 -3.625 Q3.7344 -1.5469 3 -0.1562 Q2.2812 1.2344 0.8438 1.875 Z" stroke="none"/></g></g></svg>