<svg xmlns="http://www.w3.org/2000/svg" xmlns:xlink="http://www.w3.org/1999/xlink" stroke-dasharray="none" shape-rendering="auto" font-family="'Dialog'" width="8" text-rendering="auto" fill-opacity="1" contentScriptType="text/ecmascript" color-interpolation="auto" color-rendering="auto" preserveAspectRatio="xMidYMid meet" font-size="12px" fill="black" stroke="black" image-rendering="auto" stroke-miterlimit="10" zoomAndPan="magnify" version="1.0" stroke-linecap="square" stroke-linejoin="miter" contentStyleType="text/css" font-style="normal" height="11" stroke-width="1" stroke-dashoffset="0" font-weight="normal" stroke-opacity="1"><!--Converted from MathML using JEuclid--><defs id="genericDefs"/><g><g text-rendering="optimizeLegibility" transform="translate(0,10)" color-rendering="optimizeQuality" color-interpolation="linearRGB" image-rendering="optimizeQuality"><path d="M7.2031 -9.125 L5.4375 0 L4.3594 0 L4.5469 -0.9688 Q4.1094 -0.3906 3.5625 -0.1094 Q3.0312 0.1719 2.2969 0.1719 Q1.1562 0.1719 0.6094 -0.7344 Q0.2344 -1.3438 0.2344 -2.1875 Q0.2344 -2.625 0.3281 -3.125 Q0.625 -4.5781 1.5156 -5.4844 Q2.4219 -6.4062 3.5781 -6.4062 Q4.2969 -6.4062 4.7344 -6.125 Q5.1719 -5.8438 5.375 -5.25 L6 -8.5 L4.9844 -8.5 L5.1094 -9.125 L7.2031 -9.125 ZM4.9062 -2.8125 L5.0156 -3.4219 Q5.1094 -3.875 5.1094 -4.25 Q5.1094 -4.7812 4.9219 -5.1406 Q4.6094 -5.7188 3.7812 -5.7188 Q2.9531 -5.7188 2.3906 -5.0625 Q1.8438 -4.4062 1.5938 -3.125 Q1.4844 -2.5312 1.4844 -2.0625 Q1.4844 -1.5312 1.6406 -1.1719 Q1.9375 -0.5 2.7656 -0.5 Q3.5938 -0.5 4.125 -1.0938 Q4.6719 -1.6875 4.9062 -2.8125 Z" stroke="none"/></g></g></svg>