<svg xmlns="http://www.w3.org/2000/svg" xmlns:xlink="http://www.w3.org/1999/xlink" stroke-dasharray="none" shape-rendering="auto" font-family="'Dialog'" width="12" text-rendering="auto" fill-opacity="1" contentScriptType="text/ecmascript" color-interpolation="auto" color-rendering="auto" preserveAspectRatio="xMidYMid meet" font-size="12px" fill="black" stroke="black" image-rendering="auto" stroke-miterlimit="10" zoomAndPan="magnify" version="1.0" stroke-linecap="square" stroke-linejoin="miter" contentStyleType="text/css" font-style="normal" height="16" stroke-width="1" stroke-dashoffset="0" font-weight="normal" stroke-opacity="1"><!--Converted from MathML using JEuclid--><defs id="genericDefs"/><g><g text-rendering="optimizeLegibility" transform="translate(0.75,10)" color-rendering="optimizeQuality" color-interpolation="linearRGB" image-rendering="optimizeQuality"><path d="M5.9844 -7.6406 L5.4062 -7.6406 Q5.4375 -7.7656 5.4375 -7.875 Q5.4375 -8.1562 5.2969 -8.3125 Q5.0938 -8.5469 4.625 -8.5469 Q4.0312 -8.5469 3.7188 -8.2031 Q3.4062 -7.875 3.2344 -7.0312 L3.0781 -6.2344 L4.8281 -6.2344 L4.7031 -5.6094 L2.9531 -5.6094 L1.7969 0.3906 Q1.5938 1.4375 0.9531 1.9688 Q0.3125 2.5 -0.75 2.5 L-0.6719 1.9219 Q-0.0625 1.9219 0.2344 1.5938 Q0.5469 1.25 0.7188 0.3906 L1.875 -5.6094 L0.8438 -5.6094 L0.9688 -6.2344 L2 -6.2344 L2.1562 -7.0156 Q2.3594 -8.0625 3 -8.5781 Q3.6562 -9.125 4.7031 -9.125 Q5.0938 -9.125 5.4688 -9.0469 Q5.8438 -8.9844 6.2188 -8.8281 L5.9844 -7.6406 Z" stroke="none"/></g><g text-rendering="optimizeLegibility" transform="translate(6.9688,15.5938)" color-rendering="optimizeQuality" color-interpolation="linearRGB" image-rendering="optimizeQuality"><path d="M2.7031 -0.2969 Q3.3438 -0.2969 3.6562 -0.9844 Q3.9688 -1.6875 3.9688 -3.0938 Q3.9688 -4.5156 3.6562 -5.2031 Q3.3438 -5.9062 2.7031 -5.9062 Q2.0781 -5.9062 1.75 -5.2031 Q1.4375 -4.5156 1.4375 -3.0938 Q1.4375 -1.6875 1.75 -0.9844 Q2.0781 -0.2969 2.7031 -0.2969 ZM2.7031 0.125 Q1.7031 0.125 1.125 -0.7188 Q0.5625 -1.5781 0.5625 -3.0938 Q0.5625 -4.625 1.125 -5.4688 Q1.7031 -6.3125 2.7031 -6.3125 Q3.7188 -6.3125 4.2812 -5.4688 Q4.8594 -4.625 4.8594 -3.0938 Q4.8594 -1.5781 4.2812 -0.7188 Q3.7188 0.125 2.7031 0.125 Z" stroke="none"/></g></g></svg>