<svg xmlns="http://www.w3.org/2000/svg" xmlns:xlink="http://www.w3.org/1999/xlink" stroke-dasharray="none" shape-rendering="auto" font-family="'Dialog'" width="12" text-rendering="auto" fill-opacity="1" contentScriptType="text/ecmascript" color-interpolation="auto" color-rendering="auto" preserveAspectRatio="xMidYMid meet" font-size="12px" fill="black" stroke="black" image-rendering="auto" stroke-miterlimit="10" zoomAndPan="magnify" version="1.0" stroke-linecap="square" stroke-linejoin="miter" contentStyleType="text/css" font-style="normal" height="15" stroke-width="1" stroke-dashoffset="0" font-weight="normal" stroke-opacity="1"><!--Converted from MathML using JEuclid--><defs id="genericDefs"/><g><g text-rendering="optimizeLegibility" transform="translate(0.75,10)" color-rendering="optimizeQuality" color-interpolation="linearRGB" image-rendering="optimizeQuality"><path d="M5.9844 -7.6406 L5.4062 -7.6406 Q5.4375 -7.7656 5.4375 -7.875 Q5.4375 -8.1562 5.2969 -8.3125 Q5.0938 -8.5469 4.625 -8.5469 Q4.0312 -8.5469 3.7188 -8.2031 Q3.4062 -7.875 3.2344 -7.0312 L3.0781 -6.2344 L4.8281 -6.2344 L4.7031 -5.6094 L2.9531 -5.6094 L1.7969 0.3906 Q1.5938 1.4375 0.9531 1.9688 Q0.3125 2.5 -0.75 2.5 L-0.6719 1.9219 Q-0.0625 1.9219 0.2344 1.5938 Q0.5469 1.25 0.7188 0.3906 L1.875 -5.6094 L0.8438 -5.6094 L0.9688 -6.2344 L2 -6.2344 L2.1562 -7.0156 Q2.3594 -8.0625 3 -8.5781 Q3.6562 -9.125 4.7031 -9.125 Q5.0938 -9.125 5.4688 -9.0469 Q5.8438 -8.9844 6.2188 -8.8281 L5.9844 -7.6406 Z" stroke="none"/></g><g text-rendering="optimizeLegibility" transform="translate(6.9688,14.7109)" color-rendering="optimizeQuality" color-interpolation="linearRGB" image-rendering="optimizeQuality"><path d="M4.2031 -1.3281 Q3.9062 -0.625 3.375 -0.25 Q2.8438 0.125 2.1094 0.125 Q1.1406 0.125 0.6875 -0.5156 Q0.3594 -0.9531 0.3594 -1.5938 Q0.3594 -1.8906 0.4219 -2.2188 Q0.625 -3.2656 1.3281 -3.9062 Q2.0469 -4.5469 3.0156 -4.5469 Q3.4375 -4.5469 3.8281 -4.4375 Q4.2344 -4.3438 4.6094 -4.1406 L4.3906 -3.0156 L3.9531 -3.0156 Q3.9531 -3.0781 3.9531 -3.125 Q3.9531 -3.625 3.7344 -3.8594 Q3.4844 -4.125 2.9375 -4.125 Q2.3281 -4.125 1.9062 -3.6406 Q1.5 -3.1719 1.3125 -2.2188 Q1.2344 -1.7812 1.2344 -1.4375 Q1.2344 -1.0312 1.3438 -0.7656 Q1.5781 -0.2969 2.2031 -0.2969 Q2.6875 -0.2969 3.0312 -0.5469 Q3.375 -0.8125 3.5938 -1.3281 L4.2031 -1.3281 Z" stroke="none"/></g></g></svg>