<svg xmlns="http://www.w3.org/2000/svg" xmlns:xlink="http://www.w3.org/1999/xlink" stroke-dasharray="none" shape-rendering="auto" font-family="'Dialog'" width="12" text-rendering="auto" fill-opacity="1" contentScriptType="text/ecmascript" color-interpolation="auto" color-rendering="auto" preserveAspectRatio="xMidYMid meet" font-size="12px" fill="black" stroke="black" image-rendering="auto" stroke-miterlimit="10" zoomAndPan="magnify" version="1.0" stroke-linecap="square" stroke-linejoin="miter" contentStyleType="text/css" font-style="normal" height="15" stroke-width="1" stroke-dashoffset="0" font-weight="normal" stroke-opacity="1"><!--Converted from MathML using JEuclid--><defs id="genericDefs"/><g><g text-rendering="optimizeLegibility" transform="translate(0.75,10)" color-rendering="optimizeQuality" color-interpolation="linearRGB" image-rendering="optimizeQuality"><path d="M5.9844 -7.6406 L5.4062 -7.6406 Q5.4375 -7.7656 5.4375 -7.875 Q5.4375 -8.1562 5.2969 -8.3125 Q5.0938 -8.5469 4.625 -8.5469 Q4.0312 -8.5469 3.7188 -8.2031 Q3.4062 -7.875 3.2344 -7.0312 L3.0781 -6.2344 L4.8281 -6.2344 L4.7031 -5.6094 L2.9531 -5.6094 L1.7969 0.3906 Q1.5938 1.4375 0.9531 1.9688 Q0.3125 2.5 -0.75 2.5 L-0.6719 1.9219 Q-0.0625 1.9219 0.2344 1.5938 Q0.5469 1.25 0.7188 0.3906 L1.875 -5.6094 L0.8438 -5.6094 L0.9688 -6.2344 L2 -6.2344 L2.1562 -7.0156 Q2.3594 -8.0625 3 -8.5781 Q3.6562 -9.125 4.7031 -9.125 Q5.0938 -9.125 5.4688 -9.0469 Q5.8438 -8.9844 6.2188 -8.8281 L5.9844 -7.6406 Z" stroke="none"/></g><g text-rendering="optimizeLegibility" transform="translate(6.9688,14.7109)" color-rendering="optimizeQuality" color-interpolation="linearRGB" image-rendering="optimizeQuality"><path d="M4.375 -1.3281 Q4.2188 -0.625 3.75 -0.25 Q3.2969 0.125 2.5625 0.125 Q1.5938 0.125 1 -0.5156 Q0.4219 -1.1562 0.4219 -2.2188 Q0.4219 -3.2656 1 -3.9062 Q1.5938 -4.5469 2.5625 -4.5469 Q2.9844 -4.5469 3.3906 -4.4375 Q3.8125 -4.3438 4.2344 -4.1406 L4.2344 -3.0156 L3.7812 -3.0156 Q3.7031 -3.5938 3.4062 -3.8594 Q3.1094 -4.125 2.5625 -4.125 Q1.9531 -4.125 1.625 -3.6406 Q1.3125 -3.1719 1.3125 -2.2188 Q1.3125 -1.25 1.625 -0.7656 Q1.9531 -0.2969 2.5625 -0.2969 Q3.0625 -0.2969 3.3594 -0.5469 Q3.6562 -0.8125 3.7656 -1.3281 L4.375 -1.3281 Z" stroke="none"/></g></g></svg>