<svg xmlns="http://www.w3.org/2000/svg" xmlns:xlink="http://www.w3.org/1999/xlink" stroke-dasharray="none" shape-rendering="auto" font-family="'Dialog'" width="31" text-rendering="auto" fill-opacity="1" contentScriptType="text/ecmascript" color-interpolation="auto" color-rendering="auto" preserveAspectRatio="xMidYMid meet" font-size="12px" fill="black" stroke="black" image-rendering="auto" stroke-miterlimit="10" zoomAndPan="magnify" version="1.0" stroke-linecap="square" stroke-linejoin="miter" contentStyleType="text/css" font-style="normal" height="14" stroke-width="1" stroke-dashoffset="0" font-weight="normal" stroke-opacity="1"><!--Converted from MathML using JEuclid--><defs id="genericDefs"/><g><g text-rendering="optimizeLegibility" transform="translate(0,7)" color-rendering="optimizeQuality" color-interpolation="linearRGB" image-rendering="optimizeQuality"><path d="M3.875 -0.3594 Q3.9062 1.3594 3.4531 2 Q3.0781 2.5 2.6719 2.5156 Q2.0469 2.5312 1.8906 1.9219 Q1.7188 1.25 2.7969 -0.0938 L2.1875 -5.6094 L1.1562 -5.6094 L1.2812 -6.2344 L3.2812 -6.2344 L3.8125 -1.1719 Q5.4844 -2.9531 5.8906 -4.1875 Q6.0781 -4.7656 6 -5.1562 Q5.8906 -5.7812 5.625 -5.8906 L5.7031 -6.2344 L6.3594 -6.2344 Q6.9531 -5.8125 7.0469 -5.4688 Q7.1875 -4.9844 7.125 -4.6719 Q7.0156 -4.1094 6.1875 -2.9844 Q5.875 -2.5312 3.875 -0.3594 Z" stroke="none"/></g><g text-rendering="optimizeLegibility" transform="translate(7.1406,11.8047)" color-rendering="optimizeQuality" color-interpolation="linearRGB" image-rendering="optimizeQuality"><path d="M3.3906 -1.3906 L3.3906 -2.3281 L2.4062 -2.3281 Q1.8281 -2.3281 1.5469 -2.0781 Q1.2812 -1.8281 1.2812 -1.3281 Q1.2812 -0.8594 1.5625 -0.5938 Q1.8438 -0.3281 2.3281 -0.3281 Q2.7969 -0.3281 3.0938 -0.625 Q3.3906 -0.9219 3.3906 -1.3906 ZM4.1562 -2.7656 L4.1562 -0.4375 L4.8281 -0.4375 L4.8281 0 L3.3906 0 L3.3906 -0.4844 Q3.1406 -0.1719 2.7969 -0.0156 Q2.4688 0.125 2.0312 0.125 Q1.2812 0.125 0.8438 -0.2656 Q0.4219 -0.6562 0.4219 -1.3281 Q0.4219 -2.0156 0.9062 -2.3906 Q1.4062 -2.7656 2.3125 -2.7656 L3.3906 -2.7656 L3.3906 -3.0781 Q3.3906 -3.5781 3.0781 -3.8438 Q2.7812 -4.125 2.2188 -4.125 Q1.7656 -4.125 1.5 -3.9219 Q1.2344 -3.7188 1.1562 -3.3125 L0.7656 -3.3125 L0.7656 -4.2031 Q1.1719 -4.375 1.5469 -4.4531 Q1.9219 -4.5469 2.2812 -4.5469 Q3.1875 -4.5469 3.6719 -4.0781 Q4.1562 -3.625 4.1562 -2.7656 ZM5.3438 0 L5.3438 -0.4375 L6.0469 -0.4375 L6.0469 -3.9688 L5.3125 -3.9688 L5.3125 -4.4219 L6.7969 -4.4219 L6.7969 -3.6406 Q7.0156 -4.0781 7.3438 -4.3125 Q7.6875 -4.5469 8.1406 -4.5469 Q8.875 -4.5469 9.2188 -4.125 Q9.5625 -3.7031 9.5625 -2.8125 L9.5625 -0.4375 L10.25 -0.4375 L10.25 0 L8.1406 0 L8.1406 -0.4375 L8.7969 -0.4375 L8.7969 -2.5625 Q8.7969 -3.375 8.5938 -3.6719 Q8.3906 -3.9844 7.8906 -3.9844 Q7.3594 -3.9844 7.0781 -3.5938 Q6.7969 -3.2031 6.7969 -2.4688 L6.7969 -0.4375 L7.4688 -0.4375 L7.4688 0 L5.3438 0 ZM15.4688 -3.9688 L15.4688 -0.0938 Q15.4688 0.8594 14.9375 1.375 Q14.4219 1.8906 13.4531 1.8906 Q13.0156 1.8906 12.6094 1.8125 Q12.2188 1.7344 11.8594 1.5781 L11.8594 0.6562 L12.25 0.6562 Q12.3281 1.0781 12.6094 1.2812 Q12.8906 1.4844 13.4062 1.4844 Q14.0781 1.4844 14.3906 1.0938 Q14.7031 0.7188 14.7031 -0.0938 L14.7031 -0.6875 Q14.4844 -0.2812 14.125 -0.0781 Q13.7812 0.125 13.2812 0.125 Q12.4531 0.125 11.9375 -0.5156 Q11.4219 -1.1719 11.4219 -2.2188 Q11.4219 -3.25 11.9375 -3.8906 Q12.4531 -4.5469 13.2812 -4.5469 Q13.7812 -4.5469 14.125 -4.3438 Q14.4844 -4.1406 14.7031 -3.7344 L14.7031 -4.4219 L16.2031 -4.4219 L16.2031 -3.9688 L15.4688 -3.9688 ZM14.7031 -2.4219 Q14.7031 -3.2188 14.3906 -3.6406 Q14.0938 -4.0625 13.5156 -4.0625 Q12.9219 -4.0625 12.6094 -3.5938 Q12.3125 -3.125 12.3125 -2.2188 Q12.3125 -1.2969 12.6094 -0.8281 Q12.9219 -0.3594 13.5156 -0.3594 Q14.0938 -0.3594 14.3906 -0.7656 Q14.7031 -1.1875 14.7031 -1.9844 L14.7031 -2.4219 ZM17.75 -0.4375 L18.4688 -0.4375 L18.4688 0 L16.25 0 L16.25 -0.4375 L16.9844 -0.4375 L16.9844 -6.0312 L16.25 -6.0312 L16.25 -6.4688 L17.75 -6.4688 L17.75 -0.4375 ZM23.6094 -2.125 L20.3125 -2.125 L20.3125 -2.0938 Q20.3125 -1.2031 20.6406 -0.75 Q20.9844 -0.2969 21.6562 -0.2969 Q22.1562 -0.2969 22.4688 -0.5469 Q22.7969 -0.8125 22.9219 -1.3438 L23.5469 -1.3438 Q23.3594 -0.6094 22.8594 -0.2344 Q22.375 0.125 21.5625 0.125 Q20.5938 0.125 20 -0.5156 Q19.4219 -1.1562 19.4219 -2.2188 Q19.4219 -3.2656 20 -3.9062 Q20.5781 -4.5469 21.5156 -4.5469 Q22.5156 -4.5469 23.0469 -3.9219 Q23.5938 -3.3125 23.6094 -2.125 ZM22.7188 -2.5625 Q22.6875 -3.3438 22.375 -3.7344 Q22.0781 -4.125 21.5156 -4.125 Q20.9844 -4.125 20.6875 -3.7344 Q20.3906 -3.3438 20.3125 -2.5625 L22.7188 -2.5625 Z" stroke="none"/></g></g></svg>