<svg xmlns="http://www.w3.org/2000/svg" xmlns:xlink="http://www.w3.org/1999/xlink" stroke-dasharray="none" shape-rendering="auto" font-family="'Dialog'" width="16" text-rendering="auto" fill-opacity="1" contentScriptType="text/ecmascript" color-interpolation="auto" color-rendering="auto" preserveAspectRatio="xMidYMid meet" font-size="12px" fill="black" stroke="black" image-rendering="auto" stroke-miterlimit="10" zoomAndPan="magnify" version="1.0" stroke-linecap="square" stroke-linejoin="miter" contentStyleType="text/css" font-style="normal" height="13" stroke-width="1" stroke-dashoffset="0" font-weight="normal" stroke-opacity="1"><!--Converted from MathML using JEuclid--><defs id="genericDefs"/><g><g text-rendering="optimizeLegibility" transform="translate(0.1875,9)" color-rendering="optimizeQuality" color-interpolation="linearRGB" image-rendering="optimizeQuality"><path d="M-0.1875 0 L-0.0781 -0.625 L1.0469 -0.625 L2.5 -8.125 L1.3906 -8.125 L1.5156 -8.75 L4.9219 -8.75 L4.8125 -8.125 L3.6875 -8.125 L3.1094 -5.0938 L7.6406 -5.0938 L8.2344 -8.125 L7.1094 -8.125 L7.2344 -8.75 L10.6562 -8.75 L10.5312 -8.125 L9.4219 -8.125 L7.9531 -0.625 L9.0781 -0.625 L8.9531 0 L5.5312 0 L5.6562 -0.625 L6.7812 -0.625 L7.5 -4.3906 L2.9688 -4.3906 L2.2344 -0.625 L3.3438 -0.625 L3.2344 0 L-0.1875 0 Z" stroke="none"/></g><g text-rendering="optimizeLegibility" transform="translate(10.8438,12.1562)" color-rendering="optimizeQuality" color-interpolation="linearRGB" image-rendering="optimizeQuality"><path d="M1.2031 0 L1.2031 -0.4375 L2.2969 -0.4375 L2.2969 -5.6094 L1.0469 -4.7969 L1.0469 -5.3438 L2.5469 -6.3125 L3.125 -6.3125 L3.125 -0.4375 L4.2031 -0.4375 L4.2031 0 L1.2031 0 Z" stroke="none"/></g></g></svg>