<svg xmlns="http://www.w3.org/2000/svg" xmlns:xlink="http://www.w3.org/1999/xlink" stroke-dasharray="none" shape-rendering="auto" font-family="'Dialog'" width="84" text-rendering="auto" fill-opacity="1" contentScriptType="text/ecmascript" color-interpolation="auto" color-rendering="auto" preserveAspectRatio="xMidYMid meet" font-size="12px" fill="black" stroke="black" image-rendering="auto" stroke-miterlimit="10" zoomAndPan="magnify" version="1.0" stroke-linecap="square" stroke-linejoin="miter" contentStyleType="text/css" font-style="normal" height="17" stroke-width="1" stroke-dashoffset="0" font-weight="normal" stroke-opacity="1"><!--Converted from MathML using JEuclid--><defs id="genericDefs"/><g><g text-rendering="optimizeLegibility" transform="translate(-0.9531,13.639) matrix(1,0,0,1.4342,0,0)" color-rendering="optimizeQuality" color-interpolation="linearRGB" image-rendering="optimizeQuality"><path d="M3.8281 1.875 Q2.4062 1.2344 1.6719 -0.1562 Q0.9531 -1.5469 0.9531 -3.625 Q0.9531 -5.7031 1.6719 -7.0938 Q2.4062 -8.4844 3.8281 -9.125 L3.8281 -8.5469 Q2.9219 -7.9219 2.5312 -6.7969 Q2.1406 -5.6719 2.1406 -3.625 Q2.1406 -1.5781 2.5312 -0.4531 Q2.9219 0.6719 3.8281 1.2969 L3.8281 1.875 Z" stroke="none"/></g><g text-rendering="optimizeLegibility" transform="translate(2.875,13)" color-rendering="optimizeQuality" color-interpolation="linearRGB" image-rendering="optimizeQuality"><path d="M0.6562 0 L0.6562 -0.625 L1.7812 -0.625 L1.7812 -8.125 L0.6562 -8.125 L0.6562 -8.75 L4.0781 -8.75 L4.0781 -8.125 L2.9688 -8.125 L2.9688 -0.7188 L6.9688 -0.7188 L6.9688 -2.1875 L7.6875 -2.1875 L7.6875 0 L0.6562 0 ZM12.7812 -1.9531 L12.7812 -3.2812 L11.3906 -3.2812 Q10.5781 -3.2812 10.1875 -2.9219 Q9.7969 -2.5781 9.7969 -1.875 Q9.7969 -1.2188 10.1875 -0.8281 Q10.5938 -0.4531 11.2812 -0.4531 Q11.9531 -0.4531 12.3594 -0.875 Q12.7812 -1.2969 12.7812 -1.9531 ZM13.8594 -3.8906 L13.8594 -0.625 L14.8125 -0.625 L14.8125 0 L12.7812 0 L12.7812 -0.6719 Q12.4219 -0.2344 11.9531 -0.0312 Q11.4844 0.1719 10.8594 0.1719 Q9.8125 0.1719 9.2031 -0.375 Q8.5938 -0.9375 8.5938 -1.875 Q8.5938 -2.8438 9.2969 -3.375 Q10 -3.9062 11.2656 -3.9062 L12.7812 -3.9062 L12.7812 -4.3281 Q12.7812 -5.0469 12.3438 -5.4219 Q11.9219 -5.8125 11.1406 -5.8125 Q10.4844 -5.8125 10.1094 -5.5156 Q9.7344 -5.2344 9.6406 -4.6562 L9.0781 -4.6562 L9.0781 -5.9219 Q9.6406 -6.1562 10.1719 -6.2812 Q10.7031 -6.4062 11.2031 -6.4062 Q12.5 -6.4062 13.1719 -5.75 Q13.8594 -5.1094 13.8594 -3.8906 ZM16.2969 -5.6094 L15.3438 -5.6094 L15.3438 -6.2344 L16.2969 -6.2344 L16.2969 -8.1562 L17.375 -8.1562 L17.375 -6.2344 L19.4062 -6.2344 L19.4062 -5.6094 L17.375 -5.6094 L17.375 -1.6406 Q17.375 -0.8594 17.5312 -0.625 Q17.6875 -0.4062 18.0938 -0.4062 Q18.5156 -0.4062 18.7031 -0.6562 Q18.9062 -0.9062 18.9219 -1.4688 L19.7344 -1.4688 Q19.6875 -0.6094 19.2656 -0.2188 Q18.8438 0.1719 18 0.1719 Q17.0625 0.1719 16.6719 -0.2344 Q16.2969 -0.6562 16.2969 -1.6406 L16.2969 -5.6094 Z" stroke="none"/></g><g text-rendering="optimizeLegibility" transform="translate(22.6094,16.3281)" color-rendering="optimizeQuality" color-interpolation="linearRGB" image-rendering="optimizeQuality"><path d="M1.0938 -4.7344 L0.625 -4.7344 L0.625 -5.8281 Q1.0625 -6.0781 1.5156 -6.1875 Q1.9688 -6.3125 2.4062 -6.3125 Q3.375 -6.3125 3.9375 -5.8438 Q4.5 -5.375 4.5 -4.5781 Q4.5 -3.6562 3.2188 -2.3906 Q3.125 -2.2969 3.0781 -2.25 L1.5 -0.6875 L4.0938 -0.6875 L4.0938 -1.4531 L4.5781 -1.4531 L4.5781 0 L0.5781 0 L0.5781 -0.4531 L2.4688 -2.3281 Q3.0781 -2.9531 3.3438 -3.4688 Q3.625 -4 3.625 -4.5781 Q3.625 -5.2031 3.2969 -5.5469 Q2.9688 -5.9062 2.3906 -5.9062 Q1.7969 -5.9062 1.4688 -5.6094 Q1.1406 -5.3125 1.0938 -4.7344 Z" stroke="none"/></g><g text-rendering="optimizeLegibility" transform="translate(26.75,13)" color-rendering="optimizeQuality" color-interpolation="linearRGB" image-rendering="optimizeQuality"><path d="M0.4375 1.1719 Q0.9844 0.7656 1.2344 0.2188 Q1.5 -0.3281 1.5 -1.1094 L1.5 -1.3281 L2.6562 -1.3281 Q2.6094 -0.3281 2.1875 0.3906 Q1.7656 1.1094 0.9062 1.6406 L0.4375 1.1719 Z" stroke="none"/></g><g text-rendering="optimizeLegibility" transform="translate(32.7618,13)" color-rendering="optimizeQuality" color-interpolation="linearRGB" image-rendering="optimizeQuality"><path d="M0.6562 0 L0.6562 -0.625 L1.7812 -0.625 L1.7812 -8.125 L0.6562 -8.125 L0.6562 -8.75 L4.0781 -8.75 L4.0781 -8.125 L2.9688 -8.125 L2.9688 -0.7188 L6.9688 -0.7188 L6.9688 -2.1875 L7.6875 -2.1875 L7.6875 0 L0.6562 0 ZM11.6094 -0.4062 Q12.4844 -0.4062 12.9219 -1.0938 Q13.3594 -1.7812 13.3594 -3.125 Q13.3594 -4.4531 12.9219 -5.125 Q12.4844 -5.8125 11.6094 -5.8125 Q10.75 -5.8125 10.2969 -5.125 Q9.8594 -4.4531 9.8594 -3.125 Q9.8594 -1.7812 10.2969 -1.0938 Q10.75 -0.4062 11.6094 -0.4062 ZM11.6094 0.1719 Q10.25 0.1719 9.4219 -0.7188 Q8.5938 -1.625 8.5938 -3.125 Q8.5938 -4.6094 9.4219 -5.5 Q10.25 -6.4062 11.6094 -6.4062 Q12.9688 -6.4062 13.7969 -5.5 Q14.625 -4.6094 14.625 -3.125 Q14.625 -1.625 13.7969 -0.7188 Q12.9688 0.1719 11.6094 0.1719 ZM15.5 0 L15.5 -0.625 L16.4688 -0.625 L16.4688 -5.6094 L15.4375 -5.6094 L15.4375 -6.2344 L17.5469 -6.2344 L17.5469 -5.125 Q17.8438 -5.75 18.3125 -6.0781 Q18.7969 -6.4062 19.4375 -6.4062 Q20.4688 -6.4062 20.9531 -5.8125 Q21.4375 -5.2188 21.4375 -3.9688 L21.4375 -0.625 L22.3906 -0.625 L22.3906 0 L19.4219 0 L19.4219 -0.625 L20.3438 -0.625 L20.3438 -3.625 Q20.3438 -4.7656 20.0625 -5.1875 Q19.7812 -5.6094 19.0781 -5.6094 Q18.3281 -5.6094 17.9375 -5.0625 Q17.5469 -4.5156 17.5469 -3.4688 L17.5469 -0.625 L18.4844 -0.625 L18.4844 0 L15.5 0 Z" stroke="none"/></g><g text-rendering="optimizeLegibility" transform="translate(55.1524,16.3281)" color-rendering="optimizeQuality" color-interpolation="linearRGB" image-rendering="optimizeQuality"><path d="M1.0938 -4.7344 L0.625 -4.7344 L0.625 -5.8281 Q1.0625 -6.0781 1.5156 -6.1875 Q1.9688 -6.3125 2.4062 -6.3125 Q3.375 -6.3125 3.9375 -5.8438 Q4.5 -5.375 4.5 -4.5781 Q4.5 -3.6562 3.2188 -2.3906 Q3.125 -2.2969 3.0781 -2.25 L1.5 -0.6875 L4.0938 -0.6875 L4.0938 -1.4531 L4.5781 -1.4531 L4.5781 0 L0.5781 0 L0.5781 -0.4531 L2.4688 -2.3281 Q3.0781 -2.9531 3.3438 -3.4688 Q3.625 -4 3.625 -4.5781 Q3.625 -5.2031 3.2969 -5.5469 Q2.9688 -5.9062 2.3906 -5.9062 Q1.7969 -5.9062 1.4688 -5.6094 Q1.1406 -5.3125 1.0938 -4.7344 Z" stroke="none"/></g><g text-rendering="optimizeLegibility" transform="translate(59.2931,13)" color-rendering="optimizeQuality" color-interpolation="linearRGB" image-rendering="optimizeQuality"><path d="M0.4375 1.1719 Q0.9844 0.7656 1.2344 0.2188 Q1.5 -0.3281 1.5 -1.1094 L1.5 -1.3281 L2.6562 -1.3281 Q2.6094 -0.3281 2.1875 0.3906 Q1.7656 1.1094 0.9062 1.6406 L0.4375 1.1719 Z" stroke="none"/></g><g text-rendering="optimizeLegibility" transform="translate(65.4924,13)" color-rendering="optimizeQuality" color-interpolation="linearRGB" image-rendering="optimizeQuality"><path d="M-0.1875 0 L-0.0781 -0.625 L1.0469 -0.625 L2.5 -8.125 L1.3906 -8.125 L1.5156 -8.75 L4.9219 -8.75 L4.8125 -8.125 L3.6875 -8.125 L3.1094 -5.0938 L7.6406 -5.0938 L8.2344 -8.125 L7.1094 -8.125 L7.2344 -8.75 L10.6562 -8.75 L10.5312 -8.125 L9.4219 -8.125 L7.9531 -0.625 L9.0781 -0.625 L8.9531 0 L5.5312 0 L5.6562 -0.625 L6.7812 -0.625 L7.5 -4.3906 L2.9688 -4.3906 L2.2344 -0.625 L3.3438 -0.625 L3.2344 0 L-0.1875 0 Z" stroke="none"/></g><g text-rendering="optimizeLegibility" transform="translate(76.1486,16.1562)" color-rendering="optimizeQuality" color-interpolation="linearRGB" image-rendering="optimizeQuality"><path d="M1.0938 -4.7344 L0.625 -4.7344 L0.625 -5.8281 Q1.0625 -6.0781 1.5156 -6.1875 Q1.9688 -6.3125 2.4062 -6.3125 Q3.375 -6.3125 3.9375 -5.8438 Q4.5 -5.375 4.5 -4.5781 Q4.5 -3.6562 3.2188 -2.3906 Q3.125 -2.2969 3.0781 -2.25 L1.5 -0.6875 L4.0938 -0.6875 L4.0938 -1.4531 L4.5781 -1.4531 L4.5781 0 L0.5781 0 L0.5781 -0.4531 L2.4688 -2.3281 Q3.0781 -2.9531 3.3438 -3.4688 Q3.625 -4 3.625 -4.5781 Q3.625 -5.2031 3.2969 -5.5469 Q2.9688 -5.9062 2.3906 -5.9062 Q1.7969 -5.9062 1.4688 -5.6094 Q1.1406 -5.3125 1.0938 -4.7344 Z" stroke="none"/></g><g text-rendering="optimizeLegibility" transform="translate(79.883,13.639) matrix(1,0,0,1.4342,0,0)" color-rendering="optimizeQuality" color-interpolation="linearRGB" image-rendering="optimizeQuality"><path d="M0.8438 1.875 L0.8438 1.2969 Q1.75 0.6719 2.1406 -0.4531 Q2.5469 -1.5781 2.5469 -3.625 Q2.5469 -5.6719 2.1406 -6.7969 Q1.75 -7.9219 0.8438 -8.5469 L0.8438 -9.125 Q2.2812 -8.4844 3 -7.0938 Q3.7344 -5.7031 3.7344 -3.625 Q3.7344 -1.5469 3 -0.1562 Q2.2812 1.2344 0.8438 1.875 Z" stroke="none"/></g></g></svg>