<svg xmlns="http://www.w3.org/2000/svg" xmlns:xlink="http://www.w3.org/1999/xlink" stroke-dasharray="none" shape-rendering="auto" font-family="'Dialog'" width="24" text-rendering="auto" fill-opacity="1" contentScriptType="text/ecmascript" color-interpolation="auto" color-rendering="auto" preserveAspectRatio="xMidYMid meet" font-size="12px" fill="black" stroke="black" image-rendering="auto" stroke-miterlimit="10" zoomAndPan="magnify" version="1.0" stroke-linecap="square" stroke-linejoin="miter" contentStyleType="text/css" font-style="normal" height="13" stroke-width="1" stroke-dashoffset="0" font-weight="normal" stroke-opacity="1"><!--Converted from MathML using JEuclid--><defs id="genericDefs"/><g><g text-rendering="optimizeLegibility" transform="translate(0,9)" color-rendering="optimizeQuality" color-interpolation="linearRGB" image-rendering="optimizeQuality"><path d="M0.6562 0 L0.6562 -0.625 L1.7812 -0.625 L1.7812 -8.125 L0.6562 -8.125 L0.6562 -8.75 L4.0781 -8.75 L4.0781 -8.125 L2.9688 -8.125 L2.9688 -0.7188 L6.9688 -0.7188 L6.9688 -2.1875 L7.6875 -2.1875 L7.6875 0 L0.6562 0 ZM12.7812 -1.9531 L12.7812 -3.2812 L11.3906 -3.2812 Q10.5781 -3.2812 10.1875 -2.9219 Q9.7969 -2.5781 9.7969 -1.875 Q9.7969 -1.2188 10.1875 -0.8281 Q10.5938 -0.4531 11.2812 -0.4531 Q11.9531 -0.4531 12.3594 -0.875 Q12.7812 -1.2969 12.7812 -1.9531 ZM13.8594 -3.8906 L13.8594 -0.625 L14.8125 -0.625 L14.8125 0 L12.7812 0 L12.7812 -0.6719 Q12.4219 -0.2344 11.9531 -0.0312 Q11.4844 0.1719 10.8594 0.1719 Q9.8125 0.1719 9.2031 -0.375 Q8.5938 -0.9375 8.5938 -1.875 Q8.5938 -2.8438 9.2969 -3.375 Q10 -3.9062 11.2656 -3.9062 L12.7812 -3.9062 L12.7812 -4.3281 Q12.7812 -5.0469 12.3438 -5.4219 Q11.9219 -5.8125 11.1406 -5.8125 Q10.4844 -5.8125 10.1094 -5.5156 Q9.7344 -5.2344 9.6406 -4.6562 L9.0781 -4.6562 L9.0781 -5.9219 Q9.6406 -6.1562 10.1719 -6.2812 Q10.7031 -6.4062 11.2031 -6.4062 Q12.5 -6.4062 13.1719 -5.75 Q13.8594 -5.1094 13.8594 -3.8906 ZM16.2969 -5.6094 L15.3438 -5.6094 L15.3438 -6.2344 L16.2969 -6.2344 L16.2969 -8.1562 L17.375 -8.1562 L17.375 -6.2344 L19.4062 -6.2344 L19.4062 -5.6094 L17.375 -5.6094 L17.375 -1.6406 Q17.375 -0.8594 17.5312 -0.625 Q17.6875 -0.4062 18.0938 -0.4062 Q18.5156 -0.4062 18.7031 -0.6562 Q18.9062 -0.9062 18.9219 -1.4688 L19.7344 -1.4688 Q19.6875 -0.6094 19.2656 -0.2188 Q18.8438 0.1719 18 0.1719 Q17.0625 0.1719 16.6719 -0.2344 Q16.2969 -0.6562 16.2969 -1.6406 L16.2969 -5.6094 Z" stroke="none"/></g><g text-rendering="optimizeLegibility" transform="translate(19.7344,12.3281)" color-rendering="optimizeQuality" color-interpolation="linearRGB" image-rendering="optimizeQuality"><path d="M1.2031 0 L1.2031 -0.4375 L2.2969 -0.4375 L2.2969 -5.6094 L1.0469 -4.7969 L1.0469 -5.3438 L2.5469 -6.3125 L3.125 -6.3125 L3.125 -0.4375 L4.2031 -0.4375 L4.2031 0 L1.2031 0 Z" stroke="none"/></g></g></svg>