<svg xmlns="http://www.w3.org/2000/svg" xmlns:xlink="http://www.w3.org/1999/xlink" stroke-dasharray="none" shape-rendering="auto" font-family="'Dialog'" width="27" text-rendering="auto" fill-opacity="1" contentScriptType="text/ecmascript" color-interpolation="auto" color-rendering="auto" preserveAspectRatio="xMidYMid meet" font-size="12px" fill="black" stroke="black" image-rendering="auto" stroke-miterlimit="10" zoomAndPan="magnify" version="1.0" stroke-linecap="square" stroke-linejoin="miter" contentStyleType="text/css" font-style="normal" height="13" stroke-width="1" stroke-dashoffset="0" font-weight="normal" stroke-opacity="1"><!--Converted from MathML using JEuclid--><defs id="genericDefs"/><g><g text-rendering="optimizeLegibility" transform="translate(0,9)" color-rendering="optimizeQuality" color-interpolation="linearRGB" image-rendering="optimizeQuality"><path d="M0.6562 0 L0.6562 -0.625 L1.7812 -0.625 L1.7812 -8.125 L0.6562 -8.125 L0.6562 -8.75 L4.0781 -8.75 L4.0781 -8.125 L2.9688 -8.125 L2.9688 -0.7188 L6.9688 -0.7188 L6.9688 -2.1875 L7.6875 -2.1875 L7.6875 0 L0.6562 0 ZM11.6094 -0.4062 Q12.4844 -0.4062 12.9219 -1.0938 Q13.3594 -1.7812 13.3594 -3.125 Q13.3594 -4.4531 12.9219 -5.125 Q12.4844 -5.8125 11.6094 -5.8125 Q10.75 -5.8125 10.2969 -5.125 Q9.8594 -4.4531 9.8594 -3.125 Q9.8594 -1.7812 10.2969 -1.0938 Q10.75 -0.4062 11.6094 -0.4062 ZM11.6094 0.1719 Q10.25 0.1719 9.4219 -0.7188 Q8.5938 -1.625 8.5938 -3.125 Q8.5938 -4.6094 9.4219 -5.5 Q10.25 -6.4062 11.6094 -6.4062 Q12.9688 -6.4062 13.7969 -5.5 Q14.625 -4.6094 14.625 -3.125 Q14.625 -1.625 13.7969 -0.7188 Q12.9688 0.1719 11.6094 0.1719 ZM15.5 0 L15.5 -0.625 L16.4688 -0.625 L16.4688 -5.6094 L15.4375 -5.6094 L15.4375 -6.2344 L17.5469 -6.2344 L17.5469 -5.125 Q17.8438 -5.75 18.3125 -6.0781 Q18.7969 -6.4062 19.4375 -6.4062 Q20.4688 -6.4062 20.9531 -5.8125 Q21.4375 -5.2188 21.4375 -3.9688 L21.4375 -0.625 L22.3906 -0.625 L22.3906 0 L19.4219 0 L19.4219 -0.625 L20.3438 -0.625 L20.3438 -3.625 Q20.3438 -4.7656 20.0625 -5.1875 Q19.7812 -5.6094 19.0781 -5.6094 Q18.3281 -5.6094 17.9375 -5.0625 Q17.5469 -4.5156 17.5469 -3.4688 L17.5469 -0.625 L18.4844 -0.625 L18.4844 0 L15.5 0 Z" stroke="none"/></g><g text-rendering="optimizeLegibility" transform="translate(22.3906,12.3281)" color-rendering="optimizeQuality" color-interpolation="linearRGB" image-rendering="optimizeQuality"><path d="M1.2031 0 L1.2031 -0.4375 L2.2969 -0.4375 L2.2969 -5.6094 L1.0469 -4.7969 L1.0469 -5.3438 L2.5469 -6.3125 L3.125 -6.3125 L3.125 -0.4375 L4.2031 -0.4375 L4.2031 0 L1.2031 0 Z" stroke="none"/></g></g></svg>