<svg xmlns="http://www.w3.org/2000/svg" xmlns:xlink="http://www.w3.org/1999/xlink" stroke-dasharray="none" shape-rendering="auto" font-family="'Dialog'" width="75" text-rendering="auto" fill-opacity="1" contentScriptType="text/ecmascript" color-interpolation="auto" color-rendering="auto" preserveAspectRatio="xMidYMid meet" font-size="12px" fill="black" stroke="black" image-rendering="auto" stroke-miterlimit="10" zoomAndPan="magnify" version="1.0" stroke-linecap="square" stroke-linejoin="miter" contentStyleType="text/css" font-style="normal" height="31" stroke-width="1" stroke-dashoffset="0" font-weight="normal" stroke-opacity="1"><!--Converted from MathML using JEuclid--><defs id="genericDefs"/><g><g text-rendering="optimizeLegibility" transform="translate(0.3125,15)" color-rendering="optimizeQuality" color-interpolation="linearRGB" image-rendering="optimizeQuality"><path d="M-0.3125 0 L-0.2344 -0.4219 L6.7031 -8.0312 L2.1719 -8.0312 L1.9219 -6.7188 L1.2031 -6.7188 L1.5938 -8.75 L8.5156 -8.75 L8.4219 -8.3281 L1.5 -0.7188 L6.4531 -0.7188 L6.6875 -1.9531 L7.3906 -1.9531 L7.0156 0 L-0.3125 0 Z" stroke="none"/></g><g text-rendering="optimizeLegibility" transform="translate(10.3588,15)" color-rendering="optimizeQuality" color-interpolation="linearRGB" image-rendering="optimizeQuality"><path d="M1.2656 -5.4219 L8.7812 -5.4219 L8.7812 -4.4844 L1.2656 -4.4844 L1.2656 -5.4219 ZM1.2656 -3.0312 L8.7812 -3.0312 L8.7812 -2.0938 L1.2656 -2.0938 L1.2656 -3.0312 Z" stroke="none"/></g><g text-rendering="optimizeLegibility" color-rendering="optimizeQuality" color-interpolation="linearRGB" image-rendering="optimizeQuality"><line y2="10.44" fill="none" x1="22.943" x2="40.8256" y1="10.44"/><path d="M1.2031 0 L1.2031 -0.4375 L2.2969 -0.4375 L2.2969 -5.6094 L1.0469 -4.7969 L1.0469 -5.3438 L2.5469 -6.3125 L3.125 -6.3125 L3.125 -0.4375 L4.2031 -0.4375 L4.2031 0 L1.2031 0 Z" transform="translate(29.7827,8.9333)" stroke="none"/></g><g text-rendering="optimizeLegibility" color-rendering="optimizeQuality" color-interpolation="linearRGB" image-rendering="optimizeQuality"><line y2="21.0676" fill="none" x1="23.6577" x2="39.1109" y1="21.0676"/><path d="M5.5312 0 L4.8906 0 L4.4844 -4.75 L2.2188 0 L1.5781 0 L1.1094 -5.4219 L0.5312 -5.4219 L0.6094 -5.8281 L2.7344 -5.8281 L2.6562 -5.4219 L1.9219 -5.4219 L2.3125 -1.1094 L4.5469 -5.8281 L5.1875 -5.8281 L5.6094 -1.0625 L7.6719 -5.4219 L7 -5.4219 L7.0938 -5.8281 L8.7656 -5.8281 L8.6875 -5.4219 L8.1094 -5.4219 L5.5312 0 Z" transform="translate(23.6577,17.7748)" stroke="none"/></g><g text-rendering="optimizeLegibility" transform="translate(32.4234,19.8529)" color-rendering="optimizeQuality" color-interpolation="linearRGB" image-rendering="optimizeQuality"><path d="M4.6719 -0.9062 Q5.2031 -1.4688 5.3125 -1.6875 Q5.75 -2.4688 6.1719 -3.7344 L5.5625 -3.7344 L5.6406 -4.1562 L6.6875 -4.1562 L6.6094 -3.7344 L6.5938 -3.7344 Q6.2031 -2.2812 5.8281 -1.5781 Q5.2656 -0.5938 4.6562 0 L4.0469 0 L3.625 -3.1094 L2 0 L1.4219 0 L0.9219 -3.7344 L0.4531 -3.7344 L0.5312 -4.1562 L1.6094 -4.1562 L2.0469 -0.9062 L3.7344 -4.1562 L4.25 -4.1562 L4.6719 -0.9062 Z" stroke="none"/></g><g text-rendering="optimizeLegibility" transform="translate(25.4781,28.2199)" color-rendering="optimizeQuality" color-interpolation="linearRGB" image-rendering="optimizeQuality"><path d="M0.2344 -0.2812 L0.4844 -1.6094 L0.9375 -1.6094 Q0.8281 -0.9375 1.125 -0.625 Q1.4375 -0.3125 2.1875 -0.3125 Q2.875 -0.3125 3.2969 -0.5781 Q3.7188 -0.8594 3.8125 -1.3906 Q3.9062 -1.8125 3.7188 -2.0312 Q3.5469 -2.2656 2.875 -2.4688 L2.1562 -2.7031 Q1.3594 -2.9531 1.0938 -3.3281 Q0.8281 -3.7188 0.9531 -4.375 Q1.1094 -5.125 1.7031 -5.5312 Q2.3125 -5.9375 3.2656 -5.9375 Q3.6719 -5.9375 4.1406 -5.8438 Q4.6094 -5.7656 5.125 -5.5938 L4.8906 -4.3594 L4.4375 -4.3594 Q4.5 -4.9688 4.2031 -5.2344 Q3.9062 -5.5156 3.2031 -5.5156 Q2.5938 -5.5156 2.2188 -5.2656 Q1.8438 -5.0156 1.75 -4.5312 Q1.6719 -4.125 1.8594 -3.875 Q2.0625 -3.6406 2.7969 -3.4062 L3.4844 -3.1875 Q4.2344 -2.9531 4.5 -2.5781 Q4.7656 -2.2188 4.6406 -1.5938 Q4.4688 -0.75 3.8438 -0.3125 Q3.2188 0.1094 2.1406 0.1094 Q1.6719 0.1094 1.1875 0.0156 Q0.7031 -0.0781 0.2344 -0.2812 Z" stroke="none"/></g><g text-rendering="optimizeLegibility" transform="translate(30.6031,30.4074)" color-rendering="optimizeQuality" color-interpolation="linearRGB" image-rendering="optimizeQuality"><path d="M4.6719 -0.9062 Q5.2031 -1.4688 5.3125 -1.6875 Q5.75 -2.4688 6.1719 -3.7344 L5.5625 -3.7344 L5.6406 -4.1562 L6.6875 -4.1562 L6.6094 -3.7344 L6.5938 -3.7344 Q6.2031 -2.2812 5.8281 -1.5781 Q5.2656 -0.5938 4.6562 0 L4.0469 0 L3.625 -3.1094 L2 0 L1.4219 0 L0.9219 -3.7344 L0.4531 -3.7344 L0.5312 -4.1562 L1.6094 -4.1562 L2.0469 -0.9062 L3.7344 -4.1562 L4.25 -4.1562 L4.6719 -0.9062 Z" stroke="none"/></g><g text-rendering="optimizeLegibility" transform="translate(44.3629,15)" color-rendering="optimizeQuality" color-interpolation="linearRGB" image-rendering="optimizeQuality"><path d="M1.2656 -5.4219 L8.7812 -5.4219 L8.7812 -4.4844 L1.2656 -4.4844 L1.2656 -5.4219 ZM1.2656 -3.0312 L8.7812 -3.0312 L8.7812 -2.0938 L1.2656 -2.0938 L1.2656 -3.0312 Z" stroke="none"/></g><g text-rendering="optimizeLegibility" color-rendering="optimizeQuality" color-interpolation="linearRGB" image-rendering="optimizeQuality"><line y2="10.44" fill="none" x1="56.9472" x2="72.9628" y1="10.44"/><path d="M0.25 -0.2969 L0.5156 -1.7188 L1 -1.7031 Q0.875 -1 1.2031 -0.6562 Q1.5312 -0.3281 2.3125 -0.3281 Q3.0625 -0.3281 3.5 -0.6094 Q3.9531 -0.9062 4.0625 -1.4688 Q4.1562 -1.9219 3.9531 -2.1562 Q3.7656 -2.4062 3.0625 -2.625 L2.2969 -2.875 Q1.4531 -3.1406 1.1562 -3.5469 Q0.875 -3.9531 1.0156 -4.6562 Q1.1719 -5.4531 1.8125 -5.875 Q2.4688 -6.3125 3.4844 -6.3125 Q3.9062 -6.3125 4.4062 -6.2188 Q4.9062 -6.1406 5.4531 -5.9531 L5.2031 -4.625 L4.7344 -4.625 Q4.7812 -5.2812 4.4688 -5.5781 Q4.1562 -5.875 3.4062 -5.875 Q2.75 -5.875 2.3594 -5.6094 Q1.9688 -5.3438 1.8594 -4.8281 Q1.7812 -4.375 1.9844 -4.125 Q2.1875 -3.875 2.9844 -3.625 L3.7031 -3.3906 Q4.5 -3.1406 4.7812 -2.75 Q5.0625 -2.3594 4.9375 -1.7031 Q4.7656 -0.7969 4.0938 -0.3281 Q3.4219 0.125 2.2812 0.125 Q1.7656 0.125 1.25 0.0156 Q0.75 -0.0938 0.25 -0.2969 Z" transform="translate(58.8847,6.7302)" stroke="none"/></g><g text-rendering="optimizeLegibility" transform="translate(64.3378,8.9333)" color-rendering="optimizeQuality" color-interpolation="linearRGB" image-rendering="optimizeQuality"><path d="M4.6719 -0.9062 Q5.2031 -1.4688 5.3125 -1.6875 Q5.75 -2.4688 6.1719 -3.7344 L5.5625 -3.7344 L5.6406 -4.1562 L6.6875 -4.1562 L6.6094 -3.7344 L6.5938 -3.7344 Q6.2031 -2.2812 5.8281 -1.5781 Q5.2656 -0.5938 4.6562 0 L4.0469 0 L3.625 -3.1094 L2 0 L1.4219 0 L0.9219 -3.7344 L0.4531 -3.7344 L0.5312 -4.1562 L1.6094 -4.1562 L2.0469 -0.9062 L3.7344 -4.1562 L4.25 -4.1562 L4.6719 -0.9062 Z" stroke="none"/></g><g text-rendering="optimizeLegibility" transform="translate(56.9472,18.1498)" color-rendering="optimizeQuality" color-interpolation="linearRGB" image-rendering="optimizeQuality"><path d="M5.8906 0 L5.2031 0 L4.7656 -5.0469 L2.3594 0 L1.6875 0 L1.1719 -5.7656 L0.5625 -5.7656 L0.6406 -6.2031 L2.9062 -6.2031 L2.8281 -5.7656 L2.0469 -5.7656 L2.4531 -1.1719 L4.8438 -6.2031 L5.5156 -6.2031 L5.9688 -1.125 L8.1719 -5.7656 L7.4531 -5.7656 L7.5469 -6.2031 L9.3281 -6.2031 L9.25 -5.7656 L8.625 -5.7656 L5.8906 0 Z" stroke="none"/></g><g text-rendering="optimizeLegibility" transform="translate(66.2753,20.2279)" color-rendering="optimizeQuality" color-interpolation="linearRGB" image-rendering="optimizeQuality"><path d="M4.6719 -0.9062 Q5.2031 -1.4688 5.3125 -1.6875 Q5.75 -2.4688 6.1719 -3.7344 L5.5625 -3.7344 L5.6406 -4.1562 L6.6875 -4.1562 L6.6094 -3.7344 L6.5938 -3.7344 Q6.2031 -2.2812 5.8281 -1.5781 Q5.2656 -0.5938 4.6562 0 L4.0469 0 L3.625 -3.1094 L2 0 L1.4219 0 L0.9219 -3.7344 L0.4531 -3.7344 L0.5312 -4.1562 L1.6094 -4.1562 L2.0469 -0.9062 L3.7344 -4.1562 L4.25 -4.1562 L4.6719 -0.9062 Z" stroke="none"/></g></g></svg>