<svg xmlns="http://www.w3.org/2000/svg" xmlns:xlink="http://www.w3.org/1999/xlink" stroke-dasharray="none" shape-rendering="auto" font-family="'Dialog'" width="80" text-rendering="auto" fill-opacity="1" contentScriptType="text/ecmascript" color-interpolation="auto" color-rendering="auto" preserveAspectRatio="xMidYMid meet" font-size="12px" fill="black" stroke="black" image-rendering="auto" stroke-miterlimit="10" zoomAndPan="magnify" version="1.0" stroke-linecap="square" stroke-linejoin="miter" contentStyleType="text/css" font-style="normal" height="17" stroke-width="1" stroke-dashoffset="0" font-weight="normal" stroke-opacity="1"><!--Converted from MathML using JEuclid--><defs id="genericDefs"/><g><g text-rendering="optimizeLegibility" transform="translate(0.3125,13)" color-rendering="optimizeQuality" color-interpolation="linearRGB" image-rendering="optimizeQuality"><path d="M-0.3125 0 L-0.2344 -0.4219 L6.7031 -8.0312 L2.1719 -8.0312 L1.9219 -6.7188 L1.2031 -6.7188 L1.5938 -8.75 L8.5156 -8.75 L8.4219 -8.3281 L1.5 -0.7188 L6.4531 -0.7188 L6.6875 -1.9531 L7.3906 -1.9531 L7.0156 0 L-0.3125 0 Z" stroke="none"/></g><g text-rendering="optimizeLegibility" transform="translate(10.3588,13)" color-rendering="optimizeQuality" color-interpolation="linearRGB" image-rendering="optimizeQuality"><path d="M1.2656 -5.4219 L8.7812 -5.4219 L8.7812 -4.4844 L1.2656 -4.4844 L1.2656 -5.4219 ZM1.2656 -3.0312 L8.7812 -3.0312 L8.7812 -2.0938 L1.2656 -2.0938 L1.2656 -3.0312 Z" stroke="none"/></g><g text-rendering="optimizeLegibility" color-rendering="optimizeQuality" color-interpolation="linearRGB" image-rendering="optimizeQuality"><line y2="8.44" fill="none" x1="22.943" x2="45.7868" y1="8.44"/><path d="M1.0938 -4.7344 L0.625 -4.7344 L0.625 -5.8281 Q1.0625 -6.0781 1.5156 -6.1875 Q1.9688 -6.3125 2.4062 -6.3125 Q3.375 -6.3125 3.9375 -5.8438 Q4.5 -5.375 4.5 -4.5781 Q4.5 -3.6562 3.2188 -2.3906 Q3.125 -2.2969 3.0781 -2.25 L1.5 -0.6875 L4.0938 -0.6875 L4.0938 -1.4531 L4.5781 -1.4531 L4.5781 0 L0.5781 0 L0.5781 -0.4531 L2.4688 -2.3281 Q3.0781 -2.9531 3.3438 -3.4688 Q3.625 -4 3.625 -4.5781 Q3.625 -5.2031 3.2969 -5.5469 Q2.9688 -5.9062 2.3906 -5.9062 Q1.7969 -5.9062 1.4688 -5.6094 Q1.1406 -5.3125 1.0938 -4.7344 ZM8.7031 -0.2969 Q9.3438 -0.2969 9.6562 -0.9844 Q9.9688 -1.6875 9.9688 -3.0938 Q9.9688 -4.5156 9.6562 -5.2031 Q9.3438 -5.9062 8.7031 -5.9062 Q8.0781 -5.9062 7.75 -5.2031 Q7.4375 -4.5156 7.4375 -3.0938 Q7.4375 -1.6875 7.75 -0.9844 Q8.0781 -0.2969 8.7031 -0.2969 ZM8.7031 0.125 Q7.7031 0.125 7.125 -0.7188 Q6.5625 -1.5781 6.5625 -3.0938 Q6.5625 -4.625 7.125 -5.4688 Q7.7031 -6.3125 8.7031 -6.3125 Q9.7188 -6.3125 10.2812 -5.4688 Q10.8594 -4.625 10.8594 -3.0938 Q10.8594 -1.5781 10.2812 -0.7188 Q9.7188 0.125 8.7031 0.125 ZM14.9688 -2.1094 L14.9688 -5.4062 L12.8594 -2.1094 L14.9688 -2.1094 ZM16.7969 0 L13.9688 0 L13.9688 -0.4375 L14.9688 -0.4375 L14.9688 -1.6562 L12.2656 -1.6562 L12.2656 -2.1094 L14.9844 -6.3125 L15.7969 -6.3125 L15.7969 -2.1094 L16.9844 -2.1094 L16.9844 -1.6562 L15.7969 -1.6562 L15.7969 -0.4375 L16.7969 -0.4375 L16.7969 0 ZM21.9688 -1.7031 Q21.9688 -2.3594 21.6406 -2.7188 Q21.3125 -3.0938 20.7031 -3.0938 Q20.1094 -3.0938 19.7812 -2.7188 Q19.4531 -2.3594 19.4531 -1.7031 Q19.4531 -1.0312 19.7812 -0.6562 Q20.1094 -0.2969 20.7031 -0.2969 Q21.3125 -0.2969 21.6406 -0.6562 Q21.9688 -1.0312 21.9688 -1.7031 ZM21.7969 -4.7188 Q21.7969 -5.2812 21.5 -5.5938 Q21.2188 -5.9062 20.7031 -5.9062 Q20.2031 -5.9062 19.9062 -5.5938 Q19.625 -5.2812 19.625 -4.7188 Q19.625 -4.1406 19.9062 -3.8281 Q20.2031 -3.5156 20.7031 -3.5156 Q21.2188 -3.5156 21.5 -3.8281 Q21.7969 -4.1406 21.7969 -4.7188 ZM21.3438 -3.3125 Q22.0469 -3.2031 22.4375 -2.7812 Q22.8438 -2.3594 22.8438 -1.7031 Q22.8438 -0.8281 22.2812 -0.3438 Q21.7344 0.125 20.7031 0.125 Q19.6875 0.125 19.125 -0.3438 Q18.5625 -0.8281 18.5625 -1.7031 Q18.5625 -2.3594 18.9531 -2.7812 Q19.3594 -3.2031 20.0781 -3.3125 Q19.4375 -3.4219 19.0938 -3.7812 Q18.7656 -4.1406 18.7656 -4.7188 Q18.7656 -5.4531 19.2812 -5.875 Q19.7969 -6.3125 20.7031 -6.3125 Q21.6094 -6.3125 22.125 -5.875 Q22.6406 -5.4531 22.6406 -4.7188 Q22.6406 -4.1406 22.2969 -3.7812 Q21.9688 -3.4219 21.3438 -3.3125 Z" transform="translate(22.943,6.8083)" stroke="none"/></g><g text-rendering="optimizeLegibility" transform="translate(25.9352,16.2592)" color-rendering="optimizeQuality" color-interpolation="linearRGB" image-rendering="optimizeQuality"><path d="M2.7812 -0.2969 Q3.375 -0.2969 3.6875 -0.7188 Q4 -1.1562 4 -1.9531 Q4 -2.7656 3.6875 -3.1875 Q3.375 -3.625 2.7812 -3.625 Q2.1875 -3.625 1.875 -3.2031 Q1.5625 -2.7969 1.5625 -2.0156 Q1.5625 -1.1875 1.875 -0.7344 Q2.2031 -0.2969 2.7812 -0.2969 ZM1.4375 -3.4219 Q1.7188 -3.7344 2.0625 -3.875 Q2.4219 -4.0312 2.875 -4.0312 Q3.7969 -4.0312 4.3281 -3.4688 Q4.875 -2.9219 4.875 -1.9531 Q4.875 -1.0156 4.2969 -0.4375 Q3.7188 0.125 2.75 0.125 Q1.7031 0.125 1.125 -0.6562 Q0.5625 -1.4531 0.5625 -2.9062 Q0.5625 -4.5312 1.2344 -5.4219 Q1.9062 -6.3125 3.125 -6.3125 Q3.4531 -6.3125 3.8125 -6.25 Q4.1719 -6.2031 4.5625 -6.0781 L4.5625 -5.0469 L4.0938 -5.0469 Q4.0312 -5.4688 3.7656 -5.6875 Q3.5 -5.9062 3.0469 -5.9062 Q2.2344 -5.9062 1.8281 -5.2969 Q1.4375 -4.6875 1.4375 -3.4219 ZM8.9688 -2.1094 L8.9688 -5.4062 L6.8594 -2.1094 L8.9688 -2.1094 ZM10.7969 0 L7.9688 0 L7.9688 -0.4375 L8.9688 -0.4375 L8.9688 -1.6562 L6.2656 -1.6562 L6.2656 -2.1094 L8.9844 -6.3125 L9.7969 -6.3125 L9.7969 -2.1094 L10.9844 -2.1094 L10.9844 -1.6562 L9.7969 -1.6562 L9.7969 -0.4375 L10.7969 -0.4375 L10.7969 0 ZM14.7031 -0.2969 Q15.3438 -0.2969 15.6562 -0.9844 Q15.9688 -1.6875 15.9688 -3.0938 Q15.9688 -4.5156 15.6562 -5.2031 Q15.3438 -5.9062 14.7031 -5.9062 Q14.0781 -5.9062 13.75 -5.2031 Q13.4375 -4.5156 13.4375 -3.0938 Q13.4375 -1.6875 13.75 -0.9844 Q14.0781 -0.2969 14.7031 -0.2969 ZM14.7031 0.125 Q13.7031 0.125 13.125 -0.7188 Q12.5625 -1.5781 12.5625 -3.0938 Q12.5625 -4.625 13.125 -5.4688 Q13.7031 -6.3125 14.7031 -6.3125 Q15.7188 -6.3125 16.2812 -5.4688 Q16.8594 -4.625 16.8594 -3.0938 Q16.8594 -1.5781 16.2812 -0.7188 Q15.7188 0.125 14.7031 0.125 Z" stroke="none"/></g><g text-rendering="optimizeLegibility" transform="translate(49.3241,13)" color-rendering="optimizeQuality" color-interpolation="linearRGB" image-rendering="optimizeQuality"><path d="M1.2656 -5.4219 L8.7812 -5.4219 L8.7812 -4.4844 L1.2656 -4.4844 L1.2656 -5.4219 ZM1.2656 -3.0312 L8.7812 -3.0312 L8.7812 -2.0938 L1.2656 -2.0938 L1.2656 -3.0312 Z" stroke="none"/></g><g text-rendering="optimizeLegibility" transform="translate(60.9017,13)" color-rendering="optimizeQuality" color-interpolation="linearRGB" image-rendering="optimizeQuality"><path d="M1.1719 -8.375 Q1.8594 -8.6406 2.4844 -8.7656 Q3.1094 -8.9062 3.6562 -8.9062 Q4.9531 -8.9062 5.6719 -8.3438 Q6.3906 -7.7969 6.3906 -6.8125 Q6.3906 -6.0312 5.8906 -5.5 Q5.3906 -4.9688 4.4844 -4.7812 Q5.5625 -4.625 6.1562 -3.9844 Q6.75 -3.3594 6.75 -2.3594 Q6.75 -1.1406 5.9219 -0.4844 Q5.0938 0.1719 3.5469 0.1719 Q2.8594 0.1719 2.2031 0.0156 Q1.5625 -0.125 0.9219 -0.4219 L0.9219 -2.125 L1.5781 -2.125 Q1.625 -1.2812 2.1406 -0.8438 Q2.6562 -0.4062 3.5781 -0.4062 Q4.4688 -0.4062 4.9844 -0.9219 Q5.5156 -1.4531 5.5156 -2.3438 Q5.5156 -3.375 4.9688 -3.9062 Q4.4375 -4.4375 3.4062 -4.4375 L2.8594 -4.4375 L2.8594 -5.0469 L3.1406 -5.0469 Q4.1719 -5.0469 4.6875 -5.4688 Q5.2031 -5.8906 5.2031 -6.75 Q5.2031 -7.5156 4.7812 -7.9219 Q4.3594 -8.3281 3.5625 -8.3281 Q2.7656 -8.3281 2.3281 -7.9531 Q1.9062 -7.5781 1.8281 -6.8438 L1.1719 -6.8438 L1.1719 -8.375 ZM9.125 -0.6094 Q9.125 -0.9375 9.3438 -1.1562 Q9.5781 -1.3906 9.9062 -1.3906 Q10.2344 -1.3906 10.4531 -1.1562 Q10.6875 -0.9375 10.6875 -0.6094 Q10.6875 -0.2812 10.4531 -0.0469 Q10.2344 0.1719 9.9062 0.1719 Q9.5781 0.1719 9.3438 -0.0469 Q9.125 -0.2812 9.125 -0.6094 ZM13.5312 -6.6562 L12.875 -6.6562 L12.875 -8.2188 Q13.5 -8.5625 14.1406 -8.7344 Q14.7812 -8.9062 15.3906 -8.9062 Q16.75 -8.9062 17.5312 -8.2344 Q18.3281 -7.5781 18.3281 -6.4531 Q18.3281 -5.1562 16.5469 -3.375 Q16.4062 -3.2344 16.3281 -3.1719 L14.125 -0.9688 L17.7656 -0.9688 L17.7656 -2.0469 L18.4531 -2.0469 L18.4531 0 L12.8125 0 L12.8125 -0.6406 L15.4688 -3.2812 Q16.3438 -4.1719 16.7188 -4.9062 Q17.0938 -5.6406 17.0938 -6.4531 Q17.0938 -7.3281 16.625 -7.8281 Q16.1719 -8.3281 15.375 -8.3281 Q14.5312 -8.3281 14.0781 -7.9062 Q13.625 -7.5 13.5312 -6.6562 Z" stroke="none"/></g></g></svg>