<svg xmlns="http://www.w3.org/2000/svg" xmlns:xlink="http://www.w3.org/1999/xlink" stroke-dasharray="none" shape-rendering="auto" font-family="'Dialog'" width="14" text-rendering="auto" fill-opacity="1" contentScriptType="text/ecmascript" color-interpolation="auto" color-rendering="auto" preserveAspectRatio="xMidYMid meet" font-size="12px" fill="black" stroke="black" image-rendering="auto" stroke-miterlimit="10" zoomAndPan="magnify" version="1.0" stroke-linecap="square" stroke-linejoin="miter" contentStyleType="text/css" font-style="normal" height="13" stroke-width="1" stroke-dashoffset="0" font-weight="normal" stroke-opacity="1"><!--Converted from MathML using JEuclid--><defs id="genericDefs"/><g><g text-rendering="optimizeLegibility" transform="translate(0.1875,9)" color-rendering="optimizeQuality" color-interpolation="linearRGB" image-rendering="optimizeQuality"><path d="M2.9844 -4.4531 L4.5312 -4.4531 Q5.4062 -4.4531 5.9531 -4.9219 Q6.5 -5.3906 6.6719 -6.2812 Q6.8438 -7.1875 6.4688 -7.6562 Q6.1094 -8.125 5.2344 -8.125 L3.6875 -8.125 L2.9844 -4.4531 ZM-0.1875 0 L-0.0781 -0.625 L1.0469 -0.625 L2.5 -8.125 L1.3906 -8.125 L1.5156 -8.75 L5.6562 -8.75 Q6.9688 -8.75 7.5938 -8.0781 Q8.2344 -7.4219 8.0156 -6.2812 Q7.7969 -5.1562 6.8906 -4.4844 Q6 -3.8281 4.6875 -3.8281 L2.8594 -3.8281 L2.2344 -0.625 L3.5938 -0.625 L3.4688 0 L-0.1875 0 Z" stroke="none"/></g><g text-rendering="optimizeLegibility" transform="translate(8.2656,12.0938)" color-rendering="optimizeQuality" color-interpolation="linearRGB" image-rendering="optimizeQuality"><path d="M2.7031 -0.2969 Q3.3438 -0.2969 3.6562 -0.9844 Q3.9688 -1.6875 3.9688 -3.0938 Q3.9688 -4.5156 3.6562 -5.2031 Q3.3438 -5.9062 2.7031 -5.9062 Q2.0781 -5.9062 1.75 -5.2031 Q1.4375 -4.5156 1.4375 -3.0938 Q1.4375 -1.6875 1.75 -0.9844 Q2.0781 -0.2969 2.7031 -0.2969 ZM2.7031 0.125 Q1.7031 0.125 1.125 -0.7188 Q0.5625 -1.5781 0.5625 -3.0938 Q0.5625 -4.625 1.125 -5.4688 Q1.7031 -6.3125 2.7031 -6.3125 Q3.7188 -6.3125 4.2812 -5.4688 Q4.8594 -4.625 4.8594 -3.0938 Q4.8594 -1.5781 4.2812 -0.7188 Q3.7188 0.125 2.7031 0.125 Z" stroke="none"/></g></g></svg>