<svg xmlns="http://www.w3.org/2000/svg" xmlns:xlink="http://www.w3.org/1999/xlink" stroke-dasharray="none" shape-rendering="auto" font-family="'Dialog'" width="79" text-rendering="auto" fill-opacity="1" contentScriptType="text/ecmascript" color-interpolation="auto" color-rendering="auto" preserveAspectRatio="xMidYMid meet" font-size="12px" fill="black" stroke="black" image-rendering="auto" stroke-miterlimit="10" zoomAndPan="magnify" version="1.0" stroke-linecap="square" stroke-linejoin="miter" contentStyleType="text/css" font-style="normal" height="14" stroke-width="1" stroke-dashoffset="0" font-weight="normal" stroke-opacity="1"><!--Converted from MathML using JEuclid--><defs id="genericDefs"/><g><g text-rendering="optimizeLegibility" transform="translate(0,9)" color-rendering="optimizeQuality" color-interpolation="linearRGB" image-rendering="optimizeQuality"><path d="M2.4688 -3.4219 L2.4688 -2.8125 Q2.4688 -1.6875 2.8906 -1.0938 Q3.3281 -0.5 4.1406 -0.5 Q4.9688 -0.5 5.3906 -1.1562 Q5.8125 -1.8281 5.8125 -3.125 Q5.8125 -4.4062 5.3906 -5.0625 Q4.9688 -5.7188 4.1406 -5.7188 Q3.3281 -5.7188 2.8906 -5.125 Q2.4688 -4.5469 2.4688 -3.4219 ZM1.3906 -5.6094 L0.3438 -5.6094 L0.3438 -6.2344 L2.4688 -6.2344 L2.4688 -5.25 Q2.7812 -5.8438 3.2656 -6.125 Q3.75 -6.4062 4.4844 -6.4062 Q5.625 -6.4062 6.3438 -5.4844 Q7.0781 -4.5781 7.0781 -3.125 Q7.0781 -1.6562 6.3438 -0.7344 Q5.625 0.1719 4.4844 0.1719 Q3.75 0.1719 3.2656 -0.1094 Q2.7812 -0.3906 2.4688 -0.9688 L2.4688 1.875 L3.4844 1.875 L3.4844 2.5 L0.3438 2.5 L0.3438 1.875 L1.3906 1.875 L1.3906 -5.6094 ZM12.7812 -1.9531 L12.7812 -3.2812 L11.3906 -3.2812 Q10.5781 -3.2812 10.1875 -2.9219 Q9.7969 -2.5781 9.7969 -1.875 Q9.7969 -1.2188 10.1875 -0.8281 Q10.5938 -0.4531 11.2812 -0.4531 Q11.9531 -0.4531 12.3594 -0.875 Q12.7812 -1.2969 12.7812 -1.9531 ZM13.8594 -3.8906 L13.8594 -0.625 L14.8125 -0.625 L14.8125 0 L12.7812 0 L12.7812 -0.6719 Q12.4219 -0.2344 11.9531 -0.0312 Q11.4844 0.1719 10.8594 0.1719 Q9.8125 0.1719 9.2031 -0.375 Q8.5938 -0.9375 8.5938 -1.875 Q8.5938 -2.8438 9.2969 -3.375 Q10 -3.9062 11.2656 -3.9062 L12.7812 -3.9062 L12.7812 -4.3281 Q12.7812 -5.0469 12.3438 -5.4219 Q11.9219 -5.8125 11.1406 -5.8125 Q10.4844 -5.8125 10.1094 -5.5156 Q9.7344 -5.2344 9.6406 -4.6562 L9.0781 -4.6562 L9.0781 -5.9219 Q9.6406 -6.1562 10.1719 -6.2812 Q10.7031 -6.4062 11.2031 -6.4062 Q12.5 -6.4062 13.1719 -5.75 Q13.8594 -5.1094 13.8594 -3.8906 ZM15.5 0 L15.5 -0.625 L16.4688 -0.625 L16.4688 -5.6094 L15.4375 -5.6094 L15.4375 -6.2344 L17.5469 -6.2344 L17.5469 -5.125 Q17.8438 -5.75 18.3125 -6.0781 Q18.7969 -6.4062 19.4375 -6.4062 Q20.4688 -6.4062 20.9531 -5.8125 Q21.4375 -5.2188 21.4375 -3.9688 L21.4375 -0.625 L22.3906 -0.625 L22.3906 0 L19.4219 0 L19.4219 -0.625 L20.3438 -0.625 L20.3438 -3.625 Q20.3438 -4.7656 20.0625 -5.1875 Q19.7812 -5.6094 19.0781 -5.6094 Q18.3281 -5.6094 17.9375 -5.0625 Q17.5469 -4.5156 17.5469 -3.4688 L17.5469 -0.625 L18.4844 -0.625 L18.4844 0 L15.5 0 Z" stroke="none"/></g><g text-rendering="optimizeLegibility" transform="translate(22.3906,13.7109)" color-rendering="optimizeQuality" color-interpolation="linearRGB" image-rendering="optimizeQuality"><path d="M4.4062 -3.5625 Q4.625 -4.0469 4.9688 -4.2969 Q5.3125 -4.5469 5.7812 -4.5469 Q6.4688 -4.5469 6.8125 -4.1094 Q7.1562 -3.6875 7.1562 -2.8125 L7.1562 -0.4375 L7.8438 -0.4375 L7.8438 0 L5.7188 0 L5.7188 -0.4375 L6.3906 -0.4375 L6.3906 -2.7188 Q6.3906 -3.4062 6.1875 -3.6875 Q5.9844 -3.9688 5.5312 -3.9688 Q5.0156 -3.9688 4.75 -3.5781 Q4.4844 -3.2031 4.4844 -2.4688 L4.4844 -0.4375 L5.1406 -0.4375 L5.1406 0 L3.0469 0 L3.0469 -0.4375 L3.7188 -0.4375 L3.7188 -2.75 Q3.7188 -3.4062 3.5156 -3.6875 Q3.3125 -3.9688 2.8594 -3.9688 Q2.3438 -3.9688 2.0625 -3.5781 Q1.7969 -3.2031 1.7969 -2.4688 L1.7969 -0.4375 L2.4688 -0.4375 L2.4688 0 L0.3438 0 L0.3438 -0.4375 L1.0469 -0.4375 L1.0469 -3.9844 L0.3125 -3.9844 L0.3125 -4.4219 L1.7969 -4.4219 L1.7969 -3.6406 Q2.0156 -4.0781 2.3438 -4.3125 Q2.6719 -4.5469 3.0938 -4.5469 Q3.6094 -4.5469 3.9531 -4.2812 Q4.2969 -4.0312 4.4062 -3.5625 ZM12.3906 -1.3906 L12.3906 -2.3281 L11.4062 -2.3281 Q10.8281 -2.3281 10.5469 -2.0781 Q10.2812 -1.8281 10.2812 -1.3281 Q10.2812 -0.8594 10.5625 -0.5938 Q10.8438 -0.3281 11.3281 -0.3281 Q11.7969 -0.3281 12.0938 -0.625 Q12.3906 -0.9219 12.3906 -1.3906 ZM13.1562 -2.7656 L13.1562 -0.4375 L13.8281 -0.4375 L13.8281 0 L12.3906 0 L12.3906 -0.4844 Q12.1406 -0.1719 11.7969 -0.0156 Q11.4688 0.125 11.0312 0.125 Q10.2812 0.125 9.8438 -0.2656 Q9.4219 -0.6562 9.4219 -1.3281 Q9.4219 -2.0156 9.9062 -2.3906 Q10.4062 -2.7656 11.3125 -2.7656 L12.3906 -2.7656 L12.3906 -3.0781 Q12.3906 -3.5781 12.0781 -3.8438 Q11.7812 -4.125 11.2188 -4.125 Q10.7656 -4.125 10.5 -3.9219 Q10.2344 -3.7188 10.1562 -3.3125 L9.7656 -3.3125 L9.7656 -4.2031 Q10.1719 -4.375 10.5469 -4.4531 Q10.9219 -4.5469 11.2812 -4.5469 Q12.1875 -4.5469 12.6719 -4.0781 Q13.1562 -3.625 13.1562 -2.7656 ZM16.4844 -2.7031 L17.4062 -3.9688 L16.8125 -3.9688 L16.8125 -4.4219 L18.5156 -4.4219 L18.5156 -3.9688 L17.9219 -3.9688 L16.7344 -2.3438 L18.125 -0.4375 L18.7031 -0.4375 L18.7031 0 L16.6562 0 L16.6562 -0.4375 L17.2188 -0.4375 L16.25 -1.7656 L15.2969 -0.4375 L15.8594 -0.4375 L15.8594 0 L14.1875 0 L14.1875 -0.4375 L14.7656 -0.4375 L15.9844 -2.125 L14.6562 -3.9688 L14.1094 -3.9688 L14.1094 -4.4219 L16.0781 -4.4219 L16.0781 -3.9688 L15.5469 -3.9688 L16.4844 -2.7031 Z" stroke="none"/></g><g text-rendering="optimizeLegibility" transform="translate(42.6244,9)" color-rendering="optimizeQuality" color-interpolation="linearRGB" image-rendering="optimizeQuality"><path d="M1.2656 -5.4219 L8.7812 -5.4219 L8.7812 -4.4844 L1.2656 -4.4844 L1.2656 -5.4219 ZM1.2656 -3.0312 L8.7812 -3.0312 L8.7812 -2.0938 L1.2656 -2.0938 L1.2656 -3.0312 Z" stroke="none"/></g><g text-rendering="optimizeLegibility" transform="translate(54.202,9)" color-rendering="optimizeQuality" color-interpolation="linearRGB" image-rendering="optimizeQuality"><path d="M5.6094 -3.9219 Q5.2188 -3.4844 4.7031 -3.2656 Q4.2031 -3.0469 3.5625 -3.0469 Q2.2656 -3.0469 1.5 -3.8281 Q0.75 -4.625 0.75 -5.9844 Q0.75 -7.3125 1.5625 -8.1094 Q2.3906 -8.9062 3.75 -8.9062 Q5.2344 -8.9062 6.0312 -7.7969 Q6.8281 -6.7031 6.8281 -4.6406 Q6.8281 -2.3438 5.875 -1.0781 Q4.9375 0.1719 3.2344 0.1719 Q2.7656 0.1719 2.25 0.0781 Q1.75 0 1.2188 -0.1875 L1.2188 -1.6406 L1.875 -1.6406 Q1.9531 -1.0469 2.3281 -0.7188 Q2.7031 -0.4062 3.3438 -0.4062 Q4.4844 -0.4062 5.0312 -1.2656 Q5.5938 -2.125 5.6094 -3.9219 ZM3.7031 -8.3281 Q2.875 -8.3281 2.4375 -7.7188 Q2 -7.1094 2 -5.9844 Q2 -4.8438 2.4375 -4.2344 Q2.875 -3.625 3.7031 -3.625 Q4.5469 -3.625 4.9844 -4.2031 Q5.4219 -4.7969 5.4219 -5.9062 Q5.4219 -7.0781 4.9688 -7.7031 Q4.5312 -8.3281 3.7031 -8.3281 ZM11.8125 -0.4062 Q12.7188 -0.4062 13.1562 -1.3906 Q13.6094 -2.375 13.6094 -4.3594 Q13.6094 -6.3594 13.1562 -7.3438 Q12.7188 -8.3281 11.8125 -8.3281 Q10.9219 -8.3281 10.4688 -7.3438 Q10.0312 -6.3594 10.0312 -4.3594 Q10.0312 -2.375 10.4688 -1.3906 Q10.9219 -0.4062 11.8125 -0.4062 ZM11.8125 0.1719 Q10.3906 0.1719 9.5938 -1.0156 Q8.7969 -2.2188 8.7969 -4.3594 Q8.7969 -6.5156 9.5938 -7.7031 Q10.3906 -8.9062 11.8125 -8.9062 Q13.25 -8.9062 14.0469 -7.7031 Q14.8438 -6.5156 14.8438 -4.3594 Q14.8438 -2.2188 14.0469 -1.0156 Q13.25 0.1719 11.8125 0.1719 Z" stroke="none"/></g><g text-rendering="optimizeLegibility" transform="translate(70.7014,9)" color-rendering="optimizeQuality" color-interpolation="linearRGB" image-rendering="optimizeQuality"><path d="M3 -8.0938 Q2.5625 -8.0938 2.25 -7.7812 Q1.9531 -7.4844 1.9531 -7.0312 Q1.9531 -6.5938 2.25 -6.2812 Q2.5469 -5.9844 3 -5.9844 Q3.4531 -5.9844 3.75 -6.2812 Q4.0625 -6.5938 4.0625 -7.0312 Q4.0625 -7.4688 3.75 -7.7812 Q3.4375 -8.0938 3 -8.0938 ZM3 -8.9062 Q3.375 -8.9062 3.7188 -8.7656 Q4.0625 -8.625 4.3125 -8.3438 Q4.5938 -8.0938 4.7188 -7.75 Q4.8594 -7.4219 4.8594 -7.0312 Q4.8594 -6.2656 4.3125 -5.7188 Q3.7812 -5.1875 2.9844 -5.1875 Q2.2031 -5.1875 1.6719 -5.7031 Q1.1406 -6.2344 1.1406 -7.0312 Q1.1406 -7.8125 1.6719 -8.3594 Q2.2188 -8.9062 3 -8.9062 Z" stroke="none"/></g></g></svg>