<svg xmlns="http://www.w3.org/2000/svg" xmlns:xlink="http://www.w3.org/1999/xlink" stroke-dasharray="none" shape-rendering="auto" font-family="'Dialog'" width="426" text-rendering="auto" fill-opacity="1" contentScriptType="text/ecmascript" color-interpolation="auto" color-rendering="auto" preserveAspectRatio="xMidYMid meet" font-size="12px" fill="black" stroke="black" image-rendering="auto" stroke-miterlimit="10" zoomAndPan="magnify" version="1.0" stroke-linecap="square" stroke-linejoin="miter" contentStyleType="text/css" font-style="normal" height="35" stroke-width="1" stroke-dashoffset="0" font-weight="normal" stroke-opacity="1"><!--Converted from MathML using JEuclid--><defs id="genericDefs"/><g><g text-rendering="optimizeLegibility" transform="translate(0.7812,26)" color-rendering="optimizeQuality" color-interpolation="linearRGB" image-rendering="optimizeQuality"><path d="M3.8438 -3.75 L1.1094 -0.625 L2.2344 -0.625 L2.1094 0 L-0.7812 0 L-0.6562 -0.625 L0.3438 -0.625 L3.5781 -4.2969 L1.7656 -8.125 L0.8281 -8.125 L0.9531 -8.75 L4.4219 -8.75 L4.2969 -8.125 L3.2656 -8.125 L4.5938 -5.2969 L7.0781 -8.125 L5.9531 -8.125 L6.0781 -8.75 L8.9375 -8.75 L8.8125 -8.125 L7.8281 -8.125 L4.8594 -4.75 L6.8281 -0.625 L7.7656 -0.625 L7.6406 0 L4.1719 0 L4.2812 -0.625 L5.3281 -0.625 L3.8438 -3.75 Z" stroke="none"/></g><g text-rendering="optimizeLegibility" transform="translate(9.7188,29.1328)" color-rendering="optimizeQuality" color-interpolation="linearRGB" image-rendering="optimizeQuality"><path d="M4.4062 -3.5625 Q4.625 -4.0469 4.9688 -4.2969 Q5.3125 -4.5469 5.7812 -4.5469 Q6.4688 -4.5469 6.8125 -4.1094 Q7.1562 -3.6875 7.1562 -2.8125 L7.1562 -0.4375 L7.8438 -0.4375 L7.8438 0 L5.7188 0 L5.7188 -0.4375 L6.3906 -0.4375 L6.3906 -2.7188 Q6.3906 -3.4062 6.1875 -3.6875 Q5.9844 -3.9688 5.5312 -3.9688 Q5.0156 -3.9688 4.75 -3.5781 Q4.4844 -3.2031 4.4844 -2.4688 L4.4844 -0.4375 L5.1406 -0.4375 L5.1406 0 L3.0469 0 L3.0469 -0.4375 L3.7188 -0.4375 L3.7188 -2.75 Q3.7188 -3.4062 3.5156 -3.6875 Q3.3125 -3.9688 2.8594 -3.9688 Q2.3438 -3.9688 2.0625 -3.5781 Q1.7969 -3.2031 1.7969 -2.4688 L1.7969 -0.4375 L2.4688 -0.4375 L2.4688 0 L0.3438 0 L0.3438 -0.4375 L1.0469 -0.4375 L1.0469 -3.9844 L0.3125 -3.9844 L0.3125 -4.4219 L1.7969 -4.4219 L1.7969 -3.6406 Q2.0156 -4.0781 2.3438 -4.3125 Q2.6719 -4.5469 3.0938 -4.5469 Q3.6094 -4.5469 3.9531 -4.2812 Q4.2969 -4.0312 4.4062 -3.5625 ZM9.8281 -5.7969 Q9.8281 -5.9844 9.9688 -6.125 Q10.1094 -6.2656 10.2969 -6.2656 Q10.5 -6.2656 10.625 -6.125 Q10.7656 -5.9844 10.7656 -5.7969 Q10.7656 -5.5938 10.625 -5.4531 Q10.5 -5.3281 10.2969 -5.3281 Q10.1094 -5.3281 9.9688 -5.4531 Q9.8281 -5.5938 9.8281 -5.7969 ZM10.7969 -0.4375 L11.5312 -0.4375 L11.5312 0 L9.3125 0 L9.3125 -0.4375 L10.0469 -0.4375 L10.0469 -3.9688 L9.3125 -3.9688 L9.3125 -4.4219 L10.7969 -4.4219 L10.7969 -0.4375 ZM12.3438 0 L12.3438 -0.4375 L13.0469 -0.4375 L13.0469 -3.9688 L12.3125 -3.9688 L12.3125 -4.4219 L13.7969 -4.4219 L13.7969 -3.6406 Q14.0156 -4.0781 14.3438 -4.3125 Q14.6875 -4.5469 15.1406 -4.5469 Q15.875 -4.5469 16.2188 -4.125 Q16.5625 -3.7031 16.5625 -2.8125 L16.5625 -0.4375 L17.25 -0.4375 L17.25 0 L15.1406 0 L15.1406 -0.4375 L15.7969 -0.4375 L15.7969 -2.5625 Q15.7969 -3.375 15.5938 -3.6719 Q15.3906 -3.9844 14.8906 -3.9844 Q14.3594 -3.9844 14.0781 -3.5938 Q13.7969 -3.2031 13.7969 -2.4688 L13.7969 -0.4375 L14.4688 -0.4375 L14.4688 0 L12.3438 0 Z" stroke="none"/></g><g text-rendering="optimizeLegibility" transform="translate(28.4994,26)" color-rendering="optimizeQuality" color-interpolation="linearRGB" image-rendering="optimizeQuality"><path d="M1.2656 -5.4219 L8.7812 -5.4219 L8.7812 -4.4844 L1.2656 -4.4844 L1.2656 -5.4219 ZM1.2656 -3.0312 L8.7812 -3.0312 L8.7812 -2.0938 L1.2656 -2.0938 L1.2656 -3.0312 Z" stroke="none"/></g><g text-rendering="optimizeLegibility" color-rendering="optimizeQuality" color-interpolation="linearRGB" image-rendering="optimizeQuality"><line y2="21.44" fill="none" x1="41.0836" x2="65.8782" y1="21.44"/><path d="M3.8281 1.875 Q2.4062 1.2344 1.6719 -0.1562 Q0.9531 -1.5469 0.9531 -3.625 Q0.9531 -5.7031 1.6719 -7.0938 Q2.4062 -8.4844 3.8281 -9.125 L3.8281 -8.5469 Q2.9219 -7.9219 2.5312 -6.7969 Q2.1406 -5.6719 2.1406 -3.625 Q2.1406 -1.5781 2.5312 -0.4531 Q2.9219 0.6719 3.8281 1.2969 L3.8281 1.875 Z" transform="translate(40.1305,16.5965) matrix(1,0,0,1.7796,0,0)" stroke="none"/></g><g text-rendering="optimizeLegibility" color-rendering="optimizeQuality" color-interpolation="linearRGB" image-rendering="optimizeQuality"><line y2="10.1454" fill="none" x1="44.9653" x2="60.9809" y1="10.1454"/><path d="M5.8906 0 L5.2031 0 L4.7656 -5.0469 L2.3594 0 L1.6875 0 L1.1719 -5.7656 L0.5625 -5.7656 L0.6406 -6.2031 L2.9062 -6.2031 L2.8281 -5.7656 L2.0469 -5.7656 L2.4531 -1.1719 L4.8438 -6.2031 L5.5156 -6.2031 L5.9688 -1.125 L8.1719 -5.7656 L7.4531 -5.7656 L7.5469 -6.2031 L9.3281 -6.2031 L9.25 -5.7656 L8.625 -5.7656 L5.8906 0 Z" transform="translate(44.9653,6.5606)" stroke="none"/></g><g text-rendering="optimizeLegibility" transform="translate(54.2934,8.6388)" color-rendering="optimizeQuality" color-interpolation="linearRGB" image-rendering="optimizeQuality"><path d="M4.6719 -0.9062 Q5.2031 -1.4688 5.3125 -1.6875 Q5.75 -2.4688 6.1719 -3.7344 L5.5625 -3.7344 L5.6406 -4.1562 L6.6875 -4.1562 L6.6094 -3.7344 L6.5938 -3.7344 Q6.2031 -2.2812 5.8281 -1.5781 Q5.2656 -0.5938 4.6562 0 L4.0469 0 L3.625 -3.1094 L2 0 L1.4219 0 L0.9219 -3.7344 L0.4531 -3.7344 L0.5312 -4.1562 L1.6094 -4.1562 L2.0469 -0.9062 L3.7344 -4.1562 L4.25 -4.1562 L4.6719 -0.9062 Z" stroke="none"/></g><g text-rendering="optimizeLegibility" transform="translate(50.6841,17.9646)" color-rendering="optimizeQuality" color-interpolation="linearRGB" image-rendering="optimizeQuality"><path d="M1.0938 -4.7344 L0.625 -4.7344 L0.625 -5.8281 Q1.0625 -6.0781 1.5156 -6.1875 Q1.9688 -6.3125 2.4062 -6.3125 Q3.375 -6.3125 3.9375 -5.8438 Q4.5 -5.375 4.5 -4.5781 Q4.5 -3.6562 3.2188 -2.3906 Q3.125 -2.2969 3.0781 -2.25 L1.5 -0.6875 L4.0938 -0.6875 L4.0938 -1.4531 L4.5781 -1.4531 L4.5781 0 L0.5781 0 L0.5781 -0.4531 L2.4688 -2.3281 Q3.0781 -2.9531 3.3438 -3.4688 Q3.625 -4 3.625 -4.5781 Q3.625 -5.2031 3.2969 -5.5469 Q2.9688 -5.9062 2.3906 -5.9062 Q1.7969 -5.9062 1.4688 -5.6094 Q1.1406 -5.3125 1.0938 -4.7344 Z" stroke="none"/></g><g text-rendering="optimizeLegibility" transform="translate(62.1438,16.5965) matrix(1,0,0,1.7796,0,0)" color-rendering="optimizeQuality" color-interpolation="linearRGB" image-rendering="optimizeQuality"><path d="M0.8438 1.875 L0.8438 1.2969 Q1.75 0.6719 2.1406 -0.4531 Q2.5469 -1.5781 2.5469 -3.625 Q2.5469 -5.6719 2.1406 -6.7969 Q1.75 -7.9219 0.8438 -8.5469 L0.8438 -9.125 Q2.2812 -8.4844 3 -7.0938 Q3.7344 -5.7031 3.7344 -3.625 Q3.7344 -1.5469 3 -0.1562 Q2.2812 1.2344 0.8438 1.875 Z" stroke="none"/></g><g text-rendering="optimizeLegibility" transform="translate(46.0825,31.8529)" color-rendering="optimizeQuality" color-interpolation="linearRGB" image-rendering="optimizeQuality"><path d="M0.3438 -0.4219 L0.7344 -2.4219 L1.4062 -2.4062 Q1.25 -1.4062 1.7031 -0.9219 Q2.1562 -0.4531 3.2656 -0.4531 Q4.3125 -0.4531 4.9375 -0.8594 Q5.5781 -1.2812 5.7188 -2.0781 Q5.8438 -2.7031 5.5781 -3.0469 Q5.3125 -3.3906 4.3125 -3.7031 L3.2344 -4.0625 Q2.0469 -4.4375 1.6406 -5 Q1.25 -5.5781 1.4375 -6.5625 Q1.6562 -7.6719 2.5625 -8.2812 Q3.4688 -8.9062 4.9062 -8.9062 Q5.5156 -8.9062 6.2188 -8.7656 Q6.9219 -8.6406 7.6875 -8.3906 L7.3281 -6.5312 L6.6562 -6.5312 Q6.7344 -7.4531 6.2969 -7.8594 Q5.8594 -8.2812 4.8125 -8.2812 Q3.875 -8.2812 3.3125 -7.9062 Q2.7656 -7.5312 2.625 -6.7969 Q2.5 -6.1719 2.7969 -5.8125 Q3.0938 -5.4688 4.2031 -5.1094 L5.2188 -4.7812 Q6.3438 -4.4375 6.7344 -3.875 Q7.1406 -3.3281 6.9531 -2.3906 Q6.7031 -1.125 5.7656 -0.4688 Q4.8281 0.1719 3.2188 0.1719 Q2.5 0.1719 1.7812 0.0156 Q1.0625 -0.125 0.3438 -0.4219 Z" stroke="none"/></g><g text-rendering="optimizeLegibility" transform="translate(53.77,34.2357)" color-rendering="optimizeQuality" color-interpolation="linearRGB" image-rendering="optimizeQuality"><path d="M4.9844 -0.9688 Q5.5312 -1.5625 5.6562 -1.7812 Q6.1094 -2.625 6.5625 -3.9688 L5.9219 -3.9688 L6 -4.4219 L7.1094 -4.4219 L7.0312 -3.9688 L7.0156 -3.9688 Q6.5938 -2.4219 6.2031 -1.6875 Q5.5938 -0.625 4.9531 0 L4.3125 0 L3.8594 -3.3125 L2.125 0 L1.5156 0 L0.9844 -3.9688 L0.4844 -3.9688 L0.5625 -4.4219 L1.7031 -4.4219 L2.1719 -0.9688 L3.9844 -4.4219 L4.5156 -4.4219 L4.9844 -0.9688 Z" stroke="none"/></g><g text-rendering="optimizeLegibility" transform="translate(69.9937,26)" color-rendering="optimizeQuality" color-interpolation="linearRGB" image-rendering="optimizeQuality"><path d="M7.1094 -6.3281 L7.1719 -6.3281 L9.6094 -3.9062 L9.6094 -3.8438 L7.1719 -1.4375 L7.1094 -1.4375 L7.625 -2.375 L0.6875 -2.375 L0.6875 -3.3281 L8.1406 -3.3281 L8.4375 -3.875 L8.1406 -4.4375 L0.6875 -4.4375 L0.6875 -5.375 L7.625 -5.375 L7.1094 -6.3281 Z" stroke="none"/></g><g text-rendering="optimizeLegibility" color-rendering="optimizeQuality" color-interpolation="linearRGB" image-rendering="optimizeQuality"><line y2="21.44" fill="none" x1="83.406" x2="114.2342" y1="21.44"/><path d="M3.8281 1.875 Q2.4062 1.2344 1.6719 -0.1562 Q0.9531 -1.5469 0.9531 -3.625 Q0.9531 -5.7031 1.6719 -7.0938 Q2.4062 -8.4844 3.8281 -9.125 L3.8281 -8.5469 Q2.9219 -7.9219 2.5312 -6.7969 Q2.1406 -5.6719 2.1406 -3.625 Q2.1406 -1.5781 2.5312 -0.4531 Q2.9219 0.6719 3.8281 1.2969 L3.8281 1.875 Z" transform="translate(85.0478,17.2251) matrix(1,0,0,1.4444,0,0)" stroke="none"/></g><g text-rendering="optimizeLegibility" color-rendering="optimizeQuality" color-interpolation="linearRGB" image-rendering="optimizeQuality"><line y2="11.9892" fill="none" x1="89.8826" x2="106.742" y1="11.9892"/><path d="M2.7812 -0.2969 Q3.375 -0.2969 3.6875 -0.7188 Q4 -1.1562 4 -1.9531 Q4 -2.7656 3.6875 -3.1875 Q3.375 -3.625 2.7812 -3.625 Q2.1875 -3.625 1.875 -3.2031 Q1.5625 -2.7969 1.5625 -2.0156 Q1.5625 -1.1875 1.875 -0.7344 Q2.2031 -0.2969 2.7812 -0.2969 ZM1.4375 -3.4219 Q1.7188 -3.7344 2.0625 -3.875 Q2.4219 -4.0312 2.875 -4.0312 Q3.7969 -4.0312 4.3281 -3.4688 Q4.875 -2.9219 4.875 -1.9531 Q4.875 -1.0156 4.2969 -0.4375 Q3.7188 0.125 2.75 0.125 Q1.7031 0.125 1.125 -0.6562 Q0.5625 -1.4531 0.5625 -2.9062 Q0.5625 -4.5312 1.2344 -5.4219 Q1.9062 -6.3125 3.125 -6.3125 Q3.4531 -6.3125 3.8125 -6.25 Q4.1719 -6.2031 4.5625 -6.0781 L4.5625 -5.0469 L4.0938 -5.0469 Q4.0312 -5.4688 3.7656 -5.6875 Q3.5 -5.9062 3.0469 -5.9062 Q2.2344 -5.9062 1.8281 -5.2969 Q1.4375 -4.6875 1.4375 -3.4219 ZM8.9688 -2.1094 L8.9688 -5.4062 L6.8594 -2.1094 L8.9688 -2.1094 ZM10.7969 0 L7.9688 0 L7.9688 -0.4375 L8.9688 -0.4375 L8.9688 -1.6562 L6.2656 -1.6562 L6.2656 -2.1094 L8.9844 -6.3125 L9.7969 -6.3125 L9.7969 -2.1094 L10.9844 -2.1094 L10.9844 -1.6562 L9.7969 -1.6562 L9.7969 -0.4375 L10.7969 -0.4375 L10.7969 0 ZM14.7031 -0.2969 Q15.3438 -0.2969 15.6562 -0.9844 Q15.9688 -1.6875 15.9688 -3.0938 Q15.9688 -4.5156 15.6562 -5.2031 Q15.3438 -5.9062 14.7031 -5.9062 Q14.0781 -5.9062 13.75 -5.2031 Q13.4375 -4.5156 13.4375 -3.0938 Q13.4375 -1.6875 13.75 -0.9844 Q14.0781 -0.2969 14.7031 -0.2969 ZM14.7031 0.125 Q13.7031 0.125 13.125 -0.7188 Q12.5625 -1.5781 12.5625 -3.0938 Q12.5625 -4.625 13.125 -5.4688 Q13.7031 -6.3125 14.7031 -6.3125 Q15.7188 -6.3125 16.2812 -5.4688 Q16.8594 -4.625 16.8594 -3.0938 Q16.8594 -1.5781 16.2812 -0.7188 Q15.7188 0.125 14.7031 0.125 Z" transform="translate(89.8826,10.3575)" stroke="none"/></g><g text-rendering="optimizeLegibility" transform="translate(96.0232,19.8083)" color-rendering="optimizeQuality" color-interpolation="linearRGB" image-rendering="optimizeQuality"><path d="M1.0938 -4.7344 L0.625 -4.7344 L0.625 -5.8281 Q1.0625 -6.0781 1.5156 -6.1875 Q1.9688 -6.3125 2.4062 -6.3125 Q3.375 -6.3125 3.9375 -5.8438 Q4.5 -5.375 4.5 -4.5781 Q4.5 -3.6562 3.2188 -2.3906 Q3.125 -2.2969 3.0781 -2.25 L1.5 -0.6875 L4.0938 -0.6875 L4.0938 -1.4531 L4.5781 -1.4531 L4.5781 0 L0.5781 0 L0.5781 -0.4531 L2.4688 -2.3281 Q3.0781 -2.9531 3.3438 -3.4688 Q3.625 -4 3.625 -4.5781 Q3.625 -5.2031 3.2969 -5.5469 Q2.9688 -5.9062 2.3906 -5.9062 Q1.7969 -5.9062 1.4688 -5.6094 Q1.1406 -5.3125 1.0938 -4.7344 Z" stroke="none"/></g><g text-rendering="optimizeLegibility" transform="translate(107.9049,17.2251) matrix(1,0,0,1.4444,0,0)" color-rendering="optimizeQuality" color-interpolation="linearRGB" image-rendering="optimizeQuality"><path d="M0.8438 1.875 L0.8438 1.2969 Q1.75 0.6719 2.1406 -0.4531 Q2.5469 -1.5781 2.5469 -3.625 Q2.5469 -5.6719 2.1406 -6.7969 Q1.75 -7.9219 0.8438 -8.5469 L0.8438 -9.125 Q2.2812 -8.4844 3 -7.0938 Q3.7344 -5.7031 3.7344 -3.625 Q3.7344 -1.5469 3 -0.1562 Q2.2812 1.2344 0.8438 1.875 Z" stroke="none"/></g><g text-rendering="optimizeLegibility" transform="translate(83.406,31.8529)" color-rendering="optimizeQuality" color-interpolation="linearRGB" image-rendering="optimizeQuality"><path d="M1.5312 -6.6562 L0.875 -6.6562 L0.875 -8.2188 Q1.5 -8.5625 2.1406 -8.7344 Q2.7812 -8.9062 3.3906 -8.9062 Q4.75 -8.9062 5.5312 -8.2344 Q6.3281 -7.5781 6.3281 -6.4531 Q6.3281 -5.1562 4.5469 -3.375 Q4.4062 -3.2344 4.3281 -3.1719 L2.125 -0.9688 L5.7656 -0.9688 L5.7656 -2.0469 L6.4531 -2.0469 L6.4531 0 L0.8125 0 L0.8125 -0.6406 L3.4688 -3.2812 Q4.3438 -4.1719 4.7188 -4.9062 Q5.0938 -5.6406 5.0938 -6.4531 Q5.0938 -7.3281 4.625 -7.8281 Q4.1719 -8.3281 3.375 -8.3281 Q2.5312 -8.3281 2.0781 -7.9062 Q1.625 -7.5 1.5312 -6.6562 ZM11.8125 -0.4062 Q12.7188 -0.4062 13.1562 -1.3906 Q13.6094 -2.375 13.6094 -4.3594 Q13.6094 -6.3594 13.1562 -7.3438 Q12.7188 -8.3281 11.8125 -8.3281 Q10.9219 -8.3281 10.4688 -7.3438 Q10.0312 -6.3594 10.0312 -4.3594 Q10.0312 -2.375 10.4688 -1.3906 Q10.9219 -0.4062 11.8125 -0.4062 ZM11.8125 0.1719 Q10.3906 0.1719 9.5938 -1.0156 Q8.7969 -2.2188 8.7969 -4.3594 Q8.7969 -6.5156 9.5938 -7.7031 Q10.3906 -8.9062 11.8125 -8.9062 Q13.25 -8.9062 14.0469 -7.7031 Q14.8438 -6.5156 14.8438 -4.3594 Q14.8438 -2.2188 14.0469 -1.0156 Q13.25 0.1719 11.8125 0.1719 ZM20.1875 -2.9688 L20.1875 -7.625 L17.2031 -2.9688 L20.1875 -2.9688 ZM22.7656 0 L18.7812 0 L18.7812 -0.625 L20.1875 -0.625 L20.1875 -2.3438 L16.375 -2.3438 L16.375 -2.9844 L20.2031 -8.9062 L21.3594 -8.9062 L21.3594 -2.9688 L23.0312 -2.9688 L23.0312 -2.3438 L21.3594 -2.3438 L21.3594 -0.625 L22.7656 -0.625 L22.7656 0 ZM29.5938 -2.3906 Q29.5938 -3.3281 29.125 -3.8438 Q28.6562 -4.3594 27.8125 -4.3594 Q26.9688 -4.3594 26.5 -3.8438 Q26.0469 -3.3281 26.0469 -2.3906 Q26.0469 -1.4531 26.5 -0.9219 Q26.9688 -0.4062 27.8125 -0.4062 Q28.6562 -0.4062 29.125 -0.9219 Q29.5938 -1.4531 29.5938 -2.3906 ZM29.3438 -6.6406 Q29.3438 -7.4375 28.9375 -7.875 Q28.5469 -8.3281 27.8125 -8.3281 Q27.0938 -8.3281 26.6875 -7.875 Q26.2812 -7.4375 26.2812 -6.6406 Q26.2812 -5.8438 26.6875 -5.3906 Q27.0938 -4.9531 27.8125 -4.9531 Q28.5469 -4.9531 28.9375 -5.3906 Q29.3438 -5.8438 29.3438 -6.6406 ZM28.7188 -4.6562 Q29.7188 -4.5312 30.2656 -3.9219 Q30.8281 -3.3281 30.8281 -2.3906 Q30.8281 -1.1562 30.0469 -0.4844 Q29.2656 0.1719 27.8125 0.1719 Q26.375 0.1719 25.5781 -0.4844 Q24.7969 -1.1562 24.7969 -2.3906 Q24.7969 -3.3281 25.3594 -3.9219 Q25.9219 -4.5312 26.9219 -4.6562 Q26.0312 -4.8125 25.5625 -5.3281 Q25.0938 -5.8438 25.0938 -6.6406 Q25.0938 -7.6875 25.8125 -8.2969 Q26.5469 -8.9062 27.8125 -8.9062 Q29.0938 -8.9062 29.8125 -8.2969 Q30.5469 -7.6875 30.5469 -6.6406 Q30.5469 -5.8438 30.0625 -5.3281 Q29.5938 -4.8125 28.7188 -4.6562 Z" stroke="none"/></g><g text-rendering="optimizeLegibility" transform="translate(117.7715,26)" color-rendering="optimizeQuality" color-interpolation="linearRGB" image-rendering="optimizeQuality"><path d="M1.2656 -5.4219 L8.7812 -5.4219 L8.7812 -4.4844 L1.2656 -4.4844 L1.2656 -5.4219 ZM1.2656 -3.0312 L8.7812 -3.0312 L8.7812 -2.0938 L1.2656 -2.0938 L1.2656 -3.0312 Z" stroke="none"/></g><g text-rendering="optimizeLegibility" transform="translate(129.349,26)" color-rendering="optimizeQuality" color-interpolation="linearRGB" image-rendering="optimizeQuality"><path d="M3.8125 -0.4062 Q4.7188 -0.4062 5.1562 -1.3906 Q5.6094 -2.375 5.6094 -4.3594 Q5.6094 -6.3594 5.1562 -7.3438 Q4.7188 -8.3281 3.8125 -8.3281 Q2.9219 -8.3281 2.4688 -7.3438 Q2.0312 -6.3594 2.0312 -4.3594 Q2.0312 -2.375 2.4688 -1.3906 Q2.9219 -0.4062 3.8125 -0.4062 ZM3.8125 0.1719 Q2.3906 0.1719 1.5938 -1.0156 Q0.7969 -2.2188 0.7969 -4.3594 Q0.7969 -6.5156 1.5938 -7.7031 Q2.3906 -8.9062 3.8125 -8.9062 Q5.25 -8.9062 6.0469 -7.7031 Q6.8438 -6.5156 6.8438 -4.3594 Q6.8438 -2.2188 6.0469 -1.0156 Q5.25 0.1719 3.8125 0.1719 ZM9.125 -0.6094 Q9.125 -0.9375 9.3438 -1.1562 Q9.5781 -1.3906 9.9062 -1.3906 Q10.2344 -1.3906 10.4531 -1.1562 Q10.6875 -0.9375 10.6875 -0.6094 Q10.6875 -0.2812 10.4531 -0.0469 Q10.2344 0.1719 9.9062 0.1719 Q9.5781 0.1719 9.3438 -0.0469 Q9.125 -0.2812 9.125 -0.6094 ZM13.7031 0 L13.7031 -0.625 L15.2344 -0.625 L15.2344 -7.9062 L13.4688 -6.75 L13.4688 -7.5312 L15.5938 -8.9062 L16.4062 -8.9062 L16.4062 -0.625 L17.9375 -0.625 L17.9375 0 L13.7031 0 ZM26.0312 -8.75 L26.0312 -7.7812 L22.0312 -7.7812 L22.0312 -5.2812 Q22.3281 -5.4844 22.7344 -5.5938 Q23.1406 -5.7031 23.6562 -5.7031 Q25.0625 -5.7031 25.875 -4.9062 Q26.7031 -4.125 26.7031 -2.7656 Q26.7031 -1.3906 25.875 -0.6094 Q25.0469 0.1719 23.5469 0.1719 Q22.9531 0.1719 22.3125 0.0156 Q21.6875 -0.125 21.0156 -0.4219 L21.0156 -2.125 L21.6875 -2.125 Q21.7344 -1.2969 22.2031 -0.8438 Q22.6875 -0.4062 23.5469 -0.4062 Q24.4844 -0.4062 24.9688 -1.0156 Q25.4688 -1.625 25.4688 -2.7656 Q25.4688 -3.9062 24.9688 -4.5156 Q24.4844 -5.125 23.5469 -5.125 Q23.0312 -5.125 22.625 -4.9375 Q22.2188 -4.75 21.9062 -4.3594 L21.4062 -4.3594 L21.4062 -8.75 L26.0312 -8.75 ZM31.9219 -0.4062 Q32.75 -0.4062 33.1875 -1.0156 Q33.6406 -1.625 33.6406 -2.7656 Q33.6406 -3.8906 33.1875 -4.5 Q32.75 -5.1094 31.9219 -5.1094 Q31.0938 -5.1094 30.6406 -4.5156 Q30.2031 -3.9375 30.2031 -2.8281 Q30.2031 -1.6719 30.6406 -1.0312 Q31.0938 -0.4062 31.9219 -0.4062 ZM30.0156 -4.8125 Q30.4219 -5.25 30.9219 -5.4688 Q31.4219 -5.6875 32.0625 -5.6875 Q33.3594 -5.6875 34.1094 -4.9062 Q34.875 -4.125 34.875 -2.7656 Q34.875 -1.4375 34.0625 -0.625 Q33.25 0.1719 31.875 0.1719 Q30.3906 0.1719 29.5938 -0.9375 Q28.7969 -2.0469 28.7969 -4.0938 Q28.7969 -6.3906 29.7344 -7.6406 Q30.6875 -8.9062 32.4062 -8.9062 Q32.875 -8.9062 33.375 -8.8125 Q33.8906 -8.7344 34.4219 -8.5625 L34.4219 -7.1094 L33.7656 -7.1094 Q33.6875 -7.7031 33.2969 -8.0156 Q32.9219 -8.3281 32.2812 -8.3281 Q31.1406 -8.3281 30.5781 -7.4688 Q30.0312 -6.6094 30.0156 -4.8125 ZM37.5312 -6.6562 L36.875 -6.6562 L36.875 -8.2188 Q37.5 -8.5625 38.1406 -8.7344 Q38.7812 -8.9062 39.3906 -8.9062 Q40.75 -8.9062 41.5312 -8.2344 Q42.3281 -7.5781 42.3281 -6.4531 Q42.3281 -5.1562 40.5469 -3.375 Q40.4062 -3.2344 40.3281 -3.1719 L38.125 -0.9688 L41.7656 -0.9688 L41.7656 -2.0469 L42.4531 -2.0469 L42.4531 0 L36.8125 0 L36.8125 -0.6406 L39.4688 -3.2812 Q40.3438 -4.1719 40.7188 -4.9062 Q41.0938 -5.6406 41.0938 -6.4531 Q41.0938 -7.3281 40.625 -7.8281 Q40.1719 -8.3281 39.375 -8.3281 Q38.5312 -8.3281 38.0781 -7.9062 Q37.625 -7.5 37.5312 -6.6562 ZM50.0312 -8.75 L50.0312 -7.7812 L46.0312 -7.7812 L46.0312 -5.2812 Q46.3281 -5.4844 46.7344 -5.5938 Q47.1406 -5.7031 47.6562 -5.7031 Q49.0625 -5.7031 49.875 -4.9062 Q50.7031 -4.125 50.7031 -2.7656 Q50.7031 -1.3906 49.875 -0.6094 Q49.0469 0.1719 47.5469 0.1719 Q46.9531 0.1719 46.3125 0.0156 Q45.6875 -0.125 45.0156 -0.4219 L45.0156 -2.125 L45.6875 -2.125 Q45.7344 -1.2969 46.2031 -0.8438 Q46.6875 -0.4062 47.5469 -0.4062 Q48.4844 -0.4062 48.9688 -1.0156 Q49.4688 -1.625 49.4688 -2.7656 Q49.4688 -3.9062 48.9688 -4.5156 Q48.4844 -5.125 47.5469 -5.125 Q47.0312 -5.125 46.625 -4.9375 Q46.2188 -4.75 45.9062 -4.3594 L45.4062 -4.3594 L45.4062 -8.75 L50.0312 -8.75 Z" stroke="none"/></g><g text-rendering="optimizeLegibility" transform="translate(179.6147,26)" color-rendering="optimizeQuality" color-interpolation="linearRGB" image-rendering="optimizeQuality"><path d="M0.4375 1.1719 Q0.9844 0.7656 1.2344 0.2188 Q1.5 -0.3281 1.5 -1.1094 L1.5 -1.3281 L2.6562 -1.3281 Q2.6094 -0.3281 2.1875 0.3906 Q1.7656 1.1094 0.9062 1.6406 L0.4375 1.1719 Z" stroke="none"/></g><g text-rendering="optimizeLegibility" transform="translate(186.4077,26)" color-rendering="optimizeQuality" color-interpolation="linearRGB" image-rendering="optimizeQuality"><path d="M3.8438 -3.75 L1.1094 -0.625 L2.2344 -0.625 L2.1094 0 L-0.7812 0 L-0.6562 -0.625 L0.3438 -0.625 L3.5781 -4.2969 L1.7656 -8.125 L0.8281 -8.125 L0.9531 -8.75 L4.4219 -8.75 L4.2969 -8.125 L3.2656 -8.125 L4.5938 -5.2969 L7.0781 -8.125 L5.9531 -8.125 L6.0781 -8.75 L8.9375 -8.75 L8.8125 -8.125 L7.8281 -8.125 L4.8594 -4.75 L6.8281 -0.625 L7.7656 -0.625 L7.6406 0 L4.1719 0 L4.2812 -0.625 L5.3281 -0.625 L3.8438 -3.75 Z" stroke="none"/></g><g text-rendering="optimizeLegibility" transform="translate(195.3452,28.2109)" color-rendering="optimizeQuality" color-interpolation="linearRGB" image-rendering="optimizeQuality"><path d="M4.4062 -3.5625 Q4.625 -4.0469 4.9688 -4.2969 Q5.3125 -4.5469 5.7812 -4.5469 Q6.4688 -4.5469 6.8125 -4.1094 Q7.1562 -3.6875 7.1562 -2.8125 L7.1562 -0.4375 L7.8438 -0.4375 L7.8438 0 L5.7188 0 L5.7188 -0.4375 L6.3906 -0.4375 L6.3906 -2.7188 Q6.3906 -3.4062 6.1875 -3.6875 Q5.9844 -3.9688 5.5312 -3.9688 Q5.0156 -3.9688 4.75 -3.5781 Q4.4844 -3.2031 4.4844 -2.4688 L4.4844 -0.4375 L5.1406 -0.4375 L5.1406 0 L3.0469 0 L3.0469 -0.4375 L3.7188 -0.4375 L3.7188 -2.75 Q3.7188 -3.4062 3.5156 -3.6875 Q3.3125 -3.9688 2.8594 -3.9688 Q2.3438 -3.9688 2.0625 -3.5781 Q1.7969 -3.2031 1.7969 -2.4688 L1.7969 -0.4375 L2.4688 -0.4375 L2.4688 0 L0.3438 0 L0.3438 -0.4375 L1.0469 -0.4375 L1.0469 -3.9844 L0.3125 -3.9844 L0.3125 -4.4219 L1.7969 -4.4219 L1.7969 -3.6406 Q2.0156 -4.0781 2.3438 -4.3125 Q2.6719 -4.5469 3.0938 -4.5469 Q3.6094 -4.5469 3.9531 -4.2812 Q4.2969 -4.0312 4.4062 -3.5625 ZM12.3906 -1.3906 L12.3906 -2.3281 L11.4062 -2.3281 Q10.8281 -2.3281 10.5469 -2.0781 Q10.2812 -1.8281 10.2812 -1.3281 Q10.2812 -0.8594 10.5625 -0.5938 Q10.8438 -0.3281 11.3281 -0.3281 Q11.7969 -0.3281 12.0938 -0.625 Q12.3906 -0.9219 12.3906 -1.3906 ZM13.1562 -2.7656 L13.1562 -0.4375 L13.8281 -0.4375 L13.8281 0 L12.3906 0 L12.3906 -0.4844 Q12.1406 -0.1719 11.7969 -0.0156 Q11.4688 0.125 11.0312 0.125 Q10.2812 0.125 9.8438 -0.2656 Q9.4219 -0.6562 9.4219 -1.3281 Q9.4219 -2.0156 9.9062 -2.3906 Q10.4062 -2.7656 11.3125 -2.7656 L12.3906 -2.7656 L12.3906 -3.0781 Q12.3906 -3.5781 12.0781 -3.8438 Q11.7812 -4.125 11.2188 -4.125 Q10.7656 -4.125 10.5 -3.9219 Q10.2344 -3.7188 10.1562 -3.3125 L9.7656 -3.3125 L9.7656 -4.2031 Q10.1719 -4.375 10.5469 -4.4531 Q10.9219 -4.5469 11.2812 -4.5469 Q12.1875 -4.5469 12.6719 -4.0781 Q13.1562 -3.625 13.1562 -2.7656 ZM16.4844 -2.7031 L17.4062 -3.9688 L16.8125 -3.9688 L16.8125 -4.4219 L18.5156 -4.4219 L18.5156 -3.9688 L17.9219 -3.9688 L16.7344 -2.3438 L18.125 -0.4375 L18.7031 -0.4375 L18.7031 0 L16.6562 0 L16.6562 -0.4375 L17.2188 -0.4375 L16.25 -1.7656 L15.2969 -0.4375 L15.8594 -0.4375 L15.8594 0 L14.1875 0 L14.1875 -0.4375 L14.7656 -0.4375 L15.9844 -2.125 L14.6562 -3.9688 L14.1094 -3.9688 L14.1094 -4.4219 L16.0781 -4.4219 L16.0781 -3.9688 L15.5469 -3.9688 L16.4844 -2.7031 Z" stroke="none"/></g><g text-rendering="optimizeLegibility" transform="translate(215.579,26)" color-rendering="optimizeQuality" color-interpolation="linearRGB" image-rendering="optimizeQuality"><path d="M1.2656 -5.4219 L8.7812 -5.4219 L8.7812 -4.4844 L1.2656 -4.4844 L1.2656 -5.4219 ZM1.2656 -3.0312 L8.7812 -3.0312 L8.7812 -2.0938 L1.2656 -2.0938 L1.2656 -3.0312 Z" stroke="none"/></g><g text-rendering="optimizeLegibility" transform="translate(227.1566,26)" color-rendering="optimizeQuality" color-interpolation="linearRGB" image-rendering="optimizeQuality"><path d="M1.7031 0 L1.7031 -0.625 L3.2344 -0.625 L3.2344 -7.9062 L1.4688 -6.75 L1.4688 -7.5312 L3.5938 -8.9062 L4.4062 -8.9062 L4.4062 -0.625 L5.9375 -0.625 L5.9375 0 L1.7031 0 Z" stroke="none"/></g><g text-rendering="optimizeLegibility" transform="translate(234.6247,26)" color-rendering="optimizeQuality" color-interpolation="linearRGB" image-rendering="optimizeQuality"><path d="M1.2656 -4.2344 L8.7812 -4.2344 L8.7812 -3.2812 L1.2656 -3.2812 L1.2656 -4.2344 Z" stroke="none"/></g><g text-rendering="optimizeLegibility" color-rendering="optimizeQuality" color-interpolation="linearRGB" image-rendering="optimizeQuality"><line y2="21.44" fill="none" x1="247.2089" x2="272.0035" y1="21.44"/><path d="M3.8281 1.875 Q2.4062 1.2344 1.6719 -0.1562 Q0.9531 -1.5469 0.9531 -3.625 Q0.9531 -5.7031 1.6719 -7.0938 Q2.4062 -8.4844 3.8281 -9.125 L3.8281 -8.5469 Q2.9219 -7.9219 2.5312 -6.7969 Q2.1406 -5.6719 2.1406 -3.625 Q2.1406 -1.5781 2.5312 -0.4531 Q2.9219 0.6719 3.8281 1.2969 L3.8281 1.875 Z" transform="translate(246.2558,16.5965) matrix(1,0,0,1.7796,0,0)" stroke="none"/></g><g text-rendering="optimizeLegibility" color-rendering="optimizeQuality" color-interpolation="linearRGB" image-rendering="optimizeQuality"><line y2="10.1454" fill="none" x1="251.0906" x2="267.1062" y1="10.1454"/><path d="M5.8906 0 L5.2031 0 L4.7656 -5.0469 L2.3594 0 L1.6875 0 L1.1719 -5.7656 L0.5625 -5.7656 L0.6406 -6.2031 L2.9062 -6.2031 L2.8281 -5.7656 L2.0469 -5.7656 L2.4531 -1.1719 L4.8438 -6.2031 L5.5156 -6.2031 L5.9688 -1.125 L8.1719 -5.7656 L7.4531 -5.7656 L7.5469 -6.2031 L9.3281 -6.2031 L9.25 -5.7656 L8.625 -5.7656 L5.8906 0 Z" transform="translate(251.0906,6.5606)" stroke="none"/></g><g text-rendering="optimizeLegibility" transform="translate(260.4187,8.6388)" color-rendering="optimizeQuality" color-interpolation="linearRGB" image-rendering="optimizeQuality"><path d="M4.6719 -0.9062 Q5.2031 -1.4688 5.3125 -1.6875 Q5.75 -2.4688 6.1719 -3.7344 L5.5625 -3.7344 L5.6406 -4.1562 L6.6875 -4.1562 L6.6094 -3.7344 L6.5938 -3.7344 Q6.2031 -2.2812 5.8281 -1.5781 Q5.2656 -0.5938 4.6562 0 L4.0469 0 L3.625 -3.1094 L2 0 L1.4219 0 L0.9219 -3.7344 L0.4531 -3.7344 L0.5312 -4.1562 L1.6094 -4.1562 L2.0469 -0.9062 L3.7344 -4.1562 L4.25 -4.1562 L4.6719 -0.9062 Z" stroke="none"/></g><g text-rendering="optimizeLegibility" transform="translate(256.8094,17.9646)" color-rendering="optimizeQuality" color-interpolation="linearRGB" image-rendering="optimizeQuality"><path d="M1.0938 -4.7344 L0.625 -4.7344 L0.625 -5.8281 Q1.0625 -6.0781 1.5156 -6.1875 Q1.9688 -6.3125 2.4062 -6.3125 Q3.375 -6.3125 3.9375 -5.8438 Q4.5 -5.375 4.5 -4.5781 Q4.5 -3.6562 3.2188 -2.3906 Q3.125 -2.2969 3.0781 -2.25 L1.5 -0.6875 L4.0938 -0.6875 L4.0938 -1.4531 L4.5781 -1.4531 L4.5781 0 L0.5781 0 L0.5781 -0.4531 L2.4688 -2.3281 Q3.0781 -2.9531 3.3438 -3.4688 Q3.625 -4 3.625 -4.5781 Q3.625 -5.2031 3.2969 -5.5469 Q2.9688 -5.9062 2.3906 -5.9062 Q1.7969 -5.9062 1.4688 -5.6094 Q1.1406 -5.3125 1.0938 -4.7344 Z" stroke="none"/></g><g text-rendering="optimizeLegibility" transform="translate(268.2691,16.5965) matrix(1,0,0,1.7796,0,0)" color-rendering="optimizeQuality" color-interpolation="linearRGB" image-rendering="optimizeQuality"><path d="M0.8438 1.875 L0.8438 1.2969 Q1.75 0.6719 2.1406 -0.4531 Q2.5469 -1.5781 2.5469 -3.625 Q2.5469 -5.6719 2.1406 -6.7969 Q1.75 -7.9219 0.8438 -8.5469 L0.8438 -9.125 Q2.2812 -8.4844 3 -7.0938 Q3.7344 -5.7031 3.7344 -3.625 Q3.7344 -1.5469 3 -0.1562 Q2.2812 1.2344 0.8438 1.875 Z" stroke="none"/></g><g text-rendering="optimizeLegibility" transform="translate(252.2078,31.8529)" color-rendering="optimizeQuality" color-interpolation="linearRGB" image-rendering="optimizeQuality"><path d="M0.3438 -0.4219 L0.7344 -2.4219 L1.4062 -2.4062 Q1.25 -1.4062 1.7031 -0.9219 Q2.1562 -0.4531 3.2656 -0.4531 Q4.3125 -0.4531 4.9375 -0.8594 Q5.5781 -1.2812 5.7188 -2.0781 Q5.8438 -2.7031 5.5781 -3.0469 Q5.3125 -3.3906 4.3125 -3.7031 L3.2344 -4.0625 Q2.0469 -4.4375 1.6406 -5 Q1.25 -5.5781 1.4375 -6.5625 Q1.6562 -7.6719 2.5625 -8.2812 Q3.4688 -8.9062 4.9062 -8.9062 Q5.5156 -8.9062 6.2188 -8.7656 Q6.9219 -8.6406 7.6875 -8.3906 L7.3281 -6.5312 L6.6562 -6.5312 Q6.7344 -7.4531 6.2969 -7.8594 Q5.8594 -8.2812 4.8125 -8.2812 Q3.875 -8.2812 3.3125 -7.9062 Q2.7656 -7.5312 2.625 -6.7969 Q2.5 -6.1719 2.7969 -5.8125 Q3.0938 -5.4688 4.2031 -5.1094 L5.2188 -4.7812 Q6.3438 -4.4375 6.7344 -3.875 Q7.1406 -3.3281 6.9531 -2.3906 Q6.7031 -1.125 5.7656 -0.4688 Q4.8281 0.1719 3.2188 0.1719 Q2.5 0.1719 1.7812 0.0156 Q1.0625 -0.125 0.3438 -0.4219 Z" stroke="none"/></g><g text-rendering="optimizeLegibility" transform="translate(259.8953,34.2357)" color-rendering="optimizeQuality" color-interpolation="linearRGB" image-rendering="optimizeQuality"><path d="M4.9844 -0.9688 Q5.5312 -1.5625 5.6562 -1.7812 Q6.1094 -2.625 6.5625 -3.9688 L5.9219 -3.9688 L6 -4.4219 L7.1094 -4.4219 L7.0312 -3.9688 L7.0156 -3.9688 Q6.5938 -2.4219 6.2031 -1.6875 Q5.5938 -0.625 4.9531 0 L4.3125 0 L3.8594 -3.3125 L2.125 0 L1.5156 0 L0.9844 -3.9688 L0.4844 -3.9688 L0.5625 -4.4219 L1.7031 -4.4219 L2.1719 -0.9688 L3.9844 -4.4219 L4.5156 -4.4219 L4.9844 -0.9688 Z" stroke="none"/></g><g text-rendering="optimizeLegibility" transform="translate(276.119,26)" color-rendering="optimizeQuality" color-interpolation="linearRGB" image-rendering="optimizeQuality"><path d="M7.1094 -6.3281 L7.1719 -6.3281 L9.6094 -3.9062 L9.6094 -3.8438 L7.1719 -1.4375 L7.1094 -1.4375 L7.625 -2.375 L0.6875 -2.375 L0.6875 -3.3281 L8.1406 -3.3281 L8.4375 -3.875 L8.1406 -4.4375 L0.6875 -4.4375 L0.6875 -5.375 L7.625 -5.375 L7.1094 -6.3281 Z" stroke="none"/></g><g text-rendering="optimizeLegibility" transform="translate(288.5247,26)" color-rendering="optimizeQuality" color-interpolation="linearRGB" image-rendering="optimizeQuality"><path d="M1.7031 0 L1.7031 -0.625 L3.2344 -0.625 L3.2344 -7.9062 L1.4688 -6.75 L1.4688 -7.5312 L3.5938 -8.9062 L4.4062 -8.9062 L4.4062 -0.625 L5.9375 -0.625 L5.9375 0 L1.7031 0 Z" stroke="none"/></g><g text-rendering="optimizeLegibility" transform="translate(295.9928,26)" color-rendering="optimizeQuality" color-interpolation="linearRGB" image-rendering="optimizeQuality"><path d="M1.2656 -4.2344 L8.7812 -4.2344 L8.7812 -3.2812 L1.2656 -3.2812 L1.2656 -4.2344 Z" stroke="none"/></g><g text-rendering="optimizeLegibility" color-rendering="optimizeQuality" color-interpolation="linearRGB" image-rendering="optimizeQuality"><line y2="21.44" fill="none" x1="308.577" x2="351.2802" y1="21.44"/><path d="M3.8281 1.875 Q2.4062 1.2344 1.6719 -0.1562 Q0.9531 -1.5469 0.9531 -3.625 Q0.9531 -5.7031 1.6719 -7.0938 Q2.4062 -8.4844 3.8281 -9.125 L3.8281 -8.5469 Q2.9219 -7.9219 2.5312 -6.7969 Q2.1406 -5.6719 2.1406 -3.625 Q2.1406 -1.5781 2.5312 -0.4531 Q2.9219 0.6719 3.8281 1.2969 L3.8281 1.875 Z" transform="translate(316.1563,17.2251) matrix(1,0,0,1.4444,0,0)" stroke="none"/></g><g text-rendering="optimizeLegibility" color-rendering="optimizeQuality" color-interpolation="linearRGB" image-rendering="optimizeQuality"><line y2="11.9892" fill="none" x1="320.9911" x2="337.8505" y1="11.9892"/><path d="M2.7812 -0.2969 Q3.375 -0.2969 3.6875 -0.7188 Q4 -1.1562 4 -1.9531 Q4 -2.7656 3.6875 -3.1875 Q3.375 -3.625 2.7812 -3.625 Q2.1875 -3.625 1.875 -3.2031 Q1.5625 -2.7969 1.5625 -2.0156 Q1.5625 -1.1875 1.875 -0.7344 Q2.2031 -0.2969 2.7812 -0.2969 ZM1.4375 -3.4219 Q1.7188 -3.7344 2.0625 -3.875 Q2.4219 -4.0312 2.875 -4.0312 Q3.7969 -4.0312 4.3281 -3.4688 Q4.875 -2.9219 4.875 -1.9531 Q4.875 -1.0156 4.2969 -0.4375 Q3.7188 0.125 2.75 0.125 Q1.7031 0.125 1.125 -0.6562 Q0.5625 -1.4531 0.5625 -2.9062 Q0.5625 -4.5312 1.2344 -5.4219 Q1.9062 -6.3125 3.125 -6.3125 Q3.4531 -6.3125 3.8125 -6.25 Q4.1719 -6.2031 4.5625 -6.0781 L4.5625 -5.0469 L4.0938 -5.0469 Q4.0312 -5.4688 3.7656 -5.6875 Q3.5 -5.9062 3.0469 -5.9062 Q2.2344 -5.9062 1.8281 -5.2969 Q1.4375 -4.6875 1.4375 -3.4219 ZM8.9688 -2.1094 L8.9688 -5.4062 L6.8594 -2.1094 L8.9688 -2.1094 ZM10.7969 0 L7.9688 0 L7.9688 -0.4375 L8.9688 -0.4375 L8.9688 -1.6562 L6.2656 -1.6562 L6.2656 -2.1094 L8.9844 -6.3125 L9.7969 -6.3125 L9.7969 -2.1094 L10.9844 -2.1094 L10.9844 -1.6562 L9.7969 -1.6562 L9.7969 -0.4375 L10.7969 -0.4375 L10.7969 0 ZM14.7031 -0.2969 Q15.3438 -0.2969 15.6562 -0.9844 Q15.9688 -1.6875 15.9688 -3.0938 Q15.9688 -4.5156 15.6562 -5.2031 Q15.3438 -5.9062 14.7031 -5.9062 Q14.0781 -5.9062 13.75 -5.2031 Q13.4375 -4.5156 13.4375 -3.0938 Q13.4375 -1.6875 13.75 -0.9844 Q14.0781 -0.2969 14.7031 -0.2969 ZM14.7031 0.125 Q13.7031 0.125 13.125 -0.7188 Q12.5625 -1.5781 12.5625 -3.0938 Q12.5625 -4.625 13.125 -5.4688 Q13.7031 -6.3125 14.7031 -6.3125 Q15.7188 -6.3125 16.2812 -5.4688 Q16.8594 -4.625 16.8594 -3.0938 Q16.8594 -1.5781 16.2812 -0.7188 Q15.7188 0.125 14.7031 0.125 Z" transform="translate(320.9911,10.3575)" stroke="none"/></g><g text-rendering="optimizeLegibility" transform="translate(327.1317,19.8083)" color-rendering="optimizeQuality" color-interpolation="linearRGB" image-rendering="optimizeQuality"><path d="M1.0938 -4.7344 L0.625 -4.7344 L0.625 -5.8281 Q1.0625 -6.0781 1.5156 -6.1875 Q1.9688 -6.3125 2.4062 -6.3125 Q3.375 -6.3125 3.9375 -5.8438 Q4.5 -5.375 4.5 -4.5781 Q4.5 -3.6562 3.2188 -2.3906 Q3.125 -2.2969 3.0781 -2.25 L1.5 -0.6875 L4.0938 -0.6875 L4.0938 -1.4531 L4.5781 -1.4531 L4.5781 0 L0.5781 0 L0.5781 -0.4531 L2.4688 -2.3281 Q3.0781 -2.9531 3.3438 -3.4688 Q3.625 -4 3.625 -4.5781 Q3.625 -5.2031 3.2969 -5.5469 Q2.9688 -5.9062 2.3906 -5.9062 Q1.7969 -5.9062 1.4688 -5.6094 Q1.1406 -5.3125 1.0938 -4.7344 Z" stroke="none"/></g><g text-rendering="optimizeLegibility" transform="translate(339.0134,17.2251) matrix(1,0,0,1.4444,0,0)" color-rendering="optimizeQuality" color-interpolation="linearRGB" image-rendering="optimizeQuality"><path d="M0.8438 1.875 L0.8438 1.2969 Q1.75 0.6719 2.1406 -0.4531 Q2.5469 -1.5781 2.5469 -3.625 Q2.5469 -5.6719 2.1406 -6.7969 Q1.75 -7.9219 0.8438 -8.5469 L0.8438 -9.125 Q2.2812 -8.4844 3 -7.0938 Q3.7344 -5.7031 3.7344 -3.625 Q3.7344 -1.5469 3 -0.1562 Q2.2812 1.2344 0.8438 1.875 Z" stroke="none"/></g><g text-rendering="optimizeLegibility" transform="translate(308.577,31.8529)" color-rendering="optimizeQuality" color-interpolation="linearRGB" image-rendering="optimizeQuality"><path d="M3.8125 -0.4062 Q4.7188 -0.4062 5.1562 -1.3906 Q5.6094 -2.375 5.6094 -4.3594 Q5.6094 -6.3594 5.1562 -7.3438 Q4.7188 -8.3281 3.8125 -8.3281 Q2.9219 -8.3281 2.4688 -7.3438 Q2.0312 -6.3594 2.0312 -4.3594 Q2.0312 -2.375 2.4688 -1.3906 Q2.9219 -0.4062 3.8125 -0.4062 ZM3.8125 0.1719 Q2.3906 0.1719 1.5938 -1.0156 Q0.7969 -2.2188 0.7969 -4.3594 Q0.7969 -6.5156 1.5938 -7.7031 Q2.3906 -8.9062 3.8125 -8.9062 Q5.25 -8.9062 6.0469 -7.7031 Q6.8438 -6.5156 6.8438 -4.3594 Q6.8438 -2.2188 6.0469 -1.0156 Q5.25 0.1719 3.8125 0.1719 ZM9.125 -0.6094 Q9.125 -0.9375 9.3438 -1.1562 Q9.5781 -1.3906 9.9062 -1.3906 Q10.2344 -1.3906 10.4531 -1.1562 Q10.6875 -0.9375 10.6875 -0.6094 Q10.6875 -0.2812 10.4531 -0.0469 Q10.2344 0.1719 9.9062 0.1719 Q9.5781 0.1719 9.3438 -0.0469 Q9.125 -0.2812 9.125 -0.6094 ZM16.1875 -2.9688 L16.1875 -7.625 L13.2031 -2.9688 L16.1875 -2.9688 ZM18.7656 0 L14.7812 0 L14.7812 -0.625 L16.1875 -0.625 L16.1875 -2.3438 L12.375 -2.3438 L12.375 -2.9844 L16.2031 -8.9062 L17.3594 -8.9062 L17.3594 -2.9688 L19.0312 -2.9688 L19.0312 -2.3438 L17.3594 -2.3438 L17.3594 -0.625 L18.7656 -0.625 L18.7656 0 ZM21.1719 -8.375 Q21.8594 -8.6406 22.4844 -8.7656 Q23.1094 -8.9062 23.6562 -8.9062 Q24.9531 -8.9062 25.6719 -8.3438 Q26.3906 -7.7969 26.3906 -6.8125 Q26.3906 -6.0312 25.8906 -5.5 Q25.3906 -4.9688 24.4844 -4.7812 Q25.5625 -4.625 26.1562 -3.9844 Q26.75 -3.3594 26.75 -2.3594 Q26.75 -1.1406 25.9219 -0.4844 Q25.0938 0.1719 23.5469 0.1719 Q22.8594 0.1719 22.2031 0.0156 Q21.5625 -0.125 20.9219 -0.4219 L20.9219 -2.125 L21.5781 -2.125 Q21.625 -1.2812 22.1406 -0.8438 Q22.6562 -0.4062 23.5781 -0.4062 Q24.4688 -0.4062 24.9844 -0.9219 Q25.5156 -1.4531 25.5156 -2.3438 Q25.5156 -3.375 24.9688 -3.9062 Q24.4375 -4.4375 23.4062 -4.4375 L22.8594 -4.4375 L22.8594 -5.0469 L23.1406 -5.0469 Q24.1719 -5.0469 24.6875 -5.4688 Q25.2031 -5.8906 25.2031 -6.75 Q25.2031 -7.5156 24.7812 -7.9219 Q24.3594 -8.3281 23.5625 -8.3281 Q22.7656 -8.3281 22.3281 -7.9531 Q21.9062 -7.5781 21.8281 -6.8438 L21.1719 -6.8438 L21.1719 -8.375 ZM34.7656 -8.1562 L31.3438 0 L30.4688 0 L33.7344 -7.7812 L29.6875 -7.7812 L29.6875 -6.7031 L29.0156 -6.7031 L29.0156 -8.75 L34.7656 -8.75 L34.7656 -8.1562 ZM42.0312 -8.75 L42.0312 -7.7812 L38.0312 -7.7812 L38.0312 -5.2812 Q38.3281 -5.4844 38.7344 -5.5938 Q39.1406 -5.7031 39.6562 -5.7031 Q41.0625 -5.7031 41.875 -4.9062 Q42.7031 -4.125 42.7031 -2.7656 Q42.7031 -1.3906 41.875 -0.6094 Q41.0469 0.1719 39.5469 0.1719 Q38.9531 0.1719 38.3125 0.0156 Q37.6875 -0.125 37.0156 -0.4219 L37.0156 -2.125 L37.6875 -2.125 Q37.7344 -1.2969 38.2031 -0.8438 Q38.6875 -0.4062 39.5469 -0.4062 Q40.4844 -0.4062 40.9688 -1.0156 Q41.4688 -1.625 41.4688 -2.7656 Q41.4688 -3.9062 40.9688 -4.5156 Q40.4844 -5.125 39.5469 -5.125 Q39.0312 -5.125 38.625 -4.9375 Q38.2188 -4.75 37.9062 -4.3594 L37.4062 -4.3594 L37.4062 -8.75 L42.0312 -8.75 Z" stroke="none"/></g><g text-rendering="optimizeLegibility" transform="translate(354.8175,26)" color-rendering="optimizeQuality" color-interpolation="linearRGB" image-rendering="optimizeQuality"><path d="M1.2656 -5.4219 L8.7812 -5.4219 L8.7812 -4.4844 L1.2656 -4.4844 L1.2656 -5.4219 ZM1.2656 -3.0312 L8.7812 -3.0312 L8.7812 -2.0938 L1.2656 -2.0938 L1.2656 -3.0312 Z" stroke="none"/></g><g text-rendering="optimizeLegibility" transform="translate(366.3951,26)" color-rendering="optimizeQuality" color-interpolation="linearRGB" image-rendering="optimizeQuality"><path d="M3.8125 -0.4062 Q4.7188 -0.4062 5.1562 -1.3906 Q5.6094 -2.375 5.6094 -4.3594 Q5.6094 -6.3594 5.1562 -7.3438 Q4.7188 -8.3281 3.8125 -8.3281 Q2.9219 -8.3281 2.4688 -7.3438 Q2.0312 -6.3594 2.0312 -4.3594 Q2.0312 -2.375 2.4688 -1.3906 Q2.9219 -0.4062 3.8125 -0.4062 ZM3.8125 0.1719 Q2.3906 0.1719 1.5938 -1.0156 Q0.7969 -2.2188 0.7969 -4.3594 Q0.7969 -6.5156 1.5938 -7.7031 Q2.3906 -8.9062 3.8125 -8.9062 Q5.25 -8.9062 6.0469 -7.7031 Q6.8438 -6.5156 6.8438 -4.3594 Q6.8438 -2.2188 6.0469 -1.0156 Q5.25 0.1719 3.8125 0.1719 ZM9.125 -0.6094 Q9.125 -0.9375 9.3438 -1.1562 Q9.5781 -1.3906 9.9062 -1.3906 Q10.2344 -1.3906 10.4531 -1.1562 Q10.6875 -0.9375 10.6875 -0.6094 Q10.6875 -0.2812 10.4531 -0.0469 Q10.2344 0.1719 9.9062 0.1719 Q9.5781 0.1719 9.3438 -0.0469 Q9.125 -0.2812 9.125 -0.6094 ZM17.5938 -2.3906 Q17.5938 -3.3281 17.125 -3.8438 Q16.6562 -4.3594 15.8125 -4.3594 Q14.9688 -4.3594 14.5 -3.8438 Q14.0469 -3.3281 14.0469 -2.3906 Q14.0469 -1.4531 14.5 -0.9219 Q14.9688 -0.4062 15.8125 -0.4062 Q16.6562 -0.4062 17.125 -0.9219 Q17.5938 -1.4531 17.5938 -2.3906 ZM17.3438 -6.6406 Q17.3438 -7.4375 16.9375 -7.875 Q16.5469 -8.3281 15.8125 -8.3281 Q15.0938 -8.3281 14.6875 -7.875 Q14.2812 -7.4375 14.2812 -6.6406 Q14.2812 -5.8438 14.6875 -5.3906 Q15.0938 -4.9531 15.8125 -4.9531 Q16.5469 -4.9531 16.9375 -5.3906 Q17.3438 -5.8438 17.3438 -6.6406 ZM16.7188 -4.6562 Q17.7188 -4.5312 18.2656 -3.9219 Q18.8281 -3.3281 18.8281 -2.3906 Q18.8281 -1.1562 18.0469 -0.4844 Q17.2656 0.1719 15.8125 0.1719 Q14.375 0.1719 13.5781 -0.4844 Q12.7969 -1.1562 12.7969 -2.3906 Q12.7969 -3.3281 13.3594 -3.9219 Q13.9219 -4.5312 14.9219 -4.6562 Q14.0312 -4.8125 13.5625 -5.3281 Q13.0938 -5.8438 13.0938 -6.6406 Q13.0938 -7.6875 13.8125 -8.2969 Q14.5469 -8.9062 15.8125 -8.9062 Q17.0938 -8.9062 17.8125 -8.2969 Q18.5469 -7.6875 18.5469 -6.6406 Q18.5469 -5.8438 18.0625 -5.3281 Q17.5938 -4.8125 16.7188 -4.6562 ZM24.1875 -2.9688 L24.1875 -7.625 L21.2031 -2.9688 L24.1875 -2.9688 ZM26.7656 0 L22.7812 0 L22.7812 -0.625 L24.1875 -0.625 L24.1875 -2.3438 L20.375 -2.3438 L20.375 -2.9844 L24.2031 -8.9062 L25.3594 -8.9062 L25.3594 -2.9688 L27.0312 -2.9688 L27.0312 -2.3438 L25.3594 -2.3438 L25.3594 -0.625 L26.7656 -0.625 L26.7656 0 ZM29.1719 -8.375 Q29.8594 -8.6406 30.4844 -8.7656 Q31.1094 -8.9062 31.6562 -8.9062 Q32.9531 -8.9062 33.6719 -8.3438 Q34.3906 -7.7969 34.3906 -6.8125 Q34.3906 -6.0312 33.8906 -5.5 Q33.3906 -4.9688 32.4844 -4.7812 Q33.5625 -4.625 34.1562 -3.9844 Q34.75 -3.3594 34.75 -2.3594 Q34.75 -1.1406 33.9219 -0.4844 Q33.0938 0.1719 31.5469 0.1719 Q30.8594 0.1719 30.2031 0.0156 Q29.5625 -0.125 28.9219 -0.4219 L28.9219 -2.125 L29.5781 -2.125 Q29.625 -1.2812 30.1406 -0.8438 Q30.6562 -0.4062 31.5781 -0.4062 Q32.4688 -0.4062 32.9844 -0.9219 Q33.5156 -1.4531 33.5156 -2.3438 Q33.5156 -3.375 32.9688 -3.9062 Q32.4375 -4.4375 31.4062 -4.4375 L30.8594 -4.4375 L30.8594 -5.0469 L31.1406 -5.0469 Q32.1719 -5.0469 32.6875 -5.4688 Q33.2031 -5.8906 33.2031 -6.75 Q33.2031 -7.5156 32.7812 -7.9219 Q32.3594 -8.3281 31.5625 -8.3281 Q30.7656 -8.3281 30.3281 -7.9531 Q29.9062 -7.5781 29.8281 -6.8438 L29.1719 -6.8438 L29.1719 -8.375 ZM37.1719 -8.375 Q37.8594 -8.6406 38.4844 -8.7656 Q39.1094 -8.9062 39.6562 -8.9062 Q40.9531 -8.9062 41.6719 -8.3438 Q42.3906 -7.7969 42.3906 -6.8125 Q42.3906 -6.0312 41.8906 -5.5 Q41.3906 -4.9688 40.4844 -4.7812 Q41.5625 -4.625 42.1562 -3.9844 Q42.75 -3.3594 42.75 -2.3594 Q42.75 -1.1406 41.9219 -0.4844 Q41.0938 0.1719 39.5469 0.1719 Q38.8594 0.1719 38.2031 0.0156 Q37.5625 -0.125 36.9219 -0.4219 L36.9219 -2.125 L37.5781 -2.125 Q37.625 -1.2812 38.1406 -0.8438 Q38.6562 -0.4062 39.5781 -0.4062 Q40.4688 -0.4062 40.9844 -0.9219 Q41.5156 -1.4531 41.5156 -2.3438 Q41.5156 -3.375 40.9688 -3.9062 Q40.4375 -4.4375 39.4062 -4.4375 L38.8594 -4.4375 L38.8594 -5.0469 L39.1406 -5.0469 Q40.1719 -5.0469 40.6875 -5.4688 Q41.2031 -5.8906 41.2031 -6.75 Q41.2031 -7.5156 40.7812 -7.9219 Q40.3594 -8.3281 39.5625 -8.3281 Q38.7656 -8.3281 38.3281 -7.9531 Q37.9062 -7.5781 37.8281 -6.8438 L37.1719 -6.8438 L37.1719 -8.375 ZM50.7656 -8.1562 L47.3438 0 L46.4688 0 L49.7344 -7.7812 L45.6875 -7.7812 L45.6875 -6.7031 L45.0156 -6.7031 L45.0156 -8.75 L50.7656 -8.75 L50.7656 -8.1562 ZM58.0312 -8.75 L58.0312 -7.7812 L54.0312 -7.7812 L54.0312 -5.2812 Q54.3281 -5.4844 54.7344 -5.5938 Q55.1406 -5.7031 55.6562 -5.7031 Q57.0625 -5.7031 57.875 -4.9062 Q58.7031 -4.125 58.7031 -2.7656 Q58.7031 -1.3906 57.875 -0.6094 Q57.0469 0.1719 55.5469 0.1719 Q54.9531 0.1719 54.3125 0.0156 Q53.6875 -0.125 53.0156 -0.4219 L53.0156 -2.125 L53.6875 -2.125 Q53.7344 -1.2969 54.2031 -0.8438 Q54.6875 -0.4062 55.5469 -0.4062 Q56.4844 -0.4062 56.9688 -1.0156 Q57.4688 -1.625 57.4688 -2.7656 Q57.4688 -3.9062 56.9688 -4.5156 Q56.4844 -5.125 55.5469 -5.125 Q55.0312 -5.125 54.625 -4.9375 Q54.2188 -4.75 53.9062 -4.3594 L53.4062 -4.3594 L53.4062 -8.75 L58.0312 -8.75 Z" stroke="none"/></g></g></svg>