<svg xmlns="http://www.w3.org/2000/svg" xmlns:xlink="http://www.w3.org/1999/xlink" stroke-dasharray="none" shape-rendering="auto" font-family="'Dialog'" width="15" text-rendering="auto" fill-opacity="1" contentScriptType="text/ecmascript" color-interpolation="auto" color-rendering="auto" preserveAspectRatio="xMidYMid meet" font-size="12px" fill="black" stroke="black" image-rendering="auto" stroke-miterlimit="10" zoomAndPan="magnify" version="1.0" stroke-linecap="square" stroke-linejoin="miter" contentStyleType="text/css" font-style="normal" height="12" stroke-width="1" stroke-dashoffset="0" font-weight="normal" stroke-opacity="1"><!--Converted from MathML using JEuclid--><defs id="genericDefs"/><g><g text-rendering="optimizeLegibility" transform="translate(0,9)" color-rendering="optimizeQuality" color-interpolation="linearRGB" image-rendering="optimizeQuality"><path d="M0.3438 -0.4219 L0.7344 -2.4219 L1.4062 -2.4062 Q1.25 -1.4062 1.7031 -0.9219 Q2.1562 -0.4531 3.2656 -0.4531 Q4.3125 -0.4531 4.9375 -0.8594 Q5.5781 -1.2812 5.7188 -2.0781 Q5.8438 -2.7031 5.5781 -3.0469 Q5.3125 -3.3906 4.3125 -3.7031 L3.2344 -4.0625 Q2.0469 -4.4375 1.6406 -5 Q1.25 -5.5781 1.4375 -6.5625 Q1.6562 -7.6719 2.5625 -8.2812 Q3.4688 -8.9062 4.9062 -8.9062 Q5.5156 -8.9062 6.2188 -8.7656 Q6.9219 -8.6406 7.6875 -8.3906 L7.3281 -6.5312 L6.6562 -6.5312 Q6.7344 -7.4531 6.2969 -7.8594 Q5.8594 -8.2812 4.8125 -8.2812 Q3.875 -8.2812 3.3125 -7.9062 Q2.7656 -7.5312 2.625 -6.7969 Q2.5 -6.1719 2.7969 -5.8125 Q3.0938 -5.4688 4.2031 -5.1094 L5.2188 -4.7812 Q6.3438 -4.4375 6.7344 -3.875 Q7.1406 -3.3281 6.9531 -2.3906 Q6.7031 -1.125 5.7656 -0.4688 Q4.8281 0.1719 3.2188 0.1719 Q2.5 0.1719 1.7812 0.0156 Q1.0625 -0.125 0.3438 -0.4219 Z" stroke="none"/></g><g text-rendering="optimizeLegibility" transform="translate(7.6875,11.3828)" color-rendering="optimizeQuality" color-interpolation="linearRGB" image-rendering="optimizeQuality"><path d="M4.9844 -0.9688 Q5.5312 -1.5625 5.6562 -1.7812 Q6.1094 -2.625 6.5625 -3.9688 L5.9219 -3.9688 L6 -4.4219 L7.1094 -4.4219 L7.0312 -3.9688 L7.0156 -3.9688 Q6.5938 -2.4219 6.2031 -1.6875 Q5.5938 -0.625 4.9531 0 L4.3125 0 L3.8594 -3.3125 L2.125 0 L1.5156 0 L0.9844 -3.9688 L0.4844 -3.9688 L0.5625 -4.4219 L1.7031 -4.4219 L2.1719 -0.9688 L3.9844 -4.4219 L4.5156 -4.4219 L4.9844 -0.9688 Z" stroke="none"/></g></g></svg>