<svg xmlns="http://www.w3.org/2000/svg" xmlns:xlink="http://www.w3.org/1999/xlink" stroke-dasharray="none" shape-rendering="auto" font-family="'Dialog'" width="77" text-rendering="auto" fill-opacity="1" contentScriptType="text/ecmascript" color-interpolation="auto" color-rendering="auto" preserveAspectRatio="xMidYMid meet" font-size="12px" fill="black" stroke="black" image-rendering="auto" stroke-miterlimit="10" zoomAndPan="magnify" version="1.0" stroke-linecap="square" stroke-linejoin="miter" contentStyleType="text/css" font-style="normal" height="14" stroke-width="1" stroke-dashoffset="0" font-weight="normal" stroke-opacity="1"><!--Converted from MathML using JEuclid--><defs id="genericDefs"/><g><g text-rendering="optimizeLegibility" transform="translate(0,10)" color-rendering="optimizeQuality" color-interpolation="linearRGB" image-rendering="optimizeQuality"><path d="M1.2969 -5.6094 L0.3438 -5.6094 L0.3438 -6.2344 L1.2969 -6.2344 L1.2969 -8.1562 L2.375 -8.1562 L2.375 -6.2344 L4.4062 -6.2344 L4.4062 -5.6094 L2.375 -5.6094 L2.375 -1.6406 Q2.375 -0.8594 2.5312 -0.625 Q2.6875 -0.4062 3.0938 -0.4062 Q3.5156 -0.4062 3.7031 -0.6562 Q3.9062 -0.9062 3.9219 -1.4688 L4.7344 -1.4688 Q4.6875 -0.6094 4.2656 -0.2188 Q3.8438 0.1719 3 0.1719 Q2.0625 0.1719 1.6719 -0.2344 Q1.2969 -0.6562 1.2969 -1.6406 L1.2969 -5.6094 ZM6.1719 -8.1562 Q6.1719 -8.4375 6.3594 -8.625 Q6.5625 -8.8281 6.8281 -8.8281 Q7.1094 -8.8281 7.2969 -8.625 Q7.5 -8.4375 7.5 -8.1562 Q7.5 -7.8906 7.2969 -7.6875 Q7.1094 -7.5 6.8281 -7.5 Q6.5625 -7.5 6.3594 -7.6875 Q6.1719 -7.8906 6.1719 -8.1562 ZM7.5469 -0.625 L8.5625 -0.625 L8.5625 0 L5.4375 0 L5.4375 -0.625 L6.4688 -0.625 L6.4688 -5.6094 L5.4375 -5.6094 L5.4375 -6.2344 L7.5469 -6.2344 L7.5469 -0.625 ZM11.4688 -0.625 L12.4844 -0.625 L12.4844 0 L9.3438 0 L9.3438 -0.625 L10.3906 -0.625 L10.3906 -8.5 L9.3438 -8.5 L9.3438 -9.125 L11.4688 -9.125 L11.4688 -0.625 ZM14.2969 -5.6094 L13.3438 -5.6094 L13.3438 -6.2344 L14.2969 -6.2344 L14.2969 -8.1562 L15.375 -8.1562 L15.375 -6.2344 L17.4062 -6.2344 L17.4062 -5.6094 L15.375 -5.6094 L15.375 -1.6406 Q15.375 -0.8594 15.5312 -0.625 Q15.6875 -0.4062 16.0938 -0.4062 Q16.5156 -0.4062 16.7031 -0.6562 Q16.9062 -0.9062 16.9219 -1.4688 L17.7344 -1.4688 Q17.6875 -0.6094 17.2656 -0.2188 Q16.8438 0.1719 16 0.1719 Q15.0625 0.1719 14.6719 -0.2344 Q14.2969 -0.6562 14.2969 -1.6406 L14.2969 -5.6094 Z" stroke="none"/></g><g text-rendering="optimizeLegibility" transform="translate(17.7344,13.3047)" color-rendering="optimizeQuality" color-interpolation="linearRGB" image-rendering="optimizeQuality"><path d="M4.4062 -3.5625 Q4.625 -4.0469 4.9688 -4.2969 Q5.3125 -4.5469 5.7812 -4.5469 Q6.4688 -4.5469 6.8125 -4.1094 Q7.1562 -3.6875 7.1562 -2.8125 L7.1562 -0.4375 L7.8438 -0.4375 L7.8438 0 L5.7188 0 L5.7188 -0.4375 L6.3906 -0.4375 L6.3906 -2.7188 Q6.3906 -3.4062 6.1875 -3.6875 Q5.9844 -3.9688 5.5312 -3.9688 Q5.0156 -3.9688 4.75 -3.5781 Q4.4844 -3.2031 4.4844 -2.4688 L4.4844 -0.4375 L5.1406 -0.4375 L5.1406 0 L3.0469 0 L3.0469 -0.4375 L3.7188 -0.4375 L3.7188 -2.75 Q3.7188 -3.4062 3.5156 -3.6875 Q3.3125 -3.9688 2.8594 -3.9688 Q2.3438 -3.9688 2.0625 -3.5781 Q1.7969 -3.2031 1.7969 -2.4688 L1.7969 -0.4375 L2.4688 -0.4375 L2.4688 0 L0.3438 0 L0.3438 -0.4375 L1.0469 -0.4375 L1.0469 -3.9844 L0.3125 -3.9844 L0.3125 -4.4219 L1.7969 -4.4219 L1.7969 -3.6406 Q2.0156 -4.0781 2.3438 -4.3125 Q2.6719 -4.5469 3.0938 -4.5469 Q3.6094 -4.5469 3.9531 -4.2812 Q4.2969 -4.0312 4.4062 -3.5625 ZM9.8281 -5.7969 Q9.8281 -5.9844 9.9688 -6.125 Q10.1094 -6.2656 10.2969 -6.2656 Q10.5 -6.2656 10.625 -6.125 Q10.7656 -5.9844 10.7656 -5.7969 Q10.7656 -5.5938 10.625 -5.4531 Q10.5 -5.3281 10.2969 -5.3281 Q10.1094 -5.3281 9.9688 -5.4531 Q9.8281 -5.5938 9.8281 -5.7969 ZM10.7969 -0.4375 L11.5312 -0.4375 L11.5312 0 L9.3125 0 L9.3125 -0.4375 L10.0469 -0.4375 L10.0469 -3.9688 L9.3125 -3.9688 L9.3125 -4.4219 L10.7969 -4.4219 L10.7969 -0.4375 ZM12.3438 0 L12.3438 -0.4375 L13.0469 -0.4375 L13.0469 -3.9688 L12.3125 -3.9688 L12.3125 -4.4219 L13.7969 -4.4219 L13.7969 -3.6406 Q14.0156 -4.0781 14.3438 -4.3125 Q14.6875 -4.5469 15.1406 -4.5469 Q15.875 -4.5469 16.2188 -4.125 Q16.5625 -3.7031 16.5625 -2.8125 L16.5625 -0.4375 L17.25 -0.4375 L17.25 0 L15.1406 0 L15.1406 -0.4375 L15.7969 -0.4375 L15.7969 -2.5625 Q15.7969 -3.375 15.5938 -3.6719 Q15.3906 -3.9844 14.8906 -3.9844 Q14.3594 -3.9844 14.0781 -3.5938 Q13.7969 -3.2031 13.7969 -2.4688 L13.7969 -0.4375 L14.4688 -0.4375 L14.4688 0 L12.3438 0 Z" stroke="none"/></g><g text-rendering="optimizeLegibility" transform="translate(36.515,10)" color-rendering="optimizeQuality" color-interpolation="linearRGB" image-rendering="optimizeQuality"><path d="M1.2656 -5.4219 L8.7812 -5.4219 L8.7812 -4.4844 L1.2656 -4.4844 L1.2656 -5.4219 ZM1.2656 -3.0312 L8.7812 -3.0312 L8.7812 -2.0938 L1.2656 -2.0938 L1.2656 -3.0312 Z" stroke="none"/></g><g text-rendering="optimizeLegibility" transform="translate(48.0926,10)" color-rendering="optimizeQuality" color-interpolation="linearRGB" image-rendering="optimizeQuality"><path d="M0.5312 -3.6719 L3.5312 -3.6719 L3.5312 -2.7656 L0.5312 -2.7656 L0.5312 -3.6719 ZM5.7031 0 L5.7031 -0.625 L7.2344 -0.625 L7.2344 -7.9062 L5.4688 -6.75 L5.4688 -7.5312 L7.5938 -8.9062 L8.4062 -8.9062 L8.4062 -0.625 L9.9375 -0.625 L9.9375 0 L5.7031 0 ZM18.0312 -8.75 L18.0312 -7.7812 L14.0312 -7.7812 L14.0312 -5.2812 Q14.3281 -5.4844 14.7344 -5.5938 Q15.1406 -5.7031 15.6562 -5.7031 Q17.0625 -5.7031 17.875 -4.9062 Q18.7031 -4.125 18.7031 -2.7656 Q18.7031 -1.3906 17.875 -0.6094 Q17.0469 0.1719 15.5469 0.1719 Q14.9531 0.1719 14.3125 0.0156 Q13.6875 -0.125 13.0156 -0.4219 L13.0156 -2.125 L13.6875 -2.125 Q13.7344 -1.2969 14.2031 -0.8438 Q14.6875 -0.4062 15.5469 -0.4062 Q16.4844 -0.4062 16.9688 -1.0156 Q17.4688 -1.625 17.4688 -2.7656 Q17.4688 -3.9062 16.9688 -4.5156 Q16.4844 -5.125 15.5469 -5.125 Q15.0312 -5.125 14.625 -4.9375 Q14.2188 -4.75 13.9062 -4.3594 L13.4062 -4.3594 L13.4062 -8.75 L18.0312 -8.75 Z" stroke="none"/></g><g text-rendering="optimizeLegibility" transform="translate(68.4514,10)" color-rendering="optimizeQuality" color-interpolation="linearRGB" image-rendering="optimizeQuality"><path d="M3 -8.0938 Q2.5625 -8.0938 2.25 -7.7812 Q1.9531 -7.4844 1.9531 -7.0312 Q1.9531 -6.5938 2.25 -6.2812 Q2.5469 -5.9844 3 -5.9844 Q3.4531 -5.9844 3.75 -6.2812 Q4.0625 -6.5938 4.0625 -7.0312 Q4.0625 -7.4688 3.75 -7.7812 Q3.4375 -8.0938 3 -8.0938 ZM3 -8.9062 Q3.375 -8.9062 3.7188 -8.7656 Q4.0625 -8.625 4.3125 -8.3438 Q4.5938 -8.0938 4.7188 -7.75 Q4.8594 -7.4219 4.8594 -7.0312 Q4.8594 -6.2656 4.3125 -5.7188 Q3.7812 -5.1875 2.9844 -5.1875 Q2.2031 -5.1875 1.6719 -5.7031 Q1.1406 -6.2344 1.1406 -7.0312 Q1.1406 -7.8125 1.6719 -8.3594 Q2.2188 -8.9062 3 -8.9062 Z" stroke="none"/></g></g></svg>