<svg xmlns="http://www.w3.org/2000/svg" xmlns:xlink="http://www.w3.org/1999/xlink" stroke-dasharray="none" shape-rendering="auto" font-family="'Dialog'" width="104" text-rendering="auto" fill-opacity="1" contentScriptType="text/ecmascript" color-interpolation="auto" color-rendering="auto" preserveAspectRatio="xMidYMid meet" font-size="12px" fill="black" stroke="black" image-rendering="auto" stroke-miterlimit="10" zoomAndPan="magnify" version="1.0" stroke-linecap="square" stroke-linejoin="miter" contentStyleType="text/css" font-style="normal" height="25" stroke-width="1" stroke-dashoffset="0" font-weight="normal" stroke-opacity="1"><!--Converted from MathML using JEuclid--><defs id="genericDefs"/><g><g text-rendering="optimizeLegibility" transform="translate(0,17)" color-rendering="optimizeQuality" color-interpolation="linearRGB" image-rendering="optimizeQuality"><path d="M4.875 -1.5312 L4.5156 -0.8906 Q4.2344 -0.3906 3.6094 -0.0625 Q3.2188 0.1406 2.6094 0.1406 Q2.5781 0.1406 2.5625 0.1406 Q1.4062 0.1406 0.875 -0.7656 Q0.5 -1.3594 0.5 -2.2031 Q0.5 -2.6406 0.6094 -3.1406 Q0.8906 -4.5781 1.7812 -5.5156 Q2.6406 -6.3906 4.0781 -6.3906 Q5.0938 -6.3906 5.5156 -6 Q5.8906 -5.6562 5.9219 -4.9062 L5.9219 -4.6875 L6.2812 -5.3281 Q6.6094 -5.9531 7.2656 -6.25 L7.8594 -6.25 L7.7969 -5.9062 Q7.2031 -5.7344 6.8906 -5.1875 L5.9531 -3.5156 L6.0312 -1.7188 Q6.0469 -0.7969 6.2656 -0.7031 Q6.3281 -0.6719 6.4375 -0.6719 Q6.75 -0.6719 7.3594 -1 L7.2344 -0.2812 Q6.5781 0.0469 6.0781 0.0469 Q5.5625 0.0469 5.2031 -0.3125 Q4.8906 -0.6406 4.875 -1.125 L4.875 -1.5312 ZM4.8438 -2.6875 L4.8125 -4.4062 Q4.7812 -5.7812 3.9688 -5.7812 Q3.3125 -5.7812 2.6562 -5.0625 Q2.125 -4.4844 1.8594 -3.125 Q1.7344 -2.5312 1.7344 -2.0625 Q1.7344 -1.5312 1.9062 -1.1719 Q2.2031 -0.5 2.9062 -0.5 Q3.6875 -0.5 4.4688 -2 L4.8438 -2.6875 Z" stroke="none"/></g><g text-rendering="optimizeLegibility" transform="translate(9.39,17)" color-rendering="optimizeQuality" color-interpolation="linearRGB" image-rendering="optimizeQuality"><path d="M1.2656 -5.4219 L8.7812 -5.4219 L8.7812 -4.4844 L1.2656 -4.4844 L1.2656 -5.4219 ZM1.2656 -3.0312 L8.7812 -3.0312 L8.7812 -2.0938 L1.2656 -2.0938 L1.2656 -3.0312 Z" stroke="none"/></g><g text-rendering="optimizeLegibility" transform="translate(20.9676,17)" color-rendering="optimizeQuality" color-interpolation="linearRGB" image-rendering="optimizeQuality"><path d="M1.5312 -6.6562 L0.875 -6.6562 L0.875 -8.2188 Q1.5 -8.5625 2.1406 -8.7344 Q2.7812 -8.9062 3.3906 -8.9062 Q4.75 -8.9062 5.5312 -8.2344 Q6.3281 -7.5781 6.3281 -6.4531 Q6.3281 -5.1562 4.5469 -3.375 Q4.4062 -3.2344 4.3281 -3.1719 L2.125 -0.9688 L5.7656 -0.9688 L5.7656 -2.0469 L6.4531 -2.0469 L6.4531 0 L0.8125 0 L0.8125 -0.6406 L3.4688 -3.2812 Q4.3438 -4.1719 4.7188 -4.9062 Q5.0938 -5.6406 5.0938 -6.4531 Q5.0938 -7.3281 4.625 -7.8281 Q4.1719 -8.3281 3.375 -8.3281 Q2.5312 -8.3281 2.0781 -7.9062 Q1.625 -7.5 1.5312 -6.6562 Z" stroke="none"/></g><g text-rendering="optimizeLegibility" transform="translate(28.9514,17)" color-rendering="optimizeQuality" color-interpolation="linearRGB" image-rendering="optimizeQuality"><path d="M1.2656 -4.1719 Q1.2656 -4.5 1.4844 -4.7188 Q1.7188 -4.9531 2.0625 -4.9531 Q2.375 -4.9531 2.6094 -4.7188 Q2.8438 -4.4844 2.8438 -4.1719 Q2.8438 -3.8438 2.6094 -3.6094 Q2.375 -3.3906 2.0625 -3.3906 Q1.7188 -3.3906 1.4844 -3.6094 Q1.2656 -3.8281 1.2656 -4.1719 Z" stroke="none"/></g><g text-rendering="optimizeLegibility" transform="translate(34.5914,17)" color-rendering="optimizeQuality" color-interpolation="linearRGB" image-rendering="optimizeQuality"><path d="M4.7812 -1.9531 L4.7812 -3.2812 L3.3906 -3.2812 Q2.5781 -3.2812 2.1875 -2.9219 Q1.7969 -2.5781 1.7969 -1.875 Q1.7969 -1.2188 2.1875 -0.8281 Q2.5938 -0.4531 3.2812 -0.4531 Q3.9531 -0.4531 4.3594 -0.875 Q4.7812 -1.2969 4.7812 -1.9531 ZM5.8594 -3.8906 L5.8594 -0.625 L6.8125 -0.625 L6.8125 0 L4.7812 0 L4.7812 -0.6719 Q4.4219 -0.2344 3.9531 -0.0312 Q3.4844 0.1719 2.8594 0.1719 Q1.8125 0.1719 1.2031 -0.375 Q0.5938 -0.9375 0.5938 -1.875 Q0.5938 -2.8438 1.2969 -3.375 Q2 -3.9062 3.2656 -3.9062 L4.7812 -3.9062 L4.7812 -4.3281 Q4.7812 -5.0469 4.3438 -5.4219 Q3.9219 -5.8125 3.1406 -5.8125 Q2.4844 -5.8125 2.1094 -5.5156 Q1.7344 -5.2344 1.6406 -4.6562 L1.0781 -4.6562 L1.0781 -5.9219 Q1.6406 -6.1562 2.1719 -6.2812 Q2.7031 -6.4062 3.2031 -6.4062 Q4.5 -6.4062 5.1719 -5.75 Q5.8594 -5.1094 5.8594 -3.8906 ZM12.7344 -6.2344 L12.7344 -4.6875 L12.1094 -4.6875 Q12.0938 -5.1406 11.8594 -5.375 Q11.625 -5.6094 11.1875 -5.6094 Q10.3906 -5.6094 9.9688 -5.0469 Q9.5469 -4.5 9.5469 -3.4688 L9.5469 -0.625 L10.7969 -0.625 L10.7969 0 L7.5 0 L7.5 -0.625 L8.4688 -0.625 L8.4688 -5.6094 L7.4375 -5.6094 L7.4375 -6.2344 L9.5469 -6.2344 L9.5469 -5.125 Q9.8594 -5.7656 10.3594 -6.0781 Q10.8594 -6.4062 11.5781 -6.4062 Q11.8281 -6.4062 12.125 -6.3594 Q12.4219 -6.3125 12.7344 -6.2344 ZM19.1719 -1.875 Q18.9375 -0.875 18.2812 -0.3438 Q17.6406 0.1719 16.6094 0.1719 Q15.25 0.1719 14.4219 -0.7188 Q13.5938 -1.625 13.5938 -3.125 Q13.5938 -4.6094 14.4219 -5.5 Q15.25 -6.4062 16.6094 -6.4062 Q17.2031 -6.4062 17.7812 -6.2656 Q18.375 -6.125 18.9688 -5.8438 L18.9688 -4.25 L18.3438 -4.25 Q18.2188 -5.0625 17.7969 -5.4375 Q17.3906 -5.8125 16.625 -5.8125 Q15.75 -5.8125 15.2969 -5.1406 Q14.8594 -4.4688 14.8594 -3.125 Q14.8594 -1.7656 15.2969 -1.0781 Q15.75 -0.4062 16.625 -0.4062 Q17.3125 -0.4062 17.7344 -0.7656 Q18.1562 -1.1406 18.2969 -1.875 L19.1719 -1.875 ZM21.2969 -5.6094 L20.3438 -5.6094 L20.3438 -6.2344 L21.2969 -6.2344 L21.2969 -8.1562 L22.375 -8.1562 L22.375 -6.2344 L24.4062 -6.2344 L24.4062 -5.6094 L22.375 -5.6094 L22.375 -1.6406 Q22.375 -0.8594 22.5312 -0.625 Q22.6875 -0.4062 23.0938 -0.4062 Q23.5156 -0.4062 23.7031 -0.6562 Q23.9062 -0.9062 23.9219 -1.4688 L24.7344 -1.4688 Q24.6875 -0.6094 24.2656 -0.2188 Q23.8438 0.1719 23 0.1719 Q22.0625 0.1719 21.6719 -0.2344 Q21.2969 -0.6562 21.2969 -1.6406 L21.2969 -5.6094 ZM29.7812 -1.9531 L29.7812 -3.2812 L28.3906 -3.2812 Q27.5781 -3.2812 27.1875 -2.9219 Q26.7969 -2.5781 26.7969 -1.875 Q26.7969 -1.2188 27.1875 -0.8281 Q27.5938 -0.4531 28.2812 -0.4531 Q28.9531 -0.4531 29.3594 -0.875 Q29.7812 -1.2969 29.7812 -1.9531 ZM30.8594 -3.8906 L30.8594 -0.625 L31.8125 -0.625 L31.8125 0 L29.7812 0 L29.7812 -0.6719 Q29.4219 -0.2344 28.9531 -0.0312 Q28.4844 0.1719 27.8594 0.1719 Q26.8125 0.1719 26.2031 -0.375 Q25.5938 -0.9375 25.5938 -1.875 Q25.5938 -2.8438 26.2969 -3.375 Q27 -3.9062 28.2656 -3.9062 L29.7812 -3.9062 L29.7812 -4.3281 Q29.7812 -5.0469 29.3438 -5.4219 Q28.9219 -5.8125 28.1406 -5.8125 Q27.4844 -5.8125 27.1094 -5.5156 Q26.7344 -5.2344 26.6406 -4.6562 L26.0781 -4.6562 L26.0781 -5.9219 Q26.6406 -6.1562 27.1719 -6.2812 Q27.7031 -6.4062 28.2031 -6.4062 Q29.5 -6.4062 30.1719 -5.75 Q30.8594 -5.1094 30.8594 -3.8906 ZM32.5 0 L32.5 -0.625 L33.4688 -0.625 L33.4688 -5.6094 L32.4375 -5.6094 L32.4375 -6.2344 L34.5469 -6.2344 L34.5469 -5.125 Q34.8438 -5.75 35.3125 -6.0781 Q35.7969 -6.4062 36.4375 -6.4062 Q37.4688 -6.4062 37.9531 -5.8125 Q38.4375 -5.2188 38.4375 -3.9688 L38.4375 -0.625 L39.3906 -0.625 L39.3906 0 L36.4219 0 L36.4219 -0.625 L37.3438 -0.625 L37.3438 -3.625 Q37.3438 -4.7656 37.0625 -5.1875 Q36.7812 -5.6094 36.0781 -5.6094 Q35.3281 -5.6094 34.9375 -5.0625 Q34.5469 -4.5156 34.5469 -3.4688 L34.5469 -0.625 L35.4844 -0.625 L35.4844 0 L32.5 0 Z" stroke="none"/></g><g text-rendering="optimizeLegibility" transform="translate(73.0289,20.302) matrix(1,0,0,2.1688,0,0)" color-rendering="optimizeQuality" color-interpolation="linearRGB" image-rendering="optimizeQuality"><path d="M3.8281 1.875 Q2.4062 1.2344 1.6719 -0.1562 Q0.9531 -1.5469 0.9531 -3.625 Q0.9531 -5.7031 1.6719 -7.0938 Q2.4062 -8.4844 3.8281 -9.125 L3.8281 -8.5469 Q2.9219 -7.9219 2.5312 -6.7969 Q2.1406 -5.6719 2.1406 -3.625 Q2.1406 -1.5781 2.5312 -0.4531 Q2.9219 0.6719 3.8281 1.2969 L3.8281 1.875 Z" stroke="none"/></g><g text-rendering="optimizeLegibility" color-rendering="optimizeQuality" color-interpolation="linearRGB" image-rendering="optimizeQuality"><line y2="12.44" fill="none" x1="77.8637" x2="92.8169" y1="12.44"/><path d="M5.1094 -6.4688 L3.8594 0 L3.0938 0 L3.2188 -0.6875 Q2.9219 -0.2812 2.5312 -0.0781 Q2.1406 0.125 1.6406 0.125 Q0.8125 0.125 0.4219 -0.5312 Q0.1719 -0.9531 0.1719 -1.5469 Q0.1719 -1.8594 0.2344 -2.2188 Q0.4375 -3.25 1.0781 -3.8906 Q1.7188 -4.5469 2.5469 -4.5469 Q3.0469 -4.5469 3.3594 -4.3438 Q3.6719 -4.1406 3.8125 -3.7344 L4.2656 -6.0312 L3.5312 -6.0312 L3.625 -6.4688 L5.1094 -6.4688 ZM3.4688 -1.9844 L3.5625 -2.4219 Q3.625 -2.75 3.625 -3.0156 Q3.625 -3.3906 3.4844 -3.6406 Q3.2656 -4.0625 2.6875 -4.0625 Q2.0938 -4.0625 1.7031 -3.5938 Q1.3125 -3.125 1.125 -2.2188 Q1.0469 -1.7969 1.0469 -1.4688 Q1.0469 -1.0781 1.1719 -0.8281 Q1.375 -0.3594 1.9688 -0.3594 Q2.5469 -0.3594 2.9219 -0.7656 Q3.3125 -1.1875 3.4688 -1.9844 Z" transform="translate(82.7856,10.8083)" stroke="none"/></g><g text-rendering="optimizeLegibility" transform="translate(77.8637,20.4154)" color-rendering="optimizeQuality" color-interpolation="linearRGB" image-rendering="optimizeQuality"><path d="M1.0938 -4.7344 L0.625 -4.7344 L0.625 -5.8281 Q1.0625 -6.0781 1.5156 -6.1875 Q1.9688 -6.3125 2.4062 -6.3125 Q3.375 -6.3125 3.9375 -5.8438 Q4.5 -5.375 4.5 -4.5781 Q4.5 -3.6562 3.2188 -2.3906 Q3.125 -2.2969 3.0781 -2.25 L1.5 -0.6875 L4.0938 -0.6875 L4.0938 -1.4531 L4.5781 -1.4531 L4.5781 0 L0.5781 0 L0.5781 -0.4531 L2.4688 -2.3281 Q3.0781 -2.9531 3.3438 -3.4688 Q3.625 -4 3.625 -4.5781 Q3.625 -5.2031 3.2969 -5.5469 Q2.9688 -5.9062 2.3906 -5.9062 Q1.7969 -5.9062 1.4688 -5.6094 Q1.1406 -5.3125 1.0938 -4.7344 Z" stroke="none"/></g><g text-rendering="optimizeLegibility" transform="translate(81.5356,20.4154)" color-rendering="optimizeQuality" color-interpolation="linearRGB" image-rendering="optimizeQuality"><path d="M0.9062 -2.9531 Q0.9062 -3.1875 1.0625 -3.3438 Q1.2188 -3.5156 1.4531 -3.5156 Q1.6875 -3.5156 1.8438 -3.3438 Q2.0156 -3.1875 2.0156 -2.9531 Q2.0156 -2.7188 1.8438 -2.5625 Q1.6875 -2.4062 1.4531 -2.4062 Q1.2188 -2.4062 1.0625 -2.5625 Q0.9062 -2.7188 0.9062 -2.9531 Z" stroke="none"/></g><g text-rendering="optimizeLegibility" transform="translate(84.0825,20.4154)" color-rendering="optimizeQuality" color-interpolation="linearRGB" image-rendering="optimizeQuality"><path d="M4.2344 -5.4219 L3.8438 -5.4219 Q3.8594 -5.5156 3.8594 -5.5938 Q3.8594 -5.7812 3.75 -5.9062 Q3.6094 -6.0625 3.2812 -6.0625 Q2.8594 -6.0625 2.6406 -5.8281 Q2.4219 -5.5938 2.2969 -4.9844 L2.1875 -4.4219 L3.4219 -4.4219 L3.3281 -3.9688 L2.0938 -3.9688 L1.2812 0.2812 Q1.125 1.0156 0.6719 1.3906 Q0.2188 1.7656 -0.5312 1.7656 L-0.4844 1.3594 Q-0.0469 1.3594 0.1719 1.125 Q0.3906 0.875 0.5156 0.2812 L1.3281 -3.9688 L0.6094 -3.9688 L0.6875 -4.4219 L1.4219 -4.4219 L1.5312 -4.9688 Q1.6719 -5.7188 2.1406 -6.0938 Q2.5938 -6.4688 3.3281 -6.4688 Q3.6094 -6.4688 3.875 -6.4219 Q4.1562 -6.375 4.4062 -6.2656 L4.2344 -5.4219 Z" stroke="none"/></g><g text-rendering="optimizeLegibility" transform="translate(88.4887,24.2592)" color-rendering="optimizeQuality" color-interpolation="linearRGB" image-rendering="optimizeQuality"><path d="M3.9531 -1.25 Q3.6719 -0.5781 3.1719 -0.2344 Q2.6719 0.1094 1.9844 0.1094 Q1.0781 0.1094 0.6406 -0.4844 Q0.3438 -0.9062 0.3438 -1.5 Q0.3438 -1.7812 0.4062 -2.0781 Q0.5938 -3.0781 1.25 -3.6719 Q1.9219 -4.2656 2.8281 -4.2656 Q3.2344 -4.2656 3.5938 -4.1719 Q3.9688 -4.0781 4.3281 -3.8906 L4.125 -2.8281 L3.7031 -2.8281 Q3.7031 -2.8906 3.7031 -2.9375 Q3.7031 -3.4062 3.5 -3.625 Q3.2812 -3.875 2.7656 -3.875 Q2.1875 -3.875 1.7969 -3.4219 Q1.4219 -2.9844 1.2344 -2.0781 Q1.1562 -1.6719 1.1562 -1.3438 Q1.1562 -0.9688 1.2656 -0.7344 Q1.4844 -0.2812 2.0625 -0.2812 Q2.5312 -0.2812 2.8438 -0.5156 Q3.1719 -0.7656 3.375 -1.25 L3.9531 -1.25 Z" stroke="none"/></g><g text-rendering="optimizeLegibility" transform="translate(93.9798,20.302) matrix(1,0,0,2.1688,0,0)" color-rendering="optimizeQuality" color-interpolation="linearRGB" image-rendering="optimizeQuality"><path d="M0.8438 1.875 L0.8438 1.2969 Q1.75 0.6719 2.1406 -0.4531 Q2.5469 -1.5781 2.5469 -3.625 Q2.5469 -5.6719 2.1406 -6.7969 Q1.75 -7.9219 0.8438 -8.5469 L0.8438 -9.125 Q2.2812 -8.4844 3 -7.0938 Q3.7344 -5.7031 3.7344 -3.625 Q3.7344 -1.5469 3 -0.1562 Q2.2812 1.2344 0.8438 1.875 Z" stroke="none"/></g><g text-rendering="optimizeLegibility" transform="translate(97.2767,17)" color-rendering="optimizeQuality" color-interpolation="linearRGB" image-rendering="optimizeQuality"><path d="M0.4375 1.1719 Q0.9844 0.7656 1.2344 0.2188 Q1.5 -0.3281 1.5 -1.1094 L1.5 -1.3281 L2.6562 -1.3281 Q2.6094 -0.3281 2.1875 0.3906 Q1.7656 1.1094 0.9062 1.6406 L0.4375 1.1719 Z" stroke="none"/></g></g></svg>