<svg xmlns="http://www.w3.org/2000/svg" xmlns:xlink="http://www.w3.org/1999/xlink" stroke-dasharray="none" shape-rendering="auto" font-family="'Dialog'" width="21" text-rendering="auto" fill-opacity="1" contentScriptType="text/ecmascript" color-interpolation="auto" color-rendering="auto" preserveAspectRatio="xMidYMid meet" font-size="12px" fill="black" stroke="black" image-rendering="auto" stroke-miterlimit="10" zoomAndPan="magnify" version="1.0" stroke-linecap="square" stroke-linejoin="miter" contentStyleType="text/css" font-style="normal" height="12" stroke-width="1" stroke-dashoffset="0" font-weight="normal" stroke-opacity="1"><!--Converted from MathML using JEuclid--><defs id="genericDefs"/><g><g text-rendering="optimizeLegibility" transform="translate(0,9)" color-rendering="optimizeQuality" color-interpolation="linearRGB" image-rendering="optimizeQuality"><path d="M8.2969 0 L7.3438 0 L6.7188 -7.1094 L3.3281 0 L2.375 0 L1.6562 -8.125 L0.7812 -8.125 L0.9062 -8.75 L4.1094 -8.75 L3.9844 -8.125 L2.8906 -8.125 L3.4531 -1.6562 L6.8281 -8.75 L7.7812 -8.75 L8.4062 -1.5781 L11.5156 -8.125 L10.5 -8.125 L10.625 -8.75 L13.1562 -8.75 L13.0312 -8.125 L12.1719 -8.125 L8.2969 0 Z" stroke="none"/></g><g text-rendering="optimizeLegibility" transform="translate(13.1562,11.2109)" color-rendering="optimizeQuality" color-interpolation="linearRGB" image-rendering="optimizeQuality"><path d="M4.9844 -0.9688 Q5.5312 -1.5625 5.6562 -1.7812 Q6.1094 -2.625 6.5625 -3.9688 L5.9219 -3.9688 L6 -4.4219 L7.1094 -4.4219 L7.0312 -3.9688 L7.0156 -3.9688 Q6.5938 -2.4219 6.2031 -1.6875 Q5.5938 -0.625 4.9531 0 L4.3125 0 L3.8594 -3.3125 L2.125 0 L1.5156 0 L0.9844 -3.9688 L0.4844 -3.9688 L0.5625 -4.4219 L1.7031 -4.4219 L2.1719 -0.9688 L3.9844 -4.4219 L4.5156 -4.4219 L4.9844 -0.9688 Z" stroke="none"/></g></g></svg>