<svg xmlns="http://www.w3.org/2000/svg" xmlns:xlink="http://www.w3.org/1999/xlink" stroke-dasharray="none" shape-rendering="auto" font-family="'Dialog'" width="34" text-rendering="auto" fill-opacity="1" contentScriptType="text/ecmascript" color-interpolation="auto" color-rendering="auto" preserveAspectRatio="xMidYMid meet" font-size="12px" fill="black" stroke="black" image-rendering="auto" stroke-miterlimit="10" zoomAndPan="magnify" version="1.0" stroke-linecap="square" stroke-linejoin="miter" contentStyleType="text/css" font-style="normal" height="21" stroke-width="1" stroke-dashoffset="0" font-weight="normal" stroke-opacity="1"><!--Converted from MathML using JEuclid--><defs id="genericDefs"/><g><g text-rendering="optimizeLegibility" transform="translate(-0.9531,17.2867) matrix(1,0,0,1.8887,0,0)" color-rendering="optimizeQuality" color-interpolation="linearRGB" image-rendering="optimizeQuality"><path d="M3.8281 1.875 Q2.4062 1.2344 1.6719 -0.1562 Q0.9531 -1.5469 0.9531 -3.625 Q0.9531 -5.7031 1.6719 -7.0938 Q2.4062 -8.4844 3.8281 -9.125 L3.8281 -8.5469 Q2.9219 -7.9219 2.5312 -6.7969 Q2.1406 -5.6719 2.1406 -3.625 Q2.1406 -1.5781 2.5312 -0.4531 Q2.9219 0.6719 3.8281 1.2969 L3.8281 1.875 Z" stroke="none"/></g><g text-rendering="optimizeLegibility" transform="translate(2.875,15)" color-rendering="optimizeQuality" color-interpolation="linearRGB" image-rendering="optimizeQuality"><path d="M0.7656 0 L0.0312 0 L2.7812 -2.9844 L1.4062 -5.6094 L0.6406 -5.6094 L0.75 -6.2344 L2.3281 -6.2344 L3.625 -3.7969 L5.8594 -6.2344 L6.5938 -6.2344 L3.8906 -3.2969 L5.3281 -0.625 L6.1406 -0.625 L6.0156 0 L4.3906 0 L3.0625 -2.4844 L0.7656 0 Z" stroke="none"/></g><g text-rendering="optimizeLegibility" transform="translate(9.4688,18.1562)" color-rendering="optimizeQuality" color-interpolation="linearRGB" image-rendering="optimizeQuality"><path d="M1.2031 0 L1.2031 -0.4375 L2.2969 -0.4375 L2.2969 -5.6094 L1.0469 -4.7969 L1.0469 -5.3438 L2.5469 -6.3125 L3.125 -6.3125 L3.125 -0.4375 L4.2031 -0.4375 L4.2031 0 L1.2031 0 Z" stroke="none"/></g><g text-rendering="optimizeLegibility" transform="translate(13.2344,15)" color-rendering="optimizeQuality" color-interpolation="linearRGB" image-rendering="optimizeQuality"><path d="M0.4375 1.1719 Q0.9844 0.7656 1.2344 0.2188 Q1.5 -0.3281 1.5 -1.1094 L1.5 -1.3281 L2.6562 -1.3281 Q2.6094 -0.3281 2.1875 0.3906 Q1.7656 1.1094 0.9062 1.6406 L0.4375 1.1719 Z" stroke="none"/></g><g text-rendering="optimizeLegibility" transform="translate(19.6993,15)" color-rendering="optimizeQuality" color-interpolation="linearRGB" image-rendering="optimizeQuality"><path d="M6.9062 -6.1719 Q6.3281 -2.8281 5.2969 -1.0625 Q3.8125 1.5469 2.6094 2.3281 Q2.0781 2.6719 0.6719 2.6719 Q0.3906 2.6719 0.1094 2.625 Q-0.1719 2.5781 -0.4531 2.4844 L-0.2188 1.2969 L0.3438 1.2969 Q0.3281 1.3906 0.3281 1.4844 Q0.3281 1.7188 0.4375 1.8594 Q0.5781 2.0625 0.9688 2.0625 Q2 2.0625 2.8906 1.1719 L1.4219 -5.6094 L0.7031 -5.6094 L0.8281 -6.2344 L2.4375 -6.2344 L3.8281 -0.0469 Q4.7656 -1.4531 5 -2.0469 Q5.7344 -3.8594 5.8906 -5.5469 L5.1719 -5.5469 L5.2969 -6.1719 L6.9062 -6.1719 Z" stroke="none"/></g><g text-rendering="optimizeLegibility" transform="translate(26.6056,20.8281)" color-rendering="optimizeQuality" color-interpolation="linearRGB" image-rendering="optimizeQuality"><path d="M1.2031 0 L1.2031 -0.4375 L2.2969 -0.4375 L2.2969 -5.6094 L1.0469 -4.7969 L1.0469 -5.3438 L2.5469 -6.3125 L3.125 -6.3125 L3.125 -0.4375 L4.2031 -0.4375 L4.2031 0 L1.2031 0 Z" stroke="none"/></g><g text-rendering="optimizeLegibility" transform="translate(29.9649,17.2867) matrix(1,0,0,1.8887,0,0)" color-rendering="optimizeQuality" color-interpolation="linearRGB" image-rendering="optimizeQuality"><path d="M0.8438 1.875 L0.8438 1.2969 Q1.75 0.6719 2.1406 -0.4531 Q2.5469 -1.5781 2.5469 -3.625 Q2.5469 -5.6719 2.1406 -6.7969 Q1.75 -7.9219 0.8438 -8.5469 L0.8438 -9.125 Q2.2812 -8.4844 3 -7.0938 Q3.7344 -5.7031 3.7344 -3.625 Q3.7344 -1.5469 3 -0.1562 Q2.2812 1.2344 0.8438 1.875 Z" stroke="none"/></g></g></svg>