<svg xmlns="http://www.w3.org/2000/svg" xmlns:xlink="http://www.w3.org/1999/xlink" stroke-dasharray="none" shape-rendering="auto" font-family="'Dialog'" width="44" text-rendering="auto" fill-opacity="1" contentScriptType="text/ecmascript" color-interpolation="auto" color-rendering="auto" preserveAspectRatio="xMidYMid meet" font-size="12px" fill="black" stroke="black" image-rendering="auto" stroke-miterlimit="10" zoomAndPan="magnify" version="1.0" stroke-linecap="square" stroke-linejoin="miter" contentStyleType="text/css" font-style="normal" height="26" stroke-width="1" stroke-dashoffset="0" font-weight="normal" stroke-opacity="1"><!--Converted from MathML using JEuclid--><defs id="genericDefs"/><g><g text-rendering="optimizeLegibility" transform="translate(0.1875,17)" color-rendering="optimizeQuality" color-interpolation="linearRGB" image-rendering="optimizeQuality"><path d="M-0.1875 0 L-0.0781 -0.625 L1.0469 -0.625 L2.5 -8.125 L1.3281 -8.125 L1.4531 -8.75 L4 -8.75 L5.8594 -2.5156 L10.1406 -8.75 L12.5312 -8.75 L12.4062 -8.125 L11.2344 -8.125 L9.7812 -0.625 L10.9062 -0.625 L10.7812 0 L7.3594 0 L7.4844 -0.625 L8.5938 -0.625 L9.9062 -7.3906 L5.7188 -1.2812 L4.8906 -1.2812 L3.0781 -7.3906 L1.7656 -0.625 L2.875 -0.625 L2.7656 0 L-0.1875 0 Z" stroke="none"/></g><g text-rendering="optimizeLegibility" transform="translate(14.2494,17)" color-rendering="optimizeQuality" color-interpolation="linearRGB" image-rendering="optimizeQuality"><path d="M1.2656 -5.4219 L8.7812 -5.4219 L8.7812 -4.4844 L1.2656 -4.4844 L1.2656 -5.4219 ZM1.2656 -3.0312 L8.7812 -3.0312 L8.7812 -2.0938 L1.2656 -2.0938 L1.2656 -3.0312 Z" stroke="none"/></g><g text-rendering="optimizeLegibility" color-rendering="optimizeQuality" color-interpolation="linearRGB" image-rendering="optimizeQuality"><line y2="12.44" fill="none" x1="26.8336" x2="36.3336" y1="12.44"/><path d="M4.2344 -5.4219 L3.8438 -5.4219 Q3.8594 -5.5156 3.8594 -5.5938 Q3.8594 -5.7812 3.75 -5.9062 Q3.6094 -6.0625 3.2812 -6.0625 Q2.8594 -6.0625 2.6406 -5.8281 Q2.4219 -5.5938 2.2969 -4.9844 L2.1875 -4.4219 L3.4219 -4.4219 L3.3281 -3.9688 L2.0938 -3.9688 L1.2812 0.2812 Q1.125 1.0156 0.6719 1.3906 Q0.2188 1.7656 -0.5312 1.7656 L-0.4844 1.3594 Q-0.0469 1.3594 0.1719 1.125 Q0.3906 0.875 0.5156 0.2812 L1.3281 -3.9688 L0.6094 -3.9688 L0.6875 -4.4219 L1.4219 -4.4219 L1.5312 -4.9688 Q1.6719 -5.7188 2.1406 -6.0938 Q2.5938 -6.4688 3.3281 -6.4688 Q3.6094 -6.4688 3.875 -6.4219 Q4.1562 -6.375 4.4062 -6.2656 L4.2344 -5.4219 Z" transform="translate(27.5915,6.9802)" stroke="none"/></g><g text-rendering="optimizeLegibility" transform="translate(31.9977,10.824)" color-rendering="optimizeQuality" color-interpolation="linearRGB" image-rendering="optimizeQuality"><path d="M4.1094 -1.25 Q3.9688 -0.5781 3.5312 -0.2344 Q3.0938 0.1094 2.4062 0.1094 Q1.5 0.1094 0.9531 -0.4844 Q0.4062 -1.0938 0.4062 -2.0781 Q0.4062 -3.0781 0.9531 -3.6719 Q1.5 -4.2656 2.4062 -4.2656 Q2.7969 -4.2656 3.1875 -4.1719 Q3.5781 -4.0781 3.9844 -3.8906 L3.9844 -2.8281 L3.5625 -2.8281 Q3.4844 -3.375 3.2031 -3.625 Q2.9219 -3.875 2.4219 -3.875 Q1.8281 -3.875 1.5312 -3.4219 Q1.2344 -2.9844 1.2344 -2.0781 Q1.2344 -1.1875 1.5312 -0.7344 Q1.8281 -0.2812 2.4219 -0.2812 Q2.875 -0.2812 3.1562 -0.5156 Q3.4375 -0.7656 3.5312 -1.25 L4.1094 -1.25 Z" stroke="none"/></g><g text-rendering="optimizeLegibility" transform="translate(27.3649,20.4154)" color-rendering="optimizeQuality" color-interpolation="linearRGB" image-rendering="optimizeQuality"><path d="M4.2344 -5.4219 L3.8438 -5.4219 Q3.8594 -5.5156 3.8594 -5.5938 Q3.8594 -5.7812 3.75 -5.9062 Q3.6094 -6.0625 3.2812 -6.0625 Q2.8594 -6.0625 2.6406 -5.8281 Q2.4219 -5.5938 2.2969 -4.9844 L2.1875 -4.4219 L3.4219 -4.4219 L3.3281 -3.9688 L2.0938 -3.9688 L1.2812 0.2812 Q1.125 1.0156 0.6719 1.3906 Q0.2188 1.7656 -0.5312 1.7656 L-0.4844 1.3594 Q-0.0469 1.3594 0.1719 1.125 Q0.3906 0.875 0.5156 0.2812 L1.3281 -3.9688 L0.6094 -3.9688 L0.6875 -4.4219 L1.4219 -4.4219 L1.5312 -4.9688 Q1.6719 -5.7188 2.1406 -6.0938 Q2.5938 -6.4688 3.3281 -6.4688 Q3.6094 -6.4688 3.875 -6.4219 Q4.1562 -6.375 4.4062 -6.2656 L4.2344 -5.4219 Z" stroke="none"/></g><g text-rendering="optimizeLegibility" transform="translate(31.7711,25.0951)" color-rendering="optimizeQuality" color-interpolation="linearRGB" image-rendering="optimizeQuality"><path d="M2.5469 -0.2812 Q3.1406 -0.2812 3.4375 -0.9375 Q3.7344 -1.5938 3.7344 -2.9062 Q3.7344 -4.2344 3.4375 -4.8906 Q3.1406 -5.5469 2.5469 -5.5469 Q1.9531 -5.5469 1.6562 -4.8906 Q1.3594 -4.2344 1.3594 -2.9062 Q1.3594 -1.5938 1.6562 -0.9375 Q1.9531 -0.2812 2.5469 -0.2812 ZM2.5469 0.1094 Q1.5938 0.1094 1.0625 -0.6875 Q0.5312 -1.4844 0.5312 -2.9062 Q0.5312 -4.3438 1.0625 -5.1406 Q1.5938 -5.9375 2.5469 -5.9375 Q3.5 -5.9375 4.0312 -5.1406 Q4.5625 -4.3438 4.5625 -2.9062 Q4.5625 -1.4844 4.0312 -0.6875 Q3.5 0.1094 2.5469 0.1094 Z" stroke="none"/></g><g text-rendering="optimizeLegibility" transform="translate(37.9028,17)" color-rendering="optimizeQuality" color-interpolation="linearRGB" image-rendering="optimizeQuality"><path d="M0.4375 1.1719 Q0.9844 0.7656 1.2344 0.2188 Q1.5 -0.3281 1.5 -1.1094 L1.5 -1.3281 L2.6562 -1.3281 Q2.6094 -0.3281 2.1875 0.3906 Q1.7656 1.1094 0.9062 1.6406 L0.4375 1.1719 Z" stroke="none"/></g></g></svg>