<?xml version="1.0" encoding="UTF-8" standalone="no"?>
<!DOCTYPE svg PUBLIC "-//W3C//DTD SVG 1.0//EN" "http://www.w3.org/TR/2001/PR-SVG-20010719/DTD/svg10.dtd">
<svg width="34cm" height="41cm" viewBox="-1 18 675 803" xmlns="http://www.w3.org/2000/svg" xmlns:xlink="http://www.w3.org/1999/xlink">
  <g>
    <polygon style="fill: #ffffff" points="159.516,100 280,170 159.516,240 39.0319,170 "/>
    <polygon style="fill: none; fill-opacity:0; stroke-width: 2; stroke: #000000" points="159.516,100 280,170 159.516,240 39.0319,170 "/>
    <text font-size="12.7998" style="fill: #000000;text-anchor:middle;font-family:sans-serif;font-style:normal;font-weight:normal" x="159.516" y="166.8">
      <tspan x="159.516" y="166.8">Authentication required</tspan>
      <tspan x="159.516" y="182.8">for requested service?</tspan>
    </text>
  </g>
  <g>
    <polygon style="fill: #ffffff" points="499.624,98 621.247,170.416 499.624,242.833 378,170.416 "/>
    <polygon style="fill: none; fill-opacity:0; stroke-width: 2; stroke: #000000" points="499.624,98 621.247,170.416 499.624,242.833 378,170.416 "/>
    <text font-size="12.7998" style="fill: #000000;text-anchor:middle;font-family:sans-serif;font-style:normal;font-weight:normal" x="499.624" y="167.216">
      <tspan x="499.624" y="167.216">Authentication credentials</tspan>
      <tspan x="499.624" y="183.216">supplied in the request?</tspan>
    </text>
  </g>
  <g>
    <polygon style="fill: #ffffff" points="340,340 460,410.019 340,480.039 220,410.019 "/>
    <polygon style="fill: none; fill-opacity:0; stroke-width: 2; stroke: #000000" points="340,340 460,410.019 340,480.039 220,410.019 "/>
    <text font-size="12.7998" style="fill: #000000;text-anchor:middle;font-family:sans-serif;font-style:normal;font-weight:normal" x="340" y="398.819">
      <tspan x="340" y="398.819">Bearer Toekn</tspan>
      <tspan x="340" y="414.819">credentials correctly</tspan>
      <tspan x="340" y="430.819">verified?</tspan>
    </text>
  </g>
  <g>
    <line style="fill: none; fill-opacity:0; stroke-width: 2; stroke: #000000" x1="160" y1="20" x2="159.575" y2="90.2641"/>
    <polygon style="fill: #000000" points="159.529,97.764 154.59,87.7339 159.575,90.2641 164.59,87.7944 "/>
    <polygon style="fill: none; fill-opacity:0; stroke-width: 2; stroke: #000000" points="159.529,97.764 154.59,87.7339 159.575,90.2641 164.59,87.7944 "/>
  </g>
  <g>
    <line style="fill: none; fill-opacity:0; stroke-width: 2; stroke: #000000" x1="280" y1="170" x2="368.264" y2="170.375"/>
    <polygon style="fill: #000000" points="375.764,170.407 365.743,175.364 368.264,170.375 365.785,165.364 "/>
    <polygon style="fill: none; fill-opacity:0; stroke-width: 2; stroke: #000000" points="375.764,170.407 365.743,175.364 368.264,170.375 365.785,165.364 "/>
  </g>
  <line style="fill: none; fill-opacity:0; stroke-width: 2; stroke: #000000" x1="499.624" y1="242.833" x2="500" y2="300"/>
  <g>
    <line style="fill: none; fill-opacity:0; stroke-width: 2; stroke: #000000" x1="340" y1="300" x2="340" y2="330.264"/>
    <polygon style="fill: #000000" points="340,337.764 335,327.764 340,330.264 345,327.764 "/>
    <polygon style="fill: none; fill-opacity:0; stroke-width: 2; stroke: #000000" points="340,337.764 335,327.764 340,330.264 345,327.764 "/>
  </g>
  <line style="fill: none; fill-opacity:0; stroke-width: 2; stroke: #000000" x1="340" y1="300" x2="660" y2="300"/>
  <text font-size="12.7998" style="fill: #000000;text-anchor:start;font-family:sans-serif;font-style:normal;font-weight:normal" x="340" y="280">
    <tspan x="340" y="280">    bearer token</tspan>
    <tspan x="340" y="296">credentials provided</tspan>
  </text>
  <text font-size="12.7998" style="fill: #000000;text-anchor:start;font-family:sans-serif;font-style:normal;font-weight:normal" x="560" y="280">
    <tspan x="560" y="280">  No authentication</tspan>
    <tspan x="560" y="296">credentials provided</tspan>
  </text>
  <g>
    <path style="fill: #ffffff" d="M 80 740 L 240,740 C 262.091,740 280,757.909 280,780 C 280,802.091 262.091,820 240,820 L 80,820 C 57.9086,820 40,802.091 40,780 C 40,757.909 57.9086,740 80,740z"/>
    <path style="fill: none; fill-opacity:0; stroke-width: 2; stroke: #000000" d="M 80 740 L 240,740 C 262.091,740 280,757.909 280,780 C 280,802.091 262.091,820 240,820 L 80,820 C 57.9086,820 40,802.091 40,780 C 40,757.909 57.9086,740 80,740"/>
    <text font-size="12.7998" style="fill: #000000;text-anchor:middle;font-family:sans-serif;font-style:normal;font-weight:normal" x="160" y="777">
      <tspan x="160" y="777">Authentication</tspan>
      <tspan x="160" y="793">successful</tspan>
    </text>
  </g>
  <g>
    <path style="fill: #ffffff" d="M 420 740 L 580,740 C 602.091,740 620,757.909 620,780 C 620,802.091 602.091,820 580,820 L 420,820 C 397.909,820 380,802.091 380,780 C 380,757.909 397.909,740 420,740z"/>
    <path style="fill: none; fill-opacity:0; stroke-width: 2; stroke: #000000" d="M 420 740 L 580,740 C 602.091,740 620,757.909 620,780 C 620,802.091 602.091,820 580,820 L 420,820 C 397.909,820 380,802.091 380,780 C 380,757.909 397.909,740 420,740"/>
    <text font-size="12.7998" style="fill: #000000;text-anchor:middle;font-family:sans-serif;font-style:normal;font-weight:normal" x="500" y="769">
      <tspan x="500" y="769">Return</tspan>
      <tspan x="500" y="785">SOAP:Fault env:Sender</tspan>
      <tspan x="500" y="801">ter:NotAuthorized error</tspan>
    </text>
  </g>
  <g>
    <polyline style="fill: none; fill-opacity:0; stroke-width: 2; stroke: #000000" points="220,410.019 220,410.75 160,410.75 160,730.264 "/>
    <polygon style="fill: #000000" points="160,737.764 155,727.764 160,730.264 165,727.764 "/>
    <polygon style="fill: none; fill-opacity:0; stroke-width: 2; stroke: #000000" points="160,737.764 155,727.764 160,730.264 165,727.764 "/>
  </g>
  <g>
    <polyline style="fill: none; fill-opacity:0; stroke-width: 2; stroke: #000000" points="370.264,780 340,780 340,480.039 340,480.039 "/>
    <polygon style="fill: #000000" points="377.764,780 367.764,785 370.264,780 367.764,775 "/>
    <polygon style="fill: none; fill-opacity:0; stroke-width: 2; stroke: #000000" points="377.764,780 367.764,785 370.264,780 367.764,775 "/>
  </g>
  <g>
    <polyline style="fill: none; fill-opacity:0; stroke-width: 2; stroke: #000000" points="629.736,780 660,780 660,300 660,300 "/>
    <polygon style="fill: #000000" points="622.236,780 632.236,775 629.736,780 632.236,785 "/>
    <polygon style="fill: none; fill-opacity:0; stroke-width: 2; stroke: #000000" points="622.236,780 632.236,775 629.736,780 632.236,785 "/>
  </g>
  <text font-size="12.7998" style="fill: #000000;text-anchor:start;font-family:sans-serif;font-style:normal;font-weight:normal" x="180" y="620">
    <tspan x="180" y="620">yes</tspan>
  </text>
  <text font-size="12.7998" style="fill: #000000;text-anchor:start;font-family:sans-serif;font-style:normal;font-weight:normal" x="360" y="620">
    <tspan x="360" y="620">no</tspan>
  </text>
  <text font-size="12.7998" style="fill: #000000;text-anchor:start;font-family:sans-serif;font-style:normal;font-weight:normal" x="640" y="620">
    <tspan x="640" y="620">no</tspan>
  </text>
  <g>
    <line style="fill: none; fill-opacity:0; stroke-width: 2; stroke: #000000" x1="0" y1="780" x2="30.2639" y2="780"/>
    <polygon style="fill: #000000" points="37.7639,780 27.7639,785 30.2639,780 27.7639,775 "/>
    <polygon style="fill: none; fill-opacity:0; stroke-width: 2; stroke: #000000" points="37.7639,780 27.7639,785 30.2639,780 27.7639,775 "/>
  </g>
  <polyline style="fill: none; fill-opacity:0; stroke-width: 2; stroke: #000000" points="39.0319,170 39.0319,171 0,171 0,780 "/>
  <text font-size="12.7998" style="fill: #000000;text-anchor:start;font-family:sans-serif;font-style:normal;font-weight:normal" x="20" y="620">
    <tspan x="20" y="620">no</tspan>
  </text>
</svg>
