<?xml version="1.0" encoding="UTF-8" standalone="no"?>
<!DOCTYPE svg PUBLIC "-//W3C//DTD SVG 1.0//EN" "http://www.w3.org/TR/2001/PR-SVG-20010719/DTD/svg10.dtd">
<svg width="52cm" height="44cm" viewBox="-1 18 1022 863" xmlns="http://www.w3.org/2000/svg" xmlns:xlink="http://www.w3.org/1999/xlink">
  <g>
    <polygon style="fill: #ffffff" points="159.516,100 280,170 159.516,240 39.0319,170 "/>
    <polygon style="fill: none; fill-opacity:0; stroke-width: 2; stroke: #000000" points="159.516,100 280,170 159.516,240 39.0319,170 "/>
    <text font-size="12.7998" style="fill: #000000;text-anchor:middle;font-family:sans-serif;font-style:normal;font-weight:normal" x="159.516" y="166.8">
      <tspan x="159.516" y="166.8">Authentication required</tspan>
      <tspan x="159.516" y="182.8">for requested service?</tspan>
    </text>
  </g>
  <g>
    <polygon style="fill: #ffffff" points="499.624,98 621.247,170.416 499.624,242.833 378,170.416 "/>
    <polygon style="fill: none; fill-opacity:0; stroke-width: 2; stroke: #000000" points="499.624,98 621.247,170.416 499.624,242.833 378,170.416 "/>
    <text font-size="12.7998" style="fill: #000000;text-anchor:middle;font-family:sans-serif;font-style:normal;font-weight:normal" x="499.624" y="167.216">
      <tspan x="499.624" y="167.216">Authentication credentials</tspan>
      <tspan x="499.624" y="183.216">supplied in the request?</tspan>
    </text>
  </g>
  <g>
    <polygon style="fill: #ffffff" points="860,520 980,590.019 860,660.039 740,590.019 "/>
    <polygon style="fill: none; fill-opacity:0; stroke-width: 2; stroke: #000000" points="860,520 980,590.019 860,660.039 740,590.019 "/>
    <text font-size="12.7998" style="fill: #000000;text-anchor:middle;font-family:sans-serif;font-style:normal;font-weight:normal" x="860" y="578.819">
      <tspan x="860" y="578.819">WSS</tspan>
      <tspan x="860" y="594.819">credentials correctly</tspan>
      <tspan x="860" y="610.819">verified?</tspan>
    </text>
  </g>
  <g>
    <polygon style="fill: #ffffff" points="340,340 460,410.019 340,480.039 220,410.019 "/>
    <polygon style="fill: none; fill-opacity:0; stroke-width: 2; stroke: #000000" points="340,340 460,410.019 340,480.039 220,410.019 "/>
    <text font-size="12.7998" style="fill: #000000;text-anchor:middle;font-family:sans-serif;font-style:normal;font-weight:normal" x="340" y="398.819">
      <tspan x="340" y="398.819">HTTP digest</tspan>
      <tspan x="340" y="414.819">credentials correctly</tspan>
      <tspan x="340" y="430.819">verified?</tspan>
    </text>
  </g>
  <g>
    <polygon style="fill: #ffffff" points="660,340 780,410.019 660,480.039 540,410.019 "/>
    <polygon style="fill: none; fill-opacity:0; stroke-width: 2; stroke: #000000" points="660,340 780,410.019 660,480.039 540,410.019 "/>
    <text font-size="12.7998" style="fill: #000000;text-anchor:middle;font-family:sans-serif;font-style:normal;font-weight:normal" x="660" y="398.819">
      <tspan x="660" y="398.819">HTTP digest</tspan>
      <tspan x="660" y="414.819">credentials correctly</tspan>
      <tspan x="660" y="430.819">verified?</tspan>
    </text>
  </g>
  <g>
    <line style="fill: none; fill-opacity:0; stroke-width: 2; stroke: #000000" x1="160" y1="20" x2="159.575" y2="90.2641"/>
    <polygon style="fill: #000000" points="159.529,97.764 154.59,87.7339 159.575,90.2641 164.59,87.7944 "/>
    <polygon style="fill: none; fill-opacity:0; stroke-width: 2; stroke: #000000" points="159.529,97.764 154.59,87.7339 159.575,90.2641 164.59,87.7944 "/>
  </g>
  <g>
    <line style="fill: none; fill-opacity:0; stroke-width: 2; stroke: #000000" x1="280" y1="170" x2="368.264" y2="170.375"/>
    <polygon style="fill: #000000" points="375.764,170.407 365.743,175.364 368.264,170.375 365.785,165.364 "/>
    <polygon style="fill: none; fill-opacity:0; stroke-width: 2; stroke: #000000" points="375.764,170.407 365.743,175.364 368.264,170.375 365.785,165.364 "/>
  </g>
  <line style="fill: none; fill-opacity:0; stroke-width: 2; stroke: #000000" x1="499.624" y1="242.833" x2="500" y2="300"/>
  <g>
    <line style="fill: none; fill-opacity:0; stroke-width: 2; stroke: #000000" x1="340" y1="300" x2="340" y2="330.264"/>
    <polygon style="fill: #000000" points="340,337.764 335,327.764 340,330.264 345,327.764 "/>
    <polygon style="fill: none; fill-opacity:0; stroke-width: 2; stroke: #000000" points="340,337.764 335,327.764 340,330.264 345,327.764 "/>
  </g>
  <g>
    <line style="fill: none; fill-opacity:0; stroke-width: 2; stroke: #000000" x1="660" y1="300" x2="660" y2="330.264"/>
    <polygon style="fill: #000000" points="660,337.764 655,327.764 660,330.264 665,327.764 "/>
    <polygon style="fill: none; fill-opacity:0; stroke-width: 2; stroke: #000000" points="660,337.764 655,327.764 660,330.264 665,327.764 "/>
  </g>
  <line style="fill: none; fill-opacity:0; stroke-width: 2; stroke: #000000" x1="340" y1="300" x2="660" y2="300"/>
  <text font-size="12.7998" style="fill: #000000;text-anchor:start;font-family:sans-serif;font-style:normal;font-weight:normal" x="340" y="280">
    <tspan x="340" y="280">only HTTP digest</tspan>
    <tspan x="340" y="296">credentials provided</tspan>
  </text>
  <text font-size="12.7998" style="fill: #000000;text-anchor:start;font-family:sans-serif;font-style:normal;font-weight:normal" x="540" y="280">
    <tspan x="540" y="280">  both HTTP digest and</tspan>
    <tspan x="540" y="296">WSS credentials provided</tspan>
  </text>
  <g>
    <path style="fill: #ffffff" d="M 80 740 L 240,740 C 262.091,740 280,757.909 280,780 C 280,802.091 262.091,820 240,820 L 80,820 C 57.9086,820 40,802.091 40,780 C 40,757.909 57.9086,740 80,740z"/>
    <path style="fill: none; fill-opacity:0; stroke-width: 2; stroke: #000000" d="M 80 740 L 240,740 C 262.091,740 280,757.909 280,780 C 280,802.091 262.091,820 240,820 L 80,820 C 57.9086,820 40,802.091 40,780 C 40,757.909 57.9086,740 80,740"/>
    <text font-size="12.7998" style="fill: #000000;text-anchor:middle;font-family:sans-serif;font-style:normal;font-weight:normal" x="160" y="777">
      <tspan x="160" y="777">Authentication</tspan>
      <tspan x="160" y="793">successful</tspan>
    </text>
  </g>
  <g>
    <path style="fill: #ffffff" d="M 420 740 L 580,740 C 602.091,740 620,757.909 620,780 C 620,802.091 602.091,820 580,820 L 420,820 C 397.909,820 380,802.091 380,780 C 380,757.909 397.909,740 420,740z"/>
    <path style="fill: none; fill-opacity:0; stroke-width: 2; stroke: #000000" d="M 420 740 L 580,740 C 602.091,740 620,757.909 620,780 C 620,802.091 602.091,820 580,820 L 420,820 C 397.909,820 380,802.091 380,780 C 380,757.909 397.909,740 420,740"/>
    <text font-size="12.7998" style="fill: #000000;text-anchor:middle;font-family:sans-serif;font-style:normal;font-weight:normal" x="500" y="777">
      <tspan x="500" y="777">Return HTTP 401 error</tspan>
      <tspan x="500" y="793">according to RFC 2617</tspan>
    </text>
  </g>
  <g>
    <path style="fill: #ffffff" d="M 780 740 L 940,740 C 962.091,740 980,757.909 980,780 C 980,802.091 962.091,820 940,820 L 780,820 C 757.909,820 740,802.091 740,780 C 740,757.909 757.909,740 780,740z"/>
    <path style="fill: none; fill-opacity:0; stroke-width: 2; stroke: #000000" d="M 780 740 L 940,740 C 962.091,740 980,757.909 980,780 C 980,802.091 962.091,820 940,820 L 780,820 C 757.909,820 740,802.091 740,780 C 740,757.909 757.909,740 780,740"/>
    <text font-size="12.7998" style="fill: #000000;text-anchor:middle;font-family:sans-serif;font-style:normal;font-weight:normal" x="860" y="769">
      <tspan x="860" y="769">Return HTTP 400 /</tspan>
      <tspan x="860" y="785">SOAP:Fault env:Sender</tspan>
      <tspan x="860" y="801">ter:NotAuthorized error</tspan>
    </text>
  </g>
  <g>
    <line style="fill: none; fill-opacity:0; stroke-width: 2; stroke: #000000" x1="860" y1="60" x2="860" y2="510.264"/>
    <polygon style="fill: #000000" points="860,517.764 855,507.764 860,510.264 865,507.764 "/>
    <polygon style="fill: none; fill-opacity:0; stroke-width: 2; stroke: #000000" points="860,517.764 855,507.764 860,510.264 865,507.764 "/>
  </g>
  <line style="fill: none; fill-opacity:0; stroke-width: 2; stroke: #000000" x1="780" y1="410.019" x2="860.002" y2="411"/>
  <g>
    <polyline style="fill: none; fill-opacity:0; stroke-width: 2; stroke: #000000" points="220,410.019 220,410.75 160,410.75 160,730.264 "/>
    <polygon style="fill: #000000" points="160,737.764 155,727.764 160,730.264 165,727.764 "/>
    <polygon style="fill: none; fill-opacity:0; stroke-width: 2; stroke: #000000" points="160,737.764 155,727.764 160,730.264 165,727.764 "/>
  </g>
  <line style="fill: none; fill-opacity:0; stroke-width: 2; stroke: #000000" x1="500" y1="300" x2="500" y2="520"/>
  <text font-size="12.7998" style="fill: #000000;text-anchor:start;font-family:sans-serif;font-style:normal;font-weight:normal" x="440" y="538">
    <tspan x="440" y="538">  no authentication</tspan>
    <tspan x="440" y="554">credentials provided</tspan>
  </text>
  <g>
    <line style="fill: none; fill-opacity:0; stroke-width: 2; stroke: #000000" x1="500" y1="560" x2="500" y2="730.264"/>
    <polygon style="fill: #000000" points="500,737.764 495,727.764 500,730.264 505,727.764 "/>
    <polygon style="fill: none; fill-opacity:0; stroke-width: 2; stroke: #000000" points="500,737.764 495,727.764 500,730.264 505,727.764 "/>
  </g>
  <text font-size="12.7998" style="fill: #000000;text-anchor:start;font-family:sans-serif;font-style:normal;font-weight:normal" x="880" y="700">
    <tspan x="880" y="700">no</tspan>
  </text>
  <g>
    <polyline style="fill: none; fill-opacity:0; stroke-width: 2; stroke: #000000" points="366.268,771.75 340,771.75 340,480.039 340,480.039 "/>
    <polygon style="fill: #000000" points="373.768,771.75 363.768,776.75 366.268,771.75 363.768,766.75 "/>
    <polygon style="fill: none; fill-opacity:0; stroke-width: 2; stroke: #000000" points="373.768,771.75 363.768,776.75 366.268,771.75 363.768,766.75 "/>
  </g>
  <g>
    <polyline style="fill: none; fill-opacity:0; stroke-width: 2; stroke: #000000" points="629.736,780 660,780 660,480.039 660,480.039 "/>
    <polygon style="fill: #000000" points="622.236,780 632.236,775 629.736,780 632.236,785 "/>
    <polygon style="fill: none; fill-opacity:0; stroke-width: 2; stroke: #000000" points="622.236,780 632.236,775 629.736,780 632.236,785 "/>
  </g>
  <g>
    <line style="fill: none; fill-opacity:0; stroke-width: 2; stroke: #000000" x1="860" y1="660.039" x2="860" y2="730.264"/>
    <polygon style="fill: #000000" points="860,737.764 855,727.764 860,730.264 865,727.764 "/>
    <polygon style="fill: none; fill-opacity:0; stroke-width: 2; stroke: #000000" points="860,737.764 855,727.764 860,730.264 865,727.764 "/>
  </g>
  <text font-size="12.7998" style="fill: #000000;text-anchor:start;font-family:sans-serif;font-style:normal;font-weight:normal" x="180" y="620">
    <tspan x="180" y="620">yes</tspan>
  </text>
  <text font-size="12.7998" style="fill: #000000;text-anchor:start;font-family:sans-serif;font-style:normal;font-weight:normal" x="360" y="620">
    <tspan x="360" y="620">no</tspan>
  </text>
  <text font-size="12.7998" style="fill: #000000;text-anchor:start;font-family:sans-serif;font-style:normal;font-weight:normal" x="640" y="620">
    <tspan x="640" y="620">no</tspan>
  </text>
  <text font-size="12.7998" style="fill: #000000;text-anchor:start;font-family:sans-serif;font-style:normal;font-weight:normal" x="800" y="400">
    <tspan x="800" y="400">yes</tspan>
  </text>
  <g>
    <line style="fill: none; fill-opacity:0; stroke-width: 2; stroke: #000000" x1="160" y1="880" x2="160" y2="829.736"/>
    <polygon style="fill: #000000" points="160,822.236 165,832.236 160,829.736 155,832.236 "/>
    <polygon style="fill: none; fill-opacity:0; stroke-width: 2; stroke: #000000" points="160,822.236 165,832.236 160,829.736 155,832.236 "/>
  </g>
  <line style="fill: none; fill-opacity:0; stroke-width: 2; stroke: #000000" x1="160" y1="880" x2="1020" y2="880"/>
  <polyline style="fill: none; fill-opacity:0; stroke-width: 2; stroke: #000000" points="980,590.019 980,590.75 1020,590.75 1020,880 "/>
  <text font-size="12.7998" style="fill: #000000;text-anchor:start;font-family:sans-serif;font-style:normal;font-weight:normal" x="980" y="580">
    <tspan x="980" y="580">yes</tspan>
  </text>
  <g>
    <line style="fill: none; fill-opacity:0; stroke-width: 2; stroke: #000000" x1="0" y1="780" x2="30.2639" y2="780"/>
    <polygon style="fill: #000000" points="37.7639,780 27.7639,785 30.2639,780 27.7639,775 "/>
    <polygon style="fill: none; fill-opacity:0; stroke-width: 2; stroke: #000000" points="37.7639,780 27.7639,785 30.2639,780 27.7639,775 "/>
  </g>
  <polyline style="fill: none; fill-opacity:0; stroke-width: 2; stroke: #000000" points="39.0319,170 39.0319,171 0,171 0,780 "/>
  <text font-size="12.7998" style="fill: #000000;text-anchor:start;font-family:sans-serif;font-style:normal;font-weight:normal" x="20" y="620">
    <tspan x="20" y="620">no</tspan>
  </text>
  <text font-size="12.7998" style="fill: #000000;text-anchor:start;font-family:sans-serif;font-style:normal;font-weight:normal" x="800" y="40">
    <tspan x="800" y="40">only WSS credentials</tspan>
    <tspan x="800" y="56">         provided</tspan>
  </text>
</svg>
