<?xml version="1.0" encoding="UTF-8" standalone="no"?>
<!DOCTYPE svg PUBLIC "-//W3C//DTD SVG 1.0//EN" "http://www.w3.org/TR/2001/PR-SVG-20010719/DTD/svg10.dtd">
<svg width="31cm" height="14cm" viewBox="-2 46 603 275" xmlns="http://www.w3.org/2000/svg" xmlns:xlink="http://www.w3.org/1999/xlink">
  <g>
    <rect style="fill: #ffffff" x="440" y="120" width="160" height="200"/>
    <rect style="fill: none; fill-opacity:0; stroke-width: 2; stroke: #000000" x="440" y="120" width="160" height="200"/>
  </g>
  <g>
    <rect style="fill: #ffffff" x="0" y="120" width="160" height="200"/>
    <rect style="fill: none; fill-opacity:0; stroke-width: 2; stroke: #000000" x="0" y="120" width="160" height="200"/>
    <text font-size="12.8" style="fill: #000000;text-anchor:middle;font-family:sans-serif;font-style:normal;font-weight:normal" x="80" y="224.8">
      <tspan x="80" y="224.8"></tspan>
    </text>
  </g>
  <g>
    <rect style="fill: #e5e5e5" x="0" y="80" width="160" height="40"/>
    <rect style="fill: none; fill-opacity:0; stroke-width: 2; stroke: #000000" x="0" y="80" width="160" height="40"/>
    <text font-size="12.8" style="fill: #000000;text-anchor:middle;font-family:sans-serif;font-style:normal;font-weight:normal" x="80" y="104.8">
      <tspan x="80" y="104.8">Client</tspan>
    </text>
  </g>
  <g>
    <line style="fill: none; fill-opacity:0; stroke-width: 2; stroke-dasharray: 20; stroke: #000000" x1="160" y1="140" x2="430.48" y2="197.96"/>
    <polygon style="fill: #000000" points="437.814,199.531 426.988,202.325 430.48,197.96 429.083,192.547 "/>
    <polygon style="fill: none; fill-opacity:0; stroke-width: 2; stroke: #000000" points="437.814,199.531 426.988,202.325 430.48,197.96 429.083,192.547 "/>
  </g>
  <text font-size="12.8" style="fill: #000000;text-anchor:start;font-family:sans-serif;font-style:normal;font-weight:normal" x="240" y="120">
    <tspan x="240" y="120">Authentication &amp;</tspan>
    <tspan x="240" y="136">Authorization Request</tspan>
  </text>
  <g>
    <ellipse style="fill: #ffffff" cx="202.938" cy="148.265" rx="22.9385" ry="18.265"/>
    <ellipse style="fill: none; fill-opacity:0; stroke-width: 2; stroke: #000000" cx="202.938" cy="148.265" rx="22.9385" ry="18.265"/>
    <text font-size="12.8" style="fill: #000000;text-anchor:middle;font-family:sans-serif;font-style:normal;font-weight:normal" x="202.938" y="153.065">
      <tspan x="202.938" y="153.065">1</tspan>
    </text>
  </g>
  <g>
    <line style="fill: none; fill-opacity:0; stroke-width: 2; stroke-dasharray: 4; stroke: #000000" x1="440" y1="220" x2="169.52" y2="277.96"/>
    <polygon style="fill: #000000" points="162.186,279.531 170.917,272.547 169.52,277.96 173.012,282.325 "/>
    <polygon style="fill: none; fill-opacity:0; stroke-width: 2; stroke: #000000" points="162.186,279.531 170.917,272.547 169.52,277.96 173.012,282.325 "/>
  </g>
  <g>
    <ellipse style="fill: #ffffff" cx="244.823" cy="259.765" rx="24.8225" ry="19.7652"/>
    <ellipse style="fill: none; fill-opacity:0; stroke-width: 2; stroke: #000000" cx="244.823" cy="259.765" rx="24.8225" ry="19.7652"/>
    <text font-size="12.8" style="fill: #000000;text-anchor:middle;font-family:sans-serif;font-style:normal;font-weight:normal" x="244.823" y="264.565">
      <tspan x="244.823" y="264.565">2</tspan>
    </text>
  </g>
  <text font-size="12.8" style="fill: #000000;text-anchor:start;font-family:sans-serif;font-style:normal;font-weight:normal" x="460" y="200">
    <tspan x="460" y="200">Authorization</tspan>
    <tspan x="460" y="216">endpoint</tspan>
  </text>
  <g>
    <path style="fill: #ffffff" d="M 39.2125 260 L 121.612,260 C 132.99,260 142.212,268.954 142.212,280 C 142.212,291.046 132.99,300 121.612,300 L 39.2125,300 C 27.8354,300 18.6125,291.046 18.6125,280 C 18.6125,268.954 27.8354,260 39.2125,260z"/>
    <path style="fill: none; fill-opacity:0; stroke-width: 2; stroke: #000000" d="M 39.2125 260 L 121.612,260 C 132.99,260 142.212,268.954 142.212,280 C 142.212,291.046 132.99,300 121.612,300 L 39.2125,300 C 27.8354,300 18.6125,291.046 18.6125,280 C 18.6125,268.954 27.8354,260 39.2125,260"/>
    <text font-size="12.8" style="fill: #000000;text-anchor:middle;font-family:sans-serif;font-style:normal;font-weight:normal" x="80.4125" y="284.8">
      <tspan x="80.4125" y="284.8">Access Token</tspan>
    </text>
  </g>
  <g>
    <rect style="fill: #e5e5e5" x="440" y="80" width="160" height="40"/>
    <rect style="fill: none; fill-opacity:0; stroke-width: 2; stroke: #000000" x="440" y="80" width="160" height="40"/>
    <text font-size="12.8" style="fill: #000000;text-anchor:middle;font-family:sans-serif;font-style:normal;font-weight:normal" x="520" y="104.8">
      <tspan x="520" y="104.8">Server</tspan>
    </text>
  </g>
  <text font-size="12.8" style="fill: #000000;text-anchor:start;font-family:sans-serif;font-style:normal;font-weight:normal" x="20" y="60">
    <tspan x="20" y="60">response_type=token</tspan>
  </text>
</svg>
