<?xml version="1.0" encoding="UTF-8" standalone="no"?>
<!DOCTYPE svg PUBLIC "-//W3C//DTD SVG 1.0//EN" "http://www.w3.org/TR/2001/PR-SVG-20010719/DTD/svg10.dtd">
<svg width="31cm" height="28cm" viewBox="-2 46 603 555" xmlns="http://www.w3.org/2000/svg" xmlns:xlink="http://www.w3.org/1999/xlink">
  <g>
    <rect style="fill: #ffffff" x="440" y="120" width="160" height="480"/>
    <rect style="fill: none; fill-opacity:0; stroke-width: 2; stroke: #000000" x="440" y="120" width="160" height="480"/>
  </g>
  <g>
    <rect style="fill: #ffffff" x="0" y="120" width="160" height="480"/>
    <rect style="fill: none; fill-opacity:0; stroke-width: 2; stroke: #000000" x="0" y="120" width="160" height="480"/>
    <text font-size="12.7998" style="fill: #000000;text-anchor:middle;font-family:sans-serif;font-style:normal;font-weight:normal" x="80" y="364.8">
      <tspan x="80" y="364.8"></tspan>
    </text>
  </g>
  <g>
    <rect style="fill: #e5e5e5" x="0" y="80" width="160" height="40"/>
    <rect style="fill: none; fill-opacity:0; stroke-width: 2; stroke: #000000" x="0" y="80" width="160" height="40"/>
    <text font-size="12.7998" style="fill: #000000;text-anchor:middle;font-family:sans-serif;font-style:normal;font-weight:normal" x="80" y="104.8">
      <tspan x="80" y="104.8">Client</tspan>
    </text>
  </g>
  <g>
    <line style="fill: none; fill-opacity:0; stroke-width: 2; stroke-dasharray: 20; stroke: #000000" x1="160" y1="140" x2="430.264" y2="140"/>
    <polygon style="fill: #000000" points="437.764,140 427.764,145 430.264,140 427.764,135 "/>
    <polygon style="fill: none; fill-opacity:0; stroke-width: 2; stroke: #000000" points="437.764,140 427.764,145 430.264,140 427.764,135 "/>
  </g>
  <text font-size="12.7998" style="fill: #000000;text-anchor:start;font-family:sans-serif;font-style:normal;font-weight:normal" x="240" y="120">
    <tspan x="240" y="120">Authentication &amp;</tspan>
    <tspan x="240" y="136">Authorization Request</tspan>
  </text>
  <g>
    <ellipse style="fill: #ffffff" cx="202.938" cy="138.265" rx="22.9385" ry="18.265"/>
    <ellipse style="fill: none; fill-opacity:0; stroke-width: 2; stroke: #000000" cx="202.938" cy="138.265" rx="22.9385" ry="18.265"/>
    <text font-size="12.7998" style="fill: #000000;text-anchor:middle;font-family:sans-serif;font-style:normal;font-weight:normal" x="202.938" y="143.065">
      <tspan x="202.938" y="143.065">1</tspan>
    </text>
  </g>
  <g>
    <path style="fill: none; fill-opacity:0; stroke-width: 2; stroke: #000000" d="M 440,180 A 70.4167,70.4167 0 1 0 432.685,286.32"/>
    <polygon style="fill: #000000" points="438.412,281.575 434.832,292.166 433.087,286.856 427.791,285.066 "/>
    <polygon style="fill: none; fill-opacity:0; stroke-width: 2; stroke: #000000" points="438.412,281.575 434.832,292.166 433.087,286.856 427.791,285.066 "/>
  </g>
  <g>
    <ellipse style="fill: #ffffff" cx="342.938" cy="178.265" rx="22.9385" ry="18.265"/>
    <ellipse style="fill: none; fill-opacity:0; stroke-width: 2; stroke: #000000" cx="342.938" cy="178.265" rx="22.9385" ry="18.265"/>
    <text font-size="12.7998" style="fill: #000000;text-anchor:middle;font-family:sans-serif;font-style:normal;font-weight:normal" x="342.938" y="183.065">
      <tspan x="342.938" y="183.065">2</tspan>
    </text>
  </g>
  <g>
    <path style="fill: none; fill-opacity:0; stroke-width: 2; stroke: #000000" d="M 300,220 A 33.3333,33.3333 0 1 0 260,220"/>
    <line style="fill: none; fill-opacity:0; stroke-width: 2; stroke: #000000" x1="260" y1="220" x2="240" y2="280"/>
    <line style="fill: none; fill-opacity:0; stroke-width: 2; stroke: #000000" x1="300" y1="220" x2="320" y2="280"/>
    <line style="fill: none; fill-opacity:0; stroke-width: 2; stroke: #000000" x1="240" y1="280" x2="320" y2="280"/>
    <text font-size="12.7998" style="fill: #000000;text-anchor:start;font-family:sans-serif;font-style:normal;font-weight:normal" x="277" y="200">
      <tspan x="277" y="200">U</tspan>
      <tspan x="277" y="216">s</tspan>
      <tspan x="277" y="232">e</tspan>
      <tspan x="277" y="248">r</tspan>
    </text>
  </g>
  <text font-size="12.7998" style="fill: #000000;text-anchor:start;font-family:sans-serif;font-style:normal;font-weight:normal" x="340" y="240">
    <tspan x="340" y="240">Authentication</tspan>
    <tspan x="340" y="256">Authorization</tspan>
  </text>
  <g>
    <line style="fill: none; fill-opacity:0; stroke-width: 2; stroke-dasharray: 4; stroke: #000000" x1="440" y1="320" x2="169.52" y2="377.96"/>
    <polygon style="fill: #000000" points="162.186,379.531 170.917,372.547 169.52,377.96 173.012,382.325 "/>
    <polygon style="fill: none; fill-opacity:0; stroke-width: 2; stroke: #000000" points="162.186,379.531 170.917,372.547 169.52,377.96 173.012,382.325 "/>
  </g>
  <g>
    <ellipse style="fill: #ffffff" cx="262.938" cy="358.265" rx="24.8225" ry="19.7652"/>
    <ellipse style="fill: none; fill-opacity:0; stroke-width: 2; stroke: #000000" cx="262.938" cy="358.265" rx="24.8225" ry="19.7652"/>
    <text font-size="12.7998" style="fill: #000000;text-anchor:middle;font-family:sans-serif;font-style:normal;font-weight:normal" x="262.938" y="363.065">
      <tspan x="262.938" y="363.065">3</tspan>
    </text>
  </g>
  <g>
    <line style="fill: none; fill-opacity:0; stroke-width: 2; stroke-dasharray: 20; stroke: #000000" x1="160" y1="400" x2="430.48" y2="457.96"/>
    <polygon style="fill: #000000" points="437.814,459.531 426.988,462.325 430.48,457.96 429.083,452.547 "/>
    <polygon style="fill: none; fill-opacity:0; stroke-width: 2; stroke: #000000" points="437.814,459.531 426.988,462.325 430.48,457.96 429.083,452.547 "/>
  </g>
  <g>
    <ellipse style="fill: #ffffff" cx="242.938" cy="418.265" rx="22.9385" ry="18.265"/>
    <ellipse style="fill: none; fill-opacity:0; stroke-width: 2; stroke: #000000" cx="242.938" cy="418.265" rx="22.9385" ry="18.265"/>
    <text font-size="12.7998" style="fill: #000000;text-anchor:middle;font-family:sans-serif;font-style:normal;font-weight:normal" x="242.938" y="423.065">
      <tspan x="242.938" y="423.065">4</tspan>
    </text>
  </g>
  <text font-size="12.7998" style="fill: #000000;text-anchor:start;font-family:sans-serif;font-style:normal;font-weight:normal" x="320" y="420">
    <tspan x="320" y="420">Token Request</tspan>
  </text>
  <g>
    <line style="fill: none; fill-opacity:0; stroke-width: 2; stroke-dasharray: 4; stroke: #000000" x1="440" y1="480" x2="169.52" y2="537.96"/>
    <polygon style="fill: #000000" points="162.186,539.531 170.917,532.547 169.52,537.96 173.012,542.325 "/>
    <polygon style="fill: none; fill-opacity:0; stroke-width: 2; stroke: #000000" points="162.186,539.531 170.917,532.547 169.52,537.96 173.012,542.325 "/>
  </g>
  <g>
    <ellipse style="fill: #ffffff" cx="342.938" cy="498.265" rx="22.9385" ry="18.265"/>
    <ellipse style="fill: none; fill-opacity:0; stroke-width: 2; stroke: #000000" cx="342.938" cy="498.265" rx="22.9385" ry="18.265"/>
    <text font-size="12.7998" style="fill: #000000;text-anchor:middle;font-family:sans-serif;font-style:normal;font-weight:normal" x="342.938" y="503.065">
      <tspan x="342.938" y="503.065">5</tspan>
    </text>
  </g>
  <text font-size="12.7998" style="fill: #000000;text-anchor:start;font-family:sans-serif;font-style:normal;font-weight:normal" x="460" y="460">
    <tspan x="460" y="460">Token</tspan>
    <tspan x="460" y="476">Endpoint</tspan>
  </text>
  <text font-size="12.7998" style="fill: #000000;text-anchor:start;font-family:sans-serif;font-style:normal;font-weight:normal" x="460" y="140">
    <tspan x="460" y="140">Authorization</tspan>
    <tspan x="460" y="156">endpoint</tspan>
  </text>
  <g>
    <path style="fill: #ffffff" d="M 40.1375 372 L 120.687,372 C 131.809,372 140.825,380.954 140.825,392 C 140.825,403.046 131.809,412 120.687,412 L 40.1375,412 C 29.0159,412 20,403.046 20,392 C 20,380.954 29.0159,372 40.1375,372z"/>
    <path style="fill: none; fill-opacity:0; stroke-width: 2; stroke: #000000" d="M 40.1375 372 L 120.687,372 C 131.809,372 140.825,380.954 140.825,392 C 140.825,403.046 131.809,412 120.687,412 L 40.1375,412 C 29.0159,412 20,403.046 20,392 C 20,380.954 29.0159,372 40.1375,372"/>
    <text font-size="12.7998" style="fill: #000000;text-anchor:middle;font-family:sans-serif;font-style:normal;font-weight:normal" x="80.4125" y="389">
      <tspan x="80.4125" y="389">Authorization</tspan>
      <tspan x="80.4125" y="405">Code</tspan>
    </text>
  </g>
  <g>
    <path style="fill: #ffffff" d="M 40.1375 496 L 120.687,496 C 131.809,496 140.825,504.954 140.825,516 C 140.825,527.046 131.809,536 120.687,536 L 40.1375,536 C 29.0159,536 20,527.046 20,516 C 20,504.954 29.0159,496 40.1375,496z"/>
    <path style="fill: none; fill-opacity:0; stroke-width: 2; stroke: #000000" d="M 40.1375 496 L 120.687,496 C 131.809,496 140.825,504.954 140.825,516 C 140.825,527.046 131.809,536 120.687,536 L 40.1375,536 C 29.0159,536 20,527.046 20,516 C 20,504.954 29.0159,496 40.1375,496"/>
    <text font-size="12.7998" style="fill: #000000;text-anchor:middle;font-family:sans-serif;font-style:normal;font-weight:normal" x="80.4125" y="521">
      <tspan x="80.4125" y="521">ID Token</tspan>
    </text>
  </g>
  <g>
    <path style="fill: #ffffff" d="M 39.2125 545 L 121.612,545 C 132.99,545 142.212,553.954 142.212,565 C 142.212,576.046 132.99,585 121.612,585 L 39.2125,585 C 27.8354,585 18.6125,576.046 18.6125,565 C 18.6125,553.954 27.8354,545 39.2125,545z"/>
    <path style="fill: none; fill-opacity:0; stroke-width: 2; stroke: #000000" d="M 39.2125 545 L 121.612,545 C 132.99,545 142.212,553.954 142.212,565 C 142.212,576.046 132.99,585 121.612,585 L 39.2125,585 C 27.8354,585 18.6125,576.046 18.6125,565 C 18.6125,553.954 27.8354,545 39.2125,545"/>
    <text font-size="12.7998" style="fill: #000000;text-anchor:middle;font-family:sans-serif;font-style:normal;font-weight:normal" x="80.4125" y="570">
      <tspan x="80.4125" y="570">Access Token</tspan>
    </text>
  </g>
  <g>
    <rect style="fill: #e5e5e5" x="440" y="80" width="160" height="40"/>
    <rect style="fill: none; fill-opacity:0; stroke-width: 2; stroke: #000000" x="440" y="80" width="160" height="40"/>
    <text font-size="12.7998" style="fill: #000000;text-anchor:middle;font-family:sans-serif;font-style:normal;font-weight:normal" x="520" y="104.8">
      <tspan x="520" y="104.8">Server</tspan>
    </text>
  </g>
  <text font-size="12.7998" style="fill: #000000;text-anchor:start;font-family:sans-serif;font-style:normal;font-weight:normal" x="20" y="60">
    <tspan x="20" y="60">response_type=code (scope includes openid)</tspan>
  </text>
</svg>
