<?xml version="1.0" encoding="UTF-8" standalone="no"?>
<!-- Created with Inkscape (http://www.inkscape.org/) -->

<svg
   width="183.27081mm"
   height="90.298759mm"
   viewBox="0 0 183.2708 90.298762"
   version="1.1"
   id="svg5"
   xmlns="http://www.w3.org/2000/svg"
   xmlns:svg="http://www.w3.org/2000/svg">
  <defs
     id="defs2">
    <marker
       style="overflow:visible"
       id="Arrow2Lend"
       refX="0"
       refY="0"
       orient="auto">
      <path
         transform="matrix(-1.1,0,0,-1.1,-1.1,0)"
         d="M 8.7185878,4.0337352 -2.2072895,0.01601326 8.7185884,-4.0017078 c -1.7454984,2.3720609 -1.7354408,5.6174519 -6e-7,8.035443 z"
         style="fill:context-stroke;fill-rule:evenodd;stroke:context-stroke;stroke-width:0.625;stroke-linejoin:round"
         id="path12967" />
    </marker>
    <rect
       x="193.94496"
       y="162.23917"
       width="223.28967"
       height="93.430878"
       id="rect1620" />
    <rect
       x="193.94496"
       y="162.23917"
       width="272.53485"
       height="66.109932"
       id="rect8700" />
    <rect
       x="193.94496"
       y="162.23917"
       width="252.63438"
       height="51.268929"
       id="rect13321" />
    <rect
       x="193.94496"
       y="162.23917"
       width="272.53485"
       height="66.109932"
       id="rect16430" />
    <rect
       x="193.94496"
       y="162.23917"
       width="252.63438"
       height="51.268929"
       id="rect16432" />
    <rect
       x="193.94496"
       y="162.23917"
       width="272.53485"
       height="66.109932"
       id="rect7419" />
    <rect
       x="193.94496"
       y="162.23917"
       width="272.53485"
       height="66.109932"
       id="rect11429" />
    <rect
       x="193.94496"
       y="162.23917"
       width="272.53485"
       height="66.109932"
       id="rect12709" />
    <rect
       x="193.94496"
       y="162.23917"
       width="272.53485"
       height="66.109932"
       id="rect12723" />
    <rect
       x="193.94496"
       y="162.23917"
       width="272.53485"
       height="66.109932"
       id="rect13199" />
    <rect
       x="193.94496"
       y="162.23917"
       width="272.53485"
       height="66.109932"
       id="rect13324" />
    <rect
       x="193.94496"
       y="162.23917"
       width="272.53485"
       height="66.109932"
       id="rect13555" />
    <rect
       x="193.94496"
       y="162.23917"
       width="272.53485"
       height="66.109932"
       id="rect13557" />
    <rect
       x="193.94496"
       y="162.23917"
       width="272.53485"
       height="66.109932"
       id="rect13559" />
    <rect
       x="193.94496"
       y="162.23917"
       width="272.53485"
       height="66.109932"
       id="rect13561" />
    <rect
       x="193.94496"
       y="162.23917"
       width="272.53485"
       height="66.109932"
       id="rect13563" />
    <rect
       x="193.94496"
       y="162.23917"
       width="272.53485"
       height="66.109932"
       id="rect13891" />
    <rect
       x="193.94496"
       y="162.23917"
       width="272.53485"
       height="66.109932"
       id="rect14257" />
    <rect
       x="193.94496"
       y="162.23917"
       width="272.53485"
       height="66.109932"
       id="rect6225" />
    <rect
       x="193.94496"
       y="162.23917"
       width="272.53485"
       height="66.109932"
       id="rect9369" />
    <rect
       x="193.94496"
       y="162.23917"
       width="272.53485"
       height="66.109932"
       id="rect9534" />
    <rect
       x="193.94496"
       y="162.23917"
       width="272.53485"
       height="66.109932"
       id="rect2239" />
    <rect
       x="193.94496"
       y="162.23917"
       width="272.53485"
       height="66.109932"
       id="rect930" />
  </defs>
  <g
     id="layer1"
     transform="translate(-39.882286,-34.971616)">
    <rect
       style="fill:none;stroke:#000000;stroke-width:0.249623;stroke-miterlimit:4;stroke-dasharray:none"
       id="rect373"
       width="165.01265"
       height="15.532377"
       x="40.013302"
       y="35.096428"
       ry="0.88968837" />
    <text
       xml:space="preserve"
       id="text1618"
       style="font-style:normal;font-weight:normal;font-size:40px;line-height:1.25;font-family:sans-serif;white-space:pre;shape-inside:url(#rect1620);fill:#000000;fill-opacity:1;stroke:none"
       transform="matrix(0.26458394,0,0,0.2637854,-7.874279,-5.7059319)"><tspan
         x="193.94531"
         y="198.73149"
         id="tspan1025"><tspan
           style="font-family:Arial;-inkscape-font-specification:Arial"
           id="tspan1023">Span</tspan></tspan></text>
    <rect
       style="fill:none;stroke:#000000;stroke-width:0.25;stroke-miterlimit:4;stroke-dasharray:none"
       id="rect8692"
       width="71.885422"
       height="15.532352"
       x="40.007286"
       y="53.878433"
       ry="0.88968682" />
    <text
       xml:space="preserve"
       id="text8696"
       style="font-style:normal;font-weight:normal;font-size:40px;line-height:1.25;font-family:sans-serif;white-space:pre;shape-inside:url(#rect8700);fill:#000000;fill-opacity:1;stroke:none"
       transform="matrix(0.26458333,0,0,0.26458333,-7.9035051,12.85145)"><tspan
         x="193.94531"
         y="198.73149"
         id="tspan1029"><tspan
           style="font-family:Arial;-inkscape-font-specification:Arial"
           id="tspan1027">Segment</tspan></tspan></text>
    <text
       xml:space="preserve"
       id="text13197"
       style="font-style:normal;font-weight:normal;font-size:40px;line-height:1.25;font-family:sans-serif;white-space:pre;shape-inside:url(#rect13199);fill:#000000;fill-opacity:1;stroke:none"
       transform="matrix(0.26458333,0,0,0.26458333,47.282894,47.058428)"><tspan
         x="193.94531"
         y="198.73149"
         id="tspan1031">...</tspan></text>
    <rect
       style="fill:none;stroke:#000000;stroke-width:0.25;stroke-miterlimit:4;stroke-dasharray:none"
       id="rect7409"
       width="52.485001"
       height="15.532352"
       x="-125.14537"
       y="40.00729"
       ry="0.88968682"
       transform="rotate(-90)" />
    <text
       xml:space="preserve"
       id="text7415"
       style="font-style:normal;font-weight:normal;font-size:40px;line-height:1.25;font-family:sans-serif;white-space:pre;shape-inside:url(#rect7419);fill:#000000;fill-opacity:1;stroke:none"
       transform="matrix(0,-0.26458333,0.26458333,0,-1.019694,172.96924)"><tspan
         x="193.94531"
         y="198.73149"
         id="tspan1035"><tspan
           style="font-family:Arial;-inkscape-font-specification:Arial"
           id="tspan1033">Header</tspan></tspan></text>
    <path
       id="rect2096"
       style="fill:none;stroke:#000000;stroke-width:0.25;stroke-miterlimit:4;stroke-dasharray:none"
       d="m 42.484525,71.072959 c -0.492887,0 -0.889868,0.396465 -0.889868,0.889352 v 0.698148 h 13.055534 c 0.492886,0 0.889351,0.396465 0.889351,0.889352 v 50.007799 h 0.698149 c 0.492886,0 0.889351,-0.39646 0.889351,-0.88935 V 71.962311 c 0,-0.492887 -0.396465,-0.889352 -0.889351,-0.889352 z" />
    <rect
       style="fill:none;stroke:#000000;stroke-width:0.25;stroke-miterlimit:4;stroke-dasharray:none"
       id="rect11421"
       width="52.484581"
       height="15.532352"
       x="-125.14537"
       y="58.789642"
       ry="0.88968682"
       transform="rotate(-90)" />
    <text
       xml:space="preserve"
       id="text11425"
       style="font-style:normal;font-weight:normal;font-size:40px;line-height:1.25;font-family:sans-serif;white-space:pre;shape-inside:url(#rect11429);fill:#000000;fill-opacity:1;stroke:none"
       transform="matrix(0,-0.26458333,0.26458333,0,17.762658,172.96924)"><tspan
         x="193.94531"
         y="198.73149"
         id="tspan1039"><tspan
           style="font-family:Arial;-inkscape-font-specification:Arial"
           id="tspan1037">Fragment</tspan></tspan></text>
    <path
       id="rect2179"
       style="fill:none;stroke:#000000;stroke-width:0.25;stroke-miterlimit:4;stroke-dasharray:none"
       d="m 61.266841,71.073478 c -0.492887,0 -0.889868,0.396465 -0.889868,0.889349 v 0.698151 h 13.055533 c 0.492887,0 0.889352,0.396465 0.889352,0.889349 v 50.007283 h 0.698148 c 0.492887,0 0.889352,-0.39646 0.889352,-0.88935 V 71.962827 c 0,-0.492884 -0.396465,-0.889349 -0.889352,-0.889349 z" />
    <rect
       style="fill:none;stroke:#000000;stroke-width:0.25;stroke-miterlimit:4;stroke-dasharray:none"
       id="rect12701"
       width="52.484581"
       height="15.532352"
       x="-125.14538"
       y="77.571999"
       ry="0.88968682"
       transform="rotate(-90)" />
    <text
       xml:space="preserve"
       id="text12705"
       style="font-style:normal;font-weight:normal;font-size:40px;line-height:1.25;font-family:sans-serif;white-space:pre;shape-inside:url(#rect12709);fill:#000000;fill-opacity:1;stroke:none"
       transform="matrix(0,-0.26458333,0.26458333,0,36.545015,172.96925)"><tspan
         x="193.94531"
         y="198.73149"
         id="tspan1043"><tspan
           style="font-family:Arial;-inkscape-font-specification:Arial"
           id="tspan1041">Fragment</tspan></tspan></text>
    <rect
       style="fill:none;stroke:#000000;stroke-width:0.25;stroke-miterlimit:4;stroke-dasharray:none"
       id="rect13316"
       width="71.885422"
       height="15.532352"
       x="115.1367"
       y="53.878433"
       ry="0.88968682" />
    <text
       xml:space="preserve"
       id="text13320"
       style="font-style:normal;font-weight:normal;font-size:40px;line-height:1.25;font-family:sans-serif;white-space:pre;shape-inside:url(#rect13324);fill:#000000;fill-opacity:1;stroke:none"
       transform="matrix(0.26458333,0,0,0.26458333,67.225906,12.85145)"><tspan
         x="193.94531"
         y="198.73149"
         id="tspan1047"><tspan
           style="font-family:Arial;-inkscape-font-specification:Arial"
           id="tspan1045">Segment</tspan></tspan></text>
    <path
       id="rect1942"
       style="fill:none;stroke:#000000;stroke-width:0.25;stroke-miterlimit:4;stroke-dasharray:none"
       d="m 117.61379,52.291161 c -0.49289,0 -0.88935,0.396465 -0.88935,0.889351 v 0.698149 h 69.40816 c 0.49289,0 0.88935,0.396465 0.88935,0.889351 V 67.82303 h 0.69815 c 0.49289,0 0.88935,-0.396465 0.88935,-0.889352 V 53.180512 c 0,-0.492886 -0.39646,-0.889351 -0.88935,-0.889351 z" />
    <text
       xml:space="preserve"
       id="text13529"
       style="font-style:normal;font-weight:normal;font-size:40px;line-height:1.25;font-family:sans-serif;white-space:pre;shape-inside:url(#rect13557);fill:#000000;fill-opacity:1;stroke:none"
       transform="matrix(0.26458333,0,0,0.26458333,122.4123,47.058421)"><tspan
         x="193.94531"
         y="198.73149"
         id="tspan1049">...</tspan></text>
    <rect
       style="fill:none;stroke:#000000;stroke-width:0.25;stroke-miterlimit:4;stroke-dasharray:none"
       id="rect13531"
       width="52.484581"
       height="15.532352"
       x="-125.14537"
       y="115.1367"
       ry="0.88968682"
       transform="rotate(-90)" />
    <text
       xml:space="preserve"
       id="text13535"
       style="font-style:normal;font-weight:normal;font-size:40px;line-height:1.25;font-family:sans-serif;white-space:pre;shape-inside:url(#rect13559);fill:#000000;fill-opacity:1;stroke:none"
       transform="matrix(0,-0.26458333,0.26458333,0,74.109722,172.96924)"><tspan
         x="193.94531"
         y="198.73149"
         id="tspan1053"><tspan
           style="font-family:Arial;-inkscape-font-specification:Arial"
           id="tspan1051">Header</tspan></tspan></text>
    <path
       id="rect2264"
       style="fill:none;stroke:#000000;stroke-width:0.25;stroke-miterlimit:4;stroke-dasharray:none"
       d="m 117.61379,71.07348 c -0.49289,0 -0.88935,0.396465 -0.88935,0.889349 v 0.698151 h 13.05501 c 0.49289,0 0.88935,0.396465 0.88935,0.889349 v 50.007281 h 0.69815 c 0.49289,0 0.88935,-0.39646 0.88935,-0.88935 V 71.962829 c 0,-0.492884 -0.39646,-0.889349 -0.88935,-0.889349 z" />
    <rect
       style="fill:none;stroke:#000000;stroke-width:0.25;stroke-miterlimit:4;stroke-dasharray:none"
       id="rect13539"
       width="52.484581"
       height="15.532352"
       x="-125.14538"
       y="133.91907"
       ry="0.88968682"
       transform="rotate(-90)" />
    <text
       xml:space="preserve"
       id="text13543"
       style="font-style:normal;font-weight:normal;font-size:40px;line-height:1.25;font-family:sans-serif;white-space:pre;shape-inside:url(#rect13561);fill:#000000;fill-opacity:1;stroke:none"
       transform="matrix(0,-0.26458333,0.26458333,0,92.892078,172.96925)"><tspan
         x="193.94531"
         y="198.73149"
         id="tspan1057"><tspan
           style="font-family:Arial;-inkscape-font-specification:Arial"
           id="tspan1055">Fragment</tspan></tspan></text>
    <path
       id="rect2291"
       style="fill:none;stroke:#000000;stroke-width:0.25;stroke-miterlimit:4;stroke-dasharray:none"
       d="m 136.39611,71.073474 c -0.49289,0 -0.88936,0.396465 -0.88936,0.889349 v 0.698151 h 13.05502 c 0.49289,0 0.88987,0.396465 0.88987,0.889349 v 50.007797 h 0.69763 c 0.49289,0 0.88987,-0.39698 0.88987,-0.88986 V 71.962823 c 0,-0.492884 -0.39698,-0.889349 -0.88987,-0.889349 z" />
    <rect
       style="fill:none;stroke:#000000;stroke-width:0.25;stroke-miterlimit:4;stroke-dasharray:none"
       id="rect13547"
       width="52.484581"
       height="15.532352"
       x="-125.14537"
       y="152.7014"
       ry="0.88968682"
       transform="rotate(-90)" />
    <text
       xml:space="preserve"
       id="text13551"
       style="font-style:normal;font-weight:normal;font-size:40px;line-height:1.25;font-family:sans-serif;white-space:pre;shape-inside:url(#rect13563);fill:#000000;fill-opacity:1;stroke:none"
       transform="matrix(0,-0.26458333,0.26458333,0,111.67442,172.96924)"><tspan
         x="193.94531"
         y="198.73149"
         id="tspan1061"><tspan
           style="font-family:Arial;-inkscape-font-specification:Arial"
           id="tspan1059">Fragment</tspan></tspan></text>
    <path
       id="rect2314"
       style="fill:none;stroke:#000000;stroke-width:0.25;stroke-miterlimit:4;stroke-dasharray:none"
       d="m 155.17842,71.073478 c -0.49289,0 -0.88935,0.396465 -0.88935,0.889349 v 0.698151 h 13.05502 c 0.49288,0 0.88986,0.396465 0.88986,0.889349 v 50.007283 h 0.69764 c 0.49288,0 0.88986,-0.39646 0.88986,-0.88935 V 71.962827 c 0,-0.492884 -0.39698,-0.889349 -0.88986,-0.889349 z" />
    <text
       xml:space="preserve"
       id="text13889"
       style="font-style:normal;font-weight:normal;font-size:40px;line-height:1.25;font-family:sans-serif;white-space:pre;shape-inside:url(#rect13891);fill:#000000;fill-opacity:1;stroke:none"
       transform="matrix(0.26458333,0,0,0.26458333,140.41609,9.7999576)"><tspan
         x="193.94531"
         y="198.73149"
         id="tspan1063">...</tspan></text>
    <path
       id="rect1175"
       style="fill:none;stroke:#000000;stroke-width:0.944882;stroke-miterlimit:4;stroke-dasharray:none"
       d="m 9.8125,65.458984 c -1.8628781,0 -3.3632812,1.49845 -3.3632812,3.361328 v 2.638672 H 268.7793 c 1.86287,0 3.36328,1.49845 3.36328,3.361328 v 49.341798 h 2.63672 c 1.86287,0 3.36328,-1.49845 3.36328,-3.36133 V 68.820312 c 0,-1.862878 -1.50041,-3.361328 -3.36328,-3.361328 z"
       transform="matrix(0.26458333,0,0,0.26458333,39.888301,34.971805)" />
    <path
       id="rect2241"
       style="fill:none;stroke:#000000;stroke-width:0.25;stroke-miterlimit:4;stroke-dasharray:none"
       d="m 80.049156,71.073483 c -0.492887,0 -0.889868,0.396465 -0.889868,0.889349 v 0.698151 h 13.055534 c 0.492887,0 0.889352,0.396465 0.889352,0.889349 v 50.007798 h 0.698148 c 0.492887,0 0.889352,-0.39698 0.889352,-0.88987 V 71.962832 c 0,-0.492884 -0.396465,-0.889349 -0.889352,-0.889349 z" />
    <text
       xml:space="preserve"
       id="text928"
       style="font-style:normal;font-weight:normal;font-size:40px;line-height:1.25;font-family:sans-serif;white-space:pre;shape-inside:url(#rect930);fill:#000000;fill-opacity:1;stroke:none"
       transform="matrix(0.26458333,0,0,0.26458333,158.7195,-8.9820347)"><tspan
         x="193.94531"
         y="198.73149"
         id="tspan1065">...</tspan></text>
  </g>
</svg>
