<?xml version="1.0" encoding="UTF-8" standalone="no"?>
<!-- Created with Inkscape (http://www.inkscape.org/) -->

<svg
   width="162.65897mm"
   height="91.893135mm"
   viewBox="0 0 162.65896 91.893137"
   version="1.1"
   id="svg5"
   xmlns="http://www.w3.org/2000/svg"
   xmlns:svg="http://www.w3.org/2000/svg">
  <defs
     id="defs2">
    <marker
       style="overflow:visible"
       id="Arrow2Lend"
       refX="0"
       refY="0"
       orient="auto">
      <path
         transform="matrix(-1.1,0,0,-1.1,-1.1,0)"
         d="M 8.7185878,4.0337352 -2.2072895,0.01601326 8.7185884,-4.0017078 c -1.7454984,2.3720609 -1.7354408,5.6174519 -6e-7,8.035443 z"
         style="fill:context-stroke;fill-rule:evenodd;stroke:context-stroke;stroke-width:0.625;stroke-linejoin:round"
         id="path12967" />
    </marker>
    <rect
       x="193.94496"
       y="162.23917"
       width="250.51038"
       height="93.701202"
       id="rect1620" />
    <rect
       x="193.94496"
       y="162.23917"
       width="272.53485"
       height="66.109932"
       id="rect8700" />
    <rect
       x="193.94496"
       y="162.23917"
       width="252.63438"
       height="51.268929"
       id="rect13321" />
    <rect
       x="193.94496"
       y="162.23917"
       width="272.53485"
       height="66.109932"
       id="rect16430" />
    <rect
       x="193.94496"
       y="162.23917"
       width="252.63438"
       height="51.268929"
       id="rect16432" />
    <rect
       x="193.94496"
       y="162.23917"
       width="272.53485"
       height="66.109932"
       id="rect7419" />
    <rect
       x="193.94496"
       y="162.23917"
       width="272.53485"
       height="66.109932"
       id="rect11429" />
    <rect
       x="193.94496"
       y="162.23917"
       width="272.53485"
       height="66.109932"
       id="rect12709" />
    <rect
       x="193.94496"
       y="162.23917"
       width="272.53485"
       height="66.109932"
       id="rect12723" />
    <rect
       x="193.94496"
       y="162.23917"
       width="272.53485"
       height="66.109932"
       id="rect13199" />
    <rect
       x="193.94496"
       y="162.23917"
       width="272.53485"
       height="66.109932"
       id="rect13324" />
    <rect
       x="193.94496"
       y="162.23917"
       width="272.53485"
       height="66.109932"
       id="rect13555" />
    <rect
       x="193.94496"
       y="162.23917"
       width="272.53485"
       height="66.109932"
       id="rect13557" />
    <rect
       x="193.94496"
       y="162.23917"
       width="272.53485"
       height="66.109932"
       id="rect13559" />
    <rect
       x="193.94496"
       y="162.23917"
       width="272.53485"
       height="66.109932"
       id="rect13561" />
    <rect
       x="193.94496"
       y="162.23917"
       width="272.53485"
       height="66.109932"
       id="rect13563" />
    <rect
       x="193.94496"
       y="162.23917"
       width="272.53485"
       height="66.109932"
       id="rect13891" />
    <rect
       x="193.94496"
       y="162.23917"
       width="272.53485"
       height="66.109932"
       id="rect14257" />
    <rect
       x="193.94496"
       y="162.23917"
       width="272.53485"
       height="66.109932"
       id="rect6225" />
    <rect
       x="193.94496"
       y="162.23917"
       width="272.53485"
       height="66.109932"
       id="rect9369" />
    <rect
       x="193.94496"
       y="162.23917"
       width="272.53485"
       height="66.109932"
       id="rect9534" />
    <rect
       x="193.94496"
       y="162.23917"
       width="272.53485"
       height="66.109932"
       id="rect2239" />
    <rect
       x="193.94496"
       y="162.23917"
       width="272.53485"
       height="66.109932"
       id="rect930" />
  </defs>
  <g
     id="layer1"
     transform="translate(-39.874995,-33.377236)">
    <rect
       style="fill:none;stroke:#000000;stroke-width:0.249623;stroke-miterlimit:4;stroke-dasharray:none"
       id="rect373"
       width="147.50787"
       height="15.532379"
       x="40.013302"
       y="35.096428"
       ry="0.88968837" />
    <text
       xml:space="preserve"
       id="text1618"
       style="font-style:normal;font-weight:normal;font-size:40px;line-height:1.25;font-family:sans-serif;white-space:pre;shape-inside:url(#rect1620);fill:#000000;fill-opacity:1;stroke:none"
       transform="matrix(0.26458394,0,0,0.2637854,-7.874279,-5.7059319)"><tspan
         x="193.94531"
         y="198.73149"
         id="tspan1464"><tspan
           style="font-family:Arial;-inkscape-font-specification:Arial"
           id="tspan1462">Span</tspan></tspan></text>
    <text
       xml:space="preserve"
       id="text8696"
       style="font-style:normal;font-weight:normal;font-size:40px;line-height:1.25;font-family:sans-serif;white-space:pre;shape-inside:url(#rect8700);fill:#000000;fill-opacity:1;stroke:none"
       transform="matrix(0.26458333,0,0,0.26458333,-7.9035051,12.85145)"><tspan
         x="193.94531"
         y="198.73149"
         id="tspan1468"><tspan
           style="font-family:Arial;-inkscape-font-specification:Arial"
           id="tspan1466">Segment</tspan></tspan></text>
    <text
       xml:space="preserve"
       id="text13197"
       style="font-style:normal;font-weight:normal;font-size:40px;line-height:1.25;font-family:sans-serif;white-space:pre;shape-inside:url(#rect13199);fill:#000000;fill-opacity:1;stroke:none"
       transform="matrix(0.26458333,0,0,0.26458333,40.50226,47.058428)"><tspan
         x="193.94531"
         y="198.73149"
         id="tspan1470">...</tspan></text>
    <rect
       style="fill:none;stroke:#000000;stroke-width:0.25;stroke-miterlimit:4;stroke-dasharray:none"
       id="rect7409"
       width="52.484573"
       height="47.097355"
       x="-125.14537"
       y="40.00729"
       ry="0.88968682"
       transform="rotate(-90)" />
    <text
       xml:space="preserve"
       id="text7415"
       style="font-style:normal;font-weight:normal;font-size:40px;line-height:1.25;font-family:sans-serif;white-space:pre;shape-inside:url(#rect7419);fill:#000000;fill-opacity:1;stroke:none"
       transform="matrix(0,-0.26458333,0.26458333,0,-1.019694,172.96924)"><tspan
         x="193.94531"
         y="198.73149"
         id="tspan1474"><tspan
           style="font-family:Arial;-inkscape-font-specification:Arial"
           id="tspan1472">Header</tspan></tspan></text>
    <path
       id="rect2096"
       style="fill:none;stroke:#000000;stroke-width:0.25;stroke-miterlimit:4;stroke-dasharray:none"
       d="m 87.135307,123.55761 h 0.698149 c 0.492886,0 0.889351,-0.39646 0.889351,-0.88935 V 71.962311 c 0,-0.492887 -0.396465,-0.889352 -0.889351,-0.889352 H 42.484525 c -0.492887,0 -0.889868,0.396465 -0.889868,0.889352 v 0.698148" />
    <text
       xml:space="preserve"
       id="text11425"
       style="font-style:normal;font-weight:normal;font-size:40px;line-height:1.25;font-family:sans-serif;white-space:pre;shape-inside:url(#rect11429);fill:#000000;fill-opacity:1;stroke:none"
       transform="matrix(0,-0.26458333,0.26458333,0,14.762302,172.96924)"><tspan
         x="193.94531"
         y="198.73149"
         id="tspan1478"><tspan
           style="font-family:Arial;-inkscape-font-specification:Arial"
           id="tspan1476">Fragment</tspan></tspan></text>
    <text
       xml:space="preserve"
       id="text12705"
       style="font-style:normal;font-weight:normal;font-size:40px;line-height:1.25;font-family:sans-serif;white-space:pre;shape-inside:url(#rect12709);fill:#000000;fill-opacity:1;stroke:none"
       transform="matrix(0,-0.26458333,0.26458333,0,30.545299,172.96925)"><tspan
         x="193.94531"
         y="198.73149"
         id="tspan1482"><tspan
           style="font-family:Arial;-inkscape-font-specification:Arial"
           id="tspan1480">Fragment</tspan></tspan></text>
    <text
       xml:space="preserve"
       id="text13320"
       style="font-style:normal;font-weight:normal;font-size:40px;line-height:1.25;font-family:sans-serif;white-space:pre;shape-inside:url(#rect13324);fill:#000000;fill-opacity:1;stroke:none"
       transform="matrix(0.26458333,0,0,0.26458333,57.057842,12.85145)"><tspan
         x="193.94531"
         y="198.73149"
         id="tspan1486"><tspan
           style="font-family:Arial;-inkscape-font-specification:Arial"
           id="tspan1484">Segment</tspan></tspan></text>
    <text
       xml:space="preserve"
       id="text13529"
       style="font-style:normal;font-weight:normal;font-size:40px;line-height:1.25;font-family:sans-serif;white-space:pre;shape-inside:url(#rect13557);fill:#000000;fill-opacity:1;stroke:none"
       transform="matrix(0.26458333,0,0,0.26458333,105.46975,47.058421)"><tspan
         x="193.94531"
         y="198.73149"
         id="tspan1488">...</tspan></text>
    <rect
       style="fill:none;stroke:#000000;stroke-width:0.25;stroke-miterlimit:4;stroke-dasharray:none"
       id="rect13531"
       width="52.484581"
       height="47.097343"
       x="-125.14537"
       y="104.97439"
       ry="0.88968682"
       transform="rotate(-90)" />
    <text
       xml:space="preserve"
       id="text13535"
       style="font-style:normal;font-weight:normal;font-size:40px;line-height:1.25;font-family:sans-serif;white-space:pre;shape-inside:url(#rect13559);fill:#000000;fill-opacity:1;stroke:none"
       transform="matrix(0,-0.26458333,0.26458333,0,63.947413,172.96924)"><tspan
         x="193.94531"
         y="198.73149"
         id="tspan1492"><tspan
           style="font-family:Arial;-inkscape-font-specification:Arial"
           id="tspan1490">Header</tspan></tspan></text>
    <text
       xml:space="preserve"
       id="text13543"
       style="font-style:normal;font-weight:normal;font-size:40px;line-height:1.25;font-family:sans-serif;white-space:pre;shape-inside:url(#rect13561);fill:#000000;fill-opacity:1;stroke:none"
       transform="matrix(0,-0.26458333,0.26458333,0,79.730405,172.96925)"><tspan
         x="193.94531"
         y="198.73149"
         id="tspan1496"><tspan
           style="font-family:Arial;-inkscape-font-specification:Arial"
           id="tspan1494">Fragment</tspan></tspan></text>
    <text
       xml:space="preserve"
       id="text13551"
       style="font-style:normal;font-weight:normal;font-size:40px;line-height:1.25;font-family:sans-serif;white-space:pre;shape-inside:url(#rect13563);fill:#000000;fill-opacity:1;stroke:none"
       transform="matrix(0,-0.26458333,0.26458333,0,95.512418,172.96924)"><tspan
         x="193.94531"
         y="198.73149"
         id="tspan1500"><tspan
           style="font-family:Arial;-inkscape-font-specification:Arial"
           id="tspan1498">Fragment</tspan></tspan></text>
    <text
       xml:space="preserve"
       id="text13889"
       style="font-style:normal;font-weight:normal;font-size:40px;line-height:1.25;font-family:sans-serif;white-space:pre;shape-inside:url(#rect13891);fill:#000000;fill-opacity:1;stroke:none"
       transform="matrix(0.26458333,0,0,0.26458333,123.17394,9.7999576)"><tspan
         x="193.94531"
         y="198.73149"
         id="tspan1502">...</tspan></text>
    <text
       xml:space="preserve"
       id="text928"
       style="font-style:normal;font-weight:normal;font-size:40px;line-height:1.25;font-family:sans-serif;white-space:pre;shape-inside:url(#rect930);fill:#000000;fill-opacity:1;stroke:none"
       transform="matrix(0.26458333,0,0,0.26458333,140.97699,-8.9820347)"><tspan
         x="193.94531"
         y="198.73149"
         id="tspan1504">...</tspan></text>
    <path
       style="fill:none;stroke:#000000;stroke-width:0.264583px;stroke-linecap:butt;stroke-linejoin:miter;stroke-opacity:1"
       d="M 40.896973,53.878433 H 168.87853 c 0.49289,0 0.88969,0.396801 0.88969,0.889687 v 13.752975 c 0,0.492887 -0.3968,0.889687 -0.88969,0.889687 H 40.896973 c -0.492887,0 -0.889687,-0.3968 -0.889687,-0.889687 V 54.76812 c 0,-0.492886 0.3968,-0.889687 0.889687,-0.889687 z"
       id="path39390" />
    <path
       style="fill:none;stroke:#000000;stroke-width:0.264583px;stroke-linecap:butt;stroke-linejoin:miter;stroke-opacity:1"
       d="M 104.84939,53.878433 V 69.410782"
       id="path29306" />
    <path
       style="fill:none;stroke:#000000;stroke-width:0.264583px;stroke-linecap:butt;stroke-linejoin:miter;stroke-opacity:1"
       d="m 169.76833,67.82303 h 0.69815 c 0.49289,0 0.88987,-0.396465 0.88987,-0.889352 V 53.180512 c 0,-0.492886 -0.39698,-0.889351 -0.88987,-0.889351 H 42.484525 c -0.492887,0 -0.889868,0.396465 -0.889868,0.889351 v 0.698149"
       id="path39412" />
    <path
       style="fill:none;stroke:#000000;stroke-width:0.264583px;stroke-linecap:butt;stroke-linejoin:miter;stroke-opacity:1"
       d="m 187.52118,49.041396 h 0.69815 c 0.49289,0 0.88987,-0.396465 0.88987,-0.889352 V 34.398878 c 0,-0.492886 -0.39698,-0.889351 -0.88987,-0.889351 H 42.490598 c -0.492887,0 -0.889868,0.396465 -0.889868,0.889351 v 0.698149"
       id="path39412-9" />
    <path
       style="fill:none;stroke:#000000;stroke-width:0.264583px;stroke-linecap:butt;stroke-linejoin:miter;stroke-opacity:1"
       d="m 106.43097,52.166161 v 1.712272"
       id="path30198" />
    <path
       style="fill:none;stroke:#000000;stroke-width:0.264583px;stroke-linecap:butt;stroke-linejoin:miter;stroke-opacity:1"
       d="M 55.670653,72.660797 V 125.14537"
       id="path36660" />
    <path
       style="fill:none;stroke:#000000;stroke-width:0.264583px;stroke-linecap:butt;stroke-linejoin:miter;stroke-opacity:1"
       d="M 71.447289,125.14537 V 72.660797"
       id="path36662" />
    <path
       style="fill:none;stroke:#000000;stroke-width:0.264583px;stroke-linecap:butt;stroke-linejoin:miter;stroke-opacity:1"
       d="m 57.251617,71.072958 v 1.587839"
       id="path36777" />
    <path
       style="fill:none;stroke:#000000;stroke-width:0.264583px;stroke-linecap:butt;stroke-linejoin:miter;stroke-opacity:1"
       d="m 73.034,71.072958 v 1.587839"
       id="path36779" />
    <path
       id="path53501"
       style="fill:none;stroke:#000000;stroke-width:0.25;stroke-miterlimit:4;stroke-dasharray:none"
       d="m 152.10278,123.55813 h 0.69815 c 0.49288,0 0.88935,-0.39646 0.88935,-0.88935 V 71.962829 c 0,-0.492887 -0.39647,-0.889352 -0.88935,-0.889352 h -45.34894 c -0.49288,0 -0.88986,0.396465 -0.88986,0.889352 v 0.698148" />
    <path
       style="fill:none;stroke:#000000;stroke-width:0.264583px;stroke-linecap:butt;stroke-linejoin:miter;stroke-opacity:1"
       d="m 122.21909,71.073476 v 1.587839"
       id="path53503" />
    <path
       style="fill:none;stroke:#000000;stroke-width:0.264583px;stroke-linecap:butt;stroke-linejoin:miter;stroke-opacity:1"
       d="m 138.00147,71.073476 v 1.587839"
       id="path53505" />
    <path
       style="fill:none;stroke:#000000;stroke-width:0.264583px;stroke-linecap:butt;stroke-linejoin:miter;stroke-opacity:1"
       d="M 120.63812,72.660789 V 125.14536"
       id="path53776" />
    <path
       style="fill:none;stroke:#000000;stroke-width:0.264583px;stroke-linecap:butt;stroke-linejoin:miter;stroke-opacity:1"
       d="M 136.41475,125.14536 V 72.660789"
       id="path53778" />
  </g>
</svg>
