<?xml version="1.0" encoding="UTF-8" standalone="no"?>
<!-- Created with Inkscape (http://www.inkscape.org/) -->

<svg
   width="287.51129mm"
   height="33.378353mm"
   viewBox="0 0 287.51128 33.378352"
   version="1.1"
   id="svg5"
   xmlns="http://www.w3.org/2000/svg"
   xmlns:svg="http://www.w3.org/2000/svg">
  <defs
     id="defs2">
    <marker
       style="overflow:visible"
       id="Arrow2Lend"
       refX="0"
       refY="0"
       orient="auto">
      <path
         transform="matrix(-1.1,0,0,-1.1,-1.1,0)"
         d="M 8.7185878,4.0337352 -2.2072895,0.01601326 8.7185884,-4.0017078 c -1.7454984,2.3720609 -1.7354408,5.6174519 -6e-7,8.035443 z"
         style="fill:context-stroke;fill-rule:evenodd;stroke:context-stroke;stroke-width:0.625;stroke-linejoin:round"
         id="path12967" />
    </marker>
    <rect
       x="193.94496"
       y="162.23917"
       width="223.28967"
       height="93.430878"
       id="rect1620" />
    <rect
       x="193.94496"
       y="162.23917"
       width="272.53485"
       height="66.109932"
       id="rect8700" />
    <rect
       x="193.94496"
       y="162.23917"
       width="252.63438"
       height="51.268929"
       id="rect13321" />
    <rect
       x="193.94496"
       y="162.23917"
       width="272.53485"
       height="66.109932"
       id="rect16430" />
    <rect
       x="193.94496"
       y="162.23917"
       width="252.63438"
       height="51.268929"
       id="rect16432" />
    <rect
       x="193.94496"
       y="162.23917"
       width="252.63438"
       height="51.268929"
       id="rect4519" />
    <rect
       x="193.94496"
       y="162.23917"
       width="223.28967"
       height="93.430878"
       id="rect1211" />
    <rect
       x="193.94496"
       y="162.23917"
       width="272.53485"
       height="66.109932"
       id="rect1219" />
    <rect
       x="193.94496"
       y="162.23917"
       width="272.53485"
       height="66.109932"
       id="rect1253" />
    <rect
       x="193.94496"
       y="162.23917"
       width="252.63438"
       height="51.268929"
       id="rect1463" />
    <rect
       x="193.94496"
       y="162.23917"
       width="252.63438"
       height="51.268929"
       id="rect1479" />
    <rect
       x="193.94496"
       y="162.23917"
       width="223.28967"
       height="93.430878"
       id="rect2352" />
    <rect
       x="193.94496"
       y="162.23917"
       width="272.53485"
       height="66.109932"
       id="rect2354" />
    <rect
       x="193.94496"
       y="162.23917"
       width="272.53485"
       height="66.109932"
       id="rect2356" />
    <rect
       x="193.94496"
       y="162.23917"
       width="252.63438"
       height="51.268929"
       id="rect2358" />
    <rect
       x="193.94496"
       y="162.23917"
       width="252.63438"
       height="51.268929"
       id="rect2360" />
  </defs>
  <g
     id="layer1"
     transform="translate(-43.13078,-133.56741)">
    <path
       d="m 287.77585,143.09233 -4.60741,4.60754 -0.7485,-0.7485 3.33002,-3.32988 H 201.5813 v -1.05832 h 84.16866 l -3.33002,-3.32988 0.7485,-0.7485 z"
       id="path2330"
       style="stroke-width:0.13229" />
    <text
       xml:space="preserve"
       id="text2316"
       style="font-style:normal;font-weight:normal;font-size:40px;line-height:1.25;font-family:sans-serif;white-space:pre;shape-inside:url(#rect2352);fill:#000000;fill-opacity:1;stroke:none"
       transform="matrix(0.26458333,0,0,0.26458333,-9.0004046,112.13747)"><tspan
         x="193.94531"
         y="198.26846"
         id="tspan26912"><tspan
           style="font-family:Arial;-inkscape-font-specification:Arial"
           id="tspan26910">Device</tspan></tspan></text>
    <path
       d="m 65.416194,144.08261 3.838191,-5.08346 -18.832303,-4.38019 -1.318684,5.66951 6.700324,1.5584 -0.999728,4.29883 c -0.05583,0.0402 -0.109405,0.0829 -0.16087,0.12832 h -3.36723 c 0,-1.16708 -0.949593,-2.11667 -2.116671,-2.11667 h -1.058338 v 7.40836 h 1.058338 c 1.167078,0 2.116671,-0.9496 2.116671,-2.11668 h 3.36723 c 0.372931,0.32822 0.860562,0.52917 1.395284,0.52917 1.167083,0 2.116676,-0.94959 2.116676,-2.11667 0,-0.36473 -0.09274,-0.70829 -0.255986,-1.0082 l 0.997083,-4.28719 z m -8.581649,-1.99589 1.030818,0.23971 -0.850903,3.6588 a 2.1017237,2.1017237 0 0 0 -0.976052,-0.24037 c -0.01865,0 -0.0368,0.002 -0.0553,0.003 z m -7.675322,8.42065 v -5.29168 c 0.583542,0 1.058338,0.47479 1.058338,1.05833 v 3.17501 c 0,0.58354 -0.474796,1.05834 -1.058338,1.05834 z m 2.116671,-3.17501 h 2.715558 c -0.0439,0.16947 -0.06971,0.34621 -0.06971,0.52917 0,0.18296 0.0258,0.3597 0.06971,0.52917 h -2.715558 z m 4.762514,1.58751 c -0.583537,0 -1.058333,-0.4748 -1.058333,-1.05834 0,-0.58354 0.474796,-1.05834 1.058333,-1.05834 0.583541,0 1.058338,0.4748 1.058338,1.05834 0,0.58354 -0.474797,1.05834 -1.058338,1.05834 z m -5.664347,-9.42237 0.838998,-3.608 16.215696,3.77151 -2.442642,3.23494 -6.824414,-1.58724 -2.117996,-0.49266 -5.669512,-1.31855 z"
       id="path2332"
       style="stroke-width:0.132292" />
    <text
       xml:space="preserve"
       id="text2322"
       style="font-style:normal;font-weight:normal;font-size:40px;line-height:1.25;font-family:sans-serif;white-space:pre;shape-inside:url(#rect2354);fill:#000000;fill-opacity:1;stroke:none"
       transform="matrix(0.26458333,0,0,0.26458333,96.132278,112.13747)"><tspan
         x="193.94531"
         y="198.26846"
         id="tspan26916"><tspan
           style="font-family:Arial;-inkscape-font-specification:Arial"
           id="tspan26914">Object storage</tspan></tspan></text>
    <path
       d="m 186.13041,141.95463 v -5.29167 l -4.23333,-1.82563 -4.23333,1.82563 v 5.29167 l -3.70417,1.5875 v 5.99281 l 4.23333,1.81239 3.70417,-1.5875 3.70417,1.5875 4.23333,-1.81239 v -5.99281 z m -0.52916,2.93687 -2.3548,-1.00542 0.7673,-0.33073 1.5875,-0.67468 2.35479,1.00541 z m -4.23334,-5.95312 v 4.14072 l -1.05833,-0.44979 -1.5875,-0.67468 v -4.14073 z m 2.11667,3.69093 -1.05833,0.44979 v -4.14072 l 2.64583,-1.13771 v 4.14073 z m -3.70417,0.92604 0.76729,0.33073 -2.35479,1.00542 -2.35479,-1.00542 2.35479,-1.00541 z m -1.05833,2.26219 2.64583,-1.13771 v 4.14073 l -2.64583,1.13771 z m 5.52979,-8.81062 -2.35479,1.00541 -2.35479,-1.00541 2.35479,-1.00542 z m -9.23396,7.68614 2.64584,1.13771 v 4.14073 l -2.64584,-1.13771 z m 7.40834,0 2.64583,1.13771 v 4.14073 l -2.64583,-1.13771 z m 3.70416,5.26521 v -4.14073 l 2.64584,-1.13771 v 4.14073 z"
       id="path2334"
       style="stroke-width:0.132291" />
    <path
       d="m 163.20754,143.09233 -4.60741,4.60754 -0.7485,-0.74849 3.33002,-3.32989 H 80.006426 v -1.05832 h 81.175224 l -3.33002,-3.32988 0.7485,-0.7485 z"
       id="path2336"
       style="stroke-width:0.13229" />
    <text
       xml:space="preserve"
       id="text2328"
       style="font-style:normal;font-weight:normal;font-size:40px;line-height:1.25;font-family:sans-serif;white-space:pre;shape-inside:url(#rect2356);fill:#000000;fill-opacity:1;stroke:none"
       transform="matrix(0.26458333,0,0,0.26458333,237.42295,112.13747)"><tspan
         x="193.94531"
         y="198.26846"
         id="tspan26920"><tspan
           style="font-family:Arial;-inkscape-font-specification:Arial"
           id="tspan26918">Receiver</tspan></tspan></text>
    <path
       d="m 310.10583,136.14337 -3.70414,1.96438 v 4.67754 l 3.70414,1.96438 3.70414,-1.96438 v -4.67754 z m 2.04548,2.28268 -2.04548,1.08478 -2.04548,-1.08478 2.04548,-1.08479 z m -4.69129,0.8796 2.11665,1.12248 v 2.84293 l -2.11665,-1.12236 z m 3.17497,3.96541 v -2.84293 l 2.11665,-1.12248 v 2.84292 z m 5.82079,9.34619 c -2.33427,0 -4.2333,-1.89902 -4.2333,-4.23329 0,-2.33427 1.89903,-4.2333 4.2333,-4.2333 2.33427,0 4.2333,1.89903 4.2333,4.2333 0,2.33427 -1.89903,4.23329 -4.2333,4.23329 z m 0,-7.40827 c -1.75073,0 -3.17497,1.42424 -3.17497,3.17498 0,1.75073 1.42424,3.17497 3.17497,3.17497 1.75073,0 3.17498,-1.42424 3.17498,-3.17497 0,-1.75074 -1.42425,-3.17498 -3.17498,-3.17498 z m -1.05832,1.47412 2.64581,1.70086 -2.64581,1.70086 z m -7.40828,2.75918 v -2.11665 h -8.4666 v -13.75822 h 21.1665 v 11.64528 a 5.3367364,5.3367364 0 0 0 -1.05832,-1.05912 v -9.52784 h -19.04985 v 11.64158 h 11.02642 a 5.2449266,5.2449266 0 0 0 -0.33668,1.05832 h -2.22314 v 2.11665 h 2.22314 a 5.2449266,5.2449266 0 0 0 0.33668,1.05833 h -5.7348 v -1.05833 z"
       id="path2338"
       style="stroke-width:0.13229" />
    <text
       xml:space="preserve"
       id="text2344"
       style="font-style:normal;font-weight:normal;font-size:40px;line-height:1.25;font-family:sans-serif;white-space:pre;shape-inside:url(#rect2358);fill:#000000;fill-opacity:1;stroke:none"
       transform="matrix(0.26458333,0,0,0.26458333,53.55429,101.63626)"><tspan
         x="193.94531"
         y="198.26846"
         id="tspan26924"><tspan
           style="font-family:Arial;-inkscape-font-specification:Arial"
           id="tspan26922">objects</tspan></tspan></text>
    <text
       xml:space="preserve"
       id="text2350"
       style="font-style:normal;font-weight:normal;font-size:40px;line-height:1.25;font-family:sans-serif;white-space:pre;shape-inside:url(#rect2360);fill:#000000;fill-opacity:1;stroke:none"
       transform="matrix(0.26458333,0,0,0.26458333,176.62588,101.63626)"><tspan
         x="193.94531"
         y="198.26846"
         id="tspan26928"><tspan
           style="font-family:Arial;-inkscape-font-specification:Arial"
           id="tspan26926">objects</tspan></tspan></text>
  </g>
</svg>
