<?xml version="1.0" encoding="UTF-8" standalone="no"?>
<!DOCTYPE svg PUBLIC "-//W3C//DTD SVG 1.0//EN" "http://www.w3.org/TR/2001/PR-SVG-20010719/DTD/svg10.dtd">
<svg width="31cm" height="10cm" viewBox="38 80 604 184" xmlns="http://www.w3.org/2000/svg" xmlns:xlink="http://www.w3.org/1999/xlink">
  <text font-size="12.7998" style="fill: #000000;text-anchor:start;font-family:sans-serif;font-style:normal;font-weight:normal" x="123.044" y="92.8958">
    <tspan x="123.044" y="92.8958"></tspan>
  </text>
  <g>
    <rect style="fill: #ffffff" x="40" y="100" width="120" height="40"/>
    <rect style="fill: none; fill-opacity:0; stroke-width: 2; stroke: #000000" x="40" y="100" width="120" height="40"/>
    <text font-size="12.8" style="fill: #000000;text-anchor:middle;font-family:sans-serif;font-style:normal;font-weight:700" x="100" y="124.8">
      <tspan x="100" y="124.8">'mfra' header</tspan>
    </text>
  </g>
  <g>
    <rect style="fill: #ffffff" x="160" y="100" width="120" height="40"/>
    <rect style="fill: none; fill-opacity:0; stroke-width: 2; stroke: #000000" x="160" y="100" width="120" height="40"/>
    <text font-size="12.8" style="fill: #000000;text-anchor:middle;font-family:sans-serif;font-style:normal;font-weight:700" x="220" y="124.8">
      <tspan x="220" y="124.8">'tfra' header</tspan>
    </text>
  </g>
  <g>
    <rect style="fill: #ffffff" x="280" y="100" width="120" height="40"/>
    <rect style="fill: none; fill-opacity:0; stroke-width: 2; stroke: #000000" x="280" y="100" width="120" height="40"/>
    <text font-size="12.8" style="fill: #000000;text-anchor:middle;font-family:sans-serif;font-style:normal;font-weight:700" x="340" y="124.8">
      <tspan x="340" y="124.8">Entry count</tspan>
    </text>
  </g>
  <g>
    <rect style="fill: #ffffff" x="400" y="100" width="120" height="40"/>
    <rect style="fill: none; fill-opacity:0; stroke-width: 2; stroke: #000000" x="400" y="100" width="120" height="40"/>
    <text font-size="12.8" style="fill: #000000;text-anchor:middle;font-family:sans-serif;font-style:normal;font-weight:700" x="460" y="124.8">
      <tspan x="460" y="124.8">Entry[N]</tspan>
    </text>
  </g>
  <g>
    <rect style="fill: #ffffff" x="520" y="100" width="120" height="40"/>
    <rect style="fill: none; fill-opacity:0; stroke-width: 2; stroke: #000000" x="520" y="100" width="120" height="40"/>
    <text font-size="12.8" style="fill: #000000;text-anchor:middle;font-family:sans-serif;font-style:normal;font-weight:700" x="580" y="124.8">
      <tspan x="580" y="124.8">'mfro' bod</tspan>
    </text>
  </g>
  <g>
    <rect style="fill: #e5e5e5" x="40" y="200" width="120" height="40"/>
    <rect style="fill: none; fill-opacity:0; stroke-width: 2; stroke: #000000" x="40" y="200" width="120" height="40"/>
    <text font-size="12.8" style="fill: #000000;text-anchor:middle;font-family:sans-serif;font-style:normal;font-weight:700" x="100" y="224.8">
      <tspan x="100" y="224.8">time</tspan>
    </text>
  </g>
  <g>
    <rect style="fill: #e5e5e5" x="160" y="200" width="120" height="40"/>
    <rect style="fill: none; fill-opacity:0; stroke-width: 2; stroke: #000000" x="160" y="200" width="120" height="40"/>
    <text font-size="12.8" style="fill: #000000;text-anchor:middle;font-family:sans-serif;font-style:normal;font-weight:700" x="220" y="224.8">
      <tspan x="220" y="224.8">'moof' offset</tspan>
    </text>
  </g>
  <g>
    <rect style="fill: #e5e5e5" x="280" y="200" width="120" height="40"/>
    <rect style="fill: none; fill-opacity:0; stroke-width: 2; stroke: #000000" x="280" y="200" width="120" height="40"/>
    <text font-size="12.8" style="fill: #000000;text-anchor:middle;font-family:sans-serif;font-style:normal;font-weight:700" x="340" y="224.8">
      <tspan x="340" y="224.8">'traf' number</tspan>
    </text>
  </g>
  <g>
    <rect style="fill: #e5e5e5" x="400" y="200" width="120" height="40"/>
    <rect style="fill: none; fill-opacity:0; stroke-width: 2; stroke: #000000" x="400" y="200" width="120" height="40"/>
    <text font-size="12.8" style="fill: #000000;text-anchor:middle;font-family:sans-serif;font-style:normal;font-weight:700" x="460" y="224.8">
      <tspan x="460" y="224.8">'trun' number</tspan>
    </text>
  </g>
  <g>
    <rect style="fill: #e5e5e5" x="518.475" y="200" width="123.05" height="40"/>
    <rect style="fill: none; fill-opacity:0; stroke-width: 2; stroke: #000000" x="518.475" y="200" width="123.05" height="40"/>
    <text font-size="12.8" style="fill: #000000;text-anchor:middle;font-family:sans-serif;font-style:normal;font-weight:700" x="580" y="224.8">
      <tspan x="580" y="224.8">Sample number</tspan>
    </text>
  </g>
  <text font-size="12.8" style="fill: #000000;text-anchor:start;font-family:sans-serif;font-style:normal;font-weight:700" x="80" y="160">
    <tspan x="80" y="160">8 bytes</tspan>
  </text>
  <text font-size="12.8" style="fill: #000000;text-anchor:start;font-family:sans-serif;font-style:normal;font-weight:700" x="180" y="160">
    <tspan x="180" y="160">20 bytes</tspan>
  </text>
  <text font-size="12.8" style="fill: #000000;text-anchor:start;font-family:sans-serif;font-style:normal;font-weight:700" x="320" y="160">
    <tspan x="320" y="160">4 bytes</tspan>
  </text>
  <text font-size="12.8" style="fill: #000000;text-anchor:start;font-family:sans-serif;font-style:normal;font-weight:700" x="560" y="160">
    <tspan x="560" y="160">16 bytes</tspan>
  </text>
  <text font-size="12.8" style="fill: #000000;text-anchor:start;font-family:sans-serif;font-style:normal;font-weight:700" x="420" y="160">
    <tspan x="420" y="160">N x 12 bytes</tspan>
  </text>
  <line style="fill: none; fill-opacity:0; stroke-width: 2; stroke-dasharray: 4; stroke: #000000" x1="400" y1="140" x2="400" y2="160"/>
  <line style="fill: none; fill-opacity:0; stroke-width: 2; stroke-dasharray: 4; stroke: #000000" x1="400" y1="160" x2="40" y2="200"/>
  <line style="fill: none; fill-opacity:0; stroke-width: 2; stroke-dasharray: 4; stroke: #000000" x1="520" y1="140" x2="520" y2="160"/>
  <line style="fill: none; fill-opacity:0; stroke-width: 2; stroke-dasharray: 4; stroke: #000000" x1="520" y1="160" x2="641.525" y2="200"/>
  <text font-size="12.8" style="fill: #000000;text-anchor:start;font-family:sans-serif;font-style:normal;font-weight:700" x="80" y="260">
    <tspan x="80" y="260">4 bytes</tspan>
  </text>
  <text font-size="12.8" style="fill: #000000;text-anchor:start;font-family:sans-serif;font-style:normal;font-weight:700" x="200" y="260">
    <tspan x="200" y="260">4 bytes</tspan>
  </text>
  <text font-size="12.8" style="fill: #000000;text-anchor:start;font-family:sans-serif;font-style:normal;font-weight:700" x="320" y="260">
    <tspan x="320" y="260">1 byte</tspan>
  </text>
  <text font-size="12.8" style="fill: #000000;text-anchor:start;font-family:sans-serif;font-style:normal;font-weight:700" x="440" y="260">
    <tspan x="440" y="260">1 byte</tspan>
  </text>
  <text font-size="12.8" style="fill: #000000;text-anchor:start;font-family:sans-serif;font-style:normal;font-weight:700" x="560" y="260">
    <tspan x="560" y="260">2 bytes</tspan>
  </text>
</svg>
