<svg width="2620" height="707" xmlns="http://www.w3.org/2000/svg" xmlns:xlink="http://www.w3.org/1999/xlink" xml:space="preserve" overflow="hidden"><g transform="translate(-549 -1599)"><path d="M552.008 1607.95 1152.49 1607.95 1152.49 1741.79 552.008 1741.79Z" fill="#FFFFFF" fill-rule="evenodd"/><path d="M1152.49 1607.95 1740.71 1607.95 1740.71 1741.79 1152.49 1741.79Z" fill="#FFFFFF" fill-rule="evenodd"/><path d="M1740.71 1607.95 2261.88 1607.95 2261.88 1741.79 1740.71 1741.79Z" fill="#FFFFFF" fill-rule="evenodd"/><path d="M2261.88 1607.95 2699.28 1607.95 2699.28 1741.79 2261.88 1741.79Z" fill="#BFBFBF" fill-rule="evenodd"/><path d="M2699.28 1607.95 3135 1607.95 3135 1741.79 2699.28 1741.79Z" fill="#FFFFFF" fill-rule="evenodd"/><path d="M1152.49 1605.66 1152.49 1744.08" stroke="#000000" stroke-width="4.58333" stroke-linejoin="round" stroke-miterlimit="10" fill="none" fill-rule="evenodd"/><path d="M1740.71 1605.66 1740.71 1744.08" stroke="#000000" stroke-width="4.58333" stroke-linejoin="round" stroke-miterlimit="10" fill="none" fill-rule="evenodd"/><path d="M2261.88 1605.66 2261.88 1744.08" stroke="#000000" stroke-width="4.58333" stroke-linejoin="round" stroke-miterlimit="10" fill="none" fill-rule="evenodd"/><path d="M2699.28 1605.66 2699.28 1744.08" stroke="#000000" stroke-width="4.58333" stroke-linejoin="round" stroke-miterlimit="10" fill="none" fill-rule="evenodd"/><path d="M552.008 1605.66 552.008 1744.08" stroke="#000000" stroke-width="4.58333" stroke-linejoin="round" stroke-miterlimit="10" fill="none" fill-rule="evenodd"/><path d="M3135 1605.66 3135 1744.08" stroke="#000000" stroke-width="4.58333" stroke-linejoin="round" stroke-miterlimit="10" fill="none" fill-rule="evenodd"/><path d="M549.716 1607.95 3137.29 1607.95" stroke="#000000" stroke-width="4.58333" stroke-linejoin="round" stroke-miterlimit="10" fill="none" fill-rule="evenodd"/><path d="M549.716 1741.79 3137.29 1741.79" stroke="#000000" stroke-width="4.58333" stroke-linejoin="round" stroke-miterlimit="10" fill="none" fill-rule="evenodd"/><g><text font-family="Calibri,Calibri_MSFontService,sans-serif" font-weight="700" font-size="83" transform="matrix(1 0 0 1 2741.66 1701)">‘</text></g><text font-family="Calibri,Calibri_MSFontService,sans-serif" font-weight="700" font-size="83" transform="matrix(1 0 0 1 2762.86 1701)">mfro</text><g><text font-family="Calibri,Calibri_MSFontService,sans-serif" font-weight="700" font-size="83" transform="matrix(1 0 0 1 2928.13 1701)">’ box</text></g><text font-family="Calibri,Calibri_MSFontService,sans-serif" font-weight="700" font-size="83" transform="matrix(1 0 0 1 2336.11 1701)">Entry[N]</text><text font-family="Calibri,Calibri_MSFontService,sans-serif" font-weight="700" font-size="83" transform="matrix(1 0 0 1 1804.42 1701)">Entry count</text><text font-family="Calibri,Calibri_MSFontService,sans-serif" font-weight="700" font-size="83" transform="matrix(1 0 0 1 1234.1 1701)">‘</text><text font-family="Calibri,Calibri_MSFontService,sans-serif" font-weight="700" font-size="83" transform="matrix(1 0 0 1 1255.29 1701)">tfra</text><text font-family="Calibri,Calibri_MSFontService,sans-serif" font-weight="700" font-size="83" transform="matrix(1 0 0 1 1378.38 1701)">’ header</text><text font-family="Calibri,Calibri_MSFontService,sans-serif" font-weight="700" font-size="83" transform="matrix(1 0 0 1 620.77 1701)">‘</text><text font-family="Calibri,Calibri_MSFontService,sans-serif" font-weight="700" font-size="83" transform="matrix(1 0 0 1 641.968 1701)">mfra</text><text font-family="Calibri,Calibri_MSFontService,sans-serif" font-weight="700" font-size="83" transform="matrix(1 0 0 1 803.003 1701)">’ header</text><path d="M581.126 2009 904.062 2009 904.062 2142.84 581.126 2142.84Z" fill="#BFBFBF" fill-rule="evenodd"/><path d="M904.062 2009 1440.31 2009 1440.31 2142.84 904.062 2142.84Z" fill="#BFBFBF" fill-rule="evenodd"/><path d="M1440.31 2009 1986.88 2009 1986.88 2142.84 1440.31 2142.84Z" fill="#BFBFBF" fill-rule="evenodd"/><path d="M1986.88 2009 2536.88 2009 2536.88 2142.84 1986.88 2142.84Z" fill="#BFBFBF" fill-rule="evenodd"/><path d="M2536.88 2009 3164.12 2009 3164.12 2142.84 2536.88 2142.84Z" fill="#BFBFBF" fill-rule="evenodd"/><path d="M904.062 2006.71 904.062 2145.13" stroke="#000000" stroke-width="4.58333" stroke-linejoin="round" stroke-miterlimit="10" fill="none" fill-rule="evenodd"/><path d="M1440.31 2006.71 1440.31 2145.13" stroke="#000000" stroke-width="4.58333" stroke-linejoin="round" stroke-miterlimit="10" fill="none" fill-rule="evenodd"/><path d="M1986.88 2006.71 1986.88 2145.13" stroke="#000000" stroke-width="4.58333" stroke-linejoin="round" stroke-miterlimit="10" fill="none" fill-rule="evenodd"/><path d="M2536.88 2006.71 2536.88 2145.13" stroke="#000000" stroke-width="4.58333" stroke-linejoin="round" stroke-miterlimit="10" fill="none" fill-rule="evenodd"/><path d="M581.126 2006.71 581.126 2145.13" stroke="#000000" stroke-width="4.58333" stroke-linejoin="round" stroke-miterlimit="10" fill="none" fill-rule="evenodd"/><path d="M3164.12 2006.71 3164.12 2145.13" stroke="#000000" stroke-width="4.58333" stroke-linejoin="round" stroke-miterlimit="10" fill="none" fill-rule="evenodd"/><path d="M578.834 2009 3166.41 2009" stroke="#000000" stroke-width="4.58333" stroke-linejoin="round" stroke-miterlimit="10" fill="none" fill-rule="evenodd"/><path d="M578.834 2142.84 3166.41 2142.84" stroke="#000000" stroke-width="4.58333" stroke-linejoin="round" stroke-miterlimit="10" fill="none" fill-rule="evenodd"/><g><text font-family="Calibri,Calibri_MSFontService,sans-serif" font-weight="700" font-size="83" transform="matrix(1 0 0 1 2580.08 2103)">Sample number</text></g><g><text font-family="Calibri,Calibri_MSFontService,sans-serif" font-weight="700" font-size="83" transform="matrix(1 0 0 1 2023.26 2103)">‘</text></g><text font-family="Calibri,Calibri_MSFontService,sans-serif" font-weight="700" font-size="83" transform="matrix(1 0 0 1 2044.45 2103)">trun</text><g><text font-family="Calibri,Calibri_MSFontService,sans-serif" font-weight="700" font-size="83" transform="matrix(1 0 0 1 2190.55 2103)">’ number</text></g><g><text font-family="Calibri,Calibri_MSFontService,sans-serif" font-weight="700" font-size="83" transform="matrix(1 0 0 1 1484.89 2103)">‘</text></g><text font-family="Calibri,Calibri_MSFontService,sans-serif" font-weight="700" font-size="83" transform="matrix(1 0 0 1 1506.08 2103)">traf</text><g><text font-family="Calibri,Calibri_MSFontService,sans-serif" font-weight="700" font-size="83" transform="matrix(1 0 0 1 1632.35 2103)">’ number</text></g><g><text font-family="Calibri,Calibri_MSFontService,sans-serif" font-weight="700" font-size="83" transform="matrix(1 0 0 1 949.919 2103)">‘</text></g><text font-family="Calibri,Calibri_MSFontService,sans-serif" font-weight="700" font-size="83" transform="matrix(1 0 0 1 971.116 2103)">moof</text><g><text font-family="Calibri,Calibri_MSFontService,sans-serif" font-weight="700" font-size="83" transform="matrix(1 0 0 1 1156.35 2103)">’ offset</text></g><text font-family="Calibri,Calibri_MSFontService,sans-serif" font-weight="700" font-size="83" transform="matrix(1 0 0 1 664.104 2103)">time</text><path d="M0 0 1701.85 169.921" stroke="#000000" stroke-width="4.58333" stroke-miterlimit="8" fill="none" fill-rule="evenodd" transform="matrix(-1 0 0 1 2283.35 1839.5)"/><path d="M2693.5 1839.5 3135.4 2009.42" stroke="#000000" stroke-width="4.58333" stroke-miterlimit="8" fill="none" fill-rule="evenodd"/><text font-family="Calibri,Calibri_MSFontService,sans-serif" font-weight="400" font-size="83" transform="matrix(1 0 0 1 763.521 1824)">8 bytes</text><text font-family="Calibri,Calibri_MSFontService,sans-serif" font-weight="400" font-size="83" transform="matrix(1 0 0 1 1303.71 1835)">20 bytes</text><text font-family="Calibri,Calibri_MSFontService,sans-serif" font-weight="400" font-size="83" transform="matrix(1 0 0 1 1880.49 1832)">4 bytes</text><text font-family="Calibri,Calibri_MSFontService,sans-serif" font-weight="400" font-size="83" transform="matrix(1 0 0 1 2287.9 1832)">N x 12 bytes</text><text font-family="Calibri,Calibri_MSFontService,sans-serif" font-weight="400" font-size="83" transform="matrix(1 0 0 1 2788.94 1828)">16 bytes</text><text font-family="Calibri,Calibri_MSFontService,sans-serif" font-weight="400" font-size="83" transform="matrix(1 0 0 1 616.301 2232)">4 bytes</text><text font-family="Calibri,Calibri_MSFontService,sans-serif" font-weight="400" font-size="83" transform="matrix(1 0 0 1 1024.56 2234)">4 bytes</text><text font-family="Calibri,Calibri_MSFontService,sans-serif" font-weight="400" font-size="83" transform="matrix(1 0 0 1 1621.84 2230)">1 byte</text><text font-family="Calibri,Calibri_MSFontService,sans-serif" font-weight="400" font-size="83" transform="matrix(1 0 0 1 2172.21 2230)">1 byte</text><text font-family="Calibri,Calibri_MSFontService,sans-serif" font-weight="400" font-size="83" transform="matrix(1 0 0 1 2730.58 2234)">2 bytes</text></g></svg>