<svg width="2789" height="1553" xmlns="http://www.w3.org/2000/svg" xmlns:xlink="http://www.w3.org/1999/xlink" xml:space="preserve" overflow="hidden"><g transform="translate(-56 -453)"><rect x="60.9998" y="458" width="1163" height="1534" stroke="#172C51" stroke-width="10.3125" stroke-miterlimit="8" fill="none"/><rect x="101.5" y="497.5" width="1068" height="136" stroke="#172C51" stroke-width="4.58333" stroke-miterlimit="8" fill="#DAE3F3"/><text font-family="Calibri,Calibri_MSFontService,sans-serif" font-weight="400" font-size="83" transform="matrix(1 0 0 1 133.76 591)">FileTypeBox</text><text font-family="Calibri,Calibri_MSFontService,sans-serif" font-weight="400" font-size="83" transform="matrix(1 0 0 1 550.087 591)">(“</text><text font-family="Calibri,Calibri_MSFontService,sans-serif" font-weight="400" font-size="83" transform="matrix(1 0 0 1 609.67 591)">ftyp</text><text font-family="Calibri,Calibri_MSFontService,sans-serif" font-weight="400" font-size="83" transform="matrix(1 0 0 1 743.16 591)">”)</text><rect x="106.5" y="666.5" width="1069" height="136" stroke="#172C51" stroke-width="4.58333" stroke-miterlimit="8" fill="#DEEBF7"/><text font-family="Calibri,Calibri_MSFontService,sans-serif" font-weight="400" font-size="83" transform="matrix(1 0 0 1 139.437 760)">MovieBox</text><text font-family="Calibri,Calibri_MSFontService,sans-serif" font-weight="400" font-size="83" transform="matrix(1 0 0 1 491.529 760)">(“</text><text font-family="Calibri,Calibri_MSFontService,sans-serif" font-weight="400" font-size="83" transform="matrix(1 0 0 1 551.112 760)">moov</text><text font-family="Calibri,Calibri_MSFontService,sans-serif" font-weight="400" font-size="83" transform="matrix(1 0 0 1 743.36 760)">”)</text><rect x="106.5" y="836.5" width="1069" height="136" stroke="#172C51" stroke-width="4.58333" stroke-miterlimit="8" fill="#E2F0D9"/><text font-family="Calibri,Calibri_MSFontService,sans-serif" font-weight="400" font-size="83" transform="matrix(1 0 0 1 139.437 929)">SegmentTypeBox</text><text font-family="Calibri,Calibri_MSFontService,sans-serif" font-weight="400" font-size="83" transform="matrix(1 0 0 1 734.331 929)">(“</text><text font-family="Calibri,Calibri_MSFontService,sans-serif" font-weight="400" font-size="83" transform="matrix(1 0 0 1 792.012 929)">styp</text><text font-family="Calibri,Calibri_MSFontService,sans-serif" font-weight="400" font-size="83" transform="matrix(1 0 0 1 931.46 929)">”)</text><rect x="106.5" y="1005.5" width="1069" height="136" stroke="#172C51" stroke-width="4.58333" stroke-miterlimit="8" fill="#E2F0D9"/><text font-family="Calibri,Calibri_MSFontService,sans-serif" font-weight="400" font-size="83" transform="matrix(1 0 0 1 139.437 1099)">MovieFragmentBox</text><text font-family="Calibri,Calibri_MSFontService,sans-serif" font-weight="400" font-size="83" transform="matrix(1 0 0 1 812.201 1099)">(“</text><text font-family="Calibri,Calibri_MSFontService,sans-serif" font-weight="400" font-size="83" transform="matrix(1 0 0 1 871.785 1099)">moof</text><text font-family="Calibri,Calibri_MSFontService,sans-serif" font-weight="400" font-size="83" transform="matrix(1 0 0 1 1054.36 1099)">”)</text><rect x="106.5" y="1175.5" width="1069" height="136" stroke="#172C51" stroke-width="4.58333" stroke-miterlimit="8" fill="#E2F0D9"/><text font-family="Calibri,Calibri_MSFontService,sans-serif" font-weight="400" font-size="83" transform="matrix(1 0 0 1 139.437 1268)">MovieDataBox</text><text font-family="Calibri,Calibri_MSFontService,sans-serif" font-weight="400" font-size="83" transform="matrix(1 0 0 1 647.316 1268)">(“</text><text font-family="Calibri,Calibri_MSFontService,sans-serif" font-weight="400" font-size="83" transform="matrix(1 0 0 1 706.899 1268)">mdat</text><text font-family="Calibri,Calibri_MSFontService,sans-serif" font-weight="400" font-size="83" transform="matrix(1 0 0 1 885.466 1268)">”)</text><rect x="102.5" y="1343.5" width="1068" height="136" stroke="#172C51" stroke-width="4.58333" stroke-miterlimit="8" fill="#FBE5D6"/><text font-family="Calibri,Calibri_MSFontService,sans-serif" font-weight="400" font-size="83" transform="matrix(1 0 0 1 134.843 1436)">SegmentTypeBox</text><text font-family="Calibri,Calibri_MSFontService,sans-serif" font-weight="400" font-size="83" transform="matrix(1 0 0 1 729.737 1436)">(“</text><text font-family="Calibri,Calibri_MSFontService,sans-serif" font-weight="400" font-size="83" transform="matrix(1 0 0 1 787.418 1436)">styp</text><text font-family="Calibri,Calibri_MSFontService,sans-serif" font-weight="400" font-size="83" transform="matrix(1 0 0 1 926.866 1436)">”)</text><rect x="106.5" y="1511.5" width="1069" height="137" stroke="#172C51" stroke-width="4.58333" stroke-miterlimit="8" fill="#FBE5D6"/><text font-family="Calibri,Calibri_MSFontService,sans-serif" font-weight="400" font-size="83" transform="matrix(1 0 0 1 139.437 1605)">MovieFragmentBox</text><text font-family="Calibri,Calibri_MSFontService,sans-serif" font-weight="400" font-size="83" transform="matrix(1 0 0 1 812.201 1605)">(“</text><text font-family="Calibri,Calibri_MSFontService,sans-serif" font-weight="400" font-size="83" transform="matrix(1 0 0 1 871.785 1605)">moof</text><text font-family="Calibri,Calibri_MSFontService,sans-serif" font-weight="400" font-size="83" transform="matrix(1 0 0 1 1054.36 1605)">”)</text><rect x="106.5" y="1680.5" width="1069" height="136" stroke="#172C51" stroke-width="4.58333" stroke-miterlimit="8" fill="#FBE5D6"/><text font-family="Calibri,Calibri_MSFontService,sans-serif" font-weight="400" font-size="83" transform="matrix(1 0 0 1 139.437 1773)">MovieDataBox</text><text font-family="Calibri,Calibri_MSFontService,sans-serif" font-weight="400" font-size="83" transform="matrix(1 0 0 1 647.316 1773)">(“</text><text font-family="Calibri,Calibri_MSFontService,sans-serif" font-weight="400" font-size="83" transform="matrix(1 0 0 1 706.899 1773)">mdat</text><text font-family="Calibri,Calibri_MSFontService,sans-serif" font-weight="400" font-size="83" transform="matrix(1 0 0 1 885.466 1773)">”)</text><text font-family="Calibri,Calibri_MSFontService,sans-serif" font-weight="400" font-size="83" transform="matrix(1 0 0 1 126.255 1927)">(etc.)</text><path d="M1197.5 836.5C1247.21 836.5 1287.5 893.695 1287.5 964.25L1287.5 964.25C1287.5 1034.8 1327.79 1092 1377.5 1092 1327.79 1092 1287.5 1149.2 1287.5 1219.75L1287.5 1219.75C1287.5 1290.3 1247.21 1347.5 1197.5 1347.5" stroke="#4472C4" stroke-width="6.875" stroke-miterlimit="8" fill="none" fill-rule="evenodd"/><path d="M1197.5 1347.5C1247.21 1347.5 1287.5 1399.99 1287.5 1464.75L1287.5 1464.75C1287.5 1529.51 1327.79 1582 1377.5 1582 1327.79 1582 1287.5 1634.49 1287.5 1699.25L1287.5 1699.25C1287.5 1764.01 1247.21 1816.5 1197.5 1816.5" stroke="#4472C4" stroke-width="6.875" stroke-miterlimit="8" fill="none" fill-rule="evenodd"/><text font-family="Calibri,Calibri_MSFontService,sans-serif" font-weight="400" font-size="83" transform="matrix(1 0 0 1 1420.35 1023)">Fragment #1</text><text font-family="Calibri,Calibri_MSFontService,sans-serif" font-weight="400" font-size="83" transform="matrix(1 0 0 1 1420.35 1122)">Offset: </text><text fill="#C55A11" font-family="Calibri,Calibri_MSFontService,sans-serif" font-weight="400" font-size="83" transform="matrix(1 0 0 1 1664.97 1122)">120</text><text font-family="Calibri,Calibri_MSFontService,sans-serif" font-weight="400" font-size="83" transform="matrix(1 0 0 1 1809.34 1122)">bytes</text><text font-family="Calibri,Calibri_MSFontService,sans-serif" font-weight="400" font-size="83" transform="matrix(1 0 0 1 1420.35 1221)">Duration: </text><text fill="#4472C4" font-family="Calibri,Calibri_MSFontService,sans-serif" font-weight="400" font-size="83" transform="matrix(1 0 0 1 1755.35 1221)">4.1</text><text font-family="Calibri,Calibri_MSFontService,sans-serif" font-weight="400" font-size="83" transform="matrix(1 0 0 1 1859.62 1221)">s</text><text font-family="Calibri,Calibri_MSFontService,sans-serif" font-weight="400" font-size="83" transform="matrix(1 0 0 1 1409.77 1506)">Fragment #2</text><text font-family="Calibri,Calibri_MSFontService,sans-serif" font-weight="400" font-size="83" transform="matrix(1 0 0 1 1409.77 1605)">Offset: </text><text fill="#7030A0" font-family="Calibri,Calibri_MSFontService,sans-serif" font-weight="400" font-size="83" transform="matrix(1 0 0 1 1654.38 1605)">2300</text><text font-family="Calibri,Calibri_MSFontService,sans-serif" font-weight="400" font-size="83" transform="matrix(1 0 0 1 1840.58 1605)">bytes</text><text font-family="Calibri,Calibri_MSFontService,sans-serif" font-weight="400" font-size="83" transform="matrix(1 0 0 1 1409.77 1704)">Duration: </text><text fill="#BF9000" font-family="Calibri,Calibri_MSFontService,sans-serif" font-weight="400" font-size="83" transform="matrix(1 0 0 1 1744.77 1704)">3.9</text><text font-family="Calibri,Calibri_MSFontService,sans-serif" font-weight="400" font-size="83" transform="matrix(1 0 0 1 1849.04 1704)">s</text><path d="M1207.5 1816.5C1257.21 1816.5 1297.5 1836.76 1297.5 1861.75L1297.5 1861.75C1297.5 1886.74 1337.79 1907 1387.5 1907 1337.79 1907 1297.5 1927.26 1297.5 1952.25L1297.5 1952.25C1297.5 1977.24 1257.21 1997.5 1207.5 1997.5" stroke="#4472C4" stroke-width="6.875" stroke-miterlimit="8" fill="none" fill-rule="evenodd"/><path d="M1197.5 458.5C1247.21 458.5 1287.5 500.809 1287.5 553L1287.5 553C1287.5 605.191 1327.79 647.5 1377.5 647.5 1327.79 647.5 1287.5 689.809 1287.5 742L1287.5 742C1287.5 794.191 1247.21 836.5 1197.5 836.5" stroke="#4472C4" stroke-width="6.875" stroke-miterlimit="8" fill="none" fill-rule="evenodd"/><text font-family="Calibri,Calibri_MSFontService,sans-serif" font-weight="400" font-size="83" transform="matrix(1 0 0 1 1406.16 615)">Init fragment</text><text font-family="Calibri,Calibri_MSFontService,sans-serif" font-weight="400" font-size="83" transform="matrix(1 0 0 1 1406.16 714)">(Implicit)</text><text font-family="Calibri,Calibri_MSFontService,sans-serif" font-weight="400" font-size="83" transform="matrix(1 0 0 1 1430.94 1934)">Fragment </text><text font-family="Calibri,Calibri_MSFontService,sans-serif" font-weight="400" font-size="83" transform="matrix(1 0 0 1 1770.51 1934)">N</text><text font-family="Calibri,Calibri_MSFontService,sans-serif" font-weight="400" font-size="83" transform="matrix(1 0 0 1 1823.8 1934)">-</text><text font-family="Calibri,Calibri_MSFontService,sans-serif" font-weight="400" font-size="83" transform="matrix(1 0 0 1 1849 1934)">th</text><path d="M1955.5 838.5C2005.21 838.5 2045.5 899.39 2045.5 974.502L2045.5 1191.5C2045.5 1266.61 2085.79 1327.5 2135.5 1327.5 2085.79 1327.5 2045.5 1388.39 2045.5 1463.5L2045.5 1680.5C2045.5 1755.61 2005.21 1816.5 1955.5 1816.5" stroke="#4472C4" stroke-width="6.875" stroke-miterlimit="8" fill="none" fill-rule="evenodd"/><text font-family="Calibri,Calibri_MSFontService,sans-serif" font-weight="400" font-size="83" transform="matrix(1 0 0 1 2167.68 1251)">Merged</text><text font-family="Calibri,Calibri_MSFontService,sans-serif" font-weight="400" font-size="83" transform="matrix(1 0 0 1 2448.89 1251)">fragmen</text><text font-family="Calibri,Calibri_MSFontService,sans-serif" font-weight="400" font-size="83" transform="matrix(1 0 0 1 2729.46 1251)">t</text><text font-family="Calibri,Calibri_MSFontService,sans-serif" font-weight="400" font-size="83" transform="matrix(1 0 0 1 2167.68 1350)">Offset: </text><text fill="#C55A11" font-family="Calibri,Calibri_MSFontService,sans-serif" font-weight="400" font-size="83" transform="matrix(1 0 0 1 2412.29 1350)">120</text><text font-family="Calibri,Calibri_MSFontService,sans-serif" font-weight="400" font-size="83" transform="matrix(1 0 0 1 2556.67 1350)">bytes</text><text font-family="Calibri,Calibri_MSFontService,sans-serif" font-weight="400" font-size="83" transform="matrix(1 0 0 1 2167.68 1449)">Duration: </text><text fill="#385723" font-family="Calibri,Calibri_MSFontService,sans-serif" font-weight="400" font-size="83" transform="matrix(1 0 0 1 2502.68 1449)">8.0</text><text font-family="Calibri,Calibri_MSFontService,sans-serif" font-weight="400" font-size="83" transform="matrix(1 0 0 1 2606.95 1449)">s</text></g></svg>