<?xml version="1.0" encoding="UTF-8" standalone="no"?>
<!DOCTYPE svg PUBLIC "-//W3C//DTD SVG 1.0//EN" "http://www.w3.org/TR/2001/PR-SVG-20010719/DTD/svg10.dtd">
<svg width="34cm" height="29cm" viewBox="79 58 662 564" xmlns="http://www.w3.org/2000/svg" xmlns:xlink="http://www.w3.org/1999/xlink">
  <g>
    <path style="fill: #ffffff" d="M 100 60 L 180,60 C 191.046,60 200,68.9543 200,80 C 200,91.0457 191.046,100 180,100 L 100,100 C 88.9543,100 80,91.0457 80,80 C 80,68.9543 88.9543,60 100,60z"/>
    <path style="fill: none; fill-opacity:0; stroke-width: 2; stroke: #000000" d="M 100 60 L 180,60 C 191.046,60 200,68.9543 200,80 C 200,91.0457 191.046,100 180,100 L 100,100 C 88.9543,100 80,91.0457 80,80 C 80,68.9543 88.9543,60 100,60"/>
    <text font-size="12.8" style="fill: #000000;text-anchor:middle;font-family:sans-serif;font-style:normal;font-weight:normal" x="140" y="84.8">
      <tspan x="140" y="84.8">MCS</tspan>
    </text>
  </g>
  <g>
    <path style="fill: #ffffff" d="M 640 60 L 720,60 C 731.046,60 740,68.9543 740,80 C 740,91.0457 731.046,100 720,100 L 640,100 C 628.954,100 620,91.0457 620,80 C 620,68.9543 628.954,60 640,60z"/>
    <path style="fill: none; fill-opacity:0; stroke-width: 2; stroke: #000000" d="M 640 60 L 720,60 C 731.046,60 740,68.9543 740,80 C 740,91.0457 731.046,100 720,100 L 640,100 C 628.954,100 620,91.0457 620,80 C 620,68.9543 628.954,60 640,60"/>
    <text font-size="12.8" style="fill: #000000;text-anchor:middle;font-family:sans-serif;font-style:normal;font-weight:normal" x="680" y="84.8">
      <tspan x="680" y="84.8">Device</tspan>
    </text>
  </g>
  <g>
    <path style="fill: #ffffff" d="M 320 60 L 400,60 C 411.046,60 420,68.9543 420,80 C 420,91.0457 411.046,100 400,100 L 320,100 C 308.954,100 300,91.0457 300,80 C 300,68.9543 308.954,60 320,60z"/>
    <path style="fill: none; fill-opacity:0; stroke-width: 2; stroke: #000000" d="M 320 60 L 400,60 C 411.046,60 420,68.9543 420,80 C 420,91.0457 411.046,100 400,100 L 320,100 C 308.954,100 300,91.0457 300,80 C 300,68.9543 308.954,60 320,60"/>
    <text font-size="12.8" style="fill: #000000;text-anchor:middle;font-family:sans-serif;font-style:normal;font-weight:normal" x="360" y="84.8">
      <tspan x="360" y="84.8">OCS</tspan>
    </text>
  </g>
  <g>
    <line style="fill: none; fill-opacity:0; stroke-width: 2; stroke: #000000" x1="140" y1="100" x2="140" y2="610.264"/>
    <polygon style="fill: #000000" points="140,617.764 135,607.764 140,610.264 145,607.764 "/>
    <polygon style="fill: none; fill-opacity:0; stroke-width: 2; stroke: #000000" points="140,617.764 135,607.764 140,610.264 145,607.764 "/>
  </g>
  <g>
    <line style="fill: none; fill-opacity:0; stroke-width: 2; stroke: #000000" x1="149.736" y1="180" x2="360" y2="180"/>
    <polygon style="fill: #000000" points="142.236,180 152.236,175 149.736,180 152.236,185 "/>
    <polygon style="fill: none; fill-opacity:0; stroke-width: 2; stroke: #000000" points="142.236,180 152.236,175 149.736,180 152.236,185 "/>
  </g>
  <g>
    <line style="fill: none; fill-opacity:0; stroke-width: 2; stroke: #000000" x1="350.264" y1="260" x2="140" y2="260"/>
    <polygon style="fill: #000000" points="357.764,260 347.764,265 350.264,260 347.764,255 "/>
    <polygon style="fill: none; fill-opacity:0; stroke-width: 2; stroke: #000000" points="357.764,260 347.764,265 350.264,260 347.764,255 "/>
  </g>
  <g>
    <line style="fill: none; fill-opacity:0; stroke-width: 2; stroke: #000000" x1="360" y1="100" x2="360" y2="610.264"/>
    <polygon style="fill: #000000" points="360,617.764 355,607.764 360,610.264 365,607.764 "/>
    <polygon style="fill: none; fill-opacity:0; stroke-width: 2; stroke: #000000" points="360,617.764 355,607.764 360,610.264 365,607.764 "/>
  </g>
  <g>
    <line style="fill: none; fill-opacity:0; stroke-width: 2; stroke: #000000" x1="680" y1="100" x2="680" y2="610.264"/>
    <polygon style="fill: #000000" points="680,617.764 675,607.764 680,610.264 685,607.764 "/>
    <polygon style="fill: none; fill-opacity:0; stroke-width: 2; stroke: #000000" points="680,617.764 675,607.764 680,610.264 685,607.764 "/>
  </g>
  <text font-size="12.8" style="fill: #000000;text-anchor:start;font-family:sans-serif;font-style:normal;font-weight:normal" x="180" y="160">
    <tspan x="180" y="160">getAvailabeFWimages</tspan>
  </text>
  <text font-size="12.8" style="fill: #000000;text-anchor:start;font-family:sans-serif;font-style:normal;font-weight:normal" x="180" y="220">
    <tspan x="180" y="220">returns list of availabe FW</tspan>
    <tspan x="180" y="236">versions for a given model</tspan>
  </text>
  <g>
    <line style="fill: none; fill-opacity:0; stroke-width: 2; stroke: #000000" x1="360" y1="340" x2="670.264" y2="340"/>
    <polygon style="fill: #000000" points="677.764,340 667.764,345 670.264,340 667.764,335 "/>
    <polygon style="fill: none; fill-opacity:0; stroke-width: 2; stroke: #000000" points="677.764,340 667.764,345 670.264,340 667.764,335 "/>
  </g>
  <text font-size="12.8" style="fill: #000000;text-anchor:start;font-family:sans-serif;font-style:normal;font-weight:normal" x="380" y="320">
    <tspan x="380" y="320">tds:StartCloudFirmwareUpgrade</tspan>
  </text>
  <path style="fill: none; fill-opacity:0; stroke-width: 2; stroke: #000000" d="M 380,420 A 20,20 0 1 0 340,420"/>
  <g>
    <line style="fill: none; fill-opacity:0; stroke-width: 2; stroke: #000000" x1="380" y1="420" x2="670.264" y2="420"/>
    <polygon style="fill: #000000" points="677.764,420 667.764,425 670.264,420 667.764,415 "/>
    <polygon style="fill: none; fill-opacity:0; stroke-width: 2; stroke: #000000" points="677.764,420 667.764,425 670.264,420 667.764,415 "/>
  </g>
  <g>
    <line style="fill: none; fill-opacity:0; stroke-width: 2; stroke: #000000" x1="340" y1="420" x2="149.736" y2="420"/>
    <polygon style="fill: #000000" points="142.236,420 152.236,415 149.736,420 152.236,425 "/>
    <polygon style="fill: none; fill-opacity:0; stroke-width: 2; stroke: #000000" points="142.236,420 152.236,415 149.736,420 152.236,425 "/>
  </g>
  <text font-size="12.8" style="fill: #000000;text-anchor:start;font-family:sans-serif;font-style:normal;font-weight:normal" x="180" y="380">
    <tspan x="180" y="380">proprietary interaction,</tspan>
    <tspan x="180" y="396">out of the scope of this service</tspan>
  </text>
  <g>
    <line style="fill: none; fill-opacity:0; stroke-width: 2; stroke: #000000" x1="680" y1="500" x2="369.736" y2="500"/>
    <polygon style="fill: #000000" points="362.236,500 372.236,495 369.736,500 372.236,505 "/>
    <polygon style="fill: none; fill-opacity:0; stroke-width: 2; stroke: #000000" points="362.236,500 372.236,495 369.736,500 372.236,505 "/>
  </g>
  <text font-size="12.8" style="fill: #000000;text-anchor:start;font-family:sans-serif;font-style:normal;font-weight:normal" x="380" y="480">
    <tspan x="380" y="480">tns1:Monitoring/CloudFirmwareUpgrade/Completed</tspan>
  </text>
  <g>
    <line style="fill: none; fill-opacity:0; stroke-width: 2; stroke: #000000" x1="680" y1="580" x2="369.736" y2="580"/>
    <polygon style="fill: #000000" points="362.236,580 372.236,575 369.736,580 372.236,585 "/>
    <polygon style="fill: none; fill-opacity:0; stroke-width: 2; stroke: #000000" points="362.236,580 372.236,575 369.736,580 372.236,585 "/>
  </g>
  <text font-size="12.8" style="fill: #000000;text-anchor:start;font-family:sans-serif;font-style:normal;font-weight:normal" x="380" y="560">
    <tspan x="380" y="560">tns1:Monitoring/CloudFirmwareUpgrade/Failure</tspan>
  </text>
  <text font-size="12.8" style="fill: #000000;text-anchor:start;font-family:sans-serif;font-style:normal;font-weight:normal" x="516.002" y="529">
    <tspan x="516.002" y="529">or</tspan>
  </text>
</svg>
