<?xml version="1.0" encoding="UTF-8" standalone="no"?>
<!DOCTYPE svg PUBLIC "-//W3C//DTD SVG 1.0//EN" "http://www.w3.org/TR/2001/PR-SVG-20010719/DTD/svg10.dtd">
<svg width="19cm" height="22cm" viewBox="19 79 362 424" xmlns="http://www.w3.org/2000/svg" xmlns:xlink="http://www.w3.org/1999/xlink">
  <g>
    <rect style="fill: #ffffff" x="140" y="80" width="120" height="60"/>
    <rect style="fill: none; fill-opacity:0; stroke-width: 2; stroke: #000000" x="140" y="80" width="120" height="60"/>
    <text font-size="12.7998" style="fill: #000000;text-anchor:middle;font-family:sans-serif;font-style:normal;font-weight:normal" x="200" y="114.8">
      <tspan x="200" y="114.8">YAML Document</tspan>
    </text>
  </g>
  <g>
    <rect style="fill: #ffffff" x="260" y="200" width="120" height="60"/>
    <rect style="fill: none; fill-opacity:0; stroke-width: 2; stroke: #000000" x="260" y="200" width="120" height="60"/>
    <text font-size="12.7998" style="fill: #000000;text-anchor:middle;font-family:sans-serif;font-style:normal;font-weight:normal" x="320" y="226.8">
      <tspan x="320" y="226.8">OpenAPI</tspan>
      <tspan x="320" y="242.8">Compiler</tspan>
    </text>
  </g>
  <g>
    <rect style="fill: #ffffff" x="20" y="200" width="120" height="60"/>
    <rect style="fill: none; fill-opacity:0; stroke-width: 2; stroke: #000000" x="20" y="200" width="120" height="60"/>
    <text font-size="12.7998" style="fill: #000000;text-anchor:middle;font-family:sans-serif;font-style:normal;font-weight:normal" x="80" y="226.8">
      <tspan x="80" y="226.8">OpenAPI</tspan>
      <tspan x="80" y="242.8">Compiler</tspan>
    </text>
  </g>
  <g>
    <rect style="fill: #ffffff" x="20" y="320" width="120" height="60"/>
    <rect style="fill: none; fill-opacity:0; stroke-width: 2; stroke: #000000" x="20" y="320" width="120" height="60"/>
    <text font-size="12.7998" style="fill: #000000;text-anchor:middle;font-family:sans-serif;font-style:normal;font-weight:normal" x="80" y="354.8">
      <tspan x="80" y="354.8">Integrate</tspan>
    </text>
  </g>
  <g>
    <rect style="fill: #ffffff" x="260" y="320" width="120" height="60"/>
    <rect style="fill: none; fill-opacity:0; stroke-width: 2; stroke: #000000" x="260" y="320" width="120" height="60"/>
    <text font-size="12.7998" style="fill: #000000;text-anchor:middle;font-family:sans-serif;font-style:normal;font-weight:normal" x="320" y="354.8">
      <tspan x="320" y="354.8">Integrate</tspan>
    </text>
  </g>
  <g>
    <rect style="fill: #ffffff" x="20" y="440" width="120" height="60"/>
    <rect style="fill: none; fill-opacity:0; stroke-width: 2; stroke: #000000" x="20" y="440" width="120" height="60"/>
    <text font-size="12.7998" style="fill: #000000;text-anchor:middle;font-family:sans-serif;font-style:normal;font-weight:normal" x="80" y="474.8">
      <tspan x="80" y="474.8">MCS</tspan>
    </text>
  </g>
  <g>
    <rect style="fill: #ffffff" x="260" y="440" width="120" height="60"/>
    <rect style="fill: none; fill-opacity:0; stroke-width: 2; stroke: #000000" x="260" y="440" width="120" height="60"/>
    <text font-size="12.7998" style="fill: #000000;text-anchor:middle;font-family:sans-serif;font-style:normal;font-weight:normal" x="320" y="474.8">
      <tspan x="320" y="474.8">OCS</tspan>
    </text>
  </g>
  <g>
    <line style="fill: none; fill-opacity:0; stroke-width: 2; stroke: #000000" x1="149.736" y1="470" x2="250.264" y2="470"/>
    <polygon style="fill: #000000" points="142.236,470 152.236,465 149.736,470 152.236,475 "/>
    <polygon style="fill: none; fill-opacity:0; stroke-width: 2; stroke: #000000" points="142.236,470 152.236,465 149.736,470 152.236,475 "/>
    <polygon style="fill: #000000" points="257.764,470 247.764,475 250.264,470 247.764,465 "/>
    <polygon style="fill: none; fill-opacity:0; stroke-width: 2; stroke: #000000" points="257.764,470 247.764,475 250.264,470 247.764,465 "/>
  </g>
  <g>
    <line style="fill: none; fill-opacity:0; stroke-width: 2; stroke: #000000" x1="80" y1="380" x2="80" y2="430.264"/>
    <polygon style="fill: #000000" points="80,437.764 75,427.764 80,430.264 85,427.764 "/>
    <polygon style="fill: none; fill-opacity:0; stroke-width: 2; stroke: #000000" points="80,437.764 75,427.764 80,430.264 85,427.764 "/>
  </g>
  <g>
    <line style="fill: none; fill-opacity:0; stroke-width: 2; stroke: #000000" x1="80" y1="260" x2="80" y2="309.272"/>
    <polygon style="fill: #000000" points="80,316.772 75,306.772 80,309.272 85,306.772 "/>
    <polygon style="fill: none; fill-opacity:0; stroke-width: 2; stroke: #000000" points="80,316.772 75,306.772 80,309.272 85,306.772 "/>
  </g>
  <g>
    <line style="fill: none; fill-opacity:0; stroke-width: 2; stroke: #000000" x1="320" y1="260" x2="320" y2="309.272"/>
    <polygon style="fill: #000000" points="320,316.772 315,306.772 320,309.272 325,306.772 "/>
    <polygon style="fill: none; fill-opacity:0; stroke-width: 2; stroke: #000000" points="320,316.772 315,306.772 320,309.272 325,306.772 "/>
  </g>
  <g>
    <line style="fill: none; fill-opacity:0; stroke-width: 2; stroke: #000000" x1="320" y1="380" x2="320" y2="430.264"/>
    <polygon style="fill: #000000" points="320,437.764 315,427.764 320,430.264 325,427.764 "/>
    <polygon style="fill: none; fill-opacity:0; stroke-width: 2; stroke: #000000" points="320,437.764 315,427.764 320,430.264 325,427.764 "/>
  </g>
  <g>
    <line style="fill: none; fill-opacity:0; stroke-width: 2; stroke: #000000" x1="170" y1="140" x2="117.877" y2="192.123"/>
    <polygon style="fill: #000000" points="112.574,197.426 116.109,186.82 117.877,192.123 123.18,193.891 "/>
    <polygon style="fill: none; fill-opacity:0; stroke-width: 2; stroke: #000000" points="112.574,197.426 116.109,186.82 117.877,192.123 123.18,193.891 "/>
  </g>
  <g>
    <line style="fill: none; fill-opacity:0; stroke-width: 2; stroke: #000000" x1="230" y1="140" x2="282.123" y2="192.123"/>
    <polygon style="fill: #000000" points="287.426,197.426 276.82,193.891 282.123,192.123 283.891,186.82 "/>
    <polygon style="fill: none; fill-opacity:0; stroke-width: 2; stroke: #000000" points="287.426,197.426 276.82,193.891 282.123,192.123 283.891,186.82 "/>
  </g>
  <text font-size="12.7998" style="fill: #000000;text-anchor:start;font-family:sans-serif;font-style:normal;font-weight:normal" x="180" y="500">
    <tspan x="180" y="500">OpenAPI</tspan>
  </text>
</svg>
