<?xml version="1.0" encoding="UTF-8" standalone="no"?>
<svg
   xmlns:dc="http://purl.org/dc/elements/1.1/"
   xmlns:cc="http://creativecommons.org/ns#"
   xmlns:rdf="http://www.w3.org/1999/02/22-rdf-syntax-ns#"
   xmlns:svg="http://www.w3.org/2000/svg"
   xmlns="http://www.w3.org/2000/svg"
   xmlns:sodipodi="http://sodipodi.sourceforge.net/DTD/sodipodi-0.dtd"
   xmlns:inkscape="http://www.inkscape.org/namespaces/inkscape"
   version="1.1"
   id="svg6267"
   sodipodi:version="0.32"
   inkscape:version="1.0.2 (e86c870879, 2021-01-15)"
   sodipodi:docname="3D_Spherical.svg"
   inkscape:output_extension="org.inkscape.output.svg.inkscape"
   width="546.52197"
   height="506.37299"
   viewBox="0 0 546.52195 506.37299"
   overflow="visible"
   enable-background="new 0 0 595.275 841.891"
   xml:space="preserve"><metadata
   id="metadata93"><rdf:RDF><cc:Work
       rdf:about=""><dc:format>image/svg+xml</dc:format><dc:type
         rdf:resource="http://purl.org/dc/dcmitype/StillImage" /><dc:title></dc:title></cc:Work></rdf:RDF></metadata><defs
   id="defs91" />
<sodipodi:namedview
   height="535px"
   id="base"
   width="600px"
   inkscape:pageshadow="2"
   inkscape:window-y="27"
   inkscape:window-width="1920"
   inkscape:current-layer="layer1"
   objecttolerance="10"
   inkscape:pageopacity="0.0"
   inkscape:window-x="0"
   inkscape:window-height="1136"
   borderopacity="1.0"
   bordercolor="#666666"
   guidetolerance="10"
   pagecolor="#ffffff"
   inkscape:document-units="px"
   inkscape:pagecheckerboard="0"
   inkscape:window-maximized="1"
   showgrid="false"
   inkscape:zoom="0.98994949"
   inkscape:cy="270.29204"
   inkscape:cx="360.15473"
   gridtolerance="10000"
   inkscape:document-rotation="0"
   fit-margin-top="0"
   fit-margin-left="0"
   fit-margin-right="0"
   fit-margin-bottom="0">
	</sodipodi:namedview>
<g
   id="layer1"
   transform="translate(-16.705,-11.228)"
   inkscape:label="Layer 1"
   inkscape:groupmode="layer">
	<g
   id="g2702"
   transform="translate(-48.186268,-234.32683)">
		<path
   id="path2419"
   sodipodi:nodetypes="cc"
   fill="none"
   stroke="#898989"
   stroke-width="0.503"
   d="M 383.067,732.144 545.986,595.16" />
		<path
   id="path2421"
   fill="none"
   stroke="#898989"
   stroke-width="0.503"
   d="M 257.33,309.232 H 588.542" />
		<path
   id="path2423"
   fill="none"
   stroke="#898989"
   stroke-width="0.5"
   d="M 290.386,593.853 V 266.563" />
		<path
   id="path2425"
   fill="none"
   stroke="#898989"
   stroke-width="0.5"
   d="M 326.886,593.853 V 266.563" />
		<path
   id="path2427"
   fill="none"
   stroke="#898989"
   stroke-width="0.5"
   d="M 363.386,593.853 V 266.563" />
		<path
   id="path2429"
   fill="none"
   stroke="#898989"
   stroke-width="0.5"
   d="M 399.886,593.853 V 266.563" />
		<path
   id="path2431"
   fill="none"
   stroke="#898989"
   stroke-width="0.5"
   d="M 436.386,593.853 V 266.563" />
		<path
   id="path2433"
   fill="none"
   stroke="#898989"
   stroke-width="0.5"
   d="M 472.886,593.853 V 266.563" />
		<path
   id="path2435"
   fill="none"
   stroke="#898989"
   stroke-width="0.5"
   d="M 509.386,593.853 V 266.563" />
		<path
   id="path2437"
   fill="none"
   stroke="#898989"
   stroke-width="0.5"
   d="M 545.886,593.853 V 266.563" />
		<path
   id="path2439"
   fill="none"
   stroke="#898989"
   stroke-width="0.5"
   d="M 582.386,593.853 V 266.563" />
		<path
   id="path2441"
   fill="none"
   stroke="#898989"
   stroke-width="0.503"
   d="M 257.33,561.233 H 588.542" />
		<path
   id="path2443"
   fill="none"
   stroke="#898989"
   stroke-width="0.503"
   d="M 257.33,525.233 H 588.542" />
		<path
   id="path2445"
   fill="none"
   stroke="#898989"
   stroke-width="0.503"
   d="M 257.33,489.232 H 588.542" />
		<path
   id="path2447"
   fill="none"
   stroke="#898989"
   stroke-width="0.503"
   d="M 257.33,453.232 H 588.542" />
		<path
   id="path2449"
   fill="none"
   stroke="#898989"
   stroke-width="0.503"
   d="M 257.33,417.232 H 588.542" />
		<path
   id="path2451"
   fill="none"
   stroke="#898989"
   stroke-width="0.503"
   d="M 257.33,381.232 H 588.542" />
		<path
   id="path2453"
   fill="none"
   stroke="#898989"
   stroke-width="0.503"
   d="M 257.33,345.232 H 588.542" />
		<path
   id="path2455"
   fill="none"
   stroke="#898989"
   stroke-width="0.503"
   d="M 257.33,273.233 H 588.542" />
		<path
   id="path2457"
   fill="none"
   stroke="#898989"
   stroke-width="0.503"
   d="M 257.33,273.232 H 588.542" />
		<path
   id="path2459"
   sodipodi:nodetypes="cc"
   fill="none"
   stroke="#898989"
   stroke-width="0.503"
   d="M 92.986,698.392 255.905,561.408" />
		<path
   id="path2461"
   sodipodi:nodetypes="cc"
   fill="none"
   stroke="#898989"
   stroke-width="0.503"
   d="M 92.986,662.392 255.905,525.408" />
		<path
   id="path2463"
   sodipodi:nodetypes="cc"
   fill="none"
   stroke="#898989"
   stroke-width="0.503"
   d="M 92.986,626.391 255.905,489.408" />
		<path
   id="path2465"
   sodipodi:nodetypes="cc"
   fill="none"
   stroke="#898989"
   stroke-width="0.503"
   d="M 92.986,590.391 255.905,453.408" />
		<path
   id="path2467"
   sodipodi:nodetypes="cc"
   fill="none"
   stroke="#898989"
   stroke-width="0.503"
   d="M 92.986,554.391 255.905,417.408" />
		<path
   id="path2469"
   sodipodi:nodetypes="cc"
   fill="none"
   stroke="#898989"
   stroke-width="0.503"
   d="M 92.986,518.391 255.905,381.408" />
		<path
   id="path2471"
   sodipodi:nodetypes="cc"
   fill="none"
   stroke="#898989"
   stroke-width="0.503"
   d="M 92.986,482.391 255.905,345.408" />
		<path
   id="path2473"
   sodipodi:nodetypes="cc"
   fill="none"
   stroke="#898989"
   stroke-width="0.503"
   d="M 92.986,446.391 255.905,309.408" />
		<path
   id="path2475"
   sodipodi:nodetypes="cc"
   fill="none"
   stroke="#898989"
   stroke-width="0.503"
   d="M 92.986,410.391 255.905,273.408" />
		<path
   id="path2477"
   fill="none"
   stroke="#898989"
   stroke-width="0.5"
   d="M 96.054,728.314 V 401.025" />
		<path
   id="path2479"
   fill="none"
   stroke="#898989"
   stroke-width="0.5"
   d="M 119.423,708.681 V 381.392" />
		<path
   id="path2483"
   fill="none"
   stroke="#898989"
   stroke-width="0.5"
   d="M 142.792,689.08 V 361.79" />
		<path
   id="path2485"
   fill="none"
   stroke="#898989"
   stroke-width="0.5"
   d="M 166.161,669.4 V 342.111" />
		<path
   id="path2487"
   fill="none"
   stroke="#898989"
   stroke-width="0.5"
   d="M 189.53,649.896 V 322.606" />
		<path
   id="path2489"
   fill="none"
   stroke="#898989"
   stroke-width="0.5"
   d="M 212.899,630.21 V 302.921" />
		<path
   id="path2491"
   fill="none"
   stroke="#898989"
   stroke-width="0.5"
   d="M 236.268,610.589 V 283.3" />
		<path
   id="path2493"
   fill="none"
   stroke="#898989"
   stroke-width="0.503"
   d="M 237.527,611.235 H 568.739" />
		<path
   id="path2495"
   fill="none"
   stroke="#898989"
   stroke-width="0.503"
   d="M 214.151,630.816 H 545.363" />
		<path
   id="path2497"
   fill="none"
   stroke="#898989"
   stroke-width="0.503"
   d="m 190.365,650.804 h 331.21" />
		<path
   id="path2499"
   fill="none"
   stroke="#898989"
   stroke-width="0.503"
   d="M 167.131,670.304 H 498.342" />
		<path
   id="path2501"
   fill="none"
   stroke="#898989"
   stroke-width="0.503"
   d="M 143.991,689.673 H 475.202" />
		<path
   id="path2503"
   fill="none"
   stroke="#898989"
   stroke-width="0.503"
   d="M 120.675,709.291 H 451.887" />
		<path
   id="path2505"
   fill="none"
   stroke="#898989"
   stroke-width="0.503"
   d="M 96.982,729.158 H 428.194" />
		<path
   id="path2507"
   sodipodi:nodetypes="cc"
   fill="none"
   stroke="#898989"
   stroke-width="0.503"
   d="M 127.607,732.152 290.526,595.17" />
		<path
   id="path2509"
   sodipodi:nodetypes="cc"
   fill="none"
   stroke="#898989"
   stroke-width="0.503"
   d="M 164.064,732.166 326.983,595.183" />
		<path
   id="path2511"
   sodipodi:nodetypes="cc"
   fill="none"
   stroke="#898989"
   stroke-width="0.503"
   d="M 200.536,732.162 363.454,595.178" />
		<path
   id="path2513"
   sodipodi:nodetypes="cc"
   fill="none"
   stroke="#898989"
   stroke-width="0.503"
   d="M 237.143,732.158 400.062,595.175" />
		<path
   id="path2515"
   sodipodi:nodetypes="cc"
   fill="none"
   stroke="#898989"
   stroke-width="0.503"
   d="M 273.576,732.134 436.495,595.15" />
		<path
   id="path2517"
   sodipodi:nodetypes="cc"
   fill="none"
   stroke="#898989"
   stroke-width="0.503"
   d="M 310.085,732.162 473.004,595.178" />
		<path
   id="path2519"
   sodipodi:nodetypes="cc"
   fill="none"
   stroke="#898989"
   stroke-width="0.503"
   d="M 346.559,732.107 509.478,595.124" />
		<path
   id="path2521"
   sodipodi:nodetypes="cc"
   fill="none"
   stroke="#898989"
   stroke-width="0.503"
   d="M 419.665,732.148 582.584,595.165" />
	</g>
	<path
   id="path6275"
   fill="none"
   stroke="#000000"
   stroke-width="1.5"
   d="M 208.428,33.663 V 360.875" />
	<path
   id="path7246"
   fill="none"
   stroke="#000000"
   stroke-width="1.5"
   d="M 542.433,360.257 H 208.183" />
	<path
   id="path7248"
   fill="none"
   stroke="#000000"
   stroke-width="1.5"
   d="M 43.639,498.522 208.865,359.88" />
	<g
   id="text11150">
		<path
   id="path2751"
   d="m 26.716,495.823 c 0.766,0.813 1.344,1.625 1.734,2.438 0.281,0.563 0.742,2.038 1.383,4.43 l 2.063,-3.094 c 0.547,-0.75 1.211,-1.461 1.992,-2.134 0.781,-0.688 1.469,-1.155 2.063,-1.405 0.375,-0.156 0.789,-0.234 1.242,-0.234 0.672,0 1.203,0.18 1.594,0.539 0.406,0.359 0.609,0.797 0.609,1.313 0,0.594 -0.117,1 -0.352,1.219 -0.438,0.391 -0.938,0.586 -1.5,0.586 -0.328,0 -0.68,-0.07 -1.055,-0.211 -0.734,-0.25 -1.227,-0.375 -1.477,-0.375 -0.375,0 -0.82,0.219 -1.336,0.656 -0.969,0.813 -2.125,2.383 -3.469,4.711 l 1.922,8.063 c 0.297,1.234 0.547,1.977 0.75,2.227 0.203,0.234 0.406,0.353 0.609,0.353 0.328,0 0.711,-0.18 1.148,-0.539 0.859,-0.719 1.594,-1.656 2.203,-2.813 l 0.82,0.423 c -0.984,1.844 -2.234,3.375 -3.75,4.594 -0.859,0.688 -1.586,1.031 -2.18,1.031 -0.875,0 -1.57,-0.492 -2.086,-1.478 -0.328,-0.608 -1.008,-3.233 -2.039,-7.875 -2.438,4.234 -4.391,6.961 -5.859,8.18 -0.953,0.781 -1.875,1.173 -2.766,1.173 -0.625,0 -1.195,-0.228 -1.711,-0.681 -0.375,-0.344 -0.563,-0.805 -0.563,-1.383 0,-0.516 0.172,-0.945 0.516,-1.289 0.344,-0.344 0.766,-0.516 1.266,-0.516 0.5,0 1.031,0.25 1.594,0.75 0.406,0.358 0.719,0.539 0.938,0.539 0.188,0 0.43,-0.125 0.727,-0.375 0.734,-0.594 1.734,-1.875 3,-3.844 1.266,-1.97 2.094,-3.392 2.484,-4.267 -0.969,-3.797 -1.492,-5.805 -1.57,-6.022 -0.359,-1.017 -0.828,-1.734 -1.406,-2.156 -0.578,-0.422 -1.43,-0.633 -2.555,-0.633 -0.359,0 -0.773,0.016 -1.242,0.047 v -0.844 z" />
	</g>
	<g
   id="text11154">
		<path
   id="path2709"
   d="m 549.841,348.05 c 0.53,0.906 0.897,1.758 1.102,2.556 0.203,0.78 0.406,2.327 0.609,4.641 l 1.03,11.531 c 0.938,-1.125 2.297,-2.906 4.078,-5.345 0.859,-1.188 1.922,-2.805 3.188,-4.852 0.766,-1.25 1.233,-2.125 1.405,-2.625 0.095,-0.25 0.142,-0.508 0.142,-0.773 0,-0.172 -0.055,-0.313 -0.164,-0.422 -0.109,-0.108 -0.398,-0.233 -0.867,-0.375 -0.453,-0.155 -0.836,-0.43 -1.148,-0.819 -0.297,-0.406 -0.444,-0.867 -0.444,-1.384 0,-0.641 0.188,-1.155 0.563,-1.547 0.375,-0.391 0.845,-0.586 1.406,-0.586 0.688,0 1.273,0.289 1.758,0.867 0.484,0.563 0.728,1.344 0.728,2.344 0,1.234 -0.422,2.648 -1.267,4.242 -0.844,1.578 -2.469,4.008 -4.875,7.289 -2.405,3.281 -5.319,6.859 -8.741,10.734 -2.359,2.672 -4.109,4.352 -5.25,5.039 -1.142,0.703 -2.117,1.055 -2.931,1.055 -0.483,0 -0.906,-0.188 -1.266,-0.563 -0.375,-0.358 -0.563,-0.78 -0.563,-1.266 0,-0.609 0.258,-1.164 0.773,-1.664 0.5,-0.5 1.047,-0.75 1.641,-0.75 0.313,0 0.57,0.07 0.773,0.211 0.125,0.078 0.266,0.297 0.422,0.656 0.141,0.375 0.273,0.625 0.398,0.75 0.077,0.078 0.172,0.117 0.28,0.117 0.095,0 0.258,-0.078 0.492,-0.234 0.859,-0.531 1.859,-1.375 3,-2.531 1.5,-1.53 2.609,-2.78 3.328,-3.75 l -1.313,-14.858 c -0.219,-2.453 -0.547,-3.945 -0.983,-4.478 -0.438,-0.531 -1.172,-0.797 -2.203,-0.797 -0.328,0 -0.914,0.047 -1.758,0.142 l -0.211,-0.867 z" />
	</g>
	<g
   id="text11158">
		<path
   id="path2613"
   d="m 202.502,11.228 h 14.883 v 0.586 l -16.219,16.875 h 6.867 c 1.625,0 2.656,-0.063 3.094,-0.188 0.438,-0.125 0.836,-0.391 1.195,-0.797 0.375,-0.406 0.789,-1.141 1.242,-2.203 h 0.867 l -2.039,6.375 h -15.258 v -0.68 l 16.219,-16.875 h -6.75 c -1.422,0 -2.281,0.039 -2.578,0.117 -0.438,0.094 -0.875,0.344 -1.313,0.75 -0.422,0.391 -0.859,1.047 -1.313,1.969 h -0.891 z" />
	</g>
	<path
   id="path12151"
   fill="none"
   stroke="#000000"
   stroke-width="1.5"
   stroke-dasharray="9, 9"
   d="M 360.035,80.487 V 477.526" />
	<g
   id="text21851">
		<path
   id="path2634"
   d="m 386.228,99.821 -0.797,0.375 c -1.859,-3.547 -3.195,-6.681 -4.009,-9.398 -0.625,-2.125 -0.938,-4.266 -0.938,-6.422 0,-5.031 1.164,-9.539 3.492,-13.522 2.858,-4.875 7.492,-9.625 13.897,-14.25 l 0.563,0.819 c -2.892,2.142 -5.25,4.539 -7.078,7.195 -2.281,3.313 -4.148,7.313 -5.602,12 -1.454,4.687 -2.181,8.953 -2.181,12.797 0.005,2.938 0.888,6.406 2.653,10.406 z" />
		<path
   id="path2636"
   d="m 395.697,70.032 8.086,-1.313 -3.375,11.392 c 2.734,-4.672 5.219,-7.938 7.453,-9.797 1.266,-1.063 2.297,-1.595 3.094,-1.595 0.517,0 0.922,0.156 1.219,0.47 0.298,0.297 0.445,0.733 0.445,1.313 0,1.031 -0.266,2.017 -0.797,2.953 -0.375,0.703 -0.914,1.055 -1.617,1.055 -0.358,0 -0.672,-0.116 -0.938,-0.352 -0.25,-0.234 -0.406,-0.594 -0.47,-1.078 -0.03,-0.297 -0.102,-0.492 -0.211,-0.586 -0.125,-0.125 -0.272,-0.188 -0.444,-0.188 -0.267,0 -0.517,0.063 -0.75,0.188 -0.406,0.219 -1.023,0.828 -1.853,1.828 -1.297,1.531 -2.703,3.516 -4.219,5.953 -0.656,1.03 -1.219,2.194 -1.688,3.491 -0.656,1.781 -1.031,2.853 -1.125,3.212 l -0.75,2.952 h -3.587 l 4.337,-14.555 c 0.5,-1.688 0.75,-2.891 0.75,-3.609 0,-0.28 -0.117,-0.516 -0.353,-0.702 -0.313,-0.25 -0.727,-0.375 -1.242,-0.375 -0.328,0 -0.93,0.069 -1.805,0.211 z" />
		<path
   id="path2638"
   d="m 406.056,95.204 c 1.172,-0.531 2.125,-1.203 2.858,-2.016 0.563,-0.625 0.844,-1.228 0.844,-1.806 0,-0.28 -0.047,-0.539 -0.141,-0.772 -0.063,-0.125 -0.281,-0.375 -0.656,-0.75 -0.375,-0.375 -0.586,-0.633 -0.633,-0.773 -0.108,-0.266 -0.164,-0.569 -0.164,-0.914 0,-0.672 0.228,-1.25 0.681,-1.733 0.469,-0.484 1.016,-0.728 1.641,-0.728 0.641,0 1.203,0.258 1.688,0.773 0.5,0.516 0.75,1.164 0.75,1.944 0,1.392 -0.547,2.798 -1.641,4.22 -1.094,1.422 -2.68,2.522 -4.758,3.305 z" />
		<path
   id="path2640"
   d="m 448.384,56.603 c 4.345,0 6.517,2.977 6.517,8.93 0,3.594 -0.883,7.578 -2.648,11.953 -1.75,4.358 -3.758,7.617 -6.022,9.772 -2.25,2.156 -4.57,3.234 -6.961,3.234 -1.953,0 -3.547,-0.828 -4.781,-2.484 -1.219,-1.672 -1.828,-3.75 -1.828,-6.233 0,-1.595 0.352,-3.797 1.055,-6.609 0.703,-2.812 1.759,-5.647 3.164,-8.508 1.406,-2.875 3.164,-5.266 5.273,-7.172 2.122,-1.922 4.2,-2.883 6.231,-2.883 z m 1.454,15.937 c 1.048,-3.297 1.57,-6.5 1.57,-9.609 0,-3.563 -1.008,-5.344 -3.022,-5.344 -1.767,0 -3.5,1.336 -5.203,4.008 -1.703,2.656 -3.267,6.306 -4.688,10.945 z m -11.789,1.336 c -1.438,4.484 -2.155,7.922 -2.155,10.313 0,1.563 0.319,2.844 0.961,3.844 0.641,0.984 1.594,1.477 2.858,1.477 1.048,0 2.031,-0.414 2.953,-1.241 0.922,-0.845 2,-2.548 3.234,-5.109 1.234,-2.563 2.397,-5.656 3.492,-9.281 h -11.344 v -0.003 z" />
		<path
   id="path2642"
   d="m 453.634,95.204 c 1.173,-0.531 2.125,-1.203 2.859,-2.016 0.563,-0.625 0.844,-1.228 0.844,-1.806 0,-0.28 -0.047,-0.539 -0.141,-0.772 -0.063,-0.125 -0.281,-0.375 -0.656,-0.75 -0.375,-0.375 -0.586,-0.633 -0.633,-0.773 -0.109,-0.266 -0.164,-0.569 -0.164,-0.914 0,-0.672 0.228,-1.25 0.68,-1.733 0.47,-0.484 1.017,-0.728 1.642,-0.728 0.641,0 1.203,0.258 1.688,0.773 0.5,0.516 0.75,1.164 0.75,1.944 0,1.392 -0.547,2.798 -1.641,4.22 -1.094,1.422 -2.68,2.522 -4.758,3.305 z" />
		<path
   id="path2644"
   d="m 486.541,100.196 h -2.391 l 2.836,-9.703 c -2.266,-0.016 -4.023,-0.695 -5.273,-2.039 -1.233,-1.359 -1.852,-3.219 -1.852,-5.578 0,-3.594 1.117,-6.828 3.352,-9.703 2.235,-2.875 5.023,-4.358 8.367,-4.453 l -0.258,0.845 c -2.094,0.344 -3.922,2.055 -5.484,5.133 -1.547,3.078 -2.319,6.094 -2.319,9.047 0,3.563 1.266,5.397 3.797,5.508 l 3.164,-10.477 c 0.797,-2.703 1.516,-4.711 2.156,-6.023 0.641,-1.328 1.43,-2.328 2.366,-3 0.938,-0.688 1.938,-1.031 3,-1.031 1.5,0 2.664,0.642 3.492,1.923 0.828,1.266 1.242,2.944 1.242,5.038 0,3.781 -1.172,7.164 -3.516,10.148 -2.328,2.969 -5.642,4.531 -9.938,4.688 z m 3.164,-10.968 c 3.125,-0.203 5.539,-1.82 7.242,-4.853 1.703,-3.047 2.555,-6.156 2.555,-9.328 0,-2.703 -0.688,-4.055 -2.063,-4.055 -0.828,0 -1.57,0.5 -2.228,1.5 -0.656,1 -1.508,3.272 -2.555,6.82 z" />
		<path
   id="path2646"
   d="m 511.666,57.048 0.797,-0.444 c 1.859,3.53 3.188,6.655 3.984,9.375 0.641,2.125 0.961,4.266 0.961,6.422 0,5.047 -1.164,9.555 -3.492,13.522 -2.875,4.892 -7.508,9.648 -13.897,14.273 l -0.563,-0.728 c 2.892,-2.155 5.25,-4.555 7.078,-7.194 2.281,-3.313 4.148,-7.313 5.603,-12 1.452,-4.703 2.18,-8.978 2.18,-12.82 -0.003,-2.936 -0.886,-6.406 -2.651,-10.406 z" />
	</g>
	<path
   id="path21855"
   fill="none"
   stroke="#000000"
   stroke-width="1.5103"
   stroke-dasharray="9.0615, 9.0615"
   d="M 208.463,360.261 360.834,78.209" />
	<path
   id="path22826"
   fill="none"
   stroke="#000000"
   stroke-width="1.5"
   stroke-dasharray="9, 9"
   d="M 208.472,360.346 360.012,477.05" />
	<path
   id="path24773"
   fill="none"
   stroke="#000000"
   stroke-width="1.5"
   d="m 182.395,382.091 c 15.446,3.854 33.929,4.875 51.776,0.064" />
	<path
   id="path25744"
   fill="none"
   stroke="#000000"
   stroke-width="1.5"
   d="m 246.662,389.757 c 9.815,-20.317 19.365,-44.917 -1.606,-72.193" />
	<g
   id="text25746">
		<path
   id="path2730"
   d="M 200.991,425.19 H 198.6 l 2.836,-9.703 c -2.266,-0.017 -4.023,-0.695 -5.273,-2.039 -1.234,-1.359 -1.852,-3.219 -1.852,-5.578 0,-3.594 1.117,-6.828 3.352,-9.703 2.235,-2.875 5.023,-4.359 8.367,-4.453 l -0.258,0.844 c -2.094,0.345 -3.922,2.056 -5.484,5.134 -1.547,3.078 -2.32,6.094 -2.32,9.047 0,3.563 1.266,5.397 3.797,5.508 l 3.164,-10.477 c 0.797,-2.703 1.516,-4.712 2.156,-6.023 0.641,-1.328 1.43,-2.328 2.367,-3 0.938,-0.688 1.938,-1.031 3,-1.031 1.5,0 2.664,0.642 3.492,1.922 0.828,1.267 1.242,2.945 1.242,5.039 0,3.781 -1.172,7.164 -3.516,10.148 -2.328,2.969 -5.641,4.531 -9.938,4.688 z m 3.164,-10.969 c 3.125,-0.202 5.539,-1.819 7.242,-4.852 1.703,-3.047 2.555,-6.156 2.555,-9.328 0,-2.703 -0.688,-4.055 -2.063,-4.055 -0.828,0 -1.57,0.5 -2.227,1.5 -0.657,1 -1.508,3.272 -2.555,6.819 z" />
	</g>
	<g
   id="text25752">
		<path
   id="path2688"
   d="m 277.594,314.341 c 4.344,0 6.516,2.978 6.516,8.931 0,3.594 -0.883,7.577 -2.648,11.952 -1.75,4.359 -3.758,7.617 -6.023,9.773 -2.25,2.156 -4.57,3.234 -6.961,3.234 -1.953,0 -3.547,-0.828 -4.781,-2.484 -1.219,-1.672 -1.828,-3.75 -1.828,-6.234 0,-1.594 0.352,-3.797 1.055,-6.608 0.703,-2.813 1.758,-5.648 3.164,-8.508 1.406,-2.875 3.164,-5.267 5.273,-7.173 2.124,-1.922 4.202,-2.883 6.233,-2.883 z m 1.453,15.938 c 1.047,-3.297 1.57,-6.5 1.57,-9.609 0,-3.563 -1.008,-5.344 -3.023,-5.344 -1.766,0 -3.5,1.336 -5.203,4.008 -1.703,2.656 -3.266,6.305 -4.688,10.945 z m -11.789,1.336 c -1.438,4.483 -2.156,7.922 -2.156,10.313 0,1.563 0.32,2.845 0.961,3.845 0.641,0.983 1.594,1.477 2.859,1.477 1.047,0 2.031,-0.414 2.953,-1.242 0.922,-0.844 2,-2.547 3.234,-5.108 1.234,-2.563 2.398,-5.656 3.492,-9.281 h -11.343 z" />
	</g>
	<g
   id="text25758">
		<path
   id="path2667"
   d="m 272.984,178.628 8.086,-1.313 -3.375,11.391 c 2.734,-4.672 5.219,-7.938 7.453,-9.797 1.266,-1.063 2.297,-1.594 3.094,-1.594 0.516,0 0.922,0.155 1.219,0.469 0.297,0.297 0.445,0.734 0.445,1.313 0,1.031 -0.266,2.017 -0.797,2.953 -0.375,0.703 -0.914,1.056 -1.617,1.056 -0.359,0 -0.672,-0.117 -0.938,-0.353 -0.25,-0.233 -0.406,-0.594 -0.469,-1.078 -0.031,-0.297 -0.102,-0.492 -0.211,-0.586 -0.125,-0.125 -0.273,-0.188 -0.445,-0.188 -0.266,0 -0.516,0.063 -0.75,0.188 -0.406,0.219 -1.023,0.828 -1.852,1.828 -1.297,1.531 -2.703,3.517 -4.219,5.953 -0.656,1.031 -1.219,2.195 -1.688,3.492 -0.656,1.781 -1.031,2.852 -1.125,3.211 l -0.75,2.953 h -3.586 l 4.336,-14.556 c 0.5,-1.688 0.75,-2.891 0.75,-3.608 0,-0.281 -0.117,-0.517 -0.352,-0.703 -0.313,-0.25 -0.727,-0.375 -1.242,-0.375 -0.328,0 -0.93,0.07 -1.805,0.211 z" />
	</g>
	<path
   id="path2249"
   fill="none"
   stroke="#000000"
   stroke-width="2"
   d="m 354.316,74.108 11.518,11.518" />
	<path
   id="path2251"
   fill="none"
   stroke="#000000"
   stroke-width="2"
   d="M 365.834,74.108 354.316,85.626" />
	<polygon
   points="236.174,380.939 225.344,378.235 228.388,390.231 "
   id="polygon85" />
	<polygon
   points="250.165,313.397 238.163,309.112 240.209,321.757 "
   id="polygon87" />
</g>
</svg>
