<?xml version="1.0" encoding="UTF-8" standalone="no"?>
<!-- Created with Inkscape (http://www.inkscape.org/) -->

<svg
   xmlns:dc="http://purl.org/dc/elements/1.1/"
   xmlns:cc="http://creativecommons.org/ns#"
   xmlns:rdf="http://www.w3.org/1999/02/22-rdf-syntax-ns#"
   xmlns:svg="http://www.w3.org/2000/svg"
   xmlns="http://www.w3.org/2000/svg"
   xmlns:sodipodi="http://sodipodi.sourceforge.net/DTD/sodipodi-0.dtd"
   xmlns:inkscape="http://www.inkscape.org/namespaces/inkscape"
   width="414.15179"
   height="359.83731"
   viewBox="0 0 109.57766 95.206956"
   version="1.1"
   id="svg8"
   inkscape:version="0.92.4 (5da689c313, 2019-01-14)"
   sodipodi:docname="image6.svg">
  <defs
     id="defs2">
    <clipPath
       id="clipEmfPath1"
       clipPathUnits="userSpaceOnUse">
      <path
         id="path815"
         d="m 122.72562,78.592368 h 97.78074 v 32.300422 h -97.78074 z"
         inkscape:connector-curvature="0" />
    </clipPath>
    <clipPath
       id="clipEmfPath2"
       clipPathUnits="userSpaceOnUse">
      <path
         id="path818"
         d="m 122.72562,154.30648 h 97.78074 v 32.22047 h -97.78074 z"
         inkscape:connector-curvature="0" />
    </clipPath>
    <clipPath
       id="clipEmfPath3"
       clipPathUnits="userSpaceOnUse">
      <path
         id="path821"
         d="m 122.72562,230.02059 h 97.78074 v 32.22048 h -97.78074 z"
         inkscape:connector-curvature="0" />
    </clipPath>
    <clipPath
       id="clipEmfPath4"
       clipPathUnits="userSpaceOnUse">
      <path
         id="path824"
         d="m 122.72562,305.65475 h 97.78074 v 32.30043 h -97.78074 z"
         inkscape:connector-curvature="0" />
    </clipPath>
    <clipPath
       id="clipEmfPath5"
       clipPathUnits="userSpaceOnUse">
      <path
         id="path827"
         d="m 311.89098,305.73471 h 97.86069 v 32.22047 h -97.86069 z"
         inkscape:connector-curvature="0" />
    </clipPath>
    <clipPath
       id="clipEmfPath6"
       clipPathUnits="userSpaceOnUse">
      <path
         id="path830"
         d="M 296.94004,78.592368 H 442.21199 V 110.89279 H 296.94004 Z"
         inkscape:connector-curvature="0" />
    </clipPath>
    <clipPath
       id="clipEmfPath7"
       clipPathUnits="userSpaceOnUse">
      <path
         id="path833"
         d="m 274.5536,199.23925 h 125.36403 v 25.66444 H 274.5536 Z"
         inkscape:connector-curvature="0" />
    </clipPath>
    <clipPath
       id="clipEmfPath8"
       clipPathUnits="userSpaceOnUse">
      <path
         id="path836"
         d="m 104.33677,198.75954 h 66.59963 v 25.7444 h -66.59963 z"
         inkscape:connector-curvature="0" />
    </clipPath>
    <clipPath
       id="clipEmfPath9"
       clipPathUnits="userSpaceOnUse">
      <path
         id="path839"
         d="m 100.65899,274.87341 h 70.27741 v 25.7444 h -70.27741 z"
         inkscape:connector-curvature="0" />
    </clipPath>
    <clipPath
       id="clipEmfPath10"
       clipPathUnits="userSpaceOnUse">
      <path
         id="path842"
         d="m 15.670503,125.44397 h 62.202301 v 25.7444 H 15.670503 Z"
         inkscape:connector-curvature="0" />
    </clipPath>
    <clipPath
       id="clipEmfPath11"
       clipPathUnits="userSpaceOnUse">
      <path
         id="path845"
         d="m 116.3295,37.417323 h 54.04724 V 63.081769 H 116.3295 Z"
         inkscape:connector-curvature="0" />
    </clipPath>
    <clipPath
       id="clipEmfPath12"
       clipPathUnits="userSpaceOnUse">
      <path
         id="path848"
         d="m 100.65899,124.4046 h 69.55785 v 25.7444 h -69.55785 z"
         inkscape:connector-curvature="0" />
    </clipPath>
    <clipPath
       id="clipEmfPath13"
       clipPathUnits="userSpaceOnUse">
      <path
         id="path851"
         d="m 245.05148,47.970927 h 59.96366 v 41.4149 h -59.96366 z"
         inkscape:connector-curvature="0" />
    </clipPath>
    <clipPath
       id="clipEmfPath14"
       clipPathUnits="userSpaceOnUse">
      <path
         id="path854"
         d="m 263.20048,256.80436 h 86.58753 v 68.03877 h -86.58753 z"
         inkscape:connector-curvature="0" />
    </clipPath>
    <pattern
       y="0"
       x="0"
       height="6"
       width="6"
       patternUnits="userSpaceOnUse"
       id="EMFhbasepattern" />
    <clipPath
       id="clipEmfPath1-7"
       clipPathUnits="userSpaceOnUse">
      <path
         id="path938"
         d="M -5.7616648,-9.6027746 H 630.5822 V 472.13642 H -5.7616648 Z"
         inkscape:connector-curvature="0" />
    </clipPath>
    <clipPath
       id="clipEmfPath2-8"
       clipPathUnits="userSpaceOnUse">
      <path
         id="path941"
         d="M 15.684532,32.649434 H 606.25517 v 45.13304 H 15.684532 Z"
         inkscape:connector-curvature="0" />
    </clipPath>
    <clipPath
       id="clipEmfPath3-2"
       clipPathUnits="userSpaceOnUse">
      <path
         id="path944-9"
         d="M 15.684532,80.663307 H 299.28647 V 161.9668 H 15.684532 Z"
         inkscape:connector-curvature="0" />
    </clipPath>
    <clipPath
       id="clipEmfPath4-8"
       clipPathUnits="userSpaceOnUse">
      <path
         id="path947"
         d="m 320.73267,217.3428 h 135.39912 v 33.28962 H 320.73267 Z"
         inkscape:connector-curvature="0" />
    </clipPath>
    <clipPath
       id="clipEmfPath5-9"
       clipPathUnits="userSpaceOnUse">
      <path
         id="path950-3"
         d="M 15.684532,355.94284 H 606.89535 v 44.81295 H 15.684532 Z"
         inkscape:connector-curvature="0" />
    </clipPath>
    <clipPath
       id="clipEmfPath6-6"
       clipPathUnits="userSpaceOnUse">
      <path
         id="path953"
         d="M 320.73267,80.663307 H 456.13179 V 209.98067 H 320.73267 Z"
         inkscape:connector-curvature="0" />
    </clipPath>
    <clipPath
       id="clipEmfPath7-6"
       clipPathUnits="userSpaceOnUse">
      <path
         id="path956"
         d="M 471.49623,80.663307 H 606.89535 V 209.98067 H 471.49623 Z"
         inkscape:connector-curvature="0" />
    </clipPath>
    <clipPath
       id="clipEmfPath8-9"
       clipPathUnits="userSpaceOnUse">
      <path
         id="path959"
         d="M 372.90775,3.2009249 H 546.71797 V 31.369064 H 372.90775 Z"
         inkscape:connector-curvature="0" />
    </clipPath>
    <clipPath
       id="clipEmfPath9-9"
       clipPathUnits="userSpaceOnUse">
      <path
         id="path962"
         d="m 106.27071,183.0929 h 96.34783 v 22.08638 h -96.34783 z"
         inkscape:connector-curvature="0" />
    </clipPath>
    <clipPath
       id="clipEmfPath10-3"
       clipPathUnits="userSpaceOnUse">
      <path
         id="path965"
         d="m 177.97142,219.26335 h 68.49979 v 22.08638 h -68.49979 z"
         inkscape:connector-curvature="0" />
    </clipPath>
    <clipPath
       id="clipEmfPath11-6"
       clipPathUnits="userSpaceOnUse">
      <path
         id="path968-6"
         d="m 479.81864,217.98298 h 66.89933 v 33.92981 h -66.89933 z"
         inkscape:connector-curvature="0" />
    </clipPath>
    <clipPath
       id="clipEmfPath12-3"
       clipPathUnits="userSpaceOnUse">
      <path
         id="path971"
         d="m 242.31001,282.64167 h 55.376 v 37.13072 h -55.376 z"
         inkscape:connector-curvature="0" />
    </clipPath>
    <clipPath
       id="clipEmfPath13-3"
       clipPathUnits="userSpaceOnUse">
      <path
         id="path974"
         d="m 321.69295,283.60194 h 132.51829 v 37.13073 H 321.69295 Z"
         inkscape:connector-curvature="0" />
    </clipPath>
    <clipPath
       id="clipEmfPath14-0"
       clipPathUnits="userSpaceOnUse">
      <path
         id="path977"
         d="m 222.46428,255.11371 h 69.46007 v 16.32472 h -69.46007 z"
         inkscape:connector-curvature="0" />
    </clipPath>
    <clipPath
       id="clipEmfPath15"
       clipPathUnits="userSpaceOnUse">
      <path
         id="path980"
         d="M 66.259145,4.4812948 H 239.74927 V 52.175075 H 66.259145 Z"
         inkscape:connector-curvature="0" />
    </clipPath>
    <clipPath
       id="clipEmfPath16"
       clipPathUnits="userSpaceOnUse">
      <path
         id="path983"
         d="m 328.41489,255.11371 h 69.46007 v 16.32472 h -69.46007 z"
         inkscape:connector-curvature="0" />
    </clipPath>
    <clipPath
       id="clipEmfPath17"
       clipPathUnits="userSpaceOnUse">
      <path
         id="path986"
         d="m 474.37706,219.26335 h 69.46007 v 22.08638 h -69.46007 z"
         inkscape:connector-curvature="0" />
    </clipPath>
    <clipPath
       id="clipEmfPath18"
       clipPathUnits="userSpaceOnUse">
      <path
         id="path989"
         d="m 321.37286,219.26335 h 69.46007 v 16.00463 h -69.46007 z"
         inkscape:connector-curvature="0" />
    </clipPath>
    <clipPath
       id="clipEmfPath19"
       clipPathUnits="userSpaceOnUse">
      <path
         id="path992"
         d="m 321.37286,319.77239 h 285.52249 v 32.96953 H 321.37286 Z"
         inkscape:connector-curvature="0" />
    </clipPath>
    <clipPath
       id="clipEmfPath20"
       clipPathUnits="userSpaceOnUse">
      <path
         id="path995"
         d="m 318.49202,255.11371 h 69.46007 v 16.32472 h -69.46007 z"
         inkscape:connector-curvature="0" />
    </clipPath>
    <clipPath
       id="clipEmfPath21"
       clipPathUnits="userSpaceOnUse">
      <path
         id="path998"
         d="m 116.83376,319.77239 h 180.85225 v 32.96953 H 116.83376 Z"
         inkscape:connector-curvature="0" />
    </clipPath>
    <clipPath
       id="clipEmfPath22"
       clipPathUnits="userSpaceOnUse">
      <path
         id="path1001"
         d="m 15.684532,319.77239 h 85.784788 v 32.96953 H 15.684532 Z"
         inkscape:connector-curvature="0" />
    </clipPath>
    <pattern
       y="0"
       x="0"
       height="6"
       width="6"
       patternUnits="userSpaceOnUse"
       id="EMFhbasepattern-5" />
    <clipPath
       id="clipEmfPath1-8"
       clipPathUnits="userSpaceOnUse">
      <path
         id="path1615"
         d="M 0,0 H 396.24243 V 337.80667 H 0 Z"
         inkscape:connector-curvature="0" />
    </clipPath>
    <clipPath
       id="clipEmfPath2-5"
       clipPathUnits="userSpaceOnUse">
      <path
         id="path1618"
         d="M -7.2113248,-582.72437 H 107.36861 v 19.18435 H -7.2113248 Z"
         inkscape:connector-curvature="0" />
    </clipPath>
    <clipPath
       id="clipEmfPath3-8"
       clipPathUnits="userSpaceOnUse">
      <path
         id="path1621"
         d="m 174.35381,-582.72437 h 106.24685 v 19.18435 H 174.35381 Z"
         inkscape:connector-curvature="0" />
    </clipPath>
    <clipPath
       id="clipEmfPath4-7"
       clipPathUnits="userSpaceOnUse">
      <path
         id="path1624"
         d="m 104.16358,-537.48129 h 78.36306 v 15.98695 h -78.36306 z"
         inkscape:connector-curvature="0" />
    </clipPath>
    <clipPath
       id="clipEmfPath5-2"
       clipPathUnits="userSpaceOnUse">
      <path
         id="path1627"
         d="m 106.24685,-413.90216 h 79.16432 v 15.98695 h -79.16432 z"
         inkscape:connector-curvature="0" />
    </clipPath>
    <clipPath
       id="clipEmfPath6-1"
       clipPathUnits="userSpaceOnUse">
      <path
         id="path1630"
         d="M 60.036731,28.817631 H 174.50677 V 48.029385 H 60.036731 Z"
         inkscape:connector-curvature="0" />
    </clipPath>
    <clipPath
       id="clipEmfPath7-8"
       clipPathUnits="userSpaceOnUse">
      <path
         id="path1633"
         d="M 241.42771,28.817631 H 347.57265 V 48.029385 H 241.42771 Z"
         inkscape:connector-curvature="0" />
    </clipPath>
    <clipPath
       id="clipEmfPath8-0"
       clipPathUnits="userSpaceOnUse">
      <path
         id="path1636"
         d="M 171.30481,74.125351 H 249.5927 V 90.135146 H 171.30481 Z"
         inkscape:connector-curvature="0" />
    </clipPath>
    <clipPath
       id="clipEmfPath9-6"
       clipPathUnits="userSpaceOnUse">
      <path
         id="path1639"
         d="m 173.38608,197.88107 h 79.08839 v 16.00979 h -79.08839 z"
         inkscape:connector-curvature="0" />
    </clipPath>
    <pattern
       y="0"
       x="0"
       height="6"
       width="6"
       patternUnits="userSpaceOnUse"
       id="EMFhbasepattern-6" />
    <clipPath
       id="clipEmfPath1-0"
       clipPathUnits="userSpaceOnUse">
      <path
         id="path2762"
         d="M 4.3206582,-1.9202925 H 640.41756 V 407.74212 H 4.3206582 Z"
         inkscape:connector-curvature="0" />
    </clipPath>
    <clipPath
       id="clipEmfPath2-4"
       clipPathUnits="userSpaceOnUse">
      <path
         id="path2765"
         d="M 87.053262,77.13175 H 385.01865 v 33.76514 H 87.053262 Z"
         inkscape:connector-curvature="0" />
    </clipPath>
    <clipPath
       id="clipEmfPath3-1"
       clipPathUnits="userSpaceOnUse">
      <path
         id="path2768"
         d="M 165.46521,192.66935 H 288.04388 V 226.4345 H 165.46521 Z"
         inkscape:connector-curvature="0" />
    </clipPath>
    <clipPath
       id="clipEmfPath4-84"
       clipPathUnits="userSpaceOnUse">
      <path
         id="path2771"
         d="M 82.572579,209.63194 H 389.49934 v 33.60511 H 82.572579 Z"
         inkscape:connector-curvature="0" />
    </clipPath>
    <clipPath
       id="clipEmfPath5-8"
       clipPathUnits="userSpaceOnUse">
      <path
         id="path2774"
         d="M 87.853384,226.59452 H 388.37917 v 33.60512 H 87.853384 Z"
         inkscape:connector-curvature="0" />
    </clipPath>
    <clipPath
       id="clipEmfPath6-0"
       clipPathUnits="userSpaceOnUse">
      <path
         id="path2777"
         d="M 96.014627,291.40439 H 372.69678 v 33.76515 H 96.014627 Z"
         inkscape:connector-curvature="0" />
    </clipPath>
    <clipPath
       id="clipEmfPath7-5"
       clipPathUnits="userSpaceOnUse">
      <path
         id="path2780"
         d="m 117.29787,341.17197 h 228.67484 v 33.76515 H 117.29787 Z"
         inkscape:connector-curvature="0" />
    </clipPath>
    <clipPath
       id="clipEmfPath8-04"
       clipPathUnits="userSpaceOnUse">
      <path
         id="path2783"
         d="M 16.322487,140.18136 H 213.47252 v 36.8056 H 16.322487 Z"
         inkscape:connector-curvature="0" />
    </clipPath>
    <clipPath
       id="clipEmfPath9-2"
       clipPathUnits="userSpaceOnUse">
      <path
         id="path2786"
         d="m 202.75089,141.1415 h 16.32248 v 18.40281 h -16.32248 z"
         inkscape:connector-curvature="0" />
    </clipPath>
    <clipPath
       id="clipEmfPath10-6"
       clipPathUnits="userSpaceOnUse">
      <path
         id="path2789"
         d="M 265.00037,140.18136 H 372.8568 v 35.36538 H 265.00037 Z"
         inkscape:connector-curvature="0" />
    </clipPath>
    <clipPath
       id="clipEmfPath11-0"
       clipPathUnits="userSpaceOnUse">
      <path
         id="path2792"
         d="m 459.91006,194.58964 h 147.54248 v 35.20537 H 459.91006 Z"
         inkscape:connector-curvature="0" />
    </clipPath>
    <clipPath
       id="clipEmfPath12-2"
       clipPathUnits="userSpaceOnUse">
      <path
         id="path2795"
         d="M 8.8013408,18.402804 H 17.92273 V 36.805607 H 8.8013408 Z"
         inkscape:connector-curvature="0" />
    </clipPath>
    <clipPath
       id="clipEmfPath13-9"
       clipPathUnits="userSpaceOnUse">
      <path
         id="path2798"
         d="m 22.083364,18.402804 h 9.281414 v 18.402803 h -9.281414 z"
         inkscape:connector-curvature="0" />
    </clipPath>
    <clipPath
       id="clipEmfPath14-5"
       clipPathUnits="userSpaceOnUse">
      <path
         id="path2801"
         d="m 35.525412,18.402804 h 9.12139 v 18.402803 h -9.12139 z"
         inkscape:connector-curvature="0" />
    </clipPath>
    <clipPath
       id="clipEmfPath15-4"
       clipPathUnits="userSpaceOnUse">
      <path
         id="path2804"
         d="m 102.25558,18.402804 h 9.12139 v 18.402803 h -9.12139 z"
         inkscape:connector-curvature="0" />
    </clipPath>
    <clipPath
       id="clipEmfPath16-9"
       clipPathUnits="userSpaceOnUse">
      <path
         id="path2807"
         d="m 48.807435,18.402804 h 9.12139 v 18.402803 h -9.12139 z"
         inkscape:connector-curvature="0" />
    </clipPath>
    <clipPath
       id="clipEmfPath17-3"
       clipPathUnits="userSpaceOnUse">
      <path
         id="path2810"
         d="m 62.089459,18.402804 h 9.281414 v 18.402803 h -9.281414 z"
         inkscape:connector-curvature="0" />
    </clipPath>
    <clipPath
       id="clipEmfPath18-5"
       clipPathUnits="userSpaceOnUse">
      <path
         id="path2813"
         d="m 75.531507,18.402804 h 9.121389 v 18.402803 h -9.121389 z"
         inkscape:connector-curvature="0" />
    </clipPath>
    <clipPath
       id="clipEmfPath19-8"
       clipPathUnits="userSpaceOnUse">
      <path
         id="path2816"
         d="m 128.81962,18.402804 h 9.28142 v 18.402803 h -9.28142 z"
         inkscape:connector-curvature="0" />
    </clipPath>
    <clipPath
       id="clipEmfPath20-2"
       clipPathUnits="userSpaceOnUse">
      <path
         id="path2819"
         d="m 115.5376,18.402804 h 9.12139 v 18.402803 h -9.12139 z"
         inkscape:connector-curvature="0" />
    </clipPath>
    <clipPath
       id="clipEmfPath21-7"
       clipPathUnits="userSpaceOnUse">
      <path
         id="path2822"
         d="m 88.81353,18.402804 h 9.281414 V 36.805607 H 88.81353 Z"
         inkscape:connector-curvature="0" />
    </clipPath>
    <clipPath
       id="clipEmfPath22-5"
       clipPathUnits="userSpaceOnUse">
      <path
         id="path2825"
         d="m 142.26167,18.402804 h 9.28142 v 18.402803 h -9.28142 z"
         inkscape:connector-curvature="0" />
    </clipPath>
    <clipPath
       id="clipEmfPath23"
       clipPathUnits="userSpaceOnUse">
      <path
         id="path2828"
         d="m 155.5437,18.402804 h 9.28141 v 18.402803 h -9.28141 z"
         inkscape:connector-curvature="0" />
    </clipPath>
    <clipPath
       id="clipEmfPath24"
       clipPathUnits="userSpaceOnUse">
      <path
         id="path2831"
         d="m 168.98574,18.402804 h 9.12139 v 18.402803 h -9.12139 z"
         inkscape:connector-curvature="0" />
    </clipPath>
    <clipPath
       id="clipEmfPath25"
       clipPathUnits="userSpaceOnUse">
      <path
         id="path2834"
         d="m 235.71591,18.402804 h 9.12139 v 18.402803 h -9.12139 z"
         inkscape:connector-curvature="0" />
    </clipPath>
    <clipPath
       id="clipEmfPath26"
       clipPathUnits="userSpaceOnUse">
      <path
         id="path2837"
         d="m 182.26777,18.402804 h 9.28141 v 18.402803 h -9.28141 z"
         inkscape:connector-curvature="0" />
    </clipPath>
    <clipPath
       id="clipEmfPath27"
       clipPathUnits="userSpaceOnUse">
      <path
         id="path2840"
         d="m 195.54979,18.402804 h 9.28141 v 18.402803 h -9.28141 z"
         inkscape:connector-curvature="0" />
    </clipPath>
    <clipPath
       id="clipEmfPath28"
       clipPathUnits="userSpaceOnUse">
      <path
         id="path2843"
         d="m 208.99184,18.402804 h 9.12139 v 18.402803 h -9.12139 z"
         inkscape:connector-curvature="0" />
    </clipPath>
    <clipPath
       id="clipEmfPath29"
       clipPathUnits="userSpaceOnUse">
      <path
         id="path2846"
         d="m 262.43998,18.402804 h 9.12139 v 18.402803 h -9.12139 z"
         inkscape:connector-curvature="0" />
    </clipPath>
    <clipPath
       id="clipEmfPath30"
       clipPathUnits="userSpaceOnUse">
      <path
         id="path2849"
         d="m 248.99793,18.402804 h 9.28142 v 18.402803 h -9.28142 z"
         inkscape:connector-curvature="0" />
    </clipPath>
    <clipPath
       id="clipEmfPath31"
       clipPathUnits="userSpaceOnUse">
      <path
         id="path2852"
         d="m 222.43389,18.402804 h 9.12139 v 18.402803 h -9.12139 z"
         inkscape:connector-curvature="0" />
    </clipPath>
    <clipPath
       id="clipEmfPath32"
       clipPathUnits="userSpaceOnUse">
      <path
         id="path2855"
         d="m 275.722,18.402804 h 9.12139 V 36.805607 H 275.722 Z"
         inkscape:connector-curvature="0" />
    </clipPath>
    <clipPath
       id="clipEmfPath33"
       clipPathUnits="userSpaceOnUse">
      <path
         id="path2858"
         d="m 289.16405,18.402804 h 9.12139 v 18.402803 h -9.12139 z"
         inkscape:connector-curvature="0" />
    </clipPath>
    <clipPath
       id="clipEmfPath34"
       clipPathUnits="userSpaceOnUse">
      <path
         id="path2861"
         d="m 302.44607,18.402804 h 9.12139 v 18.402803 h -9.12139 z"
         inkscape:connector-curvature="0" />
    </clipPath>
    <clipPath
       id="clipEmfPath35"
       clipPathUnits="userSpaceOnUse">
      <path
         id="path2864"
         d="m 369.17624,18.402804 h 9.12139 v 18.402803 h -9.12139 z"
         inkscape:connector-curvature="0" />
    </clipPath>
    <clipPath
       id="clipEmfPath36"
       clipPathUnits="userSpaceOnUse">
      <path
         id="path2867"
         d="m 315.7281,18.402804 h 9.28141 v 18.402803 h -9.28141 z"
         inkscape:connector-curvature="0" />
    </clipPath>
    <clipPath
       id="clipEmfPath37"
       clipPathUnits="userSpaceOnUse">
      <path
         id="path2870"
         d="m 329.17015,18.402804 h 9.12139 v 18.402803 h -9.12139 z"
         inkscape:connector-curvature="0" />
    </clipPath>
    <clipPath
       id="clipEmfPath38"
       clipPathUnits="userSpaceOnUse">
      <path
         id="path2873"
         d="m 342.45217,18.402804 h 9.12139 v 18.402803 h -9.12139 z"
         inkscape:connector-curvature="0" />
    </clipPath>
    <clipPath
       id="clipEmfPath39"
       clipPathUnits="userSpaceOnUse">
      <path
         id="path2876"
         d="m 395.90031,18.402804 h 9.12139 v 18.402803 h -9.12139 z"
         inkscape:connector-curvature="0" />
    </clipPath>
    <clipPath
       id="clipEmfPath40"
       clipPathUnits="userSpaceOnUse">
      <path
         id="path2879"
         d="m 382.45826,18.402804 h 9.28142 v 18.402803 h -9.28142 z"
         inkscape:connector-curvature="0" />
    </clipPath>
    <clipPath
       id="clipEmfPath41"
       clipPathUnits="userSpaceOnUse">
      <path
         id="path2882"
         d="m 355.89422,18.402804 h 9.12139 v 18.402803 h -9.12139 z"
         inkscape:connector-curvature="0" />
    </clipPath>
    <clipPath
       id="clipEmfPath42"
       clipPathUnits="userSpaceOnUse">
      <path
         id="path2885"
         d="m 409.18234,18.402804 h 9.12138 v 18.402803 h -9.12138 z"
         inkscape:connector-curvature="0" />
    </clipPath>
    <clipPath
       id="clipEmfPath43"
       clipPathUnits="userSpaceOnUse">
      <path
         id="path2888"
         d="m 421.66424,18.402804 h 9.12139 v 18.402803 h -9.12139 z"
         inkscape:connector-curvature="0" />
    </clipPath>
    <clipPath
       id="clipEmfPath44"
       clipPathUnits="userSpaceOnUse">
      <path
         id="path2891"
         d="M 8.8013408,-0.32004876 H 17.92273 V 18.082755 H 8.8013408 Z"
         inkscape:connector-curvature="0" />
    </clipPath>
    <clipPath
       id="clipEmfPath45"
       clipPathUnits="userSpaceOnUse">
      <path
         id="path2894"
         d="m 142.26167,-0.32004876 h 9.28142 V 18.082755 h -9.28142 z"
         inkscape:connector-curvature="0" />
    </clipPath>
    <clipPath
       id="clipEmfPath46"
       clipPathUnits="userSpaceOnUse">
      <path
         id="path2897"
         d="m 275.722,-0.32004876 h 9.12139 V 18.082755 H 275.722 Z"
         inkscape:connector-curvature="0" />
    </clipPath>
    <clipPath
       id="clipEmfPath47"
       clipPathUnits="userSpaceOnUse">
      <path
         id="path2900"
         d="m 409.18234,-0.32004876 h 9.12138 V 18.082755 h -9.12138 z"
         inkscape:connector-curvature="0" />
    </clipPath>
    <pattern
       y="0"
       x="0"
       height="6"
       width="6"
       patternUnits="userSpaceOnUse"
       id="EMFhbasepattern-67" />
    <clipPath
       id="clipEmfPath1-4"
       clipPathUnits="userSpaceOnUse">
      <path
         id="path3762"
         d="M -17.770872,-3.8423508 H 558.58175 V 345.97167 H -17.770872 Z"
         inkscape:connector-curvature="0" />
    </clipPath>
    <clipPath
       id="clipEmfPath2-0"
       clipPathUnits="userSpaceOnUse">
      <path
         id="path3765"
         d="m 0,220.77507 h 32.339786 v 27.69695 H 0 Z"
         inkscape:connector-curvature="0" />
    </clipPath>
    <clipPath
       id="clipEmfPath3-4"
       clipPathUnits="userSpaceOnUse">
      <path
         id="path3768"
         d="M 0,64.679572 H 76.366722 V 92.216419 H 0 Z"
         inkscape:connector-curvature="0" />
    </clipPath>
    <clipPath
       id="clipEmfPath4-86"
       clipPathUnits="userSpaceOnUse">
      <path
         id="path3771"
         d="M 134.80247,27.857043 H 394.80155 V 41.625467 H 134.80247 Z"
         inkscape:connector-curvature="0" />
    </clipPath>
    <clipPath
       id="clipEmfPath5-27"
       clipPathUnits="userSpaceOnUse">
      <path
         id="path3774"
         d="m 236.62477,119.43307 h 40.34468 v 27.53685 h -40.34468 z"
         inkscape:connector-curvature="0" />
    </clipPath>
    <clipPath
       id="clipEmfPath6-8"
       clipPathUnits="userSpaceOnUse">
      <path
         id="path3777"
         d="M 215.01155,169.70383 H 320.0358 v 27.53684 H 215.01155 Z"
         inkscape:connector-curvature="0" />
    </clipPath>
    <clipPath
       id="clipEmfPath7-7"
       clipPathUnits="userSpaceOnUse">
      <path
         id="path3780"
         d="m 236.62477,281.2921 h 70.283 v 27.53685 h -70.283 z"
         inkscape:connector-curvature="0" />
    </clipPath>
    <clipPath
       id="clipEmfPath8-6"
       clipPathUnits="userSpaceOnUse">
      <path
         id="path3783"
         d="m 220.45488,145.84923 h 75.56623 v 27.53685 h -75.56623 z"
         inkscape:connector-curvature="0" />
    </clipPath>
    <clipPath
       id="clipEmfPath9-0"
       clipPathUnits="userSpaceOnUse">
      <path
         id="path3786"
         d="M 215.01155,248.63212 H 320.0358 v 27.69694 H 215.01155 Z"
         inkscape:connector-curvature="0" />
    </clipPath>
    <clipPath
       id="clipEmfPath10-34"
       clipPathUnits="userSpaceOnUse">
      <path
         id="path3789"
         d="M 215.01155,195.79979 H 320.0358 v 27.69695 H 215.01155 Z"
         inkscape:connector-curvature="0" />
    </clipPath>
    <clipPath
       id="clipEmfPath11-8"
       clipPathUnits="userSpaceOnUse">
      <path
         id="path3792"
         d="m 424.41967,178.18902 h 101.5021 v 21.45312 h -101.5021 z"
         inkscape:connector-curvature="0" />
    </clipPath>
    <clipPath
       id="clipEmfPath12-0"
       clipPathUnits="userSpaceOnUse">
      <path
         id="path3795"
         d="m 213.57067,64.679572 h 93.177 v 27.536847 h -93.177 z"
         inkscape:connector-curvature="0" />
    </clipPath>
    <clipPath
       id="clipEmfPath13-5"
       clipPathUnits="userSpaceOnUse">
      <path
         id="path3798"
         d="M 90.135146,-0.3201959 H 138.64482 V 39.544194 H 90.135146 Z"
         inkscape:connector-curvature="0" />
    </clipPath>
    <clipPath
       id="clipEmfPath14-6"
       clipPathUnits="userSpaceOnUse">
      <path
         id="path3801"
         d="m 377.03067,-0.3201959 h 37.78312 V 36.502333 h -37.78312 z"
         inkscape:connector-curvature="0" />
    </clipPath>
    <pattern
       y="0"
       x="0"
       height="6"
       width="6"
       patternUnits="userSpaceOnUse"
       id="EMFhbasepattern-4" />
    <pattern
       y="0"
       x="0"
       height="6"
       width="6"
       patternUnits="userSpaceOnUse"
       id="EMFhbasepattern-0" />
  </defs>
  <sodipodi:namedview
     id="base"
     pagecolor="#ffffff"
     bordercolor="#666666"
     borderopacity="1.0"
     inkscape:pageopacity="0.0"
     inkscape:pageshadow="2"
     inkscape:zoom="0.35"
     inkscape:cx="1305.181"
     inkscape:cy="-482.20794"
     inkscape:document-units="mm"
     inkscape:current-layer="layer1"
     showgrid="false"
     inkscape:window-width="1920"
     inkscape:window-height="1017"
     inkscape:window-x="-8"
     inkscape:window-y="-8"
     inkscape:window-maximized="1"
     fit-margin-top="0"
     fit-margin-left="0"
     fit-margin-right="0"
     fit-margin-bottom="0"
     units="px" />
  <metadata
     id="metadata5">
    <rdf:RDF>
      <cc:Work
         rdf:about="">
        <dc:format>image/svg+xml</dc:format>
        <dc:type
           rdf:resource="http://purl.org/dc/dcmitype/StillImage" />
        <dc:title></dc:title>
      </cc:Work>
    </rdf:RDF>
  </metadata>
  <g
     inkscape:label="Layer 1"
     inkscape:groupmode="layer"
     id="layer1"
     transform="translate(485.18034,73.957806)">
    <g
       id="g4526"
       transform="matrix(0.26458333,0,0,0.26458333,-485.1817,-73.957806)">
      <path
         id="path4174"
         d="m 59.119562,49.119636 h 20.31985 v 14.87989 h -20.31985 z"
         style="fill:#ffffff;fill-opacity:1;fill-rule:evenodd;stroke:#000000;stroke-width:1.03999233px;stroke-linecap:butt;stroke-linejoin:miter;stroke-miterlimit:4;stroke-dasharray:none;stroke-opacity:1"
         inkscape:connector-curvature="0" />
      <path
         id="path4176"
         d="m 67.279502,52.879608 v 3.439975 h 1.599988 c 0.639995,0 1.039992,-0.08 1.35999,-0.399997 0.319997,-0.319998 0.479996,-0.719995 0.479996,-1.35999 0,-0.479997 -0.159999,-0.959993 -0.479996,-1.279991 -0.319998,-0.239998 -0.719995,-0.399997 -1.35999,-0.399997 z m -1.199991,-1.039992 h 2.799979 c 1.039992,0 1.839986,0.239998 2.399982,0.719995 0.559996,0.399997 0.799994,1.119991 0.799994,1.999985 0,0.959993 -0.239998,1.679987 -0.799994,2.159984 -0.559996,0.399997 -1.35999,0.639995 -2.399982,0.639995 h -1.599988 v 3.759972 h -1.199991 z"
         style="fill:#000000;fill-opacity:1;fill-rule:nonzero;stroke:none"
         inkscape:connector-curvature="0" />
      <path
         id="path4178"
         d="m 37.83972,49.119636 h 20.23985 v 14.87989 H 37.83972 Z"
         style="fill:#ffffff;fill-opacity:1;fill-rule:evenodd;stroke:#000000;stroke-width:1.03999233px;stroke-linecap:butt;stroke-linejoin:miter;stroke-miterlimit:4;stroke-dasharray:none;stroke-opacity:1"
         inkscape:connector-curvature="0" />
      <path
         id="path4180"
         d="m 47.439649,51.839616 h 1.199991 v 9.279931 h -1.199991 z"
         style="fill:#000000;fill-opacity:1;fill-rule:nonzero;stroke:none"
         inkscape:connector-curvature="0" />
      <path
         id="path4182"
         d="m 80.479404,49.119636 h 20.239846 v 14.87989 H 80.479404 Z"
         style="fill:#ffffff;fill-opacity:1;fill-rule:evenodd;stroke:#000000;stroke-width:1.03999233px;stroke-linecap:butt;stroke-linejoin:miter;stroke-miterlimit:4;stroke-dasharray:none;stroke-opacity:1"
         inkscape:connector-curvature="0" />
      <path
         id="path4184"
         d="m 88.639343,52.879608 v 3.439975 h 1.599989 c 0.559995,0 1.039992,-0.08 1.359989,-0.399997 0.319998,-0.319998 0.479997,-0.719995 0.479997,-1.35999 0,-0.479997 -0.159999,-0.959993 -0.479997,-1.279991 -0.319997,-0.239998 -0.799994,-0.399997 -1.359989,-0.399997 z m -1.27999,-1.039992 h 2.879979 c 1.039992,0 1.839986,0.239998 2.399982,0.719995 0.479996,0.399997 0.799994,1.119991 0.799994,1.999985 0,0.959993 -0.319998,1.679987 -0.799994,2.159984 -0.559996,0.399997 -1.35999,0.639995 -2.399982,0.639995 h -1.599989 v 3.759972 h -1.27999 z"
         style="fill:#000000;fill-opacity:1;fill-rule:nonzero;stroke:none"
         inkscape:connector-curvature="0" />
      <path
         id="path4186"
         d="m 123.11909,49.119636 h 20.31985 v 14.87989 h -20.31985 z"
         style="fill:#ffffff;fill-opacity:1;fill-rule:evenodd;stroke:#000000;stroke-width:1.03999233px;stroke-linecap:butt;stroke-linejoin:miter;stroke-miterlimit:4;stroke-dasharray:none;stroke-opacity:1"
         inkscape:connector-curvature="0" />
      <path
         id="path4188"
         d="m 131.27903,52.879608 v 3.439975 h 1.59999 c 0.63999,0 1.03999,-0.08 1.35999,-0.399997 0.31999,-0.319998 0.47999,-0.719995 0.47999,-1.35999 0,-0.479997 -0.16,-0.959993 -0.47999,-1.279991 -0.32,-0.239998 -0.72,-0.399997 -1.35999,-0.399997 z m -1.19999,-1.039992 h 2.79998 c 1.03999,0 1.83998,0.239998 2.39998,0.719995 0.55999,0.399997 0.79999,1.119991 0.79999,1.999985 0,0.959993 -0.24,1.679987 -0.79999,2.159984 -0.56,0.399997 -1.35999,0.639995 -2.39998,0.639995 h -1.59999 v 3.759972 h -1.19999 z"
         style="fill:#000000;fill-opacity:1;fill-rule:nonzero;stroke:none"
         inkscape:connector-curvature="0" />
      <path
         id="path4190"
         d="m 101.83925,49.119636 h 20.23985 v 14.87989 h -20.23985 z"
         style="fill:#ffffff;fill-opacity:1;fill-rule:evenodd;stroke:#000000;stroke-width:1.03999233px;stroke-linecap:butt;stroke-linejoin:miter;stroke-miterlimit:4;stroke-dasharray:none;stroke-opacity:1"
         inkscape:connector-curvature="0" />
      <path
         id="path4192"
         d="m 111.43917,51.839616 h 1.2 v 9.279931 h -1.2 z"
         style="fill:#000000;fill-opacity:1;fill-rule:nonzero;stroke:none"
         inkscape:connector-curvature="0" />
      <path
         id="path4194"
         d="m 144.47893,49.119636 h 20.23985 v 14.87989 h -20.23985 z"
         style="fill:#ffffff;fill-opacity:1;fill-rule:evenodd;stroke:#000000;stroke-width:1.03999233px;stroke-linecap:butt;stroke-linejoin:miter;stroke-miterlimit:4;stroke-dasharray:none;stroke-opacity:1"
         inkscape:connector-curvature="0" />
      <path
         id="path4196"
         d="m 152.63887,52.879608 v 3.439975 h 1.59999 c 0.55999,0 1.03999,-0.08 1.35999,-0.399997 0.32,-0.319998 0.47999,-0.719995 0.47999,-1.35999 0,-0.479997 -0.15999,-0.959993 -0.47999,-1.279991 -0.32,-0.239998 -0.8,-0.399997 -1.35999,-0.399997 z m -1.27999,-1.039992 h 2.87998 c 1.03999,0 1.83998,0.239998 2.39998,0.719995 0.48,0.399997 0.79999,1.119991 0.79999,1.999985 0,0.959993 -0.31999,1.679987 -0.79999,2.159984 -0.56,0.399997 -1.35999,0.639995 -2.39998,0.639995 h -1.59999 v 3.759972 h -1.27999 z"
         style="fill:#000000;fill-opacity:1;fill-rule:nonzero;stroke:none"
         inkscape:connector-curvature="0" />
      <path
         id="path4198"
         d="m 251.11814,49.119636 h 20.31985 v 14.87989 h -20.31985 z"
         style="fill:#ffffff;fill-opacity:1;fill-rule:evenodd;stroke:#000000;stroke-width:1.03999233px;stroke-linecap:butt;stroke-linejoin:miter;stroke-miterlimit:4;stroke-dasharray:none;stroke-opacity:1"
         inkscape:connector-curvature="0" />
      <path
         id="path4200"
         d="m 259.27808,52.879608 v 3.439975 h 1.59999 c 0.63999,0 1.03999,-0.08 1.35999,-0.399997 0.32,-0.319998 0.47999,-0.719995 0.47999,-1.35999 0,-0.479997 -0.15999,-0.959993 -0.47999,-1.279991 -0.32,-0.239998 -0.72,-0.399997 -1.35999,-0.399997 z m -1.19999,-1.039992 h 2.79998 c 1.03999,0 1.83998,0.239998 2.39998,0.719995 0.56,0.399997 0.79999,1.119991 0.79999,1.999985 0,0.959993 -0.23999,1.679987 -0.79999,2.159984 -0.56,0.399997 -1.35999,0.639995 -2.39998,0.639995 h -1.59999 v 3.759972 h -1.19999 z"
         style="fill:#000000;fill-opacity:1;fill-rule:nonzero;stroke:none"
         inkscape:connector-curvature="0" />
      <path
         id="path4202"
         d="m 229.8383,49.119636 h 20.23985 v 14.87989 H 229.8383 Z"
         style="fill:#ffffff;fill-opacity:1;fill-rule:evenodd;stroke:#000000;stroke-width:1.03999233px;stroke-linecap:butt;stroke-linejoin:miter;stroke-miterlimit:4;stroke-dasharray:none;stroke-opacity:1"
         inkscape:connector-curvature="0" />
      <path
         id="path4204"
         d="m 239.43823,51.839616 h 1.19999 v 9.279931 h -1.19999 z"
         style="fill:#000000;fill-opacity:1;fill-rule:nonzero;stroke:none"
         inkscape:connector-curvature="0" />
      <path
         id="path4206"
         d="m 272.47798,49.119636 h 20.23985 v 14.87989 h -20.23985 z"
         style="fill:#ffffff;fill-opacity:1;fill-rule:evenodd;stroke:#000000;stroke-width:1.03999233px;stroke-linecap:butt;stroke-linejoin:miter;stroke-miterlimit:4;stroke-dasharray:none;stroke-opacity:1"
         inkscape:connector-curvature="0" />
      <path
         id="path4208"
         d="m 280.63792,52.879608 v 3.439975 h 1.59999 c 0.56,0 1.03999,-0.08 1.35999,-0.399997 0.32,-0.319998 0.48,-0.719995 0.48,-1.35999 0,-0.479997 -0.16,-0.959993 -0.48,-1.279991 -0.32,-0.239998 -0.79999,-0.399997 -1.35999,-0.399997 z m -1.27999,-1.039992 h 2.87998 c 1.03999,0 1.83999,0.239998 2.39998,0.719995 0.48,0.399997 0.8,1.119991 0.8,1.999985 0,0.959993 -0.32,1.679987 -0.8,2.159984 -0.55999,0.399997 -1.35999,0.639995 -2.39998,0.639995 h -1.59999 v 3.759972 h -1.27999 z"
         style="fill:#000000;fill-opacity:1;fill-rule:nonzero;stroke:none"
         inkscape:connector-curvature="0" />
      <path
         id="path4210"
         d="m 315.11767,49.119636 h 20.31985 v 14.87989 h -20.31985 z"
         style="fill:#ffffff;fill-opacity:1;fill-rule:evenodd;stroke:#000000;stroke-width:1.03999233px;stroke-linecap:butt;stroke-linejoin:miter;stroke-miterlimit:4;stroke-dasharray:none;stroke-opacity:1"
         inkscape:connector-curvature="0" />
      <path
         id="path4212"
         d="m 323.27761,52.879608 v 3.439975 h 1.59998 c 0.64,0 1.04,-0.08 1.35999,-0.399997 0.32,-0.319998 0.48,-0.719995 0.48,-1.35999 0,-0.479997 -0.16,-0.959993 -0.48,-1.279991 -0.31999,-0.239998 -0.71999,-0.399997 -1.35999,-0.399997 z m -1.2,-1.039992 h 2.79998 c 1.04,0 1.83999,0.239998 2.39999,0.719995 0.55999,0.399997 0.79999,1.119991 0.79999,1.999985 0,0.959993 -0.24,1.679987 -0.79999,2.159984 -0.56,0.399997 -1.35999,0.639995 -2.39999,0.639995 h -1.59998 v 3.759972 h -1.2 z"
         style="fill:#000000;fill-opacity:1;fill-rule:nonzero;stroke:none"
         inkscape:connector-curvature="0" />
      <path
         id="path4214"
         d="m 293.83782,49.119636 h 20.23985 v 14.87989 h -20.23985 z"
         style="fill:#ffffff;fill-opacity:1;fill-rule:evenodd;stroke:#000000;stroke-width:1.03999233px;stroke-linecap:butt;stroke-linejoin:miter;stroke-miterlimit:4;stroke-dasharray:none;stroke-opacity:1"
         inkscape:connector-curvature="0" />
      <path
         id="path4216"
         d="m 303.43775,51.839616 h 1.19999 v 9.279931 h -1.19999 z"
         style="fill:#000000;fill-opacity:1;fill-rule:nonzero;stroke:none"
         inkscape:connector-curvature="0" />
      <path
         id="path4218"
         d="m 336.47751,49.119636 h 20.23985 v 14.87989 h -20.23985 z"
         style="fill:#ffffff;fill-opacity:1;fill-rule:evenodd;stroke:#000000;stroke-width:1.03999233px;stroke-linecap:butt;stroke-linejoin:miter;stroke-miterlimit:4;stroke-dasharray:none;stroke-opacity:1"
         inkscape:connector-curvature="0" />
      <path
         id="path4220"
         d="m 344.63745,52.879608 v 3.439975 h 1.59999 c 0.55999,0 1.03999,-0.08 1.35999,-0.399997 0.31999,-0.319998 0.47999,-0.719995 0.47999,-1.35999 0,-0.479997 -0.16,-0.959993 -0.47999,-1.279991 -0.32,-0.239998 -0.8,-0.399997 -1.35999,-0.399997 z m -1.27999,-1.039992 h 2.87998 c 1.03999,0 1.83998,0.239998 2.39998,0.719995 0.47999,0.399997 0.79999,1.119991 0.79999,1.999985 0,0.959993 -0.32,1.679987 -0.79999,2.159984 -0.56,0.399997 -1.35999,0.639995 -2.39998,0.639995 h -1.59999 v 3.759972 h -1.27999 z"
         style="fill:#000000;fill-opacity:1;fill-rule:nonzero;stroke:none"
         inkscape:connector-curvature="0" />
      <path
         id="path4222"
         d="M 10.639921,27.599796 H 367.91727"
         style="fill:none;stroke:#000000;stroke-width:1.03999233px;stroke-linecap:butt;stroke-linejoin:miter;stroke-miterlimit:4;stroke-dasharray:none;stroke-opacity:1"
         inkscape:connector-curvature="0" />
      <path
         id="path4224"
         d="m 357.27735,27.599796 -4.23997,4.239968 14.87989,-4.239968 -14.87989,-4.239969 z"
         style="fill:#000000;fill-opacity:1;fill-rule:evenodd;stroke:#000000;stroke-width:1.03999233px;stroke-linecap:butt;stroke-linejoin:miter;stroke-miterlimit:4;stroke-dasharray:none;stroke-opacity:1"
         inkscape:connector-curvature="0" />
      <path
         id="path4226"
         d="m 321.03762,5.3599603 c 0.32,0.079999 0.56,0.2399982 0.8,0.5599958 0.31999,0.3199977 0.55999,0.7199947 0.79999,1.2799906 l 1.27999,2.559981 h -1.35999 l -1.19999,-2.3999822 c -0.32,-0.6399953 -0.56,-1.0399923 -0.87999,-1.2799905 -0.32,-0.1599989 -0.72,-0.3199977 -1.2,-0.3199977 h -1.35998 v 3.9999704 h -1.28 V 0.39999704 h 2.87998 c 1.04,0 1.83999,0.23999822 2.39999,0.63999526 0.47999,0.4799964 0.71999,1.1199917 0.71999,2.0799846 0,0.5599958 -0.08,1.0399923 -0.4,1.4399893 -0.24,0.3999971 -0.63999,0.6399953 -1.19999,0.7999941 z m -3.11997,-3.919971 V 4.719965 h 1.59998 c 0.56,0 1.04,-0.079999 1.35999,-0.399997 0.32,-0.2399982 0.48,-0.7199947 0.48,-1.1999911 0,-0.5599959 -0.16,-0.9599929 -0.48,-1.2799905 -0.31999,-0.2399983 -0.79999,-0.3999971 -1.35999,-0.3999971 z"
         style="fill:#000000;fill-opacity:1;fill-rule:nonzero;stroke:none"
         inkscape:connector-curvature="0" />
      <path
         id="path4228"
         d="M 330.87755,5.9199561 V 6.479952 h -5.27996 c 0.08,0.7999941 0.32,1.4399893 0.71999,1.8399864 0.48,0.399997 1.04,0.6399952 1.83999,0.6399952 0.4,0 0.79999,-0.079999 1.27999,-0.1599988 0.4,-0.1599988 0.79999,-0.3199976 1.19999,-0.4799964 v 1.0399923 c -0.4,0.1599988 -0.79999,0.3199976 -1.27999,0.399997 -0.4,0.079999 -0.87999,0.1599988 -1.27999,0.1599988 -1.11999,0 -1.99999,-0.3199976 -2.63998,-0.9599929 -0.72,-0.6399952 -1.03999,-1.5199887 -1.03999,-2.6399804 0,-1.1999911 0.31999,-2.0799846 0.95999,-2.7199799 0.64,-0.7199946 1.43999,-1.0399923 2.47998,-1.0399923 0.95999,0 1.67999,0.3199977 2.23998,0.8799935 0.56,0.6399953 0.8,1.4399894 0.8,2.4799816 z m -1.11999,-0.3199976 c 0,-0.6399952 -0.16,-1.1199917 -0.56,-1.5199887 -0.32,-0.3999971 -0.79999,-0.5599959 -1.35999,-0.5599959 -0.63999,0 -1.11999,0.1599988 -1.51999,0.5599959 -0.39999,0.3199976 -0.55999,0.8799935 -0.63999,1.5199887 z"
         style="fill:#000000;fill-opacity:1;fill-rule:nonzero;stroke:none"
         inkscape:connector-curvature="0" />
      <path
         id="path4230"
         d="m 337.8375,2.9599781 v 1.1199917 c -0.32,-0.1599988 -0.64,-0.3199977 -0.96,-0.3999971 -0.31999,-0.079999 -0.63999,-0.1599988 -1.03999,-0.1599988 -0.71999,0 -1.27999,0.2399982 -1.67999,0.7199947 -0.39999,0.4799964 -0.63999,1.1199917 -0.63999,1.9999852 0,0.8799935 0.24,1.5199887 0.63999,1.9999852 0.4,0.4799964 0.96,0.7199946 1.67999,0.7199946 0.4,0 0.72,-0.079999 1.03999,-0.1599988 0.32,-0.079999 0.64,-0.2399982 0.96,-0.399997 v 1.0399923 c -0.32,0.1599988 -0.64,0.2399982 -0.96,0.3199976 -0.39999,0.079999 -0.71999,0.1599988 -1.11999,0.1599988 -1.03999,0 -1.91998,-0.3199976 -2.55998,-1.0399923 -0.55999,-0.6399952 -0.87999,-1.5199887 -0.87999,-2.6399804 0,-1.1199917 0.32,-2.0799846 0.95999,-2.7199799 0.56,-0.6399952 1.43999,-0.9599929 2.55998,-0.9599929 0.32,0 0.72,0 1.03999,0.079999 0.32,0.08 0.64,0.2399983 0.96,0.3199981 z"
         style="fill:#000000;fill-opacity:1;fill-rule:nonzero;stroke:none"
         inkscape:connector-curvature="0" />
      <path
         id="path4232"
         d="m 342.55746,3.5199739 c -0.63999,0 -1.11999,0.2399982 -1.43999,0.7199947 -0.39999,0.4799964 -0.55999,1.1199917 -0.55999,1.9999852 0,0.7999941 0.16,1.5199887 0.55999,1.9999852 0.32,0.4799964 0.8,0.7199946 1.43999,0.7199946 0.64,0 1.11999,-0.2399982 1.43999,-0.7199946 0.4,-0.4799965 0.56,-1.1999911 0.56,-1.9999852 0,-0.7999941 -0.16,-1.5199888 -0.56,-1.9999852 -0.32,-0.4799965 -0.79999,-0.7199947 -1.43999,-0.7199947 z m 0,-0.9599929 c 1.03999,0 1.75999,0.3199977 2.39998,0.9599929 0.56,0.6399953 0.8,1.5999882 0.8,2.7199799 0,1.1199917 -0.24,1.9999852 -0.8,2.7199798 -0.63999,0.6399953 -1.35999,0.9599929 -2.39998,0.9599929 -0.95999,0 -1.75998,-0.3199976 -2.31998,-0.9599929 -0.64,-0.7199946 -0.87999,-1.5999881 -0.87999,-2.7199798 0,-1.1199917 0.23999,-2.0799846 0.87999,-2.7199799 0.56,-0.6399952 1.35999,-0.9599929 2.31998,-0.9599929 z"
         style="fill:#000000;fill-opacity:1;fill-rule:nonzero;stroke:none"
         inkscape:connector-curvature="0" />
      <path
         id="path4234"
         d="m 351.75739,3.8399716 c -0.15999,-0.08 -0.31999,-0.1599989 -0.47999,-0.2399983 -0.16,0 -0.32,0 -0.48,0 -0.63999,0 -1.11999,0.1599988 -1.51999,0.6399953 -0.31999,0.399997 -0.47999,1.0399923 -0.47999,1.759987 v 3.7599721 h -1.19999 V 2.7199799 h 1.19999 v 1.1199917 c 0.23999,-0.4799965 0.55999,-0.7999941 0.95999,-0.9599929 0.4,-0.2399983 0.79999,-0.3199977 1.35999,-0.3199977 0.08,0 0.16,0 0.32,0 0.08,0 0.16,0 0.31999,0.079999 z"
         style="fill:#000000;fill-opacity:1;fill-rule:nonzero;stroke:none"
         inkscape:connector-curvature="0" />
      <path
         id="path4236"
         d="M 357.35735,3.7599721 V 0 h 1.11999 v 9.7599277 h -1.11999 V 8.639936 c -0.24,0.4799964 -0.55999,0.7999941 -0.95999,0.9599929 -0.32,0.2399982 -0.79999,0.3199976 -1.27999,0.3199976 -0.87999,0 -1.59999,-0.3199976 -2.07999,-1.0399923 -0.55999,-0.6399952 -0.79999,-1.5199887 -0.79999,-2.6399804 0,-1.1199917 0.24,-1.9999852 0.79999,-2.6399805 0.48,-0.7199946 1.2,-1.0399923 2.07999,-1.0399923 0.48,0 0.95999,0.079999 1.27999,0.3199977 0.4,0.1599988 0.71999,0.4799964 0.95999,0.8799934 z m -3.91997,2.4799817 c 0,0.7999941 0.16,1.5199887 0.48,1.9999852 0.4,0.4799964 0.87999,0.7199946 1.43999,0.7199946 0.63999,0 1.11999,-0.2399982 1.43999,-0.7199946 0.31999,-0.4799965 0.55999,-1.1999911 0.55999,-1.9999852 0,-0.8799935 -0.24,-1.5199888 -0.55999,-1.9999852 -0.32,-0.4799965 -0.8,-0.7199947 -1.43999,-0.7199947 -0.56,0 -1.03999,0.2399982 -1.43999,0.7199947 -0.32,0.4799964 -0.48,1.1199917 -0.48,1.9999852 z"
         style="fill:#000000;fill-opacity:1;fill-rule:nonzero;stroke:none"
         inkscape:connector-curvature="0" />
      <path
         id="path4238"
         d="m 360.87733,2.7199799 h 1.11999 v 7.0399478 h -1.11999 z M 360.87733,0 h 1.11999 v 1.4399893 h -1.11999 z"
         style="fill:#000000;fill-opacity:1;fill-rule:nonzero;stroke:none"
         inkscape:connector-curvature="0" />
      <path
         id="path4240"
         d="m 370.23726,5.5199591 v 4.2399686 h -1.19999 V 5.5199591 c 0,-0.6399952 -0.08,-1.1199917 -0.32,-1.4399893 -0.32,-0.3199977 -0.72,-0.5599959 -1.19999,-0.5599959 -0.64,0 -1.11999,0.2399982 -1.43999,0.6399953 -0.4,0.399997 -0.56,0.9599929 -0.56,1.5999881 V 9.7599277 H 364.3173 V 2.7199799 h 1.19999 v 1.1199917 c 0.24,-0.4799965 0.56,-0.7999941 0.96,-0.9599929 0.39999,-0.2399983 0.79999,-0.3199977 1.27999,-0.3199977 0.79999,0 1.43999,0.2399983 1.83998,0.7199947 0.4,0.5599959 0.64,1.2799905 0.64,2.2399834 z"
         style="fill:#000000;fill-opacity:1;fill-rule:nonzero;stroke:none"
         inkscape:connector-curvature="0" />
      <path
         id="path4242"
         d="m 377.11721,6.1599544 c 0,-0.8799935 -0.16,-1.5199888 -0.48,-1.9199858 -0.4,-0.4799965 -0.87999,-0.7199947 -1.43999,-0.7199947 -0.63999,0 -1.11999,0.2399982 -1.43999,0.7199947 -0.4,0.399997 -0.55999,1.0399923 -0.55999,1.9199858 0,0.799994 0.15999,1.4399893 0.55999,1.9199857 0.32,0.4799965 0.8,0.7199947 1.43999,0.7199947 0.56,0 1.03999,-0.2399982 1.43999,-0.7199947 0.32,-0.4799964 0.48,-1.1199917 0.48,-1.9199857 z m 1.19999,2.7199798 c 0,1.1999908 -0.32,2.0799848 -0.8,2.6399808 -0.55999,0.559996 -1.35999,0.879993 -2.47998,0.879993 -0.4,0 -0.79999,-0.08 -1.11999,-0.08 -0.4,-0.08 -0.71999,-0.159999 -1.03999,-0.319998 v -1.119992 c 0.32,0.239999 0.63999,0.319998 0.95999,0.399997 0.4,0.08 0.72,0.159999 1.03999,0.159999 0.72,0 1.27999,-0.239998 1.67999,-0.559996 0.4,-0.399997 0.56,-1.0399919 0.56,-1.839986 V 8.4799372 c -0.24,0.399997 -0.56,0.7199947 -0.88,0.9599929 -0.39999,0.1599988 -0.79999,0.3199976 -1.35999,0.3199976 -0.87999,0 -1.51999,-0.399997 -2.07998,-1.0399923 -0.48,-0.6399953 -0.8,-1.5199887 -0.8,-2.559981 0,-1.1199917 0.32,-1.9999852 0.8,-2.6399805 0.55999,-0.6399952 1.19999,-0.9599929 2.07998,-0.9599929 0.56,0 0.96,0.079999 1.35999,0.3199977 0.32,0.1599988 0.64,0.4799964 0.88,0.8799934 V 2.7199799 h 1.19999 z"
         style="fill:#000000;fill-opacity:1;fill-rule:nonzero;stroke:none"
         inkscape:connector-curvature="0" />
      <path
         id="path4244"
         d="m 383.51716,0.39999704 h 7.83994 V 1.4399893 h -3.27997 v 8.3199384 h -1.28 V 1.4399893 h -3.27997 z"
         style="fill:#000000;fill-opacity:1;fill-rule:nonzero;stroke:none"
         inkscape:connector-curvature="0" />
      <path
         id="path4246"
         d="m 392.1571,2.7199799 h 1.11999 V 9.7599277 H 392.1571 Z M 392.1571,0 h 1.11999 v 1.4399893 h -1.11999 z"
         style="fill:#000000;fill-opacity:1;fill-rule:nonzero;stroke:none"
         inkscape:connector-curvature="0" />
      <path
         id="path4248"
         d="m 401.11703,4.0799698 c 0.32,-0.5599959 0.63999,-0.8799935 1.03999,-1.1199917 0.4,-0.3199977 0.87999,-0.3999971 1.43999,-0.3999971 0.72,0 1.27999,0.2399983 1.67999,0.7999941 0.39999,0.4799965 0.55999,1.1999911 0.55999,2.159984 V 9.7599277 H 404.717 V 5.5199591 c 0,-0.6399952 -0.08,-1.1199917 -0.32,-1.4399893 -0.23999,-0.3999971 -0.63999,-0.5599959 -1.11999,-0.5599959 -0.55999,0 -1.03999,0.2399982 -1.43999,0.6399953 -0.31999,0.399997 -0.47999,0.9599929 -0.47999,1.5999881 v 3.9999704 h -1.19999 V 5.5199591 c 0,-0.6399952 -0.08,-1.1199917 -0.32,-1.4399893 -0.24,-0.3999971 -0.64,-0.5599959 -1.11999,-0.5599959 -0.56,0 -1.04,0.2399982 -1.35999,0.6399953 -0.4,0.399997 -0.56,0.9599929 -0.56,1.5999881 v 3.9999704 h -1.11999 V 2.7199799 h 1.11999 v 1.1199917 c 0.24,-0.4799965 0.56,-0.7999941 0.95999,-0.9599929 0.4,-0.2399983 0.8,-0.3199977 1.27999,-0.3199977 0.56,0 0.96,0.1599989 1.27999,0.3999971 0.4,0.2399982 0.64,0.6399952 0.8,1.1199917 z"
         style="fill:#000000;fill-opacity:1;fill-rule:nonzero;stroke:none"
         inkscape:connector-curvature="0" />
      <path
         id="path4250"
         d="M 414.15693,5.9199561 V 6.479952 h -5.27996 c 0.08,0.7999941 0.32,1.4399893 0.72,1.8399864 0.39999,0.399997 1.03999,0.6399952 1.75998,0.6399952 0.48,0 0.88,-0.079999 1.27999,-0.1599988 0.4,-0.1599988 0.88,-0.3199976 1.27999,-0.4799964 v 1.0399923 c -0.39999,0.1599988 -0.87999,0.3199976 -1.27999,0.399997 -0.47999,0.079999 -0.87999,0.1599988 -1.35999,0.1599988 -1.11999,0 -1.99998,-0.3199976 -2.63998,-0.9599929 -0.63999,-0.6399952 -0.95999,-1.5199887 -0.95999,-2.6399804 0,-1.1999911 0.32,-2.0799846 0.95999,-2.7199799 0.56,-0.7199946 1.43999,-1.0399923 2.47998,-1.0399923 0.96,0 1.67999,0.3199977 2.23999,0.8799935 0.55999,0.6399953 0.79999,1.4399894 0.79999,2.4799816 z m -1.11999,-0.3199976 c 0,-0.6399952 -0.24,-1.1199917 -0.56,-1.5199887 -0.31999,-0.3999971 -0.79999,-0.5599959 -1.35999,-0.5599959 -0.63999,0 -1.11999,0.1599988 -1.51998,0.5599959 -0.4,0.3199976 -0.64,0.8799935 -0.72,1.5199887 z"
         style="fill:#000000;fill-opacity:1;fill-rule:nonzero;stroke:none"
         inkscape:connector-curvature="0" />
      <path
         id="path4252"
         d="M 6.079955,81.279398 5.2799609,293.11783"
         style="fill:none;stroke:#000000;stroke-width:1.03999233px;stroke-linecap:butt;stroke-linejoin:miter;stroke-miterlimit:4;stroke-dasharray:none;stroke-opacity:1"
         inkscape:connector-curvature="0" />
      <path
         id="path4254"
         d="m 5.3599603,282.39791 -4.319968,-4.23997 4.2399686,14.95989 4.319968,-14.95989 z"
         style="fill:#000000;fill-opacity:1;fill-rule:evenodd;stroke:#000000;stroke-width:1.03999233px;stroke-linecap:butt;stroke-linejoin:miter;stroke-miterlimit:4;stroke-dasharray:none;stroke-opacity:1"
         inkscape:connector-curvature="0" />
      <path
         id="path4256"
         d="m 29.359783,268.55801 c 0.319997,0.08 0.559995,0.32 0.799994,0.64 0.239998,0.23999 0.559995,0.71999 0.799994,1.19999 l 1.27999,2.55998 h -1.35999 L 29.67978,270.558 c -0.319997,-0.64 -0.639995,-1.04 -0.879993,-1.2 -0.319998,-0.23999 -0.719995,-0.31999 -1.199991,-0.31999 h -1.35999 v 3.91997 h -1.279991 v -9.35993 h 2.879979 c 1.039992,0 1.839986,0.24 2.399982,0.71999 0.479996,0.4 0.719995,1.11999 0.719995,1.99999 0,0.55999 -0.08,1.03999 -0.399997,1.43999 -0.239999,0.39999 -0.639996,0.63999 -1.199991,0.79999 z m -3.119977,-3.91997 v 3.35997 h 1.599988 c 0.559996,0 1.039992,-0.15999 1.35999,-0.39999 0.319997,-0.32 0.479996,-0.72 0.479996,-1.27999 0,-0.56 -0.159999,-0.96 -0.479996,-1.19999 -0.319998,-0.32 -0.799994,-0.48 -1.35999,-0.48 z"
         style="fill:#000000;fill-opacity:1;fill-rule:nonzero;stroke:none"
         inkscape:connector-curvature="0" />
      <path
         id="path4258"
         d="m 39.19971,269.19801 v 0.55999 h -5.279961 c 0.08,0.8 0.319997,1.35999 0.719994,1.75999 0.399997,0.48 1.039993,0.63999 1.759987,0.63999 0.479997,0 0.879994,-0.08 1.279991,-0.15999 0.479996,-0.08 0.879993,-0.24 1.27999,-0.48 v 1.11999 c -0.399997,0.16 -0.799994,0.24 -1.27999,0.4 -0.399997,0.08 -0.879994,0.08 -1.279991,0.08 -1.119991,0 -1.999985,-0.32 -2.719979,-0.96 -0.639996,-0.63999 -0.959993,-1.51998 -0.959993,-2.63998 0,-1.11999 0.319997,-2.07998 0.959993,-2.71998 0.639995,-0.63999 1.439989,-1.03999 2.479981,-1.03999 0.959993,0 1.679988,0.32 2.239984,0.95999 0.559995,0.56 0.799994,1.43999 0.799994,2.47999 z m -1.119992,-0.4 c 0,-0.56 -0.159999,-1.11999 -0.559996,-1.43999 -0.319998,-0.4 -0.799994,-0.56 -1.35999,-0.56 -0.639995,0 -1.119992,0.16 -1.519989,0.48 -0.399997,0.4 -0.639995,0.87999 -0.639995,1.59999 z"
         style="fill:#000000;fill-opacity:1;fill-rule:nonzero;stroke:none"
         inkscape:connector-curvature="0" />
      <path
         id="path4260"
         d="m 42.239687,271.91799 v 3.67997 h -1.199991 v -9.59993 h 1.199991 v 1.03999 c 0.239998,-0.4 0.559996,-0.71999 0.879994,-0.95999 0.399997,-0.16 0.799994,-0.32 1.35999,-0.32 0.799994,0 1.519988,0.4 2.079984,1.03999 0.479997,0.72 0.799994,1.59999 0.799994,2.63998 0,1.12 -0.319997,1.99999 -0.799994,2.71998 -0.559996,0.64 -1.27999,0.96 -2.079984,0.96 -0.559996,0 -0.959993,-0.08 -1.35999,-0.24 -0.319998,-0.24 -0.639996,-0.56 -0.879994,-0.95999 z m 3.919971,-2.47999 c 0,-0.79999 -0.159999,-1.43999 -0.559996,-1.91998 -0.319997,-0.56 -0.799994,-0.8 -1.439989,-0.8 -0.559996,0 -1.039992,0.24 -1.439989,0.8 -0.319998,0.47999 -0.479997,1.11999 -0.479997,1.91998 0,0.88 0.159999,1.51999 0.479997,1.99999 0.399997,0.48 0.879993,0.71999 1.439989,0.71999 0.639995,0 1.119992,-0.23999 1.439989,-0.71999 0.399997,-0.48 0.559996,-1.11999 0.559996,-1.99999 z"
         style="fill:#000000;fill-opacity:1;fill-rule:nonzero;stroke:none"
         inkscape:connector-curvature="0" />
      <path
         id="path4262"
         d="m 49.199636,263.19805 h 1.199991 v 9.75993 h -1.199991 z"
         style="fill:#000000;fill-opacity:1;fill-rule:nonzero;stroke:none"
         inkscape:connector-curvature="0" />
      <path
         id="path4264"
         d="m 55.999585,269.438 c -0.959993,0 -1.599988,0.08 -1.999985,0.32 -0.319998,0.24 -0.479996,0.56 -0.479996,1.11999 0,0.4 0.08,0.72 0.399997,0.96 0.239998,0.23999 0.639995,0.31999 1.119991,0.31999 0.559996,0 1.119992,-0.23999 1.519989,-0.63999 0.319998,-0.48 0.559996,-1.03999 0.559996,-1.83999 v -0.24 z m 2.239984,-0.47999 v 3.99997 h -1.119992 v -1.03999 c -0.239998,0.39999 -0.559996,0.71999 -0.959993,0.95999 -0.399997,0.16 -0.879993,0.24 -1.439989,0.24 -0.719995,0 -1.279991,-0.16 -1.759987,-0.56 -0.399997,-0.4 -0.639996,-0.95999 -0.639996,-1.59999 0,-0.79999 0.319998,-1.43999 0.799995,-1.83998 0.559995,-0.4 1.359989,-0.56 2.399982,-0.56 h 1.599988 v -0.16 c 0,-0.47999 -0.159999,-0.87999 -0.559996,-1.19999 -0.319998,-0.32 -0.799994,-0.4 -1.439989,-0.4 -0.399997,0 -0.799994,0 -1.199991,0.08 -0.319998,0.16 -0.719995,0.24 -1.039993,0.48 v -1.03999 c 0.399997,-0.24 0.799994,-0.32 1.199991,-0.4 0.399997,-0.08 0.799994,-0.16 1.199992,-0.16 0.959992,0 1.759986,0.32 2.239983,0.8 0.479996,0.55999 0.719995,1.35999 0.719995,2.39998 z"
         style="fill:#000000;fill-opacity:1;fill-rule:nonzero;stroke:none"
         inkscape:connector-curvature="0" />
      <path
         id="path4266"
         d="m 63.519529,273.59797 c -0.319997,0.88 -0.639995,1.35999 -0.879993,1.67999 -0.319998,0.24 -0.799994,0.32 -1.279991,0.32 h -0.879993 v -0.95999 h 0.639995 c 0.319998,0 0.559996,-0.08 0.719995,-0.24 0.159999,-0.08 0.399997,-0.48 0.559996,-1.03999 l 0.239998,-0.48 -2.799979,-6.87995 h 1.199991 l 2.159984,5.43996 2.239983,-5.43996 h 1.199991 z"
         style="fill:#000000;fill-opacity:1;fill-rule:nonzero;stroke:none"
         inkscape:connector-curvature="0" />
      <path
         id="path4268"
         d="m 76.159436,264.47804 c -0.959993,0 -1.679988,0.32 -2.239984,1.03999 -0.479996,0.64 -0.799994,1.59999 -0.799994,2.79998 0,1.19999 0.319998,2.07999 0.799994,2.79998 0.559996,0.64 1.279991,0.95999 2.239984,0.95999 0.879993,0 1.599988,-0.31999 2.159984,-0.95999 0.479996,-0.71999 0.799994,-1.59999 0.799994,-2.79998 0,-1.19999 -0.319998,-2.15998 -0.799994,-2.79998 -0.559996,-0.71999 -1.279991,-1.03999 -2.159984,-1.03999 z m 0,-1.03999 c 1.27999,0 2.319983,0.48 3.119977,1.35999 0.799994,0.87999 1.119991,1.99998 1.119991,3.51997 0,1.43999 -0.319997,2.63998 -1.119991,3.51998 -0.799994,0.87999 -1.839987,1.27999 -3.119977,1.27999 -1.35999,0 -2.399982,-0.4 -3.199976,-1.27999 -0.799995,-0.88 -1.119992,-2.07999 -1.119992,-3.51998 0,-1.51999 0.319997,-2.63998 1.119992,-3.51997 0.799994,-0.87999 1.839986,-1.35999 3.199976,-1.35999 z"
         style="fill:#000000;fill-opacity:1;fill-rule:nonzero;stroke:none"
         inkscape:connector-curvature="0" />
      <path
         id="path4270"
         d="m 86.39936,267.03802 c -0.08,-0.08 -0.239998,-0.16 -0.399997,-0.16 -0.159999,-0.08 -0.319998,-0.08 -0.479996,-0.08 -0.639996,0 -1.199992,0.24 -1.519989,0.64 -0.319998,0.4 -0.559996,1.03999 -0.559996,1.83999 v 3.67997 H 82.31939 v -6.95995 h 1.119992 v 1.03999 c 0.239998,-0.4 0.559996,-0.71999 0.959993,-0.95999 0.399997,-0.16 0.879993,-0.32 1.439989,-0.32 0.08,0 0.159999,0.08 0.239998,0.08 0.08,0 0.239999,0 0.319998,0 z"
         style="fill:#000000;fill-opacity:1;fill-rule:nonzero;stroke:none"
         inkscape:connector-curvature="0" />
      <path
         id="path4272"
         d="m 91.999319,267.03802 v -3.83997 h 1.199991 v 9.75993 h -1.199991 v -1.03999 c -0.239999,0.39999 -0.559996,0.71999 -0.879994,0.95999 -0.399997,0.16 -0.799994,0.24 -1.35999,0.24 -0.799994,0 -1.519989,-0.32 -2.079984,-0.96 -0.479997,-0.71999 -0.799995,-1.59998 -0.799995,-2.71998 0,-1.03999 0.319998,-1.91998 0.799995,-2.63998 0.559995,-0.63999 1.27999,-1.03999 2.079984,-1.03999 0.559996,0 0.959993,0.16 1.35999,0.32 0.319998,0.24 0.639995,0.55999 0.879994,0.95999 z m -3.919971,2.39998 c 0,0.88 0.159998,1.51999 0.559995,1.99999 0.319998,0.48 0.799994,0.71999 1.43999,0.71999 0.559996,0 1.039992,-0.23999 1.439989,-0.71999 0.319998,-0.48 0.479997,-1.11999 0.479997,-1.99999 0,-0.79999 -0.159999,-1.43999 -0.479997,-1.91998 -0.399997,-0.56 -0.879993,-0.8 -1.439989,-0.8 -0.639996,0 -1.119992,0.24 -1.43999,0.8 -0.399997,0.47999 -0.559995,1.11999 -0.559995,1.91998 z"
         style="fill:#000000;fill-opacity:1;fill-rule:nonzero;stroke:none"
         inkscape:connector-curvature="0" />
      <path
         id="path4274"
         d="m 101.51925,269.19801 v 0.55999 h -5.279963 c 0.08,0.8 0.319998,1.35999 0.719995,1.75999 0.399997,0.48 1.039992,0.63999 1.759987,0.63999 0.479996,0 0.879993,-0.08 1.27999,-0.15999 0.400001,-0.08 0.879991,-0.24 1.279991,-0.48 v 1.11999 c -0.4,0.16 -0.87999,0.24 -1.279991,0.4 -0.479996,0.08 -0.879993,0.08 -1.35999,0.08 -1.119991,0 -1.999985,-0.32 -2.63998,-0.96 -0.639995,-0.63999 -0.959993,-1.51998 -0.959993,-2.63998 0,-1.11999 0.319998,-2.07998 0.959993,-2.71998 0.559996,-0.63999 1.439989,-1.03999 2.479982,-1.03999 0.959992,0 1.679989,0.32 2.239979,0.95999 0.56,0.56 0.8,1.43999 0.8,2.47999 z m -1.11999,-0.4 c 0,-0.56 -0.24,-1.11999 -0.56,-1.43999 -0.319997,-0.4 -0.799994,-0.56 -1.359989,-0.56 -0.639996,0 -1.119992,0.16 -1.519989,0.48 -0.399997,0.4 -0.639995,0.87999 -0.719995,1.59999 z"
         style="fill:#000000;fill-opacity:1;fill-rule:nonzero;stroke:none"
         inkscape:connector-curvature="0" />
      <path
         id="path4276"
         d="m 107.4392,267.03802 c -0.08,-0.08 -0.23999,-0.16 -0.39999,-0.16 -0.16,-0.08 -0.32,-0.08 -0.48,-0.08 -0.63999,0 -1.19999,0.24 -1.51999,0.64 -0.32,0.4 -0.47999,1.03999 -0.47999,1.83999 v 3.67997 h -1.2 v -6.95995 h 1.2 v 1.03999 c 0.23999,-0.4 0.55999,-0.71999 0.87999,-0.95999 0.4,-0.16 0.87999,-0.32 1.43999,-0.32 0.08,0 0.16,0.08 0.24,0.08 0.16,0 0.23999,0 0.31999,0 z"
         style="fill:#000000;fill-opacity:1;fill-rule:nonzero;stroke:none"
         inkscape:connector-curvature="0" />
      <path
         id="path4278"
         d="m 37.83972,81.119399 h 20.23985 v 14.87989 H 37.83972 Z"
         style="fill:#ffffff;fill-opacity:1;fill-rule:evenodd;stroke:#000000;stroke-width:1.03999233px;stroke-linecap:butt;stroke-linejoin:miter;stroke-miterlimit:4;stroke-dasharray:none;stroke-opacity:1"
         inkscape:connector-curvature="0" />
      <path
         id="path4280"
         d="M 47.439649,83.839379 H 48.63964 V 93.11931 H 47.439649 Z"
         style="fill:#000000;fill-opacity:1;fill-rule:nonzero;stroke:none"
         inkscape:connector-curvature="0" />
      <path
         id="path4282"
         d="m 59.119562,97.119281 h 20.31985 v 14.879889 h -20.31985 z"
         style="fill:#ffffff;fill-opacity:1;fill-rule:evenodd;stroke:#000000;stroke-width:1.03999233px;stroke-linecap:butt;stroke-linejoin:miter;stroke-miterlimit:4;stroke-dasharray:none;stroke-opacity:1"
         inkscape:connector-curvature="0" />
      <path
         id="path4284"
         d="m 67.279502,100.87925 v 3.43998 h 1.599988 c 0.639995,0 1.039992,-0.08 1.35999,-0.4 0.319997,-0.32 0.479996,-0.71999 0.479996,-1.35999 0,-0.48 -0.159999,-0.95999 -0.479996,-1.27999 -0.319998,-0.24 -0.719995,-0.4 -1.35999,-0.4 z m -1.199991,-1.03999 h 2.799979 c 1.039992,0 1.839986,0.24 2.399982,0.72 0.559996,0.39999 0.799994,1.11999 0.799994,1.99998 0,0.95999 -0.239998,1.67999 -0.799994,2.15998 -0.559996,0.4 -1.35999,0.64 -2.399982,0.64 h -1.599988 v 3.75997 h -1.199991 z"
         style="fill:#000000;fill-opacity:1;fill-rule:nonzero;stroke:none"
         inkscape:connector-curvature="0" />
      <path
         id="path4286"
         d="m 80.479404,113.11916 h 20.239846 v 14.87989 H 80.479404 Z"
         style="fill:#ffffff;fill-opacity:1;fill-rule:evenodd;stroke:#000000;stroke-width:1.03999233px;stroke-linecap:butt;stroke-linejoin:miter;stroke-miterlimit:4;stroke-dasharray:none;stroke-opacity:1"
         inkscape:connector-curvature="0" />
      <path
         id="path4288"
         d="m 88.639343,116.87913 v 3.43998 h 1.599989 c 0.559995,0 1.039992,-0.08 1.359989,-0.4 0.319998,-0.32 0.479997,-0.71999 0.479997,-1.35999 0,-0.47999 -0.159999,-0.95999 -0.479997,-1.27999 -0.319997,-0.24 -0.799994,-0.4 -1.359989,-0.4 z m -1.27999,-1.03999 h 2.879979 c 1.039992,0 1.839986,0.24 2.399982,0.72 0.479996,0.39999 0.799994,1.11999 0.799994,1.99998 0,0.95999 -0.319998,1.67999 -0.799994,2.15999 -0.559996,0.39999 -1.35999,0.63999 -2.399982,0.63999 h -1.599989 v 3.75997 h -1.27999 z"
         style="fill:#000000;fill-opacity:1;fill-rule:nonzero;stroke:none"
         inkscape:connector-curvature="0" />
      <path
         id="path4290"
         d="m 101.83925,129.11904 h 20.23985 v 14.87989 h -20.23985 z"
         style="fill:#ffffff;fill-opacity:1;fill-rule:evenodd;stroke:#000000;stroke-width:1.03999233px;stroke-linecap:butt;stroke-linejoin:miter;stroke-miterlimit:4;stroke-dasharray:none;stroke-opacity:1"
         inkscape:connector-curvature="0" />
      <path
         id="path4292"
         d="m 111.43917,131.83902 h 1.2 v 9.27993 h -1.2 z"
         style="fill:#000000;fill-opacity:1;fill-rule:nonzero;stroke:none"
         inkscape:connector-curvature="0" />
      <path
         id="path4294"
         d="m 123.11909,145.11893 h 20.31985 v 14.87988 h -20.31985 z"
         style="fill:#ffffff;fill-opacity:1;fill-rule:evenodd;stroke:#000000;stroke-width:1.03999233px;stroke-linecap:butt;stroke-linejoin:miter;stroke-miterlimit:4;stroke-dasharray:none;stroke-opacity:1"
         inkscape:connector-curvature="0" />
      <path
         id="path4296"
         d="m 131.27903,148.8789 v 3.43997 h 1.59999 c 0.63999,0 1.03999,-0.08 1.35999,-0.4 0.31999,-0.31999 0.47999,-0.71999 0.47999,-1.35999 0,-0.47999 -0.16,-0.95999 -0.47999,-1.27999 -0.32,-0.23999 -0.72,-0.39999 -1.35999,-0.39999 z m -1.19999,-1.04 h 2.79998 c 1.03999,0 1.83998,0.24 2.39998,0.72 0.55999,0.4 0.79999,1.11999 0.79999,1.99998 0,0.96 -0.24,1.67999 -0.79999,2.15999 -0.56,0.4 -1.35999,0.63999 -2.39998,0.63999 h -1.59999 v 3.75998 h -1.19999 z"
         style="fill:#000000;fill-opacity:1;fill-rule:nonzero;stroke:none"
         inkscape:connector-curvature="0" />
      <path
         id="path4298"
         d="m 144.47893,161.11881 h 20.23985 v 14.87989 h -20.23985 z"
         style="fill:#ffffff;fill-opacity:1;fill-rule:evenodd;stroke:#000000;stroke-width:1.03999233px;stroke-linecap:butt;stroke-linejoin:miter;stroke-miterlimit:4;stroke-dasharray:none;stroke-opacity:1"
         inkscape:connector-curvature="0" />
      <path
         id="path4300"
         d="m 152.63887,164.87878 v 3.43997 h 1.59999 c 0.55999,0 1.03999,-0.08 1.35999,-0.39999 0.32,-0.32 0.47999,-0.72 0.47999,-1.35999 0,-0.48 -0.15999,-0.96 -0.47999,-1.27999 -0.32,-0.24 -0.8,-0.4 -1.35999,-0.4 z m -1.27999,-1.03999 h 2.87998 c 1.03999,0 1.83998,0.23999 2.39998,0.71999 0.48,0.4 0.79999,1.11999 0.79999,1.99999 0,0.95999 -0.31999,1.67998 -0.79999,2.15998 -0.56,0.4 -1.35999,0.64 -2.39998,0.64 h -1.59999 v 3.75997 h -1.27999 z"
         style="fill:#000000;fill-opacity:1;fill-rule:nonzero;stroke:none"
         inkscape:connector-curvature="0" />
      <path
         id="path4302"
         d="m 229.8383,193.11857 h 20.23985 v 14.87989 H 229.8383 Z"
         style="fill:#ffffff;fill-opacity:1;fill-rule:evenodd;stroke:#000000;stroke-width:1.03999233px;stroke-linecap:butt;stroke-linejoin:miter;stroke-miterlimit:4;stroke-dasharray:none;stroke-opacity:1"
         inkscape:connector-curvature="0" />
      <path
         id="path4304"
         d="m 239.43823,195.83855 h 1.19999 v 9.27993 h -1.19999 z"
         style="fill:#000000;fill-opacity:1;fill-rule:nonzero;stroke:none"
         inkscape:connector-curvature="0" />
      <path
         id="path4306"
         d="m 251.11814,209.11845 h 20.31985 v 14.87989 h -20.31985 z"
         style="fill:#ffffff;fill-opacity:1;fill-rule:evenodd;stroke:#000000;stroke-width:1.03999233px;stroke-linecap:butt;stroke-linejoin:miter;stroke-miterlimit:4;stroke-dasharray:none;stroke-opacity:1"
         inkscape:connector-curvature="0" />
      <path
         id="path4308"
         d="m 259.27808,212.87842 v 3.43998 h 1.59999 c 0.63999,0 1.03999,-0.08 1.35999,-0.4 0.32,-0.32 0.47999,-0.71999 0.47999,-1.35999 0,-0.48 -0.15999,-0.95999 -0.47999,-1.27999 -0.32,-0.24 -0.72,-0.4 -1.35999,-0.4 z m -1.19999,-1.03999 h 2.79998 c 1.03999,0 1.83998,0.24 2.39998,0.72 0.56,0.39999 0.79999,1.11999 0.79999,1.99998 0,0.95999 -0.23999,1.67999 -0.79999,2.15998 -0.56,0.4 -1.35999,0.64 -2.39998,0.64 h -1.59999 v 3.75997 h -1.19999 z"
         style="fill:#000000;fill-opacity:1;fill-rule:nonzero;stroke:none"
         inkscape:connector-curvature="0" />
      <path
         id="path4310"
         d="m 272.47798,225.11833 h 20.23985 v 14.87989 h -20.23985 z"
         style="fill:#ffffff;fill-opacity:1;fill-rule:evenodd;stroke:#000000;stroke-width:1.03999233px;stroke-linecap:butt;stroke-linejoin:miter;stroke-miterlimit:4;stroke-dasharray:none;stroke-opacity:1"
         inkscape:connector-curvature="0" />
      <path
         id="path4312"
         d="m 280.63792,228.8783 v 3.43998 h 1.59999 c 0.56,0 1.03999,-0.08 1.35999,-0.4 0.32,-0.32 0.48,-0.71999 0.48,-1.35999 0,-0.47999 -0.16,-0.95999 -0.48,-1.27999 -0.32,-0.24 -0.79999,-0.4 -1.35999,-0.4 z m -1.27999,-1.03999 h 2.87998 c 1.03999,0 1.83999,0.24 2.39998,0.72 0.48,0.39999 0.8,1.11999 0.8,1.99998 0,0.96 -0.32,1.67999 -0.8,2.15999 -0.55999,0.39999 -1.35999,0.63999 -2.39998,0.63999 h -1.59999 v 3.75997 h -1.27999 z"
         style="fill:#000000;fill-opacity:1;fill-rule:nonzero;stroke:none"
         inkscape:connector-curvature="0" />
      <path
         id="path4314"
         d="m 293.83782,241.11821 h 20.23985 v 14.87989 h -20.23985 z"
         style="fill:#ffffff;fill-opacity:1;fill-rule:evenodd;stroke:#000000;stroke-width:1.03999233px;stroke-linecap:butt;stroke-linejoin:miter;stroke-miterlimit:4;stroke-dasharray:none;stroke-opacity:1"
         inkscape:connector-curvature="0" />
      <path
         id="path4316"
         d="m 303.43775,243.83819 h 1.19999 v 9.27994 h -1.19999 z"
         style="fill:#000000;fill-opacity:1;fill-rule:nonzero;stroke:none"
         inkscape:connector-curvature="0" />
      <path
         id="path4318"
         d="m 315.11767,257.1181 h 20.31985 v 14.87989 h -20.31985 z"
         style="fill:#ffffff;fill-opacity:1;fill-rule:evenodd;stroke:#000000;stroke-width:1.03999233px;stroke-linecap:butt;stroke-linejoin:miter;stroke-miterlimit:4;stroke-dasharray:none;stroke-opacity:1"
         inkscape:connector-curvature="0" />
      <path
         id="path4320"
         d="m 323.27761,260.87807 v 3.43997 h 1.59998 c 0.64,0 1.04,-0.08 1.35999,-0.39999 0.32,-0.32 0.48,-0.72 0.48,-1.35999 0,-0.48 -0.16,-0.96 -0.48,-1.28 -0.31999,-0.23999 -0.71999,-0.39999 -1.35999,-0.39999 z m -1.2,-1.03999 h 2.79998 c 1.04,0 1.83999,0.23999 2.39999,0.71999 0.55999,0.4 0.79999,1.11999 0.79999,1.99999 0,0.95999 -0.24,1.67998 -0.79999,2.15998 -0.56,0.4 -1.35999,0.63999 -2.39999,0.63999 h -1.59998 v 3.75998 h -1.2 z"
         style="fill:#000000;fill-opacity:1;fill-rule:nonzero;stroke:none"
         inkscape:connector-curvature="0" />
      <path
         id="path4322"
         d="m 336.47751,273.11798 h 20.23985 v 14.87989 h -20.23985 z"
         style="fill:#ffffff;fill-opacity:1;fill-rule:evenodd;stroke:#000000;stroke-width:1.03999233px;stroke-linecap:butt;stroke-linejoin:miter;stroke-miterlimit:4;stroke-dasharray:none;stroke-opacity:1"
         inkscape:connector-curvature="0" />
      <path
         id="path4324"
         d="m 344.63745,276.87795 v 3.43997 h 1.59999 c 0.55999,0 1.03999,-0.08 1.35999,-0.39999 0.31999,-0.32 0.47999,-0.72 0.47999,-1.35999 0,-0.48 -0.16,-0.96 -0.47999,-1.27999 -0.32,-0.24 -0.8,-0.4 -1.35999,-0.4 z m -1.27999,-1.03999 h 2.87998 c 1.03999,0 1.83998,0.23999 2.39998,0.71999 0.47999,0.4 0.79999,1.11999 0.79999,1.99999 0,0.95999 -0.32,1.67998 -0.79999,2.15998 -0.56,0.4 -1.35999,0.64 -2.39998,0.64 h -1.59999 v 3.75997 h -1.27999 z"
         style="fill:#000000;fill-opacity:1;fill-rule:nonzero;stroke:none"
         inkscape:connector-curvature="0" />
      <path
         id="path4326"
         d="m 59.119562,310.3977 h 20.31985 v 14.95989 h -20.31985 z"
         style="fill:#ffffff;fill-opacity:1;fill-rule:evenodd;stroke:#000000;stroke-width:1.03999233px;stroke-linecap:butt;stroke-linejoin:miter;stroke-miterlimit:4;stroke-dasharray:none;stroke-opacity:1"
         inkscape:connector-curvature="0" />
      <path
         id="path4328"
         d="m 67.279502,314.15767 v 3.51998 h 1.599988 c 0.559996,0 1.039992,-0.16 1.35999,-0.48 0.319997,-0.24 0.479996,-0.71999 0.479996,-1.27999 0,-0.56 -0.159999,-0.95999 -0.479996,-1.27999 -0.319998,-0.32 -0.799994,-0.48 -1.35999,-0.48 z m -1.279991,-1.03999 h 2.879979 c 1.039992,0 1.839986,0.24 2.399982,0.72 0.479996,0.47999 0.799994,1.19999 0.799994,2.07998 0,0.95999 -0.319998,1.59999 -0.799994,2.07998 -0.559996,0.48 -1.35999,0.72 -2.399982,0.72 h -1.599988 v 3.75997 h -1.279991 z"
         style="fill:#000000;fill-opacity:1;fill-rule:nonzero;stroke:none"
         inkscape:connector-curvature="0" />
      <path
         id="path4330"
         d="m 37.83972,310.3977 h 20.23985 v 14.95989 H 37.83972 Z"
         style="fill:#ffffff;fill-opacity:1;fill-rule:evenodd;stroke:#000000;stroke-width:1.03999233px;stroke-linecap:butt;stroke-linejoin:miter;stroke-miterlimit:4;stroke-dasharray:none;stroke-opacity:1"
         inkscape:connector-curvature="0" />
      <path
         id="path4332"
         d="m 47.359649,313.11768 h 1.279991 v 9.35993 h -1.279991 z"
         style="fill:#000000;fill-opacity:1;fill-rule:nonzero;stroke:none"
         inkscape:connector-curvature="0" />
      <path
         id="path4334"
         d="m 80.479404,310.3977 h 20.239846 v 14.95989 H 80.479404 Z"
         style="fill:#ffffff;fill-opacity:1;fill-rule:evenodd;stroke:#000000;stroke-width:1.03999233px;stroke-linecap:butt;stroke-linejoin:miter;stroke-miterlimit:4;stroke-dasharray:none;stroke-opacity:1"
         inkscape:connector-curvature="0" />
      <path
         id="path4336"
         d="m 88.639343,314.15767 v 3.51998 h 1.599989 c 0.559995,0 1.039992,-0.16 1.359989,-0.48 0.319998,-0.24 0.479997,-0.71999 0.479997,-1.27999 0,-0.56 -0.159999,-0.95999 -0.479997,-1.27999 -0.319997,-0.32 -0.799994,-0.48 -1.359989,-0.48 z m -1.27999,-1.03999 h 2.879979 c 1.039992,0 1.839986,0.24 2.319982,0.72 0.559996,0.47999 0.799994,1.19999 0.799994,2.07998 0,0.95999 -0.239998,1.59999 -0.799994,2.07998 -0.479996,0.48 -1.27999,0.72 -2.319982,0.72 h -1.599989 v 3.75997 h -1.27999 z"
         style="fill:#000000;fill-opacity:1;fill-rule:nonzero;stroke:none"
         inkscape:connector-curvature="0" />
      <path
         id="path4338"
         d="m 123.11909,310.3977 h 20.31985 v 14.95989 h -20.31985 z"
         style="fill:#ffffff;fill-opacity:1;fill-rule:evenodd;stroke:#000000;stroke-width:1.03999233px;stroke-linecap:butt;stroke-linejoin:miter;stroke-miterlimit:4;stroke-dasharray:none;stroke-opacity:1"
         inkscape:connector-curvature="0" />
      <path
         id="path4340"
         d="m 131.27903,314.15767 v 3.51998 h 1.59999 c 0.55999,0 1.03999,-0.16 1.35999,-0.48 0.31999,-0.24 0.47999,-0.71999 0.47999,-1.27999 0,-0.56 -0.16,-0.95999 -0.47999,-1.27999 -0.32,-0.32 -0.8,-0.48 -1.35999,-0.48 z m -1.27999,-1.03999 h 2.87998 c 1.03999,0 1.83998,0.24 2.39998,0.72 0.47999,0.47999 0.79999,1.19999 0.79999,2.07998 0,0.95999 -0.32,1.59999 -0.79999,2.07998 -0.56,0.48 -1.35999,0.72 -2.39998,0.72 h -1.59999 v 3.75997 h -1.27999 z"
         style="fill:#000000;fill-opacity:1;fill-rule:nonzero;stroke:none"
         inkscape:connector-curvature="0" />
      <path
         id="path4342"
         d="m 101.83925,310.3977 h 20.23985 v 14.95989 h -20.23985 z"
         style="fill:#ffffff;fill-opacity:1;fill-rule:evenodd;stroke:#000000;stroke-width:1.03999233px;stroke-linecap:butt;stroke-linejoin:miter;stroke-miterlimit:4;stroke-dasharray:none;stroke-opacity:1"
         inkscape:connector-curvature="0" />
      <path
         id="path4344"
         d="m 111.35918,313.11768 h 1.27999 v 9.35993 h -1.27999 z"
         style="fill:#000000;fill-opacity:1;fill-rule:nonzero;stroke:none"
         inkscape:connector-curvature="0" />
      <path
         id="path4346"
         d="m 144.47893,310.3977 h 20.23985 v 14.95989 h -20.23985 z"
         style="fill:#ffffff;fill-opacity:1;fill-rule:evenodd;stroke:#000000;stroke-width:1.03999233px;stroke-linecap:butt;stroke-linejoin:miter;stroke-miterlimit:4;stroke-dasharray:none;stroke-opacity:1"
         inkscape:connector-curvature="0" />
      <path
         id="path4348"
         d="m 152.63887,314.15767 v 3.51998 h 1.59999 c 0.55999,0 1.03999,-0.16 1.35999,-0.48 0.32,-0.24 0.47999,-0.71999 0.47999,-1.27999 0,-0.56 -0.15999,-0.95999 -0.47999,-1.27999 -0.32,-0.32 -0.8,-0.48 -1.35999,-0.48 z m -1.27999,-1.03999 h 2.87998 c 1.03999,0 1.83998,0.24 2.31998,0.72 0.56,0.47999 0.79999,1.19999 0.79999,2.07998 0,0.95999 -0.23999,1.59999 -0.79999,2.07998 -0.48,0.48 -1.27999,0.72 -2.31998,0.72 h -1.59999 v 3.75997 h -1.27999 z"
         style="fill:#000000;fill-opacity:1;fill-rule:nonzero;stroke:none"
         inkscape:connector-curvature="0" />
      <path
         id="path4350"
         d="m 251.11814,310.3977 h 20.31985 v 14.95989 h -20.31985 z"
         style="fill:#ffffff;fill-opacity:1;fill-rule:evenodd;stroke:#000000;stroke-width:1.03999233px;stroke-linecap:butt;stroke-linejoin:miter;stroke-miterlimit:4;stroke-dasharray:none;stroke-opacity:1"
         inkscape:connector-curvature="0" />
      <path
         id="path4352"
         d="m 259.27808,314.15767 v 3.51998 h 1.59999 c 0.55999,0 1.03999,-0.16 1.35999,-0.48 0.32,-0.24 0.47999,-0.71999 0.47999,-1.27999 0,-0.56 -0.15999,-0.95999 -0.47999,-1.27999 -0.32,-0.32 -0.8,-0.48 -1.35999,-0.48 z m -1.27999,-1.03999 h 2.87998 c 1.03999,0 1.83998,0.24 2.39998,0.72 0.48,0.47999 0.79999,1.19999 0.79999,2.07998 0,0.95999 -0.31999,1.59999 -0.79999,2.07998 -0.56,0.48 -1.35999,0.72 -2.39998,0.72 h -1.59999 v 3.75997 h -1.27999 z"
         style="fill:#000000;fill-opacity:1;fill-rule:nonzero;stroke:none"
         inkscape:connector-curvature="0" />
      <path
         id="path4354"
         d="m 229.8383,310.3977 h 20.23985 v 14.95989 H 229.8383 Z"
         style="fill:#ffffff;fill-opacity:1;fill-rule:evenodd;stroke:#000000;stroke-width:1.03999233px;stroke-linecap:butt;stroke-linejoin:miter;stroke-miterlimit:4;stroke-dasharray:none;stroke-opacity:1"
         inkscape:connector-curvature="0" />
      <path
         id="path4356"
         d="m 239.35823,313.11768 h 1.27999 v 9.35993 h -1.27999 z"
         style="fill:#000000;fill-opacity:1;fill-rule:nonzero;stroke:none"
         inkscape:connector-curvature="0" />
      <path
         id="path4358"
         d="m 272.47798,310.3977 h 20.23985 v 14.95989 h -20.23985 z"
         style="fill:#ffffff;fill-opacity:1;fill-rule:evenodd;stroke:#000000;stroke-width:1.03999233px;stroke-linecap:butt;stroke-linejoin:miter;stroke-miterlimit:4;stroke-dasharray:none;stroke-opacity:1"
         inkscape:connector-curvature="0" />
      <path
         id="path4360"
         d="m 280.63792,314.15767 v 3.51998 h 1.59999 c 0.56,0 1.03999,-0.16 1.35999,-0.48 0.32,-0.24 0.48,-0.71999 0.48,-1.27999 0,-0.56 -0.16,-0.95999 -0.48,-1.27999 -0.32,-0.32 -0.79999,-0.48 -1.35999,-0.48 z m -1.27999,-1.03999 h 2.87998 c 1.03999,0 1.83999,0.24 2.31998,0.72 0.56,0.47999 0.8,1.19999 0.8,2.07998 0,0.95999 -0.24,1.59999 -0.8,2.07998 -0.47999,0.48 -1.27999,0.72 -2.31998,0.72 h -1.59999 v 3.75997 h -1.27999 z"
         style="fill:#000000;fill-opacity:1;fill-rule:nonzero;stroke:none"
         inkscape:connector-curvature="0" />
      <path
         id="path4362"
         d="m 315.11767,310.3977 h 20.31985 v 14.95989 h -20.31985 z"
         style="fill:#ffffff;fill-opacity:1;fill-rule:evenodd;stroke:#000000;stroke-width:1.03999233px;stroke-linecap:butt;stroke-linejoin:miter;stroke-miterlimit:4;stroke-dasharray:none;stroke-opacity:1"
         inkscape:connector-curvature="0" />
      <path
         id="path4364"
         d="m 323.27761,314.15767 v 3.51998 h 1.59998 c 0.56,0 1.04,-0.16 1.35999,-0.48 0.32,-0.24 0.48,-0.71999 0.48,-1.27999 0,-0.56 -0.16,-0.95999 -0.48,-1.27999 -0.31999,-0.32 -0.79999,-0.48 -1.35999,-0.48 z m -1.28,-1.03999 h 2.87998 c 1.04,0 1.83999,0.24 2.39999,0.72 0.47999,0.47999 0.79999,1.19999 0.79999,2.07998 0,0.95999 -0.32,1.59999 -0.79999,2.07998 -0.56,0.48 -1.35999,0.72 -2.39999,0.72 h -1.59998 v 3.75997 h -1.28 z"
         style="fill:#000000;fill-opacity:1;fill-rule:nonzero;stroke:none"
         inkscape:connector-curvature="0" />
      <path
         id="path4366"
         d="m 293.83782,310.3977 h 20.23985 v 14.95989 h -20.23985 z"
         style="fill:#ffffff;fill-opacity:1;fill-rule:evenodd;stroke:#000000;stroke-width:1.03999233px;stroke-linecap:butt;stroke-linejoin:miter;stroke-miterlimit:4;stroke-dasharray:none;stroke-opacity:1"
         inkscape:connector-curvature="0" />
      <path
         id="path4368"
         d="m 303.35775,313.11768 h 1.27999 v 9.35993 h -1.27999 z"
         style="fill:#000000;fill-opacity:1;fill-rule:nonzero;stroke:none"
         inkscape:connector-curvature="0" />
      <path
         id="path4370"
         d="m 336.47751,310.3977 h 20.23985 v 14.95989 h -20.23985 z"
         style="fill:#ffffff;fill-opacity:1;fill-rule:evenodd;stroke:#000000;stroke-width:1.03999233px;stroke-linecap:butt;stroke-linejoin:miter;stroke-miterlimit:4;stroke-dasharray:none;stroke-opacity:1"
         inkscape:connector-curvature="0" />
      <path
         id="path4372"
         d="m 344.63745,314.15767 v 3.51998 h 1.59999 c 0.55999,0 1.03999,-0.16 1.35999,-0.48 0.31999,-0.24 0.47999,-0.71999 0.47999,-1.27999 0,-0.56 -0.16,-0.95999 -0.47999,-1.27999 -0.32,-0.32 -0.8,-0.48 -1.35999,-0.48 z m -1.27999,-1.03999 h 2.87998 c 1.03999,0 1.83998,0.24 2.31998,0.72 0.55999,0.47999 0.79999,1.19999 0.79999,2.07998 0,0.95999 -0.24,1.59999 -0.79999,2.07998 -0.48,0.48 -1.27999,0.72 -2.31998,0.72 h -1.59999 v 3.75997 h -1.27999 z"
         style="fill:#000000;fill-opacity:1;fill-rule:nonzero;stroke:none"
         inkscape:connector-curvature="0" />
      <path
         id="path4374"
         d="M 10.639921,341.11747 H 367.91727"
         style="fill:none;stroke:#000000;stroke-width:1.03999233px;stroke-linecap:butt;stroke-linejoin:miter;stroke-miterlimit:4;stroke-dasharray:none;stroke-opacity:1"
         inkscape:connector-curvature="0" />
      <path
         id="path4376"
         d="m 357.27735,341.11747 -4.23997,4.23997 14.87989,-4.23997 -14.87989,-4.31996 z"
         style="fill:#000000;fill-opacity:1;fill-rule:evenodd;stroke:#000000;stroke-width:1.03999233px;stroke-linecap:butt;stroke-linejoin:miter;stroke-miterlimit:4;stroke-dasharray:none;stroke-opacity:1"
         inkscape:connector-curvature="0" />
      <path
         id="path4378"
         d="m 266.47803,348.87742 v 7.19994 h 1.51998 c 1.28,0 2.23999,-0.24 2.79998,-0.79999 0.64,-0.64 0.96,-1.51999 0.96,-2.79998 0,-1.27999 -0.32,-2.15998 -0.96,-2.71998 -0.55999,-0.64 -1.51998,-0.87999 -2.79998,-0.87999 z m -1.27999,-1.04 h 2.63998 c 1.75998,0 3.11997,0.32 3.99997,1.12 0.79999,0.71999 1.19999,1.91998 1.19999,3.51997 0,1.59999 -0.4,2.79998 -1.27999,3.51997 -0.8,0.8 -2.15999,1.11999 -3.91997,1.11999 h -2.63998 z"
         style="fill:#000000;fill-opacity:1;fill-rule:nonzero;stroke:none"
         inkscape:connector-curvature="0" />
      <path
         id="path4380"
         d="m 275.03796,350.15741 h 1.11999 v 6.95994 h -1.11999 z m 0,-2.71998 h 1.11999 v 1.43999 h -1.11999 z"
         style="fill:#000000;fill-opacity:1;fill-rule:nonzero;stroke:none"
         inkscape:connector-curvature="0" />
      <path
         id="path4382"
         d="m 283.0379,350.31741 v 1.11999 c -0.31999,-0.16 -0.63999,-0.32 -1.03999,-0.4 -0.32,-0.08 -0.71999,-0.08 -1.03999,-0.08 -0.56,0 -1.03999,0.08 -1.27999,0.24 -0.32,0.16 -0.48,0.47999 -0.48,0.79999 0,0.24 0.16,0.48 0.32,0.64 0.24,0.16 0.63999,0.32 1.27999,0.39999 l 0.32,0.08 c 0.87999,0.24 1.43999,0.48 1.75998,0.8 0.4,0.32 0.56,0.71999 0.56,1.27999 0,0.63999 -0.32,1.19999 -0.79999,1.59999 -0.48,0.31999 -1.19999,0.55999 -2.15999,0.55999 -0.32,0 -0.71999,-0.08 -1.11999,-0.16 -0.4,-0.08 -0.87999,-0.15999 -1.27999,-0.31999 v -1.19999 c 0.4,0.23999 0.79999,0.39999 1.19999,0.55999 0.48,0.08 0.87999,0.16 1.27999,0.16 0.56,0 0.95999,-0.08 1.19999,-0.32 0.32,-0.16 0.48,-0.39999 0.48,-0.79999 0,-0.32 -0.08,-0.56 -0.32,-0.72 -0.24,-0.16 -0.63999,-0.31999 -1.35999,-0.47999 l -0.4,-0.08 c -0.71999,-0.16 -1.27999,-0.4 -1.59998,-0.64 -0.32,-0.32 -0.48,-0.79999 -0.48,-1.27999 0,-0.71999 0.24,-1.19999 0.71999,-1.51999 0.48,-0.39999 1.12,-0.55999 1.99999,-0.55999 0.4,0 0.79999,0 1.19999,0.08 0.4,0.08 0.72,0.16 1.03999,0.24 z"
         style="fill:#000000;fill-opacity:1;fill-rule:nonzero;stroke:none"
         inkscape:connector-curvature="0" />
      <path
         id="path4384"
         d="m 286.39788,356.07736 v 3.75997 h -1.19999 v -9.67992 h 1.19999 v 1.03999 c 0.24,-0.4 0.47999,-0.72 0.87999,-0.87999 0.4,-0.24 0.8,-0.32 1.35999,-0.32 0.8,0 1.51999,0.32 1.99999,0.95999 0.55999,0.71999 0.79999,1.59999 0.79999,2.71998 0,1.03999 -0.24,1.99999 -0.79999,2.63998 -0.48,0.64 -1.19999,1.03999 -1.99999,1.03999 -0.55999,0 -0.95999,-0.16 -1.35999,-0.31999 -0.4,-0.24 -0.63999,-0.48 -0.87999,-0.96 z m 3.83997,-2.39998 c 0,-0.87999 -0.16,-1.51999 -0.48,-1.99999 -0.31999,-0.47999 -0.79999,-0.71999 -1.43999,-0.71999 -0.63999,0 -1.11999,0.24 -1.43999,0.71999 -0.31999,0.48 -0.47999,1.12 -0.47999,1.99999 0,0.79999 0.16,1.51999 0.47999,1.99999 0.32,0.47999 0.8,0.71999 1.43999,0.71999 0.64,0 1.12,-0.24 1.43999,-0.71999 0.32,-0.48 0.48,-1.2 0.48,-1.99999 z"
         style="fill:#000000;fill-opacity:1;fill-rule:nonzero;stroke:none"
         inkscape:connector-curvature="0" />
      <path
         id="path4386"
         d="m 293.35783,347.43743 h 1.19999 v 9.67992 h -1.19999 z"
         style="fill:#000000;fill-opacity:1;fill-rule:nonzero;stroke:none"
         inkscape:connector-curvature="0" />
      <path
         id="path4388"
         d="m 300.07778,353.59738 c -0.88,0 -1.51999,0.16 -1.91999,0.32 -0.32,0.24 -0.55999,0.63999 -0.55999,1.11999 0,0.4 0.15999,0.71999 0.39999,0.95999 0.32,0.24 0.64,0.4 1.11999,0.4 0.64,0 1.2,-0.24 1.51999,-0.71999 0.4,-0.4 0.64,-1.04 0.64,-1.75999 v -0.32 z m 2.31998,-0.48 v 3.99997 h -1.11999 v -1.03999 c -0.32,0.4 -0.64,0.72 -1.03999,0.96 -0.4,0.15999 -0.88,0.31999 -1.43999,0.31999 -0.72,0 -1.27999,-0.24 -1.67999,-0.63999 -0.4,-0.4 -0.64,-0.96 -0.64,-1.59999 0,-0.79999 0.24,-1.35999 0.8,-1.75999 0.55999,-0.39999 1.27999,-0.63999 2.31998,-0.63999 h 1.67999 v -0.08 c 0,-0.56 -0.24,-0.96 -0.56,-1.27999 -0.32,-0.24 -0.79999,-0.4 -1.43999,-0.4 -0.39999,0 -0.79999,0.08 -1.19999,0.16 -0.4,0.08 -0.71999,0.24 -1.03999,0.4 v -1.04 c 0.4,-0.15999 0.79999,-0.31999 1.19999,-0.39999 0.4,-0.08 0.79999,-0.08 1.11999,-0.08 1.03999,0 1.75999,0.24 2.31999,0.79999 0.47999,0.48 0.71999,1.27999 0.71999,2.31998 z"
         style="fill:#000000;fill-opacity:1;fill-rule:nonzero;stroke:none"
         inkscape:connector-curvature="0" />
      <path
         id="path4390"
         d="m 307.67772,357.83735 c -0.32,0.79999 -0.63999,1.35999 -0.95999,1.59999 -0.32,0.24 -0.72,0.39999 -1.19999,0.39999 h -0.96 v -0.95999 h 0.72 c 0.32,0 0.55999,-0.08 0.71999,-0.24 0.16,-0.16 0.4,-0.47999 0.56,-1.03999 l 0.24,-0.55999 -2.87998,-6.87995 h 1.27999 l 2.15998,5.43996 2.15999,-5.43996 h 1.27999 z"
         style="fill:#000000;fill-opacity:1;fill-rule:nonzero;stroke:none"
         inkscape:connector-curvature="0" />
      <path
         id="path4392"
         d="m 315.19767,347.83742 h 7.83994 v 1.04 h -3.27998 v 8.23993 h -1.27999 v -8.23993 h -3.27997 z"
         style="fill:#000000;fill-opacity:1;fill-rule:nonzero;stroke:none"
         inkscape:connector-curvature="0" />
      <path
         id="path4394"
         d="m 323.8376,350.15741 h 1.19999 v 6.95994 h -1.19999 z m 0,-2.71998 h 1.19999 v 1.43999 h -1.19999 z"
         style="fill:#000000;fill-opacity:1;fill-rule:nonzero;stroke:none"
         inkscape:connector-curvature="0" />
      <path
         id="path4396"
         d="m 332.87753,351.5174 c 0.24,-0.56 0.64,-0.96 1.04,-1.19999 0.39999,-0.24 0.79999,-0.32 1.35999,-0.32 0.71999,0 1.27999,0.24 1.67998,0.71999 0.4,0.56 0.64,1.27999 0.64,2.23999 v 4.15996 h -1.19999 v -4.15996 c 0,-0.64 -0.08,-1.2 -0.32,-1.51999 -0.24,-0.32 -0.63999,-0.48 -1.11999,-0.48 -0.56,0 -1.03999,0.24 -1.35999,0.64 -0.4,0.39999 -0.56,0.87999 -0.56,1.59998 v 3.91997 h -1.11999 v -4.15996 c 0,-0.64 -0.16,-1.2 -0.4,-1.51999 -0.23999,-0.32 -0.55999,-0.48 -1.11999,-0.48 -0.55999,0 -1.03999,0.24 -1.35999,0.64 -0.31999,0.39999 -0.55999,0.87999 -0.55999,1.59998 v 3.91997 h -1.11999 v -6.95994 h 1.11999 v 1.11999 c 0.31999,-0.48 0.63999,-0.8 0.95999,-0.95999 0.4,-0.24 0.79999,-0.32 1.35999,-0.32 0.48,0 0.87999,0.08 1.27999,0.39999 0.32,0.24 0.64,0.64 0.79999,1.12 z"
         style="fill:#000000;fill-opacity:1;fill-rule:nonzero;stroke:none"
         inkscape:connector-curvature="0" />
      <path
         id="path4398"
         d="m 345.83744,353.35738 v 0.56 h -5.27996 c 0.08,0.79999 0.31999,1.43999 0.71999,1.83998 0.4,0.4 1.03999,0.56 1.75999,0.56 0.48,0 0.87999,0 1.27999,-0.16 0.48,-0.08 0.87999,-0.24 1.27999,-0.47999 v 1.11999 c -0.4,0.16 -0.87999,0.31999 -1.27999,0.39999 -0.4,0.08 -0.87999,0.16 -1.27999,0.16 -1.11999,0 -1.99999,-0.31999 -2.71998,-1.03999 -0.64,-0.63999 -0.95999,-1.51999 -0.95999,-2.55998 0,-1.19999 0.31999,-2.07999 0.95999,-2.79998 0.63999,-0.63999 1.43999,-0.95999 2.47998,-0.95999 0.95999,0 1.67999,0.32 2.23998,0.87999 0.56,0.64 0.8,1.43999 0.8,2.47998 z m -1.11999,-0.32 c 0,-0.63999 -0.16,-1.11999 -0.56,-1.51998 -0.32,-0.4 -0.79999,-0.56 -1.35999,-0.56 -0.63999,0 -1.11999,0.16 -1.51999,0.56 -0.4,0.31999 -0.63999,0.87999 -0.63999,1.51998 z"
         style="fill:#000000;fill-opacity:1;fill-rule:nonzero;stroke:none"
         inkscape:connector-curvature="0" />
      <path
         id="path4400"
         d="m 146.55891,152.79887 h 5.35996 v 1.51999 h -3.35997 v 1.43999 h 3.19998 v 1.51998 h -3.19998 v 1.75999 h 3.51997 v 1.51999 h -5.51996 z"
         style="fill:#de0000;fill-opacity:1;fill-rule:nonzero;stroke:none"
         inkscape:connector-curvature="0" />
      <path
         id="path4402"
         d="m 338.55749,264.79804 h 5.35996 v 1.51999 h -3.35997 v 1.43999 h 3.19997 v 1.51999 h -3.19997 v 1.75998 h 3.51997 v 1.51999 h -5.51996 z"
         style="fill:#de0000;fill-opacity:1;fill-rule:nonzero;stroke:none"
         inkscape:connector-curvature="0" />
    </g>
  </g>
</svg>
