<?xml version="1.0" encoding="UTF-8" standalone="no"?>
<!-- Created with Inkscape (http://www.inkscape.org/) -->

<svg
   xmlns:dc="http://purl.org/dc/elements/1.1/"
   xmlns:cc="http://creativecommons.org/ns#"
   xmlns:rdf="http://www.w3.org/1999/02/22-rdf-syntax-ns#"
   xmlns:svg="http://www.w3.org/2000/svg"
   xmlns="http://www.w3.org/2000/svg"
   xmlns:sodipodi="http://sodipodi.sourceforge.net/DTD/sodipodi-0.dtd"
   xmlns:inkscape="http://www.inkscape.org/namespaces/inkscape"
   width="534.13348"
   height="336.29187"
   viewBox="0 0 141.32282 88.977228"
   version="1.1"
   id="svg8"
   inkscape:version="0.92.4 (5da689c313, 2019-01-14)"
   sodipodi:docname="image5.svg">
  <defs
     id="defs2">
    <clipPath
       id="clipEmfPath1"
       clipPathUnits="userSpaceOnUse">
      <path
         id="path815"
         d="m 122.72562,78.592368 h 97.78074 v 32.300422 h -97.78074 z"
         inkscape:connector-curvature="0" />
    </clipPath>
    <clipPath
       id="clipEmfPath2"
       clipPathUnits="userSpaceOnUse">
      <path
         id="path818"
         d="m 122.72562,154.30648 h 97.78074 v 32.22047 h -97.78074 z"
         inkscape:connector-curvature="0" />
    </clipPath>
    <clipPath
       id="clipEmfPath3"
       clipPathUnits="userSpaceOnUse">
      <path
         id="path821"
         d="m 122.72562,230.02059 h 97.78074 v 32.22048 h -97.78074 z"
         inkscape:connector-curvature="0" />
    </clipPath>
    <clipPath
       id="clipEmfPath4"
       clipPathUnits="userSpaceOnUse">
      <path
         id="path824"
         d="m 122.72562,305.65475 h 97.78074 v 32.30043 h -97.78074 z"
         inkscape:connector-curvature="0" />
    </clipPath>
    <clipPath
       id="clipEmfPath5"
       clipPathUnits="userSpaceOnUse">
      <path
         id="path827"
         d="m 311.89098,305.73471 h 97.86069 v 32.22047 h -97.86069 z"
         inkscape:connector-curvature="0" />
    </clipPath>
    <clipPath
       id="clipEmfPath6"
       clipPathUnits="userSpaceOnUse">
      <path
         id="path830"
         d="M 296.94004,78.592368 H 442.21199 V 110.89279 H 296.94004 Z"
         inkscape:connector-curvature="0" />
    </clipPath>
    <clipPath
       id="clipEmfPath7"
       clipPathUnits="userSpaceOnUse">
      <path
         id="path833"
         d="m 274.5536,199.23925 h 125.36403 v 25.66444 H 274.5536 Z"
         inkscape:connector-curvature="0" />
    </clipPath>
    <clipPath
       id="clipEmfPath8"
       clipPathUnits="userSpaceOnUse">
      <path
         id="path836"
         d="m 104.33677,198.75954 h 66.59963 v 25.7444 h -66.59963 z"
         inkscape:connector-curvature="0" />
    </clipPath>
    <clipPath
       id="clipEmfPath9"
       clipPathUnits="userSpaceOnUse">
      <path
         id="path839"
         d="m 100.65899,274.87341 h 70.27741 v 25.7444 h -70.27741 z"
         inkscape:connector-curvature="0" />
    </clipPath>
    <clipPath
       id="clipEmfPath10"
       clipPathUnits="userSpaceOnUse">
      <path
         id="path842"
         d="m 15.670503,125.44397 h 62.202301 v 25.7444 H 15.670503 Z"
         inkscape:connector-curvature="0" />
    </clipPath>
    <clipPath
       id="clipEmfPath11"
       clipPathUnits="userSpaceOnUse">
      <path
         id="path845"
         d="m 116.3295,37.417323 h 54.04724 V 63.081769 H 116.3295 Z"
         inkscape:connector-curvature="0" />
    </clipPath>
    <clipPath
       id="clipEmfPath12"
       clipPathUnits="userSpaceOnUse">
      <path
         id="path848"
         d="m 100.65899,124.4046 h 69.55785 v 25.7444 h -69.55785 z"
         inkscape:connector-curvature="0" />
    </clipPath>
    <clipPath
       id="clipEmfPath13"
       clipPathUnits="userSpaceOnUse">
      <path
         id="path851"
         d="m 245.05148,47.970927 h 59.96366 v 41.4149 h -59.96366 z"
         inkscape:connector-curvature="0" />
    </clipPath>
    <clipPath
       id="clipEmfPath14"
       clipPathUnits="userSpaceOnUse">
      <path
         id="path854"
         d="m 263.20048,256.80436 h 86.58753 v 68.03877 h -86.58753 z"
         inkscape:connector-curvature="0" />
    </clipPath>
    <pattern
       y="0"
       x="0"
       height="6"
       width="6"
       patternUnits="userSpaceOnUse"
       id="EMFhbasepattern" />
    <clipPath
       id="clipEmfPath1-7"
       clipPathUnits="userSpaceOnUse">
      <path
         id="path938"
         d="M -5.7616648,-9.6027746 H 630.5822 V 472.13642 H -5.7616648 Z"
         inkscape:connector-curvature="0" />
    </clipPath>
    <clipPath
       id="clipEmfPath2-8"
       clipPathUnits="userSpaceOnUse">
      <path
         id="path941"
         d="M 15.684532,32.649434 H 606.25517 v 45.13304 H 15.684532 Z"
         inkscape:connector-curvature="0" />
    </clipPath>
    <clipPath
       id="clipEmfPath3-2"
       clipPathUnits="userSpaceOnUse">
      <path
         id="path944-9"
         d="M 15.684532,80.663307 H 299.28647 V 161.9668 H 15.684532 Z"
         inkscape:connector-curvature="0" />
    </clipPath>
    <clipPath
       id="clipEmfPath4-8"
       clipPathUnits="userSpaceOnUse">
      <path
         id="path947"
         d="m 320.73267,217.3428 h 135.39912 v 33.28962 H 320.73267 Z"
         inkscape:connector-curvature="0" />
    </clipPath>
    <clipPath
       id="clipEmfPath5-9"
       clipPathUnits="userSpaceOnUse">
      <path
         id="path950-3"
         d="M 15.684532,355.94284 H 606.89535 v 44.81295 H 15.684532 Z"
         inkscape:connector-curvature="0" />
    </clipPath>
    <clipPath
       id="clipEmfPath6-6"
       clipPathUnits="userSpaceOnUse">
      <path
         id="path953"
         d="M 320.73267,80.663307 H 456.13179 V 209.98067 H 320.73267 Z"
         inkscape:connector-curvature="0" />
    </clipPath>
    <clipPath
       id="clipEmfPath7-6"
       clipPathUnits="userSpaceOnUse">
      <path
         id="path956"
         d="M 471.49623,80.663307 H 606.89535 V 209.98067 H 471.49623 Z"
         inkscape:connector-curvature="0" />
    </clipPath>
    <clipPath
       id="clipEmfPath8-9"
       clipPathUnits="userSpaceOnUse">
      <path
         id="path959"
         d="M 372.90775,3.2009249 H 546.71797 V 31.369064 H 372.90775 Z"
         inkscape:connector-curvature="0" />
    </clipPath>
    <clipPath
       id="clipEmfPath9-9"
       clipPathUnits="userSpaceOnUse">
      <path
         id="path962"
         d="m 106.27071,183.0929 h 96.34783 v 22.08638 h -96.34783 z"
         inkscape:connector-curvature="0" />
    </clipPath>
    <clipPath
       id="clipEmfPath10-3"
       clipPathUnits="userSpaceOnUse">
      <path
         id="path965"
         d="m 177.97142,219.26335 h 68.49979 v 22.08638 h -68.49979 z"
         inkscape:connector-curvature="0" />
    </clipPath>
    <clipPath
       id="clipEmfPath11-6"
       clipPathUnits="userSpaceOnUse">
      <path
         id="path968-6"
         d="m 479.81864,217.98298 h 66.89933 v 33.92981 h -66.89933 z"
         inkscape:connector-curvature="0" />
    </clipPath>
    <clipPath
       id="clipEmfPath12-3"
       clipPathUnits="userSpaceOnUse">
      <path
         id="path971"
         d="m 242.31001,282.64167 h 55.376 v 37.13072 h -55.376 z"
         inkscape:connector-curvature="0" />
    </clipPath>
    <clipPath
       id="clipEmfPath13-3"
       clipPathUnits="userSpaceOnUse">
      <path
         id="path974"
         d="m 321.69295,283.60194 h 132.51829 v 37.13073 H 321.69295 Z"
         inkscape:connector-curvature="0" />
    </clipPath>
    <clipPath
       id="clipEmfPath14-0"
       clipPathUnits="userSpaceOnUse">
      <path
         id="path977"
         d="m 222.46428,255.11371 h 69.46007 v 16.32472 h -69.46007 z"
         inkscape:connector-curvature="0" />
    </clipPath>
    <clipPath
       id="clipEmfPath15"
       clipPathUnits="userSpaceOnUse">
      <path
         id="path980"
         d="M 66.259145,4.4812948 H 239.74927 V 52.175075 H 66.259145 Z"
         inkscape:connector-curvature="0" />
    </clipPath>
    <clipPath
       id="clipEmfPath16"
       clipPathUnits="userSpaceOnUse">
      <path
         id="path983"
         d="m 328.41489,255.11371 h 69.46007 v 16.32472 h -69.46007 z"
         inkscape:connector-curvature="0" />
    </clipPath>
    <clipPath
       id="clipEmfPath17"
       clipPathUnits="userSpaceOnUse">
      <path
         id="path986"
         d="m 474.37706,219.26335 h 69.46007 v 22.08638 h -69.46007 z"
         inkscape:connector-curvature="0" />
    </clipPath>
    <clipPath
       id="clipEmfPath18"
       clipPathUnits="userSpaceOnUse">
      <path
         id="path989"
         d="m 321.37286,219.26335 h 69.46007 v 16.00463 h -69.46007 z"
         inkscape:connector-curvature="0" />
    </clipPath>
    <clipPath
       id="clipEmfPath19"
       clipPathUnits="userSpaceOnUse">
      <path
         id="path992"
         d="m 321.37286,319.77239 h 285.52249 v 32.96953 H 321.37286 Z"
         inkscape:connector-curvature="0" />
    </clipPath>
    <clipPath
       id="clipEmfPath20"
       clipPathUnits="userSpaceOnUse">
      <path
         id="path995"
         d="m 318.49202,255.11371 h 69.46007 v 16.32472 h -69.46007 z"
         inkscape:connector-curvature="0" />
    </clipPath>
    <clipPath
       id="clipEmfPath21"
       clipPathUnits="userSpaceOnUse">
      <path
         id="path998"
         d="m 116.83376,319.77239 h 180.85225 v 32.96953 H 116.83376 Z"
         inkscape:connector-curvature="0" />
    </clipPath>
    <clipPath
       id="clipEmfPath22"
       clipPathUnits="userSpaceOnUse">
      <path
         id="path1001"
         d="m 15.684532,319.77239 h 85.784788 v 32.96953 H 15.684532 Z"
         inkscape:connector-curvature="0" />
    </clipPath>
    <pattern
       y="0"
       x="0"
       height="6"
       width="6"
       patternUnits="userSpaceOnUse"
       id="EMFhbasepattern-5" />
    <clipPath
       id="clipEmfPath1-8"
       clipPathUnits="userSpaceOnUse">
      <path
         id="path1615"
         d="M 0,0 H 396.24243 V 337.80667 H 0 Z"
         inkscape:connector-curvature="0" />
    </clipPath>
    <clipPath
       id="clipEmfPath2-5"
       clipPathUnits="userSpaceOnUse">
      <path
         id="path1618"
         d="M -7.2113248,-582.72437 H 107.36861 v 19.18435 H -7.2113248 Z"
         inkscape:connector-curvature="0" />
    </clipPath>
    <clipPath
       id="clipEmfPath3-8"
       clipPathUnits="userSpaceOnUse">
      <path
         id="path1621"
         d="m 174.35381,-582.72437 h 106.24685 v 19.18435 H 174.35381 Z"
         inkscape:connector-curvature="0" />
    </clipPath>
    <clipPath
       id="clipEmfPath4-7"
       clipPathUnits="userSpaceOnUse">
      <path
         id="path1624"
         d="m 104.16358,-537.48129 h 78.36306 v 15.98695 h -78.36306 z"
         inkscape:connector-curvature="0" />
    </clipPath>
    <clipPath
       id="clipEmfPath5-2"
       clipPathUnits="userSpaceOnUse">
      <path
         id="path1627"
         d="m 106.24685,-413.90216 h 79.16432 v 15.98695 h -79.16432 z"
         inkscape:connector-curvature="0" />
    </clipPath>
    <clipPath
       id="clipEmfPath6-1"
       clipPathUnits="userSpaceOnUse">
      <path
         id="path1630"
         d="M 60.036731,28.817631 H 174.50677 V 48.029385 H 60.036731 Z"
         inkscape:connector-curvature="0" />
    </clipPath>
    <clipPath
       id="clipEmfPath7-8"
       clipPathUnits="userSpaceOnUse">
      <path
         id="path1633"
         d="M 241.42771,28.817631 H 347.57265 V 48.029385 H 241.42771 Z"
         inkscape:connector-curvature="0" />
    </clipPath>
    <clipPath
       id="clipEmfPath8-0"
       clipPathUnits="userSpaceOnUse">
      <path
         id="path1636"
         d="M 171.30481,74.125351 H 249.5927 V 90.135146 H 171.30481 Z"
         inkscape:connector-curvature="0" />
    </clipPath>
    <clipPath
       id="clipEmfPath9-6"
       clipPathUnits="userSpaceOnUse">
      <path
         id="path1639"
         d="m 173.38608,197.88107 h 79.08839 v 16.00979 h -79.08839 z"
         inkscape:connector-curvature="0" />
    </clipPath>
    <pattern
       y="0"
       x="0"
       height="6"
       width="6"
       patternUnits="userSpaceOnUse"
       id="EMFhbasepattern-6" />
    <clipPath
       id="clipEmfPath1-0"
       clipPathUnits="userSpaceOnUse">
      <path
         id="path2762"
         d="M 4.3206582,-1.9202925 H 640.41756 V 407.74212 H 4.3206582 Z"
         inkscape:connector-curvature="0" />
    </clipPath>
    <clipPath
       id="clipEmfPath2-4"
       clipPathUnits="userSpaceOnUse">
      <path
         id="path2765"
         d="M 87.053262,77.13175 H 385.01865 v 33.76514 H 87.053262 Z"
         inkscape:connector-curvature="0" />
    </clipPath>
    <clipPath
       id="clipEmfPath3-1"
       clipPathUnits="userSpaceOnUse">
      <path
         id="path2768"
         d="M 165.46521,192.66935 H 288.04388 V 226.4345 H 165.46521 Z"
         inkscape:connector-curvature="0" />
    </clipPath>
    <clipPath
       id="clipEmfPath4-84"
       clipPathUnits="userSpaceOnUse">
      <path
         id="path2771"
         d="M 82.572579,209.63194 H 389.49934 v 33.60511 H 82.572579 Z"
         inkscape:connector-curvature="0" />
    </clipPath>
    <clipPath
       id="clipEmfPath5-8"
       clipPathUnits="userSpaceOnUse">
      <path
         id="path2774"
         d="M 87.853384,226.59452 H 388.37917 v 33.60512 H 87.853384 Z"
         inkscape:connector-curvature="0" />
    </clipPath>
    <clipPath
       id="clipEmfPath6-0"
       clipPathUnits="userSpaceOnUse">
      <path
         id="path2777"
         d="M 96.014627,291.40439 H 372.69678 v 33.76515 H 96.014627 Z"
         inkscape:connector-curvature="0" />
    </clipPath>
    <clipPath
       id="clipEmfPath7-5"
       clipPathUnits="userSpaceOnUse">
      <path
         id="path2780"
         d="m 117.29787,341.17197 h 228.67484 v 33.76515 H 117.29787 Z"
         inkscape:connector-curvature="0" />
    </clipPath>
    <clipPath
       id="clipEmfPath8-04"
       clipPathUnits="userSpaceOnUse">
      <path
         id="path2783"
         d="M 16.322487,140.18136 H 213.47252 v 36.8056 H 16.322487 Z"
         inkscape:connector-curvature="0" />
    </clipPath>
    <clipPath
       id="clipEmfPath9-2"
       clipPathUnits="userSpaceOnUse">
      <path
         id="path2786"
         d="m 202.75089,141.1415 h 16.32248 v 18.40281 h -16.32248 z"
         inkscape:connector-curvature="0" />
    </clipPath>
    <clipPath
       id="clipEmfPath10-6"
       clipPathUnits="userSpaceOnUse">
      <path
         id="path2789"
         d="M 265.00037,140.18136 H 372.8568 v 35.36538 H 265.00037 Z"
         inkscape:connector-curvature="0" />
    </clipPath>
    <clipPath
       id="clipEmfPath11-0"
       clipPathUnits="userSpaceOnUse">
      <path
         id="path2792"
         d="m 459.91006,194.58964 h 147.54248 v 35.20537 H 459.91006 Z"
         inkscape:connector-curvature="0" />
    </clipPath>
    <clipPath
       id="clipEmfPath12-2"
       clipPathUnits="userSpaceOnUse">
      <path
         id="path2795"
         d="M 8.8013408,18.402804 H 17.92273 V 36.805607 H 8.8013408 Z"
         inkscape:connector-curvature="0" />
    </clipPath>
    <clipPath
       id="clipEmfPath13-9"
       clipPathUnits="userSpaceOnUse">
      <path
         id="path2798"
         d="m 22.083364,18.402804 h 9.281414 v 18.402803 h -9.281414 z"
         inkscape:connector-curvature="0" />
    </clipPath>
    <clipPath
       id="clipEmfPath14-5"
       clipPathUnits="userSpaceOnUse">
      <path
         id="path2801"
         d="m 35.525412,18.402804 h 9.12139 v 18.402803 h -9.12139 z"
         inkscape:connector-curvature="0" />
    </clipPath>
    <clipPath
       id="clipEmfPath15-4"
       clipPathUnits="userSpaceOnUse">
      <path
         id="path2804"
         d="m 102.25558,18.402804 h 9.12139 v 18.402803 h -9.12139 z"
         inkscape:connector-curvature="0" />
    </clipPath>
    <clipPath
       id="clipEmfPath16-9"
       clipPathUnits="userSpaceOnUse">
      <path
         id="path2807"
         d="m 48.807435,18.402804 h 9.12139 v 18.402803 h -9.12139 z"
         inkscape:connector-curvature="0" />
    </clipPath>
    <clipPath
       id="clipEmfPath17-3"
       clipPathUnits="userSpaceOnUse">
      <path
         id="path2810"
         d="m 62.089459,18.402804 h 9.281414 v 18.402803 h -9.281414 z"
         inkscape:connector-curvature="0" />
    </clipPath>
    <clipPath
       id="clipEmfPath18-5"
       clipPathUnits="userSpaceOnUse">
      <path
         id="path2813"
         d="m 75.531507,18.402804 h 9.121389 v 18.402803 h -9.121389 z"
         inkscape:connector-curvature="0" />
    </clipPath>
    <clipPath
       id="clipEmfPath19-8"
       clipPathUnits="userSpaceOnUse">
      <path
         id="path2816"
         d="m 128.81962,18.402804 h 9.28142 v 18.402803 h -9.28142 z"
         inkscape:connector-curvature="0" />
    </clipPath>
    <clipPath
       id="clipEmfPath20-2"
       clipPathUnits="userSpaceOnUse">
      <path
         id="path2819"
         d="m 115.5376,18.402804 h 9.12139 v 18.402803 h -9.12139 z"
         inkscape:connector-curvature="0" />
    </clipPath>
    <clipPath
       id="clipEmfPath21-7"
       clipPathUnits="userSpaceOnUse">
      <path
         id="path2822"
         d="m 88.81353,18.402804 h 9.281414 V 36.805607 H 88.81353 Z"
         inkscape:connector-curvature="0" />
    </clipPath>
    <clipPath
       id="clipEmfPath22-5"
       clipPathUnits="userSpaceOnUse">
      <path
         id="path2825"
         d="m 142.26167,18.402804 h 9.28142 v 18.402803 h -9.28142 z"
         inkscape:connector-curvature="0" />
    </clipPath>
    <clipPath
       id="clipEmfPath23"
       clipPathUnits="userSpaceOnUse">
      <path
         id="path2828"
         d="m 155.5437,18.402804 h 9.28141 v 18.402803 h -9.28141 z"
         inkscape:connector-curvature="0" />
    </clipPath>
    <clipPath
       id="clipEmfPath24"
       clipPathUnits="userSpaceOnUse">
      <path
         id="path2831"
         d="m 168.98574,18.402804 h 9.12139 v 18.402803 h -9.12139 z"
         inkscape:connector-curvature="0" />
    </clipPath>
    <clipPath
       id="clipEmfPath25"
       clipPathUnits="userSpaceOnUse">
      <path
         id="path2834"
         d="m 235.71591,18.402804 h 9.12139 v 18.402803 h -9.12139 z"
         inkscape:connector-curvature="0" />
    </clipPath>
    <clipPath
       id="clipEmfPath26"
       clipPathUnits="userSpaceOnUse">
      <path
         id="path2837"
         d="m 182.26777,18.402804 h 9.28141 v 18.402803 h -9.28141 z"
         inkscape:connector-curvature="0" />
    </clipPath>
    <clipPath
       id="clipEmfPath27"
       clipPathUnits="userSpaceOnUse">
      <path
         id="path2840"
         d="m 195.54979,18.402804 h 9.28141 v 18.402803 h -9.28141 z"
         inkscape:connector-curvature="0" />
    </clipPath>
    <clipPath
       id="clipEmfPath28"
       clipPathUnits="userSpaceOnUse">
      <path
         id="path2843"
         d="m 208.99184,18.402804 h 9.12139 v 18.402803 h -9.12139 z"
         inkscape:connector-curvature="0" />
    </clipPath>
    <clipPath
       id="clipEmfPath29"
       clipPathUnits="userSpaceOnUse">
      <path
         id="path2846"
         d="m 262.43998,18.402804 h 9.12139 v 18.402803 h -9.12139 z"
         inkscape:connector-curvature="0" />
    </clipPath>
    <clipPath
       id="clipEmfPath30"
       clipPathUnits="userSpaceOnUse">
      <path
         id="path2849"
         d="m 248.99793,18.402804 h 9.28142 v 18.402803 h -9.28142 z"
         inkscape:connector-curvature="0" />
    </clipPath>
    <clipPath
       id="clipEmfPath31"
       clipPathUnits="userSpaceOnUse">
      <path
         id="path2852"
         d="m 222.43389,18.402804 h 9.12139 v 18.402803 h -9.12139 z"
         inkscape:connector-curvature="0" />
    </clipPath>
    <clipPath
       id="clipEmfPath32"
       clipPathUnits="userSpaceOnUse">
      <path
         id="path2855"
         d="m 275.722,18.402804 h 9.12139 V 36.805607 H 275.722 Z"
         inkscape:connector-curvature="0" />
    </clipPath>
    <clipPath
       id="clipEmfPath33"
       clipPathUnits="userSpaceOnUse">
      <path
         id="path2858"
         d="m 289.16405,18.402804 h 9.12139 v 18.402803 h -9.12139 z"
         inkscape:connector-curvature="0" />
    </clipPath>
    <clipPath
       id="clipEmfPath34"
       clipPathUnits="userSpaceOnUse">
      <path
         id="path2861"
         d="m 302.44607,18.402804 h 9.12139 v 18.402803 h -9.12139 z"
         inkscape:connector-curvature="0" />
    </clipPath>
    <clipPath
       id="clipEmfPath35"
       clipPathUnits="userSpaceOnUse">
      <path
         id="path2864"
         d="m 369.17624,18.402804 h 9.12139 v 18.402803 h -9.12139 z"
         inkscape:connector-curvature="0" />
    </clipPath>
    <clipPath
       id="clipEmfPath36"
       clipPathUnits="userSpaceOnUse">
      <path
         id="path2867"
         d="m 315.7281,18.402804 h 9.28141 v 18.402803 h -9.28141 z"
         inkscape:connector-curvature="0" />
    </clipPath>
    <clipPath
       id="clipEmfPath37"
       clipPathUnits="userSpaceOnUse">
      <path
         id="path2870"
         d="m 329.17015,18.402804 h 9.12139 v 18.402803 h -9.12139 z"
         inkscape:connector-curvature="0" />
    </clipPath>
    <clipPath
       id="clipEmfPath38"
       clipPathUnits="userSpaceOnUse">
      <path
         id="path2873"
         d="m 342.45217,18.402804 h 9.12139 v 18.402803 h -9.12139 z"
         inkscape:connector-curvature="0" />
    </clipPath>
    <clipPath
       id="clipEmfPath39"
       clipPathUnits="userSpaceOnUse">
      <path
         id="path2876"
         d="m 395.90031,18.402804 h 9.12139 v 18.402803 h -9.12139 z"
         inkscape:connector-curvature="0" />
    </clipPath>
    <clipPath
       id="clipEmfPath40"
       clipPathUnits="userSpaceOnUse">
      <path
         id="path2879"
         d="m 382.45826,18.402804 h 9.28142 v 18.402803 h -9.28142 z"
         inkscape:connector-curvature="0" />
    </clipPath>
    <clipPath
       id="clipEmfPath41"
       clipPathUnits="userSpaceOnUse">
      <path
         id="path2882"
         d="m 355.89422,18.402804 h 9.12139 v 18.402803 h -9.12139 z"
         inkscape:connector-curvature="0" />
    </clipPath>
    <clipPath
       id="clipEmfPath42"
       clipPathUnits="userSpaceOnUse">
      <path
         id="path2885"
         d="m 409.18234,18.402804 h 9.12138 v 18.402803 h -9.12138 z"
         inkscape:connector-curvature="0" />
    </clipPath>
    <clipPath
       id="clipEmfPath43"
       clipPathUnits="userSpaceOnUse">
      <path
         id="path2888"
         d="m 421.66424,18.402804 h 9.12139 v 18.402803 h -9.12139 z"
         inkscape:connector-curvature="0" />
    </clipPath>
    <clipPath
       id="clipEmfPath44"
       clipPathUnits="userSpaceOnUse">
      <path
         id="path2891"
         d="M 8.8013408,-0.32004876 H 17.92273 V 18.082755 H 8.8013408 Z"
         inkscape:connector-curvature="0" />
    </clipPath>
    <clipPath
       id="clipEmfPath45"
       clipPathUnits="userSpaceOnUse">
      <path
         id="path2894"
         d="m 142.26167,-0.32004876 h 9.28142 V 18.082755 h -9.28142 z"
         inkscape:connector-curvature="0" />
    </clipPath>
    <clipPath
       id="clipEmfPath46"
       clipPathUnits="userSpaceOnUse">
      <path
         id="path2897"
         d="m 275.722,-0.32004876 h 9.12139 V 18.082755 H 275.722 Z"
         inkscape:connector-curvature="0" />
    </clipPath>
    <clipPath
       id="clipEmfPath47"
       clipPathUnits="userSpaceOnUse">
      <path
         id="path2900"
         d="m 409.18234,-0.32004876 h 9.12138 V 18.082755 h -9.12138 z"
         inkscape:connector-curvature="0" />
    </clipPath>
    <pattern
       y="0"
       x="0"
       height="6"
       width="6"
       patternUnits="userSpaceOnUse"
       id="EMFhbasepattern-67" />
    <clipPath
       id="clipEmfPath1-4"
       clipPathUnits="userSpaceOnUse">
      <path
         id="path3762"
         d="M -17.770872,-3.8423508 H 558.58175 V 345.97167 H -17.770872 Z"
         inkscape:connector-curvature="0" />
    </clipPath>
    <clipPath
       id="clipEmfPath2-0"
       clipPathUnits="userSpaceOnUse">
      <path
         id="path3765"
         d="m 0,220.77507 h 32.339786 v 27.69695 H 0 Z"
         inkscape:connector-curvature="0" />
    </clipPath>
    <clipPath
       id="clipEmfPath3-4"
       clipPathUnits="userSpaceOnUse">
      <path
         id="path3768"
         d="M 0,64.679572 H 76.366722 V 92.216419 H 0 Z"
         inkscape:connector-curvature="0" />
    </clipPath>
    <clipPath
       id="clipEmfPath4-86"
       clipPathUnits="userSpaceOnUse">
      <path
         id="path3771"
         d="M 134.80247,27.857043 H 394.80155 V 41.625467 H 134.80247 Z"
         inkscape:connector-curvature="0" />
    </clipPath>
    <clipPath
       id="clipEmfPath5-27"
       clipPathUnits="userSpaceOnUse">
      <path
         id="path3774"
         d="m 236.62477,119.43307 h 40.34468 v 27.53685 h -40.34468 z"
         inkscape:connector-curvature="0" />
    </clipPath>
    <clipPath
       id="clipEmfPath6-8"
       clipPathUnits="userSpaceOnUse">
      <path
         id="path3777"
         d="M 215.01155,169.70383 H 320.0358 v 27.53684 H 215.01155 Z"
         inkscape:connector-curvature="0" />
    </clipPath>
    <clipPath
       id="clipEmfPath7-7"
       clipPathUnits="userSpaceOnUse">
      <path
         id="path3780"
         d="m 236.62477,281.2921 h 70.283 v 27.53685 h -70.283 z"
         inkscape:connector-curvature="0" />
    </clipPath>
    <clipPath
       id="clipEmfPath8-6"
       clipPathUnits="userSpaceOnUse">
      <path
         id="path3783"
         d="m 220.45488,145.84923 h 75.56623 v 27.53685 h -75.56623 z"
         inkscape:connector-curvature="0" />
    </clipPath>
    <clipPath
       id="clipEmfPath9-0"
       clipPathUnits="userSpaceOnUse">
      <path
         id="path3786"
         d="M 215.01155,248.63212 H 320.0358 v 27.69694 H 215.01155 Z"
         inkscape:connector-curvature="0" />
    </clipPath>
    <clipPath
       id="clipEmfPath10-34"
       clipPathUnits="userSpaceOnUse">
      <path
         id="path3789"
         d="M 215.01155,195.79979 H 320.0358 v 27.69695 H 215.01155 Z"
         inkscape:connector-curvature="0" />
    </clipPath>
    <clipPath
       id="clipEmfPath11-8"
       clipPathUnits="userSpaceOnUse">
      <path
         id="path3792"
         d="m 424.41967,178.18902 h 101.5021 v 21.45312 h -101.5021 z"
         inkscape:connector-curvature="0" />
    </clipPath>
    <clipPath
       id="clipEmfPath12-0"
       clipPathUnits="userSpaceOnUse">
      <path
         id="path3795"
         d="m 213.57067,64.679572 h 93.177 v 27.536847 h -93.177 z"
         inkscape:connector-curvature="0" />
    </clipPath>
    <clipPath
       id="clipEmfPath13-5"
       clipPathUnits="userSpaceOnUse">
      <path
         id="path3798"
         d="M 90.135146,-0.3201959 H 138.64482 V 39.544194 H 90.135146 Z"
         inkscape:connector-curvature="0" />
    </clipPath>
    <clipPath
       id="clipEmfPath14-6"
       clipPathUnits="userSpaceOnUse">
      <path
         id="path3801"
         d="m 377.03067,-0.3201959 h 37.78312 V 36.502333 h -37.78312 z"
         inkscape:connector-curvature="0" />
    </clipPath>
    <pattern
       y="0"
       x="0"
       height="6"
       width="6"
       patternUnits="userSpaceOnUse"
       id="EMFhbasepattern-4" />
  </defs>
  <sodipodi:namedview
     id="base"
     pagecolor="#ffffff"
     bordercolor="#666666"
     borderopacity="1.0"
     inkscape:pageopacity="0.0"
     inkscape:pageshadow="2"
     inkscape:zoom="0.35"
     inkscape:cx="1089.5337"
     inkscape:cy="52.159124"
     inkscape:document-units="mm"
     inkscape:current-layer="layer1"
     showgrid="false"
     inkscape:window-width="1920"
     inkscape:window-height="1017"
     inkscape:window-x="-8"
     inkscape:window-y="-8"
     inkscape:window-maximized="1"
     fit-margin-top="0"
     fit-margin-left="0"
     fit-margin-right="0"
     fit-margin-bottom="0"
     units="px" />
  <metadata
     id="metadata5">
    <rdf:RDF>
      <cc:Work
         rdf:about="">
        <dc:format>image/svg+xml</dc:format>
        <dc:type
           rdf:resource="http://purl.org/dc/dcmitype/StillImage" />
        <dc:title></dc:title>
      </cc:Work>
    </rdf:RDF>
  </metadata>
  <g
     inkscape:label="Layer 1"
     inkscape:groupmode="layer"
     id="layer1"
     transform="translate(428.12365,-73.656542)">
    <g
       id="g4169"
       transform="matrix(0.26458333,0,0,0.26458333,-428.23837,72.874515)">
      <text
         id="text3811"
         y="0"
         x="0"
         transform="translate(534.56706,339.24756)"
         style="font-style:normal;font-variant:normal;font-weight:400;font-size:16px;line-height:125%;font-family:'Times New Roman';text-align:start;letter-spacing:0px;word-spacing:0px;text-anchor:start;fill:#000000;fill-opacity:1;stroke:none"
         xml:space="preserve"><tspan
           id="tspan3809"
           y="0"
           x="0"
           sodipodi:role="line"><tspan
             id="tspan3807"
             style="font-style:normal;font-variant:normal;font-weight:400;font-size:16px;font-family:'Times New Roman';fill:#000000"
             dy="0"
             dx="0"> </tspan></tspan></text>
      <g
         id="g3821"
         clip-path="url(#clipEmfPath2-0)">
        <text
           id="text3819"
           y="0"
           x="0"
           transform="translate(0,232.14203)"
           style="font-style:normal;font-variant:normal;font-weight:700;font-size:12px;line-height:125%;font-family:Arial;text-align:start;letter-spacing:0px;word-spacing:0px;text-anchor:start;fill:#000000;fill-opacity:1;stroke:none"
           xml:space="preserve"><tspan
             id="tspan3817"
             y="0"
             x="0"
             sodipodi:role="line"><tspan
               id="tspan3813"
               style="font-style:normal;font-variant:normal;font-weight:700;font-size:12px;font-family:Arial;fill:#000000"
               dy="0"
               dx="0">RTSP</tspan><tspan
               id="tspan3815"
               style="font-style:normal;font-variant:normal;font-weight:400;font-size:16px;font-family:'Times New Roman';fill:#000000"
               dy="0"
               dx="0"> </tspan></tspan></text>
      </g>
      <path
         id="path3823"
         d="m 111.16801,23.034093 0.06,296.181207"
         style="fill:none;stroke:#000000;stroke-width:4.272614px;stroke-linecap:butt;stroke-linejoin:round;stroke-miterlimit:4;stroke-dasharray:none;stroke-opacity:1"
         inkscape:connector-curvature="0" />
      <path
         id="path3825"
         d="m 401.34555,23.034093 0.06,296.181207"
         style="fill:none;stroke:#000000;stroke-width:4.26260805px;stroke-linecap:butt;stroke-linejoin:round;stroke-miterlimit:4;stroke-dasharray:none;stroke-opacity:1"
         inkscape:connector-curvature="0" />
      <path
         id="path3827"
         d="m 116.51128,48.78985 h 284.83427 v 2.121298 H 116.51128 Z m 1.06065,4.262608 -6.40392,-3.201959 6.40392,-3.201959 z"
         style="fill:#000000;fill-opacity:1;fill-rule:evenodd;stroke:none"
         inkscape:connector-curvature="0" />
      <path
         id="path3829"
         d="m 116.51128,48.78985 h 284.83427 v 2.121298 H 116.51128 Z"
         style="fill:none;stroke:#000000;stroke-width:0.26015916px;stroke-linecap:round;stroke-linejoin:round;stroke-miterlimit:4;stroke-dasharray:none;stroke-opacity:1"
         inkscape:connector-curvature="0" />
      <path
         id="path3831"
         d="m 117.57193,53.052458 -6.40392,-3.201959 6.40392,-3.201959 v 6.403918"
         style="fill:none;stroke:#000000;stroke-width:0.26015916px;stroke-linecap:round;stroke-linejoin:round;stroke-miterlimit:4;stroke-dasharray:none;stroke-opacity:1"
         inkscape:connector-curvature="0" />
      <g
         id="g3841"
         clip-path="url(#clipEmfPath3-4)">
        <text
           id="text3839"
           y="0"
           x="0"
           transform="translate(0,76.046526)"
           style="font-style:normal;font-variant:normal;font-weight:700;font-size:12px;line-height:125%;font-family:Arial;text-align:start;letter-spacing:0px;word-spacing:0px;text-anchor:start;fill:#000000;fill-opacity:1;stroke:none"
           xml:space="preserve"><tspan
             id="tspan3837"
             y="0"
             x="0"
             sodipodi:role="line"><tspan
               id="tspan3833"
               style="font-style:normal;font-variant:normal;font-weight:700;font-size:12px;font-family:Arial;fill:#000000"
               dy="0"
               dx="0">Stream setup</tspan><tspan
               id="tspan3835"
               style="font-style:normal;font-variant:normal;font-weight:400;font-size:16px;font-family:'Times New Roman';fill:#000000"
               dy="0"
               dx="0"> </tspan></tspan></text>
      </g>
      <g
         id="g3865"
         clip-path="url(#clipEmfPath4-86)">
        <text
           id="text3849"
           y="0"
           x="0"
           transform="translate(134.80247,38.903802)"
           style="font-style:normal;font-variant:normal;font-weight:400;font-size:12px;line-height:125%;font-family:Arial;text-align:start;letter-spacing:0px;word-spacing:0px;text-anchor:start;fill:#000000;fill-opacity:1;stroke:none"
           xml:space="preserve"><tspan
             id="tspan3847"
             y="0"
             x="0"
             sodipodi:role="line"><tspan
               id="tspan3843"
               style="font-style:normal;font-variant:normal;font-weight:400;font-size:12px;font-family:Arial;fill:#000000"
               dy="0"
               dx="0">Set </tspan><tspan
               id="tspan3845"
               style="font-style:normal;font-variant:normal;font-weight:400;font-size:12px;font-family:Arial;fill:#000000"
               dy="0"
               dx="0">&lt;</tspan></tspan></text>
        <text
           id="text3855"
           y="0"
           x="28.497435"
           transform="translate(134.80247,38.903802)"
           style="font-style:normal;font-variant:normal;font-weight:400;font-size:12px;line-height:125%;font-family:Arial;text-align:start;letter-spacing:0px;word-spacing:0px;text-anchor:start;fill:#000000;fill-opacity:1;stroke:none"
           xml:space="preserve"><tspan
             id="tspan3853"
             y="0"
             x="28.497435"
             sodipodi:role="line"><tspan
               id="tspan3851"
               style="font-style:normal;font-variant:normal;font-weight:400;font-size:12px;font-family:Arial;fill:#000000"
               dy="0"
               dx="0">Configuration Entity&gt;</tspan></tspan></text>
        <text
           id="text3863"
           y="0"
           x="140.2458"
           transform="translate(134.80247,38.903802)"
           style="font-style:normal;font-variant:normal;font-weight:400;font-size:12px;line-height:125%;font-family:Arial;text-align:start;letter-spacing:0px;word-spacing:0px;text-anchor:start;fill:#000000;fill-opacity:1;stroke:none"
           xml:space="preserve"><tspan
             id="tspan3861"
             y="0"
             x="140.2458"
             sodipodi:role="line"><tspan
               id="tspan3857"
               style="font-style:normal;font-variant:normal;font-weight:400;font-size:12px;font-family:Arial;fill:#000000"
               dy="0"
               dx="0">Encoder Configuration</tspan><tspan
               id="tspan3859"
               style="font-style:normal;font-variant:normal;font-weight:400;font-size:16px;font-family:'Times New Roman';fill:#000000"
               dy="0"
               dx="0"> </tspan></tspan></text>
      </g>
      <path
         id="path3867"
         d="m 118.31239,139.96563 h 283.03316 v 2.88177 H 118.31239 Z m 1.40085,5.68348 -8.54523,-4.28262 8.54523,-4.26261 z"
         style="fill:#000000;fill-opacity:1;fill-rule:evenodd;stroke:none"
         inkscape:connector-curvature="0" />
      <path
         id="path3869"
         d="m 118.31239,139.96563 h 283.03316 v 2.88177 H 118.31239 Z"
         style="fill:none;stroke:#000000;stroke-width:0.26015916px;stroke-linecap:round;stroke-linejoin:round;stroke-miterlimit:4;stroke-dasharray:none;stroke-opacity:1"
         inkscape:connector-curvature="0" />
      <path
         id="path3871"
         d="m 119.71324,145.64911 -8.54523,-4.28262 8.54523,-4.26261 v 8.54523"
         style="fill:none;stroke:#000000;stroke-width:0.26015916px;stroke-linecap:round;stroke-linejoin:round;stroke-miterlimit:4;stroke-dasharray:none;stroke-opacity:1"
         inkscape:connector-curvature="0" />
      <g
         id="g3881"
         clip-path="url(#clipEmfPath5-27)">
        <text
           id="text3879"
           y="0"
           x="0"
           transform="translate(236.62477,130.31973)"
           style="font-style:normal;font-variant:normal;font-weight:400;font-size:12px;line-height:125%;font-family:Arial;text-align:start;letter-spacing:0px;word-spacing:0px;text-anchor:start;fill:#000000;fill-opacity:1;stroke:none"
           xml:space="preserve"><tspan
             id="tspan3877"
             y="0"
             x="0"
             sodipodi:role="line"><tspan
               id="tspan3873"
               style="font-style:normal;font-variant:normal;font-weight:400;font-size:12px;font-family:Arial;fill:#000000"
               dy="0"
               dx="0">SETUP</tspan><tspan
               id="tspan3875"
               style="font-style:normal;font-variant:normal;font-weight:400;font-size:16px;font-family:'Times New Roman';fill:#000000"
               dy="0"
               dx="0"> </tspan></tspan></text>
      </g>
      <path
         id="path3883"
         d="m 115.91092,190.33645 h 285.43463 v 1.40086 H 115.91092 Z m 0.92056,3.54217 -5.66347,-2.88177 5.66347,-2.80171 z"
         style="fill:#000000;fill-opacity:1;fill-rule:evenodd;stroke:none"
         inkscape:connector-curvature="0" />
      <path
         id="path3885"
         d="m 115.91092,190.33645 h 285.43463 v 1.40086 H 115.91092 Z"
         style="fill:none;stroke:#000000;stroke-width:0.26015916px;stroke-linecap:round;stroke-linejoin:round;stroke-miterlimit:4;stroke-dasharray:none;stroke-opacity:1"
         inkscape:connector-curvature="0" />
      <path
         id="path3887"
         d="m 116.83148,193.87862 -5.66347,-2.88177 5.66347,-2.80171 v 5.68348"
         style="fill:none;stroke:#000000;stroke-width:0.26015916px;stroke-linecap:round;stroke-linejoin:round;stroke-miterlimit:4;stroke-dasharray:none;stroke-opacity:1"
         inkscape:connector-curvature="0" />
      <g
         id="g3897"
         clip-path="url(#clipEmfPath6-8)">
        <text
           id="text3895"
           y="0"
           x="0"
           transform="translate(215.01155,180.59049)"
           style="font-style:normal;font-variant:normal;font-weight:400;font-size:12px;line-height:125%;font-family:Arial;text-align:start;letter-spacing:0px;word-spacing:0px;text-anchor:start;fill:#000000;fill-opacity:1;stroke:none"
           xml:space="preserve"><tspan
             id="tspan3893"
             y="0"
             x="0"
             sodipodi:role="line"><tspan
               id="tspan3889"
               style="font-style:normal;font-variant:normal;font-weight:400;font-size:12px;font-family:Arial;fill:#000000"
               dy="0"
               dx="0">SET_PARAMETER</tspan><tspan
               id="tspan3891"
               style="font-style:normal;font-variant:normal;font-weight:400;font-size:16px;font-family:'Times New Roman';fill:#000000"
               dy="0"
               dx="0.74513298"> </tspan></tspan></text>
      </g>
      <path
         id="path3899"
         d="m 118.31239,301.54449 h 283.03316 v 2.86175 H 118.31239 Z m 1.40085,5.66346 -8.54523,-4.2626 8.54523,-4.28262 z"
         style="fill:#000000;fill-opacity:1;fill-rule:evenodd;stroke:none"
         inkscape:connector-curvature="0" />
      <path
         id="path3901"
         d="m 118.31239,301.54449 h 283.03316 v 2.86175 H 118.31239 Z"
         style="fill:none;stroke:#000000;stroke-width:0.26015916px;stroke-linecap:round;stroke-linejoin:round;stroke-miterlimit:4;stroke-dasharray:none;stroke-opacity:1"
         inkscape:connector-curvature="0" />
      <path
         id="path3903"
         d="m 119.71324,307.20795 -8.54523,-4.2626 8.54523,-4.28262 v 8.54522"
         style="fill:none;stroke:#000000;stroke-width:0.26015916px;stroke-linecap:round;stroke-linejoin:round;stroke-miterlimit:4;stroke-dasharray:none;stroke-opacity:1"
         inkscape:connector-curvature="0" />
      <g
         id="g3913"
         clip-path="url(#clipEmfPath7-7)">
        <text
           id="text3911"
           y="0"
           x="0"
           transform="translate(236.62477,292.17876)"
           style="font-style:normal;font-variant:normal;font-weight:400;font-size:12px;line-height:125%;font-family:Arial;text-align:start;letter-spacing:0px;word-spacing:0px;text-anchor:start;fill:#000000;fill-opacity:1;stroke:none"
           xml:space="preserve"><tspan
             id="tspan3909"
             y="0"
             x="0"
             sodipodi:role="line"><tspan
               id="tspan3905"
               style="font-style:normal;font-variant:normal;font-weight:400;font-size:12px;font-family:Arial;fill:#000000"
               dy="0"
               dx="0">TEARDOWN</tspan><tspan
               id="tspan3907"
               style="font-style:normal;font-variant:normal;font-weight:400;font-size:16px;font-family:'Times New Roman';fill:#000000"
               dy="0"
               dx="0"> </tspan></tspan></text>
      </g>
      <path
         id="path3915"
         d="m 111.16801,166.60193 h 285.45465 c 0.26016,0 0.46028,0.20012 0.46028,0.46028 0,0.28017 -0.20012,0.48029 -0.46028,0.48029 H 111.16801 c -0.26015,0 -0.46028,-0.20012 -0.46028,-0.48029 0,-0.26016 0.20013,-0.46028 0.46028,-0.46028 z m 284.49406,-2.42148 5.68348,2.88176 -5.68348,2.86175 z"
         style="fill:#000000;fill-opacity:1;fill-rule:evenodd;stroke:none"
         inkscape:connector-curvature="0" />
      <path
         id="path3917"
         d="m 111.16801,166.60193 h 285.45465 c 0.26016,0 0.46028,0.20012 0.46028,0.46028 0,0.28017 -0.20012,0.48029 -0.46028,0.48029 H 111.16801 c -0.26015,0 -0.46028,-0.20012 -0.46028,-0.48029 0,-0.26016 0.20013,-0.46028 0.46028,-0.46028 z m 284.49406,-2.42148 5.68348,2.88176 -5.68348,2.86175 z"
         style="fill:none;stroke:#000000;stroke-width:0.26015916px;stroke-linecap:round;stroke-linejoin:round;stroke-miterlimit:4;stroke-dasharray:none;stroke-opacity:1"
         inkscape:connector-curvature="0" />
      <g
         id="g3927"
         clip-path="url(#clipEmfPath8-6)">
        <text
           id="text3925"
           y="0"
           x="0"
           transform="translate(220.45488,156.73589)"
           style="font-style:normal;font-variant:normal;font-weight:400;font-size:12px;line-height:125%;font-family:Arial;text-align:start;letter-spacing:0px;word-spacing:0px;text-anchor:start;fill:#000000;fill-opacity:1;stroke:none"
           xml:space="preserve"><tspan
             id="tspan3923"
             y="0"
             x="0"
             sodipodi:role="line"><tspan
               id="tspan3919"
               style="font-style:normal;font-variant:normal;font-weight:400;font-size:12px;font-family:Arial;fill:#000000"
               dy="0"
               dx="0">Timeout value</tspan><tspan
               id="tspan3921"
               style="font-style:normal;font-variant:normal;font-weight:400;font-size:16px;font-family:'Times New Roman';fill:#000000"
               dy="0"
               dx="0.482306"> </tspan></tspan></text>
      </g>
      <path
         id="path3929"
         d="m 115.91092,269.98518 h 285.43463 v 1.40086 H 115.91092 Z m 0.92056,3.54217 -5.66347,-2.88177 5.66347,-2.80171 z"
         style="fill:#000000;fill-opacity:1;fill-rule:evenodd;stroke:none"
         inkscape:connector-curvature="0" />
      <path
         id="path3931"
         d="m 115.91092,269.98518 h 285.43463 v 1.40086 H 115.91092 Z"
         style="fill:none;stroke:#000000;stroke-width:0.26015916px;stroke-linecap:round;stroke-linejoin:round;stroke-miterlimit:4;stroke-dasharray:none;stroke-opacity:1"
         inkscape:connector-curvature="0" />
      <path
         id="path3933"
         d="m 116.83148,273.52735 -5.66347,-2.88177 5.66347,-2.80171 v 5.68348"
         style="fill:none;stroke:#000000;stroke-width:0.26015916px;stroke-linecap:round;stroke-linejoin:round;stroke-miterlimit:4;stroke-dasharray:none;stroke-opacity:1"
         inkscape:connector-curvature="0" />
      <g
         id="g3943"
         clip-path="url(#clipEmfPath9-0)">
        <text
           id="text3941"
           y="0"
           x="0"
           transform="translate(215.01155,259.51878)"
           style="font-style:normal;font-variant:normal;font-weight:400;font-size:12px;line-height:125%;font-family:Arial;text-align:start;letter-spacing:0px;word-spacing:0px;text-anchor:start;fill:#000000;fill-opacity:1;stroke:none"
           xml:space="preserve"><tspan
             id="tspan3939"
             y="0"
             x="0"
             sodipodi:role="line"><tspan
               id="tspan3935"
               style="font-style:normal;font-variant:normal;font-weight:400;font-size:12px;font-family:Arial;fill:#000000"
               dy="0"
               dx="0">SET_PARAMETER</tspan><tspan
               id="tspan3937"
               style="font-style:normal;font-variant:normal;font-weight:400;font-size:16px;font-family:'Times New Roman';fill:#000000"
               dy="0"
               dx="0.74513298"> </tspan></tspan></text>
      </g>
      <path
         id="path3945"
         d="m 115.91092,216.09221 h 285.43463 v 1.40086 H 115.91092 Z m 0.92056,3.52215 -5.66347,-2.86175 5.66347,-2.80171 z"
         style="fill:#000000;fill-opacity:1;fill-rule:evenodd;stroke:none"
         inkscape:connector-curvature="0" />
      <path
         id="path3947"
         d="m 115.91092,216.09221 h 285.43463 v 1.40086 H 115.91092 Z"
         style="fill:none;stroke:#000000;stroke-width:0.26015916px;stroke-linecap:round;stroke-linejoin:round;stroke-miterlimit:4;stroke-dasharray:none;stroke-opacity:1"
         inkscape:connector-curvature="0" />
      <path
         id="path3949"
         d="m 116.83148,219.61436 -5.66347,-2.86175 5.66347,-2.80171 v 5.66346"
         style="fill:none;stroke:#000000;stroke-width:0.26015916px;stroke-linecap:round;stroke-linejoin:round;stroke-miterlimit:4;stroke-dasharray:none;stroke-opacity:1"
         inkscape:connector-curvature="0" />
      <g
         id="g3959"
         clip-path="url(#clipEmfPath10-34)">
        <text
           id="text3957"
           y="0"
           x="0"
           transform="translate(215.01155,206.68645)"
           style="font-style:normal;font-variant:normal;font-weight:400;font-size:12px;line-height:125%;font-family:Arial;text-align:start;letter-spacing:0px;word-spacing:0px;text-anchor:start;fill:#000000;fill-opacity:1;stroke:none"
           xml:space="preserve"><tspan
             id="tspan3955"
             y="0"
             x="0"
             sodipodi:role="line"><tspan
               id="tspan3951"
               style="font-style:normal;font-variant:normal;font-weight:400;font-size:12px;font-family:Arial;fill:#000000"
               dy="0"
               dx="0">SET_PARAMETER</tspan><tspan
               id="tspan3953"
               style="font-style:normal;font-variant:normal;font-weight:400;font-size:16px;font-family:'Times New Roman';fill:#000000"
               dy="0"
               dx="0.74513298"> </tspan></tspan></text>
      </g>
      <path
         id="path3961"
         d="m 262.72074,227.55922 v 2.13131 h -2.13131 v -2.13131 z m 0,4.26261 v 2.14131 h -2.13131 v -2.14131 z m 0,4.27262 v 2.20134 h -2.13131 v -2.20134 z m 0,4.33265 v 2.14131 h -2.13131 v -2.14131 z m 0,4.27261 v 2.1313 h -2.13131 v -2.1313 z m 0,4.27261 v 0.20013 h -2.13131 v -0.20013 z"
         style="fill:#000000;fill-opacity:1;fill-rule:evenodd;stroke:none"
         inkscape:connector-curvature="0" />
      <path
         id="path3963"
         d="m 262.72074,227.55922 v 2.13131 h -2.13131 v -2.13131 z"
         style="fill:none;stroke:#000000;stroke-width:0.27016529px;stroke-linecap:round;stroke-linejoin:round;stroke-miterlimit:4;stroke-dasharray:none;stroke-opacity:1"
         inkscape:connector-curvature="0" />
      <path
         id="path3965"
         d="m 262.72074,231.82183 v 2.14131 h -2.13131 v -2.14131 z"
         style="fill:none;stroke:#000000;stroke-width:0.27016529px;stroke-linecap:round;stroke-linejoin:round;stroke-miterlimit:4;stroke-dasharray:none;stroke-opacity:1"
         inkscape:connector-curvature="0" />
      <path
         id="path3967"
         d="m 262.72074,236.09445 v 2.20134 h -2.13131 v -2.20134 z"
         style="fill:none;stroke:#000000;stroke-width:0.27016529px;stroke-linecap:round;stroke-linejoin:round;stroke-miterlimit:4;stroke-dasharray:none;stroke-opacity:1"
         inkscape:connector-curvature="0" />
      <path
         id="path3969"
         d="m 262.72074,240.4271 v 2.14131 h -2.13131 v -2.14131 z"
         style="fill:none;stroke:#000000;stroke-width:0.27016529px;stroke-linecap:round;stroke-linejoin:round;stroke-miterlimit:4;stroke-dasharray:none;stroke-opacity:1"
         inkscape:connector-curvature="0" />
      <path
         id="path3971"
         d="m 262.72074,244.69971 v 2.1313 h -2.13131 v -2.1313 z"
         style="fill:none;stroke:#000000;stroke-width:0.27016529px;stroke-linecap:round;stroke-linejoin:round;stroke-miterlimit:4;stroke-dasharray:none;stroke-opacity:1"
         inkscape:connector-curvature="0" />
      <path
         id="path3973"
         d="m 262.72074,248.97232 v 0.20013 h -2.13131 v -0.20013 z"
         style="fill:none;stroke:#000000;stroke-width:0.27016529px;stroke-linecap:round;stroke-linejoin:round;stroke-miterlimit:4;stroke-dasharray:none;stroke-opacity:1"
         inkscape:connector-curvature="0" />
      <path
         id="path3975"
         d="m 406.80889,141.36649 c 2.96181,0 5.34327,1.40086 5.34327,3.14192 v 31.45925 c 0,1.74106 -2.38146,3.16193 -5.34327,3.16193"
         style="fill:none;stroke:#000000;stroke-width:0.740453px;stroke-linecap:round;stroke-linejoin:round;stroke-miterlimit:4;stroke-dasharray:none;stroke-opacity:1"
         inkscape:connector-curvature="0" />
      <path
         id="path3977"
         d="m 406.80889,179.12959 c 2.96181,0 5.34327,1.40086 5.34327,3.14193 v 31.45924 c 0,1.74107 -2.38146,3.16194 -5.34327,3.16194"
         style="fill:none;stroke:#000000;stroke-width:0.740453px;stroke-linecap:round;stroke-linejoin:round;stroke-miterlimit:4;stroke-dasharray:none;stroke-opacity:1"
         inkscape:connector-curvature="0" />
      <g
         id="g3987"
         clip-path="url(#clipEmfPath11-8)">
        <text
           id="text3985"
           y="0"
           x="0"
           transform="translate(424.41967,186.83431)"
           style="font-style:normal;font-variant:normal;font-weight:400;font-size:9.3125px;line-height:125%;font-family:Arial;text-align:start;letter-spacing:0px;word-spacing:0px;text-anchor:start;fill:#000000;fill-opacity:1;stroke:none"
           xml:space="preserve"><tspan
             id="tspan3983"
             y="0"
             x="0"
             sodipodi:role="line"><tspan
               id="tspan3979"
               style="font-style:normal;font-variant:normal;font-weight:400;font-size:9.3125px;font-family:Arial;fill:#000000"
               dy="0"
               dx="0">within the timeout period</tspan><tspan
               id="tspan3981"
               style="font-style:normal;font-variant:normal;font-weight:400;font-size:16px;font-family:'Times New Roman';fill:#000000"
               dy="0"
               dx="0"> </tspan></tspan></text>
      </g>
      <path
         id="path3989"
         d="m 106.17496,50.170695 v 0 c -0.18011,0.18011 -0.48029,0.18011 -0.6604,0 -0.19012,-0.190116 -0.19012,-0.4903 0,-0.67041 0.18011,-0.190116 0.48029,-0.190116 0.6604,0 0.19012,0.18011 0.19012,0.480294 0,0.67041 z m -1.46089,1.300796 v 0 c -0.21013,0.150092 -0.51032,0.120073 -0.67041,-0.09005 -0.1501,-0.210129 -0.11007,-0.510312 0.10006,-0.67041 0.20012,-0.160098 0.5003,-0.110068 0.6604,0.100061 0.15009,0.200122 0.12007,0.500306 -0.09,0.660404 z m -1.60098,1.090667 v 0 c -0.23014,0.140086 -0.51032,0.07004 -0.66041,-0.150092 -0.14008,-0.220134 -0.07,-0.520318 0.1601,-0.660404 0.23014,-0.130079 0.51031,-0.07004 0.6504,0.160098 0.13008,0.220135 0.07,0.510313 -0.15009,0.650398 z m -1.61099,1.010619 v 0 c -0.22013,0.150091 -0.51031,0.07004 -0.6504,-0.150092 -0.14008,-0.230141 -0.07,-0.520319 0.1601,-0.660404 0.22014,-0.140086 0.51031,-0.07004 0.6504,0.160098 0.13008,0.23014 0.07,0.510312 -0.1601,0.650398 z m -1.560955,1.040636 v 0 c -0.210128,0.150092 -0.510312,0.100061 -0.650397,-0.130079 -0.160098,-0.210129 -0.100062,-0.4903 0.110067,-0.650398 0.210128,-0.160098 0.510312,-0.100061 0.670415,0.110067 0.14008,0.220135 0.10006,0.520318 -0.130085,0.67041 z m -1.530936,1.100674 v 0 c -0.210129,0.160098 -0.500306,0.100061 -0.650398,-0.110068 -0.160098,-0.200122 -0.120074,-0.500306 0.09006,-0.660404 0.220135,-0.160098 0.520318,-0.110067 0.67041,0.100062 0.160098,0.210128 0.100061,0.510312 -0.110067,0.67041 z m -1.450888,1.150704 h -0.01001 c -0.200122,0.170104 -0.500306,0.150092 -0.660404,-0.05003 -0.170104,-0.200122 -0.150092,-0.500306 0.05003,-0.67041 0.210128,-0.170104 0.510312,-0.150092 0.660404,0.05003 0.170104,0.200122 0.160098,0.500306 -0.04002,0.67041 z m -1.390851,1.260771 v 0 c -0.190116,0.18011 -0.480294,0.170104 -0.67041,-0.02001 -0.18011,-0.18011 -0.170104,-0.480294 0.02001,-0.67041 0.18011,-0.180111 0.4903,-0.180111 0.660404,0.02001 0.190117,0.18011 0.190117,0.480294 -0.01001,0.67041 z m -1.260771,1.350827 v 0 c -0.190117,0.200122 -0.4903,0.210128 -0.67041,0.04002 -0.200123,-0.170104 -0.230141,-0.480294 -0.04002,-0.67041 0.170104,-0.200123 0.460282,-0.230141 0.660404,-0.04002 0.200123,0.170104 0.220135,0.470288 0.05003,0.670411 z m -1.180723,1.440881 v 0 c -0.160098,0.210129 -0.460281,0.250153 -0.660404,0.100061 -0.210128,-0.160098 -0.250153,-0.460281 -0.100061,-0.67041 0.160098,-0.220135 0.460282,-0.240147 0.67041,-0.09005 0.210129,0.160098 0.240147,0.460282 0.09005,0.660404 z m -1.040636,1.520931 v 0 c -0.140086,0.23014 -0.430263,0.300183 -0.650398,0.170104 -0.230141,-0.140086 -0.300184,-0.420257 -0.160098,-0.650398 0.130079,-0.230141 0.430263,-0.300184 0.650398,-0.160098 0.220134,0.130079 0.290177,0.430263 0.160098,0.640392 z m -0.910557,1.630997 v 0 c -0.110068,0.220135 -0.400245,0.320196 -0.62038,0.210129 -0.240147,-0.100061 -0.340208,-0.390239 -0.230141,-0.630386 0.110068,-0.240147 0.400245,-0.340208 0.630386,-0.23014 0.240147,0.120073 0.340208,0.400244 0.220135,0.650397 z m -0.780478,1.681029 v 0 c -0.08005,0.240147 -0.350214,0.370226 -0.590361,0.280171 -0.260159,-0.100061 -0.370227,-0.370226 -0.290178,-0.610373 0.09006,-0.260159 0.370227,-0.370227 0.610374,-0.290178 0.240147,0.100062 0.370226,0.370227 0.270165,0.62038 z m -0.640392,1.791096 v 0 c -0.100061,0.240147 -0.370226,0.370226 -0.610373,0.270165 -0.240147,-0.08005 -0.370227,-0.370226 -0.270165,-0.610373 0.09005,-0.240147 0.36022,-0.370227 0.600367,-0.270166 0.250153,0.08005 0.370226,0.350215 0.280171,0.610374 z m -0.480294,1.781089 v 0 c -0.06004,0.26016 -0.330202,0.400245 -0.570348,0.340209 -0.250154,-0.07004 -0.410251,-0.330202 -0.340209,-0.580355 0.06004,-0.26016 0.31019,-0.400245 0.570349,-0.340209 0.250153,0.07004 0.410251,0.320196 0.340208,0.580355 z m -0.400244,1.821115 v 0 c -0.05003,0.260159 -0.300184,0.430263 -0.550337,0.370226 -0.260159,-0.04002 -0.430263,-0.300184 -0.380233,-0.550337 0.05003,-0.260159 0.290178,-0.430263 0.550337,-0.370226 0.250153,0.04002 0.430263,0.300184 0.380233,0.550337 z m -0.31019,1.871144 v 0 c -0.04002,0.26016 -0.280172,0.430264 -0.540331,0.380233 -0.270165,-0.04002 -0.440269,-0.280171 -0.400245,-0.540331 0.05003,-0.250153 0.290178,-0.440269 0.540331,-0.400244 0.260159,0.05003 0.440269,0.290177 0.400245,0.560342 z M 88.29402,74.87581 v 0 c -0.03002,0.260159 -0.270166,0.450276 -0.520319,0.400245 -0.270165,-0.03002 -0.440269,-0.270165 -0.420257,-0.520318 0.03002,-0.26016 0.270165,-0.450276 0.530325,-0.420257 0.270165,0.05003 0.440269,0.270165 0.410251,0.54033 z m -0.230141,1.871145 v 0 c -0.03002,0.260159 -0.250153,0.460281 -0.520319,0.430263 -0.260159,-0.03002 -0.440269,-0.260159 -0.410251,-0.530324 0.02001,-0.260159 0.250153,-0.44027 0.510313,-0.430264 0.270165,0.03002 0.450275,0.270166 0.420257,0.530325 z m -0.18011,1.891157 v 0 c -0.03002,0.260159 -0.270166,0.460282 -0.530325,0.430263 -0.250153,-0.03002 -0.440269,-0.270165 -0.420257,-0.530324 0.03002,-0.250153 0.270165,-0.450276 0.520318,-0.420257 0.260159,0.03002 0.460282,0.270165 0.430264,0.520318 z m -0.170105,1.881151 v 0 c -0.02001,0.270165 -0.260159,0.460281 -0.510312,0.450275 -0.260159,-0.03002 -0.460281,-0.260159 -0.430263,-0.530324 0.02001,-0.260159 0.260159,-0.460282 0.510312,-0.430263 0.260159,0.03002 0.460282,0.260159 0.430263,0.510312 z m -0.140085,1.901163 v 0 c -0.02001,0.270165 -0.260159,0.450275 -0.510312,0.440269 -0.26016,-0.03002 -0.460282,-0.260159 -0.430264,-0.530324 0.01001,-0.250153 0.250153,-0.450276 0.510313,-0.420257 0.260159,0.02001 0.450275,0.250153 0.430263,0.510312 z m -0.13008,1.881151 v 0 c -0.03002,0.270165 -0.240147,0.470288 -0.510312,0.450275 -0.260159,-0.01001 -0.460282,-0.240147 -0.440269,-0.510312 0.01001,-0.250153 0.240147,-0.450275 0.4903,-0.440269 0.270165,0.01001 0.470287,0.240147 0.460281,0.500306 z m -0.110067,1.891157 v 0.02001 c -0.02001,0.250153 -0.250153,0.450276 -0.500306,0.44027 -0.270166,-0.02001 -0.470288,-0.240147 -0.460282,-0.500307 0.03002,-0.270165 0.250153,-0.470287 0.510312,-0.460281 0.26016,0.02001 0.460282,0.250153 0.450276,0.500306 z m -0.120074,1.911169 v 0 c -0.01001,0.260159 -0.23014,0.460282 -0.500306,0.44027 -0.250153,-0.01001 -0.450275,-0.240147 -0.440269,-0.500306 0.02001,-0.270166 0.250153,-0.470288 0.500306,-0.450276 0.270165,0.03002 0.470288,0.240147 0.440269,0.510312 z m -0.07004,1.881151 v 0.02001 c -0.01001,0.250153 -0.240147,0.450276 -0.500307,0.44027 -0.250153,0 -0.460281,-0.230141 -0.450275,-0.4903 0.01001,-0.270166 0.240147,-0.470288 0.500306,-0.450276 0.250153,0 0.460282,0.220135 0.450276,0.480294 z m -0.07004,1.911169 v 0 c -0.01001,0.26016 -0.240147,0.460282 -0.500306,0.460282 -0.250153,-0.02001 -0.470288,-0.250153 -0.450276,-0.500306 0.01001,-0.270165 0.240147,-0.470288 0.500306,-0.460282 0.250153,0.02001 0.460282,0.230141 0.450276,0.500306 z m -0.06004,1.891157 v 0 c -0.01001,0.26016 -0.220135,0.470288 -0.4903,0.460282 -0.260159,-0.01001 -0.470288,-0.230141 -0.460282,-0.480294 0,-0.280171 0.230141,-0.470288 0.480294,-0.470288 0.270166,0.01001 0.470288,0.220135 0.470288,0.4903 z m -0.04002,1.901164 v 0 c -0.01001,0.250153 -0.23014,0.470287 -0.500306,0.450275 -0.250153,0 -0.450275,-0.220135 -0.450275,-0.480294 0.01001,-0.260159 0.230141,-0.470287 0.480294,-0.460281 0.270165,0 0.470287,0.23014 0.470287,0.4903 z m -0.04002,1.891157 v 0 c -0.02001,0.270165 -0.230141,0.470287 -0.4903,0.470287 -0.260159,-0.01001 -0.460282,-0.23014 -0.460282,-0.500306 0.01001,-0.250153 0.220135,-0.470287 0.480294,-0.450275 0.270166,0.01001 0.470288,0.230141 0.470288,0.480294 z m -0.02001,1.901163 v 0 c 0,0.270165 -0.210129,0.470288 -0.480294,0.470288 -0.250153,0 -0.470288,-0.220135 -0.470288,-0.4903 0.02001,-0.250153 0.230141,-0.470288 0.480294,-0.470288 0.270165,0.02001 0.470288,0.230141 0.470288,0.4903 z m -0.01001,1.901166 v 0 c 0,0.26016 -0.210129,0.47028 -0.480294,0.47028 -0.260159,-0.01 -0.470288,-0.22013 -0.460282,-0.48029 0,-0.27016 0.220135,-0.47029 0.470288,-0.47029 0.270165,0 0.470288,0.21013 0.470288,0.4803 z m 0,1.90116 v 0 c 0,0.25015 -0.210129,0.47029 -0.470288,0.47029 -0.270165,0 -0.470288,-0.22014 -0.470288,-0.47029 0,-0.27017 0.200123,-0.4903 0.470288,-0.4903 0.260159,0 0.470288,0.22013 0.470288,0.4903 z m 0.01001,1.89116 v 0 c 0,0.26016 -0.210129,0.47028 -0.470288,0.47028 -0.260159,0 -0.480294,-0.21012 -0.480294,-0.47028 0,-0.25016 0.220135,-0.47029 0.480294,-0.47029 0.260159,0 0.470288,0.22013 0.470288,0.47029 z m 0.02001,1.90116 v 0 c 0,0.25015 -0.200122,0.47029 -0.470288,0.48029 -0.260159,0 -0.470287,-0.21012 -0.480294,-0.47028 0,-0.27017 0.210129,-0.4803 0.460282,-0.4803 0.270165,0 0.4903,0.20013 0.4903,0.47029 z m 0.04002,1.89116 v 0 c 0,0.27016 -0.210128,0.4903 -0.470287,0.4903 -0.250153,0 -0.480294,-0.20013 -0.480294,-0.47029 0,-0.26016 0.210128,-0.47029 0.470288,-0.4903 0.250153,0 0.480293,0.21013 0.480293,0.47029 z m 0.04002,1.91117 v 0 c 0,0.26016 -0.210129,0.47028 -0.470288,0.47028 -0.250153,0.01 -0.480294,-0.20012 -0.480294,-0.46028 0,-0.27016 0.210129,-0.48029 0.470288,-0.48029 0.260159,-0.01 0.470288,0.20012 0.480294,0.47029 z m 0.06004,1.88115 v 0 c 0.01001,0.27016 -0.200123,0.48029 -0.450276,0.5003 -0.270165,0 -0.4903,-0.20012 -0.500306,-0.47028 0,-0.26016 0.200123,-0.47029 0.470288,-0.4903 0.250153,0 0.470288,0.20012 0.480294,0.46028 z m 0.07004,1.91117 v 0 c 0.01001,0.25015 -0.200123,0.48029 -0.450276,0.48029 -0.270165,0.02 -0.4903,-0.20012 -0.500306,-0.45027 0,-0.27017 0.200122,-0.4903 0.470288,-0.50031 0.250153,0 0.480294,0.20012 0.480294,0.47029 z m 0.09006,1.89115 v 0 c 0.01001,0.26016 -0.200123,0.4903 -0.460282,0.4903 -0.250153,0.01 -0.480294,-0.19011 -0.500306,-0.45027 v -0.01 c -0.01001,-0.26016 0.200122,-0.48029 0.460282,-0.48029 0.250153,-0.02 0.480293,0.18011 0.500306,0.45027 z m 0.100061,1.90117 v 0 c 0.01001,0.25015 -0.190116,0.48029 -0.460282,0.4903 -0.250153,0 -0.480294,-0.19012 -0.480294,-0.45028 -0.02001,-0.27016 0.180111,-0.4903 0.44027,-0.5003 0.270165,-0.01 0.480294,0.19011 0.500306,0.46028 z m 0.110067,1.89115 v 0 c 0.01001,0.26016 -0.200122,0.4803 -0.460281,0.50031 -0.270166,0.01 -0.480294,-0.20012 -0.4903,-0.46028 -0.02001,-0.27017 0.200122,-0.4803 0.450275,-0.50031 0.260159,-0.01 0.480294,0.20012 0.500306,0.46028 z m 0.13008,1.88115 v 0.01 c 0.02001,0.26016 -0.190117,0.4903 -0.44027,0.50031 -0.260159,0.02 -0.4903,-0.18011 -0.500306,-0.45028 -0.01001,-0.26016 0.180111,-0.4903 0.44027,-0.5003 0.270165,-0.02 0.480294,0.18011 0.500306,0.44026 z m 0.140085,1.89116 v 0 c 0.03002,0.26016 -0.170104,0.4903 -0.440269,0.52032 -0.260159,0.01 -0.480294,-0.19012 -0.500306,-0.44027 -0.03002,-0.26016 0.170104,-0.4903 0.430263,-0.52032 0.270166,-0.01 0.4903,0.19012 0.510312,0.44027 z m 0.170105,1.88115 v 0 c 0.01001,0.28017 -0.170105,0.50031 -0.44027,0.53033 -0.260159,0.02 -0.480294,-0.17011 -0.510312,-0.44027 -0.02001,-0.26016 0.170104,-0.4803 0.420257,-0.51031 0.270165,-0.02 0.500306,0.1701 0.530325,0.42025 z m 0.18011,1.90117 v 0 c 0.02001,0.25015 -0.170104,0.5003 -0.44027,0.51031 -0.250153,0.03 -0.480293,-0.1601 -0.510312,-0.43026 -0.01001,-0.25016 0.170104,-0.4803 0.430263,-0.51032 0.270166,-0.03 0.4903,0.17011 0.520319,0.43027 z m 0.220134,1.88115 v 0 c 0.02001,0.25015 -0.160098,0.5003 -0.420257,0.53032 -0.250153,0.02 -0.4903,-0.1601 -0.520318,-0.42026 -0.03002,-0.27016 0.160098,-0.5003 0.410251,-0.54033 0.260159,-0.03 0.500306,0.1601 0.530324,0.43027 z m 0.250153,1.86114 v 0 c 0.04002,0.26015 -0.130079,0.5003 -0.400244,0.55033 -0.250153,0.04 -0.4903,-0.15009 -0.540331,-0.40024 -0.02001,-0.26016 0.150092,-0.50031 0.400245,-0.54033 0.270165,-0.05 0.500306,0.14008 0.54033,0.39024 z m 0.31019,1.87114 v 0 c 0.05003,0.26016 -0.140085,0.50031 -0.390239,0.54033 -0.260159,0.04 -0.500306,-0.13008 -0.54033,-0.38023 -0.05003,-0.26016 0.120073,-0.50031 0.380233,-0.54033 0.260159,-0.05 0.500306,0.12007 0.550336,0.38023 z m 0.370227,1.84113 v 0 c 0.06004,0.25015 -0.100061,0.51031 -0.350215,0.57035 -0.260159,0.05 -0.510312,-0.12008 -0.570348,-0.37023 -0.06004,-0.26016 0.100061,-0.50031 0.36022,-0.56034 0.250153,-0.0701 0.510312,0.10006 0.560343,0.36022 z m 0.440269,1.79109 v 0 c 0.09005,0.26016 -0.05003,0.53033 -0.290177,0.60037 -0.26016,0.0901 -0.530325,-0.04 -0.600368,-0.30018 h -0.02001 c -0.07004,-0.26016 0.06004,-0.51032 0.320196,-0.60037 0.240147,-0.08 0.510312,0.06 0.590361,0.30018 z m 0.600367,1.81111 v 0 c 0.07004,0.24015 -0.06004,0.51031 -0.310189,0.60037 -0.240147,0.08 -0.510313,-0.06 -0.600368,-0.30019 -0.08005,-0.26015 0.06004,-0.53032 0.300184,-0.60036 0.250153,-0.08 0.520318,0.04 0.610373,0.30018 z m 0.700429,1.71105 v 0.01 c 0.09006,0.23014 -0.02001,0.52032 -0.260159,0.62038 -0.230141,0.11007 -0.510312,0 -0.610374,-0.25015 -0.110067,-0.24015 0,-0.51031 0.240147,-0.62038 0.240147,-0.10006 0.510313,0.01 0.630386,0.24015 z m 0.80049,1.68103 v 0 c 0.120073,0.23014 0.03002,0.51031 -0.190117,0.64039 -0.23014,0.13008 -0.520318,0.04 -0.640391,-0.20012 -0.13008,-0.23015 -0.05003,-0.51032 0.200122,-0.6404 0.220135,-0.11006 0.510312,-0.03 0.630386,0.20013 z m 0.930569,1.61098 v 0 c 0.140086,0.21013 0.08005,0.51031 -0.140086,0.6504 -0.220134,0.15009 -0.520318,0.09 -0.660404,-0.14009 -0.140085,-0.21012 -0.08005,-0.51031 0.140086,-0.65039 0.220135,-0.1501 0.520318,-0.0901 0.660404,0.14008 z m 1.050643,1.54094 v 0 c 0.150092,0.21013 0.110067,0.51032 -0.100061,0.67041 -0.200123,0.1501 -0.500306,0.11007 -0.650398,-0.10006 -0.18011,-0.20012 -0.13008,-0.5003 0.08005,-0.6604 0.210128,-0.15009 0.510312,-0.13008 0.67041,0.09 z m 1.130692,1.4609 v 0 c 0.190116,0.20012 0.170104,0.5003 -0.03002,0.67041 -0.190116,0.1701 -0.4903,0.1601 -0.660404,-0.04 -0.190116,-0.18011 -0.160098,-0.48029 0.03002,-0.67041 0.190116,-0.1701 0.4903,-0.16009 0.660404,0.04 z m 1.270777,1.39085 v 0 c 0.18011,0.18011 0.18011,0.4903 0,0.68042 -0.190116,0.18011 -0.4903,0.18011 -0.67041,0 h -0.01001 c -0.190116,-0.20013 -0.190116,-0.50031 0,-0.68042 0.190116,-0.19012 0.4903,-0.19012 0.680416,0 z m 1.330814,1.3108 v 0 c 0.190117,0.17011 0.210129,0.47029 0.04002,0.67041 -0.18011,0.19012 -0.480294,0.21013 -0.660404,0.04 -0.200123,-0.17011 -0.230141,-0.47029 -0.05003,-0.67041 0.170104,-0.20013 0.470288,-0.21013 0.67041,-0.04 z m 1.410864,1.25077 v 0 c 0.200122,0.1701 0.220134,0.47028 0.05003,0.67041 -0.170104,0.20012 -0.470288,0.23014 -0.660404,0.06 -0.200122,-0.18011 -0.230141,-0.47028 -0.06004,-0.67041 0.170104,-0.20012 0.470288,-0.23014 0.670411,-0.06 z m 1.430876,1.22074 v 0 c 0.21013,0.1601 0.24015,0.46028 0.07,0.67041 -0.15009,0.20013 -0.450274,0.23014 -0.670408,0.0701 -0.190117,-0.17011 -0.220135,-0.47029 -0.07004,-0.66041 0.170104,-0.22013 0.470288,-0.25015 0.670408,-0.08 z m 1.4609,1.20074 v 0 c 0.22013,0.1701 0.24014,0.47029 0.07,0.67041 -0.15009,0.21013 -0.45028,0.24015 -0.66041,0.07 -0.20012,-0.1601 -0.23014,-0.45027 -0.07,-0.67041 0.17011,-0.20012 0.46028,-0.23014 0.66041,-0.07 z m 1.8111,-1.64101 2.25138,5.94364 -6.09373,-1.75107 z"
         style="fill:#000000;fill-opacity:1;fill-rule:evenodd;stroke:none"
         inkscape:connector-curvature="0" />
      <path
         id="path3991"
         d="m 106.17496,50.170695 v 0 c -0.18011,0.18011 -0.48029,0.18011 -0.6604,0 -0.19012,-0.190116 -0.19012,-0.4903 0,-0.67041 0.18011,-0.190116 0.48029,-0.190116 0.6604,0 0.19012,0.18011 0.19012,0.480294 0,0.67041 z m -1.46089,1.300796 v 0 c -0.21013,0.150092 -0.51032,0.120073 -0.67041,-0.09005 -0.1501,-0.210129 -0.11007,-0.510312 0.10006,-0.67041 0.20012,-0.160098 0.5003,-0.110068 0.6604,0.100061 0.15009,0.200122 0.12007,0.500306 -0.09,0.660404 z m -1.60098,1.090667 v 0 c -0.23014,0.140086 -0.51032,0.07004 -0.66041,-0.150092 -0.14008,-0.220134 -0.07,-0.520318 0.1601,-0.660404 0.23014,-0.130079 0.51031,-0.07004 0.6504,0.160098 0.13008,0.220135 0.07,0.510313 -0.15009,0.650398 z m -1.61099,1.010619 v 0 c -0.22013,0.150091 -0.51031,0.07004 -0.6504,-0.150092 -0.14008,-0.230141 -0.07,-0.520319 0.1601,-0.660404 0.22014,-0.140086 0.51031,-0.07004 0.6504,0.160098 0.13008,0.23014 0.07,0.510312 -0.1601,0.650398 z m -1.560955,1.040636 v 0 c -0.210128,0.150092 -0.510312,0.100061 -0.650397,-0.130079 -0.160098,-0.210129 -0.100062,-0.4903 0.110067,-0.650398 0.210128,-0.160098 0.510312,-0.100061 0.670415,0.110067 0.14008,0.220135 0.10006,0.520318 -0.130085,0.67041 z m -1.530936,1.100674 v 0 c -0.210129,0.160098 -0.500306,0.100061 -0.650398,-0.110068 -0.160098,-0.200122 -0.120074,-0.500306 0.09006,-0.660404 0.220135,-0.160098 0.520318,-0.110067 0.67041,0.100062 0.160098,0.210128 0.100061,0.510312 -0.110067,0.67041 z m -1.450888,1.150704 h -0.01001 c -0.200122,0.170104 -0.500306,0.150092 -0.660404,-0.05003 -0.170104,-0.200122 -0.150092,-0.500306 0.05003,-0.67041 0.210128,-0.170104 0.510312,-0.150092 0.660404,0.05003 0.170104,0.200122 0.160098,0.500306 -0.04002,0.67041 z m -1.390851,1.260771 v 0 c -0.190116,0.18011 -0.480294,0.170104 -0.67041,-0.02001 -0.18011,-0.18011 -0.170104,-0.480294 0.02001,-0.67041 0.18011,-0.180111 0.4903,-0.180111 0.660404,0.02001 0.190117,0.18011 0.190117,0.480294 -0.01001,0.67041 z m -1.260771,1.350827 v 0 c -0.190117,0.200122 -0.4903,0.210128 -0.67041,0.04002 -0.200123,-0.170104 -0.230141,-0.480294 -0.04002,-0.67041 0.170104,-0.200123 0.460282,-0.230141 0.660404,-0.04002 0.200123,0.170104 0.220135,0.470288 0.05003,0.670411 z m -1.180723,1.440881 v 0 c -0.160098,0.210129 -0.460281,0.250153 -0.660404,0.100061 -0.210128,-0.160098 -0.250153,-0.460281 -0.100061,-0.67041 0.160098,-0.220135 0.460282,-0.240147 0.67041,-0.09005 0.210129,0.160098 0.240147,0.460282 0.09005,0.660404 z m -1.040636,1.520931 v 0 c -0.140086,0.23014 -0.430263,0.300183 -0.650398,0.170104 -0.230141,-0.140086 -0.300184,-0.420257 -0.160098,-0.650398 0.130079,-0.230141 0.430263,-0.300184 0.650398,-0.160098 0.220134,0.130079 0.290177,0.430263 0.160098,0.640392 z m -0.910557,1.630997 v 0 c -0.110068,0.220135 -0.400245,0.320196 -0.62038,0.210129 -0.240147,-0.100061 -0.340208,-0.390239 -0.230141,-0.630386 0.110068,-0.240147 0.400245,-0.340208 0.630386,-0.23014 0.240147,0.120073 0.340208,0.400244 0.220135,0.650397 z m -0.780478,1.681029 v 0 c -0.08005,0.240147 -0.350214,0.370226 -0.590361,0.280171 -0.260159,-0.100061 -0.370227,-0.370226 -0.290178,-0.610373 0.09006,-0.260159 0.370227,-0.370227 0.610374,-0.290178 0.240147,0.100062 0.370226,0.370227 0.270165,0.62038 z m -0.640392,1.791096 v 0 c -0.100061,0.240147 -0.370226,0.370226 -0.610373,0.270165 -0.240147,-0.08005 -0.370227,-0.370226 -0.270165,-0.610373 0.09005,-0.240147 0.36022,-0.370227 0.600367,-0.270166 0.250153,0.08005 0.370226,0.350215 0.280171,0.610374 z m -0.480294,1.781089 v 0 c -0.06004,0.26016 -0.330202,0.400245 -0.570348,0.340209 -0.250154,-0.07004 -0.410251,-0.330202 -0.340209,-0.580355 0.06004,-0.26016 0.31019,-0.400245 0.570349,-0.340209 0.250153,0.07004 0.410251,0.320196 0.340208,0.580355 z m -0.400244,1.821115 v 0 c -0.05003,0.260159 -0.300184,0.430263 -0.550337,0.370226 -0.260159,-0.04002 -0.430263,-0.300184 -0.380233,-0.550337 0.05003,-0.260159 0.290178,-0.430263 0.550337,-0.370226 0.250153,0.04002 0.430263,0.300184 0.380233,0.550337 z m -0.31019,1.871144 v 0 c -0.04002,0.26016 -0.280172,0.430264 -0.540331,0.380233 -0.270165,-0.04002 -0.440269,-0.280171 -0.400245,-0.540331 0.05003,-0.250153 0.290178,-0.440269 0.540331,-0.400244 0.260159,0.05003 0.440269,0.290177 0.400245,0.560342 z M 88.29402,74.87581 v 0 c -0.03002,0.260159 -0.270166,0.450276 -0.520319,0.400245 -0.270165,-0.03002 -0.440269,-0.270165 -0.420257,-0.520318 0.03002,-0.26016 0.270165,-0.450276 0.530325,-0.420257 0.270165,0.05003 0.440269,0.270165 0.410251,0.54033 z m -0.230141,1.871145 v 0 c -0.03002,0.260159 -0.250153,0.460281 -0.520319,0.430263 -0.260159,-0.03002 -0.440269,-0.260159 -0.410251,-0.530324 0.02001,-0.260159 0.250153,-0.44027 0.510313,-0.430264 0.270165,0.03002 0.450275,0.270166 0.420257,0.530325 z m -0.18011,1.891157 v 0 c -0.03002,0.260159 -0.270166,0.460282 -0.530325,0.430263 -0.250153,-0.03002 -0.440269,-0.270165 -0.420257,-0.530324 0.03002,-0.250153 0.270165,-0.450276 0.520318,-0.420257 0.260159,0.03002 0.460282,0.270165 0.430264,0.520318 z m -0.170105,1.881151 v 0 c -0.02001,0.270165 -0.260159,0.460281 -0.510312,0.450275 -0.260159,-0.03002 -0.460281,-0.260159 -0.430263,-0.530324 0.02001,-0.260159 0.260159,-0.460282 0.510312,-0.430263 0.260159,0.03002 0.460282,0.260159 0.430263,0.510312 z m -0.140085,1.901163 v 0 c -0.02001,0.270165 -0.260159,0.450275 -0.510312,0.440269 -0.26016,-0.03002 -0.460282,-0.260159 -0.430264,-0.530324 0.01001,-0.250153 0.250153,-0.450276 0.510313,-0.420257 0.260159,0.02001 0.450275,0.250153 0.430263,0.510312 z m -0.13008,1.881151 v 0 c -0.03002,0.270165 -0.240147,0.470288 -0.510312,0.450275 -0.260159,-0.01001 -0.460282,-0.240147 -0.440269,-0.510312 0.01001,-0.250153 0.240147,-0.450275 0.4903,-0.440269 0.270165,0.01001 0.470287,0.240147 0.460281,0.500306 z m -0.110067,1.891157 v 0.02001 c -0.02001,0.250153 -0.250153,0.450276 -0.500306,0.44027 -0.270166,-0.02001 -0.470288,-0.240147 -0.460282,-0.500307 0.03002,-0.270165 0.250153,-0.470287 0.510312,-0.460281 0.26016,0.02001 0.460282,0.250153 0.450276,0.500306 z m -0.120074,1.911169 v 0 c -0.01001,0.260159 -0.23014,0.460282 -0.500306,0.44027 -0.250153,-0.01001 -0.450275,-0.240147 -0.440269,-0.500306 0.02001,-0.270166 0.250153,-0.470288 0.500306,-0.450276 0.270165,0.03002 0.470288,0.240147 0.440269,0.510312 z m -0.07004,1.881151 v 0.02001 c -0.01001,0.250153 -0.240147,0.450276 -0.500307,0.44027 -0.250153,0 -0.460281,-0.230141 -0.450275,-0.4903 0.01001,-0.270166 0.240147,-0.470288 0.500306,-0.450276 0.250153,0 0.460282,0.220135 0.450276,0.480294 z m -0.07004,1.911169 v 0 c -0.01001,0.26016 -0.240147,0.460282 -0.500306,0.460282 -0.250153,-0.02001 -0.470288,-0.250153 -0.450276,-0.500306 0.01001,-0.270165 0.240147,-0.470288 0.500306,-0.460282 0.250153,0.02001 0.460282,0.230141 0.450276,0.500306 z m -0.06004,1.891157 v 0 c -0.01001,0.26016 -0.220135,0.470288 -0.4903,0.460282 -0.260159,-0.01001 -0.470288,-0.230141 -0.460282,-0.480294 0,-0.280171 0.230141,-0.470288 0.480294,-0.470288 0.270166,0.01001 0.470288,0.220135 0.470288,0.4903 z m -0.04002,1.901164 v 0 c -0.01001,0.250153 -0.23014,0.470287 -0.500306,0.450275 -0.250153,0 -0.450275,-0.220135 -0.450275,-0.480294 0.01001,-0.260159 0.230141,-0.470287 0.480294,-0.460281 0.270165,0 0.470287,0.23014 0.470287,0.4903 z m -0.04002,1.891157 v 0 c -0.02001,0.270165 -0.230141,0.470287 -0.4903,0.470287 -0.260159,-0.01001 -0.460282,-0.23014 -0.460282,-0.500306 0.01001,-0.250153 0.220135,-0.470287 0.480294,-0.450275 0.270166,0.01001 0.470288,0.230141 0.470288,0.480294 z m -0.02001,1.901163 v 0 c 0,0.270165 -0.210129,0.470288 -0.480294,0.470288 -0.250153,0 -0.470288,-0.220135 -0.470288,-0.4903 0.02001,-0.250153 0.230141,-0.470288 0.480294,-0.470288 0.270165,0.02001 0.470288,0.230141 0.470288,0.4903 z m -0.01001,1.901166 v 0 c 0,0.26016 -0.210129,0.47028 -0.480294,0.47028 -0.260159,-0.01 -0.470288,-0.22013 -0.460282,-0.48029 0,-0.27016 0.220135,-0.47029 0.470288,-0.47029 0.270165,0 0.470288,0.21013 0.470288,0.4803 z m 0,1.90116 v 0 c 0,0.25015 -0.210129,0.47029 -0.470288,0.47029 -0.270165,0 -0.470288,-0.22014 -0.470288,-0.47029 0,-0.27017 0.200123,-0.4903 0.470288,-0.4903 0.260159,0 0.470288,0.22013 0.470288,0.4903 z m 0.01001,1.89116 v 0 c 0,0.26016 -0.210129,0.47028 -0.470288,0.47028 -0.260159,0 -0.480294,-0.21012 -0.480294,-0.47028 0,-0.25016 0.220135,-0.47029 0.480294,-0.47029 0.260159,0 0.470288,0.22013 0.470288,0.47029 z m 0.02001,1.90116 v 0 c 0,0.25015 -0.200122,0.47029 -0.470288,0.48029 -0.260159,0 -0.470287,-0.21012 -0.480294,-0.47028 0,-0.27017 0.210129,-0.4803 0.460282,-0.4803 0.270165,0 0.4903,0.20013 0.4903,0.47029 z m 0.04002,1.89116 v 0 c 0,0.27016 -0.210128,0.4903 -0.470287,0.4903 -0.250153,0 -0.480294,-0.20013 -0.480294,-0.47029 0,-0.26016 0.210128,-0.47029 0.470288,-0.4903 0.250153,0 0.480293,0.21013 0.480293,0.47029 z m 0.04002,1.91117 v 0 c 0,0.26016 -0.210129,0.47028 -0.470288,0.47028 -0.250153,0.01 -0.480294,-0.20012 -0.480294,-0.46028 0,-0.27016 0.210129,-0.48029 0.470288,-0.48029 0.260159,-0.01 0.470288,0.20012 0.480294,0.47029 z m 0.06004,1.88115 v 0 c 0.01001,0.27016 -0.200123,0.48029 -0.450276,0.5003 -0.270165,0 -0.4903,-0.20012 -0.500306,-0.47028 0,-0.26016 0.200123,-0.47029 0.470288,-0.4903 0.250153,0 0.470288,0.20012 0.480294,0.46028 z m 0.07004,1.91117 v 0 c 0.01001,0.25015 -0.200123,0.48029 -0.450276,0.48029 -0.270165,0.02 -0.4903,-0.20012 -0.500306,-0.45027 0,-0.27017 0.200122,-0.4903 0.470288,-0.50031 0.250153,0 0.480294,0.20012 0.480294,0.47029 z m 0.09006,1.89115 v 0 c 0.01001,0.26016 -0.200123,0.4903 -0.460282,0.4903 -0.250153,0.01 -0.480294,-0.19011 -0.500306,-0.45027 v -0.01 c -0.01001,-0.26016 0.200122,-0.48029 0.460282,-0.48029 0.250153,-0.02 0.480293,0.18011 0.500306,0.45027 z m 0.100061,1.90117 v 0 c 0.01001,0.25015 -0.190116,0.48029 -0.460282,0.4903 -0.250153,0 -0.480294,-0.19012 -0.480294,-0.45028 -0.02001,-0.27016 0.180111,-0.4903 0.44027,-0.5003 0.270165,-0.01 0.480294,0.19011 0.500306,0.46028 z m 0.110067,1.89115 v 0 c 0.01001,0.26016 -0.200122,0.4803 -0.460281,0.50031 -0.270166,0.01 -0.480294,-0.20012 -0.4903,-0.46028 -0.02001,-0.27017 0.200122,-0.4803 0.450275,-0.50031 0.260159,-0.01 0.480294,0.20012 0.500306,0.46028 z m 0.13008,1.88115 v 0.01 c 0.02001,0.26016 -0.190117,0.4903 -0.44027,0.50031 -0.260159,0.02 -0.4903,-0.18011 -0.500306,-0.45028 -0.01001,-0.26016 0.180111,-0.4903 0.44027,-0.5003 0.270165,-0.02 0.480294,0.18011 0.500306,0.44026 z m 0.140085,1.89116 v 0 c 0.03002,0.26016 -0.170104,0.4903 -0.440269,0.52032 -0.260159,0.01 -0.480294,-0.19012 -0.500306,-0.44027 -0.03002,-0.26016 0.170104,-0.4903 0.430263,-0.52032 0.270166,-0.01 0.4903,0.19012 0.510312,0.44027 z m 0.170105,1.88115 v 0 c 0.01001,0.28017 -0.170105,0.50031 -0.44027,0.53033 -0.260159,0.02 -0.480294,-0.17011 -0.510312,-0.44027 -0.02001,-0.26016 0.170104,-0.4803 0.420257,-0.51031 0.270165,-0.02 0.500306,0.1701 0.530325,0.42025 z m 0.18011,1.90117 v 0 c 0.02001,0.25015 -0.170104,0.5003 -0.44027,0.51031 -0.250153,0.03 -0.480293,-0.1601 -0.510312,-0.43026 -0.01001,-0.25016 0.170104,-0.4803 0.430263,-0.51032 0.270166,-0.03 0.4903,0.17011 0.520319,0.43027 z m 0.220134,1.88115 v 0 c 0.02001,0.25015 -0.160098,0.5003 -0.420257,0.53032 -0.250153,0.02 -0.4903,-0.1601 -0.520318,-0.42026 -0.03002,-0.27016 0.160098,-0.5003 0.410251,-0.54033 0.260159,-0.03 0.500306,0.1601 0.530324,0.43027 z m 0.250153,1.86114 v 0 c 0.04002,0.26015 -0.130079,0.5003 -0.400244,0.55033 -0.250153,0.04 -0.4903,-0.15009 -0.540331,-0.40024 -0.02001,-0.26016 0.150092,-0.50031 0.400245,-0.54033 0.270165,-0.05 0.500306,0.14008 0.54033,0.39024 z m 0.31019,1.87114 v 0 c 0.05003,0.26016 -0.140085,0.50031 -0.390239,0.54033 -0.260159,0.04 -0.500306,-0.13008 -0.54033,-0.38023 -0.05003,-0.26016 0.120073,-0.50031 0.380233,-0.54033 0.260159,-0.05 0.500306,0.12007 0.550336,0.38023 z m 0.370227,1.84113 v 0 c 0.06004,0.25015 -0.100061,0.51031 -0.350215,0.57035 -0.260159,0.05 -0.510312,-0.12008 -0.570348,-0.37023 -0.06004,-0.26016 0.100061,-0.50031 0.36022,-0.56034 0.250153,-0.0701 0.510312,0.10006 0.560343,0.36022 z m 0.440269,1.79109 v 0 c 0.09005,0.26016 -0.05003,0.53033 -0.290177,0.60037 -0.26016,0.0901 -0.530325,-0.04 -0.600368,-0.30018 h -0.02001 c -0.07004,-0.26016 0.06004,-0.51032 0.320196,-0.60037 0.240147,-0.08 0.510312,0.06 0.590361,0.30018 z m 0.600367,1.81111 v 0 c 0.07004,0.24015 -0.06004,0.51031 -0.310189,0.60037 -0.240147,0.08 -0.510313,-0.06 -0.600368,-0.30019 -0.08005,-0.26015 0.06004,-0.53032 0.300184,-0.60036 0.250153,-0.08 0.520318,0.04 0.610373,0.30018 z m 0.700429,1.71105 v 0.01 c 0.09006,0.23014 -0.02001,0.52032 -0.260159,0.62038 -0.230141,0.11007 -0.510312,0 -0.610374,-0.25015 -0.110067,-0.24015 0,-0.51031 0.240147,-0.62038 0.240147,-0.10006 0.510313,0.01 0.630386,0.24015 z m 0.80049,1.68103 v 0 c 0.120073,0.23014 0.03002,0.51031 -0.190117,0.64039 -0.23014,0.13008 -0.520318,0.04 -0.640391,-0.20012 -0.13008,-0.23015 -0.05003,-0.51032 0.200122,-0.6404 0.220135,-0.11006 0.510312,-0.03 0.630386,0.20013 z m 0.930569,1.61098 v 0 c 0.140086,0.21013 0.08005,0.51031 -0.140086,0.6504 -0.220134,0.15009 -0.520318,0.09 -0.660404,-0.14009 -0.140085,-0.21012 -0.08005,-0.51031 0.140086,-0.65039 0.220135,-0.1501 0.520318,-0.0901 0.660404,0.14008 z m 1.050643,1.54094 v 0 c 0.150092,0.21013 0.110067,0.51032 -0.100061,0.67041 -0.200123,0.1501 -0.500306,0.11007 -0.650398,-0.10006 -0.18011,-0.20012 -0.13008,-0.5003 0.08005,-0.6604 0.210128,-0.15009 0.510312,-0.13008 0.67041,0.09 z m 1.130692,1.4609 v 0 c 0.190116,0.20012 0.170104,0.5003 -0.03002,0.67041 -0.190116,0.1701 -0.4903,0.1601 -0.660404,-0.04 -0.190116,-0.18011 -0.160098,-0.48029 0.03002,-0.67041 0.190116,-0.1701 0.4903,-0.16009 0.660404,0.04 z m 1.270777,1.39085 v 0 c 0.18011,0.18011 0.18011,0.4903 0,0.68042 -0.190116,0.18011 -0.4903,0.18011 -0.67041,0 h -0.01001 c -0.190116,-0.20013 -0.190116,-0.50031 0,-0.68042 0.190116,-0.19012 0.4903,-0.19012 0.680416,0 z m 1.330814,1.3108 v 0 c 0.190117,0.17011 0.210129,0.47029 0.04002,0.67041 -0.18011,0.19012 -0.480294,0.21013 -0.660404,0.04 -0.200123,-0.17011 -0.230141,-0.47029 -0.05003,-0.67041 0.170104,-0.20013 0.470288,-0.21013 0.67041,-0.04 z m 1.410864,1.25077 v 0 c 0.200122,0.1701 0.220134,0.47028 0.05003,0.67041 -0.170104,0.20012 -0.470288,0.23014 -0.660404,0.06 -0.200122,-0.18011 -0.230141,-0.47028 -0.06004,-0.67041 0.170104,-0.20012 0.470288,-0.23014 0.670411,-0.06 z m 1.430876,1.22074 v 0 c 0.21013,0.1601 0.24015,0.46028 0.07,0.67041 -0.15009,0.20013 -0.450274,0.23014 -0.670408,0.0701 -0.190117,-0.17011 -0.220135,-0.47029 -0.07004,-0.66041 0.170104,-0.22013 0.470288,-0.25015 0.670408,-0.08 z m 1.4609,1.20074 v 0 c 0.22013,0.1701 0.24014,0.47029 0.07,0.67041 -0.15009,0.21013 -0.45028,0.24015 -0.66041,0.07 -0.20012,-0.1601 -0.23014,-0.45027 -0.07,-0.67041 0.17011,-0.20012 0.46028,-0.23014 0.66041,-0.07 z m 1.8111,-1.64101 2.25138,5.94364 -6.09373,-1.75107 z"
         style="fill:none;stroke:#000000;stroke-width:0.27016529px;stroke-linecap:round;stroke-linejoin:round;stroke-miterlimit:4;stroke-dasharray:none;stroke-opacity:1"
         inkscape:connector-curvature="0" />
      <g
         id="g4003"
         clip-path="url(#clipEmfPath12-0)">
        <text
           id="text4001"
           y="0"
           x="0"
           transform="translate(213.57067,75.566233)"
           style="font-style:normal;font-variant:normal;font-weight:400;font-size:12px;line-height:125%;font-family:Arial;text-align:start;letter-spacing:0px;word-spacing:0px;text-anchor:start;fill:#000000;fill-opacity:1;stroke:none"
           xml:space="preserve"><tspan
             id="tspan3999"
             y="0"
             x="0"
             sodipodi:role="line"><tspan
               id="tspan3993"
               style="font-style:normal;font-variant:normal;font-weight:400;font-size:12px;font-family:Arial;fill:#000000"
               dy="0"
               dx="0">Set</tspan><tspan
               id="tspan3995"
               style="font-style:normal;font-variant:normal;font-weight:400;font-size:12px;font-family:Arial;fill:#000000"
               dy="0"
               dx="0"> timeout value</tspan><tspan
               id="tspan3997"
               style="font-style:normal;font-variant:normal;font-weight:400;font-size:16px;font-family:'Times New Roman';fill:#000000"
               dy="0"
               dx="0"> </tspan></tspan></text>
      </g>
      <g
         id="g4013"
         clip-path="url(#clipEmfPath13-5)">
        <text
           id="text4011"
           y="0"
           x="0"
           transform="translate(90.135146,15.689599)"
           style="font-style:normal;font-variant:normal;font-weight:400;font-size:17.3125px;line-height:125%;font-family:Arial;text-align:start;letter-spacing:0px;word-spacing:0px;text-anchor:start;fill:#000000;fill-opacity:1;stroke:none"
           xml:space="preserve"><tspan
             id="tspan4009"
             y="0"
             x="0"
             sodipodi:role="line"><tspan
               id="tspan4005"
               style="font-style:normal;font-variant:normal;font-weight:400;font-size:17.3125px;font-family:Arial;fill:#000000"
               dy="0"
               dx="0">server</tspan><tspan
               id="tspan4007"
               style="font-style:normal;font-variant:normal;font-weight:400;font-size:16px;font-family:'Times New Roman';fill:#000000"
               dy="0"
               dx="0"> </tspan></tspan></text>
      </g>
      <g
         id="g4023"
         clip-path="url(#clipEmfPath14-6)">
        <text
           id="text4021"
           y="0"
           x="0"
           transform="translate(377.03067,14.408816)"
           style="font-style:normal;font-variant:normal;font-weight:400;font-size:16px;line-height:125%;font-family:Arial;text-align:start;letter-spacing:0px;word-spacing:0px;text-anchor:start;fill:#000000;fill-opacity:1;stroke:none"
           xml:space="preserve"><tspan
             id="tspan4019"
             y="0"
             x="0"
             sodipodi:role="line"><tspan
               id="tspan4015"
               style="font-style:normal;font-variant:normal;font-weight:400;font-size:16px;font-family:Arial;fill:#000000"
               dy="0"
               dx="0">client</tspan><tspan
               id="tspan4017"
               style="font-style:normal;font-variant:normal;font-weight:400;font-size:16px;font-family:Arial;fill:#000000"
               dy="0"
               dx="0"> </tspan></tspan></text>
      </g>
    </g>
  </g>
</svg>
