<svg xmlns:inkscape="http://www.inkscape.org/namespaces/inkscape" xmlns:sodipodi="http://sodipodi.sourceforge.net/DTD/sodipodi-0.dtd" xmlns="http://www.w3.org/2000/svg" xmlns:svg="http://www.w3.org/2000/svg" xmlns:rdf="http://www.w3.org/1999/02/22-rdf-syntax-ns#" xmlns:cc="http://creativecommons.org/ns#" xmlns:dc="http://purl.org/dc/elements/1.1/" inkscape:version="1.0 (4035a4fb49, 2020-05-01)" id="svg8" version="1.1" viewBox="0 0 151.01202 168.95578" height="638.573" width="570.75409">
  <defs id="defs2">
    <clipPath id="clipEmfPath1">
      <path d="M 0,0 H 604.11387 V 218.10781 H 0 Z" id="path10" />
    </clipPath>
    <clipPath id="clipEmfPath2">
      <path d="M 5.5957031,0 V 17.988281 H 24.857422 V 0 Z" id="path13" />
    </clipPath>
    <clipPath id="clipEmfPath3">
      <path d="m 24.857422,0 v 17.988281 h 19.18164 V 0 Z" id="path16" />
    </clipPath>
    <clipPath id="clipEmfPath4">
      <path d="M 44.119141,0 V 17.988281 H 64.740234 V 0 Z" id="path19" />
    </clipPath>
    <clipPath id="clipEmfPath5">
      <path d="M 64.740234,0 V 17.988281 H 84.001953 V 0 Z" id="path22" />
    </clipPath>
    <clipPath id="clipEmfPath6">
      <path d="M 84.001953,0 V 17.988281 H 103.26367 V 0 Z" id="path25" />
    </clipPath>
    <clipPath id="clipEmfPath7">
      <path d="m 103.26367,0 v 17.988281 h 19.18164 V 0 Z" id="path28" />
    </clipPath>
    <clipPath id="clipEmfPath8">
      <path d="m 122.44531,0 v 17.988281 h 19.26172 V 0 Z" id="path31" />
    </clipPath>
    <clipPath id="clipEmfPath9">
      <path d="m 141.70703,0 v 17.988281 h 19.26172 V 0 Z" id="path34" />
    </clipPath>
    <clipPath id="clipEmfPath10">
      <path d="m 160.96875,0 v 17.988281 h 19.26172 V 0 Z" id="path37" />
    </clipPath>
    <clipPath id="clipEmfPath11">
      <path d="m 180.23047,0 v 17.988281 h 19.26172 V 0 Z" id="path40" />
    </clipPath>
    <clipPath id="clipEmfPath12">
      <path d="m 199.49219,0 v 17.988281 h 19.26367 V 0 Z" id="path43" />
    </clipPath>
    <clipPath id="clipEmfPath13">
      <path d="M 218.75586,0 V 17.988281 H 237.9375 V 0 Z" id="path46" />
    </clipPath>
    <clipPath id="clipEmfPath14">
      <path d="m 237.9375,0 v 17.988281 h 19.26172 V 0 Z" id="path49" />
    </clipPath>
    <clipPath id="clipEmfPath15">
      <path d="m 257.19922,0 v 17.988281 h 19.26172 V 0 Z" id="path52" />
    </clipPath>
    <clipPath id="clipEmfPath16">
      <path d="m 276.46094,0 v 17.988281 h 19.26172 V 0 Z" id="path55" />
    </clipPath>
    <clipPath id="clipEmfPath17">
      <path d="m 295.72266,0 v 17.988281 h 19.26172 V 0 Z" id="path58" />
    </clipPath>
    <clipPath id="clipEmfPath18">
      <path d="m 314.98438,0 v 17.988281 h 19.26171 V 0 Z" id="path61" />
    </clipPath>
    <clipPath id="clipEmfPath19">
      <path d="m 334.24609,0 v 17.988281 h 19.1836 V 0 Z" id="path64" />
    </clipPath>
    <clipPath id="clipEmfPath20">
      <path d="m 353.42969,0 v 17.988281 h 19.26172 V 0 Z" id="path67" />
    </clipPath>
    <clipPath id="clipEmfPath21">
      <path d="m 372.69141,0 v 17.988281 h 19.26171 V 0 Z" id="path70" />
    </clipPath>
    <clipPath id="clipEmfPath22">
      <path d="m 391.95312,0 v 17.988281 h 19.26172 V 0 Z" id="path73" />
    </clipPath>
    <clipPath id="clipEmfPath23">
      <path d="m 411.21484,0 v 17.988281 h 19.26172 V 0 Z" id="path76" />
    </clipPath>
    <clipPath id="clipEmfPath24">
      <path d="M 430.47656,0 V 17.988281 H 449.6582 V 0 Z" id="path79" />
    </clipPath>
    <clipPath id="clipEmfPath25">
      <path d="m 449.73828,0 v 17.988281 h 19.18164 V 0 Z" id="path82" />
    </clipPath>
    <clipPath id="clipEmfPath26">
      <path d="m 468.91992,0 v 17.988281 h 19.26172 V 0 Z" id="path85" />
    </clipPath>
    <clipPath id="clipEmfPath27">
      <path d="m 488.18164,0 v 17.988281 h 19.26367 V 0 Z" id="path88" />
    </clipPath>
    <clipPath id="clipEmfPath28">
      <path d="m 507.44531,0 v 17.988281 h 19.26172 V 0 Z" id="path91" />
    </clipPath>
    <clipPath id="clipEmfPath29">
      <path d="m 526.70703,0 v 17.988281 h 19.26172 V 0 Z" id="path94" />
    </clipPath>
    <clipPath id="clipEmfPath30">
      <path d="m 545.96875,0 v 17.988281 h 19.26172 V 0 Z" id="path97" />
    </clipPath>
    <clipPath id="clipEmfPath31">
      <path d="m 565.23047,0 v 17.988281 h 19.18164 V 0 Z" id="path100" />
    </clipPath>
    <clipPath id="clipEmfPath32">
      <path d="m 584.41211,0 v 17.988281 h 19.26172 V 0 Z" id="path103" />
    </clipPath>
    <clipPath id="clipEmfPath33">
      <path d="m 603.67383,0 v 17.988281 h 0.43945 V 0 Z" id="path106" />
    </clipPath>
    <clipPath id="clipEmfPath34">
      <path d="M 5.5957031,17.988281 V 36.935547 H 24.857422 V 17.988281 Z" id="path109" />
    </clipPath>
    <clipPath id="clipEmfPath35">
      <path d="m 24.857422,17.988281 v 18.947266 h 19.18164 V 17.988281 Z" id="path112" />
    </clipPath>
    <clipPath id="clipEmfPath36">
      <path d="M 44.119141,17.988281 V 36.935547 H 64.740234 V 17.988281 Z" id="path115" />
    </clipPath>
    <clipPath id="clipEmfPath37">
      <path d="M 64.740234,17.988281 V 36.935547 H 84.001953 V 17.988281 Z" id="path118" />
    </clipPath>
    <clipPath id="clipEmfPath38">
      <path d="M 84.001953,17.988281 V 36.935547 H 103.26367 V 17.988281 Z" id="path121" />
    </clipPath>
    <clipPath id="clipEmfPath39">
      <path d="m 103.26367,17.988281 v 18.947266 h 19.18164 V 17.988281 Z" id="path124" />
    </clipPath>
    <clipPath id="clipEmfPath40">
      <path d="m 122.44531,17.988281 v 18.947266 h 19.26172 V 17.988281 Z" id="path127" />
    </clipPath>
    <clipPath id="clipEmfPath41">
      <path d="m 141.70703,17.988281 v 18.947266 h 19.26172 V 17.988281 Z" id="path130" />
    </clipPath>
    <clipPath id="clipEmfPath42">
      <path d="m 160.96875,17.988281 v 18.947266 h 19.26172 V 17.988281 Z" id="path133" />
    </clipPath>
    <clipPath id="clipEmfPath43">
      <path d="m 180.23047,17.988281 v 18.947266 h 19.26172 V 17.988281 Z" id="path136" />
    </clipPath>
    <clipPath id="clipEmfPath44">
      <path d="m 199.49219,17.988281 v 18.947266 h 19.26367 V 17.988281 Z" id="path139" />
    </clipPath>
    <clipPath id="clipEmfPath45">
      <path d="M 218.75586,17.988281 V 36.935547 H 237.9375 V 17.988281 Z" id="path142" />
    </clipPath>
    <clipPath id="clipEmfPath46">
      <path d="m 237.9375,17.988281 v 18.947266 h 19.26172 V 17.988281 Z" id="path145" />
    </clipPath>
    <clipPath id="clipEmfPath47">
      <path d="m 257.19922,17.988281 v 18.947266 h 19.26172 V 17.988281 Z" id="path148" />
    </clipPath>
    <clipPath id="clipEmfPath48">
      <path d="m 276.46094,17.988281 v 18.947266 h 19.26172 V 17.988281 Z" id="path151" />
    </clipPath>
    <clipPath id="clipEmfPath49">
      <path d="m 295.72266,17.988281 v 18.947266 h 19.26172 V 17.988281 Z" id="path154" />
    </clipPath>
    <clipPath id="clipEmfPath50">
      <path d="m 314.98438,17.988281 v 18.947266 h 19.26171 V 17.988281 Z" id="path157" />
    </clipPath>
    <clipPath id="clipEmfPath51">
      <path d="m 334.24609,17.988281 v 18.947266 h 19.1836 V 17.988281 Z" id="path160" />
    </clipPath>
    <clipPath id="clipEmfPath52">
      <path d="m 353.42969,17.988281 v 18.947266 h 19.26172 V 17.988281 Z" id="path163" />
    </clipPath>
    <clipPath id="clipEmfPath53">
      <path d="m 372.69141,17.988281 v 18.947266 h 19.26171 V 17.988281 Z" id="path166" />
    </clipPath>
    <clipPath id="clipEmfPath54">
      <path d="m 391.95312,17.988281 v 18.947266 h 19.26172 V 17.988281 Z" id="path169" />
    </clipPath>
    <clipPath id="clipEmfPath55">
      <path d="m 411.21484,17.988281 v 18.947266 h 19.26172 V 17.988281 Z" id="path172" />
    </clipPath>
    <clipPath id="clipEmfPath56">
      <path d="M 430.47656,17.988281 V 36.935547 H 449.6582 V 17.988281 Z" id="path175" />
    </clipPath>
    <clipPath id="clipEmfPath57">
      <path d="m 449.73828,17.988281 v 18.947266 h 19.18164 V 17.988281 Z" id="path178" />
    </clipPath>
    <clipPath id="clipEmfPath58">
      <path d="m 468.91992,17.988281 v 18.947266 h 19.26172 V 17.988281 Z" id="path181" />
    </clipPath>
    <clipPath id="clipEmfPath59">
      <path d="m 488.18164,17.988281 v 18.947266 h 19.26367 V 17.988281 Z" id="path184" />
    </clipPath>
    <clipPath id="clipEmfPath60">
      <path d="m 507.44531,17.988281 v 18.947266 h 19.26172 V 17.988281 Z" id="path187" />
    </clipPath>
    <clipPath id="clipEmfPath61">
      <path d="m 526.70703,17.988281 v 18.947266 h 19.26172 V 17.988281 Z" id="path190" />
    </clipPath>
    <clipPath id="clipEmfPath62">
      <path d="m 545.96875,17.988281 v 18.947266 h 19.26172 V 17.988281 Z" id="path193" />
    </clipPath>
    <clipPath id="clipEmfPath63">
      <path d="m 565.23047,17.988281 v 18.947266 h 19.18164 V 17.988281 Z" id="path196" />
    </clipPath>
    <clipPath id="clipEmfPath64">
      <path d="m 584.41211,17.988281 v 18.947266 h 19.26172 V 17.988281 Z" id="path199" />
    </clipPath>
    <clipPath id="clipEmfPath65">
      <path d="m 603.67383,17.988281 v 18.947266 h 0.43945 V 17.988281 Z" id="path202" />
    </clipPath>
    <clipPath id="clipEmfPath66">
      <path d="M 6.234375,38.294922 V 57.322266 H 43.398438 V 38.294922 Z" id="path205" />
    </clipPath>
    <clipPath id="clipEmfPath67">
      <path d="M 44.119141,38.294922 V 57.322266 H 64.099609 V 38.294922 Z" id="path208" />
    </clipPath>
    <clipPath id="clipEmfPath68">
      <path d="M 64.740234,38.294922 V 57.322266 H 160.33008 V 38.294922 Z" id="path211" />
    </clipPath>
    <clipPath id="clipEmfPath69">
      <path d="M 160.96875,38.294922 V 57.322266 H 314.26562 V 38.294922 Z" id="path214" />
    </clipPath>
    <clipPath id="clipEmfPath70">
      <path d="m 314.98438,38.294922 v 19.027344 h 289.1289 V 38.294922 Z" id="path217" />
    </clipPath>
    <clipPath id="clipEmfPath71">
      <path d="M 6.234375,58.601562 V 77.628906 H 604.11328 V 58.601562 Z" id="path220" />
    </clipPath>
    <clipPath id="clipEmfPath72">
      <path d="M 6.234375,78.908203 V 96.896484 H 604.11328 V 78.908203 Z" id="path223" />
    </clipPath>
    <clipPath id="clipEmfPath73">
      <path d="M 6.234375,97.617188 V 116.56445 H 604.11328 V 97.617188 Z" id="path226" />
    </clipPath>
    <clipPath id="clipEmfPath74">
      <path d="m 6.234375,117.92383 v 18.94726 H 604.11328 v -18.94726 z" id="path229" />
    </clipPath>
    <clipPath id="clipEmfPath75">
      <path d="m 6.234375,138.23047 v 19.02734 H 604.11328 v -19.02734 z" id="path232" />
    </clipPath>
    <clipPath id="clipEmfPath76">
      <path d="m 6.234375,158.53711 v 19.02734 H 604.11328 v -19.02734 z" id="path235" />
    </clipPath>
    <clipPath id="clipEmfPath77">
      <path d="m 6.234375,178.92383 v 19.02929 H 604.11328 v -19.02929 z" id="path238" />
    </clipPath>
    <pattern id="EMFhbasepattern" patternUnits="userSpaceOnUse" width="6" height="6" x="0" y="0" />
    <clipPath id="clipEmfPath1-7">
      <path id="path10-4" d="M 0,0 H 604.11387 V 218.10781 H 0 Z" />
    </clipPath>
    <clipPath id="clipPath2229">
      <path id="path2227" d="M 0,0 H 604.11387 V 218.10781 H 0 Z" />
    </clipPath>
    <clipPath id="clipPath2233">
      <path id="path2231" d="M 0,0 H 604.11387 V 218.10781 H 0 Z" />
    </clipPath>
    <clipPath id="clipPath2237">
      <path id="path2235" d="M 0,0 H 604.11387 V 218.10781 H 0 Z" />
    </clipPath>
    <clipPath id="clipPath2241">
      <path id="path2239" d="M 0,0 H 604.11387 V 218.10781 H 0 Z" />
    </clipPath>
    <clipPath id="clipPath2245">
      <path id="path2243" d="M 0,0 H 604.11387 V 218.10781 H 0 Z" />
    </clipPath>
    <clipPath id="clipPath2249">
      <path id="path2247" d="M 0,0 H 604.11387 V 218.10781 H 0 Z" />
    </clipPath>
    <clipPath id="clipPath2253">
      <path id="path2251" d="M 0,0 H 604.11387 V 218.10781 H 0 Z" />
    </clipPath>
    <clipPath id="clipPath2257">
      <path id="path2255" d="M 0,0 H 604.11387 V 218.10781 H 0 Z" />
    </clipPath>
    <clipPath id="clipPath2261">
      <path id="path2259" d="M 0,0 H 604.11387 V 218.10781 H 0 Z" />
    </clipPath>
    <clipPath id="clipPath2265">
      <path id="path2263" d="M 0,0 H 604.11387 V 218.10781 H 0 Z" />
    </clipPath>
    <clipPath id="clipPath2269">
      <path id="path2267" d="M 0,0 H 604.11387 V 218.10781 H 0 Z" />
    </clipPath>
    <clipPath id="clipPath2273">
      <path id="path2271" d="M 0,0 H 604.11387 V 218.10781 H 0 Z" />
    </clipPath>
    <clipPath id="clipPath2277">
      <path id="path2275" d="M 0,0 H 604.11387 V 218.10781 H 0 Z" />
    </clipPath>
    <clipPath id="clipPath2281">
      <path id="path2279" d="M 0,0 H 604.11387 V 218.10781 H 0 Z" />
    </clipPath>
    <clipPath id="clipPath2285">
      <path id="path2283" d="M 0,0 H 604.11387 V 218.10781 H 0 Z" />
    </clipPath>
    <clipPath id="clipPath2289">
      <path id="path2287" d="M 0,0 H 604.11387 V 218.10781 H 0 Z" />
    </clipPath>
    <clipPath id="clipPath2293">
      <path id="path2291" d="M 0,0 H 604.11387 V 218.10781 H 0 Z" />
    </clipPath>
    <clipPath id="clipPath2297">
      <path id="path2295" d="M 0,0 H 604.11387 V 218.10781 H 0 Z" />
    </clipPath>
    <clipPath id="clipPath2301">
      <path id="path2299" d="M 0,0 H 604.11387 V 218.10781 H 0 Z" />
    </clipPath>
    <clipPath id="clipEmfPath1-0">
      <path d="m 32.300424,273.03452 h 96.341616 v 54.36705 H 32.300424 Z" id="path2469" />
    </clipPath>
    <clipPath id="clipEmfPath2-3">
      <path d="M 88.906118,173.81466 H 116.3295 v 36.298 H 88.906118 Z" id="path2472" />
    </clipPath>
    <clipPath id="clipEmfPath3-6">
      <path d="M 70.677165,27.183525 H 144.39249 V 63.481526 H 70.677165 Z" id="path2475" />
    </clipPath>
    <clipPath id="clipEmfPath4-7">
      <path d="m 501.61599,31.181102 h 64.5209 v 36.298002 h -64.5209 z" id="path2478" />
    </clipPath>
    <clipPath id="clipEmfPath5-9">
      <path d="m 18.62871,123.44518 h 100.73895 v 27.18353 H 18.62871 Z" id="path2481" />
    </clipPath>
    <clipPath id="clipEmfPath6-1">
      <path d="m 166.21926,158.46396 h 335.39673 v 27.18353 H 166.21926 Z" id="path2484" />
    </clipPath>
    <clipPath id="clipEmfPath7-6">
      <path d="m 166.21926,244.17202 h 327.32162 v 27.18352 H 166.21926 Z" id="path2487" />
    </clipPath>
    <clipPath id="clipEmfPath8-8">
      <path d="m 219.14718,296.14052 h 186.92671 v 25.5845 H 219.14718 Z" id="path2490" />
    </clipPath>
    <clipPath id="clipEmfPath9-2">
      <path d="m 281.82919,580.20836 h 94.82254 v 27.18352 h -94.82254 z" id="path2493" />
    </clipPath>
    <clipPath id="clipEmfPath10-3">
      <path d="m 292.14294,392.48213 h 60.76318 v 27.18353 h -60.76318 z" id="path2496" />
    </clipPath>
    <clipPath id="clipEmfPath11-7">
      <path d="m 253.92611,205.79528 h 80.27135 v 25.58449 h -80.27135 z" id="path2499" />
    </clipPath>
    <clipPath id="clipEmfPath12-7">
      <path d="m 303.17626,446.04967 h 51.88855 v 27.18352 h -51.88855 z" id="path2502" />
    </clipPath>
    <clipPath id="clipEmfPath13-5">
      <path d="m 270.95578,491.22229 h 132.31981 v 25.58449 H 270.95578 Z" id="path2505" />
    </clipPath>
    <clipPath id="clipEmfPath14-4">
      <path d="m 270.95578,428.22047 h 102.33798 v 25.50455 H 270.95578 Z" id="path2508" />
    </clipPath>
    <clipPath id="clipEmfPath15-3">
      <path d="m 262.32102,539.59297 h 62.28225 v 27.18353 h -62.28225 z" id="path2511" />
    </clipPath>
    <clipPath id="clipEmfPath16-0">
      <path d="m 395.92005,524.80194 h 96.34161 v 25.58449 h -96.34161 z" id="path2514" />
    </clipPath>
    <clipPath id="clipEmfPath17-5">
      <path d="M 22.306481,479.94912 H 133.43913 V 561.4997 H 22.306481 Z" id="path2517" />
    </clipPath>
    <clipPath id="clipEmfPath18-7">
      <path d="M 155.106,70.677165 H 315.88855 V 97.86069 H 155.106 Z" id="path2520" />
    </clipPath>
    <clipPath id="clipEmfPath19-1">
      <path d="m 254.96548,127.12296 h 189.56511 v 25.58449 H 254.96548 Z" id="path2523" />
    </clipPath>
    <clipPath id="clipEmfPath20-3">
      <path d="m 270.95578,346.11024 h 190.28468 v 27.18352 H 270.95578 Z" id="path2526" />
    </clipPath>
    <pattern id="EMFhbasepattern-9" patternUnits="userSpaceOnUse" width="6" height="6" x="0" y="0" />
  </defs>
  <!-- sodipodi ignored -->
  <!-- metadata ignored -->
    <!-- rdf ignored -->
      <!-- cc ignored -->
        <!-- dc ignored -->image/svg+xml
        <!-- dc ignored -->
        <!-- dc ignored -->
      
    
  
  <g transform="translate(-22.578812,-7.9372931)" id="layer1">
    <text style="font-style: normal; font-variant: normal; font-weight: 400; font-size: 3.86953px; line-height: 125%; font-family: Calibri; text-align: start; letter-spacing: 0px; word-spacing: 0px; text-anchor: start; fill: #000000; fill-opacity: 1; stroke: none; stroke-width: 0.264583" x="22.578812" y="7.9372931" id="text2536"><tspan style="stroke-width: 0.264583" x="22.578812" y="7.9372931" id="tspan2534"><tspan dx="0" dy="0" style="font-style: normal; font-variant: normal; font-weight: 400; font-size: 3.86953px; font-family: Calibri; fill: #000000; stroke-width: 0.264583" id="tspan2532"> </tspan></tspan></text>
    <path style="fill: #d8d8d8; fill-opacity: 1; fill-rule: evenodd; stroke: none; stroke-width: 0.264583" d="M 24.033138,20.936332 V 62.73633 H 173.59083 V 20.936332 Z" id="path2538" />
    <path style="fill: #d8d8d8; fill-opacity: 1; fill-rule: evenodd; stroke: none; stroke-width: 0.264583" d="M 23.768715,93.938254 V 176.89306 H 173.34227 V 93.938254 Z" id="path2540" />
    <path style="fill: #d8d8d8; fill-opacity: 1; fill-rule: evenodd; stroke: none; stroke-width: 0.264583" d="M 23.488427,66.861333 V 89.495947 H 173.59083 V 66.861333 Z" id="path2542" />
    <g transform="matrix(0.26458333,0,0,0.26458333,22.578812,4.2565241)" clip-path="url(#clipEmfPath1-0)" id="g2558">
      <text style="font-style: normal; font-variant: normal; font-weight: 700; font-size: 13.375px; line-height: 205.035%; font-family: Arial; text-align: start; letter-spacing: 0px; word-spacing: 0px; text-anchor: start; fill: #000000; fill-opacity: 1; stroke: none" transform="translate(40.535433,285.50696)" x="0" y="0" id="text2556"><tspan x="0" y="0" id="tspan2548"><tspan dx="0" dy="0" style="font-style: normal; font-variant: normal; font-weight: 700; font-size: 13.375px; font-family: Arial; fill: #000000" id="tspan2544">HTTP</tspan><tspan dx="0" dy="0" style="font-style: normal; font-variant: normal; font-weight: 700; font-size: 13.375px; font-family: Arial; fill: #000000" id="tspan2546"> </tspan></tspan><tspan x="0" y="27.423431" id="tspan2554"><tspan dx="0" dy="0" style="font-style: normal; font-variant: normal; font-weight: 700; font-size: 13.375px; font-family: Arial; fill: #000000" id="tspan2550">(Handshake)</tspan><tspan dx="-0.318048" dy="0" style="font-style: normal; font-variant: normal; font-weight: 700; font-size: 13.375px; font-family: Arial; fill: #000000" id="tspan2552"> </tspan></tspan></text>
    </g>
    <g transform="matrix(0.26458333,0,0,0.26458333,22.578812,4.2565241)" clip-path="url(#clipEmfPath2-3)" id="g2566">
      <text style="font-style: normal; font-variant: normal; font-weight: 400; font-size: 20.625px; line-height: 125%; font-family: Arial; text-align: start; letter-spacing: 0px; word-spacing: 0px; text-anchor: start; fill: #000000; fill-opacity: 1; stroke: none" transform="translate(97.061175,193.16293)" x="0" y="0" id="text2564"><tspan x="0" y="0" id="tspan2562"><tspan dx="0" dy="0" style="font-style: normal; font-variant: normal; font-weight: 400; font-size: 20.625px; font-family: Arial; fill: #000000" id="tspan2560"> </tspan></tspan></text>
    </g>
    <g transform="matrix(0.26458333,0,0,0.26458333,22.578812,4.2565241)" clip-path="url(#clipEmfPath3-6)" id="g2576">
      <text style="font-style: normal; font-variant: normal; font-weight: 400; font-size: 20.625px; line-height: 125%; font-family: Arial; text-align: start; letter-spacing: 0px; word-spacing: 0px; text-anchor: start; fill: #000000; fill-opacity: 1; stroke: none" transform="translate(78.832223,46.531799)" x="0" y="0" id="text2574"><tspan x="0" y="0" id="tspan2572"><tspan dx="0" dy="0" style="font-style: normal; font-variant: normal; font-weight: 400; font-size: 20.625px; font-family: Arial; fill: #000000" id="tspan2568">server</tspan><tspan dx="0" dy="0" style="font-style: normal; font-variant: normal; font-weight: 400; font-size: 20.625px; font-family: Arial; fill: #000000" id="tspan2570"> </tspan></tspan></text>
    </g>
    <g transform="matrix(0.26458333,0,0,0.26458333,22.578812,4.2565241)" clip-path="url(#clipEmfPath4-7)" id="g2586">
      <text style="font-style: normal; font-variant: normal; font-weight: 400; font-size: 20.625px; line-height: 125%; font-family: Arial; text-align: start; letter-spacing: 0px; word-spacing: 0px; text-anchor: start; fill: #000000; fill-opacity: 1; stroke: none" transform="translate(509.77105,50.529376)" x="0" y="0" id="text2584"><tspan x="0" y="0" id="tspan2582"><tspan dx="0" dy="0" style="font-style: normal; font-variant: normal; font-weight: 400; font-size: 20.625px; font-family: Arial; fill: #000000" id="tspan2578">client</tspan><tspan dx="0" dy="0" style="font-style: normal; font-variant: normal; font-weight: 400; font-size: 20.625px; font-family: Arial; fill: #000000" id="tspan2580"> </tspan></tspan></text>
    </g>
    <path style="fill: none; stroke: #000000; stroke-width: 1.58654px; stroke-linecap: butt; stroke-linejoin: round; stroke-miterlimit: 4; stroke-dasharray: none; stroke-opacity: 1" d="M 62.956216,9.3228703 64.294198,172.73633" id="path2588" />
    <path style="fill: none; stroke: #000000; stroke-width: 1.58654px; stroke-linecap: butt; stroke-linejoin: round; stroke-miterlimit: 4; stroke-dasharray: none; stroke-opacity: 1" d="m 155.29275,11.787293 0.35433,160.473077" id="path2590" />
    <path style="fill: #000000; fill-opacity: 1; fill-rule: nonzero; stroke: #000000; stroke-width: 0.0211538px; stroke-linecap: butt; stroke-linejoin: bevel; stroke-miterlimit: 4; stroke-dasharray: none; stroke-opacity: 1" d="m 66.277369,52.820467 90.020191,0.01586 v 0.793269 l -90.020191,-0.01586 z m 0.396634,1.586537 -2.379805,-1.189903 2.385094,-1.189903 z" id="path2592" />
    <g transform="matrix(0.26458333,0,0,0.26458333,22.578812,4.2565241)" clip-path="url(#clipEmfPath5-9)" id="g2602">
      <text style="font-style: normal; font-variant: normal; font-weight: 700; font-size: 13.375px; line-height: 125%; font-family: Arial; text-align: start; letter-spacing: 0px; word-spacing: 0px; text-anchor: start; fill: #000000; fill-opacity: 1; stroke: none" transform="translate(26.783767,136.15748)" x="0" y="0" id="text2600"><tspan x="0" y="0" id="tspan2598"><tspan dx="0" dy="0" style="font-style: normal; font-variant: normal; font-weight: 700; font-size: 13.375px; font-family: Arial; fill: #000000" id="tspan2594">Stream setup</tspan><tspan dx="-0.30780199" dy="0" style="font-style: normal; font-variant: normal; font-weight: 700; font-size: 13.375px; font-family: Arial; fill: #000000" id="tspan2596"> </tspan></tspan></text>
    </g>
    <g transform="matrix(0.26458333,0,0,0.26458333,22.578812,4.2565241)" clip-path="url(#clipEmfPath6-1)" id="g2616">
      <text style="font-style: normal; font-variant: normal; font-weight: 700; font-size: 13.375px; line-height: 125%; font-family: Arial; text-align: start; letter-spacing: 0px; word-spacing: 0px; text-anchor: start; fill: #000000; fill-opacity: 1; stroke: none" transform="translate(174.37432,171.17626)" x="0" y="0" id="text2614"><tspan x="0" y="0" id="tspan2612"><tspan dx="0" dy="0" style="font-style: normal; font-variant: normal; font-weight: 700; font-size: 13.375px; font-family: Arial; fill: #000000" id="tspan2604">GetStreamUri (Stream Configuration,Profile </tspan><tspan dx="-1.065367" dy="0" style="font-style: normal; font-variant: normal; font-weight: 700; font-size: 13.375px; font-family: Arial; fill: #000000" id="tspan2606">token</tspan><tspan dx="0" dy="0" style="font-style: normal; font-variant: normal; font-weight: 700; font-size: 13.375px; font-family: Arial; fill: #000000" id="tspan2608">)</tspan><tspan dx="0" dy="0" style="font-style: normal; font-variant: normal; font-weight: 700; font-size: 13.375px; font-family: Arial; fill: #000000" id="tspan2610"> </tspan></tspan></text>
    </g>
    <path style="fill: #000000; fill-opacity: 1; fill-rule: nonzero; stroke: #000000; stroke-width: 0.0211538px; stroke-linecap: butt; stroke-linejoin: bevel; stroke-miterlimit: 4; stroke-dasharray: none; stroke-opacity: 1" d="m 67.255735,74.883928 89.359135,0.01586 v 1.057693 l -89.359135,-0.01586 z m 0.528846,2.115383 -3.173076,-1.591825 3.178365,-1.581251 z" id="path2618" />
    <g transform="matrix(0.26458333,0,0,0.26458333,22.578812,4.2565241)" clip-path="url(#clipEmfPath7-6)" id="g2638">
      <text style="font-style: normal; font-variant: normal; font-weight: 700; font-size: 13.375px; line-height: 125%; font-family: Arial; text-align: start; letter-spacing: 0px; word-spacing: 0px; text-anchor: start; fill: #000000; fill-opacity: 1; stroke: none" transform="translate(174.37432,256.88431)" x="0" y="0" id="text2636"><tspan x="0" y="0" id="tspan2634"><tspan dx="0" dy="0" style="font-style: normal; font-variant: normal; font-weight: 700; font-size: 13.375px; font-family: Arial; fill: #000000" id="tspan2620">HTTP GET (Upgrade: WebSo</tspan><tspan dx="0" dy="0" style="font-style: normal; font-variant: normal; font-weight: 700; font-size: 13.375px; font-family: Arial; fill: #000000" id="tspan2622">c</tspan><tspan dx="0" dy="0" style="font-style: normal; font-variant: normal; font-weight: 700; font-size: 13.375px; font-family: Arial; fill: #000000" id="tspan2624">k</tspan><tspan dx="0" dy="0" style="font-style: normal; font-variant: normal; font-weight: 700; font-size: 13.375px; font-family: Arial; fill: #000000" id="tspan2626">et)</tspan><tspan dx="0" dy="0" style="font-style: normal; font-variant: normal; font-weight: 700; font-size: 13.375px; font-family: Arial; fill: #000000" id="tspan2628"> </tspan><tspan dx="0" dy="0" style="font-style: normal; font-variant: normal; font-weight: 700; font-size: 13.375px; font-family: Arial; fill: #000000" id="tspan2630">WebSocketURI</tspan><tspan dx="0" dy="0" style="font-style: normal; font-variant: normal; font-weight: 700; font-size: 13.375px; font-family: Arial; fill: #000000" id="tspan2632"> </tspan></tspan></text>
    </g>
    <g transform="matrix(0.26458333,0,0,0.26458333,22.578812,4.2565241)" clip-path="url(#clipEmfPath8-8)" id="g2652">
      <text style="font-style: normal; font-variant: normal; font-weight: 400; font-size: 12px; line-height: 125%; font-family: Arial; text-align: start; letter-spacing: 0px; word-spacing: 0px; text-anchor: start; fill: #000000; fill-opacity: 1; stroke: none" transform="translate(227.30224,307.25379)" x="0" y="0" id="text2650"><tspan x="0" y="0" id="tspan2648"><tspan dx="0" dy="0" style="font-style: normal; font-variant: normal; font-weight: 400; font-size: 12px; font-family: Arial; fill: #000000" id="tspan2640">(</tspan><tspan dx="0" dy="0" style="font-style: normal; font-variant: normal; font-weight: 400; font-size: 12px; font-family: Arial; fill: #000000" id="tspan2642">HTTP 101 Switching Protocols</tspan><tspan dx="0" dy="0" style="font-style: normal; font-variant: normal; font-weight: 400; font-size: 12px; font-family: Arial; fill: #000000" id="tspan2644">)</tspan><tspan dx="0" dy="0" style="font-style: normal; font-variant: normal; font-weight: 400; font-size: 12px; font-family: Arial; fill: #000000" id="tspan2646"> </tspan></tspan></text>
    </g>
    <path style="fill: #000000; fill-opacity: 1; fill-rule: nonzero; stroke: #000000; stroke-width: 0.0211538px; stroke-linecap: butt; stroke-linejoin: bevel; stroke-miterlimit: 4; stroke-dasharray: none; stroke-opacity: 1" d="m 66.250926,151.08537 h 89.359134 v 1.05769 H 66.250926 Z m 0.528847,2.11538 -3.173077,-1.58654 3.173077,-1.58654 z" id="path2654" />
    <g transform="matrix(0.26458333,0,0,0.26458333,22.578812,4.2565241)" clip-path="url(#clipEmfPath9-2)" id="g2664">
      <text style="font-style: normal; font-variant: normal; font-weight: 700; font-size: 13.375px; line-height: 125%; font-family: Arial; text-align: start; letter-spacing: 0px; word-spacing: 0px; text-anchor: start; fill: #000000; fill-opacity: 1; stroke: none" transform="translate(289.98425,592.92065)" x="0" y="0" id="text2662"><tspan x="0" y="0" id="tspan2660"><tspan dx="0" dy="0" style="font-style: normal; font-variant: normal; font-weight: 700; font-size: 13.375px; font-family: Arial; fill: #000000" id="tspan2656">TEARDOWN</tspan><tspan dx="-0.32199001" dy="0" style="font-style: normal; font-variant: normal; font-weight: 700; font-size: 13.375px; font-family: Arial; fill: #000000" id="tspan2658"> </tspan></tspan></text>
    </g>
    <path style="fill: #000000; fill-opacity: 1; fill-rule: nonzero; stroke: #000000; stroke-width: 0.0211538px; stroke-linecap: butt; stroke-linejoin: bevel; stroke-miterlimit: 4; stroke-dasharray: none; stroke-opacity: 1" d="m 63.961024,79.744025 90.242306,0.02115 v 0.349039 l -90.242306,-0.01587 z m 89.887976,-0.862021 2.11539,1.057693 -2.11539,1.057694 z" id="path2666" />
    <g transform="matrix(0.26458333,0,0,0.26458333,22.578812,4.2565241)" clip-path="url(#clipEmfPath10-3)" id="g2676">
      <text style="font-style: normal; font-variant: normal; font-weight: 700; font-size: 13.375px; line-height: 125%; font-family: Arial; text-align: start; letter-spacing: 0px; word-spacing: 0px; text-anchor: start; fill: #000000; fill-opacity: 1; stroke: none" transform="translate(300.298,405.19443)" x="0" y="0" id="text2674"><tspan x="0" y="0" id="tspan2672"><tspan dx="0" dy="0" style="font-style: normal; font-variant: normal; font-weight: 700; font-size: 13.375px; font-family: Arial; fill: #000000" id="tspan2668">SETUP</tspan><tspan dx="0" dy="0" style="font-style: normal; font-variant: normal; font-weight: 700; font-size: 13.375px; font-family: Arial; fill: #000000" id="tspan2670"> </tspan></tspan></text>
    </g>
    <path style="fill: #000000; fill-opacity: 1; fill-rule: nonzero; stroke: #000000; stroke-width: 0.0211538px; stroke-linecap: butt; stroke-linejoin: bevel; stroke-miterlimit: 4; stroke-dasharray: none; stroke-opacity: 1" d="m 65.42064,134.157 0.756248,0.23798 -0.237979,0.75625 -0.756251,-0.23798 z m 1.512499,0.47067 0.75625,0.23798 -0.232693,0.75625 -0.761537,-0.23269 z m 1.517787,0.47597 0.756251,0.23798 -0.23798,0.75625 -0.75625,-0.23798 z m 1.512501,0.47067 0.756251,0.23798 -0.237982,0.75625 -0.756251,-0.23269 z m 1.512502,0.47596 0.756248,0.23798 -0.232691,0.75625 -0.761539,-0.23798 z m 1.517787,0.47596 0.756251,0.23269 -0.237982,0.75625 -0.756251,-0.23269 z m 1.512499,0.47067 0.75625,0.23799 -0.237979,0.75624 -0.756251,-0.23798 z m 1.512501,0.47597 0.756251,0.23269 -0.232693,0.75625 -0.76154,-0.23269 z m 1.512499,0.47067 0.761539,0.23798 -0.237979,0.75625 -0.756251,-0.23798 z m 1.51779,0.47596 0.75625,0.23269 -0.237982,0.76154 -0.75625,-0.23798 z m 1.512498,0.47068 0.756251,0.23797 -0.232693,0.75626 -0.761537,-0.23799 z m 1.512502,0.47595 0.761537,0.2327 -0.23798,0.76154 -0.756251,-0.23799 z m 1.517787,0.47068 0.756251,0.23798 -0.23798,0.75625 -0.75625,-0.23798 z m 1.512501,0.47596 0.756251,0.23269 -0.232693,0.76154 -0.76154,-0.23798 z m 1.512499,0.47067 0.76154,0.23798 -0.237983,0.75625 -0.756248,-0.23798 z m 1.51779,0.47597 0.756248,0.23269 -0.237979,0.76154 -0.756251,-0.23798 z m 1.512499,0.47067 0.75625,0.23798 -0.232693,0.75625 -0.761537,-0.23798 z m 1.512501,0.47596 0.761537,0.23798 -0.23798,0.75625 -0.75625,-0.23798 z m 1.517788,0.47067 0.75625,0.23798 -0.237982,0.75625 -0.756248,-0.23798 z m 1.512501,0.47596 0.756248,0.23799 -0.232691,0.75624 -0.761539,-0.23798 z m 1.512498,0.47068 0.76154,0.23798 -0.237982,0.75625 -0.756251,-0.23269 z m 1.517788,0.47596 0.75625,0.23798 -0.237979,0.75625 -0.756251,-0.23798 z m 1.512501,0.47067 0.756251,0.23798 -0.232693,0.75625 -0.761537,-0.23269 z m 1.512502,0.47596 0.76154,0.23798 -0.23798,0.75625 -0.75625,-0.23798 z m 1.51779,0.47068 0.75625,0.23798 -0.23799,0.75625 -0.75625,-0.2327 z m 1.51249,0.47596 0.75626,0.23798 -0.23269,0.75625 -0.76154,-0.23798 z m 1.51251,0.47067 0.76154,0.23798 -0.23799,0.75625 -0.75625,-0.23269 z m 1.51778,0.47596 0.75625,0.23798 -0.23798,0.75625 -0.75625,-0.23798 z m 1.5125,0.47596 0.75626,0.23269 -0.23799,0.75626 -0.75625,-0.23269 z m 1.5125,0.47068 0.76154,0.23798 -0.23798,0.75625 -0.75625,-0.23798 z m 1.51779,0.47596 0.75625,0.23269 -0.23798,0.76154 -0.75625,-0.23798 z m 1.5125,0.47067 0.75625,0.23798 -0.23798,0.75625 -0.75625,-0.23798 z m 1.5125,0.47596 0.76154,0.2327 -0.23798,0.76153 -0.75625,-0.23798 z m 1.51779,0.47068 0.75625,0.23798 -0.23798,0.75625 -0.75625,-0.23798 z m 1.5125,0.47596 0.75625,0.23269 -0.23798,0.76154 -0.75625,-0.23798 z m 1.5125,0.47067 0.76154,0.23798 -0.23798,0.75625 -0.75625,-0.23798 z m 1.51779,0.47596 0.75625,0.23269 -0.23798,0.76154 -0.75625,-0.23798 z m 1.5125,0.47068 0.75625,0.23798 -0.23798,0.75625 -0.75625,-0.23799 z m 1.5125,0.47596 0.76154,0.23798 -0.23798,0.75625 -0.75625,-0.23798 z m 1.51779,0.47067 0.75625,0.23798 -0.23798,0.75625 -0.75625,-0.23798 z m 1.5125,0.47596 0.75625,0.23798 -0.23798,0.75625 -0.75625,-0.23798 z m 1.5125,0.47067 0.76154,0.23798 -0.23799,0.75625 -0.75625,-0.23269 z m 1.51778,0.47597 0.75625,0.23798 -0.23797,0.75625 -0.75626,-0.23798 z m 1.51251,0.47067 0.75625,0.23798 -0.23799,0.75625 -0.75625,-0.23269 z m 1.51249,0.47596 0.76154,0.23798 -0.23798,0.75625 -0.75625,-0.23798 z m 1.51779,0.47067 0.75625,0.23799 -0.23798,0.75624 -0.75625,-0.23269 z m 1.5125,0.47596 0.75625,0.23799 -0.23798,0.75624 -0.75625,-0.23797 z m 1.5125,0.47068 0.76154,0.23798 -0.23798,0.75625 -0.75625,-0.23269 z m 1.51779,0.47596 0.75625,0.23798 -0.23798,0.75625 -0.75625,-0.23798 z m 1.5125,0.47596 0.75625,0.23269 -0.23798,0.75625 -0.75625,-0.23269 z m 1.5125,0.47068 0.76154,0.23798 -0.23798,0.75625 -0.75625,-0.23799 z m 1.51779,0.47596 0.75625,0.23269 -0.23798,0.76154 -0.75625,-0.23798 z m 1.5125,0.47067 0.75625,0.23798 -0.23798,0.75625 -0.75625,-0.23798 z m 1.5125,0.47596 0.76154,0.23269 -0.23798,0.76154 -0.75625,-0.23798 z m 1.51779,0.47067 0.75625,0.23798 -0.23798,0.75625 -0.75625,-0.23798 z m 1.5125,0.47597 0.75625,0.23269 -0.23798,0.76154 -0.75625,-0.23798 z m 1.5125,0.47067 0.76154,0.23798 -0.23798,0.75625 -0.75625,-0.23798 z m 1.51779,0.47596 0.75625,0.23269 -0.23798,0.76154 -0.75625,-0.23798 z m 1.5125,0.47067 0.75625,0.23798 -0.23798,0.75625 -0.75625,-0.23798 z m 1.5125,0.47596 0.76154,0.23799 -0.23798,0.75624 -0.75625,-0.23798 z" id="path2678" />
    <path style="fill: #000000; fill-opacity: 1; fill-rule: nonzero; stroke: #000000; stroke-width: 0.0211538px; stroke-linecap: butt; stroke-linejoin: bevel; stroke-miterlimit: 4; stroke-dasharray: none; stroke-opacity: 1" d="m 63.28939,57.426717 90.25817,0.02115 v 0.349039 l -90.25817,-0.01586 z m 89.90913,-0.86202 2.1101,1.057693 -2.11539,1.057693 z" id="path2680" />
    <g transform="matrix(0.26458333,0,0,0.26458333,22.578812,4.2565241)" clip-path="url(#clipEmfPath11-7)" id="g2694">
      <text style="font-style: normal; font-variant: normal; font-weight: 400; font-size: 12px; line-height: 125%; font-family: Arial; text-align: start; letter-spacing: 0px; word-spacing: 0px; text-anchor: start; fill: #000000; fill-opacity: 1; stroke: none" transform="translate(262.08116,216.90854)" x="0" y="0" id="text2692"><tspan x="0" y="0" id="tspan2690"><tspan dx="0" dy="0" style="font-style: normal; font-variant: normal; font-weight: 400; font-size: 12px; font-family: Arial; fill: #000000" id="tspan2682">(</tspan><tspan dx="0" dy="0" style="font-style: normal; font-variant: normal; font-weight: 400; font-size: 12px; font-family: Arial; fill: #000000" id="tspan2684">RTSP URI</tspan><tspan dx="0.47571999" dy="0" style="font-style: normal; font-variant: normal; font-weight: 400; font-size: 12px; font-family: Arial; fill: #000000" id="tspan2686">)</tspan><tspan dx="0" dy="0" style="font-style: normal; font-variant: normal; font-weight: 400; font-size: 12px; font-family: Arial; fill: #000000" id="tspan2688"> </tspan></tspan></text>
    </g>
    <path style="fill: #000000; fill-opacity: 1; fill-rule: nonzero; stroke: #000000; stroke-width: 0.0211538px; stroke-linecap: butt; stroke-linejoin: bevel; stroke-miterlimit: 4; stroke-dasharray: none; stroke-opacity: 1" d="m 66.589389,111.86614 89.375001,0.0159 v 1.05769 l -89.375001,-0.0159 z m 0.528847,2.11538 -3.173077,-1.58654 3.173077,-1.58654 z" id="path2696" />
    <path style="fill: #000000; fill-opacity: 1; fill-rule: nonzero; stroke: #000000; stroke-width: 0.0211538px; stroke-linecap: butt; stroke-linejoin: bevel; stroke-miterlimit: 4; stroke-dasharray: none; stroke-opacity: 1" d="m 63.606696,117.08056 90.242304,0.0212 v 0.34904 l -90.242304,-0.0159 z m 89.887984,-0.86202 2.11538,1.05769 -2.11538,1.05769 z" id="path2698" />
    <g transform="matrix(0.26458333,0,0,0.26458333,22.578812,4.2565241)" clip-path="url(#clipEmfPath12-7)" id="g2708">
      <text style="font-style: normal; font-variant: normal; font-weight: 700; font-size: 13.375px; line-height: 125%; font-family: Arial; text-align: start; letter-spacing: 0px; word-spacing: 0px; text-anchor: start; fill: #000000; fill-opacity: 1; stroke: none" transform="translate(311.33131,458.76196)" x="0" y="0" id="text2706"><tspan x="0" y="0" id="tspan2704"><tspan dx="0" dy="0" style="font-style: normal; font-variant: normal; font-weight: 700; font-size: 13.375px; font-family: Arial; fill: #000000" id="tspan2700">PLAY</tspan><tspan dx="1.055248" dy="0" style="font-style: normal; font-variant: normal; font-weight: 700; font-size: 13.375px; font-family: Arial; fill: #000000" id="tspan2702"> </tspan></tspan></text>
    </g>
    <path style="fill: #000000; fill-opacity: 1; fill-rule: nonzero; stroke: #000000; stroke-width: 0.0211538px; stroke-linecap: butt; stroke-linejoin: bevel; stroke-miterlimit: 4; stroke-dasharray: none; stroke-opacity: 1" d="m 66.250926,127.14979 89.359134,0.0159 v 1.0577 l -89.359134,-0.0159 z m 0.528847,2.11538 -3.173077,-1.58653 3.178366,-1.58654 z" id="path2710" />
    <path style="fill: #000000; fill-opacity: 1; fill-rule: nonzero; stroke: #000000; stroke-width: 0.0211538px; stroke-linecap: butt; stroke-linejoin: bevel; stroke-miterlimit: 4; stroke-dasharray: none; stroke-opacity: 1" d="M 63.606696,132.38537 H 153.849 v 0.34904 H 63.606696 Z m 89.887984,-0.88318 2.11538,1.0577 -2.11538,1.05769 z" id="path2712" />
    <g transform="matrix(0.26458333,0,0,0.26458333,22.578812,4.2565241)" clip-path="url(#clipEmfPath13-5)" id="g2722">
      <text style="font-style: normal; font-variant: normal; font-weight: 400; font-size: 12px; line-height: 125%; font-family: Arial; text-align: start; letter-spacing: 0px; word-spacing: 0px; text-anchor: start; fill: #000000; fill-opacity: 1; stroke: none" transform="translate(279.11084,502.33555)" x="0" y="0" id="text2720"><tspan x="0" y="0" id="tspan2718"><tspan dx="0" dy="0" style="font-style: normal; font-variant: normal; font-weight: 400; font-size: 12px; font-family: Arial; fill: #000000" id="tspan2714">(Synchronization info)</tspan><tspan dx="0" dy="0" style="font-style: normal; font-variant: normal; font-weight: 400; font-size: 12px; font-family: Arial; fill: #000000" id="tspan2716"> </tspan></tspan></text>
    </g>
    <g transform="matrix(0.26458333,0,0,0.26458333,22.578812,4.2565241)" clip-path="url(#clipEmfPath14-4)" id="g2732">
      <text style="font-style: normal; font-variant: normal; font-weight: 400; font-size: 12px; line-height: 125%; font-family: Arial; text-align: start; letter-spacing: 0px; word-spacing: 0px; text-anchor: start; fill: #000000; fill-opacity: 1; stroke: none" transform="translate(279.11084,439.41369)" x="0" y="0" id="text2730"><tspan x="0" y="0" id="tspan2728"><tspan dx="0" dy="0" style="font-style: normal; font-variant: normal; font-weight: 400; font-size: 12px; font-family: Arial; fill: #000000" id="tspan2724">(RTSP Session)</tspan><tspan dx="0.36002001" dy="0" style="font-style: normal; font-variant: normal; font-weight: 400; font-size: 12px; font-family: Arial; fill: #000000" id="tspan2726"> </tspan></tspan></text>
    </g>
    <path style="fill: #000000; fill-opacity: 1; fill-rule: nonzero; stroke: #000000; stroke-width: 0.0211538px; stroke-linecap: butt; stroke-linejoin: bevel; stroke-miterlimit: 4; stroke-dasharray: none; stroke-opacity: 1" d="m 66.250926,162.8469 89.359134,0.0159 v 1.05769 l -89.359134,-0.0159 z m 0.528847,2.11539 -3.173077,-1.58654 3.178366,-1.58654 z" id="path2734" />
    <g transform="matrix(0.26458333,0,0,0.26458333,22.578812,4.2565241)" clip-path="url(#clipEmfPath15-3)" id="g2744">
      <text style="font-style: normal; font-variant: normal; font-weight: 700; font-size: 13.375px; line-height: 125%; font-family: Arial; text-align: start; letter-spacing: 0px; word-spacing: 0px; text-anchor: start; fill: #000000; fill-opacity: 1; stroke: none" transform="translate(270.47607,552.30527)" x="0" y="0" id="text2742"><tspan x="0" y="0" id="tspan2740"><tspan dx="0" dy="0" style="font-style: normal; font-variant: normal; font-weight: 700; font-size: 13.375px; font-family: Arial; fill: #000000" id="tspan2736">PAUSE</tspan><tspan dx="0.80380797" dy="0" style="font-style: normal; font-variant: normal; font-weight: 700; font-size: 13.375px; font-family: Arial; fill: #000000" id="tspan2738"> </tspan></tspan></text>
    </g>
    <g transform="matrix(0.26458333,0,0,0.26458333,22.578812,4.2565241)" clip-path="url(#clipEmfPath16-0)" id="g2754">
      <text style="font-style: normal; font-variant: normal; font-weight: 400; font-size: 12px; line-height: 125%; font-family: Arial; text-align: start; letter-spacing: 0px; word-spacing: 0px; text-anchor: start; fill: #000000; fill-opacity: 1; stroke: none" transform="translate(404.07511,535.9152)" x="0" y="0" id="text2752"><tspan x="0" y="0" id="tspan2750"><tspan dx="0" dy="0" style="font-style: normal; font-variant: normal; font-weight: 400; font-size: 12px; font-family: Arial; fill: #000000" id="tspan2746">(RTSP stream)</tspan><tspan dx="0.38123199" dy="0" style="font-style: normal; font-variant: normal; font-weight: 400; font-size: 12px; font-family: Arial; fill: #000000" id="tspan2748"> </tspan></tspan></text>
    </g>
    <g transform="matrix(0.26458333,0,0,0.26458333,22.578812,4.2565241)" clip-path="url(#clipEmfPath17-5)" id="g2778">
      <text style="font-style: normal; font-variant: normal; font-weight: 700; font-size: 13.375px; line-height: 204.138%; font-family: Arial; text-align: start; letter-spacing: 0px; word-spacing: 0px; text-anchor: start; fill: #000000; fill-opacity: 1; stroke: none" transform="translate(30.54149,492.42156)" x="0" y="0" id="text2776"><tspan x="0" y="0" id="tspan2760"><tspan dx="0" dy="0" style="font-style: normal; font-variant: normal; font-weight: 700; font-size: 13.375px; font-family: Arial; fill: #000000" id="tspan2756">RTSP Over</tspan><tspan dx="0" dy="0" style="font-style: normal; font-variant: normal; font-weight: 700; font-size: 13.375px; font-family: Arial; fill: #000000" id="tspan2758"> </tspan></tspan><tspan x="0" y="27.303457" id="tspan2766"><tspan dx="0" dy="0" style="font-style: normal; font-variant: normal; font-weight: 700; font-size: 13.375px; font-family: Arial; fill: #000000" id="tspan2762">WebSocket</tspan><tspan dx="0" dy="0" style="font-style: normal; font-variant: normal; font-weight: 700; font-size: 13.375px; font-family: Arial; fill: #000000" id="tspan2764"> </tspan></tspan><tspan x="0" y="54.606915" id="tspan2774"><tspan dx="0" dy="0" style="font-style: normal; font-variant: normal; font-weight: 700; font-size: 13.375px; font-family: Arial; fill: #000000" id="tspan2768">(Data Tran</tspan><tspan dx="0.55444598" dy="0" style="font-style: normal; font-variant: normal; font-weight: 700; font-size: 13.375px; font-family: Arial; fill: #000000" id="tspan2770">sfer)</tspan><tspan dx="-0.207495" dy="0" style="font-style: normal; font-variant: normal; font-weight: 700; font-size: 13.375px; font-family: Arial; fill: #000000" id="tspan2772"> </tspan></tspan></text>
    </g>
    <path style="fill: #000000; fill-opacity: 1; fill-rule: nonzero; stroke: #000000; stroke-width: 0.0211538px; stroke-linecap: butt; stroke-linejoin: bevel; stroke-miterlimit: 4; stroke-dasharray: none; stroke-opacity: 1" d="m 64.928811,30.212293 89.359129,0.01587 v 1.057693 l -89.359129,-0.01587 z m 0.528847,2.115385 -3.173077,-1.58654 3.178366,-1.586537 z" id="path2780" />
    <g transform="matrix(0.26458333,0,0,0.26458333,22.578812,4.2565241)" clip-path="url(#clipEmfPath18-7)" id="g2790">
      <text style="font-style: normal; font-variant: normal; font-weight: 700; font-size: 13.375px; line-height: 125%; font-family: Arial; text-align: start; letter-spacing: 0px; word-spacing: 0px; text-anchor: start; fill: #000000; fill-opacity: 1; stroke: none" transform="translate(163.26105,83.389461)" x="0" y="0" id="text2788"><tspan x="0" y="0" id="tspan2786"><tspan dx="0" dy="0" style="font-style: normal; font-variant: normal; font-weight: 700; font-size: 13.375px; font-family: Arial; fill: #000000" id="tspan2782">GetServiceCapabilities</tspan><tspan dx="-0.57082802" dy="0" style="font-style: normal; font-variant: normal; font-weight: 700; font-size: 13.375px; font-family: Arial; fill: #000000" id="tspan2784"> </tspan></tspan></text>
    </g>
    <path style="fill: #000000; fill-opacity: 1; fill-rule: nonzero; stroke: #000000; stroke-width: 0.0211538px; stroke-linecap: butt; stroke-linejoin: bevel; stroke-miterlimit: 4; stroke-dasharray: none; stroke-opacity: 1" d="m 63.945159,36.114217 90.252881,0.02115 v 0.349038 l -90.252881,-0.01587 z m 89.903841,-0.86202 2.11539,1.057693 -2.11539,1.057693 z" id="path2792" />
    <g transform="matrix(0.26458333,0,0,0.26458333,22.578812,4.2565241)" clip-path="url(#clipEmfPath19-1)" id="g2802">
      <text style="font-style: normal; font-variant: normal; font-weight: 400; font-size: 12px; line-height: 125%; font-family: Arial; text-align: start; letter-spacing: 0px; word-spacing: 0px; text-anchor: start; fill: #000000; fill-opacity: 1; stroke: none" transform="translate(263.12053,138.23622)" x="0" y="0" id="text2800"><tspan x="0" y="0" id="tspan2798"><tspan dx="0" dy="0" style="font-style: normal; font-variant: normal; font-weight: 400; font-size: 12px; font-family: Arial; fill: #000000" id="tspan2794">Capabilities with Websocket URI</tspan><tspan dx="0" dy="0" style="font-style: normal; font-variant: normal; font-weight: 400; font-size: 12px; font-family: Arial; fill: #000000" id="tspan2796"> </tspan></tspan></text>
    </g>
    <path style="fill: #000000; fill-opacity: 1; fill-rule: nonzero; stroke: #000000; stroke-width: 0.0211538px; stroke-linecap: butt; stroke-linejoin: bevel; stroke-miterlimit: 4; stroke-dasharray: none; stroke-opacity: 1" d="m 66.589389,100.7445 89.375001,0.0159 v 1.0577 l -89.375001,-0.0159 z m 0.528847,2.11539 -3.173077,-1.59183 3.173077,-1.581246 z" id="path2804" />
    <g transform="matrix(0.26458333,0,0,0.26458333,22.578812,4.2565241)" clip-path="url(#clipEmfPath20-3)" id="g2814">
      <text style="font-style: normal; font-variant: normal; font-weight: 700; font-size: 13.375px; line-height: 125%; font-family: Arial; text-align: start; letter-spacing: 0px; word-spacing: 0px; text-anchor: start; fill: #000000; fill-opacity: 1; stroke: none" transform="translate(279.11084,358.82253)" x="0" y="0" id="text2812"><tspan x="0" y="0" id="tspan2810"><tspan dx="0" dy="0" style="font-style: normal; font-variant: normal; font-weight: 700; font-size: 13.375px; font-family: Arial; fill: #000000" id="tspan2806">Describe  (using RTSP URI)</tspan><tspan dx="-0.42943099" dy="0" style="font-style: normal; font-variant: normal; font-weight: 700; font-size: 13.375px; font-family: Arial; fill: #000000" id="tspan2808"> </tspan></tspan></text>
    </g>
    <path style="fill: #000000; fill-opacity: 1; fill-rule: nonzero; stroke: #000000; stroke-width: 0.0211538px; stroke-linecap: butt; stroke-linejoin: bevel; stroke-miterlimit: 4; stroke-dasharray: none; stroke-opacity: 1" d="m 63.606696,105.41421 90.242304,0.0159 v 0.35433 l -90.242304,-0.0212 z m 89.887984,-0.86731 2.11538,1.0577 -2.11538,1.05769 z" id="path2816" />
  </g>
</svg>