<?xml version="1.0" encoding="UTF-8" standalone="no"?><svg xmlns="http://www.w3.org/2000/svg" xmlns:xlink="http://www.w3.org/1999/xlink" contentScriptType="application/ecmascript" contentStyleType="text/css" height="1441px" preserveAspectRatio="none" style="width:1133px;height:1441px;" version="1.1" viewBox="0 0 1133 1441" width="1133px" zoomAndPan="magnify"><defs><filter height="300%" id="f9fexamtoy2mv" width="300%" x="-1" y="-1"><feGaussianBlur result="blurOut" stdDeviation="2.0"/><feColorMatrix in="blurOut" result="blurOut2" type="matrix" values="0 0 0 0 0 0 0 0 0 0 0 0 0 0 0 0 0 0 .4 0"/><feOffset dx="4.0" dy="4.0" in="blurOut2" result="blurOut3"/><feBlend in="SourceGraphic" in2="blurOut3" mode="normal"/></filter></defs><g><rect fill="#FFFFFF" filter="url(#f9fexamtoy2mv)" height="560.3906" style="stroke:#A80036;stroke-width:1.0;" width="10" x="101.5" y="588.4219"/><rect fill="#FFFFFF" filter="url(#f9fexamtoy2mv)" height="180.7969" style="stroke:#A80036;stroke-width:1.0;" width="10" x="375" y="310.2266"/><rect fill="#FFFFFF" filter="url(#f9fexamtoy2mv)" height="340.4609" style="stroke:#A80036;stroke-width:1.0;" width="10" x="375" y="964.0156"/><rect fill="#FFFFFF" filter="url(#f9fexamtoy2mv)" height="375.5938" style="stroke:#A80036;stroke-width:1.0;" width="10" x="645" y="212.8281"/><rect fill="#FFFFFF" filter="url(#f9fexamtoy2mv)" height="632.6563" style="stroke:#A80036;stroke-width:1.0;" width="10" x="645" y="700.9531"/><rect fill="#FFFFFF" filter="url(#f9fexamtoy2mv)" height="270.1953" style="stroke:#A80036;stroke-width:1.0;" width="10" x="1035" y="98.2969"/><line style="stroke:#A80036;stroke-width:1.0;stroke-dasharray:5.0,5.0;" x1="106" x2="106" y1="88.2969" y2="1351.6094"/><line style="stroke:#A80036;stroke-width:1.0;stroke-dasharray:5.0,5.0;" x1="234" x2="234" y1="88.2969" y2="1351.6094"/><line style="stroke:#A80036;stroke-width:1.0;stroke-dasharray:5.0,5.0;" x1="380" x2="380" y1="88.2969" y2="1351.6094"/><line style="stroke:#A80036;stroke-width:1.0;stroke-dasharray:5.0,5.0;" x1="649.5" x2="649.5" y1="88.2969" y2="1351.6094"/><line style="stroke:#A80036;stroke-width:1.0;stroke-dasharray:5.0,5.0;" x1="961" x2="961" y1="88.2969" y2="1351.6094"/><line style="stroke:#A80036;stroke-width:1.0;stroke-dasharray:5.0,5.0;" x1="1040" x2="1040" y1="88.2969" y2="1351.6094"/><text fill="#000000" font-family="sans-serif" font-size="14" lengthAdjust="spacing" textLength="89" x="59" y="84.9951">Outside user</text><ellipse cx="106.5" cy="15" fill="#FEFECE" filter="url(#f9fexamtoy2mv)" rx="8" ry="8" style="stroke:#A80036;stroke-width:2.0;"/><path d="M106.5,23 L106.5,50 M93.5,31 L119.5,31 M106.5,50 L93.5,65 M106.5,50 L119.5,65 " fill="none" filter="url(#f9fexamtoy2mv)" style="stroke:#A80036;stroke-width:2.0;"/><text fill="#000000" font-family="sans-serif" font-size="14" lengthAdjust="spacing" textLength="89" x="59" y="1363.6045">Outside user</text><ellipse cx="106.5" cy="1376.9063" fill="#FEFECE" filter="url(#f9fexamtoy2mv)" rx="8" ry="8" style="stroke:#A80036;stroke-width:2.0;"/><path d="M106.5,1384.9063 L106.5,1411.9063 M93.5,1392.9063 L119.5,1392.9063 M106.5,1411.9063 L93.5,1426.9063 M106.5,1411.9063 L119.5,1426.9063 " fill="none" filter="url(#f9fexamtoy2mv)" style="stroke:#A80036;stroke-width:2.0;"/><text fill="#000000" font-family="sans-serif" font-size="14" lengthAdjust="spacing" textLength="87" x="188" y="68.6982">AccessPoint</text><text fill="#000000" font-family="sans-serif" font-size="14" lengthAdjust="spacing" textLength="113" x="175" y="84.9951">Profile D device</text><ellipse cx="234.5" cy="39.7031" fill="#FEFECE" filter="url(#f9fexamtoy2mv)" rx="12" ry="12" style="stroke:#A80036;stroke-width:2.0;"/><line style="stroke:#A80036;stroke-width:2.0;" x1="222.5" x2="246.5" y1="53.7031" y2="53.7031"/><text fill="#000000" font-family="sans-serif" font-size="14" lengthAdjust="spacing" textLength="87" x="188" y="1363.6045">AccessPoint</text><text fill="#000000" font-family="sans-serif" font-size="14" lengthAdjust="spacing" textLength="113" x="175" y="1379.9014">Profile D device</text><ellipse cx="234.5" cy="1399.2031" fill="#FEFECE" filter="url(#f9fexamtoy2mv)" rx="12" ry="12" style="stroke:#A80036;stroke-width:2.0;"/><line style="stroke:#A80036;stroke-width:2.0;" x1="222.5" x2="246.5" y1="1413.2031" y2="1413.2031"/><text fill="#000000" font-family="sans-serif" font-size="14" lengthAdjust="spacing" textLength="35" x="359.5" y="68.6982">Door</text><text fill="#000000" font-family="sans-serif" font-size="14" lengthAdjust="spacing" textLength="146" x="304" y="84.9951">Profile C or D device</text><ellipse cx="380" cy="39.7031" fill="#FEFECE" filter="url(#f9fexamtoy2mv)" rx="12" ry="12" style="stroke:#A80036;stroke-width:2.0;"/><line style="stroke:#A80036;stroke-width:2.0;" x1="368" x2="392" y1="53.7031" y2="53.7031"/><text fill="#000000" font-family="sans-serif" font-size="14" lengthAdjust="spacing" textLength="35" x="359.5" y="1363.6045">Door</text><text fill="#000000" font-family="sans-serif" font-size="14" lengthAdjust="spacing" textLength="146" x="304" y="1379.9014">Profile C or D device</text><ellipse cx="380" cy="1399.2031" fill="#FEFECE" filter="url(#f9fexamtoy2mv)" rx="12" ry="12" style="stroke:#A80036;stroke-width:2.0;"/><line style="stroke:#A80036;stroke-width:2.0;" x1="368" x2="392" y1="1413.2031" y2="1413.2031"/><text fill="#000000" font-family="sans-serif" font-size="14" lengthAdjust="spacing" textLength="73" x="610.5" y="52.4014">Controller</text><text fill="#000000" font-family="sans-serif" font-size="14" lengthAdjust="spacing" textLength="111" x="591.5" y="68.6982">Profile D client,</text><text fill="#000000" font-family="sans-serif" font-size="14" lengthAdjust="spacing" textLength="145" x="574.5" y="84.9951">Profile A or C device</text><ellipse cx="650" cy="23.4063" fill="#FEFECE" filter="url(#f9fexamtoy2mv)" rx="12" ry="12" style="stroke:#A80036;stroke-width:2.0;"/><line style="stroke:#A80036;stroke-width:2.0;" x1="638" x2="662" y1="37.4063" y2="37.4063"/><text fill="#000000" font-family="sans-serif" font-size="14" lengthAdjust="spacing" textLength="73" x="610.5" y="1363.6045">Controller</text><text fill="#000000" font-family="sans-serif" font-size="14" lengthAdjust="spacing" textLength="111" x="591.5" y="1379.9014">Profile D client,</text><text fill="#000000" font-family="sans-serif" font-size="14" lengthAdjust="spacing" textLength="145" x="574.5" y="1396.1982">Profile A or C device</text><ellipse cx="650" cy="1415.5" fill="#FEFECE" filter="url(#f9fexamtoy2mv)" rx="12" ry="12" style="stroke:#A80036;stroke-width:2.0;"/><line style="stroke:#A80036;stroke-width:2.0;" x1="638" x2="662" y1="1429.5" y2="1429.5"/><text fill="#000000" font-family="sans-serif" font-size="14" lengthAdjust="spacing" textLength="42" x="937" y="68.6982">Event</text><text fill="#000000" font-family="sans-serif" font-size="14" lengthAdjust="spacing" textLength="50" x="933" y="84.9951">Logger</text><path d="M943,19.7031 C943,9.7031 961,9.7031 961,9.7031 C961,9.7031 979,9.7031 979,19.7031 L979,45.7031 C979,55.7031 961,55.7031 961,55.7031 C961,55.7031 943,55.7031 943,45.7031 L943,19.7031 " fill="#FEFECE" filter="url(#f9fexamtoy2mv)" style="stroke:#000000;stroke-width:1.5;"/><path d="M943,19.7031 C943,29.7031 961,29.7031 961,29.7031 C961,29.7031 979,29.7031 979,19.7031 " fill="none" style="stroke:#000000;stroke-width:1.5;"/><text fill="#000000" font-family="sans-serif" font-size="14" lengthAdjust="spacing" textLength="42" x="937" y="1363.6045">Event</text><text fill="#000000" font-family="sans-serif" font-size="14" lengthAdjust="spacing" textLength="50" x="933" y="1379.9014">Logger</text><path d="M943,1393.2031 C943,1383.2031 961,1383.2031 961,1383.2031 C961,1383.2031 979,1383.2031 979,1393.2031 L979,1419.2031 C979,1429.2031 961,1429.2031 961,1429.2031 C961,1429.2031 943,1429.2031 943,1419.2031 L943,1393.2031 " fill="#FEFECE" filter="url(#f9fexamtoy2mv)" style="stroke:#000000;stroke-width:1.5;"/><path d="M943,1393.2031 C943,1403.2031 961,1403.2031 961,1403.2031 C961,1403.2031 979,1403.2031 979,1393.2031 " fill="none" style="stroke:#000000;stroke-width:1.5;"/><text fill="#000000" font-family="sans-serif" font-size="14" lengthAdjust="spacing" textLength="76" x="999" y="84.9951">Inside user</text><ellipse cx="1040" cy="15" fill="#FEFECE" filter="url(#f9fexamtoy2mv)" rx="8" ry="8" style="stroke:#A80036;stroke-width:2.0;"/><path d="M1040,23 L1040,50 M1027,31 L1053,31 M1040,50 L1027,65 M1040,50 L1053,65 " fill="none" filter="url(#f9fexamtoy2mv)" style="stroke:#A80036;stroke-width:2.0;"/><text fill="#000000" font-family="sans-serif" font-size="14" lengthAdjust="spacing" textLength="76" x="999" y="1363.6045">Inside user</text><ellipse cx="1040" cy="1376.9063" fill="#FEFECE" filter="url(#f9fexamtoy2mv)" rx="8" ry="8" style="stroke:#A80036;stroke-width:2.0;"/><path d="M1040,1384.9063 L1040,1411.9063 M1027,1392.9063 L1053,1392.9063 M1040,1411.9063 L1027,1426.9063 M1040,1411.9063 L1053,1426.9063 " fill="none" filter="url(#f9fexamtoy2mv)" style="stroke:#A80036;stroke-width:2.0;"/><rect fill="#FFFFFF" filter="url(#f9fexamtoy2mv)" height="560.3906" style="stroke:#A80036;stroke-width:1.0;" width="10" x="101.5" y="588.4219"/><rect fill="#FFFFFF" filter="url(#f9fexamtoy2mv)" height="180.7969" style="stroke:#A80036;stroke-width:1.0;" width="10" x="375" y="310.2266"/><rect fill="#FFFFFF" filter="url(#f9fexamtoy2mv)" height="340.4609" style="stroke:#A80036;stroke-width:1.0;" width="10" x="375" y="964.0156"/><rect fill="#FFFFFF" filter="url(#f9fexamtoy2mv)" height="375.5938" style="stroke:#A80036;stroke-width:1.0;" width="10" x="645" y="212.8281"/><rect fill="#FFFFFF" filter="url(#f9fexamtoy2mv)" height="632.6563" style="stroke:#A80036;stroke-width:1.0;" width="10" x="645" y="700.9531"/><rect fill="#FFFFFF" filter="url(#f9fexamtoy2mv)" height="270.1953" style="stroke:#A80036;stroke-width:1.0;" width="10" x="1035" y="98.2969"/><path d="M211,103.2969 L211,128.2969 L254,128.2969 L254,113.2969 L244,103.2969 L211,103.2969 " fill="#FBFB77" filter="url(#f9fexamtoy2mv)" style="stroke:#A80036;stroke-width:1.0;"/><path d="M244,103.2969 L244,113.2969 L254,113.2969 L244,103.2969 " fill="#FBFB77" style="stroke:#A80036;stroke-width:1.0;"/><text fill="#000000" font-family="sans-serif" font-size="13" lengthAdjust="spacing" textLength="22" x="217" y="120.3638">Idle</text><path d="M329,103.2969 L329,128.2969 L426,128.2969 L426,113.2969 L416,103.2969 L329,103.2969 " fill="#FBFB77" filter="url(#f9fexamtoy2mv)" style="stroke:#A80036;stroke-width:1.0;"/><path d="M416,103.2969 L416,113.2969 L426,113.2969 L416,103.2969 " fill="#FBFB77" style="stroke:#A80036;stroke-width:1.0;"/><text fill="#000000" font-family="sans-serif" font-size="13" lengthAdjust="spacing" textLength="76" x="335" y="120.3638">DoorLocked</text><path d="M626,103.2969 L626,128.2969 L669,128.2969 L669,113.2969 L659,103.2969 L626,103.2969 " fill="#FBFB77" filter="url(#f9fexamtoy2mv)" style="stroke:#A80036;stroke-width:1.0;"/><path d="M659,103.2969 L659,113.2969 L669,113.2969 L659,103.2969 " fill="#FBFB77" style="stroke:#A80036;stroke-width:1.0;"/><text fill="#000000" font-family="sans-serif" font-size="13" lengthAdjust="spacing" textLength="22" x="632" y="120.3638">Idle</text><path d="M952,142.4297 L952,182.4297 L1123,182.4297 L1123,152.4297 L1113,142.4297 L952,142.4297 " fill="#FBFB77" filter="url(#f9fexamtoy2mv)" style="stroke:#A80036;stroke-width:1.0;"/><path d="M1113,142.4297 L1113,152.4297 L1123,152.4297 L1113,142.4297 " fill="#FBFB77" style="stroke:#A80036;stroke-width:1.0;"/><text fill="#000000" font-family="sans-serif" font-size="13" lengthAdjust="spacing" textLength="109" x="958" y="159.4966">Approaches door</text><text fill="#000000" font-family="sans-serif" font-size="13" lengthAdjust="spacing" textLength="150" x="958" y="174.6294">and pushes REX button</text><polygon fill="#A80036" points="666,208.8281,656,212.8281,666,216.8281,662,212.8281" style="stroke:#A80036;stroke-width:1.0;"/><line style="stroke:#A80036;stroke-width:1.0;" x1="660" x2="1034" y1="212.8281" y2="212.8281"/><text fill="#000000" font-family="sans-serif" font-size="13" lengthAdjust="spacing" textLength="78" x="672" y="207.7622">Internal REX</text><path d="M595,225.8281 L595,250.8281 L700,250.8281 L700,235.8281 L690,225.8281 L595,225.8281 " fill="#FBFB77" filter="url(#f9fexamtoy2mv)" style="stroke:#A80036;stroke-width:1.0;"/><path d="M690,225.8281 L690,235.8281 L700,235.8281 L690,225.8281 " fill="#FBFB77" style="stroke:#A80036;stroke-width:1.0;"/><text fill="#000000" font-family="sans-serif" font-size="13" lengthAdjust="spacing" textLength="84" x="601" y="242.895">Grant access</text><polygon fill="#A80036" points="949,277.0938,959,281.0938,949,285.0938,953,281.0938" style="stroke:#A80036;stroke-width:1.0;"/><line style="stroke:#A80036;stroke-width:1.0;" x1="655" x2="955" y1="281.0938" y2="281.0938"/><text fill="#000000" font-family="sans-serif" font-size="13" lengthAdjust="spacing" textLength="273" x="662" y="276.0278">AccessControl/AccessGranted/Anonymous</text><polygon fill="#A80036" points="396,306.2266,386,310.2266,396,314.2266,392,310.2266" style="stroke:#A80036;stroke-width:1.0;"/><line style="stroke:#A80036;stroke-width:1.0;" x1="390" x2="644" y1="310.2266" y2="310.2266"/><text fill="#000000" font-family="sans-serif" font-size="13" lengthAdjust="spacing" textLength="86" x="402" y="305.1606">AccessDoor()</text><polygon fill="#A80036" points="245.5,335.3594,235.5,339.3594,245.5,343.3594,241.5,339.3594" style="stroke:#A80036;stroke-width:1.0;"/><line style="stroke:#A80036;stroke-width:1.0;" x1="239.5" x2="644" y1="339.3594" y2="339.3594"/><text fill="#000000" font-family="sans-serif" font-size="13" lengthAdjust="spacing" textLength="160" x="251.5" y="334.2935">Feedback(DoorUnlocked)</text><polygon fill="#A80036" points="633,364.4922,643,368.4922,633,372.4922,637,368.4922" style="stroke:#A80036;stroke-width:1.0;"/><line style="stroke:#A80036;stroke-width:1.0;" x1="385" x2="639" y1="368.4922" y2="368.4922"/><text fill="#000000" font-family="sans-serif" font-size="13" lengthAdjust="spacing" textLength="171" x="392" y="363.4263">Door/DoorMode=Accessed</text><path d="M951,381.4922 L951,421.4922 L1124,421.4922 L1124,391.4922 L1114,381.4922 L951,381.4922 " fill="#FBFB77" filter="url(#f9fexamtoy2mv)" style="stroke:#A80036;stroke-width:1.0;"/><path d="M1114,381.4922 L1114,391.4922 L1124,391.4922 L1114,381.4922 " fill="#FBFB77" style="stroke:#A80036;stroke-width:1.0;"/><text fill="#000000" font-family="sans-serif" font-size="13" lengthAdjust="spacing" textLength="152" x="957" y="398.5591">Does not open the door</text><text fill="#000000" font-family="sans-serif" font-size="13" lengthAdjust="spacing" textLength="98" x="957" y="413.6919">and goes away</text><line style="stroke:#A80036;stroke-width:2.0;" x1="1031" x2="1049" y1="359.4922" y2="377.4922"/><line style="stroke:#A80036;stroke-width:2.0;" x1="1031" x2="1049" y1="377.4922" y2="359.4922"/><path d="M312,435.7578 L312,460.7578 L443,460.7578 L443,445.7578 L433,435.7578 L312,435.7578 " fill="#FBFB77" filter="url(#f9fexamtoy2mv)" style="stroke:#A80036;stroke-width:1.0;"/><path d="M433,435.7578 L433,445.7578 L443,445.7578 L433,435.7578 " fill="#FBFB77" style="stroke:#A80036;stroke-width:1.0;"/><text fill="#000000" font-family="sans-serif" font-size="13" lengthAdjust="spacing" textLength="110" x="318" y="452.8247">Access times out</text><polygon fill="#A80036" points="633,487.0234,643,491.0234,633,495.0234,637,491.0234" style="stroke:#A80036;stroke-width:1.0;"/><line style="stroke:#A80036;stroke-width:1.0;" x1="380" x2="639" y1="491.0234" y2="491.0234"/><text fill="#000000" font-family="sans-serif" font-size="13" lengthAdjust="spacing" textLength="186" x="387" y="485.9575">Door/DoorMode=DoorLocked</text><line style="stroke:#A80036;stroke-width:2.0;" x1="371" x2="389" y1="482.0234" y2="500.0234"/><line style="stroke:#A80036;stroke-width:2.0;" x1="371" x2="389" y1="500.0234" y2="482.0234"/><path d="M582,504.0234 L582,529.0234 L713,529.0234 L713,514.0234 L703,504.0234 L582,504.0234 " fill="#FBFB77" filter="url(#f9fexamtoy2mv)" style="stroke:#A80036;stroke-width:1.0;"/><path d="M703,504.0234 L703,514.0234 L713,514.0234 L703,504.0234 " fill="#FBFB77" style="stroke:#A80036;stroke-width:1.0;"/><text fill="#000000" font-family="sans-serif" font-size="13" lengthAdjust="spacing" textLength="110" x="588" y="521.0903">Access not taken</text><polygon fill="#A80036" points="949,555.2891,959,559.2891,949,563.2891,953,559.2891" style="stroke:#A80036;stroke-width:1.0;"/><line style="stroke:#A80036;stroke-width:1.0;" x1="655" x2="955" y1="559.2891" y2="559.2891"/><text fill="#000000" font-family="sans-serif" font-size="13" lengthAdjust="spacing" textLength="282" x="662" y="554.2231">AccessControl/AccessNotTaken/Anonymous</text><polygon fill="#A80036" points="245.5,584.4219,235.5,588.4219,245.5,592.4219,241.5,588.4219" style="stroke:#A80036;stroke-width:1.0;"/><line style="stroke:#A80036;stroke-width:1.0;" x1="239.5" x2="649" y1="588.4219" y2="588.4219"/><text fill="#000000" font-family="sans-serif" font-size="13" lengthAdjust="spacing" textLength="147" x="251.5" y="583.356">Feedback(DoorLocked)</text><line style="stroke:#A80036;stroke-width:2.0;" x1="641" x2="659" y1="579.4219" y2="597.4219"/><line style="stroke:#A80036;stroke-width:2.0;" x1="641" x2="659" y1="597.4219" y2="579.4219"/><path d="M25,601.4219 L25,641.4219 L184,641.4219 L184,611.4219 L174,601.4219 L25,601.4219 " fill="#FBFB77" filter="url(#f9fexamtoy2mv)" style="stroke:#A80036;stroke-width:1.0;"/><path d="M174,601.4219 L174,611.4219 L184,611.4219 L174,601.4219 " fill="#FBFB77" style="stroke:#A80036;stroke-width:1.0;"/><text fill="#000000" font-family="sans-serif" font-size="13" lengthAdjust="spacing" textLength="108" x="31" y="618.4888">User approaches</text><text fill="#000000" font-family="sans-serif" font-size="13" lengthAdjust="spacing" textLength="138" x="31" y="633.6216">and presents his card</text><polygon fill="#A80036" points="222.5,667.8203,232.5,671.8203,222.5,675.8203,226.5,671.8203" style="stroke:#A80036;stroke-width:1.0;"/><line style="stroke:#A80036;stroke-width:1.0;" x1="111.5" x2="228.5" y1="671.8203" y2="671.8203"/><text fill="#000000" font-family="sans-serif" font-size="13" lengthAdjust="spacing" textLength="99" x="118.5" y="666.7544">Card presented</text><polygon fill="#A80036" points="633,696.9531,643,700.9531,633,704.9531,637,700.9531" style="stroke:#A80036;stroke-width:1.0;"/><line style="stroke:#A80036;stroke-width:1.0;" x1="234.5" x2="639" y1="700.9531" y2="700.9531"/><text fill="#000000" font-family="sans-serif" font-size="13" lengthAdjust="spacing" textLength="270" x="241.5" y="695.8872">AccessControl/Request/Identifier (pt:Card)</text><path d="M599,713.9531 L599,738.9531 L697,738.9531 L697,723.9531 L687,713.9531 L599,713.9531 " fill="#FBFB77" filter="url(#f9fexamtoy2mv)" style="stroke:#A80036;stroke-width:1.0;"/><path d="M687,713.9531 L687,723.9531 L697,723.9531 L687,713.9531 " fill="#FBFB77" style="stroke:#A80036;stroke-width:1.0;"/><text fill="#000000" font-family="sans-serif" font-size="13" lengthAdjust="spacing" textLength="77" x="605" y="731.02">PIN required</text><polygon fill="#A80036" points="245.5,765.2188,235.5,769.2188,245.5,773.2188,241.5,769.2188" style="stroke:#A80036;stroke-width:1.0;"/><line style="stroke:#A80036;stroke-width:1.0;" x1="239.5" x2="644" y1="769.2188" y2="769.2188"/><text fill="#000000" font-family="sans-serif" font-size="13" lengthAdjust="spacing" textLength="222" x="251.5" y="764.1528">Feedback(RequireIdentifier, pt:PIN)</text><path d="M45,782.2188 L45,807.2188 L164,807.2188 L164,792.2188 L154,782.2188 L45,782.2188 " fill="#FBFB77" filter="url(#f9fexamtoy2mv)" style="stroke:#A80036;stroke-width:1.0;"/><path d="M154,782.2188 L154,792.2188 L164,792.2188 L154,782.2188 " fill="#FBFB77" style="stroke:#A80036;stroke-width:1.0;"/><text fill="#000000" font-family="sans-serif" font-size="13" lengthAdjust="spacing" textLength="98" x="51" y="799.2856">User enters PIN</text><polygon fill="#A80036" points="222.5,833.4844,232.5,837.4844,222.5,841.4844,226.5,837.4844" style="stroke:#A80036;stroke-width:1.0;"/><line style="stroke:#A80036;stroke-width:1.0;" x1="111.5" x2="228.5" y1="837.4844" y2="837.4844"/><text fill="#000000" font-family="sans-serif" font-size="13" lengthAdjust="spacing" textLength="89" x="118.5" y="832.4185">PIN presented</text><polygon fill="#A80036" points="633,862.6172,643,866.6172,633,870.6172,637,866.6172" style="stroke:#A80036;stroke-width:1.0;"/><line style="stroke:#A80036;stroke-width:1.0;" x1="234.5" x2="639" y1="866.6172" y2="866.6172"/><text fill="#000000" font-family="sans-serif" font-size="13" lengthAdjust="spacing" textLength="260" x="241.5" y="861.5513">AccessControl/Request/Identifier (pt:PIN)</text><path d="M595,879.6172 L595,904.6172 L700,904.6172 L700,889.6172 L690,879.6172 L595,879.6172 " fill="#FBFB77" filter="url(#f9fexamtoy2mv)" style="stroke:#A80036;stroke-width:1.0;"/><path d="M690,879.6172 L690,889.6172 L700,889.6172 L690,879.6172 " fill="#FBFB77" style="stroke:#A80036;stroke-width:1.0;"/><text fill="#000000" font-family="sans-serif" font-size="13" lengthAdjust="spacing" textLength="84" x="601" y="896.6841">Grant access</text><polygon fill="#A80036" points="949,930.8828,959,934.8828,949,938.8828,953,934.8828" style="stroke:#A80036;stroke-width:1.0;"/><line style="stroke:#A80036;stroke-width:1.0;" x1="655" x2="955" y1="934.8828" y2="934.8828"/><text fill="#000000" font-family="sans-serif" font-size="13" lengthAdjust="spacing" textLength="261" x="662" y="929.8169">AccessControl/AccessGranted/Credential</text><polygon fill="#A80036" points="396,960.0156,386,964.0156,396,968.0156,392,964.0156" style="stroke:#A80036;stroke-width:1.0;"/><line style="stroke:#A80036;stroke-width:1.0;" x1="390" x2="644" y1="964.0156" y2="964.0156"/><text fill="#000000" font-family="sans-serif" font-size="13" lengthAdjust="spacing" textLength="86" x="402" y="958.9497">AccessDoor()</text><polygon fill="#A80036" points="633,989.1484,643,993.1484,633,997.1484,637,993.1484" style="stroke:#A80036;stroke-width:1.0;"/><line style="stroke:#A80036;stroke-width:1.0;" x1="385" x2="639" y1="993.1484" y2="993.1484"/><text fill="#000000" font-family="sans-serif" font-size="13" lengthAdjust="spacing" textLength="171" x="392" y="988.0825">Door/DoorMode=Accessed</text><polygon fill="#A80036" points="245.5,1018.2813,235.5,1022.2813,245.5,1026.2813,241.5,1022.2813" style="stroke:#A80036;stroke-width:1.0;"/><line style="stroke:#A80036;stroke-width:1.0;" x1="239.5" x2="644" y1="1022.2813" y2="1022.2813"/><text fill="#000000" font-family="sans-serif" font-size="13" lengthAdjust="spacing" textLength="264" x="251.5" y="1017.2153">ExternalAuthorization(Decision=Granted)</text><polygon fill="#A80036" points="245.5,1047.4141,235.5,1051.4141,245.5,1055.4141,241.5,1051.4141" style="stroke:#A80036;stroke-width:1.0;"/><line style="stroke:#A80036;stroke-width:1.0;" x1="239.5" x2="644" y1="1051.4141" y2="1051.4141"/><text fill="#000000" font-family="sans-serif" font-size="13" lengthAdjust="spacing" textLength="168" x="251.5" y="1046.3481">Feedback(AccessGranted)</text><path d="M5,1064.4141 L5,1089.4141 L204,1089.4141 L204,1074.4141 L194,1064.4141 L5,1064.4141 " fill="#FBFB77" filter="url(#f9fexamtoy2mv)" style="stroke:#A80036;stroke-width:1.0;"/><path d="M194,1064.4141 L194,1074.4141 L204,1074.4141 L194,1064.4141 " fill="#FBFB77" style="stroke:#A80036;stroke-width:1.0;"/><text fill="#000000" font-family="sans-serif" font-size="13" lengthAdjust="spacing" textLength="178" x="11" y="1081.481">User opens door and enters</text><polygon fill="#A80036" points="363,1115.6797,373,1119.6797,363,1123.6797,367,1119.6797" style="stroke:#A80036;stroke-width:1.0;"/><line style="stroke:#A80036;stroke-width:1.0;" x1="111.5" x2="369" y1="1119.6797" y2="1119.6797"/><text fill="#000000" font-family="sans-serif" font-size="13" lengthAdjust="spacing" textLength="67" x="118.5" y="1114.6138">Open door</text><polygon fill="#A80036" points="633,1144.8125,643,1148.8125,633,1152.8125,637,1148.8125" style="stroke:#A80036;stroke-width:1.0;"/><line style="stroke:#A80036;stroke-width:1.0;" x1="385" x2="639" y1="1148.8125" y2="1148.8125"/><text fill="#000000" font-family="sans-serif" font-size="13" lengthAdjust="spacing" textLength="227" x="392" y="1143.7466">Door/DoorPhysicalState=DoorOpen</text><path d="M595,1161.8125 L595,1186.8125 L701,1186.8125 L701,1171.8125 L691,1161.8125 L595,1161.8125 " fill="#FBFB77" filter="url(#f9fexamtoy2mv)" style="stroke:#A80036;stroke-width:1.0;"/><path d="M691,1161.8125 L691,1171.8125 L701,1171.8125 L691,1161.8125 " fill="#FBFB77" style="stroke:#A80036;stroke-width:1.0;"/><text fill="#000000" font-family="sans-serif" font-size="13" lengthAdjust="spacing" textLength="85" x="601" y="1178.8794">Access taken</text><line style="stroke:#A80036;stroke-width:2.0;" x1="97.5" x2="115.5" y1="1139.8125" y2="1157.8125"/><line style="stroke:#A80036;stroke-width:2.0;" x1="97.5" x2="115.5" y1="1157.8125" y2="1139.8125"/><polygon fill="#A80036" points="949,1213.0781,959,1217.0781,949,1221.0781,953,1217.0781" style="stroke:#A80036;stroke-width:1.0;"/><line style="stroke:#A80036;stroke-width:1.0;" x1="655" x2="955" y1="1217.0781" y2="1217.0781"/><text fill="#000000" font-family="sans-serif" font-size="13" lengthAdjust="spacing" textLength="270" x="662" y="1212.0122">AccessControl/AccessNotTaken/Credential</text><polygon fill="#A80036" points="245.5,1242.2109,235.5,1246.2109,245.5,1250.2109,241.5,1246.2109" style="stroke:#A80036;stroke-width:1.0;"/><line style="stroke:#A80036;stroke-width:1.0;" x1="239.5" x2="644" y1="1246.2109" y2="1246.2109"/><text fill="#000000" font-family="sans-serif" font-size="13" lengthAdjust="spacing" textLength="160" x="251.5" y="1241.145">Feedback(DoorUnlocked)</text><polygon fill="#A80036" points="633,1271.3438,643,1275.3438,633,1279.3438,637,1275.3438" style="stroke:#A80036;stroke-width:1.0;"/><line style="stroke:#A80036;stroke-width:1.0;" x1="385" x2="639" y1="1275.3438" y2="1275.3438"/><text fill="#000000" font-family="sans-serif" font-size="13" lengthAdjust="spacing" textLength="236" x="392" y="1270.2778">Door/DoorPhysicalState=DoorClosed</text><polygon fill="#A80036" points="633,1300.4766,643,1304.4766,633,1308.4766,637,1304.4766" style="stroke:#A80036;stroke-width:1.0;"/><line style="stroke:#A80036;stroke-width:1.0;" x1="380" x2="639" y1="1304.4766" y2="1304.4766"/><text fill="#000000" font-family="sans-serif" font-size="13" lengthAdjust="spacing" textLength="186" x="387" y="1299.4106">Door/DoorMode=DoorLocked</text><line style="stroke:#A80036;stroke-width:2.0;" x1="371" x2="389" y1="1295.4766" y2="1313.4766"/><line style="stroke:#A80036;stroke-width:2.0;" x1="371" x2="389" y1="1313.4766" y2="1295.4766"/><polygon fill="#A80036" points="245.5,1329.6094,235.5,1333.6094,245.5,1337.6094,241.5,1333.6094" style="stroke:#A80036;stroke-width:1.0;"/><line style="stroke:#A80036;stroke-width:1.0;" x1="239.5" x2="649" y1="1333.6094" y2="1333.6094"/><text fill="#000000" font-family="sans-serif" font-size="13" lengthAdjust="spacing" textLength="147" x="251.5" y="1328.5435">Feedback(DoorLocked)</text><line style="stroke:#A80036;stroke-width:2.0;" x1="641" x2="659" y1="1324.6094" y2="1342.6094"/><line style="stroke:#A80036;stroke-width:2.0;" x1="641" x2="659" y1="1342.6094" y2="1324.6094"/><!--MD5=[4e4ee7f69f01d4c5c8194d034cf4fdb1]
@startuml
actor      "Outside user"  as Outside
entity     "AccessPoint\nProfile D device" as Reader
entity     "Door\nProfile C or D device"   as Door
entity     "Controller\nProfile D client,\nProfile A or C device"  as Controller
database   "Event\nLogger"  as Logger
actor      "Inside user"  as Inside

note over Reader : Idle
/note over Door : DoorLocked
/note over Controller : Idle
activate Inside
note over Inside : Approaches door\nand pushes REX button
Inside -> Controller : Internal REX
activate Controller
note over Controller : Grant access
Controller -> Logger : AccessControl/AccessGranted/Anonymous
Controller ->Door : AccessDoor()
activate Door
Controller ->Reader : Feedback(DoorUnlocked)
Door -> Controller : Door/DoorMode=Accessed
note over Inside : Does not open the door\nand goes away
destroy Inside
note over Door : Access times out
Door -> Controller : Door/DoorMode=DoorLocked
destroy Door

note over Controller : Access not taken
Controller -> Logger : AccessControl/AccessNotTaken/Anonymous
Controller ->Reader : Feedback(DoorLocked)
destroy Controller

activate Outside
note over Outside : User approaches\nand presents his card
Outside -> Reader : Card presented
Reader -> Controller : AccessControl/Request/Identifier (pt:Card)
activate Controller
note over Controller : PIN required
Controller ->Reader : Feedback(RequireIdentifier, pt:PIN)

note over Outside : User enters PIN
Outside -> Reader : PIN presented
Reader -> Controller : AccessControl/Request/Identifier (pt:PIN)
note over Controller : Grant access
Controller -> Logger : AccessControl/AccessGranted/Credential

Controller -> Door : AccessDoor()
activate Door
Door -> Controller : Door/DoorMode=Accessed
Controller ->Reader : ExternalAuthorization(Decision=Granted)
Controller ->Reader : Feedback(AccessGranted)

note over Outside : User opens door and enters
Outside -> Door : Open door
Door -> Controller : Door/DoorPhysicalState=DoorOpen

note over Controller : Access taken
destroy Outside
Controller -> Logger : AccessControl/AccessNotTaken/Credential
Controller ->Reader : Feedback(DoorUnlocked)
Door -> Controller : Door/DoorPhysicalState=DoorClosed
Door -> Controller : Door/DoorMode=DoorLocked
destroy Door
Controller ->Reader : Feedback(DoorLocked)
destroy Controller
@enduml

PlantUML version 1.2021.5beta3(Unknown compile time)
(GPL source distribution)
Java Runtime: Java(TM) SE Runtime Environment
JVM: Java HotSpot(TM) 64-Bit Server VM
Default Encoding: UTF-8
Language: en
Country: US
--></g></svg>